<?xml version="1.0" standalone="no"?>
<!DOCTYPE svg PUBLIC "-//W3C//DTD SVG 1.1//EN" "http://www.w3.org/Graphics/SVG/1.1/DTD/svg11.dtd" >
<svg xmlns="http://www.w3.org/2000/svg" xmlns:xlink="http://www.w3.org/1999/xlink" version="1.1">
<metadata>
Created by FontForge 20201107 at Mon Apr 18 18:16:18 2022
 By Rahul Gajjar
Copyright 2021-2022 Indian Type Foundry. All rights reserved.
</metadata>
<defs>
<font id="ElevanceSans-Bold" horiz-adv-x="400" >
  <font-face 
    font-family="Elevance Sans"
    font-weight="700"
    font-stretch="normal"
    units-per-em="1000"
    panose-1="0 0 0 0 0 0 0 0 0 0"
    ascent="800"
    descent="-200"
    x-height="479"
    cap-height="641"
    bbox="-240 -219 1451 930"
    underline-thickness="50"
    underline-position="-125"
    unicode-range="U+0020-FB02"
  />
<missing-glyph horiz-adv-x="580" 
d="M520 0h-460v641h460v-641zM210 501v-361h160v361h-160z" />
    <glyph glyph-name="fi" unicode="fi" horiz-adv-x="627" 
d="M20 338v141h81c4 134 97 224 261 224c104 0 169 -27 219 -67l-79 -126c-29 25 -82 42 -130 42c-62 0 -104 -21 -109 -73h309v-479h-161v338h-149v-338h-161v338h-81z" />
    <glyph glyph-name="fl" unicode="fl" horiz-adv-x="627" 
d="M20 338v141h81c2 138 93 224 218 224c38 0 74 -5 104 -15h149v-688h-161v530c-15 12 -40 22 -74 22c-36 0 -75 -24 -75 -73h92v-141h-92v-338h-161v338h-81z" />
    <glyph glyph-name=".notdef" horiz-adv-x="580" 
d="M520 0h-460v641h460v-641zM210 501v-361h160v361h-160z" />
    <glyph glyph-name="space" unicode=" " horiz-adv-x="200" 
 />
    <glyph glyph-name="exclam" unicode="!" horiz-adv-x="299" 
d="M86 257l-22 384h171l-22 -384h-127zM149 -15c-55 0 -99 44 -99 99s44 100 99 100s100 -45 100 -100s-45 -99 -100 -99z" />
    <glyph glyph-name="quotedbl" unicode="&#x22;" horiz-adv-x="406" 
d="M186 688l-16 -234h-118l-12 234h146zM366 688l-16 -234h-118l-12 234h146z" />
    <glyph glyph-name="numbersign" unicode="#" horiz-adv-x="627" 
d="M68 0l32 156h-93l24 115h92l22 107h-92l23 115h92l30 148h133l-30 -148h94l30 148h133l-30 -148h92l-23 -115h-92l-22 -107h92l-23 -115h-92l-32 -156h-133l32 156h-94l-32 -156h-133zM256 271h94l22 107h-94z" />
    <glyph glyph-name="dollar" unicode="$" horiz-adv-x="561" 
d="M143 8c-30 8 -70 28 -119 61l67 136c50 -31 131 -55 191 -55c45 0 78 13 78 46c0 87 -313 24 -313 250c0 105 80 171 180 192v98h134v-96c60 -9 118 -33 166 -71l-78 -128c-41 29 -108 49 -158 49c-38 0 -67 -12 -67 -40c0 -83 313 -45 313 -247
c0 -106 -76 -172 -176 -197v-101h-134v92c-35 2 -63 5 -84 11z" />
    <glyph glyph-name="percent" unicode="%" horiz-adv-x="789" 
d="M191 326c-90 0 -171 73 -171 164s67 166 171 166c103 0 173 -75 173 -166s-82 -164 -173 -164zM244 0h-120l420 641h122zM192 419c37 0 69 28 69 71c0 46 -36 71 -69 71c-37 0 -69 -26 -69 -71c0 -44 33 -71 69 -71zM598 -15c-103 0 -173 75 -173 166s82 164 173 164
c90 0 171 -73 171 -164s-67 -166 -171 -166zM597 80c37 0 69 26 69 71c0 44 -33 71 -69 71c-37 0 -69 -28 -69 -71c0 -46 36 -71 69 -71z" />
    <glyph glyph-name="ampersand" unicode="&#x26;" horiz-adv-x="667" 
d="M275 -15c-125 0 -240 79 -240 200c0 73 38 125 109 158c-28 39 -41 79 -41 123c0 110 86 190 205 190c104 0 196 -75 196 -176c0 -79 -51 -131 -117 -164l63 -57c2 5 4 11 5 16l13 47l145 -28l-13 -46c-9 -33 -21 -63 -35 -91l73 -65l-106 -113l-67 62
c-52 -37 -115 -56 -190 -56zM262 465c0 -18 9 -42 28 -62c38 18 59 40 59 64c0 21 -15 43 -41 43c-30 0 -46 -22 -46 -45zM197 197c0 -42 39 -67 89 -67c25 0 48 4 68 13l-117 107c-24 -15 -40 -31 -40 -53z" />
    <glyph glyph-name="quotesingle" unicode="'" horiz-adv-x="226" 
d="M186 688l-16 -234h-118l-12 234h146z" />
    <glyph glyph-name="parenleft" unicode="(" horiz-adv-x="353" 
d="M343 -75l-102 -90c-128 123 -201 266 -201 437s73 314 201 437l102 -90c-91 -91 -142 -199 -142 -347s51 -256 142 -347z" />
    <glyph glyph-name="parenright" unicode=")" horiz-adv-x="353" 
d="M112 -165l-102 90c91 91 142 199 142 347s-51 256 -142 347l102 90c128 -123 201 -266 201 -437s-73 -314 -201 -437z" />
    <glyph glyph-name="asterisk" unicode="*" horiz-adv-x="439" 
d="M272 348l-52 88l-53 -88l-95 69l67 76l-99 22l37 112l93 -40l-10 101h118l-10 -101l94 40l37 -112l-99 -22l67 -76z" />
    <glyph glyph-name="plus" unicode="+" horiz-adv-x="521" 
d="M30 248v145h155v168h151v-168h155v-145h-155v-168h-151v168h-155z" />
    <glyph glyph-name="comma" unicode="," horiz-adv-x="269" 
d="M150 182c53 0 95 -41 95 -94c0 -20 -8 -51 -30 -86l-74 -116h-85l60 118c-36 14 -63 44 -63 82c0 54 42 96 97 96z" />
    <glyph glyph-name="hyphen" unicode="-" horiz-adv-x="335" 
d="M40 317h255v-135h-255v135z" />
    <glyph glyph-name="period" unicode="." horiz-adv-x="259" 
d="M134 -15c-55 0 -99 44 -99 99s44 100 99 100s100 -45 100 -100s-45 -99 -100 -99z" />
    <glyph glyph-name="slash" unicode="/" horiz-adv-x="445" 
d="M10 0l260 641h165l-260 -641h-165z" />
    <glyph glyph-name="zero" unicode="0" horiz-adv-x="594" 
d="M301 -15c-155 0 -268 142 -268 335c0 194 110 336 260 336c157 0 270 -142 268 -335c2 -194 -108 -336 -260 -336zM298 136c63 0 102 73 102 184s-40 185 -106 185c-60 0 -100 -73 -100 -184c0 -112 41 -185 104 -185z" />
    <glyph glyph-name="one" unicode="1" horiz-adv-x="460" 
d="M372 0h-161v452l-86 -83l-95 106l176 166h166v-641z" />
    <glyph glyph-name="two" unicode="2" horiz-adv-x="515" 
d="M29 0v121l230 220c38 36 56 68 56 101c0 40 -30 63 -72 63c-44 0 -82 -31 -108 -87l-125 82c35 78 109 156 242 156c141 0 224 -94 224 -210c0 -66 -33 -126 -105 -192l-123 -113h229v-141h-448z" />
    <glyph glyph-name="three" unicode="3" horiz-adv-x="513" 
d="M232 -15c-108 0 -187 48 -227 114l117 104c29 -46 66 -67 117 -67c62 0 86 30 86 71c0 57 -41 78 -99 78h-85v89l131 126h-221v141h416v-121l-136 -126c94 -26 155 -91 155 -188c0 -127 -88 -221 -254 -221z" />
    <glyph glyph-name="four" unicode="4" horiz-adv-x="565" 
d="M23 248l305 393h146v-393h84v-141h-84v-107h-156v107h-295v141zM172 248h146v190z" />
    <glyph glyph-name="five" unicode="5" horiz-adv-x="529" 
d="M244 136c55 0 91 31 91 78c0 46 -36 77 -91 77c-46 0 -80 -14 -107 -30l-72 53l50 327h342v-141h-210l-13 -77c13 3 35 4 46 4c130 0 216 -86 216 -216c0 -135 -99 -226 -249 -226c-108 0 -187 48 -227 114l117 104c29 -46 66 -67 107 -67z" />
    <glyph glyph-name="six" unicode="6" horiz-adv-x="553" 
d="M281 -15c-145 0 -248 104 -248 235c0 70 19 123 114 263l107 158h183l-137 -207c138 -8 226 -107 226 -214c0 -131 -97 -235 -245 -235zM280 304c-47 0 -86 -38 -86 -84s39 -84 86 -84s85 38 85 84s-38 84 -85 84z" />
    <glyph glyph-name="seven" unicode="7" horiz-adv-x="463" 
d="M223 0h-173l226 500h-254v141h424v-126z" />
    <glyph glyph-name="eight" unicode="8" horiz-adv-x="530" 
d="M263 -15c-136 0 -236 84 -236 198c0 69 37 126 96 161c-45 33 -73 82 -73 139c0 100 90 173 213 173c125 0 217 -73 217 -173c0 -57 -27 -106 -72 -138c59 -36 95 -93 95 -162c0 -114 -102 -198 -240 -198zM265 405c33 0 59 26 59 58c0 33 -26 59 -59 59s-59 -26 -59 -59
c0 -32 26 -58 59 -58zM265 120c43 0 77 35 77 79c0 43 -34 78 -77 78s-77 -35 -77 -78c0 -44 34 -79 77 -79z" />
    <glyph glyph-name="nine" unicode="9" horiz-adv-x="553" 
d="M272 641c145 0 248 -104 248 -235c0 -70 -19 -123 -114 -263l-107 -158h-183l137 207c-138 8 -226 107 -226 214c0 131 97 235 245 235zM273 322c47 0 86 38 86 84s-39 84 -86 84s-85 -38 -85 -84s38 -84 85 -84z" />
    <glyph glyph-name="colon" unicode=":" horiz-adv-x="259" 
d="M134 295c-55 0 -99 44 -99 99s44 100 99 100s100 -45 100 -100s-45 -99 -100 -99zM134 -15c-55 0 -99 44 -99 99s44 100 99 100s100 -45 100 -100s-45 -99 -100 -99z" />
    <glyph glyph-name="semicolon" unicode=";" horiz-adv-x="269" 
d="M134 295c-55 0 -99 44 -99 99s44 100 99 100s100 -45 100 -100s-45 -99 -100 -99zM137 182c53 0 95 -41 95 -94c0 -20 -8 -51 -30 -86l-74 -116h-85l60 118c-36 14 -63 44 -63 82c0 54 42 96 97 96z" />
    <glyph glyph-name="less" unicode="&#x3c;" horiz-adv-x="521" 
d="M491 223v-156l-461 188v142l461 187v-156l-291 -102z" />
    <glyph glyph-name="equal" unicode="=" horiz-adv-x="521" 
d="M30 358v145h461v-145h-461zM30 138v145h461v-145h-461z" />
    <glyph glyph-name="greater" unicode="&#x3e;" horiz-adv-x="521" 
d="M30 223l291 103l-291 102v156l461 -187v-142l-461 -188v156z" />
    <glyph glyph-name="question" unicode="?" horiz-adv-x="477" 
d="M157 241l-18 145l39 1c63 0 102 25 102 64c0 35 -31 52 -69 52c-37 0 -79 -15 -110 -45l-89 118c56 54 133 80 206 80c116 0 221 -65 221 -189c0 -88 -57 -160 -158 -176l-4 -50h-120zM220 -15c-55 0 -99 44 -99 99s44 100 99 100s100 -45 100 -100s-45 -99 -100 -99z
" />
    <glyph glyph-name="at" unicode="@" horiz-adv-x="846" 
d="M379 85c-87 0 -153 67 -153 173c0 116 81 206 179 206c42 0 71 -15 90 -41l1 30h118l-12 -209c-2 -34 16 -49 39 -49c40 0 61 51 61 114c0 138 -117 257 -274 257c-158 0 -284 -130 -284 -288c0 -157 126 -288 284 -288c63 0 100 11 135 33l46 -100
c-42 -27 -102 -46 -181 -46c-220 0 -401 180 -401 401s181 401 401 401c221 0 391 -171 391 -369c0 -110 -59 -224 -189 -224c-54 0 -109 19 -133 72c-25 -46 -65 -73 -118 -73zM410 198c48 0 76 41 76 83c0 41 -25 70 -65 70c-42 0 -75 -38 -75 -85c0 -39 30 -68 64 -68z
" />
    <glyph glyph-name="A" unicode="A" horiz-adv-x="714" 
d="M522 0l-44 121h-251l-44 -121h-173l250 641h194l250 -641h-182zM280 267h145l-72 199z" />
    <glyph glyph-name="B" unicode="B" horiz-adv-x="582" 
d="M454 326c62 -18 108 -67 108 -143c0 -97 -72 -183 -227 -183h-275v641h262c130 0 226 -74 226 -184c0 -74 -51 -112 -94 -131zM307 496h-82v-107h82c42 0 69 21 69 54c0 32 -27 53 -69 53zM320 255h-95v-110h95c42 0 69 22 69 56c0 33 -27 54 -69 54z" />
    <glyph glyph-name="C" unicode="C" horiz-adv-x="623" 
d="M608 561l-110 -126c-30 31 -80 56 -134 56c-88 0 -157 -76 -157 -170s69 -171 165 -171c47 0 97 21 126 56l110 -122c-54 -65 -135 -99 -247 -99c-189 0 -331 151 -331 336s149 335 332 335c116 0 195 -38 246 -95z" />
    <glyph glyph-name="D" unicode="D" horiz-adv-x="686" 
d="M60 0v641h233c209 0 363 -136 363 -322c0 -184 -154 -319 -363 -319h-233zM290 486h-60v-331h61c113 0 188 66 188 166c0 99 -75 165 -189 165z" />
    <glyph glyph-name="E" unicode="E" horiz-adv-x="516" 
d="M60 0v641h426v-155h-261v-84h221v-155h-221v-92h261v-155h-426z" />
    <glyph glyph-name="F" unicode="F" horiz-adv-x="507" 
d="M60 0v641h417v-155h-252v-102h212v-155h-212v-229h-165z" />
    <glyph glyph-name="G" unicode="G" horiz-adv-x="665" 
d="M361 -15c-200 0 -331 148 -331 336c0 191 158 335 339 335c116 0 195 -38 246 -95l-106 -121c-30 31 -84 56 -138 56c-86 0 -164 -70 -164 -175c0 -102 69 -182 175 -182c34 0 60 6 84 17h-1v69h-105v142h262v-301c-75 -56 -146 -81 -261 -81z" />
    <glyph glyph-name="H" unicode="H" horiz-adv-x="697" 
d="M472 0v253h-247v-253h-165v641h165v-233h247v233h165v-641h-165z" />
    <glyph glyph-name="I" unicode="I" horiz-adv-x="285" 
d="M60 0v641h165v-641h-165z" />
    <glyph glyph-name="J" unicode="J" horiz-adv-x="484" 
d="M10 82l111 114c21 -28 46 -46 75 -46c48 0 68 30 68 85v406h165v-395c0 -179 -98 -261 -228 -261c-90 0 -160 45 -191 97z" />
    <glyph glyph-name="K" unicode="K" horiz-adv-x="634" 
d="M225 0h-165v641h165v-302l200 302h198l-210 -315l220 -325h-207l-201 299v-300z" />
    <glyph glyph-name="L" unicode="L" horiz-adv-x="526" 
d="M60 0v641h165v-486h291v-155h-456z" />
    <glyph glyph-name="M" unicode="M" horiz-adv-x="824" 
d="M412 116l-187 270v-386h-165v641h190l173 -262l173 262h168v-641h-165v387z" />
    <glyph glyph-name="N" unicode="N" horiz-adv-x="697" 
d="M460 0l-235 365v-365h-165v641h177l235 -371v371h165v-641h-177z" />
    <glyph glyph-name="O" unicode="O" horiz-adv-x="732" 
d="M366 656c185 0 336 -151 336 -336s-151 -335 -336 -335s-336 151 -336 336s151 335 336 335zM366 150c88 0 159 76 159 170s-71 171 -159 171s-159 -76 -159 -170s71 -171 159 -171z" />
    <glyph glyph-name="P" unicode="P" horiz-adv-x="584" 
d="M60 0v641h233c163 0 271 -88 271 -222c0 -136 -108 -225 -272 -225h-67v-194h-165zM306 496h-81v-157h81c50 0 83 32 83 80c0 46 -33 77 -83 77z" />
    <glyph glyph-name="Q" unicode="Q" horiz-adv-x="732" 
d="M366 -15c-185 0 -336 151 -336 336s151 335 336 335s336 -151 336 -336c0 -69 -21 -134 -58 -187l84 -84l-106 -106l-87 87c-50 -28 -108 -45 -169 -45zM366 150c15 0 29 2 43 6l-82 82l106 106l82 -82c7 18 10 37 10 58c0 94 -71 171 -159 171s-159 -76 -159 -170
s71 -171 159 -171z" />
    <glyph glyph-name="R" unicode="R" horiz-adv-x="610" 
d="M60 0v641h233c163 0 271 -84 271 -212c0 -83 -44 -148 -119 -184l135 -245h-191l-110 214h-54v-214h-165zM306 496h-81v-137h81c50 0 83 28 83 70c0 40 -33 67 -83 67z" />
    <glyph glyph-name="S" unicode="S" horiz-adv-x="561" 
d="M142 -2c-30 8 -70 28 -119 61l67 136c50 -31 131 -55 191 -55c45 0 78 13 78 46c0 87 -313 46 -313 272c0 130 121 199 253 199c80 0 163 -25 227 -76l-78 -128c-41 29 -108 49 -158 49c-38 0 -67 -12 -67 -40c0 -83 313 -45 313 -269c0 -136 -125 -207 -267 -207
c-55 0 -98 4 -127 12z" />
    <glyph glyph-name="T" unicode="T" horiz-adv-x="536" 
d="M526 486h-176v-486h-165v486h-175v155h516v-155z" />
    <glyph glyph-name="U" unicode="U" horiz-adv-x="659" 
d="M55 274v367h165v-363c0 -77 44 -128 111 -128c65 0 108 50 108 127v364h165v-367c0 -174 -110 -289 -276 -289c-164 0 -273 115 -273 289z" />
    <glyph glyph-name="V" unicode="V" horiz-adv-x="684" 
d="M197 641l150 -462l149 462h173l-230 -641h-194l-230 641h182z" />
    <glyph glyph-name="W" unicode="W" horiz-adv-x="1040" 
d="M847 641h173l-200 -641h-208l-96 436l-96 -436h-200l-200 641h182l118 -451l101 451h207l101 -451z" />
    <glyph glyph-name="X" unicode="X" horiz-adv-x="669" 
d="M242 641l105 -163l109 163h186l-205 -304l217 -337h-207l-121 186l-125 -186h-186l219 326l-205 315h213z" />
    <glyph glyph-name="Y" unicode="Y" horiz-adv-x="651" 
d="M243 0v210l-233 431h183l136 -258l138 258h174l-233 -431v-210h-165z" />
    <glyph glyph-name="Z" unicode="Z" horiz-adv-x="582" 
d="M35 155l287 331h-277v155h492v-155l-287 -331h297v-155h-512v155z" />
    <glyph glyph-name="bracketleft" unicode="[" horiz-adv-x="341" 
d="M70 -130v818h251v-141h-90v-536h90v-141h-251z" />
    <glyph glyph-name="backslash" unicode="\" horiz-adv-x="445" 
d="M435 0h-165l-260 641h165z" />
    <glyph glyph-name="bracketright" unicode="]" horiz-adv-x="341" 
d="M271 -130h-251v141h90v536h-90v141h251v-818z" />
    <glyph glyph-name="asciicircum" unicode="^" horiz-adv-x="521" 
d="M196 641h134l161 -320h-141l-87 187l-91 -187h-141z" />
    <glyph glyph-name="underscore" unicode="_" horiz-adv-x="455" 
d="M0 -20h455v-105h-455v105z" />
    <glyph glyph-name="grave" unicode="`" 
d="M177 688l98 -156h-146l-140 156h188z" />
    <glyph glyph-name="a" unicode="a" horiz-adv-x="592" 
d="M254 -15c-122 0 -227 100 -227 254c0 147 96 255 227 255c53 0 94 -20 122 -55v40h161v-479h-161v45c-29 -37 -69 -60 -122 -60zM282 136c54 0 94 45 94 103c0 59 -40 104 -94 104s-94 -45 -94 -104c0 -58 40 -103 94 -103z" />
    <glyph glyph-name="b" unicode="b" horiz-adv-x="592" 
d="M338 494c122 0 227 -100 227 -254c0 -147 -96 -255 -227 -255c-53 0 -94 20 -122 55v-40h-161v688h161v-254c29 37 69 60 122 60zM310 343c-54 0 -94 -45 -94 -103c0 -59 40 -104 94 -104s94 45 94 104c0 58 -40 103 -94 103z" />
    <glyph glyph-name="c" unicode="c" horiz-adv-x="490" 
d="M389 303c-28 27 -57 40 -99 40c-62 0 -102 -45 -102 -104c0 -58 41 -103 102 -103c44 0 76 16 105 44l80 -118c-37 -44 -110 -77 -189 -77c-145 0 -259 114 -259 254c0 141 115 255 255 255c87 0 153 -30 198 -77z" />
    <glyph glyph-name="d" unicode="d" horiz-adv-x="592" 
d="M254 -15c-122 0 -227 100 -227 254c0 147 96 255 227 255c53 0 94 -20 122 -55v249h161v-688h-161v45c-29 -37 -69 -60 -122 -60zM282 136c54 0 94 45 94 103c0 59 -40 104 -94 104s-94 -45 -94 -104c0 -58 40 -103 94 -103z" />
    <glyph glyph-name="e" unicode="e" horiz-adv-x="546" 
d="M291 -15c-152 0 -264 114 -264 254c0 141 107 255 247 255s248 -104 248 -245c0 -20 -1 -40 -3 -50h-325c13 -44 50 -73 103 -73c43 0 75 20 99 45l82 -109c-34 -41 -102 -77 -187 -77zM277 359c-39 0 -67 -24 -80 -62h160c-13 43 -43 62 -80 62z" />
    <glyph glyph-name="f" unicode="f" horiz-adv-x="426" 
d="M20 338v141h81c2 138 78 224 203 224c74 0 122 -19 157 -54l-76 -122c-14 14 -40 25 -63 25c-36 0 -60 -24 -60 -73h122v-141h-122v-338h-161v338h-81z" />
    <glyph glyph-name="g" unicode="g" horiz-adv-x="582" 
d="M140 -20c16 -13 56 -44 123 -44c60 0 103 31 103 90v45c-29 -35 -69 -57 -122 -57c-117 0 -217 94 -217 240c0 140 100 236 217 236c53 0 94 -18 122 -50v39h161v-446c0 -203 -152 -244 -254 -244c-89 0 -167 23 -213 67zM277 165c51 0 89 39 89 89s-38 89 -89 89
s-89 -39 -89 -89c0 -51 38 -89 89 -89z" />
    <glyph glyph-name="h" unicode="h" horiz-adv-x="573" 
d="M55 0v688h161v-268c24 47 67 74 124 74c109 0 178 -78 178 -208v-286h-161v264c0 48 -28 79 -70 79c-43 0 -71 -31 -71 -79v-264h-161z" />
    <glyph glyph-name="i" unicode="i" horiz-adv-x="271" 
d="M135 522c-50 0 -90 40 -90 90s40 91 90 91s91 -41 91 -91s-41 -90 -91 -90zM216 0h-161v479h161v-479z" />
    <glyph glyph-name="j" unicode="j" horiz-adv-x="271" 
d="M135 522c-50 0 -90 40 -90 90s40 91 90 91s91 -41 91 -91s-41 -90 -91 -90zM12 -211c-58 0 -110 21 -139 50l75 119c14 -12 33 -22 56 -22c28 0 51 23 51 72v471h161v-463c0 -135 -72 -227 -204 -227z" />
    <glyph glyph-name="k" unicode="k" horiz-adv-x="579" 
d="M216 0h-161v688h161v-393l150 184h194l-173 -211l199 -268h-202l-168 233v-233z" />
    <glyph glyph-name="l" unicode="l" horiz-adv-x="318" 
d="M273 139l15 -140c-20 -7 -48 -12 -70 -12c-79 0 -163 50 -163 196v505h161v-510c0 -30 18 -44 38 -44c6 0 13 2 19 5z" />
    <glyph glyph-name="m" unicode="m" horiz-adv-x="875" 
d="M216 0h-161v479h161v-67c24 50 68 82 128 82c68 0 121 -33 149 -91c27 49 67 91 143 91c111 0 184 -74 184 -208v-286h-161v264c0 48 -28 79 -70 79c-43 0 -71 -31 -71 -79v-264h-161v264c0 48 -28 79 -70 79c-43 0 -71 -31 -71 -79v-264z" />
    <glyph glyph-name="n" unicode="n" horiz-adv-x="573" 
d="M55 0v479h161v-59c24 47 67 74 124 74c109 0 178 -78 178 -208v-286h-161v264c0 48 -28 79 -70 79c-43 0 -71 -31 -71 -79v-264h-161z" />
    <glyph glyph-name="o" unicode="o" horiz-adv-x="564" 
d="M282 -15c-140 0 -255 114 -255 254c0 141 115 255 255 255s255 -114 255 -255c0 -140 -115 -254 -255 -254zM282 136c54 0 94 45 94 103c0 59 -40 104 -94 104s-94 -45 -94 -104c0 -58 40 -103 94 -103z" />
    <glyph glyph-name="p" unicode="p" horiz-adv-x="592" 
d="M216 -196h-161v675h161v-45c29 37 69 60 122 60c122 0 227 -100 227 -254c0 -147 -96 -255 -227 -255c-53 0 -94 20 -122 55v-236zM310 136c54 0 94 45 94 104c0 58 -40 103 -94 103s-94 -45 -94 -103c0 -59 40 -104 94 -104z" />
    <glyph glyph-name="q" unicode="q" horiz-adv-x="592" 
d="M254 -15c-122 0 -227 100 -227 254c0 147 96 255 227 255c53 0 94 -20 122 -55v40h161v-675h-161v241c-29 -37 -69 -60 -122 -60zM282 136c54 0 94 45 94 103c0 59 -40 104 -94 104s-94 -45 -94 -104c0 -58 40 -103 94 -103z" />
    <glyph glyph-name="r" unicode="r" horiz-adv-x="425" 
d="M55 0v479h161v-74c23 52 62 89 114 89c34 0 60 -9 80 -27l-66 -152c-16 14 -41 23 -65 23c-38 0 -63 -31 -63 -79v-259h-161z" />
    <glyph glyph-name="s" unicode="s" horiz-adv-x="463" 
d="M216 -15c-85 0 -147 21 -192 45l45 118c57 -25 101 -36 153 -36c39 0 54 11 54 27c0 60 -241 27 -241 203c0 74 65 152 196 152c69 0 119 -12 191 -46l-56 -113c-35 21 -88 32 -120 32c-31 0 -49 -9 -49 -25c0 -62 238 -19 238 -201c0 -83 -77 -156 -219 -156z" />
    <glyph glyph-name="t" unicode="t" horiz-adv-x="435" 
d="M10 338v141h91v130h161v-130h122v-141h-120v-147c0 -38 13 -55 41 -55c20 0 40 10 50 23l70 -119c-31 -31 -82 -55 -148 -55c-106 0 -177 68 -177 202v151h-90z" />
    <glyph glyph-name="u" unicode="u" horiz-adv-x="573" 
d="M211 479v-252c0 -55 30 -91 76 -91c45 0 75 36 75 91v252h161v-264c0 -138 -94 -230 -236 -230c-143 0 -237 92 -237 230v264h161z" />
    <glyph glyph-name="v" unicode="v" horiz-adv-x="557" 
d="M384 0h-209l-165 479h177l96 -337l101 337h163z" />
    <glyph glyph-name="w" unicode="w" horiz-adv-x="821" 
d="M337 0h-181l-141 479h172l63 -304l71 304h173l74 -307l66 307h172l-141 -479h-201l-65 278z" />
    <glyph glyph-name="x" unicode="x" horiz-adv-x="570" 
d="M10 0l178 239l-173 240h199l80 -110l81 110h180l-173 -233l178 -246h-200l-84 117l-87 -117h-179z" />
    <glyph glyph-name="y" unicode="y" horiz-adv-x="558" 
d="M181 479l113 -277l92 277h162l-183 -520c-44 -126 -118 -170 -205 -170c-62 0 -117 27 -150 58l71 126c24 -23 52 -33 78 -33c29 0 49 15 65 52l-221 487h178z" />
    <glyph glyph-name="z" unicode="z" horiz-adv-x="483" 
d="M35 141l194 197h-184v141h394v-141l-195 -197h204v-141h-413v141z" />
    <glyph glyph-name="braceleft" unicode="{" horiz-adv-x="341" 
d="M10 209v140c49 0 70 20 70 67v125c0 83 51 147 166 147h75v-141h-36c-29 0 -44 -15 -44 -44v-112c0 -73 -41 -105 -90 -112c49 -7 90 -39 90 -112v-112c0 -29 15 -44 44 -44h36v-141h-75c-115 0 -166 64 -166 147v125c0 47 -21 67 -70 67z" />
    <glyph glyph-name="bar" unicode="|" horiz-adv-x="295" 
d="M225 -196h-155v884h155v-884z" />
    <glyph glyph-name="braceright" unicode="}" horiz-adv-x="341" 
d="M331 209c-49 0 -70 -20 -70 -67v-125c0 -83 -51 -147 -166 -147h-75v141h36c29 0 44 15 44 44v112c0 73 41 105 90 112c-49 7 -90 39 -90 112v112c0 29 -15 44 -44 44h-36v141h75c115 0 166 -64 166 -147v-125c0 -47 21 -67 70 -67v-140z" />
    <glyph glyph-name="asciitilde" unicode="~" horiz-adv-x="521" 
d="M30 240v145c28 19 71 37 119 37c99 0 138 -52 224 -52c43 0 91 9 118 30v-145c-31 -19 -70 -30 -116 -30c-96 0 -139 52 -225 52c-57 0 -99 -16 -120 -37z" />
    <glyph glyph-name="exclamdown" unicode="&#xa1;" horiz-adv-x="299" 
d="M150 295c-55 0 -100 45 -100 100s45 99 100 99s99 -44 99 -99s-44 -100 -99 -100zM235 -162h-171l22 384h127z" />
    <glyph glyph-name="cent" unicode="&#xa2;" horiz-adv-x="490" 
d="M389 384c-28 27 -57 40 -99 40c-62 0 -102 -45 -102 -104c0 -58 41 -103 102 -103c44 0 76 16 105 44l80 -118c-28 -33 -76 -60 -131 -71v-87h-134v92c-107 32 -183 129 -183 243c0 116 78 213 183 245v90h134v-86c57 -10 102 -36 136 -71z" />
    <glyph glyph-name="sterling" unicode="&#xa3;" horiz-adv-x="590" 
d="M70 145h21c40 0 55 27 55 82v45h-66v104h66v62c0 121 68 218 214 218c103 0 156 -44 190 -85l-96 -104c-25 25 -47 38 -85 38c-45 0 -62 -28 -62 -76v-53h147v-104h-147v-49c0 -46 -21 -73 -51 -78h283v-145h-469v145z" />
    <glyph glyph-name="currency" unicode="&#xa4;" horiz-adv-x="595" 
d="M297 63c-40 0 -78 10 -111 27l-64 -63l-102 102l63 63c-18 34 -28 72 -28 112c0 41 10 79 28 113l-63 63l102 102l64 -63c33 17 71 27 111 27s78 -10 112 -27l64 63l102 -102l-63 -64c17 -33 27 -72 27 -112s-10 -78 -27 -111l63 -64l-102 -102l-64 63
c-34 -17 -72 -27 -112 -27zM297 203c55 0 102 47 102 101c0 57 -47 104 -102 104c-57 0 -103 -47 -103 -104c0 -54 46 -101 103 -101z" />
    <glyph glyph-name="yen" unicode="&#xa5;" horiz-adv-x="651" 
d="M408 0h-165v139h-159v104h142l-31 58h-111v104h54l-128 236h183l136 -279l138 279h174l-128 -236h54v-104h-111l-31 -58h142v-104h-159v-139z" />
    <glyph glyph-name="brokenbar" unicode="&#xa6;" horiz-adv-x="295" 
d="M225 688v-365h-155v365h155zM225 169v-365h-155v365h155z" />
    <glyph glyph-name="section" unicode="&#xa7;" horiz-adv-x="745" 
d="M626 539l-112 -112c-28 40 -78 74 -146 74c-35 0 -55 -12 -55 -34c0 -79 333 -45 333 -254c0 -48 -18 -88 -57 -120c23 -24 37 -55 37 -96c0 -119 -105 -208 -256 -208c-145 0 -220 57 -260 120l117 110c37 -51 87 -75 151 -75c47 0 71 16 71 41c0 82 -333 46 -333 255
c0 46 23 85 64 113c-27 26 -44 59 -44 105c0 115 103 198 245 198c111 0 197 -48 245 -117zM293 246c0 -42 74 -55 153 -79c16 10 23 23 23 40c0 40 -74 54 -152 78c-15 -10 -24 -22 -24 -39z" />
    <glyph glyph-name="copyright" unicode="&#xa9;" horiz-adv-x="795" 
d="M398 690c203 0 370 -167 370 -371c0 -203 -167 -370 -370 -370c-204 0 -371 167 -371 370c0 204 167 371 371 371zM399 597c-151 0 -274 -125 -274 -276s123 -274 274 -274c152 0 276 123 276 274s-124 276 -276 276zM553 463l-72 -90c-23 21 -46 31 -79 31
c-50 0 -79 -35 -79 -82s30 -83 79 -83c35 0 60 13 83 35l64 -94c-29 -35 -88 -61 -151 -61c-115 0 -203 91 -203 203s89 203 200 203c70 0 122 -24 158 -62z" />
    <glyph glyph-name="guillemotleft" unicode="&#xab;" horiz-adv-x="562" 
d="M30 251l195 194l81 -81l-113 -113l113 -114l-81 -80zM256 251l195 194l81 -81l-113 -113l113 -114l-81 -80z" />
    <glyph glyph-name="registered" unicode="&#xae;" horiz-adv-x="638" 
d="M319 768c161 0 292 -131 292 -292c0 -160 -131 -291 -292 -291c-160 0 -292 131 -292 291c0 161 132 292 292 292zM320 691c-117 0 -214 -96 -214 -214s97 -214 214 -214c118 0 215 96 215 214s-97 214 -215 214zM201 344v275h129c76 0 116 -32 116 -88
c0 -36 -20 -62 -54 -75l60 -112h-99l-49 102h-12v-102h-91zM320 554h-29v-51h29c25 0 34 11 34 26c0 13 -10 25 -34 25z" />
    <glyph glyph-name="degree" unicode="&#xb0;" horiz-adv-x="386" 
d="M192 306c-96 0 -182 78 -182 174c0 97 72 176 182 176c109 0 184 -79 184 -176c0 -96 -87 -174 -184 -174zM193 405c39 0 73 29 73 75c0 49 -38 75 -73 75c-39 0 -73 -27 -73 -75c0 -47 35 -75 73 -75z" />
    <glyph glyph-name="plusminus" unicode="&#xb1;" horiz-adv-x="521" 
d="M30 348v145h155v148h151v-148h155v-145h-155v-148h-151v148h-155zM30 0v145h461v-145h-461z" />
    <glyph glyph-name="twosuperior" unicode="&#xb2;" horiz-adv-x="294" 
d="M27 321v82l106 76c29 20 34 33 34 48c0 17 -10 29 -30 29c-25 0 -42 -17 -55 -44l-70 50c16 42 60 88 141 88c75 0 120 -49 120 -106c0 -40 -16 -78 -75 -114l-36 -22h109v-87h-244z" />
    <glyph glyph-name="threesuperior" unicode="&#xb3;" horiz-adv-x="294" 
d="M137 313c-60 0 -102 24 -121 55l68 67c13 -16 29 -28 51 -28c21 0 33 10 33 26c0 23 -21 31 -43 31h-41v44l64 45h-109v88h225v-73l-69 -46c50 -15 79 -45 79 -94c0 -63 -50 -115 -137 -115z" />
    <glyph glyph-name="paragraph" unicode="&#xb6;" horiz-adv-x="597" 
d="M261 641h276v-837h-112v696h-52v-696h-151v434c-118 18 -187 100 -187 205c0 120 85 198 226 198z" />
    <glyph glyph-name="onesuperior" unicode="&#xb9;" horiz-adv-x="294" 
d="M222 321h-112v200l-36 -36l-60 71l92 85h116v-320z" />
    <glyph glyph-name="guillemotright" unicode="&#xbb;" horiz-adv-x="562" 
d="M256 364l81 81l195 -194l-195 -194l-81 80l113 114zM30 364l81 81l195 -194l-195 -194l-81 80l113 114z" />
    <glyph glyph-name="onequarter" unicode="&#xbc;" horiz-adv-x="650" 
d="M222 321h-112v200l-36 -36l-60 71l92 85h116v-320zM72 0l422 641h120l-420 -641h-122zM360 132l147 188h102v-188h37v-92h-37v-40h-98v40h-151v92zM437 132h74v93z" />
    <glyph glyph-name="onehalf" unicode="&#xbd;" horiz-adv-x="650" 
d="M222 321h-112v200l-36 -36l-60 71l92 85h116v-320zM45 0l422 641h120l-420 -641h-122zM383 0v82l106 76c29 20 34 33 34 48c0 17 -10 29 -30 29c-25 0 -42 -17 -55 -44l-70 50c16 42 60 88 141 88c75 0 120 -49 120 -106c0 -40 -16 -78 -75 -114l-36 -22h109v-87h-244z
" />
    <glyph glyph-name="threequarters" unicode="&#xbe;" horiz-adv-x="650" 
d="M137 313c-60 0 -102 24 -121 55l68 67c13 -16 29 -28 51 -28c21 0 33 10 33 26c0 23 -21 31 -43 31h-41v44l64 45h-109v88h225v-73l-69 -46c50 -15 79 -45 79 -94c0 -63 -50 -115 -137 -115zM76 0l422 641h120l-420 -641h-122zM360 132l147 188h102v-188h37v-92h-37v-40
h-98v40h-151v92zM437 132h74v93z" />
    <glyph glyph-name="multiply" unicode="&#xd7;" horiz-adv-x="521" 
d="M142 95l-107 106l120 120l-117 116l106 107l117 -117l119 119l107 -107l-119 -119l116 -116l-106 -107l-117 117z" />
    <glyph glyph-name="divide" unicode="&#xf7;" horiz-adv-x="521" 
d="M260 425c-55 0 -99 44 -99 99s44 100 99 100s100 -45 100 -100s-45 -99 -100 -99zM491 248h-461v145h461v-145zM260 15c-55 0 -99 44 -99 99s44 100 99 100s100 -45 100 -100s-45 -99 -100 -99z" />
    <glyph glyph-name="pi" unicode="&#x3c0;" horiz-adv-x="626" 
d="M30 338v141h566v-141h-72v-147c0 -38 13 -55 41 -55h31v-136h-59c-106 0 -177 53 -177 187v151h-96v-337h-164v337h-70z" />
    <glyph glyph-name="endash" unicode="&#x2013;" horiz-adv-x="500" 
d="M40 317h420v-135h-420v135z" />
    <glyph glyph-name="emdash" unicode="&#x2014;" horiz-adv-x="1000" 
d="M40 317h920v-135h-920v135z" />
    <glyph glyph-name="quoteleft" unicode="&#x2018;" horiz-adv-x="261" 
d="M112 454c-43 0 -77 33 -77 77c0 16 5 42 24 70l58 87h69l-46 -88c30 -12 51 -37 51 -68c0 -44 -34 -78 -79 -78z" />
    <glyph glyph-name="quoteright" unicode="&#x2019;" horiz-adv-x="261" 
d="M149 689c43 0 77 -33 77 -77c0 -16 -5 -42 -24 -70l-58 -87h-69l46 88c-30 12 -51 37 -51 68c0 44 34 78 79 78z" />
    <glyph glyph-name="quotedblleft" unicode="&#x201c;" horiz-adv-x="445" 
d="M296 454c-43 0 -77 33 -77 77c0 16 5 42 24 70l58 87h69l-46 -88c30 -12 51 -37 51 -68c0 -44 -34 -78 -79 -78zM112 454c-43 0 -77 33 -77 77c0 16 5 42 24 70l58 87h69l-46 -88c30 -12 51 -37 51 -68c0 -44 -34 -78 -79 -78z" />
    <glyph glyph-name="quotedblright" unicode="&#x201d;" horiz-adv-x="445" 
d="M150 689c43 0 77 -33 77 -77c0 -16 -5 -42 -24 -70l-58 -87h-69l46 88c-30 12 -51 37 -51 68c0 44 34 78 79 78zM334 689c43 0 77 -33 77 -77c0 -16 -5 -42 -24 -70l-58 -87h-69l46 88c-30 12 -51 37 -51 68c0 44 34 78 79 78z" />
    <glyph glyph-name="dagger" unicode="&#x2020;" horiz-adv-x="521" 
d="M180 -196v548h-150v141h150v195h161v-195h150v-141h-150v-548h-161z" />
    <glyph glyph-name="daggerdbl" unicode="&#x2021;" horiz-adv-x="521" 
d="M30 -1v141h150v212h-150v141h150v195h161v-195h150v-141h-150v-212h150v-141h-150v-195h-161v195h-150z" />
    <glyph glyph-name="bullet" unicode="&#x2022;" horiz-adv-x="440" 
d="M220 90c-89 0 -160 71 -160 160s71 160 160 160s160 -71 160 -160s-71 -160 -160 -160z" />
    <glyph glyph-name="ellipsis" unicode="&#x2026;" horiz-adv-x="847" 
d="M712 -15c-55 0 -99 44 -99 99s44 100 99 100s100 -45 100 -100s-45 -99 -100 -99zM134 -15c-55 0 -99 44 -99 99s44 100 99 100s100 -45 100 -100s-45 -99 -100 -99zM423 -15c-55 0 -99 44 -99 99s44 100 99 100s100 -45 100 -100s-45 -99 -100 -99z" />
    <glyph glyph-name="guilsinglleft" unicode="&#x2039;" horiz-adv-x="342" 
d="M30 251l195 194l87 -88l-106 -106l106 -106l-87 -88z" />
    <glyph glyph-name="guilsinglright" unicode="&#x203a;" horiz-adv-x="342" 
d="M30 357l87 88l195 -194l-195 -194l-87 88l106 106z" />
    <glyph glyph-name="fraction" unicode="&#x2044;" horiz-adv-x="62" 
d="M-240 0l422 641h120l-420 -641h-122z" />
    <glyph glyph-name="Euro" unicode="&#x20ac;" horiz-adv-x="654" 
d="M397 -15c-140 0 -254 86 -302 207h-85l30 104h32c-1 8 -1 17 -1 25v16h-61l30 104h53c47 126 166 215 305 215c114 0 190 -39 241 -95l-99 -114c-30 31 -84 54 -140 54c-49 0 -92 -23 -121 -60h172l-30 -104h-182c-1 -5 -1 -11 -1 -16c0 -8 0 -17 1 -25h176l-30 -104
h-103c28 -32 68 -52 118 -52c56 0 108 20 138 57l101 -113c-54 -64 -132 -99 -242 -99z" />
    <glyph glyph-name="trademark" unicode="&#x2122;" horiz-adv-x="885" 
d="M115 291v251h-95v99h312v-99h-105v-251h-112zM605 354l-116 141l5 -204h-110v350h110l115 -143l114 143h102v-350h-110l5 204z" />
    <glyph glyph-name="minus" unicode="&#x2212;" horiz-adv-x="521" 
d="M30 248v145h461v-145h-461z" />
    <glyph glyph-name="approxequal" unicode="&#x2248;" horiz-adv-x="521" 
d="M30 350v145c28 19 71 37 119 37c99 0 138 -52 224 -52c43 0 91 9 118 30v-145c-31 -19 -70 -30 -116 -30c-96 0 -139 52 -225 52c-57 0 -99 -16 -120 -37zM30 127v145c28 19 71 37 119 37c99 0 138 -52 224 -52c43 0 91 9 118 30v-145c-31 -19 -70 -30 -116 -30
c-96 0 -139 52 -225 52c-57 0 -99 -16 -120 -37z" />
    <glyph glyph-name="notequal" unicode="&#x2260;" horiz-adv-x="521" 
d="M75 61l39 77h-84v145h156l38 75h-194v145h266l39 78h111l-39 -78h84v-145h-156l-38 -75h194v-145h-266l-39 -77h-111z" />
    <glyph glyph-name="lessequal" unicode="&#x2264;" horiz-adv-x="521" 
d="M491 320v-156l-461 168v142l461 167v-156l-289 -82zM30 0v145h461v-145h-461z" />
    <glyph glyph-name="greaterequal" unicode="&#x2265;" horiz-adv-x="521" 
d="M30 320l289 83l-289 82v156l461 -167v-142l-461 -168v156zM491 0h-461v145h461v-145z" />
    <glyph glyph-name="ITF" unicode="&#xf8ff;" horiz-adv-x="1511" 
d="M60 0v641h198v-641h-198zM299 454v187h198v-187h-198zM537 0v641h198v-641h-198zM777 454v187h197v-187h-197zM1015 0v641h197v-641h-197zM1254 454v187h197v-187h-197zM1254 227v186h197v-186h-197z" />
    <glyph glyph-name="G.alt" horiz-adv-x="715" 
d="M364 -15c-185 0 -334 151 -334 336s152 335 342 335c116 0 196 -42 246 -95l-106 -121c-30 31 -84 56 -138 56c-95 0 -167 -76 -167 -175s69 -176 158 -176c91 0 134 44 149 87h-137v152h308v-173c-36 -110 -138 -226 -321 -226z" />
    <glyph glyph-name="a.alt" horiz-adv-x="619" 
d="M254 -15c-122 0 -227 100 -227 254c0 147 96 255 227 255c52 0 93 -19 122 -52v37h161v-301c0 -30 18 -44 38 -44c6 0 13 2 19 5l15 -140c-20 -7 -48 -12 -70 -12c-50 0 -102 20 -133 71c-32 -48 -85 -73 -152 -73zM282 136c54 0 94 45 94 103c0 59 -40 104 -94 104
s-94 -45 -94 -104c0 -58 40 -103 94 -103z" />
    <glyph glyph-name="j.alt" horiz-adv-x="271" 
d="M135 522c-50 0 -90 40 -90 90s40 91 90 91s91 -41 91 -91s-41 -90 -91 -90zM-8 -211h-36v153h28c58 0 71 40 71 76v461h161v-463c0 -135 -83 -227 -224 -227z" />
    <glyph glyph-name="l.alt" horiz-adv-x="271" 
d="M55 0v688h161v-688h-161z" />
    <glyph glyph-name="y.alt" horiz-adv-x="558" 
d="M304 -196h-162l78 198l-217 477h178l113 -275l92 275h162z" />
    <glyph glyph-name="zero.superior" unicode="&#x2070;" horiz-adv-x="294" 
d="M150 313c-84 0 -145 70 -145 167c0 98 58 170 139 170c85 0 146 -72 145 -169c1 -98 -58 -168 -139 -168zM147 407c27 0 40 27 40 73s-12 75 -40 75c-25 0 -40 -28 -40 -74c0 -47 12 -74 40 -74z" />
    <glyph glyph-name="four.superior" unicode="&#x2074;" horiz-adv-x="294" 
d="M155 321v40h-151v92l147 188h102v-188h37v-92h-37v-40h-98zM81 453h74v93z" />
    <glyph glyph-name="nbspace" unicode="&#xa0;" horiz-adv-x="200" 
 />
    <glyph glyph-name="litre" unicode="&#x2113;" horiz-adv-x="536" 
d="M445 40c-32 -32 -86 -55 -155 -55c-100 0 -171 53 -187 157l-67 -27v163l64 23v180c0 134 76 222 192 222c129 0 203 -80 203 -215c0 -114 -87 -212 -231 -280v-7c0 -41 17 -65 54 -65c23 0 46 9 57 23zM264 497v-129c53 35 77 84 77 129c0 37 -13 55 -36 55
c-26 0 -41 -21 -41 -55z" />
    <glyph glyph-name="ampersand.alt" horiz-adv-x="667" 
d="M510 356l116 -89l-79 -99l84 -84l-115 -103l-73 73c-59 -48 -118 -65 -176 -65c-125 0 -228 68 -228 189c0 77 49 138 122 172c-26 38 -41 76 -41 118c0 113 96 183 207 183c84 0 148 -32 192 -64l-74 -116c-44 29 -73 39 -101 39c-33 0 -59 -16 -59 -49
c0 -25 15 -49 34 -68l122 -121zM200 187c0 -32 22 -58 68 -58c25 0 50 12 72 30l-87 88c-32 -13 -53 -34 -53 -60z" />
    <glyph glyph-name="divisionslash" unicode="&#x2215;" horiz-adv-x="62" 
d="M-240 0l422 641h120l-420 -641h-122z" />
    <glyph glyph-name="Aacute" unicode="&#xc1;" horiz-adv-x="714" 
d="M370 850h188l-140 -156h-146zM522 0l-44 121h-251l-44 -121h-173l250 641h194l250 -641h-182zM280 267h145l-72 199z" />
    <glyph glyph-name="Abreve" unicode="&#x102;" horiz-adv-x="714" 
d="M356 684c-92 0 -160 72 -160 166h109c0 -43 23 -64 51 -64s51 21 51 64h110c0 -94 -68 -166 -161 -166zM522 0l-44 121h-251l-44 -121h-173l250 641h194l250 -641h-182zM280 267h145l-72 199z" />
    <glyph glyph-name="Acircumflex" unicode="&#xc2;" horiz-adv-x="714" 
d="M285 850h144l117 -156h-151l-38 67l-38 -67h-151zM522 0l-44 121h-251l-44 -121h-173l250 641h194l250 -641h-182zM280 267h145l-72 199z" />
    <glyph glyph-name="Adieresis" unicode="&#xc4;" horiz-adv-x="714" 
d="M175 766c0 45 36 82 81 82s82 -37 82 -82s-37 -81 -82 -81s-81 36 -81 81zM375 766c0 45 36 82 81 82s82 -37 82 -82s-37 -81 -82 -81s-81 36 -81 81zM522 0l-44 121h-251l-44 -121h-173l250 641h194l250 -641h-182zM280 267h145l-72 199z" />
    <glyph glyph-name="Agrave" unicode="&#xc0;" horiz-adv-x="714" 
d="M343 850l98 -156h-146l-140 156h188zM522 0l-44 121h-251l-44 -121h-173l250 641h194l250 -641h-182zM280 267h145l-72 199z" />
    <glyph glyph-name="Amacron" unicode="&#x100;" horiz-adv-x="714" 
d="M199 830h315v-115h-315v115zM522 0l-44 121h-251l-44 -121h-173l250 641h194l250 -641h-182zM280 267h145l-72 199z" />
    <glyph glyph-name="Aogonek" unicode="&#x104;" horiz-adv-x="714" 
d="M522 0l-44 121h-251l-44 -121h-173l250 641h194l250 -641c-69 -37 -86 -67 -86 -93c0 -20 12 -28 28 -28c15 0 28 5 45 18l45 -65c-20 -24 -60 -50 -115 -50c-58 0 -119 30 -119 99c0 46 29 87 76 119h-56zM280 267h145l-72 199z" />
    <glyph glyph-name="Aring" unicode="&#xc5;" horiz-adv-x="714" 
d="M357 684c-72 0 -127 55 -127 123s55 123 127 123s127 -55 127 -123s-55 -123 -127 -123zM358 763c23 0 42 19 42 44s-19 44 -42 44s-42 -19 -42 -44s19 -44 42 -44zM522 0l-44 121h-251l-44 -121h-173l250 641h194l250 -641h-182zM280 267h145l-72 199z" />
    <glyph glyph-name="Atilde" unicode="&#xc3;" horiz-adv-x="714" 
d="M440 692c-57 0 -93 37 -140 37c-26 0 -46 -25 -59 -45l-78 65c31 74 73 93 111 93c57 0 93 -37 140 -37c26 0 46 25 59 45l78 -65c-31 -74 -73 -93 -111 -93zM522 0l-44 121h-251l-44 -121h-173l250 641h194l250 -641h-182zM280 267h145l-72 199z" />
    <glyph glyph-name="AE" unicode="&#xc6;" horiz-adv-x="850" 
d="M410 0v121h-184l-49 -121h-173l270 641h546v-155h-245v-84h205v-155h-205v-92h245v-155h-410zM378 498l-93 -231h125v231h-32z" />
    <glyph glyph-name="Cacute" unicode="&#x106;" horiz-adv-x="623" 
d="M375 850h188l-140 -156h-146zM608 561l-110 -126c-30 31 -80 56 -134 56c-88 0 -157 -76 -157 -170s69 -171 165 -171c47 0 97 21 126 56l110 -122c-54 -65 -135 -99 -247 -99c-189 0 -331 151 -331 336s149 335 332 335c116 0 195 -38 246 -95z" />
    <glyph glyph-name="Ccaron" unicode="&#x10c;" horiz-adv-x="623" 
d="M434 694h-144l-117 156h151l38 -67l38 67h151zM608 561l-110 -126c-30 31 -80 56 -134 56c-88 0 -157 -76 -157 -170s69 -171 165 -171c47 0 97 21 126 56l110 -122c-54 -65 -135 -99 -247 -99c-189 0 -331 151 -331 336s149 335 332 335c116 0 195 -38 246 -95z" />
    <glyph glyph-name="Ccedilla" unicode="&#xc7;" horiz-adv-x="623" 
d="M608 561l-110 -126c-30 31 -80 56 -134 56c-88 0 -157 -76 -157 -170s69 -171 165 -171c47 0 97 21 126 56l110 -122c-45 -54 -108 -87 -193 -96l-61 -195l-128 50l84 146c-163 24 -280 164 -280 332c0 185 149 335 332 335c116 0 195 -38 246 -95z" />
    <glyph glyph-name="Ccircumflex" unicode="&#x108;" horiz-adv-x="623" 
d="M290 850h144l117 -156h-151l-38 67l-38 -67h-151zM608 561l-110 -126c-30 31 -80 56 -134 56c-88 0 -157 -76 -157 -170s69 -171 165 -171c47 0 97 21 126 56l110 -122c-54 -65 -135 -99 -247 -99c-189 0 -331 151 -331 336s149 335 332 335c116 0 195 -38 246 -95z" />
    <glyph glyph-name="Cdotaccent" unicode="&#x10a;" horiz-adv-x="623" 
d="M271 774c0 50 40 91 90 91s91 -41 91 -91s-41 -90 -91 -90s-90 40 -90 90zM608 561l-110 -126c-30 31 -80 56 -134 56c-88 0 -157 -76 -157 -170s69 -171 165 -171c47 0 97 21 126 56l110 -122c-54 -65 -135 -99 -247 -99c-189 0 -331 151 -331 336s149 335 332 335
c116 0 195 -38 246 -95z" />
    <glyph glyph-name="Eth" unicode="&#xd0;" horiz-adv-x="686" 
d="M60 0v260h-55v135h55v246h233c209 0 363 -136 363 -322c0 -184 -154 -319 -363 -319h-233zM290 486h-60v-91h100v-135h-100v-105h61c113 0 188 66 188 166c0 99 -75 165 -189 165z" />
    <glyph glyph-name="Dcaron" unicode="&#x10e;" horiz-adv-x="686" 
d="M395 694h-144l-117 156h151l38 -67l38 67h151zM60 0v641h233c209 0 363 -136 363 -322c0 -184 -154 -319 -363 -319h-233zM290 486h-60v-331h61c113 0 188 66 188 166c0 99 -75 165 -189 165z" />
    <glyph glyph-name="Dcroat" unicode="&#x110;" horiz-adv-x="686" 
d="M60 0v260h-55v135h55v246h233c209 0 363 -136 363 -322c0 -184 -154 -319 -363 -319h-233zM290 486h-60v-91h100v-135h-100v-105h61c113 0 188 66 188 166c0 99 -75 165 -189 165z" />
    <glyph glyph-name="Eacute" unicode="&#xc9;" horiz-adv-x="516" 
d="M286 850h188l-140 -156h-146zM60 0v641h426v-155h-261v-84h221v-155h-221v-92h261v-155h-426z" />
    <glyph glyph-name="Ebreve" unicode="&#x114;" horiz-adv-x="516" 
d="M272 684c-92 0 -160 72 -160 166h109c0 -43 23 -64 51 -64s51 21 51 64h110c0 -94 -68 -166 -161 -166zM60 0v641h426v-155h-261v-84h221v-155h-221v-92h261v-155h-426z" />
    <glyph glyph-name="Ecaron" unicode="&#x11a;" horiz-adv-x="516" 
d="M345 694h-144l-117 156h151l38 -67l38 67h151zM60 0v641h426v-155h-261v-84h221v-155h-221v-92h261v-155h-426z" />
    <glyph glyph-name="Ecircumflex" unicode="&#xca;" horiz-adv-x="516" 
d="M201 850h144l117 -156h-151l-38 67l-38 -67h-151zM60 0v641h426v-155h-261v-84h221v-155h-221v-92h261v-155h-426z" />
    <glyph glyph-name="Edieresis" unicode="&#xcb;" horiz-adv-x="516" 
d="M91 766c0 45 36 82 81 82s82 -37 82 -82s-37 -81 -82 -81s-81 36 -81 81zM291 766c0 45 36 82 81 82s82 -37 82 -82s-37 -81 -82 -81s-81 36 -81 81zM60 0v641h426v-155h-261v-84h221v-155h-221v-92h261v-155h-426z" />
    <glyph glyph-name="Edotaccent" unicode="&#x116;" horiz-adv-x="516" 
d="M182 774c0 50 40 91 90 91s91 -41 91 -91s-41 -90 -91 -90s-90 40 -90 90zM60 0v641h426v-155h-261v-84h221v-155h-221v-92h261v-155h-426z" />
    <glyph glyph-name="Egrave" unicode="&#xc8;" horiz-adv-x="516" 
d="M259 850l98 -156h-146l-140 156h188zM60 0v641h426v-155h-261v-84h221v-155h-221v-92h261v-155h-426z" />
    <glyph glyph-name="Emacron" unicode="&#x112;" horiz-adv-x="516" 
d="M115 830h315v-115h-315v115zM60 0v641h426v-155h-261v-84h221v-155h-221v-92h261v-155h-426z" />
    <glyph glyph-name="Eogonek" unicode="&#x118;" horiz-adv-x="516" 
d="M60 0v641h426v-155h-261v-84h221v-155h-221v-92h261v-155c-69 -37 -86 -67 -86 -93c0 -20 12 -28 28 -28c15 0 28 5 45 18l45 -65c-20 -24 -60 -50 -115 -50c-58 0 -119 30 -119 99c0 46 29 87 76 119h-300z" />
    <glyph glyph-name="Gbreve" unicode="&#x11e;" horiz-adv-x="665" 
d="M332 684c-92 0 -160 72 -160 166h109c0 -43 23 -64 51 -64s51 21 51 64h110c0 -94 -68 -166 -161 -166zM361 -15c-200 0 -331 148 -331 336c0 191 158 335 339 335c116 0 195 -38 246 -95l-106 -121c-30 31 -84 56 -138 56c-86 0 -164 -70 -164 -175
c0 -102 69 -182 175 -182c34 0 60 6 84 17h-1v69h-105v142h262v-301c-75 -56 -146 -81 -261 -81z" />
    <glyph glyph-name="Gcircumflex" unicode="&#x11c;" horiz-adv-x="665" 
d="M261 850h144l117 -156h-151l-38 67l-38 -67h-151zM361 -15c-200 0 -331 148 -331 336c0 191 158 335 339 335c116 0 195 -38 246 -95l-106 -121c-30 31 -84 56 -138 56c-86 0 -164 -70 -164 -175c0 -102 69 -182 175 -182c34 0 60 6 84 17h-1v69h-105v142h262v-301
c-75 -56 -146 -81 -261 -81z" />
    <glyph glyph-name="Gcommaaccent" unicode="&#x122;" horiz-adv-x="665" 
d="M361 -15c-200 0 -331 148 -331 336c0 191 158 335 339 335c116 0 195 -38 246 -95l-106 -121c-30 31 -84 56 -138 56c-86 0 -164 -70 -164 -175c0 -102 69 -182 175 -182c34 0 60 6 84 17h-1v69h-105v142h262v-301c-75 -56 -146 -81 -261 -81zM409 -51l-60 -160h-125
l30 160h155z" />
    <glyph glyph-name="Gdotaccent" unicode="&#x120;" horiz-adv-x="665" 
d="M242 774c0 50 40 91 90 91s91 -41 91 -91s-41 -90 -91 -90s-90 40 -90 90zM361 -15c-200 0 -331 148 -331 336c0 191 158 335 339 335c116 0 195 -38 246 -95l-106 -121c-30 31 -84 56 -138 56c-86 0 -164 -70 -164 -175c0 -102 69 -182 175 -182c34 0 60 6 84 17h-1v69
h-105v142h262v-301c-75 -56 -146 -81 -261 -81z" />
    <glyph glyph-name="Hbar" unicode="&#x126;" horiz-adv-x="697" 
d="M225 0h-165v468h-49v115h49v58h165v-58h247v58h165v-58h49v-115h-49v-468h-165v253h-247v-253zM225 408h247v60h-247v-60z" />
    <glyph glyph-name="Hcircumflex" unicode="&#x124;" horiz-adv-x="697" 
d="M277 850h144l117 -156h-151l-38 67l-38 -67h-151zM472 0v253h-247v-253h-165v641h165v-233h247v233h165v-641h-165z" />
    <glyph glyph-name="IJ" unicode="&#x132;" horiz-adv-x="769" 
d="M60 0v641h165v-641h-165zM295 82l111 114c21 -28 46 -46 75 -46c48 0 68 30 68 85v406h165v-395c0 -179 -98 -261 -228 -261c-90 0 -160 45 -191 97z" />
    <glyph glyph-name="Iacute" unicode="&#xcd;" horiz-adv-x="285" 
d="M156 850h188l-140 -156h-146zM60 0v641h165v-641h-165z" />
    <glyph glyph-name="Ibreve" unicode="&#x12c;" horiz-adv-x="285" 
d="M142 684c-92 0 -160 72 -160 166h109c0 -43 23 -64 51 -64s51 21 51 64h110c0 -94 -68 -166 -161 -166zM60 0v641h165v-641h-165z" />
    <glyph glyph-name="Icircumflex" unicode="&#xce;" horiz-adv-x="285" 
d="M71 850h144l117 -156h-151l-38 67l-38 -67h-151zM60 0v641h165v-641h-165z" />
    <glyph glyph-name="Idieresis" unicode="&#xcf;" horiz-adv-x="285" 
d="M-39 766c0 45 36 82 81 82s82 -37 82 -82s-37 -81 -82 -81s-81 36 -81 81zM161 766c0 45 36 82 81 82s82 -37 82 -82s-37 -81 -82 -81s-81 36 -81 81zM60 0v641h165v-641h-165z" />
    <glyph glyph-name="Idotaccent" unicode="&#x130;" horiz-adv-x="285" 
d="M52 774c0 50 40 91 90 91s91 -41 91 -91s-41 -90 -91 -90s-90 40 -90 90zM60 0v641h165v-641h-165z" />
    <glyph glyph-name="Igrave" unicode="&#xcc;" horiz-adv-x="285" 
d="M129 850l98 -156h-146l-140 156h188zM60 0v641h165v-641h-165z" />
    <glyph glyph-name="Imacron" unicode="&#x12a;" horiz-adv-x="285" 
d="M-15 830h315v-115h-315v115zM60 0v641h165v-641h-165z" />
    <glyph glyph-name="Iogonek" unicode="&#x12e;" horiz-adv-x="285" 
d="M60 0v641h165v-641c-69 -37 -86 -67 -86 -93c0 -20 12 -28 28 -28c15 0 28 5 45 18l45 -65c-20 -24 -60 -50 -115 -50c-58 0 -119 30 -119 99c0 46 29 87 76 119h-39z" />
    <glyph glyph-name="Itilde" unicode="&#x128;" horiz-adv-x="285" 
d="M226 692c-57 0 -93 37 -140 37c-26 0 -46 -25 -59 -45l-78 65c31 74 73 93 111 93c57 0 93 -37 140 -37c26 0 46 25 59 45l78 -65c-31 -74 -73 -93 -111 -93zM60 0v641h165v-641h-165z" />
    <glyph glyph-name="Jcircumflex" unicode="&#x134;" horiz-adv-x="484" 
d="M272 850h144l117 -156h-151l-38 67l-38 -67h-151zM10 82l111 114c21 -28 46 -46 75 -46c48 0 68 30 68 85v406h165v-395c0 -179 -98 -261 -228 -261c-90 0 -160 45 -191 97z" />
    <glyph glyph-name="Kcommaaccent" unicode="&#x136;" horiz-adv-x="634" 
d="M225 0h-165v641h165v-302l200 302h198l-210 -315l220 -325h-207l-201 299v-300zM393 -51l-60 -160h-125l30 160h155z" />
    <glyph glyph-name="Lacute" unicode="&#x139;" horiz-adv-x="526" 
d="M154 850h188l-140 -156h-146zM60 0v641h165v-486h291v-155h-456z" />
    <glyph glyph-name="Lcaron" unicode="&#x13d;" horiz-adv-x="526" 
d="M60 0v641h165v-486h291v-155h-456zM450 641l-46 -166h-115l20 166h141z" />
    <glyph glyph-name="Lcommaaccent" unicode="&#x13b;" horiz-adv-x="526" 
d="M60 0v641h165v-486h291v-155h-456zM364 -51l-60 -160h-125l30 160h155z" />
    <glyph glyph-name="Ldot" unicode="&#x13f;" horiz-adv-x="526" 
d="M60 0v641h165v-486h291v-155h-456zM271 347c0 50 40 91 90 91s91 -41 91 -91s-41 -90 -91 -90s-90 40 -90 90z" />
    <glyph glyph-name="Lslash" unicode="&#x141;" horiz-adv-x="526" 
d="M60 0v259l-55 -17v135l55 17v247h165v-194l95 30v-135l-95 -30v-157h291v-155h-456z" />
    <glyph glyph-name="Nacute" unicode="&#x143;" horiz-adv-x="697" 
d="M372 850h188l-140 -156h-146zM460 0l-235 365v-365h-165v641h177l235 -371v371h165v-641h-177z" />
    <glyph glyph-name="Ncaron" unicode="&#x147;" horiz-adv-x="697" 
d="M431 694h-144l-117 156h151l38 -67l38 67h151zM460 0l-235 365v-365h-165v641h177l235 -371v371h165v-641h-177z" />
    <glyph glyph-name="Ncommaaccent" unicode="&#x145;" horiz-adv-x="697" 
d="M460 0l-235 365v-365h-165v641h177l235 -371v371h165v-641h-177zM429 -51l-60 -160h-125l30 160h155z" />
    <glyph glyph-name="Ntilde" unicode="&#xd1;" horiz-adv-x="697" 
d="M442 692c-57 0 -93 37 -140 37c-26 0 -46 -25 -59 -45l-78 65c31 74 73 93 111 93c57 0 93 -37 140 -37c26 0 46 25 59 45l78 -65c-31 -74 -73 -93 -111 -93zM460 0l-235 365v-365h-165v641h177l235 -371v371h165v-641h-177z" />
    <glyph glyph-name="Oacute" unicode="&#xd3;" horiz-adv-x="732" 
d="M379 850h188l-140 -156h-146zM366 656c185 0 336 -151 336 -336s-151 -335 -336 -335s-336 151 -336 336s151 335 336 335zM366 150c88 0 159 76 159 170s-71 171 -159 171s-159 -76 -159 -170s71 -171 159 -171z" />
    <glyph glyph-name="Obreve" unicode="&#x14e;" horiz-adv-x="732" 
d="M365 684c-92 0 -160 72 -160 166h109c0 -43 23 -64 51 -64s51 21 51 64h110c0 -94 -68 -166 -161 -166zM366 656c185 0 336 -151 336 -336s-151 -335 -336 -335s-336 151 -336 336s151 335 336 335zM366 150c88 0 159 76 159 170s-71 171 -159 171s-159 -76 -159 -170
s71 -171 159 -171z" />
    <glyph glyph-name="Ocircumflex" unicode="&#xd4;" horiz-adv-x="732" 
d="M294 850h144l117 -156h-151l-38 67l-38 -67h-151zM366 656c185 0 336 -151 336 -336s-151 -335 -336 -335s-336 151 -336 336s151 335 336 335zM366 150c88 0 159 76 159 170s-71 171 -159 171s-159 -76 -159 -170s71 -171 159 -171z" />
    <glyph glyph-name="Odieresis" unicode="&#xd6;" horiz-adv-x="732" 
d="M184 766c0 45 36 82 81 82s82 -37 82 -82s-37 -81 -82 -81s-81 36 -81 81zM384 766c0 45 36 82 81 82s82 -37 82 -82s-37 -81 -82 -81s-81 36 -81 81zM366 656c185 0 336 -151 336 -336s-151 -335 -336 -335s-336 151 -336 336s151 335 336 335zM366 150
c88 0 159 76 159 170s-71 171 -159 171s-159 -76 -159 -170s71 -171 159 -171z" />
    <glyph glyph-name="Ograve" unicode="&#xd2;" horiz-adv-x="732" 
d="M352 850l98 -156h-146l-140 156h188zM366 656c185 0 336 -151 336 -336s-151 -335 -336 -335s-336 151 -336 336s151 335 336 335zM366 150c88 0 159 76 159 170s-71 171 -159 171s-159 -76 -159 -170s71 -171 159 -171z" />
    <glyph glyph-name="Ohungarumlaut" unicode="&#x150;" horiz-adv-x="732" 
d="M289 850h153l-130 -156h-121zM490 850h163l-140 -156h-121zM366 656c185 0 336 -151 336 -336s-151 -335 -336 -335s-336 151 -336 336s151 335 336 335zM366 150c88 0 159 76 159 170s-71 171 -159 171s-159 -76 -159 -170s71 -171 159 -171z" />
    <glyph glyph-name="Omacron" unicode="&#x14c;" horiz-adv-x="732" 
d="M208 830h315v-115h-315v115zM366 656c185 0 336 -151 336 -336s-151 -335 -336 -335s-336 151 -336 336s151 335 336 335zM366 150c88 0 159 76 159 170s-71 171 -159 171s-159 -76 -159 -170s71 -171 159 -171z" />
    <glyph glyph-name="Oslash" unicode="&#xd8;" horiz-adv-x="732" 
d="M87 11l46 68c-63 61 -103 147 -103 242c0 185 151 335 336 335c49 0 96 -11 139 -30l42 62l91 -58l-44 -64c67 -61 108 -149 108 -246c0 -185 -151 -335 -336 -335c-52 0 -100 12 -144 33l-44 -65zM207 321c0 -35 10 -67 26 -94l176 258c-14 4 -28 6 -43 6
c-88 0 -159 -76 -159 -170zM366 150c88 0 159 76 159 170c0 37 -11 72 -30 100l-178 -262c16 -5 32 -8 49 -8z" />
    <glyph glyph-name="Otilde" unicode="&#xd5;" horiz-adv-x="732" 
d="M449 692c-57 0 -93 37 -140 37c-26 0 -46 -25 -59 -45l-78 65c31 74 73 93 111 93c57 0 93 -37 140 -37c26 0 46 25 59 45l78 -65c-31 -74 -73 -93 -111 -93zM366 656c185 0 336 -151 336 -336s-151 -335 -336 -335s-336 151 -336 336s151 335 336 335zM366 150
c88 0 159 76 159 170s-71 171 -159 171s-159 -76 -159 -170s71 -171 159 -171z" />
    <glyph glyph-name="OE" unicode="&#x152;" horiz-adv-x="981" 
d="M525 0v36c-44 -32 -97 -51 -159 -51c-185 0 -336 151 -336 336s151 335 336 335c62 0 115 -19 159 -52v37h426v-155h-261v-84h221v-155h-221v-92h261v-155h-426zM366 150c88 0 159 76 159 170s-71 171 -159 171s-159 -76 -159 -170s71 -171 159 -171z" />
    <glyph glyph-name="Thorn" unicode="&#xde;" horiz-adv-x="584" 
d="M225 0h-165v641h165v-95h68c163 0 271 -88 271 -222c0 -136 -108 -225 -272 -225h-67v-99zM306 401h-81v-157h81c50 0 83 32 83 80c0 46 -33 77 -83 77z" />
    <glyph glyph-name="Racute" unicode="&#x154;" horiz-adv-x="610" 
d="M318 850h188l-140 -156h-146zM60 0v641h233c163 0 271 -84 271 -212c0 -83 -44 -148 -119 -184l135 -245h-191l-110 214h-54v-214h-165zM306 496h-81v-137h81c50 0 83 28 83 70c0 40 -33 67 -83 67z" />
    <glyph glyph-name="Rcaron" unicode="&#x158;" horiz-adv-x="610" 
d="M377 694h-144l-117 156h151l38 -67l38 67h151zM60 0v641h233c163 0 271 -84 271 -212c0 -83 -44 -148 -119 -184l135 -245h-191l-110 214h-54v-214h-165zM306 496h-81v-137h81c50 0 83 28 83 70c0 40 -33 67 -83 67z" />
    <glyph glyph-name="Rcommaaccent" unicode="&#x156;" horiz-adv-x="610" 
d="M60 0v641h233c163 0 271 -84 271 -212c0 -83 -44 -148 -119 -184l135 -245h-191l-110 214h-54v-214h-165zM306 496h-81v-137h81c50 0 83 28 83 70c0 40 -33 67 -83 67zM381 -51l-60 -160h-125l30 160h155z" />
    <glyph glyph-name="Sacute" unicode="&#x15a;" horiz-adv-x="561" 
d="M294 850h188l-140 -156h-146zM142 -2c-30 8 -70 28 -119 61l67 136c50 -31 131 -55 191 -55c45 0 78 13 78 46c0 87 -313 46 -313 272c0 130 121 199 253 199c80 0 163 -25 227 -76l-78 -128c-41 29 -108 49 -158 49c-38 0 -67 -12 -67 -40c0 -83 313 -45 313 -269
c0 -136 -125 -207 -267 -207c-55 0 -98 4 -127 12z" />
    <glyph glyph-name="Scaron" unicode="&#x160;" horiz-adv-x="561" 
d="M353 694h-144l-117 156h151l38 -67l38 67h151zM142 -2c-30 8 -70 28 -119 61l67 136c50 -31 131 -55 191 -55c45 0 78 13 78 46c0 87 -313 46 -313 272c0 130 121 199 253 199c80 0 163 -25 227 -76l-78 -128c-41 29 -108 49 -158 49c-38 0 -67 -12 -67 -40
c0 -83 313 -45 313 -269c0 -136 -125 -207 -267 -207c-55 0 -98 4 -127 12z" />
    <glyph glyph-name="Scedilla" unicode="&#x15e;" horiz-adv-x="561" 
d="M142 -2c-30 8 -70 28 -119 61l67 136c50 -31 131 -55 191 -55c45 0 78 13 78 46c0 87 -313 46 -313 272c0 130 121 199 253 199c80 0 163 -25 227 -76l-78 -128c-41 29 -108 49 -158 49c-38 0 -67 -12 -67 -40c0 -83 313 -45 313 -269c0 -114 -88 -183 -201 -202
l-62 -198l-128 50l82 144c-35 1 -64 5 -85 11z" />
    <glyph glyph-name="Scircumflex" unicode="&#x15c;" horiz-adv-x="561" 
d="M209 850h144l117 -156h-151l-38 67l-38 -67h-151zM142 -2c-30 8 -70 28 -119 61l67 136c50 -31 131 -55 191 -55c45 0 78 13 78 46c0 87 -313 46 -313 272c0 130 121 199 253 199c80 0 163 -25 227 -76l-78 -128c-41 29 -108 49 -158 49c-38 0 -67 -12 -67 -40
c0 -83 313 -45 313 -269c0 -136 -125 -207 -267 -207c-55 0 -98 4 -127 12z" />
    <glyph glyph-name="Scommaaccent" unicode="&#x218;" horiz-adv-x="561" 
d="M142 -2c-30 8 -70 28 -119 61l67 136c50 -31 131 -55 191 -55c45 0 78 13 78 46c0 87 -313 46 -313 272c0 130 121 199 253 199c80 0 163 -25 227 -76l-78 -128c-41 29 -108 49 -158 49c-38 0 -67 -12 -67 -40c0 -83 313 -45 313 -269c0 -136 -125 -207 -267 -207
c-55 0 -98 4 -127 12zM357 -51l-60 -160h-125l30 160h155z" />
    <glyph glyph-name="Tbar" unicode="&#x166;" horiz-adv-x="536" 
d="M110 350h75v136h-175v155h516v-155h-176v-136h75v-115h-75v-235h-165v235h-75v115z" />
    <glyph glyph-name="Tcaron" unicode="&#x164;" horiz-adv-x="536" 
d="M340 694h-144l-117 156h151l38 -67l38 67h151zM526 486h-176v-486h-165v486h-175v155h516v-155z" />
    <glyph glyph-name="Tcedilla" unicode="&#x162;" horiz-adv-x="536" 
d="M222 0h-37v486h-175v155h516v-155h-176v-486h-25l-65 -207l-128 50z" />
    <glyph glyph-name="Tcommaaccent" unicode="&#x21a;" horiz-adv-x="536" 
d="M526 486h-176v-486h-165v486h-175v155h516v-155zM344 -51l-60 -160h-125l30 160h155z" />
    <glyph glyph-name="Uacute" unicode="&#xda;" horiz-adv-x="659" 
d="M343 850h188l-140 -156h-146zM55 274v367h165v-363c0 -77 44 -128 111 -128c65 0 108 50 108 127v364h165v-367c0 -174 -110 -289 -276 -289c-164 0 -273 115 -273 289z" />
    <glyph glyph-name="Ubreve" unicode="&#x16c;" horiz-adv-x="659" 
d="M329 684c-92 0 -160 72 -160 166h109c0 -43 23 -64 51 -64s51 21 51 64h110c0 -94 -68 -166 -161 -166zM55 274v367h165v-363c0 -77 44 -128 111 -128c65 0 108 50 108 127v364h165v-367c0 -174 -110 -289 -276 -289c-164 0 -273 115 -273 289z" />
    <glyph glyph-name="Ucircumflex" unicode="&#xdb;" horiz-adv-x="659" 
d="M258 850h144l117 -156h-151l-38 67l-38 -67h-151zM55 274v367h165v-363c0 -77 44 -128 111 -128c65 0 108 50 108 127v364h165v-367c0 -174 -110 -289 -276 -289c-164 0 -273 115 -273 289z" />
    <glyph glyph-name="Udieresis" unicode="&#xdc;" horiz-adv-x="659" 
d="M148 766c0 45 36 82 81 82s82 -37 82 -82s-37 -81 -82 -81s-81 36 -81 81zM348 766c0 45 36 82 81 82s82 -37 82 -82s-37 -81 -82 -81s-81 36 -81 81zM55 274v367h165v-363c0 -77 44 -128 111 -128c65 0 108 50 108 127v364h165v-367c0 -174 -110 -289 -276 -289
c-164 0 -273 115 -273 289z" />
    <glyph glyph-name="Ugrave" unicode="&#xd9;" horiz-adv-x="659" 
d="M316 850l98 -156h-146l-140 156h188zM55 274v367h165v-363c0 -77 44 -128 111 -128c65 0 108 50 108 127v364h165v-367c0 -174 -110 -289 -276 -289c-164 0 -273 115 -273 289z" />
    <glyph glyph-name="Uhungarumlaut" unicode="&#x170;" horiz-adv-x="659" 
d="M253 850h153l-130 -156h-121zM454 850h163l-140 -156h-121zM55 274v367h165v-363c0 -77 44 -128 111 -128c65 0 108 50 108 127v364h165v-367c0 -174 -110 -289 -276 -289c-164 0 -273 115 -273 289z" />
    <glyph glyph-name="Umacron" unicode="&#x16a;" horiz-adv-x="659" 
d="M172 830h315v-115h-315v115zM55 274v367h165v-363c0 -77 44 -128 111 -128c65 0 108 50 108 127v364h165v-367c0 -174 -110 -289 -276 -289c-164 0 -273 115 -273 289z" />
    <glyph glyph-name="Uogonek" unicode="&#x172;" horiz-adv-x="659" 
d="M55 274v367h165v-363c0 -77 44 -128 111 -128c65 0 108 50 108 127v364h165v-367c0 -139 -70 -240 -182 -275c-67 -37 -84 -66 -84 -92c0 -20 12 -28 28 -28c15 0 28 5 45 18l45 -65c-20 -24 -60 -50 -115 -50c-58 0 -119 30 -119 99c0 40 23 77 60 107
c-138 20 -227 129 -227 286z" />
    <glyph glyph-name="Uring" unicode="&#x16e;" horiz-adv-x="659" 
d="M330 684c-72 0 -127 55 -127 123s55 123 127 123s127 -55 127 -123s-55 -123 -127 -123zM331 763c23 0 42 19 42 44s-19 44 -42 44s-42 -19 -42 -44s19 -44 42 -44zM55 274v367h165v-363c0 -77 44 -128 111 -128c65 0 108 50 108 127v364h165v-367
c0 -174 -110 -289 -276 -289c-164 0 -273 115 -273 289z" />
    <glyph glyph-name="Utilde" unicode="&#x168;" horiz-adv-x="659" 
d="M413 692c-57 0 -93 37 -140 37c-26 0 -46 -25 -59 -45l-78 65c31 74 73 93 111 93c57 0 93 -37 140 -37c26 0 46 25 59 45l78 -65c-31 -74 -73 -93 -111 -93zM55 274v367h165v-363c0 -77 44 -128 111 -128c65 0 108 50 108 127v364h165v-367c0 -174 -110 -289 -276 -289
c-164 0 -273 115 -273 289z" />
    <glyph glyph-name="Wacute" unicode="&#x1e82;" horiz-adv-x="1040" 
d="M533 850h188l-140 -156h-146zM847 641h173l-200 -641h-208l-96 436l-96 -436h-200l-200 641h182l118 -451l101 451h207l101 -451z" />
    <glyph glyph-name="Wcircumflex" unicode="&#x174;" horiz-adv-x="1040" 
d="M448 850h144l117 -156h-151l-38 67l-38 -67h-151zM847 641h173l-200 -641h-208l-96 436l-96 -436h-200l-200 641h182l118 -451l101 451h207l101 -451z" />
    <glyph glyph-name="Wdieresis" unicode="&#x1e84;" horiz-adv-x="1040" 
d="M338 766c0 45 36 82 81 82s82 -37 82 -82s-37 -81 -82 -81s-81 36 -81 81zM538 766c0 45 36 82 81 82s82 -37 82 -82s-37 -81 -82 -81s-81 36 -81 81zM847 641h173l-200 -641h-208l-96 436l-96 -436h-200l-200 641h182l118 -451l101 451h207l101 -451z" />
    <glyph glyph-name="Wgrave" unicode="&#x1e80;" horiz-adv-x="1040" 
d="M506 850l98 -156h-146l-140 156h188zM847 641h173l-200 -641h-208l-96 436l-96 -436h-200l-200 641h182l118 -451l101 451h207l101 -451z" />
    <glyph glyph-name="Yacute" unicode="&#xdd;" horiz-adv-x="651" 
d="M339 850h188l-140 -156h-146zM243 0v210l-233 431h183l136 -258l138 258h174l-233 -431v-210h-165z" />
    <glyph glyph-name="Ycircumflex" unicode="&#x176;" horiz-adv-x="651" 
d="M254 850h144l117 -156h-151l-38 67l-38 -67h-151zM243 0v210l-233 431h183l136 -258l138 258h174l-233 -431v-210h-165z" />
    <glyph glyph-name="Ydieresis" unicode="&#x178;" horiz-adv-x="651" 
d="M144 766c0 45 36 82 81 82s82 -37 82 -82s-37 -81 -82 -81s-81 36 -81 81zM344 766c0 45 36 82 81 82s82 -37 82 -82s-37 -81 -82 -81s-81 36 -81 81zM243 0v210l-233 431h183l136 -258l138 258h174l-233 -431v-210h-165z" />
    <glyph glyph-name="Ygrave" unicode="&#x1ef2;" horiz-adv-x="651" 
d="M312 850l98 -156h-146l-140 156h188zM243 0v210l-233 431h183l136 -258l138 258h174l-233 -431v-210h-165z" />
    <glyph glyph-name="Zacute" unicode="&#x179;" horiz-adv-x="582" 
d="M304 850h188l-140 -156h-146zM35 155l287 331h-277v155h492v-155l-287 -331h297v-155h-512v155z" />
    <glyph glyph-name="Zcaron" unicode="&#x17d;" horiz-adv-x="582" 
d="M363 694h-144l-117 156h151l38 -67l38 67h151zM35 155l287 331h-277v155h492v-155l-287 -331h297v-155h-512v155z" />
    <glyph glyph-name="Zdotaccent" unicode="&#x17b;" horiz-adv-x="582" 
d="M200 774c0 50 40 91 90 91s91 -41 91 -91s-41 -90 -91 -90s-90 40 -90 90zM35 155l287 331h-277v155h492v-155l-287 -331h297v-155h-512v155z" />
    <glyph glyph-name="Gbreve.alt" horiz-adv-x="715" 
d="M357 684c-92 0 -160 72 -160 166h109c0 -43 23 -64 51 -64s51 21 51 64h110c0 -94 -68 -166 -161 -166zM364 -15c-185 0 -334 151 -334 336s152 335 342 335c116 0 196 -42 246 -95l-106 -121c-30 31 -84 56 -138 56c-95 0 -167 -76 -167 -175s69 -176 158 -176
c91 0 134 44 149 87h-137v152h308v-173c-36 -110 -138 -226 -321 -226z" />
    <glyph glyph-name="Gcircumflex.alt" horiz-adv-x="715" 
d="M286 850h144l117 -156h-151l-38 67l-38 -67h-151zM364 -15c-185 0 -334 151 -334 336s152 335 342 335c116 0 196 -42 246 -95l-106 -121c-30 31 -84 56 -138 56c-95 0 -167 -76 -167 -175s69 -176 158 -176c91 0 134 44 149 87h-137v152h308v-173
c-36 -110 -138 -226 -321 -226z" />
    <glyph glyph-name="Gcommaaccent.alt" horiz-adv-x="715" 
d="M364 -15c-185 0 -334 151 -334 336s152 335 342 335c116 0 196 -42 246 -95l-106 -121c-30 31 -84 56 -138 56c-95 0 -167 -76 -167 -175s69 -176 158 -176c91 0 134 44 149 87h-137v152h308v-173c-36 -110 -138 -226 -321 -226zM434 -51l-60 -160h-125l30 160h155z" />
    <glyph glyph-name="Gdotaccent.alt" horiz-adv-x="715" 
d="M267 774c0 50 40 91 90 91s91 -41 91 -91s-41 -90 -91 -90s-90 40 -90 90zM364 -15c-185 0 -334 151 -334 336s152 335 342 335c116 0 196 -42 246 -95l-106 -121c-30 31 -84 56 -138 56c-95 0 -167 -76 -167 -175s69 -176 158 -176c91 0 134 44 149 87h-137v152h308
v-173c-36 -110 -138 -226 -321 -226z" />
    <glyph glyph-name="aacute" unicode="&#xe1;" horiz-adv-x="592" 
d="M309 688h188l-140 -156h-146zM254 -15c-122 0 -227 100 -227 254c0 147 96 255 227 255c53 0 94 -20 122 -55v40h161v-479h-161v45c-29 -37 -69 -60 -122 -60zM282 136c54 0 94 45 94 103c0 59 -40 104 -94 104s-94 -45 -94 -104c0 -58 40 -103 94 -103z" />
    <glyph glyph-name="abreve" unicode="&#x103;" horiz-adv-x="592" 
d="M295 522c-92 0 -160 72 -160 166h109c0 -43 23 -64 51 -64s51 21 51 64h110c0 -94 -68 -166 -161 -166zM254 -15c-122 0 -227 100 -227 254c0 147 96 255 227 255c53 0 94 -20 122 -55v40h161v-479h-161v45c-29 -37 -69 -60 -122 -60zM282 136c54 0 94 45 94 103
c0 59 -40 104 -94 104s-94 -45 -94 -104c0 -58 40 -103 94 -103z" />
    <glyph glyph-name="acircumflex" unicode="&#xe2;" horiz-adv-x="592" 
d="M224 688h144l117 -156h-151l-38 67l-38 -67h-151zM254 -15c-122 0 -227 100 -227 254c0 147 96 255 227 255c53 0 94 -20 122 -55v40h161v-479h-161v45c-29 -37 -69 -60 -122 -60zM282 136c54 0 94 45 94 103c0 59 -40 104 -94 104s-94 -45 -94 -104
c0 -58 40 -103 94 -103z" />
    <glyph glyph-name="adieresis" unicode="&#xe4;" horiz-adv-x="592" 
d="M114 604c0 45 36 82 81 82s82 -37 82 -82s-37 -81 -82 -81s-81 36 -81 81zM314 604c0 45 36 82 81 82s82 -37 82 -82s-37 -81 -82 -81s-81 36 -81 81zM254 -15c-122 0 -227 100 -227 254c0 147 96 255 227 255c53 0 94 -20 122 -55v40h161v-479h-161v45
c-29 -37 -69 -60 -122 -60zM282 136c54 0 94 45 94 103c0 59 -40 104 -94 104s-94 -45 -94 -104c0 -58 40 -103 94 -103z" />
    <glyph glyph-name="agrave" unicode="&#xe0;" horiz-adv-x="592" 
d="M282 688l98 -156h-146l-140 156h188zM254 -15c-122 0 -227 100 -227 254c0 147 96 255 227 255c53 0 94 -20 122 -55v40h161v-479h-161v45c-29 -37 -69 -60 -122 -60zM282 136c54 0 94 45 94 103c0 59 -40 104 -94 104s-94 -45 -94 -104c0 -58 40 -103 94 -103z" />
    <glyph glyph-name="amacron" unicode="&#x101;" horiz-adv-x="592" 
d="M138 668h315v-115h-315v115zM254 -15c-122 0 -227 100 -227 254c0 147 96 255 227 255c53 0 94 -20 122 -55v40h161v-479h-161v45c-29 -37 -69 -60 -122 -60zM282 136c54 0 94 45 94 103c0 59 -40 104 -94 104s-94 -45 -94 -104c0 -58 40 -103 94 -103z" />
    <glyph glyph-name="aogonek" unicode="&#x105;" horiz-adv-x="592" 
d="M254 -15c-122 0 -227 100 -227 254c0 147 96 255 227 255c53 0 94 -20 122 -55v40h161v-479c-69 -37 -86 -67 -86 -93c0 -20 12 -28 28 -28c15 0 28 5 45 18l45 -65c-20 -24 -60 -50 -115 -50c-58 0 -119 30 -119 99c0 46 29 87 76 119h-35v45c-29 -37 -69 -60 -122 -60z
M282 136c54 0 94 45 94 103c0 59 -40 104 -94 104s-94 -45 -94 -104c0 -58 40 -103 94 -103z" />
    <glyph glyph-name="aring" unicode="&#xe5;" horiz-adv-x="592" 
d="M296 522c-72 0 -127 55 -127 123s55 123 127 123s127 -55 127 -123s-55 -123 -127 -123zM297 601c23 0 42 19 42 44s-19 44 -42 44s-42 -19 -42 -44s19 -44 42 -44zM254 -15c-122 0 -227 100 -227 254c0 147 96 255 227 255c53 0 94 -20 122 -55v40h161v-479h-161v45
c-29 -37 -69 -60 -122 -60zM282 136c54 0 94 45 94 103c0 59 -40 104 -94 104s-94 -45 -94 -104c0 -58 40 -103 94 -103z" />
    <glyph glyph-name="atilde" unicode="&#xe3;" horiz-adv-x="592" 
d="M379 530c-57 0 -93 37 -140 37c-26 0 -46 -25 -59 -45l-78 65c31 74 73 93 111 93c57 0 93 -37 140 -37c26 0 46 25 59 45l78 -65c-31 -74 -73 -93 -111 -93zM254 -15c-122 0 -227 100 -227 254c0 147 96 255 227 255c53 0 94 -20 122 -55v40h161v-479h-161v45
c-29 -37 -69 -60 -122 -60zM282 136c54 0 94 45 94 103c0 59 -40 104 -94 104s-94 -45 -94 -104c0 -58 40 -103 94 -103z" />
    <glyph glyph-name="ae" unicode="&#xe6;" horiz-adv-x="885" 
d="M254 -15c-122 0 -227 100 -227 254c0 147 96 255 227 255c56 0 96 -23 122 -61v46h151v-46c28 39 68 61 120 61c108 0 214 -104 214 -245c0 -20 -1 -40 -3 -50h-325c13 -43 49 -73 96 -73c48 0 82 20 106 45l82 -109c-33 -40 -106 -77 -165 -77c-53 0 -95 24 -125 65v-50
h-151v52c-27 -41 -66 -67 -122 -67zM616 359c-39 0 -67 -24 -80 -62h160c-13 43 -43 62 -80 62zM282 136c54 0 94 45 94 103c0 59 -40 104 -94 104s-94 -45 -94 -104c0 -58 40 -103 94 -103z" />
    <glyph glyph-name="cacute" unicode="&#x107;" horiz-adv-x="490" 
d="M297 688h188l-140 -156h-146zM389 303c-28 27 -57 40 -99 40c-62 0 -102 -45 -102 -104c0 -58 41 -103 102 -103c44 0 76 16 105 44l80 -118c-37 -44 -110 -77 -189 -77c-145 0 -259 114 -259 254c0 141 115 255 255 255c87 0 153 -30 198 -77z" />
    <glyph glyph-name="ccaron" unicode="&#x10d;" horiz-adv-x="490" 
d="M356 532h-144l-117 156h151l38 -67l38 67h151zM389 303c-28 27 -57 40 -99 40c-62 0 -102 -45 -102 -104c0 -58 41 -103 102 -103c44 0 76 16 105 44l80 -118c-37 -44 -110 -77 -189 -77c-145 0 -259 114 -259 254c0 141 115 255 255 255c87 0 153 -30 198 -77z" />
    <glyph glyph-name="ccedilla" unicode="&#xe7;" horiz-adv-x="490" 
d="M389 303c-28 27 -57 40 -99 40c-62 0 -102 -45 -102 -104c0 -58 41 -103 102 -103c44 0 76 16 105 44l80 -118c-29 -34 -79 -62 -137 -72l-62 -197l-128 50l84 147c-118 24 -205 127 -205 249c0 141 115 255 255 255c87 0 153 -30 198 -77z" />
    <glyph glyph-name="ccircumflex" unicode="&#x109;" horiz-adv-x="490" 
d="M212 688h144l117 -156h-151l-38 67l-38 -67h-151zM389 303c-28 27 -57 40 -99 40c-62 0 -102 -45 -102 -104c0 -58 41 -103 102 -103c44 0 76 16 105 44l80 -118c-37 -44 -110 -77 -189 -77c-145 0 -259 114 -259 254c0 141 115 255 255 255c87 0 153 -30 198 -77z" />
    <glyph glyph-name="cdotaccent" unicode="&#x10b;" horiz-adv-x="490" 
d="M193 612c0 50 40 91 90 91s91 -41 91 -91s-41 -90 -91 -90s-90 40 -90 90zM389 303c-28 27 -57 40 -99 40c-62 0 -102 -45 -102 -104c0 -58 41 -103 102 -103c44 0 76 16 105 44l80 -118c-37 -44 -110 -77 -189 -77c-145 0 -259 114 -259 254c0 141 115 255 255 255
c87 0 153 -30 198 -77z" />
    <glyph glyph-name="eth" unicode="&#xf0;" horiz-adv-x="564" 
d="M207 477l-49 83l47 27c-27 19 -51 33 -66 40l109 100c34 -17 66 -37 96 -61l64 37l49 -83l-41 -24c76 -89 121 -203 121 -319c0 -176 -101 -292 -255 -292c-140 0 -255 109 -255 249c0 141 115 235 255 235c8 0 18 0 46 -6c-14 20 -29 39 -46 57zM282 136
c54 0 94 40 94 98c0 59 -40 99 -94 99s-94 -40 -94 -99c0 -58 40 -98 94 -98z" />
    <glyph glyph-name="dcaron" unicode="&#x10f;" horiz-adv-x="592" 
d="M254 -15c-122 0 -227 100 -227 254c0 147 96 255 227 255c53 0 94 -20 122 -55v249h161v-688h-161v45c-29 -37 -69 -60 -122 -60zM728 688l-46 -166h-115l20 166h141zM282 136c54 0 94 45 94 103c0 59 -40 104 -94 104s-94 -45 -94 -104c0 -58 40 -103 94 -103z" />
    <glyph glyph-name="dcroat" unicode="&#x111;" horiz-adv-x="592" 
d="M254 -15c-122 0 -227 100 -227 254c0 147 96 255 227 255c53 0 94 -20 122 -55v94h-108v115h108v40h161v-40h46v-115h-46v-533h-161v45c-29 -37 -69 -60 -122 -60zM282 136c54 0 94 45 94 103c0 59 -40 104 -94 104s-94 -45 -94 -104c0 -58 40 -103 94 -103z" />
    <glyph glyph-name="eacute" unicode="&#xe9;" horiz-adv-x="546" 
d="M286 688h188l-140 -156h-146zM291 -15c-152 0 -264 114 -264 254c0 141 107 255 247 255s248 -104 248 -245c0 -20 -1 -40 -3 -50h-325c13 -44 50 -73 103 -73c43 0 75 20 99 45l82 -109c-34 -41 -102 -77 -187 -77zM277 359c-39 0 -67 -24 -80 -62h160
c-13 43 -43 62 -80 62z" />
    <glyph glyph-name="ebreve" unicode="&#x115;" horiz-adv-x="546" 
d="M272 522c-92 0 -160 72 -160 166h109c0 -43 23 -64 51 -64s51 21 51 64h110c0 -94 -68 -166 -161 -166zM291 -15c-152 0 -264 114 -264 254c0 141 107 255 247 255s248 -104 248 -245c0 -20 -1 -40 -3 -50h-325c13 -44 50 -73 103 -73c43 0 75 20 99 45l82 -109
c-34 -41 -102 -77 -187 -77zM277 359c-39 0 -67 -24 -80 -62h160c-13 43 -43 62 -80 62z" />
    <glyph glyph-name="ecaron" unicode="&#x11b;" horiz-adv-x="546" 
d="M345 532h-144l-117 156h151l38 -67l38 67h151zM291 -15c-152 0 -264 114 -264 254c0 141 107 255 247 255s248 -104 248 -245c0 -20 -1 -40 -3 -50h-325c13 -44 50 -73 103 -73c43 0 75 20 99 45l82 -109c-34 -41 -102 -77 -187 -77zM277 359c-39 0 -67 -24 -80 -62h160
c-13 43 -43 62 -80 62z" />
    <glyph glyph-name="ecircumflex" unicode="&#xea;" horiz-adv-x="546" 
d="M201 688h144l117 -156h-151l-38 67l-38 -67h-151zM291 -15c-152 0 -264 114 -264 254c0 141 107 255 247 255s248 -104 248 -245c0 -20 -1 -40 -3 -50h-325c13 -44 50 -73 103 -73c43 0 75 20 99 45l82 -109c-34 -41 -102 -77 -187 -77zM277 359c-39 0 -67 -24 -80 -62
h160c-13 43 -43 62 -80 62z" />
    <glyph glyph-name="edieresis" unicode="&#xeb;" horiz-adv-x="546" 
d="M91 604c0 45 36 82 81 82s82 -37 82 -82s-37 -81 -82 -81s-81 36 -81 81zM291 604c0 45 36 82 81 82s82 -37 82 -82s-37 -81 -82 -81s-81 36 -81 81zM291 -15c-152 0 -264 114 -264 254c0 141 107 255 247 255s248 -104 248 -245c0 -20 -1 -40 -3 -50h-325
c13 -44 50 -73 103 -73c43 0 75 20 99 45l82 -109c-34 -41 -102 -77 -187 -77zM277 359c-39 0 -67 -24 -80 -62h160c-13 43 -43 62 -80 62z" />
    <glyph glyph-name="edotaccent" unicode="&#x117;" horiz-adv-x="546" 
d="M182 612c0 50 40 91 90 91s91 -41 91 -91s-41 -90 -91 -90s-90 40 -90 90zM291 -15c-152 0 -264 114 -264 254c0 141 107 255 247 255s248 -104 248 -245c0 -20 -1 -40 -3 -50h-325c13 -44 50 -73 103 -73c43 0 75 20 99 45l82 -109c-34 -41 -102 -77 -187 -77zM277 359
c-39 0 -67 -24 -80 -62h160c-13 43 -43 62 -80 62z" />
    <glyph glyph-name="egrave" unicode="&#xe8;" horiz-adv-x="546" 
d="M259 688l98 -156h-146l-140 156h188zM291 -15c-152 0 -264 114 -264 254c0 141 107 255 247 255s248 -104 248 -245c0 -20 -1 -40 -3 -50h-325c13 -44 50 -73 103 -73c43 0 75 20 99 45l82 -109c-34 -41 -102 -77 -187 -77zM277 359c-39 0 -67 -24 -80 -62h160
c-13 43 -43 62 -80 62z" />
    <glyph glyph-name="emacron" unicode="&#x113;" horiz-adv-x="546" 
d="M115 668h315v-115h-315v115zM291 -15c-152 0 -264 114 -264 254c0 141 107 255 247 255s248 -104 248 -245c0 -20 -1 -40 -3 -50h-325c13 -44 50 -73 103 -73c43 0 75 20 99 45l82 -109c-34 -41 -102 -77 -187 -77zM277 359c-39 0 -67 -24 -80 -62h160
c-13 43 -43 62 -80 62z" />
    <glyph glyph-name="eogonek" unicode="&#x119;" horiz-adv-x="546" 
d="M414 -168c-20 -24 -60 -50 -115 -50c-58 0 -119 30 -119 99c0 41 23 78 61 108c-126 22 -214 126 -214 250c0 141 107 255 247 255s248 -104 248 -245c0 -20 -1 -40 -3 -50h-325c13 -44 50 -73 103 -73c43 0 75 20 99 45l82 -109c-21 -25 -55 -49 -97 -63
c-68 -36 -85 -66 -85 -92c0 -20 12 -28 28 -28c15 0 28 5 45 18zM277 359c-39 0 -67 -24 -80 -62h160c-13 43 -43 62 -80 62z" />
    <glyph glyph-name="gbreve" unicode="&#x11f;" horiz-adv-x="582" 
d="M275 522c-92 0 -160 72 -160 166h109c0 -43 23 -64 51 -64s51 21 51 64h110c0 -94 -68 -166 -161 -166zM140 -20c16 -13 56 -44 123 -44c60 0 103 31 103 90v45c-29 -35 -69 -57 -122 -57c-117 0 -217 94 -217 240c0 140 100 236 217 236c53 0 94 -18 122 -50v39h161
v-446c0 -203 -152 -244 -254 -244c-89 0 -167 23 -213 67zM277 165c51 0 89 39 89 89s-38 89 -89 89s-89 -39 -89 -89c0 -51 38 -89 89 -89z" />
    <glyph glyph-name="gcircumflex" unicode="&#x11d;" horiz-adv-x="582" 
d="M204 688h144l117 -156h-151l-38 67l-38 -67h-151zM140 -20c16 -13 56 -44 123 -44c60 0 103 31 103 90v45c-29 -35 -69 -57 -122 -57c-117 0 -217 94 -217 240c0 140 100 236 217 236c53 0 94 -18 122 -50v39h161v-446c0 -203 -152 -244 -254 -244c-89 0 -167 23 -213 67
zM277 165c51 0 89 39 89 89s-38 89 -89 89s-89 -39 -89 -89c0 -51 38 -89 89 -89z" />
    <glyph glyph-name="gcommaaccent" unicode="&#x123;" horiz-adv-x="582" 
d="M183 538l60 160h125l-30 -160h-155zM140 -20c16 -13 56 -44 123 -44c60 0 103 31 103 90v45c-29 -35 -69 -57 -122 -57c-117 0 -217 94 -217 240c0 140 100 236 217 236c53 0 94 -18 122 -50v39h161v-446c0 -203 -152 -244 -254 -244c-89 0 -167 23 -213 67zM277 165
c51 0 89 39 89 89s-38 89 -89 89s-89 -39 -89 -89c0 -51 38 -89 89 -89z" />
    <glyph glyph-name="gdotaccent" unicode="&#x121;" horiz-adv-x="582" 
d="M185 612c0 50 40 91 90 91s91 -41 91 -91s-41 -90 -91 -90s-90 40 -90 90zM140 -20c16 -13 56 -44 123 -44c60 0 103 31 103 90v45c-29 -35 -69 -57 -122 -57c-117 0 -217 94 -217 240c0 140 100 236 217 236c53 0 94 -18 122 -50v39h161v-446
c0 -203 -152 -244 -254 -244c-89 0 -167 23 -213 67zM277 165c51 0 89 39 89 89s-38 89 -89 89s-89 -39 -89 -89c0 -51 38 -89 89 -89z" />
    <glyph glyph-name="hbar" unicode="&#x127;" horiz-adv-x="573" 
d="M55 0v523h-46v115h46v50h161v-50h108v-115h-108v-103c24 47 67 74 124 74c109 0 178 -78 178 -208v-286h-161v264c0 48 -28 79 -70 79c-43 0 -71 -31 -71 -79v-264h-161z" />
    <glyph glyph-name="hcircumflex" unicode="&#x125;" horiz-adv-x="573" 
d="M62 897h144l117 -156h-151l-38 67l-38 -67h-151zM55 0v688h161v-268c24 47 67 74 124 74c109 0 178 -78 178 -208v-286h-161v264c0 48 -28 79 -70 79c-43 0 -71 -31 -71 -79v-264h-161z" />
    <glyph glyph-name="idotless" unicode="&#x131;" horiz-adv-x="271" 
d="M216 479v-479h-161v479h161z" />
    <glyph glyph-name="iacute" unicode="&#xed;" horiz-adv-x="271" 
d="M149 688h188l-140 -156h-146zM216 479v-479h-161v479h161z" />
    <glyph glyph-name="ibreve" unicode="&#x12d;" horiz-adv-x="271" 
d="M135 522c-92 0 -160 72 -160 166h109c0 -43 23 -64 51 -64s51 21 51 64h110c0 -94 -68 -166 -161 -166zM216 479v-479h-161v479h161z" />
    <glyph glyph-name="icircumflex" unicode="&#xee;" horiz-adv-x="271" 
d="M64 688h144l117 -156h-151l-38 67l-38 -67h-151zM216 479v-479h-161v479h161z" />
    <glyph glyph-name="idieresis" unicode="&#xef;" horiz-adv-x="271" 
d="M-46 604c0 45 36 82 81 82s82 -37 82 -82s-37 -81 -82 -81s-81 36 -81 81zM154 604c0 45 36 82 81 82s82 -37 82 -82s-37 -81 -82 -81s-81 36 -81 81zM216 479v-479h-161v479h161z" />
    <glyph glyph-name="igrave" unicode="&#xec;" horiz-adv-x="271" 
d="M122 688l98 -156h-146l-140 156h188zM216 479v-479h-161v479h161z" />
    <glyph glyph-name="ij" unicode="&#x133;" horiz-adv-x="542" 
d="M135 522c-50 0 -90 40 -90 90s40 91 90 91s91 -41 91 -91s-41 -90 -91 -90zM406 522c-50 0 -90 40 -90 90s40 91 90 91s91 -41 91 -91s-41 -90 -91 -90zM216 0h-161v479h161v-479zM283 -211c-58 0 -110 21 -139 50l75 119c14 -12 33 -22 56 -22c28 0 51 23 51 72v471h161
v-463c0 -135 -72 -227 -204 -227z" />
    <glyph glyph-name="imacron" unicode="&#x12b;" horiz-adv-x="271" 
d="M-22 668h315v-115h-315v115zM216 479v-479h-161v479h161z" />
    <glyph glyph-name="iogonek" unicode="&#x12f;" horiz-adv-x="271" 
d="M45 612c0 50 40 91 90 91s91 -41 91 -91s-41 -90 -91 -90s-90 40 -90 90zM216 479v-479c-69 -37 -86 -67 -86 -93c0 -20 12 -28 28 -28c15 0 28 5 45 18l45 -65c-20 -24 -60 -50 -115 -50c-58 0 -119 30 -119 99c0 46 29 87 76 119h-35v479h161z" />
    <glyph glyph-name="itilde" unicode="&#x129;" horiz-adv-x="271" 
d="M219 530c-57 0 -93 37 -140 37c-26 0 -46 -25 -59 -45l-78 65c31 74 73 93 111 93c57 0 93 -37 140 -37c26 0 46 25 59 45l78 -65c-31 -74 -73 -93 -111 -93zM216 479v-479h-161v479h161z" />
    <glyph glyph-name="jdotless" unicode="&#x237;" horiz-adv-x="271" 
d="M216 479v-463c0 -135 -72 -227 -204 -227c-58 0 -110 21 -139 50l75 119c14 -12 33 -22 56 -22c28 0 51 23 51 72v471h161z" />
    <glyph glyph-name="jcircumflex" unicode="&#x135;" horiz-adv-x="271" 
d="M64 688h144l117 -156h-151l-38 67l-38 -67h-151zM216 479v-463c0 -135 -72 -227 -204 -227c-58 0 -110 21 -139 50l75 119c14 -12 33 -22 56 -22c28 0 51 23 51 72v471h161z" />
    <glyph glyph-name="kcommaaccent" unicode="&#x137;" horiz-adv-x="579" 
d="M216 0h-161v688h161v-393l150 184h194l-173 -211l199 -268h-202l-168 233v-233zM374 -51l-60 -160h-125l30 160h155z" />
    <glyph glyph-name="lacute" unicode="&#x13a;" horiz-adv-x="318" 
d="M152 897h188l-140 -156h-146zM273 139l15 -140c-20 -7 -48 -12 -70 -12c-79 0 -163 50 -163 196v505h161v-510c0 -30 18 -44 38 -44c6 0 13 2 19 5z" />
    <glyph glyph-name="lcaron" unicode="&#x13e;" horiz-adv-x="318" 
d="M273 139l15 -140c-20 -7 -48 -12 -70 -12c-79 0 -163 50 -163 196v505h161v-510c0 -30 18 -44 38 -44c6 0 13 2 19 5zM407 688l-46 -166h-115l20 166h141z" />
    <glyph glyph-name="lcommaaccent" unicode="&#x13c;" horiz-adv-x="318" 
d="M273 139l15 -140c-20 -7 -48 -12 -70 -12c-79 0 -163 50 -163 196v505h161v-510c0 -30 18 -44 38 -44c6 0 13 2 19 5zM265 -51l-60 -160h-125l30 160h155z" />
    <glyph glyph-name="ldot" unicode="&#x140;" horiz-adv-x="430" 
d="M273 139l15 -140c-20 -7 -48 -12 -70 -12c-79 0 -163 50 -163 196v505h161v-510c0 -30 18 -44 38 -44c6 0 13 2 19 5zM260 292c0 50 40 91 90 91s91 -41 91 -91s-41 -90 -91 -90s-90 40 -90 90z" />
    <glyph glyph-name="lslash" unicode="&#x142;" horiz-adv-x="271" 
d="M273 139l15 -140c-20 -7 -48 -12 -70 -12c-79 0 -163 50 -163 196v77l-50 -18v135l50 18v293h161v-233l60 22v-135l-60 -22v-142c0 -30 18 -44 38 -44c6 0 13 2 19 5z" />
    <glyph glyph-name="nacute" unicode="&#x144;" horiz-adv-x="573" 
d="M300 688h188l-140 -156h-146zM55 0v479h161v-59c24 47 67 74 124 74c109 0 178 -78 178 -208v-286h-161v264c0 48 -28 79 -70 79c-43 0 -71 -31 -71 -79v-264h-161z" />
    <glyph glyph-name="ncaron" unicode="&#x148;" horiz-adv-x="573" 
d="M359 532h-144l-117 156h151l38 -67l38 67h151zM55 0v479h161v-59c24 47 67 74 124 74c109 0 178 -78 178 -208v-286h-161v264c0 48 -28 79 -70 79c-43 0 -71 -31 -71 -79v-264h-161z" />
    <glyph glyph-name="ncommaaccent" unicode="&#x146;" horiz-adv-x="573" 
d="M55 0v479h161v-59c24 47 67 74 124 74c109 0 178 -78 178 -208v-286h-161v264c0 48 -28 79 -70 79c-43 0 -71 -31 -71 -79v-264h-161zM363 -51l-60 -160h-125l30 160h155z" />
    <glyph glyph-name="ntilde" unicode="&#xf1;" horiz-adv-x="573" 
d="M370 530c-57 0 -93 37 -140 37c-26 0 -46 -25 -59 -45l-78 65c31 74 73 93 111 93c57 0 93 -37 140 -37c26 0 46 25 59 45l78 -65c-31 -74 -73 -93 -111 -93zM55 0v479h161v-59c24 47 67 74 124 74c109 0 178 -78 178 -208v-286h-161v264c0 48 -28 79 -70 79
c-43 0 -71 -31 -71 -79v-264h-161z" />
    <glyph glyph-name="oacute" unicode="&#xf3;" horiz-adv-x="564" 
d="M295 688h188l-140 -156h-146zM282 -15c-140 0 -255 114 -255 254c0 141 115 255 255 255s255 -114 255 -255c0 -140 -115 -254 -255 -254zM282 136c54 0 94 45 94 103c0 59 -40 104 -94 104s-94 -45 -94 -104c0 -58 40 -103 94 -103z" />
    <glyph glyph-name="obreve" unicode="&#x14f;" horiz-adv-x="564" 
d="M281 522c-92 0 -160 72 -160 166h109c0 -43 23 -64 51 -64s51 21 51 64h110c0 -94 -68 -166 -161 -166zM282 -15c-140 0 -255 114 -255 254c0 141 115 255 255 255s255 -114 255 -255c0 -140 -115 -254 -255 -254zM282 136c54 0 94 45 94 103c0 59 -40 104 -94 104
s-94 -45 -94 -104c0 -58 40 -103 94 -103z" />
    <glyph glyph-name="ocircumflex" unicode="&#xf4;" horiz-adv-x="564" 
d="M210 688h144l117 -156h-151l-38 67l-38 -67h-151zM282 -15c-140 0 -255 114 -255 254c0 141 115 255 255 255s255 -114 255 -255c0 -140 -115 -254 -255 -254zM282 136c54 0 94 45 94 103c0 59 -40 104 -94 104s-94 -45 -94 -104c0 -58 40 -103 94 -103z" />
    <glyph glyph-name="odieresis" unicode="&#xf6;" horiz-adv-x="564" 
d="M100 604c0 45 36 82 81 82s82 -37 82 -82s-37 -81 -82 -81s-81 36 -81 81zM300 604c0 45 36 82 81 82s82 -37 82 -82s-37 -81 -82 -81s-81 36 -81 81zM282 -15c-140 0 -255 114 -255 254c0 141 115 255 255 255s255 -114 255 -255c0 -140 -115 -254 -255 -254zM282 136
c54 0 94 45 94 103c0 59 -40 104 -94 104s-94 -45 -94 -104c0 -58 40 -103 94 -103z" />
    <glyph glyph-name="ograve" unicode="&#xf2;" horiz-adv-x="564" 
d="M268 688l98 -156h-146l-140 156h188zM282 -15c-140 0 -255 114 -255 254c0 141 115 255 255 255s255 -114 255 -255c0 -140 -115 -254 -255 -254zM282 136c54 0 94 45 94 103c0 59 -40 104 -94 104s-94 -45 -94 -104c0 -58 40 -103 94 -103z" />
    <glyph glyph-name="ohungarumlaut" unicode="&#x151;" horiz-adv-x="564" 
d="M205 688h153l-130 -156h-121zM406 688h163l-140 -156h-121zM282 -15c-140 0 -255 114 -255 254c0 141 115 255 255 255s255 -114 255 -255c0 -140 -115 -254 -255 -254zM282 136c54 0 94 45 94 103c0 59 -40 104 -94 104s-94 -45 -94 -104c0 -58 40 -103 94 -103z" />
    <glyph glyph-name="omacron" unicode="&#x14d;" horiz-adv-x="564" 
d="M124 668h315v-115h-315v115zM282 -15c-140 0 -255 114 -255 254c0 141 115 255 255 255s255 -114 255 -255c0 -140 -115 -254 -255 -254zM282 136c54 0 94 45 94 103c0 59 -40 104 -94 104s-94 -45 -94 -104c0 -58 40 -103 94 -103z" />
    <glyph glyph-name="oslash" unicode="&#xf8;" horiz-adv-x="584" 
d="M292 -15c-38 0 -74 8 -106 21l-32 -46l-76 51l31 45c-50 46 -82 111 -82 183c0 141 120 255 265 255c36 0 71 -7 103 -20l36 52l76 -51l-34 -50c51 -46 84 -113 84 -186c0 -140 -120 -254 -265 -254zM188 239c0 -18 4 -35 12 -50l105 153c-4 1 -9 1 -13 1
c-60 0 -104 -45 -104 -104zM396 239c0 20 -5 38 -14 54l-107 -156c6 -1 11 -1 17 -1c60 0 104 45 104 103z" />
    <glyph glyph-name="otilde" unicode="&#xf5;" horiz-adv-x="564" 
d="M365 530c-57 0 -93 37 -140 37c-26 0 -46 -25 -59 -45l-78 65c31 74 73 93 111 93c57 0 93 -37 140 -37c26 0 46 25 59 45l78 -65c-31 -74 -73 -93 -111 -93zM282 -15c-140 0 -255 114 -255 254c0 141 115 255 255 255s255 -114 255 -255c0 -140 -115 -254 -255 -254z
M282 136c54 0 94 45 94 103c0 59 -40 104 -94 104s-94 -45 -94 -104c0 -58 40 -103 94 -103z" />
    <glyph glyph-name="oe" unicode="&#x153;" horiz-adv-x="890" 
d="M282 -15c-140 0 -255 114 -255 254c0 141 115 255 255 255c68 0 129 -29 172 -77c41 48 99 77 164 77c140 0 248 -104 248 -245c0 -20 -1 -40 -3 -50h-325c13 -43 49 -73 96 -73c48 0 82 20 106 45l82 -109c-34 -41 -112 -77 -192 -77c-69 0 -130 30 -174 79
c-43 -49 -105 -79 -174 -79zM621 359c-39 0 -67 -24 -80 -62h160c-13 43 -43 62 -80 62zM282 136c54 0 94 45 94 103c0 59 -40 104 -94 104s-94 -45 -94 -104c0 -58 40 -103 94 -103z" />
    <glyph glyph-name="thorn" unicode="&#xfe;" horiz-adv-x="592" 
d="M338 494c122 0 227 -100 227 -254c0 -147 -96 -255 -227 -255c-51 0 -92 15 -122 41v-222h-161v884h161v-240c30 29 71 46 122 46zM310 343c-54 0 -94 -45 -94 -103c0 -59 40 -104 94 -104s94 45 94 104c0 58 -40 103 -94 103z" />
    <glyph glyph-name="racute" unicode="&#x155;" horiz-adv-x="425" 
d="M226 688h188l-140 -156h-146zM55 0v479h161v-74c23 52 62 89 114 89c34 0 60 -9 80 -27l-66 -152c-16 14 -41 23 -65 23c-38 0 -63 -31 -63 -79v-259h-161z" />
    <glyph glyph-name="rcaron" unicode="&#x159;" horiz-adv-x="425" 
d="M285 532h-144l-117 156h151l38 -67l38 67h151zM55 0v479h161v-74c23 52 62 89 114 89c34 0 60 -9 80 -27l-66 -152c-16 14 -41 23 -65 23c-38 0 -63 -31 -63 -79v-259h-161z" />
    <glyph glyph-name="rcommaaccent" unicode="&#x157;" horiz-adv-x="425" 
d="M55 0v479h161v-74c23 52 62 89 114 89c34 0 60 -9 80 -27l-66 -152c-16 14 -41 23 -65 23c-38 0 -63 -31 -63 -79v-259h-161zM210 -51l-60 -160h-125l30 160h155z" />
    <glyph glyph-name="sacute" unicode="&#x15b;" horiz-adv-x="463" 
d="M245 688h188l-140 -156h-146zM216 -15c-85 0 -147 21 -192 45l45 118c57 -25 101 -36 153 -36c39 0 54 11 54 27c0 60 -241 27 -241 203c0 74 65 152 196 152c69 0 119 -12 191 -46l-56 -113c-35 21 -88 32 -120 32c-31 0 -49 -9 -49 -25c0 -62 238 -19 238 -201
c0 -83 -77 -156 -219 -156z" />
    <glyph glyph-name="scaron" unicode="&#x161;" horiz-adv-x="463" 
d="M304 532h-144l-117 156h151l38 -67l38 67h151zM216 -15c-85 0 -147 21 -192 45l45 118c57 -25 101 -36 153 -36c39 0 54 11 54 27c0 60 -241 27 -241 203c0 74 65 152 196 152c69 0 119 -12 191 -46l-56 -113c-35 21 -88 32 -120 32c-31 0 -49 -9 -49 -25
c0 -62 238 -19 238 -201c0 -83 -77 -156 -219 -156z" />
    <glyph glyph-name="scedilla" unicode="&#x15f;" horiz-adv-x="463" 
d="M435 141c0 -68 -52 -129 -149 -149l-62 -199l-128 50l82 143c-66 6 -116 24 -154 44l45 118c57 -25 101 -36 153 -36c39 0 54 11 54 27c0 60 -241 27 -241 203c0 74 65 152 196 152c69 0 119 -12 191 -46l-56 -113c-35 21 -88 32 -120 32c-31 0 -49 -9 -49 -25
c0 -62 238 -19 238 -201z" />
    <glyph glyph-name="scircumflex" unicode="&#x15d;" horiz-adv-x="463" 
d="M160 688h144l117 -156h-151l-38 67l-38 -67h-151zM216 -15c-85 0 -147 21 -192 45l45 118c57 -25 101 -36 153 -36c39 0 54 11 54 27c0 60 -241 27 -241 203c0 74 65 152 196 152c69 0 119 -12 191 -46l-56 -113c-35 21 -88 32 -120 32c-31 0 -49 -9 -49 -25
c0 -62 238 -19 238 -201c0 -83 -77 -156 -219 -156z" />
    <glyph glyph-name="scommaaccent" unicode="&#x219;" horiz-adv-x="463" 
d="M216 -15c-85 0 -147 21 -192 45l45 118c57 -25 101 -36 153 -36c39 0 54 11 54 27c0 60 -241 27 -241 203c0 74 65 152 196 152c69 0 119 -12 191 -46l-56 -113c-35 21 -88 32 -120 32c-31 0 -49 -9 -49 -25c0 -62 238 -19 238 -201c0 -83 -77 -156 -219 -156zM308 -51
l-60 -160h-125l30 160h155z" />
    <glyph glyph-name="germandbls" unicode="&#xdf;" horiz-adv-x="579" 
d="M286 552c-41 0 -70 -24 -70 -83v-469h-161v466c0 143 91 237 230 237c137 0 227 -89 227 -207c0 -44 -19 -86 -56 -118c65 -39 96 -98 96 -174c0 -132 -95 -219 -219 -219c-40 0 -65 7 -82 14l36 141c6 -2 17 -4 27 -4c44 0 77 30 77 76c0 49 -34 84 -96 84h-29v131h21
c46 0 64 30 64 62c0 35 -21 63 -65 63z" />
    <glyph glyph-name="tbar" unicode="&#x167;" horiz-adv-x="435" 
d="M30 297h70v41h-90v141h91v130h161v-130h122v-141h-120v-41h81v-115h-81c2 -32 16 -46 41 -46c20 0 40 10 50 23l70 -119c-31 -31 -82 -55 -148 -55c-106 0 -177 68 -177 197h-70v115z" />
    <glyph glyph-name="tcaron" unicode="&#x165;" horiz-adv-x="435" 
d="M463 688l-46 -166h-115l20 166h141zM10 338v141h91v130h161v-130h122v-141h-120v-147c0 -38 13 -55 41 -55c20 0 40 10 50 23l70 -119c-31 -31 -82 -55 -148 -55c-106 0 -177 68 -177 202v151h-90z" />
    <glyph glyph-name="tcedilla" unicode="&#x163;" horiz-adv-x="435" 
d="M10 338v141h91v130h161v-130h122v-141h-120v-147c0 -38 13 -55 41 -55c20 0 40 10 50 23l70 -119c-22 -22 -53 -40 -93 -49l-62 -198l-128 50l85 148c-78 19 -127 85 -127 196v151h-90z" />
    <glyph glyph-name="tcommaaccent" unicode="&#x21b;" horiz-adv-x="435" 
d="M10 338v141h91v130h161v-130h122v-141h-120v-147c0 -38 13 -55 41 -55c20 0 40 10 50 23l70 -119c-31 -31 -82 -55 -148 -55c-106 0 -177 68 -177 202v151h-90zM354 -51l-60 -160h-125l30 160h155z" />
    <glyph glyph-name="uacute" unicode="&#xfa;" horiz-adv-x="573" 
d="M300 688h188l-140 -156h-146zM211 479v-252c0 -55 30 -91 76 -91c45 0 75 36 75 91v252h161v-264c0 -138 -94 -230 -236 -230c-143 0 -237 92 -237 230v264h161z" />
    <glyph glyph-name="ubreve" unicode="&#x16d;" horiz-adv-x="573" 
d="M286 522c-92 0 -160 72 -160 166h109c0 -43 23 -64 51 -64s51 21 51 64h110c0 -94 -68 -166 -161 -166zM211 479v-252c0 -55 30 -91 76 -91c45 0 75 36 75 91v252h161v-264c0 -138 -94 -230 -236 -230c-143 0 -237 92 -237 230v264h161z" />
    <glyph glyph-name="ucircumflex" unicode="&#xfb;" horiz-adv-x="573" 
d="M215 688h144l117 -156h-151l-38 67l-38 -67h-151zM211 479v-252c0 -55 30 -91 76 -91c45 0 75 36 75 91v252h161v-264c0 -138 -94 -230 -236 -230c-143 0 -237 92 -237 230v264h161z" />
    <glyph glyph-name="udieresis" unicode="&#xfc;" horiz-adv-x="573" 
d="M105 604c0 45 36 82 81 82s82 -37 82 -82s-37 -81 -82 -81s-81 36 -81 81zM305 604c0 45 36 82 81 82s82 -37 82 -82s-37 -81 -82 -81s-81 36 -81 81zM211 479v-252c0 -55 30 -91 76 -91c45 0 75 36 75 91v252h161v-264c0 -138 -94 -230 -236 -230
c-143 0 -237 92 -237 230v264h161z" />
    <glyph glyph-name="ugrave" unicode="&#xf9;" horiz-adv-x="573" 
d="M273 688l98 -156h-146l-140 156h188zM211 479v-252c0 -55 30 -91 76 -91c45 0 75 36 75 91v252h161v-264c0 -138 -94 -230 -236 -230c-143 0 -237 92 -237 230v264h161z" />
    <glyph glyph-name="uhungarumlaut" unicode="&#x171;" horiz-adv-x="573" 
d="M210 688h153l-130 -156h-121zM411 688h163l-140 -156h-121zM211 479v-252c0 -55 30 -91 76 -91c45 0 75 36 75 91v252h161v-264c0 -138 -94 -230 -236 -230c-143 0 -237 92 -237 230v264h161z" />
    <glyph glyph-name="umacron" unicode="&#x16b;" horiz-adv-x="573" 
d="M129 668h315v-115h-315v115zM211 479v-252c0 -55 30 -91 76 -91c45 0 75 36 75 91v252h161v-264c0 -138 -94 -230 -236 -230c-143 0 -237 92 -237 230v264h161z" />
    <glyph glyph-name="uogonek" unicode="&#x173;" horiz-adv-x="573" 
d="M211 479v-252c0 -55 30 -91 76 -91c45 0 75 36 75 91v252h161v-264c0 -106 -55 -185 -145 -216c-68 -36 -85 -66 -85 -92c0 -20 12 -28 28 -28c15 0 28 5 45 18l45 -65c-20 -24 -60 -50 -115 -50c-58 0 -119 30 -119 99c0 40 23 78 61 108c-115 19 -188 104 -188 226v264
h161z" />
    <glyph glyph-name="uring" unicode="&#x16f;" horiz-adv-x="573" 
d="M287 522c-72 0 -127 55 -127 123s55 123 127 123s127 -55 127 -123s-55 -123 -127 -123zM288 601c23 0 42 19 42 44s-19 44 -42 44s-42 -19 -42 -44s19 -44 42 -44zM211 479v-252c0 -55 30 -91 76 -91c45 0 75 36 75 91v252h161v-264c0 -138 -94 -230 -236 -230
c-143 0 -237 92 -237 230v264h161z" />
    <glyph glyph-name="utilde" unicode="&#x169;" horiz-adv-x="573" 
d="M370 530c-57 0 -93 37 -140 37c-26 0 -46 -25 -59 -45l-78 65c31 74 73 93 111 93c57 0 93 -37 140 -37c26 0 46 25 59 45l78 -65c-31 -74 -73 -93 -111 -93zM211 479v-252c0 -55 30 -91 76 -91c45 0 75 36 75 91v252h161v-264c0 -138 -94 -230 -236 -230
c-143 0 -237 92 -237 230v264h161z" />
    <glyph glyph-name="wacute" unicode="&#x1e83;" horiz-adv-x="821" 
d="M424 688h188l-140 -156h-146zM337 0h-181l-141 479h172l63 -304l71 304h173l74 -307l66 307h172l-141 -479h-201l-65 278z" />
    <glyph glyph-name="wcircumflex" unicode="&#x175;" horiz-adv-x="821" 
d="M339 688h144l117 -156h-151l-38 67l-38 -67h-151zM337 0h-181l-141 479h172l63 -304l71 304h173l74 -307l66 307h172l-141 -479h-201l-65 278z" />
    <glyph glyph-name="wdieresis" unicode="&#x1e85;" horiz-adv-x="821" 
d="M229 604c0 45 36 82 81 82s82 -37 82 -82s-37 -81 -82 -81s-81 36 -81 81zM429 604c0 45 36 82 81 82s82 -37 82 -82s-37 -81 -82 -81s-81 36 -81 81zM337 0h-181l-141 479h172l63 -304l71 304h173l74 -307l66 307h172l-141 -479h-201l-65 278z" />
    <glyph glyph-name="wgrave" unicode="&#x1e81;" horiz-adv-x="821" 
d="M397 688l98 -156h-146l-140 156h188zM337 0h-181l-141 479h172l63 -304l71 304h173l74 -307l66 307h172l-141 -479h-201l-65 278z" />
    <glyph glyph-name="yacute" unicode="&#xfd;" horiz-adv-x="558" 
d="M292 688h188l-140 -156h-146zM181 479l113 -277l92 277h162l-183 -520c-44 -126 -118 -170 -205 -170c-62 0 -117 27 -150 58l71 126c24 -23 52 -33 78 -33c29 0 49 15 65 52l-221 487h178z" />
    <glyph glyph-name="ycircumflex" unicode="&#x177;" horiz-adv-x="558" 
d="M207 688h144l117 -156h-151l-38 67l-38 -67h-151zM181 479l113 -277l92 277h162l-183 -520c-44 -126 -118 -170 -205 -170c-62 0 -117 27 -150 58l71 126c24 -23 52 -33 78 -33c29 0 49 15 65 52l-221 487h178z" />
    <glyph glyph-name="ydieresis" unicode="&#xff;" horiz-adv-x="558" 
d="M97 604c0 45 36 82 81 82s82 -37 82 -82s-37 -81 -82 -81s-81 36 -81 81zM297 604c0 45 36 82 81 82s82 -37 82 -82s-37 -81 -82 -81s-81 36 -81 81zM181 479l113 -277l92 277h162l-183 -520c-44 -126 -118 -170 -205 -170c-62 0 -117 27 -150 58l71 126
c24 -23 52 -33 78 -33c29 0 49 15 65 52l-221 487h178z" />
    <glyph glyph-name="ygrave" unicode="&#x1ef3;" horiz-adv-x="558" 
d="M265 688l98 -156h-146l-140 156h188zM181 479l113 -277l92 277h162l-183 -520c-44 -126 -118 -170 -205 -170c-62 0 -117 27 -150 58l71 126c24 -23 52 -33 78 -33c29 0 49 15 65 52l-221 487h178z" />
    <glyph glyph-name="zacute" unicode="&#x17a;" horiz-adv-x="483" 
d="M255 688h188l-140 -156h-146zM35 141l194 197h-184v141h394v-141l-195 -197h204v-141h-413v141z" />
    <glyph glyph-name="zcaron" unicode="&#x17e;" horiz-adv-x="483" 
d="M314 532h-144l-117 156h151l38 -67l38 67h151zM35 141l194 197h-184v141h394v-141l-195 -197h204v-141h-413v141z" />
    <glyph glyph-name="zdotaccent" unicode="&#x17c;" horiz-adv-x="483" 
d="M151 612c0 50 40 91 90 91s91 -41 91 -91s-41 -90 -91 -90s-90 40 -90 90zM35 141l194 197h-184v141h394v-141l-195 -197h204v-141h-413v141z" />
    <glyph glyph-name="aacute.alt" horiz-adv-x="619" 
d="M303 688h188l-140 -156h-146zM254 -15c-122 0 -227 100 -227 254c0 147 96 255 227 255c52 0 93 -19 122 -52v37h161v-301c0 -30 18 -44 38 -44c6 0 13 2 19 5l15 -140c-20 -7 -48 -12 -70 -12c-50 0 -102 20 -133 71c-32 -48 -85 -73 -152 -73zM282 136
c54 0 94 45 94 103c0 59 -40 104 -94 104s-94 -45 -94 -104c0 -58 40 -103 94 -103z" />
    <glyph glyph-name="abreve.alt" horiz-adv-x="619" 
d="M289 522c-92 0 -160 72 -160 166h109c0 -43 23 -64 51 -64s51 21 51 64h110c0 -94 -68 -166 -161 -166zM254 -15c-122 0 -227 100 -227 254c0 147 96 255 227 255c52 0 93 -19 122 -52v37h161v-301c0 -30 18 -44 38 -44c6 0 13 2 19 5l15 -140c-20 -7 -48 -12 -70 -12
c-50 0 -102 20 -133 71c-32 -48 -85 -73 -152 -73zM282 136c54 0 94 45 94 103c0 59 -40 104 -94 104s-94 -45 -94 -104c0 -58 40 -103 94 -103z" />
    <glyph glyph-name="acircumflex.alt" horiz-adv-x="619" 
d="M218 688h144l117 -156h-151l-38 67l-38 -67h-151zM254 -15c-122 0 -227 100 -227 254c0 147 96 255 227 255c52 0 93 -19 122 -52v37h161v-301c0 -30 18 -44 38 -44c6 0 13 2 19 5l15 -140c-20 -7 -48 -12 -70 -12c-50 0 -102 20 -133 71c-32 -48 -85 -73 -152 -73z
M282 136c54 0 94 45 94 103c0 59 -40 104 -94 104s-94 -45 -94 -104c0 -58 40 -103 94 -103z" />
    <glyph glyph-name="adieresis.alt" horiz-adv-x="619" 
d="M108 604c0 45 36 82 81 82s82 -37 82 -82s-37 -81 -82 -81s-81 36 -81 81zM308 604c0 45 36 82 81 82s82 -37 82 -82s-37 -81 -82 -81s-81 36 -81 81zM254 -15c-122 0 -227 100 -227 254c0 147 96 255 227 255c52 0 93 -19 122 -52v37h161v-301c0 -30 18 -44 38 -44
c6 0 13 2 19 5l15 -140c-20 -7 -48 -12 -70 -12c-50 0 -102 20 -133 71c-32 -48 -85 -73 -152 -73zM282 136c54 0 94 45 94 103c0 59 -40 104 -94 104s-94 -45 -94 -104c0 -58 40 -103 94 -103z" />
    <glyph glyph-name="agrave.alt" horiz-adv-x="619" 
d="M276 688l98 -156h-146l-140 156h188zM254 -15c-122 0 -227 100 -227 254c0 147 96 255 227 255c52 0 93 -19 122 -52v37h161v-301c0 -30 18 -44 38 -44c6 0 13 2 19 5l15 -140c-20 -7 -48 -12 -70 -12c-50 0 -102 20 -133 71c-32 -48 -85 -73 -152 -73zM282 136
c54 0 94 45 94 103c0 59 -40 104 -94 104s-94 -45 -94 -104c0 -58 40 -103 94 -103z" />
    <glyph glyph-name="amacron.alt" horiz-adv-x="619" 
d="M132 668h315v-115h-315v115zM254 -15c-122 0 -227 100 -227 254c0 147 96 255 227 255c52 0 93 -19 122 -52v37h161v-301c0 -30 18 -44 38 -44c6 0 13 2 19 5l15 -140c-20 -7 -48 -12 -70 -12c-50 0 -102 20 -133 71c-32 -48 -85 -73 -152 -73zM282 136
c54 0 94 45 94 103c0 59 -40 104 -94 104s-94 -45 -94 -104c0 -58 40 -103 94 -103z" />
    <glyph glyph-name="aogonek.alt" horiz-adv-x="619" 
d="M254 -15c-122 0 -227 100 -227 254c0 147 96 255 227 255c52 0 93 -19 122 -52v37h161v-301c0 -30 18 -44 38 -44c6 0 13 2 19 5l15 -140c-69 -37 -86 -67 -86 -93c0 -20 12 -28 28 -28c15 0 28 5 45 18l45 -65c-20 -24 -60 -50 -115 -50c-58 0 -119 30 -119 99
c0 45 28 86 73 117c-29 11 -55 30 -74 61c-32 -48 -85 -73 -152 -73zM282 136c54 0 94 45 94 103c0 59 -40 104 -94 104s-94 -45 -94 -104c0 -58 40 -103 94 -103z" />
    <glyph glyph-name="aring.alt" horiz-adv-x="619" 
d="M290 522c-72 0 -127 55 -127 123s55 123 127 123s127 -55 127 -123s-55 -123 -127 -123zM291 601c23 0 42 19 42 44s-19 44 -42 44s-42 -19 -42 -44s19 -44 42 -44zM254 -15c-122 0 -227 100 -227 254c0 147 96 255 227 255c52 0 93 -19 122 -52v37h161v-301
c0 -30 18 -44 38 -44c6 0 13 2 19 5l15 -140c-20 -7 -48 -12 -70 -12c-50 0 -102 20 -133 71c-32 -48 -85 -73 -152 -73zM282 136c54 0 94 45 94 103c0 59 -40 104 -94 104s-94 -45 -94 -104c0 -58 40 -103 94 -103z" />
    <glyph glyph-name="atilde.alt" horiz-adv-x="619" 
d="M373 530c-57 0 -93 37 -140 37c-26 0 -46 -25 -59 -45l-78 65c31 74 73 93 111 93c57 0 93 -37 140 -37c26 0 46 25 59 45l78 -65c-31 -74 -73 -93 -111 -93zM254 -15c-122 0 -227 100 -227 254c0 147 96 255 227 255c52 0 93 -19 122 -52v37h161v-301
c0 -30 18 -44 38 -44c6 0 13 2 19 5l15 -140c-20 -7 -48 -12 -70 -12c-50 0 -102 20 -133 71c-32 -48 -85 -73 -152 -73zM282 136c54 0 94 45 94 103c0 59 -40 104 -94 104s-94 -45 -94 -104c0 -58 40 -103 94 -103z" />
    <glyph glyph-name="jdotless.alt" horiz-adv-x="271" 
d="M-8 -211h-36v153h28c58 0 71 40 71 76v461h161v-463c0 -135 -83 -227 -224 -227z" />
    <glyph glyph-name="jcircumflex.alt" horiz-adv-x="271" 
d="M64 688h144l117 -156h-151l-38 67l-38 -67h-151zM-8 -211h-36v153h28c58 0 71 40 71 76v461h161v-463c0 -135 -83 -227 -224 -227z" />
    <glyph glyph-name="lacute.alt" horiz-adv-x="271" 
d="M152 897h188l-140 -156h-146zM55 0v688h161v-688h-161z" />
    <glyph glyph-name="lcaron.alt" horiz-adv-x="271" 
d="M55 0v688h161v-688h-161zM407 688l-46 -166h-115l20 166h141z" />
    <glyph glyph-name="lcommaaccent.alt" horiz-adv-x="271" 
d="M55 0v688h161v-688h-161zM212 -51l-60 -160h-125l30 160h155z" />
    <glyph glyph-name="ldot.alt" horiz-adv-x="430" 
d="M55 0v688h161v-688h-161zM260 292c0 50 40 91 90 91s91 -41 91 -91s-41 -90 -91 -90s-90 40 -90 90z" />
    <glyph glyph-name="lslash.alt" horiz-adv-x="271" 
d="M55 0v261l-50 -19v135l50 19v292h161v-230l50 19v-135l-50 -19v-323h-161z" />
    <glyph glyph-name="yacute.alt" horiz-adv-x="558" 
d="M292 688h188l-140 -156h-146zM304 -196h-162l78 198l-217 477h178l113 -275l92 275h162z" />
    <glyph glyph-name="ycircumflex.alt" horiz-adv-x="558" 
d="M207 688h144l117 -156h-151l-38 67l-38 -67h-151zM304 -196h-162l78 198l-217 477h178l113 -275l92 275h162z" />
    <glyph glyph-name="ydieresis.alt" horiz-adv-x="558" 
d="M97 604c0 45 36 82 81 82s82 -37 82 -82s-37 -81 -82 -81s-81 36 -81 81zM297 604c0 45 36 82 81 82s82 -37 82 -82s-37 -81 -82 -81s-81 36 -81 81zM304 -196h-162l78 198l-217 477h178l113 -275l92 275h162z" />
    <glyph glyph-name="ygrave.alt" horiz-adv-x="558" 
d="M265 688l98 -156h-146l-140 156h188zM304 -196h-162l78 198l-217 477h178l113 -275l92 275h162z" />
    <glyph glyph-name="i.loclTRK" horiz-adv-x="271" 
d="M135 522c-50 0 -90 40 -90 90s40 91 90 91s91 -41 91 -91s-41 -90 -91 -90zM216 0h-161v479h161v-479z" />
    <glyph glyph-name="fl.alt" horiz-adv-x="627" 
d="M20 338v141h81c2 138 93 224 218 224c38 0 74 -5 104 -15h149v-688h-161v530c-15 12 -40 22 -74 22c-36 0 -75 -24 -75 -73h92v-141h-92v-338h-161v338h-81z" />
    <glyph glyph-name="ordfeminine" unicode="&#xaa;" horiz-adv-x="370" 
d="M143 313c-67 0 -136 60 -136 165c0 99 61 172 135 172c36 0 62 -13 80 -39v30h125v-320h-125v31c-19 -26 -46 -39 -79 -39zM177 430c24 0 43 19 43 47c0 29 -19 49 -43 49s-42 -20 -42 -49c0 -28 18 -47 42 -47z" />
    <glyph glyph-name="ordmasculine" unicode="&#xba;" horiz-adv-x="355" 
d="M177 313c-92 0 -170 75 -170 168c0 94 78 170 170 170s170 -76 170 -170c0 -93 -78 -168 -170 -168zM177 433c24 0 43 19 43 47c0 29 -19 49 -43 49s-42 -20 -42 -49c0 -28 18 -47 42 -47z" />
    <glyph glyph-name="Delta" unicode="&#x394;" horiz-adv-x="714" 
d="M10 0l250 641h194l250 -641h-694zM236 146h233l-116 320z" />
    <glyph glyph-name="Omega" unicode="&#x3a9;" horiz-adv-x="732" 
d="M366 491c-88 0 -159 -67 -159 -161c0 -87 64 -152 117 -185v-145h-285v145l96 -3c-75 64 -105 139 -105 218c0 155 151 296 336 296s336 -141 336 -296c0 -79 -30 -154 -105 -218l96 3v-145h-285v145c53 33 117 98 117 185c0 94 -71 161 -159 161z" />
    <glyph glyph-name="mu" unicode="&#x3bc;" horiz-adv-x="573" 
d="M211 479v-252c0 -55 30 -91 76 -91c45 0 75 36 75 91v252h161v-264c0 -138 -94 -230 -236 -230c-27 0 -53 3 -76 10v-151h-161v635h161z" />
    <glyph glyph-name="questiondown" unicode="&#xbf;" horiz-adv-x="477" 
d="M257 497c55 0 99 -44 99 -99s-44 -100 -99 -100s-100 45 -100 100s45 99 100 99zM320 241l18 -145l-39 -1c-63 0 -102 -25 -102 -64c0 -35 31 -52 69 -52c37 0 79 15 110 45l89 -118c-56 -54 -133 -80 -206 -80c-116 0 -221 65 -221 189c0 88 57 160 158 176l4 50h120z
" />
    <glyph glyph-name="periodcentered" unicode="&#xb7;" 
d="M109 292c0 50 40 91 90 91s91 -41 91 -91s-41 -90 -91 -90s-90 40 -90 90z" />
    <glyph glyph-name="softhyphen" unicode="&#xad;" horiz-adv-x="335" 
d="M40 317h255v-135h-255v135z" />
    <glyph glyph-name="quotesinglbase" unicode="&#x201a;" horiz-adv-x="269" 
d="M144 -85h-69l46 88c-30 12 -51 37 -51 68c0 44 34 78 79 78c43 0 77 -33 77 -77c0 -16 -5 -42 -24 -70z" />
    <glyph glyph-name="quotedblbase" unicode="&#x201e;" horiz-adv-x="453" 
d="M144 -85h-69l46 88c-30 12 -51 37 -51 68c0 44 34 78 79 78c43 0 77 -33 77 -77c0 -16 -5 -42 -24 -70zM328 -85h-69l46 88c-30 12 -51 37 -51 68c0 44 34 78 79 78c43 0 77 -33 77 -77c0 -16 -5 -42 -24 -70z" />
    <glyph glyph-name="florin" unicode="&#x192;" horiz-adv-x="562" 
d="M192 48v189h-86v120h86v119c0 139 77 227 203 227c74 0 122 -19 157 -54l-76 -122c-14 14 -40 25 -63 25c-36 0 -60 -24 -60 -73v-122h127v-120h-127v-181c0 -135 -72 -227 -204 -227c-58 0 -110 21 -139 50l75 119c14 -12 33 -22 56 -22c28 0 51 23 51 72z" />
    <glyph glyph-name="logicalnot" unicode="&#xac;" horiz-adv-x="521" 
d="M491 109h-145v139h-316v145h461v-284z" />
    <glyph glyph-name="infinity" unicode="&#x221e;" horiz-adv-x="521" 
d="M491 322c0 -87 -50 -151 -127 -151c-58 0 -91 29 -113 65c-25 -40 -58 -65 -101 -65c-70 0 -120 63 -120 148c0 88 50 152 128 152c57 0 89 -28 111 -62c26 37 60 62 102 62c70 0 120 -63 120 -149zM124 320c0 -22 17 -40 41 -40c15 0 34 7 50 27c-14 31 -27 55 -50 55
c-24 0 -41 -18 -41 -42zM357 362c-16 0 -38 -6 -53 -22c14 -34 28 -60 53 -60c23 0 42 18 42 40c0 24 -19 42 -42 42z" />
    <glyph glyph-name="integral" unicode="&#x222b;" horiz-adv-x="562" 
d="M192 48v428c0 139 77 227 203 227c74 0 122 -19 157 -54l-76 -122c-14 14 -40 25 -63 25c-36 0 -60 -24 -60 -73v-423c0 -135 -72 -227 -204 -227c-58 0 -110 21 -139 50l75 119c14 -12 33 -22 56 -22c28 0 51 23 51 72z" />
    <glyph glyph-name="product" unicode="&#x220f;" horiz-adv-x="666" 
d="M401 486h-136v-682h-165v682h-70v155h606v-155h-70v-682h-165v682z" />
    <glyph glyph-name="summation" unicode="&#x2211;" horiz-adv-x="511" 
d="M408 311v-130l-190 -211h283v-166h-491v191l228 262l-228 263v168h491v-165h-283z" />
    <glyph glyph-name="radical" unicode="&#x221a;" horiz-adv-x="617" 
d="M409 0h-209l-112 334h-78v145h207l91 -337l136 546h163z" />
    <glyph glyph-name="partialdiff" unicode="&#x2202;" horiz-adv-x="564" 
d="M282 494c12 0 23 -1 32 -3c-56 74 -139 119 -175 136l109 100c173 -85 289 -260 289 -443c0 -180 -101 -299 -255 -299c-140 0 -255 117 -255 261c0 146 115 248 255 248zM282 136c54 0 94 48 94 110c0 64 -40 112 -94 112s-94 -48 -94 -112c0 -62 40 -110 94 -110z" />
    <glyph glyph-name="perthousand" unicode="&#x2030;" horiz-adv-x="1169" 
d="M191 326c-90 0 -171 73 -171 164s67 166 171 166c103 0 173 -75 173 -166s-82 -164 -173 -164zM244 0h-120l420 641h122zM192 419c37 0 69 28 69 71c0 46 -36 71 -69 71c-37 0 -69 -26 -69 -71c0 -44 33 -71 69 -71zM598 -15c-103 0 -173 75 -173 166s82 164 173 164
c90 0 171 -73 171 -164s-67 -166 -171 -166zM978 -15c-103 0 -173 75 -173 166s82 164 173 164c90 0 171 -73 171 -164s-67 -166 -171 -166zM597 80c37 0 69 26 69 71c0 44 -33 71 -69 71c-37 0 -69 -28 -69 -71c0 -46 36 -71 69 -71zM977 80c37 0 69 26 69 71
c0 44 -33 71 -69 71c-37 0 -69 -28 -69 -71c0 -46 36 -71 69 -71z" />
    <glyph glyph-name="lozenge" unicode="&#x25ca;" horiz-adv-x="544" 
d="M514 320l-155 -320h-174l-155 320l155 321h174zM343 320l-75 181l-76 -181l76 -180z" />
    <glyph glyph-name="dieresis" unicode="&#xa8;" 
d="M18 604c0 45 36 82 81 82s82 -37 82 -82s-37 -81 -82 -81s-81 36 -81 81zM218 604c0 45 36 82 81 82s82 -37 82 -82s-37 -81 -82 -81s-81 36 -81 81z" />
    <glyph glyph-name="dotaccent" unicode="&#x2d9;" 
d="M109 612c0 50 40 91 90 91s91 -41 91 -91s-41 -90 -91 -90s-90 40 -90 90z" />
    <glyph glyph-name="acute" unicode="&#xb4;" 
d="M181 688h188l-140 -156h-146z" />
    <glyph glyph-name="hungarumlaut" unicode="&#x2dd;" 
d="M134 688h153l-130 -156h-121zM335 688h163l-140 -156h-121z" />
    <glyph glyph-name="circumflex" unicode="&#x2c6;" 
d="M128 688h144l117 -156h-151l-38 67l-38 -67h-151z" />
    <glyph glyph-name="caron" unicode="&#x2c7;" 
d="M272 532h-144l-117 156h151l38 -67l38 67h151z" />
    <glyph glyph-name="breve" unicode="&#x2d8;" 
d="M200 522c-92 0 -160 72 -160 166h109c0 -43 23 -64 51 -64s51 21 51 64h110c0 -94 -68 -166 -161 -166z" />
    <glyph glyph-name="ring" unicode="&#x2da;" 
d="M200 522c-72 0 -127 55 -127 123s55 123 127 123s127 -55 127 -123s-55 -123 -127 -123zM201 601c23 0 42 19 42 44s-19 44 -42 44s-42 -19 -42 -44s19 -44 42 -44z" />
    <glyph glyph-name="tilde" unicode="&#x2dc;" 
d="M283 530c-57 0 -93 37 -140 37c-26 0 -46 -25 -59 -45l-78 65c31 74 73 93 111 93c57 0 93 -37 140 -37c26 0 46 25 59 45l78 -65c-31 -74 -73 -93 -111 -93z" />
    <glyph glyph-name="macron" unicode="&#xaf;" 
d="M42 668h315v-115h-315v115z" />
    <glyph glyph-name="cedilla" unicode="&#xb8;" 
d="M164 0h103l-65 -207l-128 50z" />
    <glyph glyph-name="ogonek" unicode="&#x2db;" 
d="M212 27l77 -27c-69 -37 -86 -67 -86 -93c0 -20 12 -28 28 -28c15 0 28 5 45 18l45 -65c-20 -24 -60 -50 -115 -50c-58 0 -119 30 -119 99c0 60 51 113 125 146z" />
    <glyph glyph-name="commaaccent.alt" 
d="M111 538l60 160h125l-30 -160h-155z" />
    <glyph glyph-name="dieresiscomb" unicode="&#x308;" 
d="M18 604c0 45 36 82 81 82s82 -37 82 -82s-37 -81 -82 -81s-81 36 -81 81zM218 604c0 45 36 82 81 82s82 -37 82 -82s-37 -81 -82 -81s-81 36 -81 81z" />
    <glyph glyph-name="dotaccentcomb" unicode="&#x307;" 
d="M109 612c0 50 40 91 90 91s91 -41 91 -91s-41 -90 -91 -90s-90 40 -90 90z" />
    <glyph glyph-name="gravecomb" unicode="&#x300;" 
d="M218 688l98 -156h-146l-140 156h188z" />
    <glyph glyph-name="acutecomb" unicode="&#x301;" 
d="M181 688h188l-140 -156h-146z" />
    <glyph glyph-name="hungarumlautcomb" unicode="&#x30b;" 
d="M134 688h153l-130 -156h-121zM335 688h163l-140 -156h-121z" />
    <glyph glyph-name="caroncomb.alt" 
d="M297 688l-46 -166h-115l20 166h141z" />
    <glyph glyph-name="circumflexcomb" unicode="&#x302;" 
d="M128 688h144l117 -156h-151l-38 67l-38 -67h-151z" />
    <glyph glyph-name="caroncomb" unicode="&#x30c;" 
d="M272 532h-144l-117 156h151l38 -67l38 67h151z" />
    <glyph glyph-name="brevecomb" unicode="&#x306;" 
d="M200 522c-92 0 -160 72 -160 166h109c0 -43 23 -64 51 -64s51 21 51 64h110c0 -94 -68 -166 -161 -166z" />
    <glyph glyph-name="ringcomb" unicode="&#x30a;" 
d="M200 522c-72 0 -127 55 -127 123s55 123 127 123s127 -55 127 -123s-55 -123 -127 -123zM201 601c23 0 42 19 42 44s-19 44 -42 44s-42 -19 -42 -44s19 -44 42 -44z" />
    <glyph glyph-name="tildecomb" unicode="&#x303;" 
d="M283 530c-57 0 -93 37 -140 37c-26 0 -46 -25 -59 -45l-78 65c31 74 73 93 111 93c57 0 93 -37 140 -37c26 0 46 25 59 45l78 -65c-31 -74 -73 -93 -111 -93z" />
    <glyph glyph-name="macroncomb" unicode="&#x304;" 
d="M42 668h315v-115h-315v115z" />
    <glyph glyph-name="commaaccentcomb" unicode="&#x326;" 
d="M282 -51l-60 -160h-125l30 160h155z" />
    <glyph glyph-name="cedillacomb" unicode="&#x327;" 
d="M164 0h103l-65 -207l-128 50z" />
    <glyph glyph-name="ogonekcomb" unicode="&#x328;" 
d="M212 27l77 -27c-69 -37 -86 -67 -86 -93c0 -20 12 -28 28 -28c15 0 28 5 45 18l45 -65c-20 -24 -60 -50 -115 -50c-58 0 -119 30 -119 99c0 60 51 113 125 146z" />
    <glyph glyph-name="strokeshortcomb" unicode="&#x335;" horiz-adv-x="435" 
d="M40 303h315v-115h-315v115z" />
    <glyph glyph-name="commaaccent" 
d="M282 -51l-60 -160h-125l30 160h155z" />
    </font>
</defs>
</svg>
