<?xml version="1.0" standalone="no"?>
<!DOCTYPE svg PUBLIC "-//W3C//DTD SVG 1.1//EN" "http://www.w3.org/Graphics/SVG/1.1/DTD/svg11.dtd" >
<svg xmlns="http://www.w3.org/2000/svg" xmlns:xlink="http://www.w3.org/1999/xlink" version="1.1">
<metadata>
Created by FontForge 20201107 at Mon Apr 18 18:16:20 2022
 By Rahul Gajjar
Copyright 2021-2022 Indian Type Foundry. All rights reserved.
</metadata>
<defs>
<font id="ElevanceSansVariable-Regular" horiz-adv-x="400" >
  <font-face 
    font-family="Elevance Sans Variable"
    font-weight="500"
    font-stretch="normal"
    units-per-em="1000"
    panose-1="0 0 0 0 0 0 0 0 0 0"
    ascent="800"
    descent="-200"
    x-height="479"
    cap-height="641"
    bbox="-224 -209 1476 959"
    underline-thickness="50"
    underline-position="-125"
    unicode-range="U+0020-FB02"
  />
<missing-glyph horiz-adv-x="600" 
d="M516 0h-431v641h431v-641zM169 561v-481h263v481h-263z" />
    <glyph glyph-name="fi" unicode="fi" horiz-adv-x="575" 
d="M501 637l-46 -69q-25 23 -61 36t-75 13q-61 0 -93 -29.5t-32 -87.5v-500h-89v503q0 63 25.5 107t73 67t111.5 23q62 0 108.5 -17.5t77.5 -45.5zM30 400v79h458v-79h-458zM496 479v-479h-89v479h9h22.5h26.5h22h9z" />
    <glyph glyph-name="fl" unicode="fl" horiz-adv-x="575" 
d="M459 655l-45 -68q-17 13 -45 21.5t-63 8.5q-51 0 -81.5 -30.5t-30.5 -86.5v-500h-89v500q0 65 25 109.5t68.5 67.5t99.5 23q53 0 93 -12t68 -33zM30 400v79h278v-79h-278zM407 0v678h89v-678h-89z" />
    <glyph glyph-name=".notdef" horiz-adv-x="600" 
d="M516 0h-431v641h431v-641zM169 561v-481h263v481h-263z" />
    <glyph glyph-name="space" unicode=" " horiz-adv-x="227" 
 />
    <glyph glyph-name="exclam" unicode="!" horiz-adv-x="279" 
d="M104 207l-12 434h97l-12 -434h-11h-25.5h-25.5h-11zM139 -9q-25 0 -43.5 18t-18.5 43q0 26 18.5 44.5t43.5 18.5q26 0 44 -18.5t18 -44.5q0 -25 -18 -43t-44 -18z" />
    <glyph glyph-name="quotedbl" unicode="&#x22;" horiz-adv-x="317" 
d="M131 688l-13 -206h-62l-11 206h86zM272 688l-13 -206h-62l-11 206h86z" />
    <glyph glyph-name="numbersign" unicode="#" horiz-adv-x="589" 
d="M64 463h517l-13 -66h-517l2 10t4.5 23t4.5 23zM21 248h517l-13 -66h-517l2 10t4.5 23t4.5 23zM78 0l130 640h76l-130 -640h-76zM306 0l130 640h76l-130 -640h-76z" />
    <glyph glyph-name="dollar" unicode="$" horiz-adv-x="551" 
d="M324 564h-77v162h77v-162zM247 63h77v-148h-77v148zM154 11q-43 10 -115 57l39 76q29 -19 63.5 -32t70 -20.5t67.5 -7.5q39 0 70.5 11.5t49.5 33.5t18 55q0 30 -19.5 49t-51.5 30.5t-70 21t-76 21.5t-70 30.5t-51.5 49t-19.5 76.5q0 55 30 95.5t82 63t116 22.5
q62 0 113 -14.5t93 -44.5l-44 -71q-31 21 -75 33t-91 12q-38 0 -67 -12t-45 -33t-16 -48q0 -29 19.5 -48t51.5 -31t70 -22.5t76 -23t70 -31t51.5 -47t19.5 -72.5q0 -64 -33 -106.5t-87 -63.5t-119 -21q-78 0 -120 12z" />
    <glyph glyph-name="percent" unicode="%" horiz-adv-x="776" 
d="M205 0h-73l438 641h74zM189 333q-45 0 -82 21.5t-59 58t-22 80.5q0 45 20.5 81t57.5 57.5t85 21.5t85 -21.5t58 -57.5t21 -81q0 -44 -22 -80.5t-59 -58t-83 -21.5zM189 390q26 0 49.5 12.5t38 35.5t14.5 55q0 33 -15 56t-38 35t-49 12t-49 -12t-37.5 -35t-14.5 -56
q0 -32 14.5 -55.5t38 -35.5t48.5 -12zM587 -12q-48 0 -85 21.5t-58 58t-21 80.5q0 45 22 81t59.5 57.5t82.5 21.5t82 -21.5t59 -57.5t22 -81q0 -44 -20.5 -80.5t-57 -58t-85.5 -21.5zM586 45q26 0 49.5 12t38 35.5t14.5 55.5q0 33 -14.5 56t-38 35t-49.5 12t-49 -12.5
t-37.5 -35.5t-14.5 -55t15 -55.5t38 -35.5t48 -12z" />
    <glyph glyph-name="ampersand" unicode="&#x26;" horiz-adv-x="633" 
d="M598 42l-60 -58l-355 358q-37 38 -53.5 73.5t-16.5 73.5q0 45 23 82.5t63 59.5t92 22q49 0 88 -21.5t62 -57.5t23 -79q0 -60 -35 -104t-118 -78l-52 60q66 24 93 53t27 64q0 21 -11 40t-30.5 31t-46.5 12t-48 -12t-32.5 -31t-11.5 -41q0 -20 9 -43.5t38 -52.5zM266 -12
q-60 0 -111.5 22t-82.5 63t-31 99q0 49 23 85t63 61.5t91 41.5l38 -66q-35 -11 -64 -26.5t-46 -37t-17 -53.5q0 -35 19.5 -60t51.5 -37.5t71 -12.5q86 0 140 52t75 143l9 39l79 -15l-9 -38q-29 -123 -105 -191.5t-194 -68.5z" />
    <glyph glyph-name="quotesingle" unicode="'" horiz-adv-x="176" 
d="M131 688l-13 -206h-62l-11 206h86z" />
    <glyph glyph-name="parenleft" unicode="(" horiz-adv-x="319" 
d="M310 -100l-56 -51q-60 56 -105.5 122.5t-70.5 143t-25 161.5t25 161.5t70.5 143.5t105.5 122l56 -51q-52 -49 -90 -108.5t-58 -127t-20 -140.5t20 -140.5t58 -127t90 -108.5z" />
    <glyph glyph-name="parenright" unicode=")" horiz-adv-x="319" 
d="M65 -151l-56 51q53 49 90.5 108.5t57.5 127t20 140.5t-20 140.5t-57.5 127t-90.5 108.5l56 51q61 -55 106 -122t70 -143.5t25 -161.5t-25 -161.5t-70 -143t-106 -122.5z" />
    <glyph glyph-name="asterisk" unicode="*" horiz-adv-x="397" 
d="M257 397l-58 93l-59 -93l-58 42l69 85l-106 26l22 69l102 -41l-7 110h72l-7 -110l103 41l22 -69l-106 -26l69 -85z" />
    <glyph glyph-name="plus" unicode="+" horiz-adv-x="509" 
d="M297 536v-428h-85v428h85zM52 282v80h405v-80h-405z" />
    <glyph glyph-name="comma" unicode="," horiz-adv-x="205" 
d="M110 114q27 0 44.5 -17t17.5 -43q0 -15 -4.5 -28.5t-13.5 -29.5l-71 -124h-52l59 127q-19 7 -30 20.5t-11 34.5q0 26 18 43t43 17z" />
    <glyph glyph-name="hyphen" unicode="-" horiz-adv-x="306" 
d="M34 281h238v-77h-238v11.5v27v27v11.5z" />
    <glyph glyph-name="period" unicode="." horiz-adv-x="214" 
d="M121 -9q-25 0 -43 18t-18 43q0 26 18 44.5t43 18.5q26 0 44.5 -18.5t18.5 -44.5q0 -25 -18.5 -43t-44.5 -18z" />
    <glyph glyph-name="slash" unicode="/" horiz-adv-x="404" 
d="M15 0l282 641h9.5h23h27h23h9.5l-283 -641h-91z" />
    <glyph glyph-name="zero" unicode="0" horiz-adv-x="588" 
d="M295 -12q-69 0 -124 43t-86.5 118.5t-31.5 171.5t31 171t85 118t123 43q71 0 125.5 -43t86 -118t31.5 -171q1 -96 -30 -171.5t-85.5 -118.5t-124.5 -43zM294 71q45 0 79 32t53.5 88.5t19.5 129.5t-19.5 129t-54 88t-80.5 32q-44 0 -78 -32t-53 -88t-19 -129t19.5 -129.5
t53.5 -88.5t79 -32z" />
    <glyph glyph-name="one" unicode="1" horiz-adv-x="413" 
d="M296 0h-88v534l-115 -112l-53 59l167 160h89v-641z" />
    <glyph glyph-name="two" unicode="2" horiz-adv-x="492" 
d="M23 0v69l251 241q40 38 59.5 73t19.5 75q0 30 -15.5 55.5t-42.5 41t-64 15.5q-49 0 -84.5 -26t-58.5 -71l-70 45q19 37 48 67.5t71 49t98 18.5q63 0 109.5 -26.5t71.5 -70.5t25 -97q0 -35 -10 -66.5t-33 -63.5t-62 -69l-191 -181h303v-79h-425z" />
    <glyph glyph-name="three" unicode="3" horiz-adv-x="500" 
d="M225 -12q-73 0 -125 27t-87 77l65 58q32 -42 68 -60.5t82 -18.5q47 0 77.5 16.5t45.5 44.5t15 62q0 37 -16.5 65t-51.5 44t-93 16h-55v56l178 187h-281v79h392v-73l-173 -180q70 -10 111 -37t59.5 -67.5t18.5 -89.5q0 -56 -26 -103t-77 -75t-127 -28z" />
    <glyph glyph-name="four" unicode="4" horiz-adv-x="544" 
d="M336 0v529l8 112h78v-641h-86zM96 183l-70 32l318 426l9 -106zM26 215h493v-79h-493v8v20v23.5v19.5v8z" />
    <glyph glyph-name="five" unicode="5" horiz-adv-x="535" 
d="M253 70q45 0 76.5 17.5t47.5 47t16 64.5q0 36 -15 66t-46 48t-78 18q-46 0 -77 -10t-60 -29l-41 28l52 321h318v-79h-245l-31 -176q18 10 45 15.5t55 5.5q69 0 116 -28t71 -75.5t24 -105.5t-26.5 -106t-77 -76.5t-123.5 -28.5t-125 27.5t-87 76.5l65 59q32 -42 67.5 -61
t78.5 -19z" />
    <glyph glyph-name="six" unicode="6" horiz-adv-x="557" 
d="M283 -12q-65 0 -117.5 29.5t-82.5 80.5t-30 114q0 35 8 66.5t28.5 68.5t56.5 87l149 207h102l-176 -250l-9 16q21 12 38.5 15t32.5 3q69 0 120 -29.5t79 -77.5t28 -106q0 -63 -29.5 -114t-80.5 -80.5t-117 -29.5zM282 351q-40 0 -71.5 -18.5t-50 -49.5t-18.5 -71
t18.5 -72t50 -50.5t71.5 -18.5t71 18.5t49.5 50.5t18.5 72t-18.5 71t-49.5 49.5t-71 18.5z" />
    <glyph glyph-name="seven" unicode="7" horiz-adv-x="446" 
d="M169 0h-95l253 562h-312v79h407v-71z" />
    <glyph glyph-name="eight" unicode="8" horiz-adv-x="530" 
d="M264 -12q-63 0 -112.5 25t-78 69t-28.5 100q0 54 29 96.5t79 67t113 24.5t112.5 -24.5t78 -67t28.5 -96.5q0 -56 -29 -100t-78.5 -69t-113.5 -25zM266 64q37 0 66.5 16t46.5 44.5t17 63.5t-17 63t-46.5 44t-66.5 16q-38 0 -68 -16t-47 -44t-17 -63t17 -63.5t47 -44.5
t68 -16zM266 384q45 0 75 27.5t30 68.5q0 42 -30 69.5t-75 27.5q-46 0 -76.5 -27.5t-30.5 -69.5q0 -41 30.5 -68.5t76.5 -27.5zM266 326q-56 0 -100 21t-69 58t-25 84q0 48 25 85t68.5 58t98.5 21q56 0 100 -21t69 -58t25 -85q0 -47 -25 -84t-68 -58t-99 -21z" />
    <glyph glyph-name="nine" unicode="9" horiz-adv-x="557" 
d="M275 647q65 0 117 -30t82 -80.5t30 -113.5q0 -35 -8.5 -66.5t-28.5 -68t-56 -87.5l-149 -208h-102l176 250l9 -16q-20 -11 -38 -14.5t-32 -3.5q-68 0 -119.5 29.5t-79.5 78t-28 106.5q0 63 29.5 114t80.5 80.5t117 29.5zM275 283q40 0 72 18.5t50.5 50t18.5 71.5
t-18.5 71.5t-50.5 50t-72 18.5q-39 0 -70.5 -18.5t-50 -50t-18.5 -71.5t18.5 -71.5t50 -50t70.5 -18.5z" />
    <glyph glyph-name="colon" unicode=":" horiz-adv-x="214" 
d="M121 345q-25 0 -43 18.5t-18 43.5q0 26 18 44t43 18q26 0 44.5 -18t18.5 -44q0 -25 -18.5 -43.5t-44.5 -18.5zM121 -9q-25 0 -43 18t-18 43q0 26 18 44.5t43 18.5q26 0 44.5 -18.5t18.5 -44.5q0 -25 -18.5 -43t-44.5 -18z" />
    <glyph glyph-name="semicolon" unicode=";" horiz-adv-x="214" 
d="M121 345q-25 0 -43 18.5t-18 43.5q0 26 18 44t43 18q26 0 44.5 -18t18.5 -44q0 -25 -18.5 -43.5t-44.5 -18.5zM116 114q27 0 44.5 -17t17.5 -43q0 -15 -4.5 -28.5t-13.5 -29.5l-71 -124h-52l59 127q-19 7 -30 20.5t-11 34.5q0 26 18 43t43 17z" />
    <glyph glyph-name="less" unicode="&#x3c;" horiz-adv-x="525" 
d="M466 181v-88l-406 194v75l406 192v-87l-328 -152l2 18z" />
    <glyph glyph-name="equal" unicode="=" horiz-adv-x="509" 
d="M52 369v81h405v-81h-405zM52 194v81h405v-81h-405z" />
    <glyph glyph-name="greater" unicode="&#x3e;" horiz-adv-x="525" 
d="M60 181l326 152l2 -18l-328 152v87l406 -192v-75l-406 -194v88z" />
    <glyph glyph-name="question" unicode="?" horiz-adv-x="478" 
d="M219 287h-26l-22 63h24q48 0 80 17.5t48 45t16 56.5q0 33 -15.5 55.5t-40.5 33.5t-55 11q-34 0 -69.5 -15.5t-61.5 -49.5l-66 57q40 47 92.5 69.5t104.5 22.5t97 -21t73 -61.5t28 -99.5q0 -46 -23 -88t-69 -69t-115 -27zM218 -9q-25 0 -43 18t-18 43q0 26 18 44.5
t43 18.5q26 0 44.5 -18.5t18.5 -44.5q0 -25 -18.5 -43t-44.5 -18zM177 207l-6 143l83 -6l-4 -137h-11h-25.5h-25.5h-11z" />
    <glyph glyph-name="at" unicode="@" horiz-adv-x="848" 
d="M387 85q-40 0 -73 21t-52.5 60t-19.5 92q0 58 24 104.5t64 74t88 27.5q65 0 94.5 -47t29.5 -131q0 -59 -18 -104.5t-52.5 -71t-84.5 -25.5zM401 152q36 0 61.5 19t39 49.5t13.5 66.5q0 47 -23.5 78.5t-64.5 31.5q-32 0 -58 -17.5t-41 -47.5t-15 -68q0 -32 12 -57.5
t32 -40t44 -14.5zM429 -106q-79 0 -148.5 30t-122.5 83t-83 122.5t-30 148.5t30 148.5t83 122.5t122.5 83t148.5 30q80 0 148 -28t118.5 -77t79 -112.5t28.5 -134.5q0 -58 -19 -109.5t-57 -83t-94 -31.5q-32 0 -60 13.5t-44.5 45.5t-14.5 86l11 222h69l-12 -209
q-2 -51 14 -72t43 -21q31 0 52 21t32 57t11 80q0 58 -23 109.5t-64 91.5t-96.5 63t-121.5 23t-123 -25t-100 -68.5t-67.5 -101t-24.5 -123.5q0 -65 24.5 -122.5t67.5 -101.5t100 -69t123 -25q53 0 87 9.5t65 28.5l29 -58q-31 -20 -76.5 -33t-104.5 -13z" />
    <glyph glyph-name="A" unicode="A" horiz-adv-x="664" 
d="M508 164h-346v81h346v-81zM548 0l-231 574h24l-231 -574h-95l264 641h106l264 -641h-101z" />
    <glyph glyph-name="B" unicode="B" horiz-adv-x="598" 
d="M85 0v640h9h22.5h27h22.5h9v-640h-90zM440 331q32 -9 59 -29.5t43.5 -51.5t16.5 -73q0 -47 -25 -87.5t-70.5 -65t-108.5 -24.5h-268v81h257q34 0 61.5 13.5t43.5 37.5t16 53q0 30 -16 53.5t-43 37t-61 13.5h-242v76h227q33 0 58.5 13t40.5 35t15 49q0 28 -15 50t-41 35
t-59 13h-242v80h252q56 0 101 -22.5t71 -61t26 -88.5q0 -38 -15.5 -65.5t-37.5 -45t-44 -26.5z" />
    <glyph glyph-name="C" unicode="C" horiz-adv-x="628" 
d="M605 573l-60 -70q-32 27 -73.5 44t-95.5 17q-48 0 -90 -19t-73.5 -52.5t-49.5 -77.5t-18 -95q0 -50 18 -94t50.5 -77.5t76 -52.5t94.5 -19q47 0 89 15.5t73 43.5l59 -66q-44 -43 -100 -62.5t-127 -19.5q-70 0 -129.5 26t-104.5 71.5t-70 105.5t-25 129t25.5 129.5t70 106
t104 71.5t126.5 26q77 0 132.5 -21t97.5 -59z" />
    <glyph glyph-name="D" unicode="D" horiz-adv-x="691" 
d="M85 0v640h196q80 0 146 -23t114.5 -66t74.5 -101.5t26 -129.5t-25.5 -129.5t-72.5 -101.5t-111.5 -66t-142.5 -23h-205zM283 555h-106v-470h106q80 0 139 29t91.5 82t32.5 124t-32.5 124t-91.5 82t-139 29z" />
    <glyph glyph-name="E" unicode="E" horiz-adv-x="529" 
d="M85 0v641h407v-85h-317v-192h277v-85h-277v-194h317v-85h-407z" />
    <glyph glyph-name="F" unicode="F" horiz-adv-x="517" 
d="M85 0h90v269h266v85h-266v201h306v85h-396v-640z" />
    <glyph glyph-name="G" unicode="G" horiz-adv-x="672" 
d="M383 -12q-75 0 -136.5 25.5t-105.5 71t-68 106t-24 129.5q0 70 26 130.5t71.5 106t105.5 71t127 25.5q77 0 132 -21t97 -59l-58 -67q-33 27 -75 43.5t-96 16.5q-48 0 -90 -18.5t-74.5 -52t-51 -78t-18.5 -97.5q0 -69 30.5 -125t86.5 -89.5t132 -33.5q52 0 94.5 14.5
t77.5 39.5l55 -68q-51 -37 -108 -53.5t-130 -16.5zM621 311v-253l-87 41v212h87zM621 263h-246v79h246v-79z" />
    <glyph glyph-name="H" unicode="H" horiz-adv-x="707" 
d="M532 0v282h-357v-282h-90v641h90v-274h357v274h90v-641h-90z" />
    <glyph glyph-name="I" unicode="I" horiz-adv-x="260" 
d="M85 0v641h9h22.5h27h22.5h9v-641h-90z" />
    <glyph glyph-name="J" unicode="J" horiz-adv-x="438" 
d="M15 62l62 63q17 -22 40.5 -35t52.5 -13q48 0 74.5 30t26.5 91v443h90v-441q0 -73 -25.5 -120t-68 -69.5t-95.5 -22.5q-51 0 -93 21t-64 53z" />
    <glyph glyph-name="K" unicode="K" horiz-adv-x="589" 
d="M579 0h-119l-294 316l290 325h112l-287 -321zM175 0h-90v641h90v-641z" />
    <glyph glyph-name="L" unicode="L" horiz-adv-x="522" 
d="M85 0v641h90v-556h332v-85h-422z" />
    <glyph glyph-name="M" unicode="M" horiz-adv-x="827" 
d="M414 126l-257 399l18 10v-535h-90v641h103l249 -389l-31 10l244 379h92v-641h-90v523l18 -8z" />
    <glyph glyph-name="N" unicode="N" horiz-adv-x="707" 
d="M527 0l-372 518l17 5v-523h-90v641h98l372 -521l-17 -5v526h90v-641h-98z" />
    <glyph glyph-name="O" unicode="O" horiz-adv-x="754" 
d="M377 653q68 0 127.5 -26t104.5 -72t70.5 -106.5t25.5 -129.5t-25.5 -129t-70.5 -105.5t-104.5 -71t-127.5 -25.5t-127.5 26t-104.5 71.5t-70.5 105.5t-25.5 129t25.5 129.5t70.5 106t104.5 71.5t127.5 26zM377 77q48 0 90.5 19t74.5 52t50 77t18 94q0 51 -18 95t-50 78
t-74.5 53t-90.5 19t-90 -19t-74 -52.5t-50 -77.5t-18 -95q0 -50 18 -94t50 -77.5t74 -52.5t90 -19z" />
    <glyph glyph-name="P" unicode="P" horiz-adv-x="594" 
d="M85 0v641h224q74 0 129 -25t85.5 -70.5t30.5 -107.5q0 -61 -30.5 -107t-86 -71.5t-130.5 -25.5h-132v-234h-90zM317 560h-142v-245h142q64 0 103.5 34t39.5 89q0 56 -39.5 89t-103.5 33z" />
    <glyph glyph-name="Q" unicode="Q" horiz-adv-x="754" 
d="M377 -12q-68 0 -127.5 26t-104.5 71.5t-70.5 105.5t-25.5 129t25.5 129.5t70.5 106t104.5 71.5t127.5 26t127.5 -26t104.5 -72t70.5 -106.5t25.5 -129.5t-25.5 -129t-70.5 -105.5t-104.5 -71t-127.5 -25.5zM377 77q48 0 90.5 19t74.5 52t50 77t18 94q0 51 -18 95t-50 78
t-74.5 53t-90.5 19t-90 -19t-74 -52.5t-50 -77.5t-18 -95q0 -50 18 -94t50 -77.5t74 -52.5t90 -19zM655 -58l-263 263l62 62l263 -263z" />
    <glyph glyph-name="R" unicode="R" horiz-adv-x="603" 
d="M85 0v641h224q71 0 123.5 -24t81.5 -67t29 -102q0 -58 -29.5 -102t-82.5 -68t-124 -24h-132v-254h-90zM317 560h-142v-225h142q59 0 95 31t36 82t-36 81.5t-95 30.5zM276 294h100l178 -294h-105z" />
    <glyph glyph-name="S" unicode="S" horiz-adv-x="551" 
d="M153 -1q-44 12 -115 58l43 78q29 -18 62.5 -32t68 -21.5t67.5 -7.5q39 0 70.5 11t49.5 33t18 55q0 29 -19.5 48t-51.5 32t-70 24t-76 25t-70 35.5t-51.5 54t-19.5 81.5q0 55 30 95.5t81.5 63t115.5 22.5q62 0 113.5 -15.5t92.5 -44.5l-45 -74q-31 20 -74.5 34.5
t-90.5 14.5q-37 0 -66 -12t-45 -33.5t-16 -48.5q0 -31 19.5 -51.5t51 -34t70 -25t76.5 -25t69.5 -33.5t51 -50.5t19.5 -76.5q0 -64 -32.5 -106.5t-87 -63.5t-119.5 -21q-38 0 -68 3t-52 8z" />
    <glyph glyph-name="T" unicode="T" horiz-adv-x="516" 
d="M506 556h-203v-556h-91v556h-203v85h497v-85z" />
    <glyph glyph-name="U" unicode="U" horiz-adv-x="656" 
d="M77 250v391h90v-391q0 -52 20.5 -91t56.5 -60.5t84 -21.5q49 0 84.5 21.5t55.5 60.5t20 91v391h91v-391q0 -79 -31.5 -138t-88 -91.5t-132.5 -32.5q-75 0 -131.5 32.5t-87.5 91.5t-31 138z" />
    <glyph glyph-name="V" unicode="V" horiz-adv-x="629" 
d="M118 641l211 -574h-24l212 574h94l-244 -641h-106l-244 641h101z" />
    <glyph glyph-name="W" unicode="W" horiz-adv-x="985" 
d="M864 641h96l-206 -641h-112l-160 559h18l-161 -559h-108l-206 641h100l169 -562h-17l161 562h113l162 -562h-18z" />
    <glyph glyph-name="X" unicode="X" horiz-adv-x="595" 
d="M144 641l433 -641h-112l-436 641h115zM253 344l51 -75l-185 -269h-102zM566 641l-255 -372l-50 75l204 297h101z" />
    <glyph glyph-name="Y" unicode="Y" horiz-adv-x="587" 
d="M248 0v246h9h23h27.5h22.5h9v-246h-91zM480 641h97l-238 -425h-91l-239 425h102l197 -354h-27z" />
    <glyph glyph-name="Z" unicode="Z" horiz-adv-x="556" 
d="M37 85l362 471h-357v85h473v-85l-362 -471h366v-85h-482v85z" />
    <glyph glyph-name="bracketleft" unicode="[" horiz-adv-x="321" 
d="M89 -130v818h207v-79h-118v-660h118v-79h-207z" />
    <glyph glyph-name="backslash" unicode="\" horiz-adv-x="404" 
d="M389 0h-92l-282 641h9h22.5h27.5h23h9z" />
    <glyph glyph-name="bracketright" unicode="]" horiz-adv-x="321" 
d="M232 -130h-207v79h118v660h-118v79h207v-818z" />
    <glyph glyph-name="asciicircum" unicode="^" horiz-adv-x="509" 
d="M220 641l-160 -320h81l116 238l112 -238h81l-156 320h-74z" />
    <glyph glyph-name="underscore" unicode="_" horiz-adv-x="420" 
d="M-6 -20h432v-63h-432v9.5v22v22v9.5z" />
    <glyph glyph-name="grave" unicode="`" horiz-adv-x="388" 
d="M147 688l98 -156h-8h-20h-24.5h-20.5h-8l-123 156h106z" />
    <glyph glyph-name="a" unicode="a" horiz-adv-x="613" 
d="M445 0v479h89v-479h-9h-22h-26.5h-22.5h-9zM277 -12q-65 0 -117.5 33t-83.5 90t-31 129q0 71 30 128t82.5 90t119.5 33q65 0 111.5 -33t71.5 -90t25 -128q0 -68 -25 -125.5t-71.5 -92t-111.5 -34.5zM290 71q45 0 80 23t55 61.5t20 84.5q0 47 -20 85t-55 60.5t-80 22.5
t-80.5 -22.5t-55.5 -60.5t-20 -85q0 -46 20 -84.5t55.5 -61.5t80.5 -23z" />
    <glyph glyph-name="b" unicode="b" horiz-adv-x="613" 
d="M336 491q65 0 117.5 -33t83.5 -89.5t31 -129.5q0 -71 -30 -128t-82.5 -90t-119.5 -33q-64 0 -111 33t-72 90t-25 128q0 68 25 125.5t72 92t111 34.5zM80 688h88v-688h-88v688zM325 408q-45 0 -80.5 -23t-56 -61t-20.5 -85t20.5 -85t56 -60.5t80.5 -22.5t80 22.5t55 60.5
t20 85t-20 85t-55 61t-80 23z" />
    <glyph glyph-name="c" unicode="c" horiz-adv-x="487" 
d="M421 361q-25 23 -56 35t-71 12q-48 0 -84 -22.5t-56 -60.5t-20 -85q0 -46 20.5 -84.5t56.5 -61.5t82 -23q40 0 73 12.5t57 36.5l46 -65q-28 -31 -75.5 -49t-102.5 -18q-70 0 -125.5 34t-88 91.5t-32.5 126.5q0 70 32.5 126.5t88.5 90.5t126 34q57 0 103.5 -18t76.5 -49z
" />
    <glyph glyph-name="d" unicode="d" horiz-adv-x="613" 
d="M277 -12q-65 0 -117.5 33t-83.5 90t-31 129q0 71 30 128t82.5 90t119.5 33q65 0 111.5 -33t71.5 -90t25 -128q0 -68 -25 -125.5t-71.5 -92t-111.5 -34.5zM290 71q45 0 80 23t55 61.5t20 84.5q0 47 -20 85t-55 60.5t-80 22.5t-80.5 -22.5t-55.5 -60.5t-20 -85
q0 -46 20 -84.5t55.5 -61.5t80.5 -23zM445 0v688h89v-688h-44h-45z" />
    <glyph glyph-name="e" unicode="e" horiz-adv-x="553" 
d="M296 -12q-73 0 -129.5 34t-89 91.5t-32.5 126.5q0 70 31 126.5t84.5 90.5t121.5 34q67 0 120.5 -32.5t84.5 -87t31 -122.5q0 -9 -0.5 -20.5t-2.5 -16.5h-411v73h344l-19 -29q-6 76 -46 117.5t-100 41.5q-44 0 -78 -23.5t-52.5 -63t-18.5 -88.5q0 -48 20.5 -87.5t58 -62.5
t86.5 -23q41 0 75.5 14.5t58.5 38.5l47 -61q-29 -31 -77.5 -51t-106.5 -20z" />
    <glyph glyph-name="f" unicode="f" horiz-adv-x="346" 
d="M379 654l-46 -65q-11 12 -29.5 20t-38.5 8q-34 0 -52.5 -21.5t-18.5 -62.5v-533h-89v534q0 80 42 123t111 43q42 0 71.5 -12t49.5 -34zM30 400v79h291v-79h-291z" />
    <glyph glyph-name="g" unicode="g" horiz-adv-x="609" 
d="M128 -77q24 -18 63 -34t91 -16q75 0 116.5 40t41.5 116v450h89v-445q0 -66 -19.5 -112.5t-53 -75t-77.5 -41.5t-93 -13q-65 0 -117 16t-87 45zM273 1q-64 0 -115.5 32t-82 87.5t-30.5 125.5t30.5 124.5t82 86.5t115.5 32q65 0 111 -31.5t71 -86.5t25 -124q0 -66 -25 -122
t-71.5 -90t-110.5 -34zM288 84q45 0 79 22t53.5 59t19.5 82t-19.5 81.5t-53.5 58t-79 21.5t-79.5 -21.5t-54.5 -58t-20 -81.5t20 -82t54.5 -59t79.5 -22z" />
    <glyph glyph-name="h" unicode="h" horiz-adv-x="570" 
d="M80 0v688h88v-688h-88zM168 279l-21 51q7 73 51 117t115 44q84 0 134.5 -53.5t50.5 -144.5v-293h-88v279q0 59 -32.5 94t-88.5 35t-88.5 -35t-32.5 -94z" />
    <glyph glyph-name="i" unicode="i" horiz-adv-x="248" 
d="M168 0h-88v479h9h22h26h22h9v-479zM124 562q-23 0 -39 16.5t-16 38.5q0 23 16 39t39 16t39 -16t16 -39q0 -22 -16 -38.5t-39 -16.5z" />
    <glyph glyph-name="j" unicode="j" horiz-adv-x="248" 
d="M20 -208q-34 0 -59.5 10t-43.5 26l42 66q11 -9 25 -15t33 -6q29 0 46 21t17 61v524h88v-519q0 -78 -37.5 -123t-110.5 -45zM124 562q-23 0 -39 16.5t-16 38.5q0 23 16 39t39 16t39 -16t16 -39q0 -22 -16 -38.5t-39 -16.5z" />
    <glyph glyph-name="k" unicode="k" horiz-adv-x="521" 
d="M168 0h-88v688h88v-688zM522 0h-116l-255 254l242 225h112l-241 -224z" />
    <glyph glyph-name="l" unicode="l" horiz-adv-x="284" 
d="M168 688v-522l-88 -8v530h88zM236 77l10 -78q-11 -4 -24.5 -6.5t-24.5 -2.5q-30 0 -56.5 14t-43.5 45t-17 81v78h88v-79q0 -31 14.5 -44t31.5 -13q10 0 22 5z" />
    <glyph glyph-name="m" unicode="m" horiz-adv-x="877" 
d="M806 0h-89v279q0 59 -30.5 94t-84.5 35q-53 0 -84 -35t-31 -94l-27 69q12 61 53 102t110 41q83 0 133 -53t50 -145v-293zM168 0h-88v479h9h22h26h22h9v-479zM487 0h-89v279q0 59 -30.5 94t-83.5 35q-54 0 -85 -35t-31 -94l-21 47q7 72 49.5 118.5t112.5 46.5
q81 0 129.5 -53.5t48.5 -144.5v-293z" />
    <glyph glyph-name="n" unicode="n" horiz-adv-x="570" 
d="M168 279l-21 51q7 73 51 117t115 44q84 0 134.5 -53.5t50.5 -144.5v-293h-88v279q0 59 -32.5 94t-88.5 35t-88.5 -35t-32.5 -94zM80 0v479h9h22h26h22h9v-479h-88z" />
    <glyph glyph-name="o" unicode="o" horiz-adv-x="579" 
d="M289 -12q-68 0 -123.5 34t-88 91.5t-32.5 126.5q0 70 32.5 126.5t88 90.5t123.5 34q69 0 124.5 -34t88 -90.5t32.5 -126.5q0 -69 -32.5 -126.5t-88 -91.5t-124.5 -34zM290 71q45 0 80 23t55 61.5t20 84.5q0 47 -20 85t-55 60.5t-80 22.5t-80.5 -22.5t-55.5 -60.5t-20 -85
q0 -46 20 -84.5t55.5 -61.5t80.5 -23z" />
    <glyph glyph-name="p" unicode="p" horiz-adv-x="613" 
d="M336 -12q-64 0 -111 33t-72 90t-25 128q0 68 25 125.5t72 92t111 34.5q65 0 117.5 -33t83.5 -89.5t31 -129.5q0 -71 -30 -128t-82.5 -90t-119.5 -33zM168 -196h-88v675h88v-675zM325 71q45 0 80 22.5t55 60.5t20 85t-20 85t-55 61t-80 23t-80.5 -23t-56 -61t-20.5 -85
t20.5 -85t56 -60.5t80.5 -22.5z" />
    <glyph glyph-name="q" unicode="q" horiz-adv-x="613" 
d="M277 -12q-65 0 -117.5 33t-83.5 90t-31 129q0 71 30 128t82.5 90t119.5 33q65 0 111.5 -33t71.5 -90t25 -128q0 -68 -25 -125.5t-71.5 -92t-111.5 -34.5zM290 71q45 0 80 23t55 61.5t20 84.5q0 47 -20 85t-55 60.5t-80 22.5t-80.5 -22.5t-55.5 -60.5t-20 -85
q0 -46 20 -84.5t55.5 -61.5t80.5 -23zM534 -196h-89v675h89v-675z" />
    <glyph glyph-name="r" unicode="r" horiz-adv-x="376" 
d="M80 0v479h88v-479h-88zM168 276l-20 59q8 71 44.5 113.5t96.5 42.5q48 0 73 -21l-37 -83q-12 8 -28.5 13.5t-33.5 5.5q-43 0 -69 -35t-26 -95z" />
    <glyph glyph-name="s" unicode="s" horiz-adv-x="445" 
d="M215 -12q-53 0 -100 13t-84 35l34 73q41 -21 78 -32.5t78 -11.5q50 0 74.5 18t24.5 46q0 27 -19.5 42t-50.5 24.5t-66 19t-66 25t-50.5 43.5t-19.5 74q0 36 21 66.5t61 49t98 18.5q49 0 89 -11t79 -30l-35 -73q-25 14 -59.5 25t-69.5 11q-44 0 -69 -14.5t-25 -40.5
q0 -27 19.5 -42.5t50.5 -25t65.5 -19t65 -25t50 -42.5t19.5 -73q0 -41 -23 -73.5t-66 -51t-104 -18.5z" />
    <glyph glyph-name="t" unicode="t" horiz-adv-x="379" 
d="M26 400v79h79v119h89v-119h136v-79h-135v-253q0 -76 66 -76q18 0 35 6.5t27 18.5l41 -67q-17 -16 -46 -28.5t-69 -12.5q-67 0 -105.5 39.5t-38.5 116.5v256h-79z" />
    <glyph glyph-name="u" unicode="u" horiz-adv-x="570" 
d="M161 479v-265q0 -63 34 -101.5t89 -38.5q56 0 90.5 38.5t34.5 101.5v265h89v-272q0 -65 -26.5 -113.5t-74.5 -75.5t-113 -27q-64 0 -111.5 27t-74 75.5t-26.5 113.5v272h89z" />
    <glyph glyph-name="v" unicode="v" horiz-adv-x="507" 
d="M311 0h-115l-181 479h98l143 -399l145 399h91z" />
    <glyph glyph-name="w" unicode="w" horiz-adv-x="796" 
d="M278 0h-101l-154 479h95l111 -380l120 380h97l121 -381l112 381h95l-154 -479h-110l-117 366z" />
    <glyph glyph-name="x" unicode="x" horiz-adv-x="508" 
d="M383 0l-360 479h110l360 -479h-110zM272 197l-54 62l168 220h100zM15 0l196 259l54 -62l-150 -197h-100z" />
    <glyph glyph-name="y" unicode="y" horiz-adv-x="507" 
d="M105 479l192 -445l-64 -55l-224 500h96zM211 -47l191 526h90l-207 -557q-24 -65 -61.5 -97.5t-93.5 -32.5q-31 0 -61.5 12t-53.5 32l41 69q17 -15 36 -22.5t40 -7.5q26 0 44.5 17.5t34.5 60.5z" />
    <glyph glyph-name="z" unicode="z" horiz-adv-x="475" 
d="M40 79l274 321h-267v79h381v-79l-274 -321h281v-79h-395v79z" />
    <glyph glyph-name="braceleft" unicode="{" horiz-adv-x="335" 
d="M32 240v78q47 0 64 19.5t17 62.5v152q0 58 34 97t108 39h55v-79h-36q-72 0 -72 -72v-153q0 -52 -22.5 -76.5t-59.5 -28.5q37 -4 59.5 -28.5t22.5 -76.5v-153q0 -72 72 -72h36v-79h-55q-74 0 -108 39t-34 97v152q0 44 -17 63t-64 19z" />
    <glyph glyph-name="bar" unicode="|" horiz-adv-x="264" 
d="M175 -196h-86v884h86v-884z" />
    <glyph glyph-name="braceright" unicode="}" horiz-adv-x="335" 
d="M303 240q-46 0 -63.5 -19t-17.5 -63v-152q0 -58 -34 -97t-108 -39h-55v79h36q72 0 72 72v153q0 52 22.5 76.5t59.5 28.5q-37 4 -59.5 28.5t-22.5 76.5v153q0 72 -72 72h-36v79h55q74 0 108 -39t34 -97v-152q0 -43 17.5 -62.5t63.5 -19.5v-78z" />
    <glyph glyph-name="asciitilde" unicode="~" horiz-adv-x="509" 
d="M52 269v84q20 13 47.5 25t60.5 12q32 0 55 -8t43.5 -18t42 -18t48.5 -8q30 0 58.5 8t49.5 23v-83q-21 -13 -47.5 -21.5t-58.5 -8.5q-31 0 -54.5 8t-44.5 18t-42.5 18t-48.5 8q-39 0 -65.5 -11.5t-43.5 -27.5z" />
    <glyph glyph-name="exclamdown" unicode="&#xa1;" horiz-adv-x="279" 
d="M187 -159h-97l12 434h11h25.5h25.5h11zM140 367q-25 0 -44 18.5t-19 44.5q0 25 19 43t44 18q26 0 43.5 -18t17.5 -43q0 -26 -17.5 -44.5t-43.5 -18.5z" />
    <glyph glyph-name="cent" unicode="&#xa2;" horiz-adv-x="498" 
d="M246 125l77 2v-139h-77v137zM323 513h-77v134h11.5h27h27h11.5v-134zM421 439q-25 23 -56 35t-71 12q-48 0 -84 -22.5t-56 -60.5t-20 -85q0 -46 20.5 -84.5t56.5 -61.5t82 -23q40 0 73 12.5t57 36.5l46 -65q-28 -31 -75.5 -49t-102.5 -18q-70 0 -125.5 34t-88 91.5
t-32.5 126.5q0 70 32.5 126.5t88.5 90.5t126 34q57 0 103.5 -18t76.5 -49z" />
    <glyph glyph-name="sterling" unicode="&#xa3;" horiz-adv-x="546" 
d="M53 81h462v-81h-462v81zM69 338h374v-63h-374v9.5v22v22v9.5zM180 81h-101q32 0 45 19.5t13 56.5v294q0 60 23.5 105.5t68.5 71.5t107 26q45 0 78.5 -11.5t57.5 -31t40 -43.5l-56 -57q-22 29 -51 44.5t-65 15.5q-37 0 -62.5 -16t-38.5 -44.5t-13 -64.5v-292
q0 -34 -13.5 -51.5t-32.5 -21.5z" />
    <glyph glyph-name="currency" unicode="&#xa4;" horiz-adv-x="551" 
d="M275 85q-60 0 -109 30t-78 80.5t-29 110.5q0 61 29 111t78 79.5t109 29.5q61 0 109.5 -29.5t77 -79.5t28.5 -111q0 -60 -28.5 -110.5t-77 -80.5t-109.5 -30zM176 153l-94 -91l-57 57l94 92zM526 119l-56 -57l-95 91l58 58zM275 163q39 0 69.5 19.5t48.5 52t18 71.5
q0 40 -18 72t-48.5 51.5t-69.5 19.5t-70 -19.5t-49 -51.5t-18 -72q0 -39 18 -71.5t49 -52t70 -19.5zM176 458l-57 -57l-94 91l57 58zM526 492l-93 -91l-58 57l95 92z" />
    <glyph glyph-name="yen" unicode="&#xa5;" horiz-adv-x="587" 
d="M339 217h-91l-239 424h102l197 -364h-27l199 364h97zM339 0h-91v246h9h23h27.5h22.5h9v-246zM516 186h-445v9.5v22v22v9.5h445v-63zM218 341h-147v9.5v22v22v9.5h116zM516 341h-155l35 63h120v-63z" />
    <glyph glyph-name="brokenbar" unicode="&#xa6;" horiz-adv-x="264" 
d="M175 688v-365h-86v365h8.5h21.5h26h21.5h8.5zM175 169v-365h-86v365h8.5h21.5h26h21.5h8.5z" />
    <glyph glyph-name="section" unicode="&#xa7;" horiz-adv-x="677" 
d="M177 389l66 -43q-29 -10 -46 -30t-17 -47q0 -30 21 -49.5t56 -32.5t76 -24.5t82.5 -24.5t76.5 -32.5t56 -49.5t21 -75q0 -56 -29 -99t-81.5 -66.5t-123.5 -23.5q-60 0 -107 14.5t-80.5 39t-55.5 55.5l65 61q32 -42 78 -63.5t103 -21.5q65 0 100 26.5t35 69.5
q0 31 -21 51.5t-56 34.5t-76 25t-82.5 24.5t-76.5 33t-56 49.5t-21 75q0 37 23.5 70.5t69.5 52.5zM559 554l-63 -62q-22 31 -65.5 53.5t-97.5 22.5q-55 0 -88.5 -23t-33.5 -61q0 -28 21 -46.5t56 -31.5t76 -24t82.5 -25t76.5 -34.5t56 -51.5t21 -78q0 -45 -26.5 -80.5
t-74.5 -56.5l-51 56q26 11 41 31.5t15 45.5q0 32 -21 53t-56 35t-76 25.5t-82.5 25t-76.5 32t-56 47.5t-21 72q0 52 28.5 91t79 61t116.5 22q75 0 133 -29t87 -70z" />
    <glyph glyph-name="copyright" unicode="&#xa9;" horiz-adv-x="819" 
d="M410 683q74 0 139.5 -28t115.5 -78t78 -115.5t28 -140.5t-28 -140t-78 -115t-115.5 -78t-139.5 -28q-75 0 -140.5 28t-115.5 78t-78 115t-28 140t28 140.5t78 115.5t115.5 78t140.5 28zM410 625q-62 0 -116.5 -23.5t-96 -65.5t-65 -96.5t-23.5 -117.5t23.5 -117.5t65 -96
t96 -65t116.5 -23.5t117 23.5t96.5 65t65 96t23.5 117.5t-23.5 117.5t-65 96.5t-96.5 65.5t-117 23.5zM565 476l-43 -53q-22 21 -48 31.5t-61 10.5q-39 0 -70.5 -19.5t-50 -52t-18.5 -72.5q0 -39 18.5 -71t50.5 -51.5t74 -19.5q33 0 60.5 11t49.5 32l39 -53
q-29 -30 -67.5 -45t-84.5 -15q-60 0 -108.5 28.5t-77 77t-28.5 106.5q0 59 28 107.5t76 77.5t106 29q50 0 87.5 -14.5t67.5 -44.5z" />
    <glyph glyph-name="guillemotleft" unicode="&#xab;" horiz-adv-x="510" 
d="M38 245l185 185l48 -48l-137 -137l137 -138l-48 -47zM239 245l186 185l47 -48l-137 -137l137 -138l-47 -47z" />
    <glyph glyph-name="registered" unicode="&#xae;" horiz-adv-x="530" 
d="M266 714q50 0 92.5 -19t75 -52t50.5 -76.5t18 -93.5q0 -51 -18 -94.5t-50 -76t-75 -51t-93 -18.5t-93 18.5t-75.5 52t-51 77t-18.5 92.5q0 50 18.5 93.5t51 76.5t75.5 52t93 19zM266 664q-52 0 -94 -26t-67 -69t-25 -96q0 -52 25 -95t67 -69t94 -26q53 0 95 25t66.5 68.5
t24.5 96.5t-25 96t-67 69t-94 26zM172 352v246h101q23 0 45 -6.5t36 -22t14 -44.5q0 -28 -15 -44t-37 -22t-44 -6h-42v-101h-58zM268 553h-39v-59h39q18 0 29.5 6t11.5 24q0 17 -12 23t-29 6zM244 461h61l75 -109h-65z" />
    <glyph glyph-name="degree" unicode="&#xb0;" horiz-adv-x="355" 
d="M176 325q-46 0 -84 22t-60.5 59t-22.5 82q0 46 21.5 83t59.5 59.5t87 22.5q52 0 89.5 -22.5t58 -59.5t20.5 -83q0 -45 -22 -82t-60 -59t-87 -22zM177 384q44 0 73.5 29t29.5 75q0 50 -31 77.5t-71 27.5q-26 0 -50 -12.5t-38.5 -36t-14.5 -56.5q0 -32 14.5 -55.5t38 -36
t49.5 -12.5z" />
    <glyph glyph-name="plusminus" unicode="&#xb1;" horiz-adv-x="509" 
d="M297 571v-410h-85v410h85zM52 326v80h405v-80h-405zM52 0v81h405v-81h-405z" />
    <glyph glyph-name="twosuperior" unicode="&#xb2;" horiz-adv-x="286" 
d="M31 321v50l120 103q22 19 30.5 34.5t8.5 32.5q0 20 -14 35t-38 15t-40.5 -12.5t-27.5 -35.5l-45 31q14 29 42.5 51.5t77.5 22.5q50 0 79.5 -29.5t29.5 -69.5q0 -28 -13 -53.5t-50 -53.5l-77 -68h141v-53h-224z" />
    <glyph glyph-name="threesuperior" unicode="&#xb3;" horiz-adv-x="286" 
d="M136 315q-39 0 -66 13.5t-44 37.5l42 41q14 -18 30 -27t38 -9q29 0 44 15t15 37q0 24 -17.5 39t-53.5 15h-30v30l84 80h-134v54h206v-46l-86 -80q50 -7 72 -32t22 -62q0 -43 -31 -74.5t-91 -31.5z" />
    <glyph glyph-name="paragraph" unicode="&#xb6;" horiz-adv-x="553" 
d="M468 641v-837h-67v837h67zM344 641v-837h-92v815zM269 641h199v-79h-180v-327h-10q-73 0 -126 27t-81 74.5t-28 106.5q0 90 60 144t166 54z" />
    <glyph glyph-name="onesuperior" unicode="&#xb9;" horiz-adv-x="286" 
d="M186 321h-66v246l-52 -50l-37 42l87 82h68v-320z" />
    <glyph glyph-name="guillemotright" unicode="&#xbb;" horiz-adv-x="510" 
d="M239 382l48 48l185 -185l-185 -185l-48 47l137 138zM38 382l47 48l186 -185l-186 -185l-47 47l137 138z" />
    <glyph glyph-name="onequarter" unicode="&#xbc;" horiz-adv-x="660" 
d="M186 321h-66v246l-52 -50l-37 42l87 82h68v-320zM86 0l440 641h72l-437 -641h-75zM540 0v259v61h60v-320h-60zM433 101l-48 14l155 205l15 -57zM385 115h259v-57h-259v8.5v20v20v8.5z" />
    <glyph glyph-name="onehalf" unicode="&#xbd;" horiz-adv-x="660" 
d="M186 321h-66v246l-52 -50l-37 42l87 82h68v-320zM62 0l440 641h72l-437 -641h-75zM405 0v50l120 103q22 19 30.5 34.5t8.5 32.5q0 20 -14 35t-38 15t-40.5 -12.5t-27.5 -35.5l-45 31q14 29 42.5 51.5t77.5 22.5q50 0 79.5 -29.5t29.5 -69.5q0 -28 -13 -53.5t-50 -53.5
l-77 -68h141v-53h-224z" />
    <glyph glyph-name="threequarters" unicode="&#xbe;" horiz-adv-x="660" 
d="M136 315q-39 0 -66 13.5t-44 37.5l42 41q14 -18 30 -27t38 -9q29 0 44 15t15 37q0 24 -17.5 39t-53.5 15h-30v30l84 80h-134v54h206v-46l-86 -80q50 -7 72 -32t22 -62q0 -43 -31 -74.5t-91 -31.5zM98 0l440 641h72l-437 -641h-75zM540 0v259v61h60v-320h-60zM433 101
l-48 14l155 205l15 -57zM385 115h259v-57h-259v8.5v20v20v8.5z" />
    <glyph glyph-name="multiply" unicode="&#xd7;" horiz-adv-x="509" 
d="M133 503l303 -302l-60 -60l-302 302zM131 140l-58 58l305 306l59 -59z" />
    <glyph glyph-name="divide" unicode="&#xf7;" horiz-adv-x="509" 
d="M457 282h-405v80h405v-80zM252 73q-25 0 -43 18t-18 43q0 26 18 44.5t43 18.5q26 0 44.5 -18.5t18.5 -44.5q0 -25 -18.5 -43t-44.5 -18zM252 446q-25 0 -43 18.5t-18 43.5q0 26 18 44t43 18q26 0 44.5 -18t18.5 -44q0 -25 -18.5 -43.5t-44.5 -18.5z" />
    <glyph glyph-name="pi" unicode="&#x3c0;" horiz-adv-x="601" 
d="M393 445h90v-302q0 -66 52 -66h31v-77h-45q-58 0 -93 32.5t-35 106.5v306zM29 400v79h537v-79h-537zM105 445h90v-444h-90v444z" />
    <glyph glyph-name="endash" unicode="&#x2013;" horiz-adv-x="488" 
d="M34 281h420v-77h-420v11.5v27v27v11.5z" />
    <glyph glyph-name="emdash" unicode="&#x2014;" horiz-adv-x="988" 
d="M34 281h920v-77h-920v11.5v27v27v11.5z" />
    <glyph glyph-name="quoteleft" unicode="&#x2018;" horiz-adv-x="181" 
d="M74 482q-22 0 -37.5 15t-15.5 37q0 11 4 23.5t13 25.5l61 105h44l-51 -107q15 -6 25 -18t10 -29q0 -22 -15 -37t-38 -15z" />
    <glyph glyph-name="quoteright" unicode="&#x2019;" horiz-adv-x="181" 
d="M107 689q23 0 38 -15t15 -37q0 -10 -4 -22.5t-13 -26.5l-61 -105h-44l51 107q-15 6 -25 18.5t-10 28.5q0 22 15.5 37t37.5 15z" />
    <glyph glyph-name="quotedblleft" unicode="&#x201c;" horiz-adv-x="330" 
d="M223 482q-22 0 -37.5 15t-15.5 37q0 11 4 23.5t12 25.5l61 105h45l-51 -107q15 -6 24.5 -18t9.5 -29q0 -22 -14.5 -37t-37.5 -15zM74 482q-22 0 -37.5 15t-15.5 37q0 11 4 23.5t13 25.5l61 105h44l-51 -107q15 -6 25 -18t10 -29q0 -22 -15 -37t-38 -15z" />
    <glyph glyph-name="quotedblright" unicode="&#x201d;" horiz-adv-x="330" 
d="M113 689q23 0 38 -15t15 -37q0 -10 -4 -22.5t-12 -26.5l-61 -105h-45l51 107q-15 6 -24.5 18.5t-9.5 28.5q0 22 15 37t37 15zM262 689q23 0 38 -15t15 -37q0 -10 -4 -22.5t-13 -26.5l-61 -105h-44l51 107q-15 6 -25 18.5t-10 28.5q0 22 15.5 37t37.5 15z" />
    <glyph glyph-name="dagger" unicode="&#x2020;" horiz-adv-x="459" 
d="M185 -196v884h89v-884h-89zM29 403v79h400v-79h-400z" />
    <glyph glyph-name="daggerdbl" unicode="&#x2021;" horiz-adv-x="459" 
d="M185 -196v884h89v-884h-89zM29 403v79h400v-79h-400zM29 10v79h400v-79h-400z" />
    <glyph glyph-name="bullet" unicode="&#x2022;" horiz-adv-x="385" 
d="M193 122q-36 0 -65 17t-46 46.5t-17 64.5q0 36 17 65t46 46t65 17t64.5 -17t45.5 -46t17 -65q0 -35 -17 -64.5t-45.5 -46.5t-64.5 -17z" />
    <glyph glyph-name="ellipsis" unicode="&#x2026;" horiz-adv-x="638" 
d="M546 -9q-25 0 -43 18t-18 43q0 26 18 44.5t43 18.5q26 0 44.5 -18.5t18.5 -44.5q0 -25 -18.5 -43t-44.5 -18zM90 -9q-25 0 -43 18t-18 43q0 26 18 44.5t43 18.5q26 0 44.5 -18.5t18.5 -44.5q0 -25 -18.5 -43t-44.5 -18zM318 -9q-25 0 -43 18t-18 43q0 26 18 44.5t43 18.5
q26 0 44.5 -18.5t18.5 -44.5q0 -25 -18.5 -43t-44.5 -18z" />
    <glyph glyph-name="guilsinglleft" unicode="&#x2039;" horiz-adv-x="311" 
d="M38 245l185 185l50 -51l-134 -134l134 -134l-50 -51z" />
    <glyph glyph-name="guilsinglright" unicode="&#x203a;" horiz-adv-x="311" 
d="M38 379l50 51l185 -185l-185 -185l-50 51l134 134z" />
    <glyph glyph-name="fraction" unicode="&#x2044;" horiz-adv-x="64" 
d="M-224 0l440 641h72l-437 -641h-75z" />
    <glyph glyph-name="Euro" unicode="&#x20ac;" horiz-adv-x="647" 
d="M399 -12q-69 0 -128.5 26t-104 71.5t-69.5 105.5t-25 129t25 129.5t69.5 106t103.5 71.5t126 26q76 0 130.5 -21t96.5 -59l-54 -64q-33 27 -75 43t-97 16q-48 0 -90.5 -19.5t-74.5 -53.5t-50 -79t-18 -96t17.5 -95.5t49.5 -79t75.5 -53.5t95.5 -19q50 0 93 15t74 44
l55 -62q-44 -43 -99 -62.5t-126 -19.5zM412 213h-403l3 9.5t6.5 22t6.5 22l3 9.5h403zM451 363h-442l3 9.5t6.5 21.5t6.5 21.5l3 9.5h441z" />
    <glyph glyph-name="trademark" unicode="&#x2122;" horiz-adv-x="847" 
d="M134 291v350h10h23.5h23.5h10v-350h-67zM31 641h278v-60h-278v9v21v21v9zM562 371l-137 179l2 -259h-67v350h68l136 -179l135 179h63v-350h-66l2 259z" />
    <glyph glyph-name="minus" unicode="&#x2212;" horiz-adv-x="509" 
d="M52 282v80h405v-80h-405z" />
    <glyph glyph-name="approxequal" unicode="&#x2248;" horiz-adv-x="509" 
d="M52 180v84q20 13 47.5 25t60.5 12q32 0 55 -8t43.5 -18t42 -18t48.5 -8q30 0 58.5 8t49.5 23v-83q-21 -13 -47.5 -21.5t-58.5 -8.5q-31 0 -54.5 8t-44.5 18t-42.5 18t-48.5 8q-39 0 -65.5 -11.5t-43.5 -27.5zM52 357v83q20 14 47.5 25.5t60.5 11.5q32 0 55 -8t43.5 -18
t42 -18t48.5 -8q30 0 58.5 8.5t49.5 23.5v-84q-21 -13 -47.5 -21.5t-58.5 -8.5q-31 0 -54.5 8t-44.5 18t-42.5 18t-48.5 8q-39 0 -65.5 -11.5t-43.5 -26.5z" />
    <glyph glyph-name="notequal" unicode="&#x2260;" horiz-adv-x="509" 
d="M100 101l249 442h10.5h23.5h23.5h10.5l-248 -442h-69zM52 194v81h405v-81h-405zM52 369v81h405v-81h-405z" />
    <glyph glyph-name="lessequal" unicode="&#x2264;" horiz-adv-x="509" 
d="M457 224v-88l-405 185v75l405 183v-87l-327 -143l1 18zM52 0v81h405v-81h-405z" />
    <glyph glyph-name="greaterequal" unicode="&#x2265;" horiz-adv-x="509" 
d="M52 224l326 143l1 -18l-327 143v87l405 -183v-75l-405 -185v88zM457 0h-405v81h405v-81z" />
    <glyph glyph-name="ITF" unicode="&#xf8ff;" horiz-adv-x="1560" 
d="M85 0v641h198v-641h-198zM324 454v187h198v-187h-198zM562 0v641h198v-641h-198zM802 454v187h197v-187h-197zM1040 0v641h197v-641h-197zM1279 454v187h197v-187h-197zM1279 227v186h197v-186h-197z" />
    <glyph glyph-name="G.alt" horiz-adv-x="738" 
d="M376 -12q-68 0 -127 24t-104 68.5t-70.5 105.5t-25.5 134q0 69 26.5 129.5t73.5 106t108 71.5t130 26q77 0 134 -21.5t98 -58.5l-58 -67q-32 27 -75.5 43.5t-97.5 16.5q-49 0 -93 -19t-77.5 -52.5t-53 -78.5t-19.5 -96q0 -73 31 -128.5t84 -86t117 -30.5q67 0 114.5 24.5
t74.5 65.5t31 90v93l32 -66h-242v84h302v-129q-10 -64 -48.5 -121t-104.5 -92.5t-160 -35.5z" />
    <glyph glyph-name="a.alt" horiz-adv-x="627" 
d="M277 -12q-65 0 -117.5 33t-83.5 90t-31 129q0 71 30 128t82.5 90t119.5 33q59 0 102.5 -27.5t70 -76t33.5 -110.5l1 -116q-10 -52 -39 -91t-71.5 -60.5t-96.5 -21.5zM290 71q45 0 80 23t55 61.5t20 84.5q0 47 -20 85t-55 60.5t-80 22.5t-80.5 -22.5t-55.5 -60.5t-20 -85
q0 -46 20 -84.5t55.5 -61.5t80.5 -23zM601 77l11 -78q-11 -4 -24.5 -6.5t-25.5 -2.5q-30 0 -56.5 14t-43.5 45t-17 81v78h89v-79q0 -31 14 -44t31 -13q10 0 22 5zM534 189h-89v290h89v-290z" />
    <glyph glyph-name="j.alt" horiz-adv-x="248" 
d="M3 -208h-22v84h19q29 0 46.5 10.5t25.5 29.5t8 43v520h88v-520q0 -52 -19.5 -89.5t-56.5 -57.5t-89 -20zM124 562q-23 0 -39 16.5t-16 38.5q0 23 16 39t39 16t39 -16t16 -39q0 -22 -16 -38.5t-39 -16.5z" />
    <glyph glyph-name="l.alt" horiz-adv-x="248" 
d="M80 0v688h88v-688h-88z" />
    <glyph glyph-name="y.alt" horiz-adv-x="507" 
d="M232 -196h-90l104 260l156 415h90zM297 34l-64 -55l-224 500h96z" />
    <glyph glyph-name="zero.superior" unicode="&#x2070;" horiz-adv-x="286" 
d="M144 315q-37 0 -66.5 21.5t-46 59t-16.5 85.5t16.5 86t45 59.5t64.5 21.5q38 0 67 -21.5t45.5 -59.5t16.5 -86t-16.5 -85.5t-44.5 -59t-65 -21.5zM143 371q29 0 47 30.5t18 79.5t-17.5 79t-47.5 30q-29 0 -47.5 -30t-18.5 -79t17.5 -79.5t48.5 -30.5z" />
    <glyph glyph-name="four.superior" unicode="&#x2074;" horiz-adv-x="286" 
d="M166 321v259v61h60v-320h-60zM59 422l-48 14l155 205l15 -57zM11 436h259v-57h-259v8.5v20v20v8.5z" />
    <glyph glyph-name="nbspace" unicode="&#xa0;" horiz-adv-x="216" 
 />
    <glyph glyph-name="litre" unicode="&#x2113;" horiz-adv-x="431" 
d="M374 61q-25 -34 -59 -53.5t-79 -19.5q-65 0 -103.5 39.5t-38.5 118.5v373q0 59 17.5 99.5t50 61t76.5 20.5q73 0 114 -45.5t41 -130.5q0 -97 -66 -181.5t-187 -158.5l-110 -56v94l101 47q54 34 93.5 75t61 88t21.5 97q0 45 -17.5 66.5t-44.5 21.5q-30 0 -45.5 -20.5
t-15.5 -65.5v-378q0 -40 16 -61t48 -21q26 0 46.5 13.5t35.5 38.5z" />
    <glyph glyph-name="ampersand.alt" horiz-adv-x="617" 
d="M517 333l68 -44l-103 -150q-32 -47 -68.5 -80.5t-78 -51t-89.5 -17.5q-56 0 -101.5 20t-72.5 59t-27 94q0 47 23 84.5t62.5 65.5t87.5 43l49 -67q-37 -9 -67.5 -25.5t-48.5 -40.5t-18 -56q0 -46 32 -72t83 -26t90 31.5t78 87.5zM474 595l-44 -69q-31 22 -61.5 33
t-59.5 11q-40 0 -66 -21.5t-26 -58.5q0 -28 16 -55t44 -56l330 -335l-63 -57l-328 339q-39 40 -64 80t-25 86q0 47 24 83t64.5 56.5t90.5 20.5q49 0 91.5 -16t76.5 -41z" />
    <glyph glyph-name="divisionslash" unicode="&#x2215;" horiz-adv-x="64" 
d="M-224 0l440 641h72l-437 -641h-75z" />
    <glyph glyph-name="Aacute" unicode="&#xc1;" horiz-adv-x="664" 
d="M508 164h-346v81h346v-81zM548 0l-231 574h24l-231 -574h-95l264 641h106l264 -641h-101zM380 850h107l-123 -156h-8.5h-20.5h-24h-20.5h-8.5z" />
    <glyph glyph-name="Abreve" unicode="&#x102;" horiz-adv-x="664" 
d="M508 164h-346v81h346v-81zM548 0l-231 574h24l-231 -574h-95l264 641h106l264 -641h-101zM331 684q-41 0 -73.5 19t-51 54t-18.5 82h66q0 -47 23 -70t54 -23q32 0 55 23t23 70h66q0 -47 -18.5 -82t-51 -54t-74.5 -19z" />
    <glyph glyph-name="Acircumflex" unicode="&#xc2;" horiz-adv-x="664" 
d="M508 164h-346v81h346v-81zM548 0l-231 574h24l-231 -574h-95l264 641h106l264 -641h-101zM291 850l-120 -156h85l76 101l76 -101h85l-120 156h-82z" />
    <glyph glyph-name="Adieresis" unicode="&#xc4;" horiz-adv-x="664" 
d="M508 164h-346v81h346v-81zM548 0l-231 574h24l-231 -574h-95l264 641h106l264 -641h-101zM198 776q0 20 14.5 35.5t35.5 15.5q22 0 37 -15.5t15 -35.5q0 -22 -15 -36.5t-37 -14.5q-21 0 -35.5 14.5t-14.5 36.5zM364 776q0 20 15 35.5t36 15.5t36 -15.5t15 -35.5
q0 -22 -15 -36.5t-36 -14.5t-36 14.5t-15 36.5z" />
    <glyph glyph-name="Agrave" unicode="&#xc0;" horiz-adv-x="664" 
d="M508 164h-346v81h346v-81zM548 0l-231 574h24l-231 -574h-95l264 641h106l264 -641h-101zM283 850l98 -156h-8h-20h-24.5h-20.5h-8l-123 156h106z" />
    <glyph glyph-name="Amacron" unicode="&#x100;" horiz-adv-x="664" 
d="M508 164h-346v81h346v-81zM548 0l-231 574h24l-231 -574h-95l264 641h106l264 -641h-101zM191 813h281v-68h-281v10.5v23.5v23.5v10.5z" />
    <glyph glyph-name="Aogonek" unicode="&#x104;" horiz-adv-x="664" 
d="M508 164h-346v81h346v-81zM548 0l-231 574h24l-231 -574h-95l264 641h106l264 -641h-101zM601 29l48 -29q-58 -23 -88.5 -51t-30.5 -57q0 -16 11 -25.5t29 -9.5q16 0 29 6t29 19l29 -50q-18 -19 -44 -29.5t-57 -10.5q-30 0 -52.5 10t-35 29t-12.5 45q0 46 35 83.5
t110 69.5z" />
    <glyph glyph-name="Aring" unicode="&#xc5;" horiz-adv-x="664" 
d="M508 164h-346v81h346v-81zM548 0l-231 574h24l-231 -574h-95l264 641h106l264 -641h-101zM332 684q-32 0 -58 15t-41 40t-15 55q0 31 15 55.5t41 39.5t58 15q33 0 58.5 -15t40.5 -39.5t15 -55.5q0 -30 -15 -55t-40.5 -40t-58.5 -15zM333 740q23 0 38.5 15t15.5 39
t-15.5 39.5t-38.5 15.5q-22 0 -38.5 -15.5t-16.5 -39.5t16.5 -39t38.5 -15z" />
    <glyph glyph-name="Atilde" unicode="&#xc3;" horiz-adv-x="664" 
d="M508 164h-346v81h346v-81zM548 0l-231 574h24l-231 -574h-95l264 641h106l264 -641h-101zM405 710q-22 0 -40.5 8t-36 19t-35 19t-35.5 8q-20 0 -30.5 -15.5t-21.5 -36.5l-44 36q19 46 44.5 64.5t52.5 18.5q22 0 40.5 -8.5t36 -19t34.5 -19t35 -8.5q21 0 31.5 16t20.5 37
l44 -36q-18 -46 -43 -64.5t-53 -18.5z" />
    <glyph glyph-name="AE" unicode="&#xc6;" horiz-adv-x="825" 
d="M480 164h-312v81h312v-81zM453 641l-14 -80h-77l-262 -561h-95l301 641h147zM405 0v641h383v-85h-293v-192h253v-85h-253v-194h293v-85h-383z" />
    <glyph glyph-name="Cacute" unicode="&#x106;" horiz-adv-x="628" 
d="M605 573l-60 -70q-32 27 -73.5 44t-95.5 17q-48 0 -90 -19t-73.5 -52.5t-49.5 -77.5t-18 -95q0 -50 18 -94t50.5 -77.5t76 -52.5t94.5 -19q47 0 89 15.5t73 43.5l59 -66q-44 -43 -100 -62.5t-127 -19.5q-70 0 -129.5 26t-104.5 71.5t-70 105.5t-25 129t25.5 129.5t70 106
t104 71.5t126.5 26q77 0 132.5 -21t97.5 -59zM423 850h107l-123 -156h-8.5h-20.5h-24h-20.5h-8.5z" />
    <glyph glyph-name="Ccaron" unicode="&#x10c;" horiz-adv-x="628" 
d="M605 573l-60 -70q-32 27 -73.5 44t-95.5 17q-48 0 -90 -19t-73.5 -52.5t-49.5 -77.5t-18 -95q0 -50 18 -94t50.5 -77.5t76 -52.5t94.5 -19q47 0 89 15.5t73 43.5l59 -66q-44 -43 -100 -62.5t-127 -19.5q-70 0 -129.5 26t-104.5 71.5t-70 105.5t-25 129t25.5 129.5t70 106
t104 71.5t126.5 26q77 0 132.5 -21t97.5 -59zM416 694h-82l-120 156h85l76 -101l76 101h85z" />
    <glyph glyph-name="Ccedilla" unicode="&#xc7;" horiz-adv-x="628" 
d="M605 573l-60 -70q-32 27 -73.5 44t-95.5 17q-48 0 -90 -19t-73.5 -52.5t-49.5 -77.5t-18 -95q0 -50 18 -94t50.5 -77.5t76 -52.5t94.5 -19q47 0 89 15.5t73 43.5l59 -66q-44 -43 -100 -62.5t-127 -19.5q-70 0 -129.5 26t-104.5 71.5t-70 105.5t-25 129t25.5 129.5t70 106
t104 71.5t126.5 26q77 0 132.5 -21t97.5 -59zM342 0h66l-77 -186l-69 30z" />
    <glyph glyph-name="Ccircumflex" unicode="&#x108;" horiz-adv-x="628" 
d="M605 573l-60 -70q-32 27 -73.5 44t-95.5 17q-48 0 -90 -19t-73.5 -52.5t-49.5 -77.5t-18 -95q0 -50 18 -94t50.5 -77.5t76 -52.5t94.5 -19q47 0 89 15.5t73 43.5l59 -66q-44 -43 -100 -62.5t-127 -19.5q-70 0 -129.5 26t-104.5 71.5t-70 105.5t-25 129t25.5 129.5t70 106
t104 71.5t126.5 26q77 0 132.5 -21t97.5 -59zM334 850l-120 -156h85l76 101l76 -101h85l-120 156h-82z" />
    <glyph glyph-name="Cdotaccent" unicode="&#x10a;" horiz-adv-x="628" 
d="M605 573l-60 -70q-32 27 -73.5 44t-95.5 17q-48 0 -90 -19t-73.5 -52.5t-49.5 -77.5t-18 -95q0 -50 18 -94t50.5 -77.5t76 -52.5t94.5 -19q47 0 89 15.5t73 43.5l59 -66q-44 -43 -100 -62.5t-127 -19.5q-70 0 -129.5 26t-104.5 71.5t-70 105.5t-25 129t25.5 129.5t70 106
t104 71.5t126.5 26q77 0 132.5 -21t97.5 -59zM320 779q0 23 16 39t39 16t39 -16t16 -39q0 -22 -16 -38.5t-39 -16.5t-39 16.5t-16 38.5z" />
    <glyph glyph-name="Eth" unicode="&#xd0;" horiz-adv-x="691" 
d="M85 0v640h196q80 0 146 -23t114.5 -66t74.5 -101.5t26 -129.5t-25.5 -129.5t-72.5 -101.5t-111.5 -66t-142.5 -23h-205zM283 555h-106v-470h106q80 0 139 29t91.5 82t32.5 124t-32.5 124t-91.5 82t-139 29zM10 361h314v-76h-314v11.5v26.5v26.5v11.5z" />
    <glyph glyph-name="Dcaron" unicode="&#x10e;" horiz-adv-x="691" 
d="M85 0v640h196q80 0 146 -23t114.5 -66t74.5 -101.5t26 -129.5t-25.5 -129.5t-72.5 -101.5t-111.5 -66t-142.5 -23h-205zM283 555h-106v-470h106q80 0 139 29t91.5 82t32.5 124t-32.5 124t-91.5 82t-139 29zM387 694h-82l-120 156h85l76 -101l76 101h85z" />
    <glyph glyph-name="Dcroat" unicode="&#x110;" horiz-adv-x="691" 
d="M85 0v640h196q80 0 146 -23t114.5 -66t74.5 -101.5t26 -129.5t-25.5 -129.5t-72.5 -101.5t-111.5 -66t-142.5 -23h-205zM283 555h-106v-470h106q80 0 139 29t91.5 82t32.5 124t-32.5 124t-91.5 82t-139 29zM10 361h314v-76h-314v11.5v26.5v26.5v11.5z" />
    <glyph glyph-name="Eacute" unicode="&#xc9;" horiz-adv-x="529" 
d="M85 0v641h407v-85h-317v-192h277v-85h-277v-194h317v-85h-407zM336 850h107l-123 -156h-8.5h-20.5h-24h-20.5h-8.5z" />
    <glyph glyph-name="Ebreve" unicode="&#x114;" horiz-adv-x="529" 
d="M85 0v641h407v-85h-317v-192h277v-85h-277v-194h317v-85h-407zM287 684q-41 0 -73.5 19t-51 54t-18.5 82h66q0 -47 23 -70t54 -23q32 0 55 23t23 70h66q0 -47 -18.5 -82t-51 -54t-74.5 -19z" />
    <glyph glyph-name="Ecaron" unicode="&#x11a;" horiz-adv-x="529" 
d="M85 0v641h407v-85h-317v-192h277v-85h-277v-194h317v-85h-407zM329 694h-82l-120 156h85l76 -101l76 101h85z" />
    <glyph glyph-name="Ecircumflex" unicode="&#xca;" horiz-adv-x="529" 
d="M85 0v641h407v-85h-317v-192h277v-85h-277v-194h317v-85h-407zM247 850l-120 -156h85l76 101l76 -101h85l-120 156h-82z" />
    <glyph glyph-name="Edieresis" unicode="&#xcb;" horiz-adv-x="529" 
d="M85 0v641h407v-85h-317v-192h277v-85h-277v-194h317v-85h-407zM154 776q0 20 14.5 35.5t35.5 15.5q22 0 37 -15.5t15 -35.5q0 -22 -15 -36.5t-37 -14.5q-21 0 -35.5 14.5t-14.5 36.5zM320 776q0 20 15 35.5t36 15.5t36 -15.5t15 -35.5q0 -22 -15 -36.5t-36 -14.5
t-36 14.5t-15 36.5z" />
    <glyph glyph-name="Edotaccent" unicode="&#x116;" horiz-adv-x="529" 
d="M85 0v641h407v-85h-317v-192h277v-85h-277v-194h317v-85h-407zM233 779q0 23 16 39t39 16t39 -16t16 -39q0 -22 -16 -38.5t-39 -16.5t-39 16.5t-16 38.5z" />
    <glyph glyph-name="Egrave" unicode="&#xc8;" horiz-adv-x="529" 
d="M85 0v641h407v-85h-317v-192h277v-85h-277v-194h317v-85h-407zM239 850l98 -156h-8h-20h-24.5h-20.5h-8l-123 156h106z" />
    <glyph glyph-name="Emacron" unicode="&#x112;" horiz-adv-x="529" 
d="M85 0v641h407v-85h-317v-192h277v-85h-277v-194h317v-85h-407zM147 813h281v-68h-281v10.5v23.5v23.5v10.5z" />
    <glyph glyph-name="Eogonek" unicode="&#x118;" horiz-adv-x="529" 
d="M85 0v641h407v-85h-317v-192h277v-85h-277v-194h317v-85h-407zM444 29l48 -29q-58 -23 -88.5 -51t-30.5 -57q0 -16 11 -25.5t29 -9.5q16 0 29 6t29 19l29 -50q-18 -19 -44 -29.5t-57 -10.5q-30 0 -52.5 10t-35 29t-12.5 45q0 46 35 83.5t110 69.5z" />
    <glyph glyph-name="Gbreve" unicode="&#x11e;" horiz-adv-x="672" 
d="M383 -12q-75 0 -136.5 25.5t-105.5 71t-68 106t-24 129.5q0 70 26 130.5t71.5 106t105.5 71t127 25.5q77 0 132 -21t97 -59l-58 -67q-33 27 -75 43.5t-96 16.5q-48 0 -90 -18.5t-74.5 -52t-51 -78t-18.5 -97.5q0 -69 30.5 -125t86.5 -89.5t132 -33.5q52 0 94.5 14.5
t77.5 39.5l55 -68q-51 -37 -108 -53.5t-130 -16.5zM621 311v-253l-87 41v212h87zM621 263h-246v79h246v-79zM362 684q-41 0 -73.5 19t-51 54t-18.5 82h66q0 -47 23 -70t54 -23q32 0 55 23t23 70h66q0 -47 -18.5 -82t-51 -54t-74.5 -19z" />
    <glyph glyph-name="Gcircumflex" unicode="&#x11c;" horiz-adv-x="672" 
d="M383 -12q-75 0 -136.5 25.5t-105.5 71t-68 106t-24 129.5q0 70 26 130.5t71.5 106t105.5 71t127 25.5q77 0 132 -21t97 -59l-58 -67q-33 27 -75 43.5t-96 16.5q-48 0 -90 -18.5t-74.5 -52t-51 -78t-18.5 -97.5q0 -69 30.5 -125t86.5 -89.5t132 -33.5q52 0 94.5 14.5
t77.5 39.5l55 -68q-51 -37 -108 -53.5t-130 -16.5zM621 311v-253l-87 41v212h87zM621 263h-246v79h246v-79zM322 850l-120 -156h85l76 101l76 -101h85l-120 156h-82z" />
    <glyph glyph-name="Gcommaaccent" unicode="&#x122;" horiz-adv-x="672" 
d="M383 -12q-75 0 -136.5 25.5t-105.5 71t-68 106t-24 129.5q0 70 26 130.5t71.5 106t105.5 71t127 25.5q77 0 132 -21t97 -59l-58 -67q-33 27 -75 43.5t-96 16.5q-48 0 -90 -18.5t-74.5 -52t-51 -78t-18.5 -97.5q0 -69 30.5 -125t86.5 -89.5t132 -33.5q52 0 94.5 14.5
t77.5 39.5l55 -68q-51 -37 -108 -53.5t-130 -16.5zM621 311v-253l-87 41v212h87zM621 263h-246v79h246v-79zM408 -51l-54 -142h-70l34 142h90z" />
    <glyph glyph-name="Gdotaccent" unicode="&#x120;" horiz-adv-x="672" 
d="M383 -12q-75 0 -136.5 25.5t-105.5 71t-68 106t-24 129.5q0 70 26 130.5t71.5 106t105.5 71t127 25.5q77 0 132 -21t97 -59l-58 -67q-33 27 -75 43.5t-96 16.5q-48 0 -90 -18.5t-74.5 -52t-51 -78t-18.5 -97.5q0 -69 30.5 -125t86.5 -89.5t132 -33.5q52 0 94.5 14.5
t77.5 39.5l55 -68q-51 -37 -108 -53.5t-130 -16.5zM621 311v-253l-87 41v212h87zM621 263h-246v79h246v-79zM308 779q0 23 16 39t39 16t39 -16t16 -39q0 -22 -16 -38.5t-39 -16.5t-39 16.5t-16 38.5z" />
    <glyph glyph-name="Hbar" unicode="&#x126;" horiz-adv-x="719" 
d="M181 0h-90v641h90v-274h357v274h91v-641h-91v282h-357v-282zM686 480h-653v10v23.5v23.5v10h653v-67z" />
    <glyph glyph-name="Hcircumflex" unicode="&#x124;" horiz-adv-x="707" 
d="M532 0v282h-357v-282h-90v641h90v-274h357v274h90v-641h-90zM313 850l-120 -156h85l76 101l76 -101h85l-120 156h-82z" />
    <glyph glyph-name="IJ" unicode="&#x132;" horiz-adv-x="698" 
d="M85 0v641h9h22.5h27h22.5h9v-641h-90zM275 62l62 63q17 -22 40.5 -35t52.5 -13q48 0 74.5 30t26.5 91v443h90v-441q0 -73 -25.5 -120t-68 -69.5t-95.5 -22.5q-51 0 -93 21t-64 53z" />
    <glyph glyph-name="Iacute" unicode="&#xcd;" horiz-adv-x="260" 
d="M85 0v641h9h22.5h27h22.5h9v-641h-90zM178 850h107l-123 -156h-8.5h-20.5h-24h-20.5h-8.5z" />
    <glyph glyph-name="Ibreve" unicode="&#x12c;" horiz-adv-x="260" 
d="M85 0v641h9h22.5h27h22.5h9v-641h-90zM129 684q-41 0 -73.5 19t-51 54t-18.5 82h66q0 -47 23 -70t54 -23q32 0 55 23t23 70h66q0 -47 -18.5 -82t-51 -54t-74.5 -19z" />
    <glyph glyph-name="Icircumflex" unicode="&#xce;" horiz-adv-x="260" 
d="M85 0v641h9h22.5h27h22.5h9v-641h-90zM89 850l-120 -156h85l76 101l76 -101h85l-120 156h-82z" />
    <glyph glyph-name="Idieresis" unicode="&#xcf;" horiz-adv-x="260" 
d="M85 0v641h9h22.5h27h22.5h9v-641h-90zM-4 776q0 20 14.5 35.5t35.5 15.5q22 0 37 -15.5t15 -35.5q0 -22 -15 -36.5t-37 -14.5q-21 0 -35.5 14.5t-14.5 36.5zM162 776q0 20 15 35.5t36 15.5t36 -15.5t15 -35.5q0 -22 -15 -36.5t-36 -14.5t-36 14.5t-15 36.5z" />
    <glyph glyph-name="Idotaccent" unicode="&#x130;" horiz-adv-x="260" 
d="M85 0v641h9h22.5h27h22.5h9v-641h-90zM75 779q0 23 16 39t39 16t39 -16t16 -39q0 -22 -16 -38.5t-39 -16.5t-39 16.5t-16 38.5z" />
    <glyph glyph-name="Igrave" unicode="&#xcc;" horiz-adv-x="260" 
d="M85 0v641h9h22.5h27h22.5h9v-641h-90zM81 850l98 -156h-8h-20h-24.5h-20.5h-8l-123 156h106z" />
    <glyph glyph-name="Imacron" unicode="&#x12a;" horiz-adv-x="260" 
d="M85 0v641h9h22.5h27h22.5h9v-641h-90zM-11 813h281v-68h-281v10.5v23.5v23.5v10.5z" />
    <glyph glyph-name="Iogonek" unicode="&#x12e;" horiz-adv-x="260" 
d="M85 0v641h9h22.5h27h22.5h9v-641h-90zM127 29l48 -29q-58 -23 -88.5 -51t-30.5 -57q0 -16 11 -25.5t29 -9.5q16 0 29 6t29 19l29 -50q-18 -19 -44 -29.5t-57 -10.5q-30 0 -52.5 10t-35 29t-12.5 45q0 46 35 83.5t110 69.5z" />
    <glyph glyph-name="Itilde" unicode="&#x128;" horiz-adv-x="260" 
d="M85 0v641h9h22.5h27h22.5h9v-641h-90zM203 710q-22 0 -40.5 8t-36 19t-35 19t-35.5 8q-20 0 -30.5 -15.5t-21.5 -36.5l-44 36q19 46 44.5 64.5t52.5 18.5q22 0 40.5 -8.5t36 -19t34.5 -19t35 -8.5q21 0 31.5 16t20.5 37l44 -36q-18 -46 -43 -64.5t-53 -18.5z" />
    <glyph glyph-name="Jcircumflex" unicode="&#x134;" horiz-adv-x="438" 
d="M15 62l62 63q17 -22 40.5 -35t52.5 -13q48 0 74.5 30t26.5 91v443h90v-441q0 -73 -25.5 -120t-68 -69.5t-95.5 -22.5q-51 0 -93 21t-64 53zM274 849l-120 -156h85l76 101l76 -101h85l-120 156h-82z" />
    <glyph glyph-name="Kcommaaccent" unicode="&#x136;" horiz-adv-x="589" 
d="M579 0h-119l-294 316l290 325h112l-287 -321zM175 0h-90v641h90v-641zM356 -51l-54 -142h-70l34 142h90z" />
    <glyph glyph-name="Lacute" unicode="&#x139;" horiz-adv-x="522" 
d="M85 0v641h90v-556h332v-85h-422zM177 850h107l-123 -156h-8.5h-20.5h-24h-20.5h-8.5z" />
    <glyph glyph-name="Lcaron" unicode="&#x13d;" horiz-adv-x="522" 
d="M85 0v641h90v-556h332v-85h-422zM382 641l-38 -166h-66l20 166h84z" />
    <glyph glyph-name="Lcommaaccent" unicode="&#x13b;" horiz-adv-x="522" 
d="M85 0v641h90v-556h332v-85h-422zM342 -51l-54 -142h-70l34 142h90z" />
    <glyph glyph-name="Ldot" unicode="&#x13f;" horiz-adv-x="522" 
d="M85 0v641h90v-556h332v-85h-422zM306 329q0 23 16 39.5t39 16.5t39 -16.5t16 -39.5q0 -22 -16 -38t-39 -16t-39 16t-16 38z" />
    <glyph glyph-name="Lslash" unicode="&#x141;" horiz-adv-x="522" 
d="M85 0v641h90v-556h332v-85h-422zM16 332l276 88v-77l-276 -88v11.5v27v27v11.5z" />
    <glyph glyph-name="Nacute" unicode="&#x143;" horiz-adv-x="707" 
d="M527 0l-372 518l17 5v-523h-90v641h98l372 -521l-17 -5v526h90v-641h-98zM402 850h107l-123 -156h-8.5h-20.5h-24h-20.5h-8.5z" />
    <glyph glyph-name="Ncaron" unicode="&#x147;" horiz-adv-x="707" 
d="M527 0l-372 518l17 5v-523h-90v641h98l372 -521l-17 -5v526h90v-641h-98zM395 694h-82l-120 156h85l76 -101l76 101h85z" />
    <glyph glyph-name="Ncommaaccent" unicode="&#x145;" horiz-adv-x="707" 
d="M527 0l-372 518l17 5v-523h-90v641h98l372 -521l-17 -5v526h90v-641h-98zM399 -51l-54 -142h-70l34 142h90z" />
    <glyph glyph-name="Ntilde" unicode="&#xd1;" horiz-adv-x="707" 
d="M527 0l-372 518l17 5v-523h-90v641h98l372 -521l-17 -5v526h90v-641h-98zM427 710q-22 0 -40.5 8t-36 19t-35 19t-35.5 8q-20 0 -30.5 -15.5t-21.5 -36.5l-44 36q19 46 44.5 64.5t52.5 18.5q22 0 40.5 -8.5t36 -19t34.5 -19t35 -8.5q21 0 31.5 16t20.5 37l44 -36
q-18 -46 -43 -64.5t-53 -18.5z" />
    <glyph glyph-name="Oacute" unicode="&#xd3;" horiz-adv-x="754" 
d="M377 653q68 0 127.5 -26t104.5 -72t70.5 -106.5t25.5 -129.5t-25.5 -129t-70.5 -105.5t-104.5 -71t-127.5 -25.5t-127.5 26t-104.5 71.5t-70.5 105.5t-25.5 129t25.5 129.5t70.5 106t104.5 71.5t127.5 26zM377 77q48 0 90.5 19t74.5 52t50 77t18 94q0 51 -18 95t-50 78
t-74.5 53t-90.5 19t-90 -19t-74 -52.5t-50 -77.5t-18 -95q0 -50 18 -94t50 -77.5t74 -52.5t90 -19zM425 850h107l-123 -156h-8.5h-20.5h-24h-20.5h-8.5z" />
    <glyph glyph-name="Obreve" unicode="&#x14e;" horiz-adv-x="754" 
d="M377 653q68 0 127.5 -26t104.5 -72t70.5 -106.5t25.5 -129.5t-25.5 -129t-70.5 -105.5t-104.5 -71t-127.5 -25.5t-127.5 26t-104.5 71.5t-70.5 105.5t-25.5 129t25.5 129.5t70.5 106t104.5 71.5t127.5 26zM377 77q48 0 90.5 19t74.5 52t50 77t18 94q0 51 -18 95t-50 78
t-74.5 53t-90.5 19t-90 -19t-74 -52.5t-50 -77.5t-18 -95q0 -50 18 -94t50 -77.5t74 -52.5t90 -19zM376 684q-41 0 -73.5 19t-51 54t-18.5 82h66q0 -47 23 -70t54 -23q32 0 55 23t23 70h66q0 -47 -18.5 -82t-51 -54t-74.5 -19z" />
    <glyph glyph-name="Ocircumflex" unicode="&#xd4;" horiz-adv-x="754" 
d="M377 653q68 0 127.5 -26t104.5 -72t70.5 -106.5t25.5 -129.5t-25.5 -129t-70.5 -105.5t-104.5 -71t-127.5 -25.5t-127.5 26t-104.5 71.5t-70.5 105.5t-25.5 129t25.5 129.5t70.5 106t104.5 71.5t127.5 26zM377 77q48 0 90.5 19t74.5 52t50 77t18 94q0 51 -18 95t-50 78
t-74.5 53t-90.5 19t-90 -19t-74 -52.5t-50 -77.5t-18 -95q0 -50 18 -94t50 -77.5t74 -52.5t90 -19zM336 850l-120 -156h85l76 101l76 -101h85l-120 156h-82z" />
    <glyph glyph-name="Odieresis" unicode="&#xd6;" horiz-adv-x="754" 
d="M377 653q68 0 127.5 -26t104.5 -72t70.5 -106.5t25.5 -129.5t-25.5 -129t-70.5 -105.5t-104.5 -71t-127.5 -25.5t-127.5 26t-104.5 71.5t-70.5 105.5t-25.5 129t25.5 129.5t70.5 106t104.5 71.5t127.5 26zM377 77q48 0 90.5 19t74.5 52t50 77t18 94q0 51 -18 95t-50 78
t-74.5 53t-90.5 19t-90 -19t-74 -52.5t-50 -77.5t-18 -95q0 -50 18 -94t50 -77.5t74 -52.5t90 -19zM243 776q0 20 14.5 35.5t35.5 15.5q22 0 37 -15.5t15 -35.5q0 -22 -15 -36.5t-37 -14.5q-21 0 -35.5 14.5t-14.5 36.5zM409 776q0 20 15 35.5t36 15.5t36 -15.5t15 -35.5
q0 -22 -15 -36.5t-36 -14.5t-36 14.5t-15 36.5z" />
    <glyph glyph-name="Ograve" unicode="&#xd2;" horiz-adv-x="754" 
d="M377 653q68 0 127.5 -26t104.5 -72t70.5 -106.5t25.5 -129.5t-25.5 -129t-70.5 -105.5t-104.5 -71t-127.5 -25.5t-127.5 26t-104.5 71.5t-70.5 105.5t-25.5 129t25.5 129.5t70.5 106t104.5 71.5t127.5 26zM377 77q48 0 90.5 19t74.5 52t50 77t18 94q0 51 -18 95t-50 78
t-74.5 53t-90.5 19t-90 -19t-74 -52.5t-50 -77.5t-18 -95q0 -50 18 -94t50 -77.5t74 -52.5t90 -19zM328 850l98 -156h-8h-20h-24.5h-20.5h-8l-123 156h106z" />
    <glyph glyph-name="Ohungarumlaut" unicode="&#x150;" horiz-adv-x="754" 
d="M377 653q68 0 127.5 -26t104.5 -72t70.5 -106.5t25.5 -129.5t-25.5 -129t-70.5 -105.5t-104.5 -71t-127.5 -25.5t-127.5 26t-104.5 71.5t-70.5 105.5t-25.5 129t25.5 129.5t70.5 106t104.5 71.5t127.5 26zM377 77q48 0 90.5 19t74.5 52t50 77t18 94q0 51 -18 95t-50 78
t-74.5 53t-90.5 19t-90 -19t-74 -52.5t-50 -77.5t-18 -95q0 -50 18 -94t50 -77.5t74 -52.5t90 -19zM346 850h91l-119 -156h-10.5h-24.5h-24.5h-10.5zM502 850h96l-123 -156h-10.5h-25h-25h-10.5z" />
    <glyph glyph-name="Omacron" unicode="&#x14c;" horiz-adv-x="754" 
d="M377 653q68 0 127.5 -26t104.5 -72t70.5 -106.5t25.5 -129.5t-25.5 -129t-70.5 -105.5t-104.5 -71t-127.5 -25.5t-127.5 26t-104.5 71.5t-70.5 105.5t-25.5 129t25.5 129.5t70.5 106t104.5 71.5t127.5 26zM377 77q48 0 90.5 19t74.5 52t50 77t18 94q0 51 -18 95t-50 78
t-74.5 53t-90.5 19t-90 -19t-74 -52.5t-50 -77.5t-18 -95q0 -50 18 -94t50 -77.5t74 -52.5t90 -19zM236 813h281v-68h-281v10.5v23.5v23.5v10.5z" />
    <glyph glyph-name="Oslash" unicode="&#xd8;" horiz-adv-x="754" 
d="M377 653q68 0 127.5 -26t104.5 -72t70.5 -106.5t25.5 -129.5t-25.5 -129t-70.5 -105.5t-104.5 -71t-127.5 -25.5t-127.5 26t-104.5 71.5t-70.5 105.5t-25.5 129t25.5 129.5t70.5 106t104.5 71.5t127.5 26zM377 77q48 0 90.5 19t74.5 52t50 77t18 94q0 51 -18 95t-50 78
t-74.5 53t-90.5 19t-90 -19t-74 -52.5t-50 -77.5t-18 -95q0 -50 18 -94t50 -77.5t74 -52.5t90 -19zM111 -12l475 700l54 -35l-476 -700z" />
    <glyph glyph-name="Otilde" unicode="&#xd5;" horiz-adv-x="754" 
d="M377 653q68 0 127.5 -26t104.5 -72t70.5 -106.5t25.5 -129.5t-25.5 -129t-70.5 -105.5t-104.5 -71t-127.5 -25.5t-127.5 26t-104.5 71.5t-70.5 105.5t-25.5 129t25.5 129.5t70.5 106t104.5 71.5t127.5 26zM377 77q48 0 90.5 19t74.5 52t50 77t18 94q0 51 -18 95t-50 78
t-74.5 53t-90.5 19t-90 -19t-74 -52.5t-50 -77.5t-18 -95q0 -50 18 -94t50 -77.5t74 -52.5t90 -19zM450 710q-22 0 -40.5 8t-36 19t-35 19t-35.5 8q-20 0 -30.5 -15.5t-21.5 -36.5l-44 36q19 46 44.5 64.5t52.5 18.5q22 0 40.5 -8.5t36 -19t34.5 -19t35 -8.5q21 0 31.5 16
t20.5 37l44 -36q-18 -46 -43 -64.5t-53 -18.5z" />
    <glyph glyph-name="OE" unicode="&#x152;" horiz-adv-x="1054" 
d="M377 653q66 0 121.5 -26t97 -72t64 -106.5t22.5 -129.5t-22.5 -129t-64 -105.5t-97 -71t-121.5 -25.5q-68 0 -127.5 26t-104.5 71.5t-70.5 105.5t-25.5 129t25.5 129.5t70.5 106t104.5 71.5t127.5 26zM377 77q48 0 90.5 19t74.5 52t50 77t18 94q0 51 -18 95t-50 78
t-74.5 53t-90.5 19t-90 -19t-74 -52.5t-50 -77.5t-18 -95q0 -50 18 -94t50 -77.5t74 -52.5t90 -19zM610 0v641h407v-85h-317v-192h277v-85h-277v-194h317v-85h-407z" />
    <glyph glyph-name="Thorn" unicode="&#xde;" horiz-adv-x="594" 
d="M317 454h-142v-245h142q64 0 103.5 34t39.5 89q0 56 -39.5 89t-103.5 33zM175 0h-90v641h90v-106h134q74 0 129 -25t85.5 -70.5t30.5 -107.5q0 -61 -30.5 -107t-86 -71.5t-130.5 -25.5h-132v-128z" />
    <glyph glyph-name="Racute" unicode="&#x154;" horiz-adv-x="603" 
d="M85 0v641h224q71 0 123.5 -24t81.5 -67t29 -102q0 -58 -29.5 -102t-82.5 -68t-124 -24h-132v-254h-90zM317 560h-142v-225h142q59 0 95 31t36 82t-36 81.5t-95 30.5zM276 294h100l178 -294h-105zM350 850h107l-123 -156h-8.5h-20.5h-24h-20.5h-8.5z" />
    <glyph glyph-name="Rcaron" unicode="&#x158;" horiz-adv-x="603" 
d="M85 0v641h224q71 0 123.5 -24t81.5 -67t29 -102q0 -58 -29.5 -102t-82.5 -68t-124 -24h-132v-254h-90zM317 560h-142v-225h142q59 0 95 31t36 82t-36 81.5t-95 30.5zM276 294h100l178 -294h-105zM343 694h-82l-120 156h85l76 -101l76 101h85z" />
    <glyph glyph-name="Rcommaaccent" unicode="&#x156;" horiz-adv-x="603" 
d="M85 0v641h224q71 0 123.5 -24t81.5 -67t29 -102q0 -58 -29.5 -102t-82.5 -68t-124 -24h-132v-254h-90zM317 560h-142v-225h142q59 0 95 31t36 82t-36 81.5t-95 30.5zM276 294h100l178 -294h-105zM347 -51l-54 -142h-70l34 142h90z" />
    <glyph glyph-name="Sacute" unicode="&#x15a;" horiz-adv-x="551" 
d="M153 -1q-44 12 -115 58l43 78q29 -18 62.5 -32t68 -21.5t67.5 -7.5q39 0 70.5 11t49.5 33t18 55q0 29 -19.5 48t-51.5 32t-70 24t-76 25t-70 35.5t-51.5 54t-19.5 81.5q0 55 30 95.5t81.5 63t115.5 22.5q62 0 113.5 -15.5t92.5 -44.5l-45 -74q-31 20 -74.5 34.5
t-90.5 14.5q-37 0 -66 -12t-45 -33.5t-16 -48.5q0 -31 19.5 -51.5t51 -34t70 -25t76.5 -25t69.5 -33.5t51 -50.5t19.5 -76.5q0 -64 -32.5 -106.5t-87 -63.5t-119.5 -21q-38 0 -68 3t-52 8zM324 850h107l-123 -156h-8.5h-20.5h-24h-20.5h-8.5z" />
    <glyph glyph-name="Scaron" unicode="&#x160;" horiz-adv-x="551" 
d="M153 -1q-44 12 -115 58l43 78q29 -18 62.5 -32t68 -21.5t67.5 -7.5q39 0 70.5 11t49.5 33t18 55q0 29 -19.5 48t-51.5 32t-70 24t-76 25t-70 35.5t-51.5 54t-19.5 81.5q0 55 30 95.5t81.5 63t115.5 22.5q62 0 113.5 -15.5t92.5 -44.5l-45 -74q-31 20 -74.5 34.5
t-90.5 14.5q-37 0 -66 -12t-45 -33.5t-16 -48.5q0 -31 19.5 -51.5t51 -34t70 -25t76.5 -25t69.5 -33.5t51 -50.5t19.5 -76.5q0 -64 -32.5 -106.5t-87 -63.5t-119.5 -21q-38 0 -68 3t-52 8zM317 694h-82l-120 156h85l76 -101l76 101h85z" />
    <glyph glyph-name="Scedilla" unicode="&#x15e;" horiz-adv-x="551" 
d="M153 -1q-44 12 -115 58l43 78q29 -18 62.5 -32t68 -21.5t67.5 -7.5q39 0 70.5 11t49.5 33t18 55q0 29 -19.5 48t-51.5 32t-70 24t-76 25t-70 35.5t-51.5 54t-19.5 81.5q0 55 30 95.5t81.5 63t115.5 22.5q62 0 113.5 -15.5t92.5 -44.5l-45 -74q-31 20 -74.5 34.5
t-90.5 14.5q-37 0 -66 -12t-45 -33.5t-16 -48.5q0 -31 19.5 -51.5t51 -34t70 -25t76.5 -25t69.5 -33.5t51 -50.5t19.5 -76.5q0 -64 -32.5 -106.5t-87 -63.5t-119.5 -21q-38 0 -68 3t-52 8zM243 0h66l-77 -186l-69 30z" />
    <glyph glyph-name="Scircumflex" unicode="&#x15c;" horiz-adv-x="551" 
d="M153 -1q-44 12 -115 58l43 78q29 -18 62.5 -32t68 -21.5t67.5 -7.5q39 0 70.5 11t49.5 33t18 55q0 29 -19.5 48t-51.5 32t-70 24t-76 25t-70 35.5t-51.5 54t-19.5 81.5q0 55 30 95.5t81.5 63t115.5 22.5q62 0 113.5 -15.5t92.5 -44.5l-45 -74q-31 20 -74.5 34.5
t-90.5 14.5q-37 0 -66 -12t-45 -33.5t-16 -48.5q0 -31 19.5 -51.5t51 -34t70 -25t76.5 -25t69.5 -33.5t51 -50.5t19.5 -76.5q0 -64 -32.5 -106.5t-87 -63.5t-119.5 -21q-38 0 -68 3t-52 8zM235 850l-120 -156h85l76 101l76 -101h85l-120 156h-82z" />
    <glyph glyph-name="Scommaaccent" unicode="&#x218;" horiz-adv-x="551" 
d="M153 -1q-44 12 -115 58l43 78q29 -18 62.5 -32t68 -21.5t67.5 -7.5q39 0 70.5 11t49.5 33t18 55q0 29 -19.5 48t-51.5 32t-70 24t-76 25t-70 35.5t-51.5 54t-19.5 81.5q0 55 30 95.5t81.5 63t115.5 22.5q62 0 113.5 -15.5t92.5 -44.5l-45 -74q-31 20 -74.5 34.5
t-90.5 14.5q-37 0 -66 -12t-45 -33.5t-16 -48.5q0 -31 19.5 -51.5t51 -34t70 -25t76.5 -25t69.5 -33.5t51 -50.5t19.5 -76.5q0 -64 -32.5 -106.5t-87 -63.5t-119.5 -21q-38 0 -68 3t-52 8zM321 -51l-54 -142h-70l34 142h90z" />
    <glyph glyph-name="Tbar" unicode="&#x166;" horiz-adv-x="516" 
d="M506 556h-203v-556h-91v556h-203v85h497v-85zM106 342h303v-67h-303v10v23.5v23.5v10z" />
    <glyph glyph-name="Tcaron" unicode="&#x164;" horiz-adv-x="516" 
d="M506 556h-203v-556h-91v556h-203v85h497v-85zM299 694h-82l-120 156h85l76 -101l76 101h85z" />
    <glyph glyph-name="Tcedilla" unicode="&#x162;" horiz-adv-x="516" 
d="M506 556h-203v-556h-91v556h-203v85h497v-85zM225 0h66l-77 -186l-69 30z" />
    <glyph glyph-name="Tcommaaccent" unicode="&#x21a;" horiz-adv-x="516" 
d="M506 556h-203v-556h-91v556h-203v85h497v-85zM303 -51l-54 -142h-70l34 142h90z" />
    <glyph glyph-name="Uacute" unicode="&#xda;" horiz-adv-x="656" 
d="M77 250v391h90v-391q0 -52 20.5 -91t56.5 -60.5t84 -21.5q49 0 84.5 21.5t55.5 60.5t20 91v391h91v-391q0 -79 -31.5 -138t-88 -91.5t-132.5 -32.5q-75 0 -131.5 32.5t-87.5 91.5t-31 138zM376 850h107l-123 -156h-8.5h-20.5h-24h-20.5h-8.5z" />
    <glyph glyph-name="Ubreve" unicode="&#x16c;" horiz-adv-x="656" 
d="M77 250v391h90v-391q0 -52 20.5 -91t56.5 -60.5t84 -21.5q49 0 84.5 21.5t55.5 60.5t20 91v391h91v-391q0 -79 -31.5 -138t-88 -91.5t-132.5 -32.5q-75 0 -131.5 32.5t-87.5 91.5t-31 138zM327 684q-41 0 -73.5 19t-51 54t-18.5 82h66q0 -47 23 -70t54 -23q32 0 55 23
t23 70h66q0 -47 -18.5 -82t-51 -54t-74.5 -19z" />
    <glyph glyph-name="Ucircumflex" unicode="&#xdb;" horiz-adv-x="656" 
d="M77 250v391h90v-391q0 -52 20.5 -91t56.5 -60.5t84 -21.5q49 0 84.5 21.5t55.5 60.5t20 91v391h91v-391q0 -79 -31.5 -138t-88 -91.5t-132.5 -32.5q-75 0 -131.5 32.5t-87.5 91.5t-31 138zM287 850l-120 -156h85l76 101l76 -101h85l-120 156h-82z" />
    <glyph glyph-name="Udieresis" unicode="&#xdc;" horiz-adv-x="656" 
d="M77 250v391h90v-391q0 -52 20.5 -91t56.5 -60.5t84 -21.5q49 0 84.5 21.5t55.5 60.5t20 91v391h91v-391q0 -79 -31.5 -138t-88 -91.5t-132.5 -32.5q-75 0 -131.5 32.5t-87.5 91.5t-31 138zM194 776q0 20 14.5 35.5t35.5 15.5q22 0 37 -15.5t15 -35.5q0 -22 -15 -36.5
t-37 -14.5q-21 0 -35.5 14.5t-14.5 36.5zM360 776q0 20 15 35.5t36 15.5t36 -15.5t15 -35.5q0 -22 -15 -36.5t-36 -14.5t-36 14.5t-15 36.5z" />
    <glyph glyph-name="Ugrave" unicode="&#xd9;" horiz-adv-x="656" 
d="M77 250v391h90v-391q0 -52 20.5 -91t56.5 -60.5t84 -21.5q49 0 84.5 21.5t55.5 60.5t20 91v391h91v-391q0 -79 -31.5 -138t-88 -91.5t-132.5 -32.5q-75 0 -131.5 32.5t-87.5 91.5t-31 138zM279 850l98 -156h-8h-20h-24.5h-20.5h-8l-123 156h106z" />
    <glyph glyph-name="Uhungarumlaut" unicode="&#x170;" horiz-adv-x="656" 
d="M77 250v391h90v-391q0 -52 20.5 -91t56.5 -60.5t84 -21.5q49 0 84.5 21.5t55.5 60.5t20 91v391h91v-391q0 -79 -31.5 -138t-88 -91.5t-132.5 -32.5q-75 0 -131.5 32.5t-87.5 91.5t-31 138zM297 850h91l-119 -156h-10.5h-24.5h-24.5h-10.5zM453 850h96l-123 -156h-10.5
h-25h-25h-10.5z" />
    <glyph glyph-name="Umacron" unicode="&#x16a;" horiz-adv-x="656" 
d="M77 250v391h90v-391q0 -52 20.5 -91t56.5 -60.5t84 -21.5q49 0 84.5 21.5t55.5 60.5t20 91v391h91v-391q0 -79 -31.5 -138t-88 -91.5t-132.5 -32.5q-75 0 -131.5 32.5t-87.5 91.5t-31 138zM187 813h281v-68h-281v10.5v23.5v23.5v10.5z" />
    <glyph glyph-name="Uogonek" unicode="&#x172;" horiz-adv-x="656" 
d="M77 250v391h90v-391q0 -52 20.5 -91t56.5 -60.5t84 -21.5q49 0 84.5 21.5t55.5 60.5t20 91v391h91v-391q0 -79 -31.5 -138t-88 -91.5t-132.5 -32.5q-75 0 -131.5 32.5t-87.5 91.5t-31 138zM363 29l48 -29q-58 -23 -88.5 -51t-30.5 -57q0 -16 11 -25.5t29 -9.5q16 0 29 6
t29 19l29 -50q-18 -19 -44 -29.5t-57 -10.5q-30 0 -52.5 10t-35 29t-12.5 45q0 46 35 83.5t110 69.5z" />
    <glyph glyph-name="Uring" unicode="&#x16e;" horiz-adv-x="656" 
d="M77 250v391h90v-391q0 -52 20.5 -91t56.5 -60.5t84 -21.5q49 0 84.5 21.5t55.5 60.5t20 91v391h91v-391q0 -79 -31.5 -138t-88 -91.5t-132.5 -32.5q-75 0 -131.5 32.5t-87.5 91.5t-31 138zM328 684q-32 0 -58 15t-41 40t-15 55q0 31 15 55.5t41 39.5t58 15q33 0 58.5 -15
t40.5 -39.5t15 -55.5q0 -30 -15 -55t-40.5 -40t-58.5 -15zM329 740q23 0 38.5 15t15.5 39t-15.5 39.5t-38.5 15.5q-22 0 -38.5 -15.5t-16.5 -39.5t16.5 -39t38.5 -15z" />
    <glyph glyph-name="Utilde" unicode="&#x168;" horiz-adv-x="656" 
d="M77 250v391h90v-391q0 -52 20.5 -91t56.5 -60.5t84 -21.5q49 0 84.5 21.5t55.5 60.5t20 91v391h91v-391q0 -79 -31.5 -138t-88 -91.5t-132.5 -32.5q-75 0 -131.5 32.5t-87.5 91.5t-31 138zM401 710q-22 0 -40.5 8t-36 19t-35 19t-35.5 8q-20 0 -30.5 -15.5t-21.5 -36.5
l-44 36q19 46 44.5 64.5t52.5 18.5q22 0 40.5 -8.5t36 -19t34.5 -19t35 -8.5q21 0 31.5 16t20.5 37l44 -36q-18 -46 -43 -64.5t-53 -18.5z" />
    <glyph glyph-name="Wacute" unicode="&#x1e82;" horiz-adv-x="985" 
d="M864 641h96l-206 -641h-112l-160 559h18l-161 -559h-108l-206 641h100l169 -562h-17l161 562h113l162 -562h-18zM541 850h107l-123 -156h-8.5h-20.5h-24h-20.5h-8.5z" />
    <glyph glyph-name="Wcircumflex" unicode="&#x174;" horiz-adv-x="985" 
d="M864 641h96l-206 -641h-112l-160 559h18l-161 -559h-108l-206 641h100l169 -562h-17l161 562h113l162 -562h-18zM452 850l-120 -156h85l76 101l76 -101h85l-120 156h-82z" />
    <glyph glyph-name="Wdieresis" unicode="&#x1e84;" horiz-adv-x="985" 
d="M864 641h96l-206 -641h-112l-160 559h18l-161 -559h-108l-206 641h100l169 -562h-17l161 562h113l162 -562h-18zM359 776q0 20 14.5 35.5t35.5 15.5q22 0 37 -15.5t15 -35.5q0 -22 -15 -36.5t-37 -14.5q-21 0 -35.5 14.5t-14.5 36.5zM525 776q0 20 15 35.5t36 15.5
t36 -15.5t15 -35.5q0 -22 -15 -36.5t-36 -14.5t-36 14.5t-15 36.5z" />
    <glyph glyph-name="Wgrave" unicode="&#x1e80;" horiz-adv-x="985" 
d="M864 641h96l-206 -641h-112l-160 559h18l-161 -559h-108l-206 641h100l169 -562h-17l161 562h113l162 -562h-18zM444 850l98 -156h-8h-20h-24.5h-20.5h-8l-123 156h106z" />
    <glyph glyph-name="Yacute" unicode="&#xdd;" horiz-adv-x="587" 
d="M248 0v246h9h23h27.5h22.5h9v-246h-91zM480 641h97l-238 -425h-91l-239 425h102l197 -354h-27zM342 850h107l-123 -156h-8.5h-20.5h-24h-20.5h-8.5z" />
    <glyph glyph-name="Ycircumflex" unicode="&#x176;" horiz-adv-x="587" 
d="M248 0v246h9h23h27.5h22.5h9v-246h-91zM480 641h97l-238 -425h-91l-239 425h102l197 -354h-27zM253 850l-120 -156h85l76 101l76 -101h85l-120 156h-82z" />
    <glyph glyph-name="Ydieresis" unicode="&#x178;" horiz-adv-x="587" 
d="M248 0v246h9h23h27.5h22.5h9v-246h-91zM480 641h97l-238 -425h-91l-239 425h102l197 -354h-27zM160 776q0 20 14.5 35.5t35.5 15.5q22 0 37 -15.5t15 -35.5q0 -22 -15 -36.5t-37 -14.5q-21 0 -35.5 14.5t-14.5 36.5zM326 776q0 20 15 35.5t36 15.5t36 -15.5t15 -35.5
q0 -22 -15 -36.5t-36 -14.5t-36 14.5t-15 36.5z" />
    <glyph glyph-name="Ygrave" unicode="&#x1ef2;" horiz-adv-x="587" 
d="M248 0v246h9h23h27.5h22.5h9v-246h-91zM480 641h97l-238 -425h-91l-239 425h102l197 -354h-27zM245 850l98 -156h-8h-20h-24.5h-20.5h-8l-123 156h106z" />
    <glyph glyph-name="Zacute" unicode="&#x179;" horiz-adv-x="556" 
d="M37 85l362 471h-357v85h473v-85l-362 -471h366v-85h-482v85zM326 850h107l-123 -156h-8.5h-20.5h-24h-20.5h-8.5z" />
    <glyph glyph-name="Zcaron" unicode="&#x17d;" horiz-adv-x="556" 
d="M37 85l362 471h-357v85h473v-85l-362 -471h366v-85h-482v85zM319 694h-82l-120 156h85l76 -101l76 101h85z" />
    <glyph glyph-name="Zdotaccent" unicode="&#x17b;" horiz-adv-x="556" 
d="M37 85l362 471h-357v85h473v-85l-362 -471h366v-85h-482v85zM223 779q0 23 16 39t39 16t39 -16t16 -39q0 -22 -16 -38.5t-39 -16.5t-39 16.5t-16 38.5z" />
    <glyph glyph-name="Gbreve.alt" horiz-adv-x="738" 
d="M376 -12q-68 0 -127 24t-104 68.5t-70.5 105.5t-25.5 134q0 69 26.5 129.5t73.5 106t108 71.5t130 26q77 0 134 -21.5t98 -58.5l-58 -67q-32 27 -75.5 43.5t-97.5 16.5q-49 0 -93 -19t-77.5 -52.5t-53 -78.5t-19.5 -96q0 -73 31 -128.5t84 -86t117 -30.5q67 0 114.5 24.5
t74.5 65.5t31 90v93l32 -66h-242v84h302v-129q-10 -64 -48.5 -121t-104.5 -92.5t-160 -35.5zM368 684q-41 0 -73.5 19t-51 54t-18.5 82h66q0 -47 23 -70t54 -23q32 0 55 23t23 70h66q0 -47 -18.5 -82t-51 -54t-74.5 -19z" />
    <glyph glyph-name="Gcircumflex.alt" horiz-adv-x="738" 
d="M376 -12q-68 0 -127 24t-104 68.5t-70.5 105.5t-25.5 134q0 69 26.5 129.5t73.5 106t108 71.5t130 26q77 0 134 -21.5t98 -58.5l-58 -67q-32 27 -75.5 43.5t-97.5 16.5q-49 0 -93 -19t-77.5 -52.5t-53 -78.5t-19.5 -96q0 -73 31 -128.5t84 -86t117 -30.5q67 0 114.5 24.5
t74.5 65.5t31 90v93l32 -66h-242v84h302v-129q-10 -64 -48.5 -121t-104.5 -92.5t-160 -35.5zM328 850l-120 -156h85l76 101l76 -101h85l-120 156h-82z" />
    <glyph glyph-name="Gcommaaccent.alt" horiz-adv-x="738" 
d="M376 -12q-68 0 -127 24t-104 68.5t-70.5 105.5t-25.5 134q0 69 26.5 129.5t73.5 106t108 71.5t130 26q77 0 134 -21.5t98 -58.5l-58 -67q-32 27 -75.5 43.5t-97.5 16.5q-49 0 -93 -19t-77.5 -52.5t-53 -78.5t-19.5 -96q0 -73 31 -128.5t84 -86t117 -30.5q67 0 114.5 24.5
t74.5 65.5t31 90v93l32 -66h-242v84h302v-129q-10 -64 -48.5 -121t-104.5 -92.5t-160 -35.5zM414 -51l-54 -142h-70l34 142h90z" />
    <glyph glyph-name="Gdotaccent.alt" horiz-adv-x="738" 
d="M376 -12q-68 0 -127 24t-104 68.5t-70.5 105.5t-25.5 134q0 69 26.5 129.5t73.5 106t108 71.5t130 26q77 0 134 -21.5t98 -58.5l-58 -67q-32 27 -75.5 43.5t-97.5 16.5q-49 0 -93 -19t-77.5 -52.5t-53 -78.5t-19.5 -96q0 -73 31 -128.5t84 -86t117 -30.5q67 0 114.5 24.5
t74.5 65.5t31 90v93l32 -66h-242v84h302v-129q-10 -64 -48.5 -121t-104.5 -92.5t-160 -35.5zM314 779q0 23 16 39t39 16t39 -16t16 -39q0 -22 -16 -38.5t-39 -16.5t-39 16.5t-16 38.5z" />
    <glyph glyph-name="aacute" unicode="&#xe1;" horiz-adv-x="613" 
d="M445 0v479h89v-479h-9h-22h-26.5h-22.5h-9zM277 -12q-65 0 -117.5 33t-83.5 90t-31 129q0 71 30 128t82.5 90t119.5 33q65 0 111.5 -33t71.5 -90t25 -128q0 -68 -25 -125.5t-71.5 -92t-111.5 -34.5zM290 71q45 0 80 23t55 61.5t20 84.5q0 47 -20 85t-55 60.5t-80 22.5
t-80.5 -22.5t-55.5 -60.5t-20 -85q0 -46 20 -84.5t55.5 -61.5t80.5 -23zM343 688h107l-123 -156h-8.5h-20.5h-24h-20.5h-8.5z" />
    <glyph glyph-name="abreve" unicode="&#x103;" horiz-adv-x="613" 
d="M445 0v479h89v-479h-9h-22h-26.5h-22.5h-9zM277 -12q-65 0 -117.5 33t-83.5 90t-31 129q0 71 30 128t82.5 90t119.5 33q65 0 111.5 -33t71.5 -90t25 -128q0 -68 -25 -125.5t-71.5 -92t-111.5 -34.5zM290 71q45 0 80 23t55 61.5t20 84.5q0 47 -20 85t-55 60.5t-80 22.5
t-80.5 -22.5t-55.5 -60.5t-20 -85q0 -46 20 -84.5t55.5 -61.5t80.5 -23zM294 522q-41 0 -73.5 19t-51 54t-18.5 82h66q0 -47 23 -70t54 -23q32 0 55 23t23 70h66q0 -47 -18.5 -82t-51 -54t-74.5 -19z" />
    <glyph glyph-name="acircumflex" unicode="&#xe2;" horiz-adv-x="613" 
d="M445 0v479h89v-479h-9h-22h-26.5h-22.5h-9zM277 -12q-65 0 -117.5 33t-83.5 90t-31 129q0 71 30 128t82.5 90t119.5 33q65 0 111.5 -33t71.5 -90t25 -128q0 -68 -25 -125.5t-71.5 -92t-111.5 -34.5zM290 71q45 0 80 23t55 61.5t20 84.5q0 47 -20 85t-55 60.5t-80 22.5
t-80.5 -22.5t-55.5 -60.5t-20 -85q0 -46 20 -84.5t55.5 -61.5t80.5 -23zM254 688l-120 -156h85l76 101l76 -101h85l-120 156h-82z" />
    <glyph glyph-name="adieresis" unicode="&#xe4;" horiz-adv-x="613" 
d="M445 0v479h89v-479h-9h-22h-26.5h-22.5h-9zM277 -12q-65 0 -117.5 33t-83.5 90t-31 129q0 71 30 128t82.5 90t119.5 33q65 0 111.5 -33t71.5 -90t25 -128q0 -68 -25 -125.5t-71.5 -92t-111.5 -34.5zM290 71q45 0 80 23t55 61.5t20 84.5q0 47 -20 85t-55 60.5t-80 22.5
t-80.5 -22.5t-55.5 -60.5t-20 -85q0 -46 20 -84.5t55.5 -61.5t80.5 -23zM161 614q0 20 14.5 35.5t35.5 15.5q22 0 37 -15.5t15 -35.5q0 -22 -15 -36.5t-37 -14.5q-21 0 -35.5 14.5t-14.5 36.5zM327 614q0 20 15 35.5t36 15.5t36 -15.5t15 -35.5q0 -22 -15 -36.5t-36 -14.5
t-36 14.5t-15 36.5z" />
    <glyph glyph-name="agrave" unicode="&#xe0;" horiz-adv-x="613" 
d="M445 0v479h89v-479h-9h-22h-26.5h-22.5h-9zM277 -12q-65 0 -117.5 33t-83.5 90t-31 129q0 71 30 128t82.5 90t119.5 33q65 0 111.5 -33t71.5 -90t25 -128q0 -68 -25 -125.5t-71.5 -92t-111.5 -34.5zM290 71q45 0 80 23t55 61.5t20 84.5q0 47 -20 85t-55 60.5t-80 22.5
t-80.5 -22.5t-55.5 -60.5t-20 -85q0 -46 20 -84.5t55.5 -61.5t80.5 -23zM246 688l98 -156h-8h-20h-24.5h-20.5h-8l-123 156h106z" />
    <glyph glyph-name="amacron" unicode="&#x101;" horiz-adv-x="613" 
d="M445 0v479h89v-479h-9h-22h-26.5h-22.5h-9zM277 -12q-65 0 -117.5 33t-83.5 90t-31 129q0 71 30 128t82.5 90t119.5 33q65 0 111.5 -33t71.5 -90t25 -128q0 -68 -25 -125.5t-71.5 -92t-111.5 -34.5zM290 71q45 0 80 23t55 61.5t20 84.5q0 47 -20 85t-55 60.5t-80 22.5
t-80.5 -22.5t-55.5 -60.5t-20 -85q0 -46 20 -84.5t55.5 -61.5t80.5 -23zM154 651h281v-68h-281v10.5v23.5v23.5v10.5z" />
    <glyph glyph-name="aogonek" unicode="&#x105;" horiz-adv-x="613" 
d="M445 0v479h89v-479h-9h-22h-26.5h-22.5h-9zM277 -12q-65 0 -117.5 33t-83.5 90t-31 129q0 71 30 128t82.5 90t119.5 33q65 0 111.5 -33t71.5 -90t25 -128q0 -68 -25 -125.5t-71.5 -92t-111.5 -34.5zM290 71q45 0 80 23t55 61.5t20 84.5q0 47 -20 85t-55 60.5t-80 22.5
t-80.5 -22.5t-55.5 -60.5t-20 -85q0 -46 20 -84.5t55.5 -61.5t80.5 -23zM486 29l48 -29q-58 -23 -88.5 -51t-30.5 -57q0 -16 11 -25.5t29 -9.5q16 0 29 6t29 19l29 -50q-18 -19 -44 -29.5t-57 -10.5q-30 0 -52.5 10t-35 29t-12.5 45q0 46 35 83.5t110 69.5z" />
    <glyph glyph-name="aring" unicode="&#xe5;" horiz-adv-x="613" 
d="M445 0v479h89v-479h-9h-22h-26.5h-22.5h-9zM277 -12q-65 0 -117.5 33t-83.5 90t-31 129q0 71 30 128t82.5 90t119.5 33q65 0 111.5 -33t71.5 -90t25 -128q0 -68 -25 -125.5t-71.5 -92t-111.5 -34.5zM290 71q45 0 80 23t55 61.5t20 84.5q0 47 -20 85t-55 60.5t-80 22.5
t-80.5 -22.5t-55.5 -60.5t-20 -85q0 -46 20 -84.5t55.5 -61.5t80.5 -23zM295 522q-32 0 -58 15t-41 40t-15 55q0 31 15 55.5t41 39.5t58 15q33 0 58.5 -15t40.5 -39.5t15 -55.5q0 -30 -15 -55t-40.5 -40t-58.5 -15zM296 578q23 0 38.5 15t15.5 39t-15.5 39.5t-38.5 15.5
q-22 0 -38.5 -15.5t-16.5 -39.5t16.5 -39t38.5 -15z" />
    <glyph glyph-name="atilde" unicode="&#xe3;" horiz-adv-x="613" 
d="M445 0v479h89v-479h-9h-22h-26.5h-22.5h-9zM277 -12q-65 0 -117.5 33t-83.5 90t-31 129q0 71 30 128t82.5 90t119.5 33q65 0 111.5 -33t71.5 -90t25 -128q0 -68 -25 -125.5t-71.5 -92t-111.5 -34.5zM290 71q45 0 80 23t55 61.5t20 84.5q0 47 -20 85t-55 60.5t-80 22.5
t-80.5 -22.5t-55.5 -60.5t-20 -85q0 -46 20 -84.5t55.5 -61.5t80.5 -23zM368 548q-22 0 -40.5 8t-36 19t-35 19t-35.5 8q-20 0 -30.5 -15.5t-21.5 -36.5l-44 36q19 46 44.5 64.5t52.5 18.5q22 0 40.5 -8.5t36 -19t34.5 -19t35 -8.5q21 0 31.5 16t20.5 37l44 -36
q-18 -46 -43 -64.5t-53 -18.5z" />
    <glyph glyph-name="ae" unicode="&#xe6;" horiz-adv-x="948" 
d="M445 0v479h84v-479h-8.5h-21h-25h-21h-8.5zM277 -12q-65 0 -117.5 33t-83.5 90t-31 129q0 71 30 128t82.5 90t119.5 33q65 0 111.5 -33t72 -90t25.5 -128q0 -68 -25.5 -125.5t-72.5 -92t-111 -34.5zM290 71q45 0 80 23t55 61.5t20 84.5q0 47 -20 85t-55 60.5t-80 22.5
t-80.5 -22.5t-55.5 -60.5t-20 -85q0 -46 20 -84.5t55.5 -61.5t80.5 -23zM701 -12q-63 0 -112.5 33.5t-78 90.5t-28.5 128t27 128t74.5 90t108.5 33t111 -32.5t80 -87t30 -122.5q0 -9 -0.5 -18t-1.5 -14h-412v60h344l-18 -21q-6 76 -46.5 117.5t-99.5 41.5q-45 0 -78.5 -23.5
t-52.5 -63t-19 -88.5q0 -48 20.5 -87.5t57.5 -62.5t85 -23q42 0 77.5 14.5t59.5 38.5l46 -61q-19 -21 -47.5 -37t-61 -25t-65.5 -9z" />
    <glyph glyph-name="cacute" unicode="&#x107;" horiz-adv-x="487" 
d="M421 361q-25 23 -56 35t-71 12q-48 0 -84 -22.5t-56 -60.5t-20 -85q0 -46 20.5 -84.5t56.5 -61.5t82 -23q40 0 73 12.5t57 36.5l46 -65q-28 -31 -75.5 -49t-102.5 -18q-70 0 -125.5 34t-88 91.5t-32.5 126.5q0 70 32.5 126.5t88.5 90.5t126 34q57 0 103.5 -18t76.5 -49z
M340 688h107l-123 -156h-8.5h-20.5h-24h-20.5h-8.5z" />
    <glyph glyph-name="ccaron" unicode="&#x10d;" horiz-adv-x="487" 
d="M421 361q-25 23 -56 35t-71 12q-48 0 -84 -22.5t-56 -60.5t-20 -85q0 -46 20.5 -84.5t56.5 -61.5t82 -23q40 0 73 12.5t57 36.5l46 -65q-28 -31 -75.5 -49t-102.5 -18q-70 0 -125.5 34t-88 91.5t-32.5 126.5q0 70 32.5 126.5t88.5 90.5t126 34q57 0 103.5 -18t76.5 -49z
M333 532h-82l-120 156h85l76 -101l76 101h85z" />
    <glyph glyph-name="ccedilla" unicode="&#xe7;" horiz-adv-x="487" 
d="M421 361q-25 23 -56 35t-71 12q-48 0 -84 -22.5t-56 -60.5t-20 -85q0 -46 20.5 -84.5t56.5 -61.5t82 -23q40 0 73 12.5t57 36.5l46 -65q-28 -31 -75.5 -49t-102.5 -18q-70 0 -125.5 34t-88 91.5t-32.5 126.5q0 70 32.5 126.5t88.5 90.5t126 34q57 0 103.5 -18t76.5 -49z
M270 0h66l-77 -186l-69 30z" />
    <glyph glyph-name="ccircumflex" unicode="&#x109;" horiz-adv-x="487" 
d="M421 361q-25 23 -56 35t-71 12q-48 0 -84 -22.5t-56 -60.5t-20 -85q0 -46 20.5 -84.5t56.5 -61.5t82 -23q40 0 73 12.5t57 36.5l46 -65q-28 -31 -75.5 -49t-102.5 -18q-70 0 -125.5 34t-88 91.5t-32.5 126.5q0 70 32.5 126.5t88.5 90.5t126 34q57 0 103.5 -18t76.5 -49z
M251 688l-120 -156h85l76 101l76 -101h85l-120 156h-82z" />
    <glyph glyph-name="cdotaccent" unicode="&#x10b;" horiz-adv-x="487" 
d="M421 361q-25 23 -56 35t-71 12q-48 0 -84 -22.5t-56 -60.5t-20 -85q0 -46 20.5 -84.5t56.5 -61.5t82 -23q40 0 73 12.5t57 36.5l46 -65q-28 -31 -75.5 -49t-102.5 -18q-70 0 -125.5 34t-88 91.5t-32.5 126.5q0 70 32.5 126.5t88.5 90.5t126 34q57 0 103.5 -18t76.5 -49z
M237 617q0 23 16 39t39 16t39 -16t16 -39q0 -22 -16 -38.5t-39 -16.5t-39 16.5t-16 38.5z" />
    <glyph glyph-name="eth" unicode="&#xf0;" horiz-adv-x="579" 
d="M290 71q45 0 80 21.5t55 58t20 81.5q0 46 -20 82t-55 57t-80 21t-80.5 -21t-55.5 -57t-20 -82q0 -45 20 -81.5t55.5 -58t80.5 -21.5zM289 469q27 0 52 -8.5t46.5 -22.5t38.5 -33l-6 -4q-24 62 -65 112.5t-87 86.5t-86 55l59 56q62 -30 115 -76t93 -104.5t62.5 -126.5
t22.5 -142q0 -84 -31 -145.5t-86.5 -95t-127.5 -33.5q-68 0 -123.5 32.5t-88 88t-32.5 123.5t32.5 121.5t88 84.5t123.5 31zM226 525l-29 50l205 115l29 -50z" />
    <glyph glyph-name="dcaron" unicode="&#x10f;" horiz-adv-x="613" 
d="M277 -12q-65 0 -117.5 33t-83.5 90t-31 129q0 71 30 128t82.5 90t119.5 33q65 0 111.5 -33t71.5 -90t25 -128q0 -68 -25 -125.5t-71.5 -92t-111.5 -34.5zM290 71q45 0 80 23t55 61.5t20 84.5q0 47 -20 85t-55 60.5t-80 22.5t-80.5 -22.5t-55.5 -60.5t-20 -85
q0 -46 20 -84.5t55.5 -61.5t80.5 -23zM445 0v688h89v-688h-44h-45zM674 688l-38 -166h-66l20 166h84z" />
    <glyph glyph-name="dcroat" unicode="&#x111;" horiz-adv-x="613" 
d="M290 71q45 0 80 23t55 61.5t20 84.5q0 47 -20 85t-55 60.5t-80 22.5t-80.5 -22.5t-55.5 -60.5t-20 -85q0 -46 20 -84.5t55.5 -61.5t80.5 -23zM445 688h89v-688h-89v688zM277 -12q-65 0 -117.5 33t-83.5 90t-31 129q0 71 30 128t82.5 90t119.5 33q65 0 111.5 -33t71.5 -90
t25 -128q0 -68 -25 -125.5t-71.5 -92t-111.5 -34.5zM307 631h281v-68h-281v10.5v23.5v23.5v10.5z" />
    <glyph glyph-name="eacute" unicode="&#xe9;" horiz-adv-x="553" 
d="M296 -12q-73 0 -129.5 34t-89 91.5t-32.5 126.5q0 70 31 126.5t84.5 90.5t121.5 34q67 0 120.5 -32.5t84.5 -87t31 -122.5q0 -9 -0.5 -20.5t-2.5 -16.5h-411v73h344l-19 -29q-6 76 -46 117.5t-100 41.5q-44 0 -78 -23.5t-52.5 -63t-18.5 -88.5q0 -48 20.5 -87.5t58 -62.5
t86.5 -23q41 0 75.5 14.5t58.5 38.5l47 -61q-29 -31 -77.5 -51t-106.5 -20zM330 688h107l-123 -156h-8.5h-20.5h-24h-20.5h-8.5z" />
    <glyph glyph-name="ebreve" unicode="&#x115;" horiz-adv-x="553" 
d="M296 -12q-73 0 -129.5 34t-89 91.5t-32.5 126.5q0 70 31 126.5t84.5 90.5t121.5 34q67 0 120.5 -32.5t84.5 -87t31 -122.5q0 -9 -0.5 -20.5t-2.5 -16.5h-411v73h344l-19 -29q-6 76 -46 117.5t-100 41.5q-44 0 -78 -23.5t-52.5 -63t-18.5 -88.5q0 -48 20.5 -87.5t58 -62.5
t86.5 -23q41 0 75.5 14.5t58.5 38.5l47 -61q-29 -31 -77.5 -51t-106.5 -20zM281 522q-41 0 -73.5 19t-51 54t-18.5 82h66q0 -47 23 -70t54 -23q32 0 55 23t23 70h66q0 -47 -18.5 -82t-51 -54t-74.5 -19z" />
    <glyph glyph-name="ecaron" unicode="&#x11b;" horiz-adv-x="553" 
d="M296 -12q-73 0 -129.5 34t-89 91.5t-32.5 126.5q0 70 31 126.5t84.5 90.5t121.5 34q67 0 120.5 -32.5t84.5 -87t31 -122.5q0 -9 -0.5 -20.5t-2.5 -16.5h-411v73h344l-19 -29q-6 76 -46 117.5t-100 41.5q-44 0 -78 -23.5t-52.5 -63t-18.5 -88.5q0 -48 20.5 -87.5t58 -62.5
t86.5 -23q41 0 75.5 14.5t58.5 38.5l47 -61q-29 -31 -77.5 -51t-106.5 -20zM323 532h-82l-120 156h85l76 -101l76 101h85z" />
    <glyph glyph-name="ecircumflex" unicode="&#xea;" horiz-adv-x="553" 
d="M296 -12q-73 0 -129.5 34t-89 91.5t-32.5 126.5q0 70 31 126.5t84.5 90.5t121.5 34q67 0 120.5 -32.5t84.5 -87t31 -122.5q0 -9 -0.5 -20.5t-2.5 -16.5h-411v73h344l-19 -29q-6 76 -46 117.5t-100 41.5q-44 0 -78 -23.5t-52.5 -63t-18.5 -88.5q0 -48 20.5 -87.5t58 -62.5
t86.5 -23q41 0 75.5 14.5t58.5 38.5l47 -61q-29 -31 -77.5 -51t-106.5 -20zM241 688l-120 -156h85l76 101l76 -101h85l-120 156h-82z" />
    <glyph glyph-name="edieresis" unicode="&#xeb;" horiz-adv-x="553" 
d="M296 -12q-73 0 -129.5 34t-89 91.5t-32.5 126.5q0 70 31 126.5t84.5 90.5t121.5 34q67 0 120.5 -32.5t84.5 -87t31 -122.5q0 -9 -0.5 -20.5t-2.5 -16.5h-411v73h344l-19 -29q-6 76 -46 117.5t-100 41.5q-44 0 -78 -23.5t-52.5 -63t-18.5 -88.5q0 -48 20.5 -87.5t58 -62.5
t86.5 -23q41 0 75.5 14.5t58.5 38.5l47 -61q-29 -31 -77.5 -51t-106.5 -20zM148 614q0 20 14.5 35.5t35.5 15.5q22 0 37 -15.5t15 -35.5q0 -22 -15 -36.5t-37 -14.5q-21 0 -35.5 14.5t-14.5 36.5zM314 614q0 20 15 35.5t36 15.5t36 -15.5t15 -35.5q0 -22 -15 -36.5
t-36 -14.5t-36 14.5t-15 36.5z" />
    <glyph glyph-name="edotaccent" unicode="&#x117;" horiz-adv-x="553" 
d="M296 -12q-73 0 -129.5 34t-89 91.5t-32.5 126.5q0 70 31 126.5t84.5 90.5t121.5 34q67 0 120.5 -32.5t84.5 -87t31 -122.5q0 -9 -0.5 -20.5t-2.5 -16.5h-411v73h344l-19 -29q-6 76 -46 117.5t-100 41.5q-44 0 -78 -23.5t-52.5 -63t-18.5 -88.5q0 -48 20.5 -87.5t58 -62.5
t86.5 -23q41 0 75.5 14.5t58.5 38.5l47 -61q-29 -31 -77.5 -51t-106.5 -20zM227 617q0 23 16 39t39 16t39 -16t16 -39q0 -22 -16 -38.5t-39 -16.5t-39 16.5t-16 38.5z" />
    <glyph glyph-name="egrave" unicode="&#xe8;" horiz-adv-x="553" 
d="M296 -12q-73 0 -129.5 34t-89 91.5t-32.5 126.5q0 70 31 126.5t84.5 90.5t121.5 34q67 0 120.5 -32.5t84.5 -87t31 -122.5q0 -9 -0.5 -20.5t-2.5 -16.5h-411v73h344l-19 -29q-6 76 -46 117.5t-100 41.5q-44 0 -78 -23.5t-52.5 -63t-18.5 -88.5q0 -48 20.5 -87.5t58 -62.5
t86.5 -23q41 0 75.5 14.5t58.5 38.5l47 -61q-29 -31 -77.5 -51t-106.5 -20zM233 688l98 -156h-8h-20h-24.5h-20.5h-8l-123 156h106z" />
    <glyph glyph-name="emacron" unicode="&#x113;" horiz-adv-x="553" 
d="M296 -12q-73 0 -129.5 34t-89 91.5t-32.5 126.5q0 70 31 126.5t84.5 90.5t121.5 34q67 0 120.5 -32.5t84.5 -87t31 -122.5q0 -9 -0.5 -20.5t-2.5 -16.5h-411v73h344l-19 -29q-6 76 -46 117.5t-100 41.5q-44 0 -78 -23.5t-52.5 -63t-18.5 -88.5q0 -48 20.5 -87.5t58 -62.5
t86.5 -23q41 0 75.5 14.5t58.5 38.5l47 -61q-29 -31 -77.5 -51t-106.5 -20zM141 651h281v-68h-281v10.5v23.5v23.5v10.5z" />
    <glyph glyph-name="eogonek" unicode="&#x119;" horiz-adv-x="553" 
d="M296 -12q-73 0 -129.5 34t-89 91.5t-32.5 126.5q0 70 31 126.5t84.5 90.5t121.5 34q67 0 120.5 -32.5t84.5 -87t31 -122.5q0 -9 -0.5 -20.5t-2.5 -16.5h-411v73h344l-19 -29q-6 76 -46 117.5t-100 41.5q-44 0 -78 -23.5t-52.5 -63t-18.5 -88.5q0 -48 20.5 -87.5t58 -62.5
t86.5 -23q41 0 75.5 14.5t58.5 38.5l47 -61q-29 -31 -77.5 -51t-106.5 -20zM331 29l48 -29q-58 -23 -88.5 -51t-30.5 -57q0 -16 11 -25.5t29 -9.5q16 0 29 6t29 19l29 -50q-18 -19 -44 -29.5t-57 -10.5q-30 0 -52.5 10t-35 29t-12.5 45q0 46 35 83.5t110 69.5z" />
    <glyph glyph-name="gbreve" unicode="&#x11f;" horiz-adv-x="609" 
d="M128 -77q24 -18 63 -34t91 -16q75 0 116.5 40t41.5 116v450h89v-445q0 -66 -19.5 -112.5t-53 -75t-77.5 -41.5t-93 -13q-65 0 -117 16t-87 45zM273 1q-64 0 -115.5 32t-82 87.5t-30.5 125.5t30.5 124.5t82 86.5t115.5 32q65 0 111 -31.5t71 -86.5t25 -124q0 -66 -25 -122
t-71.5 -90t-110.5 -34zM288 84q45 0 79 22t53.5 59t19.5 82t-19.5 81.5t-53.5 58t-79 21.5t-79.5 -21.5t-54.5 -58t-20 -81.5t20 -82t54.5 -59t79.5 -22zM304 522q-41 0 -73.5 19t-51 54t-18.5 82h66q0 -47 23 -70t54 -23q32 0 55 23t23 70h66q0 -47 -18.5 -82t-51 -54
t-74.5 -19z" />
    <glyph glyph-name="gcircumflex" unicode="&#x11d;" horiz-adv-x="609" 
d="M128 -77q24 -18 63 -34t91 -16q75 0 116.5 40t41.5 116v450h89v-445q0 -66 -19.5 -112.5t-53 -75t-77.5 -41.5t-93 -13q-65 0 -117 16t-87 45zM273 1q-64 0 -115.5 32t-82 87.5t-30.5 125.5t30.5 124.5t82 86.5t115.5 32q65 0 111 -31.5t71 -86.5t25 -124q0 -66 -25 -122
t-71.5 -90t-110.5 -34zM288 84q45 0 79 22t53.5 59t19.5 82t-19.5 81.5t-53.5 58t-79 21.5t-79.5 -21.5t-54.5 -58t-20 -81.5t20 -82t54.5 -59t79.5 -22zM264 688l-120 -156h85l76 101l76 -101h85l-120 156h-82z" />
    <glyph glyph-name="gcommaaccent" unicode="&#x123;" horiz-adv-x="609" 
d="M128 -77q24 -18 63 -34t91 -16q75 0 116.5 40t41.5 116v450h89v-445q0 -66 -19.5 -112.5t-53 -75t-77.5 -41.5t-93 -13q-65 0 -117 16t-87 45zM273 1q-64 0 -115.5 32t-82 87.5t-30.5 125.5t30.5 124.5t82 86.5t115.5 32q65 0 111 -31.5t71 -86.5t25 -124q0 -66 -25 -122
t-71.5 -90t-110.5 -34zM288 84q45 0 79 22t53.5 59t19.5 82t-19.5 81.5t-53.5 58t-79 21.5t-79.5 -21.5t-54.5 -58t-20 -81.5t20 -82t54.5 -59t79.5 -22zM251 538l55 142h72l-35 -142h-92z" />
    <glyph glyph-name="gdotaccent" unicode="&#x121;" horiz-adv-x="609" 
d="M128 -77q24 -18 63 -34t91 -16q75 0 116.5 40t41.5 116v450h89v-445q0 -66 -19.5 -112.5t-53 -75t-77.5 -41.5t-93 -13q-65 0 -117 16t-87 45zM273 1q-64 0 -115.5 32t-82 87.5t-30.5 125.5t30.5 124.5t82 86.5t115.5 32q65 0 111 -31.5t71 -86.5t25 -124q0 -66 -25 -122
t-71.5 -90t-110.5 -34zM288 84q45 0 79 22t53.5 59t19.5 82t-19.5 81.5t-53.5 58t-79 21.5t-79.5 -21.5t-54.5 -58t-20 -81.5t20 -82t54.5 -59t79.5 -22zM250 617q0 23 16 39t39 16t39 -16t16 -39q0 -22 -16 -38.5t-39 -16.5t-39 16.5t-16 38.5z" />
    <glyph glyph-name="hbar" unicode="&#x127;" horiz-adv-x="570" 
d="M80 0v688h88v-688h-88zM168 279l-21 51q7 73 51 117t115 44q84 0 134.5 -53.5t50.5 -144.5v-293h-88v279q0 59 -32.5 94t-88.5 35t-88.5 -35t-32.5 -94zM25 626h281v-67h-281v10v23.5v23.5v10z" />
    <glyph glyph-name="hcircumflex" unicode="&#x125;" horiz-adv-x="570" 
d="M80 0v688h88v-688h-88zM168 279l-21 51q7 73 51 117t115 44q84 0 134.5 -53.5t50.5 -144.5v-293h-88v279q0 59 -32.5 94t-88.5 35t-88.5 -35t-32.5 -94zM244 959l-120 -156h85l76 101l76 -101h85l-120 156h-82z" />
    <glyph glyph-name="idotless" unicode="&#x131;" horiz-adv-x="248" 
d="M168 479v-479h-88v479h9h22h26h22h9z" />
    <glyph glyph-name="iacute" unicode="&#xed;" horiz-adv-x="248" 
d="M168 479v-479h-88v479h9h22h26h22h9zM172 688h107l-123 -156h-8.5h-20.5h-24h-20.5h-8.5z" />
    <glyph glyph-name="ibreve" unicode="&#x12d;" horiz-adv-x="248" 
d="M168 479v-479h-88v479h9h22h26h22h9zM123 522q-41 0 -73.5 19t-51 54t-18.5 82h66q0 -47 23 -70t54 -23q32 0 55 23t23 70h66q0 -47 -18.5 -82t-51 -54t-74.5 -19z" />
    <glyph glyph-name="icircumflex" unicode="&#xee;" horiz-adv-x="248" 
d="M168 479v-479h-88v479h9h22h26h22h9zM83 688l-120 -156h85l76 101l76 -101h85l-120 156h-82z" />
    <glyph glyph-name="idieresis" unicode="&#xef;" horiz-adv-x="248" 
d="M168 479v-479h-88v479h9h22h26h22h9zM-10 614q0 20 14.5 35.5t35.5 15.5q22 0 37 -15.5t15 -35.5q0 -22 -15 -36.5t-37 -14.5q-21 0 -35.5 14.5t-14.5 36.5zM156 614q0 20 15 35.5t36 15.5t36 -15.5t15 -35.5q0 -22 -15 -36.5t-36 -14.5t-36 14.5t-15 36.5z" />
    <glyph glyph-name="igrave" unicode="&#xec;" horiz-adv-x="248" 
d="M168 479v-479h-88v479h9h22h26h22h9zM75 688l98 -156h-8h-20h-24.5h-20.5h-8l-123 156h106z" />
    <glyph glyph-name="ij" unicode="&#x133;" horiz-adv-x="496" 
d="M168 0h-88v479h9h22h26h22h9v-479zM124 562q-23 0 -39 16.5t-16 38.5q0 23 16 39t39 16t39 -16t16 -39q0 -22 -16 -38.5t-39 -16.5zM268 -208q-34 0 -59.5 10t-43.5 26l42 66q11 -9 25 -15t33 -6q29 0 46 21t17 61v524h88v-519q0 -78 -37.5 -123t-110.5 -45zM372 562
q-23 0 -39 16.5t-16 38.5q0 23 16 39t39 16t39 -16t16 -39q0 -22 -16 -38.5t-39 -16.5z" />
    <glyph glyph-name="imacron" unicode="&#x12b;" horiz-adv-x="248" 
d="M168 479v-479h-88v479h9h22h26h22h9zM-17 651h281v-68h-281v10.5v23.5v23.5v10.5z" />
    <glyph glyph-name="iogonek" unicode="&#x12f;" horiz-adv-x="248" 
d="M168 479v-479h-88v479h9h22h26h22h9zM69 617q0 23 16 39t39 16t39 -16t16 -39q0 -22 -16 -38.5t-39 -16.5t-39 16.5t-16 38.5zM120 29l48 -29q-58 -23 -88.5 -51t-30.5 -57q0 -16 11 -25.5t29 -9.5q16 0 29 6t29 19l29 -50q-18 -19 -44 -29.5t-57 -10.5q-30 0 -52.5 10
t-35 29t-12.5 45q0 46 35 83.5t110 69.5z" />
    <glyph glyph-name="itilde" unicode="&#x129;" horiz-adv-x="248" 
d="M168 479v-479h-88v479h9h22h26h22h9zM197 548q-22 0 -40.5 8t-36 19t-35 19t-35.5 8q-20 0 -30.5 -15.5t-21.5 -36.5l-44 36q19 46 44.5 64.5t52.5 18.5q22 0 40.5 -8.5t36 -19t34.5 -19t35 -8.5q21 0 31.5 16t20.5 37l44 -36q-18 -46 -43 -64.5t-53 -18.5z" />
    <glyph glyph-name="jdotless" unicode="&#x237;" horiz-adv-x="248" 
d="M168 479v-519q0 -78 -37.5 -123t-110.5 -45q-34 0 -59.5 10t-43.5 26l42 66q11 -9 25 -15t33 -6q29 0 46 21t17 61v524h88z" />
    <glyph glyph-name="jcircumflex" unicode="&#x135;" horiz-adv-x="248" 
d="M168 479v-519q0 -78 -37.5 -123t-110.5 -45q-34 0 -59.5 10t-43.5 26l42 66q11 -9 25 -15t33 -6q29 0 46 21t17 61v524h88zM83 688l-120 -156h85l76 101l76 -101h85l-120 156h-82z" />
    <glyph glyph-name="kcommaaccent" unicode="&#x137;" horiz-adv-x="521" 
d="M168 0h-88v688h88v-688zM522 0h-116l-255 254l242 225h112l-241 -224zM306 -51l-54 -142h-70l34 142h90z" />
    <glyph glyph-name="lacute" unicode="&#x13a;" horiz-adv-x="277" 
d="M168 688v-522l-88 -8v530h88zM236 77l10 -78q-11 -4 -24.5 -6.5t-24.5 -2.5q-30 0 -56.5 14t-43.5 45t-17 81v78h88v-79q0 -31 14.5 -44t31.5 -13q10 0 22 5zM174 897h107l-123 -156h-8.5h-20.5h-24h-20.5h-8.5z" />
    <glyph glyph-name="lcaron" unicode="&#x13e;" horiz-adv-x="277" 
d="M168 688v-522l-88 -8v530h88zM236 77l10 -78q-11 -4 -24.5 -6.5t-24.5 -2.5q-30 0 -56.5 14t-43.5 45t-17 81v78h88v-79q0 -31 14.5 -44t31.5 -13q10 0 22 5zM303 688l-38 -166h-66l20 166h84z" />
    <glyph glyph-name="lcommaaccent" unicode="&#x13c;" horiz-adv-x="277" 
d="M168 688v-522l-88 -8v530h88zM236 77l10 -78q-11 -4 -24.5 -6.5t-24.5 -2.5q-30 0 -56.5 14t-43.5 45t-17 81v78h88v-79q0 -31 14.5 -44t31.5 -13q10 0 22 5zM219 -51l-54 -142h-70l34 142h90z" />
    <glyph glyph-name="ldot" unicode="&#x140;" horiz-adv-x="326" 
d="M168 688v-522l-88 -8v530h88zM236 77l10 -78q-11 -4 -24.5 -6.5t-24.5 -2.5q-30 0 -56.5 14t-43.5 45t-17 81v78h88v-79q0 -31 14.5 -44t31.5 -13q10 0 22 5zM233 305q0 23 16 39.5t39 16.5t39 -16.5t16 -39.5q0 -22 -16 -38t-39 -16t-39 16t-16 38z" />
    <glyph glyph-name="lslash" unicode="&#x142;" horiz-adv-x="256" 
d="M22 371l221 88v-77l-221 -87v76zM168 688v-522l-88 -8v530h88zM236 77l10 -78q-11 -4 -24.5 -6.5t-24.5 -2.5q-30 0 -56.5 14t-43.5 45t-17 81v78h88v-79q0 -31 14.5 -44t31.5 -13q10 0 22 5z" />
    <glyph glyph-name="nacute" unicode="&#x144;" horiz-adv-x="570" 
d="M168 279l-21 51q7 73 51 117t115 44q84 0 134.5 -53.5t50.5 -144.5v-293h-88v279q0 59 -32.5 94t-88.5 35t-88.5 -35t-32.5 -94zM80 0v479h9h22h26h22h9v-479h-88zM333 688h107l-123 -156h-8.5h-20.5h-24h-20.5h-8.5z" />
    <glyph glyph-name="ncaron" unicode="&#x148;" horiz-adv-x="570" 
d="M168 279l-21 51q7 73 51 117t115 44q84 0 134.5 -53.5t50.5 -144.5v-293h-88v279q0 59 -32.5 94t-88.5 35t-88.5 -35t-32.5 -94zM80 0v479h9h22h26h22h9v-479h-88zM326 532h-82l-120 156h85l76 -101l76 101h85z" />
    <glyph glyph-name="ncommaaccent" unicode="&#x146;" horiz-adv-x="570" 
d="M168 279l-21 51q7 73 51 117t115 44q84 0 134.5 -53.5t50.5 -144.5v-293h-88v279q0 59 -32.5 94t-88.5 35t-88.5 -35t-32.5 -94zM80 0v479h9h22h26h22h9v-479h-88zM330 -51l-54 -142h-70l34 142h90z" />
    <glyph glyph-name="ntilde" unicode="&#xf1;" horiz-adv-x="570" 
d="M168 279l-21 51q7 73 51 117t115 44q84 0 134.5 -53.5t50.5 -144.5v-293h-88v279q0 59 -32.5 94t-88.5 35t-88.5 -35t-32.5 -94zM80 0v479h9h22h26h22h9v-479h-88zM358 548q-22 0 -40.5 8t-36 19t-35 19t-35.5 8q-20 0 -30.5 -15.5t-21.5 -36.5l-44 36q19 46 44.5 64.5
t52.5 18.5q22 0 40.5 -8.5t36 -19t34.5 -19t35 -8.5q21 0 31.5 16t20.5 37l44 -36q-18 -46 -43 -64.5t-53 -18.5z" />
    <glyph glyph-name="oacute" unicode="&#xf3;" horiz-adv-x="579" 
d="M289 -12q-68 0 -123.5 34t-88 91.5t-32.5 126.5q0 70 32.5 126.5t88 90.5t123.5 34q69 0 124.5 -34t88 -90.5t32.5 -126.5q0 -69 -32.5 -126.5t-88 -91.5t-124.5 -34zM290 71q45 0 80 23t55 61.5t20 84.5q0 47 -20 85t-55 60.5t-80 22.5t-80.5 -22.5t-55.5 -60.5t-20 -85
q0 -46 20 -84.5t55.5 -61.5t80.5 -23zM338 688h107l-123 -156h-8.5h-20.5h-24h-20.5h-8.5z" />
    <glyph glyph-name="obreve" unicode="&#x14f;" horiz-adv-x="579" 
d="M289 -12q-68 0 -123.5 34t-88 91.5t-32.5 126.5q0 70 32.5 126.5t88 90.5t123.5 34q69 0 124.5 -34t88 -90.5t32.5 -126.5q0 -69 -32.5 -126.5t-88 -91.5t-124.5 -34zM290 71q45 0 80 23t55 61.5t20 84.5q0 47 -20 85t-55 60.5t-80 22.5t-80.5 -22.5t-55.5 -60.5t-20 -85
q0 -46 20 -84.5t55.5 -61.5t80.5 -23zM289 522q-41 0 -73.5 19t-51 54t-18.5 82h66q0 -47 23 -70t54 -23q32 0 55 23t23 70h66q0 -47 -18.5 -82t-51 -54t-74.5 -19z" />
    <glyph glyph-name="ocircumflex" unicode="&#xf4;" horiz-adv-x="579" 
d="M289 -12q-68 0 -123.5 34t-88 91.5t-32.5 126.5q0 70 32.5 126.5t88 90.5t123.5 34q69 0 124.5 -34t88 -90.5t32.5 -126.5q0 -69 -32.5 -126.5t-88 -91.5t-124.5 -34zM290 71q45 0 80 23t55 61.5t20 84.5q0 47 -20 85t-55 60.5t-80 22.5t-80.5 -22.5t-55.5 -60.5t-20 -85
q0 -46 20 -84.5t55.5 -61.5t80.5 -23zM249 688l-120 -156h85l76 101l76 -101h85l-120 156h-82z" />
    <glyph glyph-name="odieresis" unicode="&#xf6;" horiz-adv-x="579" 
d="M289 -12q-68 0 -123.5 34t-88 91.5t-32.5 126.5q0 70 32.5 126.5t88 90.5t123.5 34q69 0 124.5 -34t88 -90.5t32.5 -126.5q0 -69 -32.5 -126.5t-88 -91.5t-124.5 -34zM290 71q45 0 80 23t55 61.5t20 84.5q0 47 -20 85t-55 60.5t-80 22.5t-80.5 -22.5t-55.5 -60.5t-20 -85
q0 -46 20 -84.5t55.5 -61.5t80.5 -23zM156 614q0 20 14.5 35.5t35.5 15.5q22 0 37 -15.5t15 -35.5q0 -22 -15 -36.5t-37 -14.5q-21 0 -35.5 14.5t-14.5 36.5zM322 614q0 20 15 35.5t36 15.5t36 -15.5t15 -35.5q0 -22 -15 -36.5t-36 -14.5t-36 14.5t-15 36.5z" />
    <glyph glyph-name="ograve" unicode="&#xf2;" horiz-adv-x="579" 
d="M289 -12q-68 0 -123.5 34t-88 91.5t-32.5 126.5q0 70 32.5 126.5t88 90.5t123.5 34q69 0 124.5 -34t88 -90.5t32.5 -126.5q0 -69 -32.5 -126.5t-88 -91.5t-124.5 -34zM290 71q45 0 80 23t55 61.5t20 84.5q0 47 -20 85t-55 60.5t-80 22.5t-80.5 -22.5t-55.5 -60.5t-20 -85
q0 -46 20 -84.5t55.5 -61.5t80.5 -23zM241 688l98 -156h-8h-20h-24.5h-20.5h-8l-123 156h106z" />
    <glyph glyph-name="ohungarumlaut" unicode="&#x151;" horiz-adv-x="579" 
d="M289 -12q-68 0 -123.5 34t-88 91.5t-32.5 126.5q0 70 32.5 126.5t88 90.5t123.5 34q69 0 124.5 -34t88 -90.5t32.5 -126.5q0 -69 -32.5 -126.5t-88 -91.5t-124.5 -34zM290 71q45 0 80 23t55 61.5t20 84.5q0 47 -20 85t-55 60.5t-80 22.5t-80.5 -22.5t-55.5 -60.5t-20 -85
q0 -46 20 -84.5t55.5 -61.5t80.5 -23zM259 688h91l-119 -156h-10.5h-24.5h-24.5h-10.5zM415 688h96l-123 -156h-10.5h-25h-25h-10.5z" />
    <glyph glyph-name="omacron" unicode="&#x14d;" horiz-adv-x="579" 
d="M289 -12q-68 0 -123.5 34t-88 91.5t-32.5 126.5q0 70 32.5 126.5t88 90.5t123.5 34q69 0 124.5 -34t88 -90.5t32.5 -126.5q0 -69 -32.5 -126.5t-88 -91.5t-124.5 -34zM290 71q45 0 80 23t55 61.5t20 84.5q0 47 -20 85t-55 60.5t-80 22.5t-80.5 -22.5t-55.5 -60.5t-20 -85
q0 -46 20 -84.5t55.5 -61.5t80.5 -23zM149 651h281v-68h-281v10.5v23.5v23.5v10.5z" />
    <glyph glyph-name="oslash" unicode="&#xf8;" horiz-adv-x="600" 
d="M300 -12q-52 0 -97.5 19.5t-79.5 54.5t-53 80.5t-19 97.5t19 97.5t53 80t79.5 54t97.5 19.5q53 0 98 -19.5t79 -54t53 -80t19 -97.5t-19 -97.5t-53 -80.5t-79 -54.5t-98 -19.5zM140 240q0 -46 20.5 -84.5t57 -61.5t82.5 -23q47 0 83 23t56.5 61.5t20.5 84.5
q0 47 -20.5 85t-56.5 60.5t-83 22.5q-46 0 -82.5 -22.5t-57 -60.5t-20.5 -85zM509 494l-367 -538l-47 32l367 538z" />
    <glyph glyph-name="otilde" unicode="&#xf5;" horiz-adv-x="579" 
d="M289 -12q-68 0 -123.5 34t-88 91.5t-32.5 126.5q0 70 32.5 126.5t88 90.5t123.5 34q69 0 124.5 -34t88 -90.5t32.5 -126.5q0 -69 -32.5 -126.5t-88 -91.5t-124.5 -34zM290 71q45 0 80 23t55 61.5t20 84.5q0 47 -20 85t-55 60.5t-80 22.5t-80.5 -22.5t-55.5 -60.5t-20 -85
q0 -46 20 -84.5t55.5 -61.5t80.5 -23zM363 548q-22 0 -40.5 8t-36 19t-35 19t-35.5 8q-20 0 -30.5 -15.5t-21.5 -36.5l-44 36q19 46 44.5 64.5t52.5 18.5q22 0 40.5 -8.5t36 -19t34.5 -19t35 -8.5q21 0 31.5 16t20.5 37l44 -36q-18 -46 -43 -64.5t-53 -18.5z" />
    <glyph glyph-name="oe" unicode="&#x153;" horiz-adv-x="950" 
d="M289 -12q-68 0 -123.5 34t-88 91.5t-32.5 126.5q0 70 32.5 126.5t88 90.5t123.5 34q67 0 120.5 -34t84.5 -90.5t31 -126.5q0 -69 -31 -126.5t-84.5 -91.5t-120.5 -34zM290 71q45 0 80 23t55 61.5t20 84.5q0 47 -20 85t-55 60.5t-80 22.5t-80.5 -22.5t-55.5 -60.5t-20 -85
q0 -46 20 -84.5t55.5 -61.5t80.5 -23zM692 -12q-68 0 -122.5 34t-85.5 91.5t-31 126.5q0 70 29.5 126.5t81 90.5t116.5 34q67 0 120 -32.5t84 -87t31 -122.5q0 -9 -0.5 -18t-1.5 -14h-411v60h343l-18 -21q-6 76 -46 117.5t-100 41.5q-45 0 -78.5 -23.5t-52.5 -63t-19 -88.5
q0 -48 21 -87.5t57.5 -62.5t84.5 -23q42 0 77.5 14.5t59.5 38.5l46 -61q-29 -31 -79 -51t-106 -20z" />
    <glyph glyph-name="thorn" unicode="&#xfe;" horiz-adv-x="613" 
d="M80 688h88v-884h-88v884zM325 408q-45 0 -80.5 -23t-56 -61t-20.5 -85t20.5 -85t56 -60.5t80.5 -22.5t80 22.5t55 60.5t20 85t-20 85t-55 61t-80 23zM336 491q65 0 117.5 -33t83.5 -89.5t31 -129.5q0 -71 -30 -128t-82.5 -90t-119.5 -33q-68 0 -116.5 33t-74.5 90
t-26 128q0 68 26 125.5t75 92t116 34.5z" />
    <glyph glyph-name="racute" unicode="&#x155;" horiz-adv-x="376" 
d="M80 0v479h88v-479h-88zM168 276l-20 59q8 71 44.5 113.5t96.5 42.5q48 0 73 -21l-37 -83q-12 8 -28.5 13.5t-33.5 5.5q-43 0 -69 -35t-26 -95zM259 688h107l-123 -156h-8.5h-20.5h-24h-20.5h-8.5z" />
    <glyph glyph-name="rcaron" unicode="&#x159;" horiz-adv-x="376" 
d="M80 0v479h88v-479h-88zM168 276l-20 59q8 71 44.5 113.5t96.5 42.5q48 0 73 -21l-37 -83q-12 8 -28.5 13.5t-33.5 5.5q-43 0 -69 -35t-26 -95zM252 532h-82l-120 156h85l76 -101l76 101h85z" />
    <glyph glyph-name="rcommaaccent" unicode="&#x157;" horiz-adv-x="376" 
d="M80 0v479h88v-479h-88zM168 276l-20 59q8 71 44.5 113.5t96.5 42.5q48 0 73 -21l-37 -83q-12 8 -28.5 13.5t-33.5 5.5q-43 0 -69 -35t-26 -95zM168 -51l-54 -142h-70l34 142h90z" />
    <glyph glyph-name="sacute" unicode="&#x15b;" horiz-adv-x="445" 
d="M215 -12q-53 0 -100 13t-84 35l34 73q41 -21 78 -32.5t78 -11.5q50 0 74.5 18t24.5 46q0 27 -19.5 42t-50.5 24.5t-66 19t-66 25t-50.5 43.5t-19.5 74q0 36 21 66.5t61 49t98 18.5q49 0 89 -11t79 -30l-35 -73q-25 14 -59.5 25t-69.5 11q-44 0 -69 -14.5t-25 -40.5
q0 -27 19.5 -42.5t50.5 -25t65.5 -19t65 -25t50 -42.5t19.5 -73q0 -41 -23 -73.5t-66 -51t-104 -18.5zM271 688h107l-123 -156h-8.5h-20.5h-24h-20.5h-8.5z" />
    <glyph glyph-name="scaron" unicode="&#x161;" horiz-adv-x="445" 
d="M215 -12q-53 0 -100 13t-84 35l34 73q41 -21 78 -32.5t78 -11.5q50 0 74.5 18t24.5 46q0 27 -19.5 42t-50.5 24.5t-66 19t-66 25t-50.5 43.5t-19.5 74q0 36 21 66.5t61 49t98 18.5q49 0 89 -11t79 -30l-35 -73q-25 14 -59.5 25t-69.5 11q-44 0 -69 -14.5t-25 -40.5
q0 -27 19.5 -42.5t50.5 -25t65.5 -19t65 -25t50 -42.5t19.5 -73q0 -41 -23 -73.5t-66 -51t-104 -18.5zM264 532h-82l-120 156h85l76 -101l76 101h85z" />
    <glyph glyph-name="scedilla" unicode="&#x15f;" horiz-adv-x="445" 
d="M215 -12q-53 0 -100 13t-84 35l34 73q41 -21 78 -32.5t78 -11.5q50 0 74.5 18t24.5 46q0 27 -19.5 42t-50.5 24.5t-66 19t-66 25t-50.5 43.5t-19.5 74q0 36 21 66.5t61 49t98 18.5q49 0 89 -11t79 -30l-35 -73q-25 14 -59.5 25t-69.5 11q-44 0 -69 -14.5t-25 -40.5
q0 -27 19.5 -42.5t50.5 -25t65.5 -19t65 -25t50 -42.5t19.5 -73q0 -41 -23 -73.5t-66 -51t-104 -18.5zM190 0h66l-77 -186l-69 30z" />
    <glyph glyph-name="scircumflex" unicode="&#x15d;" horiz-adv-x="445" 
d="M215 -12q-53 0 -100 13t-84 35l34 73q41 -21 78 -32.5t78 -11.5q50 0 74.5 18t24.5 46q0 27 -19.5 42t-50.5 24.5t-66 19t-66 25t-50.5 43.5t-19.5 74q0 36 21 66.5t61 49t98 18.5q49 0 89 -11t79 -30l-35 -73q-25 14 -59.5 25t-69.5 11q-44 0 -69 -14.5t-25 -40.5
q0 -27 19.5 -42.5t50.5 -25t65.5 -19t65 -25t50 -42.5t19.5 -73q0 -41 -23 -73.5t-66 -51t-104 -18.5zM182 688l-120 -156h85l76 101l76 -101h85l-120 156h-82z" />
    <glyph glyph-name="scommaaccent" unicode="&#x219;" horiz-adv-x="445" 
d="M215 -12q-53 0 -100 13t-84 35l34 73q41 -21 78 -32.5t78 -11.5q50 0 74.5 18t24.5 46q0 27 -19.5 42t-50.5 24.5t-66 19t-66 25t-50.5 43.5t-19.5 74q0 36 21 66.5t61 49t98 18.5q49 0 89 -11t79 -30l-35 -73q-25 14 -59.5 25t-69.5 11q-44 0 -69 -14.5t-25 -40.5
q0 -27 19.5 -42.5t50.5 -25t65.5 -19t65 -25t50 -42.5t19.5 -73q0 -41 -23 -73.5t-66 -51t-104 -18.5zM268 -51l-54 -142h-70l34 142h90z" />
    <glyph glyph-name="germandbls" unicode="&#xdf;" horiz-adv-x="586" 
d="M289 617q-58 0 -89.5 -35.5t-31.5 -103.5v-478h-88v478q0 69 25.5 119t72.5 76.5t110 26.5t109.5 -24t72 -67t25.5 -99q0 -51 -27 -90t-74 -61l-1 20q65 -19 103.5 -65.5t38.5 -119.5q0 -63 -28 -109.5t-76 -71.5t-109 -25q-37 0 -61.5 5t-42.5 13l23 79q17 -8 36 -11
t38 -3q58 0 94.5 34.5t36.5 91.5q0 56 -36 91.5t-108 35.5h-56v74h49q38 0 62.5 16t36.5 41t12 52q0 47 -30 78.5t-87 31.5z" />
    <glyph glyph-name="tbar" unicode="&#x167;" horiz-adv-x="379" 
d="M26 400v79h79v119h89v-119h136v-79h-135v-253q0 -76 66 -76q18 0 35 6.5t27 18.5l41 -67q-17 -16 -46 -28.5t-69 -12.5q-67 0 -105.5 39.5t-38.5 116.5v256h-79zM36 276h260v-72h-260v11v25v25v11z" />
    <glyph glyph-name="tcaron" unicode="&#x165;" horiz-adv-x="379" 
d="M26 400v79h79v119h89v-119h136v-79h-135v-253q0 -76 66 -76q18 0 35 6.5t27 18.5l41 -67q-17 -16 -46 -28.5t-69 -12.5q-67 0 -105.5 39.5t-38.5 116.5v256h-79zM333 688l-38 -166h-66l20 166h84z" />
    <glyph glyph-name="tcedilla" unicode="&#x163;" horiz-adv-x="379" 
d="M26 400v79h79v119h89v-119h136v-79h-135v-253q0 -76 66 -76q18 0 35 6.5t27 18.5l41 -67q-17 -16 -46 -28.5t-69 -12.5q-67 0 -105.5 39.5t-38.5 116.5v256h-79zM217 0h66l-77 -186l-69 30z" />
    <glyph glyph-name="tcommaaccent" unicode="&#x21b;" horiz-adv-x="379" 
d="M26 400v79h79v119h89v-119h136v-79h-135v-253q0 -76 66 -76q18 0 35 6.5t27 18.5l41 -67q-17 -16 -46 -28.5t-69 -12.5q-67 0 -105.5 39.5t-38.5 116.5v256h-79zM295 -51l-54 -142h-70l34 142h90z" />
    <glyph glyph-name="uacute" unicode="&#xfa;" horiz-adv-x="570" 
d="M161 479v-265q0 -63 34 -101.5t89 -38.5q56 0 90.5 38.5t34.5 101.5v265h89v-272q0 -65 -26.5 -113.5t-74.5 -75.5t-113 -27q-64 0 -111.5 27t-74 75.5t-26.5 113.5v272h89zM333 688h107l-123 -156h-8.5h-20.5h-24h-20.5h-8.5z" />
    <glyph glyph-name="ubreve" unicode="&#x16d;" horiz-adv-x="570" 
d="M161 479v-265q0 -63 34 -101.5t89 -38.5q56 0 90.5 38.5t34.5 101.5v265h89v-272q0 -65 -26.5 -113.5t-74.5 -75.5t-113 -27q-64 0 -111.5 27t-74 75.5t-26.5 113.5v272h89zM284 522q-41 0 -73.5 19t-51 54t-18.5 82h66q0 -47 23 -70t54 -23q32 0 55 23t23 70h66
q0 -47 -18.5 -82t-51 -54t-74.5 -19z" />
    <glyph glyph-name="ucircumflex" unicode="&#xfb;" horiz-adv-x="570" 
d="M161 479v-265q0 -63 34 -101.5t89 -38.5q56 0 90.5 38.5t34.5 101.5v265h89v-272q0 -65 -26.5 -113.5t-74.5 -75.5t-113 -27q-64 0 -111.5 27t-74 75.5t-26.5 113.5v272h89zM244 688l-120 -156h85l76 101l76 -101h85l-120 156h-82z" />
    <glyph glyph-name="udieresis" unicode="&#xfc;" horiz-adv-x="570" 
d="M161 479v-265q0 -63 34 -101.5t89 -38.5q56 0 90.5 38.5t34.5 101.5v265h89v-272q0 -65 -26.5 -113.5t-74.5 -75.5t-113 -27q-64 0 -111.5 27t-74 75.5t-26.5 113.5v272h89zM151 614q0 20 14.5 35.5t35.5 15.5q22 0 37 -15.5t15 -35.5q0 -22 -15 -36.5t-37 -14.5
q-21 0 -35.5 14.5t-14.5 36.5zM317 614q0 20 15 35.5t36 15.5t36 -15.5t15 -35.5q0 -22 -15 -36.5t-36 -14.5t-36 14.5t-15 36.5z" />
    <glyph glyph-name="ugrave" unicode="&#xf9;" horiz-adv-x="570" 
d="M161 479v-265q0 -63 34 -101.5t89 -38.5q56 0 90.5 38.5t34.5 101.5v265h89v-272q0 -65 -26.5 -113.5t-74.5 -75.5t-113 -27q-64 0 -111.5 27t-74 75.5t-26.5 113.5v272h89zM236 688l98 -156h-8h-20h-24.5h-20.5h-8l-123 156h106z" />
    <glyph glyph-name="uhungarumlaut" unicode="&#x171;" horiz-adv-x="570" 
d="M161 479v-265q0 -63 34 -101.5t89 -38.5q56 0 90.5 38.5t34.5 101.5v265h89v-272q0 -65 -26.5 -113.5t-74.5 -75.5t-113 -27q-64 0 -111.5 27t-74 75.5t-26.5 113.5v272h89zM254 688h91l-119 -156h-10.5h-24.5h-24.5h-10.5zM410 688h96l-123 -156h-10.5h-25h-25h-10.5z
" />
    <glyph glyph-name="umacron" unicode="&#x16b;" horiz-adv-x="570" 
d="M161 479v-265q0 -63 34 -101.5t89 -38.5q56 0 90.5 38.5t34.5 101.5v265h89v-272q0 -65 -26.5 -113.5t-74.5 -75.5t-113 -27q-64 0 -111.5 27t-74 75.5t-26.5 113.5v272h89zM144 651h281v-68h-281v10.5v23.5v23.5v10.5z" />
    <glyph glyph-name="uogonek" unicode="&#x173;" horiz-adv-x="570" 
d="M161 479v-265q0 -63 34 -101.5t89 -38.5q56 0 90.5 38.5t34.5 101.5v265h89v-272q0 -65 -26.5 -113.5t-74.5 -75.5t-113 -27q-64 0 -111.5 27t-74 75.5t-26.5 113.5v272h89zM301 29l48 -29q-58 -23 -88.5 -51t-30.5 -57q0 -16 11 -25.5t29 -9.5q16 0 29 6t29 19l29 -50
q-18 -19 -44 -29.5t-57 -10.5q-30 0 -52.5 10t-35 29t-12.5 45q0 46 35 83.5t110 69.5z" />
    <glyph glyph-name="uring" unicode="&#x16f;" horiz-adv-x="570" 
d="M161 479v-265q0 -63 34 -101.5t89 -38.5q56 0 90.5 38.5t34.5 101.5v265h89v-272q0 -65 -26.5 -113.5t-74.5 -75.5t-113 -27q-64 0 -111.5 27t-74 75.5t-26.5 113.5v272h89zM285 522q-32 0 -58 15t-41 40t-15 55q0 31 15 55.5t41 39.5t58 15q33 0 58.5 -15t40.5 -39.5
t15 -55.5q0 -30 -15 -55t-40.5 -40t-58.5 -15zM286 578q23 0 38.5 15t15.5 39t-15.5 39.5t-38.5 15.5q-22 0 -38.5 -15.5t-16.5 -39.5t16.5 -39t38.5 -15z" />
    <glyph glyph-name="utilde" unicode="&#x169;" horiz-adv-x="570" 
d="M161 479v-265q0 -63 34 -101.5t89 -38.5q56 0 90.5 38.5t34.5 101.5v265h89v-272q0 -65 -26.5 -113.5t-74.5 -75.5t-113 -27q-64 0 -111.5 27t-74 75.5t-26.5 113.5v272h89zM358 548q-22 0 -40.5 8t-36 19t-35 19t-35.5 8q-20 0 -30.5 -15.5t-21.5 -36.5l-44 36
q19 46 44.5 64.5t52.5 18.5q22 0 40.5 -8.5t36 -19t34.5 -19t35 -8.5q21 0 31.5 16t20.5 37l44 -36q-18 -46 -43 -64.5t-53 -18.5z" />
    <glyph glyph-name="wacute" unicode="&#x1e83;" horiz-adv-x="796" 
d="M278 0h-101l-154 479h95l111 -380l120 380h97l121 -381l112 381h95l-154 -479h-110l-117 366zM446 688h107l-123 -156h-8.5h-20.5h-24h-20.5h-8.5z" />
    <glyph glyph-name="wcircumflex" unicode="&#x175;" horiz-adv-x="796" 
d="M278 0h-101l-154 479h95l111 -380l120 380h97l121 -381l112 381h95l-154 -479h-110l-117 366zM357 688l-120 -156h85l76 101l76 -101h85l-120 156h-82z" />
    <glyph glyph-name="wdieresis" unicode="&#x1e85;" horiz-adv-x="796" 
d="M278 0h-101l-154 479h95l111 -380l120 380h97l121 -381l112 381h95l-154 -479h-110l-117 366zM264 614q0 20 14.5 35.5t35.5 15.5q22 0 37 -15.5t15 -35.5q0 -22 -15 -36.5t-37 -14.5q-21 0 -35.5 14.5t-14.5 36.5zM430 614q0 20 15 35.5t36 15.5t36 -15.5t15 -35.5
q0 -22 -15 -36.5t-36 -14.5t-36 14.5t-15 36.5z" />
    <glyph glyph-name="wgrave" unicode="&#x1e81;" horiz-adv-x="796" 
d="M278 0h-101l-154 479h95l111 -380l120 380h97l121 -381l112 381h95l-154 -479h-110l-117 366zM349 688l98 -156h-8h-20h-24.5h-20.5h-8l-123 156h106z" />
    <glyph glyph-name="yacute" unicode="&#xfd;" horiz-adv-x="507" 
d="M105 479l192 -445l-64 -55l-224 500h96zM211 -47l191 526h90l-207 -557q-24 -65 -61.5 -97.5t-93.5 -32.5q-31 0 -61.5 12t-53.5 32l41 69q17 -15 36 -22.5t40 -7.5q26 0 44.5 17.5t34.5 60.5zM302 688h107l-123 -156h-8.5h-20.5h-24h-20.5h-8.5z" />
    <glyph glyph-name="ycircumflex" unicode="&#x177;" horiz-adv-x="507" 
d="M105 479l192 -445l-64 -55l-224 500h96zM211 -47l191 526h90l-207 -557q-24 -65 -61.5 -97.5t-93.5 -32.5q-31 0 -61.5 12t-53.5 32l41 69q17 -15 36 -22.5t40 -7.5q26 0 44.5 17.5t34.5 60.5zM213 688l-120 -156h85l76 101l76 -101h85l-120 156h-82z" />
    <glyph glyph-name="ydieresis" unicode="&#xff;" horiz-adv-x="507" 
d="M105 479l192 -445l-64 -55l-224 500h96zM211 -47l191 526h90l-207 -557q-24 -65 -61.5 -97.5t-93.5 -32.5q-31 0 -61.5 12t-53.5 32l41 69q17 -15 36 -22.5t40 -7.5q26 0 44.5 17.5t34.5 60.5zM120 614q0 20 14.5 35.5t35.5 15.5q22 0 37 -15.5t15 -35.5q0 -22 -15 -36.5
t-37 -14.5q-21 0 -35.5 14.5t-14.5 36.5zM286 614q0 20 15 35.5t36 15.5t36 -15.5t15 -35.5q0 -22 -15 -36.5t-36 -14.5t-36 14.5t-15 36.5z" />
    <glyph glyph-name="ygrave" unicode="&#x1ef3;" horiz-adv-x="507" 
d="M105 479l192 -445l-64 -55l-224 500h96zM211 -47l191 526h90l-207 -557q-24 -65 -61.5 -97.5t-93.5 -32.5q-31 0 -61.5 12t-53.5 32l41 69q17 -15 36 -22.5t40 -7.5q26 0 44.5 17.5t34.5 60.5zM205 688l98 -156h-8h-20h-24.5h-20.5h-8l-123 156h106z" />
    <glyph glyph-name="zacute" unicode="&#x17a;" horiz-adv-x="475" 
d="M40 79l274 321h-267v79h381v-79l-274 -321h281v-79h-395v79zM286 688h107l-123 -156h-8.5h-20.5h-24h-20.5h-8.5z" />
    <glyph glyph-name="zcaron" unicode="&#x17e;" horiz-adv-x="475" 
d="M40 79l274 321h-267v79h381v-79l-274 -321h281v-79h-395v79zM279 532h-82l-120 156h85l76 -101l76 101h85z" />
    <glyph glyph-name="zdotaccent" unicode="&#x17c;" horiz-adv-x="475" 
d="M40 79l274 321h-267v79h381v-79l-274 -321h281v-79h-395v79zM183 617q0 23 16 39t39 16t39 -16t16 -39q0 -22 -16 -38.5t-39 -16.5t-39 16.5t-16 38.5z" />
    <glyph glyph-name="aacute.alt" horiz-adv-x="627" 
d="M277 -12q-65 0 -117.5 33t-83.5 90t-31 129q0 71 30 128t82.5 90t119.5 33q59 0 102.5 -27.5t70 -76t33.5 -110.5l1 -116q-10 -52 -39 -91t-71.5 -60.5t-96.5 -21.5zM290 71q45 0 80 23t55 61.5t20 84.5q0 47 -20 85t-55 60.5t-80 22.5t-80.5 -22.5t-55.5 -60.5t-20 -85
q0 -46 20 -84.5t55.5 -61.5t80.5 -23zM601 77l11 -78q-11 -4 -24.5 -6.5t-25.5 -2.5q-30 0 -56.5 14t-43.5 45t-17 81v78h89v-79q0 -31 14 -44t31 -13q10 0 22 5zM534 189h-89v290h89v-290zM343 688h107l-123 -156h-8.5h-20.5h-24h-20.5h-8.5z" />
    <glyph glyph-name="abreve.alt" horiz-adv-x="627" 
d="M277 -12q-65 0 -117.5 33t-83.5 90t-31 129q0 71 30 128t82.5 90t119.5 33q59 0 102.5 -27.5t70 -76t33.5 -110.5l1 -116q-10 -52 -39 -91t-71.5 -60.5t-96.5 -21.5zM290 71q45 0 80 23t55 61.5t20 84.5q0 47 -20 85t-55 60.5t-80 22.5t-80.5 -22.5t-55.5 -60.5t-20 -85
q0 -46 20 -84.5t55.5 -61.5t80.5 -23zM601 77l11 -78q-11 -4 -24.5 -6.5t-25.5 -2.5q-30 0 -56.5 14t-43.5 45t-17 81v78h89v-79q0 -31 14 -44t31 -13q10 0 22 5zM534 189h-89v290h89v-290zM294 522q-41 0 -73.5 19t-51 54t-18.5 82h66q0 -47 23 -70t54 -23q32 0 55 23
t23 70h66q0 -47 -18.5 -82t-51 -54t-74.5 -19z" />
    <glyph glyph-name="acircumflex.alt" horiz-adv-x="627" 
d="M277 -12q-65 0 -117.5 33t-83.5 90t-31 129q0 71 30 128t82.5 90t119.5 33q59 0 102.5 -27.5t70 -76t33.5 -110.5l1 -116q-10 -52 -39 -91t-71.5 -60.5t-96.5 -21.5zM290 71q45 0 80 23t55 61.5t20 84.5q0 47 -20 85t-55 60.5t-80 22.5t-80.5 -22.5t-55.5 -60.5t-20 -85
q0 -46 20 -84.5t55.5 -61.5t80.5 -23zM601 77l11 -78q-11 -4 -24.5 -6.5t-25.5 -2.5q-30 0 -56.5 14t-43.5 45t-17 81v78h89v-79q0 -31 14 -44t31 -13q10 0 22 5zM534 189h-89v290h89v-290zM254 688l-120 -156h85l76 101l76 -101h85l-120 156h-82z" />
    <glyph glyph-name="adieresis.alt" horiz-adv-x="627" 
d="M277 -12q-65 0 -117.5 33t-83.5 90t-31 129q0 71 30 128t82.5 90t119.5 33q59 0 102.5 -27.5t70 -76t33.5 -110.5l1 -116q-10 -52 -39 -91t-71.5 -60.5t-96.5 -21.5zM290 71q45 0 80 23t55 61.5t20 84.5q0 47 -20 85t-55 60.5t-80 22.5t-80.5 -22.5t-55.5 -60.5t-20 -85
q0 -46 20 -84.5t55.5 -61.5t80.5 -23zM601 77l11 -78q-11 -4 -24.5 -6.5t-25.5 -2.5q-30 0 -56.5 14t-43.5 45t-17 81v78h89v-79q0 -31 14 -44t31 -13q10 0 22 5zM534 189h-89v290h89v-290zM161 614q0 20 14.5 35.5t35.5 15.5q22 0 37 -15.5t15 -35.5q0 -22 -15 -36.5
t-37 -14.5q-21 0 -35.5 14.5t-14.5 36.5zM327 614q0 20 15 35.5t36 15.5t36 -15.5t15 -35.5q0 -22 -15 -36.5t-36 -14.5t-36 14.5t-15 36.5z" />
    <glyph glyph-name="agrave.alt" horiz-adv-x="627" 
d="M277 -12q-65 0 -117.5 33t-83.5 90t-31 129q0 71 30 128t82.5 90t119.5 33q59 0 102.5 -27.5t70 -76t33.5 -110.5l1 -116q-10 -52 -39 -91t-71.5 -60.5t-96.5 -21.5zM290 71q45 0 80 23t55 61.5t20 84.5q0 47 -20 85t-55 60.5t-80 22.5t-80.5 -22.5t-55.5 -60.5t-20 -85
q0 -46 20 -84.5t55.5 -61.5t80.5 -23zM601 77l11 -78q-11 -4 -24.5 -6.5t-25.5 -2.5q-30 0 -56.5 14t-43.5 45t-17 81v78h89v-79q0 -31 14 -44t31 -13q10 0 22 5zM534 189h-89v290h89v-290zM246 688l98 -156h-8h-20h-24.5h-20.5h-8l-123 156h106z" />
    <glyph glyph-name="amacron.alt" horiz-adv-x="627" 
d="M277 -12q-65 0 -117.5 33t-83.5 90t-31 129q0 71 30 128t82.5 90t119.5 33q59 0 102.5 -27.5t70 -76t33.5 -110.5l1 -116q-10 -52 -39 -91t-71.5 -60.5t-96.5 -21.5zM290 71q45 0 80 23t55 61.5t20 84.5q0 47 -20 85t-55 60.5t-80 22.5t-80.5 -22.5t-55.5 -60.5t-20 -85
q0 -46 20 -84.5t55.5 -61.5t80.5 -23zM601 77l11 -78q-11 -4 -24.5 -6.5t-25.5 -2.5q-30 0 -56.5 14t-43.5 45t-17 81v78h89v-79q0 -31 14 -44t31 -13q10 0 22 5zM534 189h-89v290h89v-290zM154 651h281v-68h-281v10.5v23.5v23.5v10.5z" />
    <glyph glyph-name="aogonek.alt" horiz-adv-x="627" 
d="M277 -12q-65 0 -117.5 33t-83.5 90t-31 129q0 71 30 128t82.5 90t119.5 33q59 0 102.5 -27.5t70 -76t33.5 -110.5l1 -116q-10 -52 -39 -91t-71.5 -60.5t-96.5 -21.5zM290 71q45 0 80 23t55 61.5t20 84.5q0 47 -20 85t-55 60.5t-80 22.5t-80.5 -22.5t-55.5 -60.5t-20 -85
q0 -46 20 -84.5t55.5 -61.5t80.5 -23zM601 77l11 -78q-11 -4 -24.5 -6.5t-25.5 -2.5q-30 0 -56.5 14t-43.5 45t-17 81v78h89v-79q0 -31 14 -44t31 -13q10 0 22 5zM534 189h-89v290h89v-290zM564 28l48 -29q-58 -23 -88.5 -51t-30.5 -57q0 -16 11 -25.5t29 -9.5q16 0 29 6
t29 19l29 -50q-18 -19 -44 -29.5t-57 -10.5q-30 0 -52.5 10t-35 29t-12.5 45q0 46 35 83.5t110 69.5z" />
    <glyph glyph-name="aring.alt" horiz-adv-x="627" 
d="M277 -12q-65 0 -117.5 33t-83.5 90t-31 129q0 71 30 128t82.5 90t119.5 33q59 0 102.5 -27.5t70 -76t33.5 -110.5l1 -116q-10 -52 -39 -91t-71.5 -60.5t-96.5 -21.5zM290 71q45 0 80 23t55 61.5t20 84.5q0 47 -20 85t-55 60.5t-80 22.5t-80.5 -22.5t-55.5 -60.5t-20 -85
q0 -46 20 -84.5t55.5 -61.5t80.5 -23zM601 77l11 -78q-11 -4 -24.5 -6.5t-25.5 -2.5q-30 0 -56.5 14t-43.5 45t-17 81v78h89v-79q0 -31 14 -44t31 -13q10 0 22 5zM534 189h-89v290h89v-290zM295 522q-32 0 -58 15t-41 40t-15 55q0 31 15 55.5t41 39.5t58 15q33 0 58.5 -15
t40.5 -39.5t15 -55.5q0 -30 -15 -55t-40.5 -40t-58.5 -15zM296 578q23 0 38.5 15t15.5 39t-15.5 39.5t-38.5 15.5q-22 0 -38.5 -15.5t-16.5 -39.5t16.5 -39t38.5 -15z" />
    <glyph glyph-name="atilde.alt" horiz-adv-x="627" 
d="M277 -12q-65 0 -117.5 33t-83.5 90t-31 129q0 71 30 128t82.5 90t119.5 33q59 0 102.5 -27.5t70 -76t33.5 -110.5l1 -116q-10 -52 -39 -91t-71.5 -60.5t-96.5 -21.5zM290 71q45 0 80 23t55 61.5t20 84.5q0 47 -20 85t-55 60.5t-80 22.5t-80.5 -22.5t-55.5 -60.5t-20 -85
q0 -46 20 -84.5t55.5 -61.5t80.5 -23zM601 77l11 -78q-11 -4 -24.5 -6.5t-25.5 -2.5q-30 0 -56.5 14t-43.5 45t-17 81v78h89v-79q0 -31 14 -44t31 -13q10 0 22 5zM534 189h-89v290h89v-290zM368 548q-22 0 -40.5 8t-36 19t-35 19t-35.5 8q-20 0 -30.5 -15.5t-21.5 -36.5
l-44 36q19 46 44.5 64.5t52.5 18.5q22 0 40.5 -8.5t36 -19t34.5 -19t35 -8.5q21 0 31.5 16t20.5 37l44 -36q-18 -46 -43 -64.5t-53 -18.5z" />
    <glyph glyph-name="jdotless.alt" horiz-adv-x="248" 
d="M3 -208h-22v84h19q29 0 46.5 10.5t25.5 29.5t8 43v520h88v-520q0 -52 -19.5 -89.5t-56.5 -57.5t-89 -20z" />
    <glyph glyph-name="jcircumflex.alt" horiz-adv-x="248" 
d="M3 -208h-22v84h19q29 0 46.5 10.5t25.5 29.5t8 43v520h88v-520q0 -52 -19.5 -89.5t-56.5 -57.5t-89 -20zM83 688l-120 -156h85l76 101l76 -101h85l-120 156h-82z" />
    <glyph glyph-name="lacute.alt" horiz-adv-x="248" 
d="M80 0v688h88v-688h-88zM174 897h107l-123 -156h-8.5h-20.5h-24h-20.5h-8.5z" />
    <glyph glyph-name="lcaron.alt" horiz-adv-x="248" 
d="M80 0v688h88v-688h-88zM303 688l-38 -166h-66l20 166h84z" />
    <glyph glyph-name="lcommaaccent.alt" horiz-adv-x="248" 
d="M80 0v688h88v-688h-88zM169 -51l-54 -142h-70l34 142h90z" />
    <glyph glyph-name="ldot.alt" horiz-adv-x="318" 
d="M80 0v688h88v-688h-88zM229 305q0 23 16 39.5t39 16.5t39 -16.5t16 -39.5q0 -22 -16 -38t-39 -16t-39 16t-16 38z" />
    <glyph glyph-name="lslash.alt" horiz-adv-x="248" 
d="M16 371l216 88v-77l-216 -87v76zM80 0v688h88v-688h-88z" />
    <glyph glyph-name="yacute.alt" horiz-adv-x="507" 
d="M232 -196h-90l104 260l156 415h90zM297 34l-64 -55l-224 500h96zM302 688h107l-123 -156h-8.5h-20.5h-24h-20.5h-8.5z" />
    <glyph glyph-name="ycircumflex.alt" horiz-adv-x="507" 
d="M232 -196h-90l104 260l156 415h90zM297 34l-64 -55l-224 500h96zM213 688l-120 -156h85l76 101l76 -101h85l-120 156h-82z" />
    <glyph glyph-name="ydieresis.alt" horiz-adv-x="507" 
d="M232 -196h-90l104 260l156 415h90zM297 34l-64 -55l-224 500h96zM120 614q0 20 14.5 35.5t35.5 15.5q22 0 37 -15.5t15 -35.5q0 -22 -15 -36.5t-37 -14.5q-21 0 -35.5 14.5t-14.5 36.5zM286 614q0 20 15 35.5t36 15.5t36 -15.5t15 -35.5q0 -22 -15 -36.5t-36 -14.5
t-36 14.5t-15 36.5z" />
    <glyph glyph-name="ygrave.alt" horiz-adv-x="507" 
d="M232 -196h-90l104 260l156 415h90zM297 34l-64 -55l-224 500h96zM205 688l98 -156h-8h-20h-24.5h-20.5h-8l-123 156h106z" />
    <glyph glyph-name="i.loclTRK" horiz-adv-x="248" 
d="M168 0h-88v479h9h22h26h22h9v-479zM124 562q-23 0 -39 16.5t-16 38.5q0 23 16 39t39 16t39 -16t16 -39q0 -22 -16 -38.5t-39 -16.5z" />
    <glyph glyph-name="fl.alt" horiz-adv-x="575" 
d="M459 655l-45 -68q-17 13 -45 21.5t-63 8.5q-51 0 -81.5 -30.5t-30.5 -86.5v-500h-89v500q0 65 25 109.5t68.5 67.5t99.5 23q53 0 93 -12t68 -33zM30 400v79h278v-79h-278zM407 0v678h89v-678h-89z" />
    <glyph glyph-name="ordfeminine" unicode="&#xaa;" horiz-adv-x="401" 
d="M280 322v318h73v-318h-11h-25.5h-25.5h-11zM174 315q-40 0 -73.5 21t-53.5 58t-20 86q0 48 19 86t52.5 60t74.5 22q42 0 72 -21t45.5 -58.5t15.5 -88.5q0 -50 -16.5 -87.5t-46 -57.5t-69.5 -20zM190 381q26 0 46 13.5t31.5 36t11.5 49.5q0 41 -25 69.5t-64 28.5
q-26 0 -46.5 -13t-32 -35t-11.5 -50q0 -27 11.5 -49.5t32 -36t46.5 -13.5z" />
    <glyph glyph-name="ordmasculine" unicode="&#xba;" horiz-adv-x="380" 
d="M190 315q-45 0 -82 22.5t-59 60t-22 83.5t22 84t59 61t82 23q46 0 82.5 -23t58.5 -61t22 -84t-22 -83.5t-58.5 -60t-82.5 -22.5zM190 383q26 0 46 13t31.5 35.5t11.5 49.5q0 28 -11.5 50t-31.5 35t-46 13t-46.5 -13t-32 -35t-11.5 -50q0 -27 11.5 -49.5t32 -35.5
t46.5 -13z" />
    <glyph glyph-name="Delta" unicode="&#x394;" horiz-adv-x="676" 
d="M535 53l-210 519h22l-212 -519l-19 28h438zM21 0l264 641h106l264 -641h-634z" />
    <glyph glyph-name="Omega" unicode="&#x3a9;" horiz-adv-x="730" 
d="M365 564q-65 0 -117.5 -29.5t-83 -81t-30.5 -119.5q0 -64 26 -113.5t66.5 -85t85.5 -58.5v-77h-266v81l165 -2l4 -18q-55 33 -94.5 76t-61 95.5t-21.5 113.5q0 62 24.5 117.5t69 98t104 67t129.5 24.5q69 0 128.5 -24.5t104 -67t69 -98t24.5 -117.5q0 -61 -21.5 -113.5
t-60.5 -95.5t-94 -76l4 18l164 2v-81h-265v77q45 23 86 58.5t66.5 85t25.5 113.5q0 68 -30.5 119.5t-82.5 81t-118 29.5z" />
    <glyph glyph-name="mu" unicode="&#x3bc;" horiz-adv-x="588" 
d="M84 371h88v-549h-88v549zM172 479v-265q0 -63 34 -101.5t90 -38.5t90.5 38.5t34.5 101.5v265h89v-272q0 -65 -26.5 -113.5t-74.5 -75.5t-113 -27q-64 0 -111.5 27t-74 75.5t-26.5 113.5v272h88z" />
    <glyph glyph-name="questiondown" unicode="&#xbf;" horiz-adv-x="478" 
d="M259 195h26l22 -63h-24q-48 0 -80 -17.5t-48 -45t-16 -56.5q0 -33 15.5 -55.5t40.5 -33.5t55 -11q34 0 69.5 15.5t61.5 49.5l66 -57q-40 -47 -92.5 -69.5t-104.5 -22.5t-97 21t-73 61.5t-28 99.5q0 46 23 88t69 69t115 27zM260 491q25 0 43 -18t18 -43q0 -26 -18 -44.5
t-43 -18.5q-26 0 -44.5 18.5t-18.5 44.5q0 25 18.5 43t44.5 18zM301 275l6 -143l-83 6l4 137h11h25.5h25.5h11z" />
    <glyph glyph-name="periodcentered" unicode="&#xb7;" 
d="M145 305q0 23 16 39.5t39 16.5t39 -16.5t16 -39.5q0 -22 -16 -38t-39 -16t-39 16t-16 38z" />
    <glyph glyph-name="softhyphen" unicode="&#xad;" horiz-adv-x="306" 
d="M34 281h238v-77h-238v11.5v27v27v11.5z" />
    <glyph glyph-name="quotesinglbase" unicode="&#x201a;" horiz-adv-x="198" 
d="M92 -107h-44l51 107q-15 6 -25 18.5t-10 28.5q0 22 15.5 37t37.5 15q23 0 38 -15t15 -37q0 -10 -4 -22.5t-13 -26.5z" />
    <glyph glyph-name="quotedblbase" unicode="&#x201e;" horiz-adv-x="348" 
d="M92 -107h-44l51 107q-15 6 -25 18.5t-10 28.5q0 22 15.5 37t37.5 15q23 0 38 -15t15 -37q0 -10 -4 -22.5t-13 -26.5zM242 -107h-44l51 107q-15 6 -25 18.5t-10 28.5q0 22 15.5 37t37.5 15q23 0 38 -15t15 -37q0 -10 -4 -22.5t-13 -26.5z" />
    <glyph glyph-name="florin" unicode="&#x192;" horiz-adv-x="467" 
d="M101 294v70h296v-70h-296zM179 -28v562q0 80 41.5 123t110.5 43q42 0 71.5 -12t49.5 -34l-45 -65q-12 12 -30 20t-38 8q-34 0 -53 -21.5t-19 -62.5v-555q0 -79 -38 -124t-110 -45q-34 0 -59.5 10t-43.5 26l42 66q11 -9 25 -14.5t33 -5.5q29 0 46 20.5t17 60.5z" />
    <glyph glyph-name="logicalnot" unicode="&#xac;" horiz-adv-x="521" 
d="M464 143h-82v139h-324v80h406v-219z" />
    <glyph glyph-name="infinity" unicode="&#x221e;" horiz-adv-x="521" 
d="M262 265q-18 -39 -46 -58t-60 -19q-52 0 -83.5 37.5t-31.5 94.5q0 59 31.5 96.5t82.5 37.5q37 0 60.5 -14.5t37.5 -37.5t24 -48.5t20 -48.5t25 -37.5t39 -14.5t42 19.5t18 47.5q0 30 -18 49.5t-44 19.5q-22 0 -44 -10t-39 -43l-20 44q19 38 48 56t61 18q52 0 83.5 -37.5
t31.5 -94.5q0 -58 -31.5 -96t-84.5 -38q-37 0 -60.5 14.5t-38 37.5t-24 48.5t-19.5 48.5t-25 37.5t-39 14.5q-25 0 -41.5 -19t-16.5 -50q0 -29 17.5 -48t45.5 -19q18 0 40.5 13t41.5 51z" />
    <glyph glyph-name="integral" unicode="&#x222b;" horiz-adv-x="467" 
d="M179 -28v562q0 80 41.5 123t110.5 43q42 0 71.5 -12t49.5 -34l-45 -65q-12 12 -30 20t-38 8q-34 0 -53 -21.5t-19 -62.5v-555q0 -79 -38 -124t-110 -45q-34 0 -59.5 10t-43.5 26l42 66q11 -9 25 -14.5t33 -5.5q29 0 46 20.5t17 60.5z" />
    <glyph glyph-name="product" unicode="&#x220f;" horiz-adv-x="612" 
d="M411 556h-209v-752h-91v752h-75v85h541v-85h-76v-752h-90v752z" />
    <glyph glyph-name="summation" unicode="&#x2211;" horiz-adv-x="494" 
d="M353 289v-74l-225 -321h351v-90h-463v101l244 352l-244 340v91h463v-89h-349z" />
    <glyph glyph-name="radical" unicode="&#x221a;" horiz-adv-x="571" 
d="M356 0h-117l-133 398h-90v81h162l122 -397l165 606h90z" />
    <glyph glyph-name="partialdiff" unicode="&#x2202;" horiz-adv-x="591" 
d="M296 71q45 0 80 23t55 62.5t20 86.5q0 48 -20 87t-55 62t-80 23t-80.5 -23t-55.5 -62t-20 -87q0 -47 20 -86.5t55.5 -62.5t80.5 -23zM295 491q31 0 57.5 -10.5t47 -27.5t32.5 -37l-6 -10q-24 62 -65 111t-87 84t-86 54l59 56q61 -30 114 -75t93.5 -102.5t63 -124
t22.5 -138.5q0 -87 -31 -150.5t-86.5 -98t-127.5 -34.5q-68 0 -123.5 34.5t-88 92.5t-32.5 128q0 71 32.5 127t88 88.5t123.5 32.5z" />
    <glyph glyph-name="perthousand" unicode="&#x2030;" horiz-adv-x="1145" 
d="M205 0h-73l438 641h74zM189 333q-45 0 -82 21.5t-59 58t-22 80.5q0 45 20.5 81t57.5 57.5t85 21.5t85 -21.5t58 -57.5t21 -81q0 -44 -22 -80.5t-59 -58t-83 -21.5zM189 390q26 0 49.5 12.5t38 35.5t14.5 55q0 33 -15 56t-38 35t-49 12t-49 -12t-37.5 -35t-14.5 -56
q0 -32 14.5 -55.5t38 -35.5t48.5 -12zM587 -12q-48 0 -85 21.5t-58 58t-21 80.5q0 45 22 81t59.5 57.5t82.5 21.5t82 -21.5t59 -57.5t22 -81q0 -44 -20.5 -80.5t-57 -58t-85.5 -21.5zM586 45q26 0 49.5 12t38 35.5t14.5 55.5q0 33 -14.5 56t-38 35t-49.5 12t-49 -12.5
t-37.5 -35.5t-14.5 -55t15 -55.5t38 -35.5t48 -12zM956 -12q-48 0 -85 21.5t-58 58t-21 80.5q0 45 22 81t59.5 57.5t82.5 21.5t82 -21.5t59 -57.5t22 -81q0 -44 -21 -80.5t-57.5 -58t-84.5 -21.5zM955 45q26 0 49.5 12t38 35.5t14.5 55.5q0 33 -14.5 56t-38 35t-49.5 12
t-49 -12.5t-37.5 -35.5t-14.5 -55t15 -55.5t38 -35.5t48 -12z" />
    <glyph glyph-name="lozenge" unicode="&#x25ca;" horiz-adv-x="512" 
d="M376 320l-121 243l-123 -243l123 -242zM471 320l-166 -320h-98l-166 320l166 321h98z" />
    <glyph glyph-name="dieresis" unicode="&#xa8;" 
d="M66 614q0 20 14.5 35.5t35.5 15.5q22 0 37 -15.5t15 -35.5q0 -22 -15 -36.5t-37 -14.5q-21 0 -35.5 14.5t-14.5 36.5zM232 614q0 20 15 35.5t36 15.5t36 -15.5t15 -35.5q0 -22 -15 -36.5t-36 -14.5t-36 14.5t-15 36.5z" />
    <glyph glyph-name="dotaccent" unicode="&#x2d9;" 
d="M145 617q0 23 16 39t39 16t39 -16t16 -39q0 -22 -16 -38.5t-39 -16.5t-39 16.5t-16 38.5z" />
    <glyph glyph-name="acute" unicode="&#xb4;" 
d="M255 688h107l-123 -156h-8.5h-20.5h-24h-20.5h-8.5z" />
    <glyph glyph-name="hungarumlaut" unicode="&#x2dd;" 
d="M189 688h91l-119 -156h-10.5h-24.5h-24.5h-10.5zM345 688h96l-123 -156h-10.5h-25h-25h-10.5z" />
    <glyph glyph-name="circumflex" unicode="&#x2c6;" 
d="M159 688l-120 -156h85l76 101l76 -101h85l-120 156h-82z" />
    <glyph glyph-name="caron" unicode="&#x2c7;" 
d="M241 532h-82l-120 156h85l76 -101l76 101h85z" />
    <glyph glyph-name="breve" unicode="&#x2d8;" 
d="M200 522q-41 0 -73.5 19t-51 54t-18.5 82h66q0 -47 23 -70t54 -23q32 0 55 23t23 70h66q0 -47 -18.5 -82t-51 -54t-74.5 -19z" />
    <glyph glyph-name="ring" unicode="&#x2da;" 
d="M200 522q-32 0 -58 15t-41 40t-15 55q0 31 15 55.5t41 39.5t58 15q33 0 58.5 -15t40.5 -39.5t15 -55.5q0 -30 -15 -55t-40.5 -40t-58.5 -15zM201 578q23 0 38.5 15t15.5 39t-15.5 39.5t-38.5 15.5q-22 0 -38.5 -15.5t-16.5 -39.5t16.5 -39t38.5 -15z" />
    <glyph glyph-name="tilde" unicode="&#x2dc;" 
d="M273 548q-22 0 -40.5 8t-36 19t-35 19t-35.5 8q-20 0 -30.5 -15.5t-21.5 -36.5l-44 36q19 46 44.5 64.5t52.5 18.5q22 0 40.5 -8.5t36 -19t34.5 -19t35 -8.5q21 0 31.5 16t20.5 37l44 -36q-18 -46 -43 -64.5t-53 -18.5z" />
    <glyph glyph-name="macron" unicode="&#xaf;" 
d="M59 651h281v-68h-281v10.5v23.5v23.5v10.5z" />
    <glyph glyph-name="cedilla" unicode="&#xb8;" 
d="M177 0h66l-77 -186l-69 30z" />
    <glyph glyph-name="ogonek" unicode="&#x2db;" 
d="M228 29l48 -29q-58 -23 -88.5 -51t-30.5 -57q0 -16 11 -25.5t29 -9.5q16 0 29 6t29 19l29 -50q-18 -19 -44 -29.5t-57 -10.5q-30 0 -52.5 10t-35 29t-12.5 45q0 46 35 83.5t110 69.5z" />
    <glyph glyph-name="commaaccent.alt" 
d="M150 538l55 142h72l-35 -142h-92z" />
    <glyph glyph-name="dieresiscomb" unicode="&#x308;" 
d="M66 614q0 20 14.5 35.5t35.5 15.5q22 0 37 -15.5t15 -35.5q0 -22 -15 -36.5t-37 -14.5q-21 0 -35.5 14.5t-14.5 36.5zM232 614q0 20 15 35.5t36 15.5t36 -15.5t15 -35.5q0 -22 -15 -36.5t-36 -14.5t-36 14.5t-15 36.5z" />
    <glyph glyph-name="dotaccentcomb" unicode="&#x307;" 
d="M145 617q0 23 16 39t39 16t39 -16t16 -39q0 -22 -16 -38.5t-39 -16.5t-39 16.5t-16 38.5z" />
    <glyph glyph-name="gravecomb" unicode="&#x300;" horiz-adv-x="388" 
d="M138 688l98 -156h-8h-20h-24.5h-20.5h-8l-123 156h106z" />
    <glyph glyph-name="acutecomb" unicode="&#x301;" 
d="M255 688h107l-123 -156h-8.5h-20.5h-24h-20.5h-8.5z" />
    <glyph glyph-name="hungarumlautcomb" unicode="&#x30b;" 
d="M189 688h91l-119 -156h-10.5h-24.5h-24.5h-10.5zM345 688h96l-123 -156h-10.5h-25h-25h-10.5z" />
    <glyph glyph-name="caroncomb.alt" 
d="M252 688l-38 -166h-66l20 166h84z" />
    <glyph glyph-name="circumflexcomb" unicode="&#x302;" 
d="M159 688l-120 -156h85l76 101l76 -101h85l-120 156h-82z" />
    <glyph glyph-name="caroncomb" unicode="&#x30c;" 
d="M241 532h-82l-120 156h85l76 -101l76 101h85z" />
    <glyph glyph-name="brevecomb" unicode="&#x306;" 
d="M200 522q-41 0 -73.5 19t-51 54t-18.5 82h66q0 -47 23 -70t54 -23q32 0 55 23t23 70h66q0 -47 -18.5 -82t-51 -54t-74.5 -19z" />
    <glyph glyph-name="ringcomb" unicode="&#x30a;" 
d="M200 522q-32 0 -58 15t-41 40t-15 55q0 31 15 55.5t41 39.5t58 15q33 0 58.5 -15t40.5 -39.5t15 -55.5q0 -30 -15 -55t-40.5 -40t-58.5 -15zM201 578q23 0 38.5 15t15.5 39t-15.5 39.5t-38.5 15.5q-22 0 -38.5 -15.5t-16.5 -39.5t16.5 -39t38.5 -15z" />
    <glyph glyph-name="tildecomb" unicode="&#x303;" 
d="M273 548q-22 0 -40.5 8t-36 19t-35 19t-35.5 8q-20 0 -30.5 -15.5t-21.5 -36.5l-44 36q19 46 44.5 64.5t52.5 18.5q22 0 40.5 -8.5t36 -19t34.5 -19t35 -8.5q21 0 31.5 16t20.5 37l44 -36q-18 -46 -43 -64.5t-53 -18.5z" />
    <glyph glyph-name="macroncomb" unicode="&#x304;" 
d="M59 651h281v-68h-281v10.5v23.5v23.5v10.5z" />
    <glyph glyph-name="commaaccentcomb" unicode="&#x326;" 
d="M247 -51l-54 -142h-70l34 142h90z" />
    <glyph glyph-name="cedillacomb" unicode="&#x327;" 
d="M177 0h66l-77 -186l-69 30z" />
    <glyph glyph-name="ogonekcomb" unicode="&#x328;" 
d="M228 29l48 -29q-58 -23 -88.5 -51t-30.5 -57q0 -16 11 -25.5t29 -9.5q16 0 29 6t29 19l29 -50q-18 -19 -44 -29.5t-57 -10.5q-30 0 -52.5 10t-35 29t-12.5 45q0 46 35 83.5t110 69.5z" />
    <glyph glyph-name="strokeshortcomb" unicode="&#x335;" horiz-adv-x="391" 
d="M51 291h260v-72h-260v11v25v25v11z" />
    <glyph glyph-name="commaaccent" 
d="M247 -51l-54 -142h-70l34 142h90z" />
    </font>
</defs>
</svg>
