<?xml version="1.0" standalone="no"?>
<!DOCTYPE svg PUBLIC "-//W3C//DTD SVG 1.1//EN" "http://www.w3.org/Graphics/SVG/1.1/DTD/svg11.dtd" >
<svg xmlns="http://www.w3.org/2000/svg" xmlns:xlink="http://www.w3.org/1999/xlink" version="1.1">
<metadata>
Created by FontForge 20201107 at Mon Apr 18 18:16:14 2022
 By Rahul Gajjar
Copyright 2021-2022 Indian Type Foundry. All rights reserved.
</metadata>
<defs>
<font id="ElevanceSans-Light" horiz-adv-x="400" >
  <font-face 
    font-family="Elevance Sans"
    font-weight="300"
    font-stretch="normal"
    units-per-em="1000"
    panose-1="0 0 0 0 0 0 0 0 0 0"
    ascent="800"
    descent="-200"
    x-height="479"
    cap-height="641"
    bbox="-211 -206 1495 897"
    underline-thickness="50"
    underline-position="-125"
    unicode-range="U+0020-FB02"
  />
<missing-glyph horiz-adv-x="616" 
d="M512 0h-408v641h408v-641zM136 609v-577h344v577h-344z" />
    <glyph glyph-name="fi" unicode="fi" horiz-adv-x="535" 
d="M38 449v30h71v50c0 115 70 169 169 169c66 0 127 -25 161 -61l-21 -24c-36 35 -85 55 -140 55c-93 0 -137 -52 -137 -142v-47h295v-479h-32v449h-263v-449h-32v449h-71z" />
    <glyph glyph-name="fl" unicode="fl" horiz-adv-x="535" 
d="M404 0v640c-30 17 -73 28 -123 28c-93 0 -140 -56 -140 -152v-37h131v-30h-131v-449h-32v449h-71v30h71v40c0 122 72 179 172 179c58 0 99 -11 134 -28h21v-670h-32z" />
    <glyph glyph-name=".notdef" horiz-adv-x="616" 
d="M512 0h-408v641h408v-641zM136 609v-577h344v577h-344z" />
    <glyph glyph-name="space" unicode=" " horiz-adv-x="248" 
 />
    <glyph glyph-name="exclam" unicode="!" horiz-adv-x="263" 
d="M118 167l-4 474h38l-4 -474h-30zM131 -5c-17 0 -32 15 -32 32c0 18 15 33 32 33c18 0 33 -15 33 -33c0 -17 -15 -32 -33 -32z" />
    <glyph glyph-name="quotedbl" unicode="&#x22;" horiz-adv-x="247" 
d="M88 688l-10 -184h-19l-10 184h39zM198 688l-10 -184h-19l-10 184h39z" />
    <glyph glyph-name="numbersign" unicode="#" horiz-adv-x="559" 
d="M86 0l41 202h-118l5 28h119l37 182h-120l5 28h120l41 200h31l-41 -200h197l41 200h31l-41 -200h116l-5 -28h-116l-37 -182h117l-5 -28h-118l-41 -202h-31l41 202h-197l-41 -202h-31zM164 230h197l37 182h-197z" />
    <glyph glyph-name="dollar" unicode="$" horiz-adv-x="543" 
d="M162 12c-27 7 -65 26 -112 55l17 29c63 -42 142 -64 210 -64c104 0 185 50 185 142c0 185 -393 91 -393 301c0 90 76 162 194 167v76h32v-76c74 -2 125 -17 171 -47l-17 -26c-42 27 -101 43 -173 43c-105 0 -175 -61 -175 -135c0 -179 393 -91 393 -298
c0 -115 -88 -172 -199 -178v-78h-32v78c-42 1 -77 5 -101 11z" />
    <glyph glyph-name="percent" unicode="%" horiz-adv-x="765" 
d="M187 339c-91 0 -157 69 -157 156s66 156 157 156s157 -69 157 -156s-66 -156 -157 -156zM174 0h-35l451 641h37zM187 367c64 0 127 47 127 128s-63 128 -127 128s-127 -47 -127 -128s63 -128 127 -128zM578 -10c-91 0 -157 69 -157 156s66 156 157 156s157 -69 157 -156
s-66 -156 -157 -156zM578 18c64 0 127 47 127 128s-63 128 -127 128s-127 -47 -127 -128s63 -128 127 -128z" />
    <glyph glyph-name="ampersand" unicode="&#x26;" horiz-adv-x="606" 
d="M259 -10c-118 0 -214 59 -214 172c0 95 79 144 168 180l-31 33c-45 49 -62 89 -62 132c0 74 65 144 157 144s155 -70 155 -144s-56 -139 -170 -176l198 -212c25 36 43 81 51 133l5 32l27 -4l-5 -32c-9 -60 -29 -111 -58 -151l85 -91l-22 -18l-81 87
c-50 -55 -119 -85 -203 -85zM206 391l36 -38c117 40 160 94 160 155c0 58 -51 115 -125 115s-127 -57 -127 -115c0 -32 6 -64 56 -117zM75 162c0 -95 85 -144 184 -144c76 0 139 28 183 78l-208 224c-85 -30 -159 -77 -159 -158z" />
    <glyph glyph-name="quotesingle" unicode="'" horiz-adv-x="137" 
d="M88 688l-10 -184h-19l-10 184h39z" />
    <glyph glyph-name="parenleft" unicode="(" horiz-adv-x="293" 
d="M284 -120l-19 -20c-117 102 -201 249 -201 419s84 317 201 419l19 -20c-116 -103 -188 -254 -188 -399s72 -296 188 -399z" />
    <glyph glyph-name="parenright" unicode=")" horiz-adv-x="293" 
d="M28 -140l-19 20c116 103 188 254 188 399s-72 296 -188 399l19 20c117 -102 201 -249 201 -419s-84 -317 -201 -419z" />
    <glyph glyph-name="asterisk" unicode="*" horiz-adv-x="364" 
d="M246 435l-64 97l-64 -97l-29 21l72 92l-112 30l11 35l109 -42l-5 117h36l-5 -117l109 42l11 -35l-112 -30l72 -92z" />
    <glyph glyph-name="plus" unicode="+" horiz-adv-x="499" 
d="M69 308v30h165v178h32v-178h165v-30h-165v-178h-32v178h-165z" />
    <glyph glyph-name="comma" unicode="," horiz-adv-x="143" 
d="M92 60c20 0 34 -15 34 -32c0 -13 -5 -22 -11 -33l-63 -119h-25l55 122c-13 5 -22 16 -22 30c0 17 14 32 32 32z" />
    <glyph glyph-name="hyphen" unicode="-" horiz-adv-x="283" 
d="M29 252h225v-30h-225v30z" />
    <glyph glyph-name="period" unicode="." horiz-adv-x="145" 
d="M92 -5c-17 0 -32 15 -32 32c0 18 15 33 32 33c18 0 33 -15 33 -33c0 -17 -15 -32 -33 -32z" />
    <glyph glyph-name="slash" unicode="/" horiz-adv-x="371" 
d="M19 0l300 641h33l-300 -641h-33z" />
    <glyph glyph-name="zero" unicode="0" horiz-adv-x="583" 
d="M291 -10c-128 0 -222 140 -222 331c0 190 94 330 222 330c129 0 223 -140 223 -330c0 -191 -94 -331 -223 -331zM291 20c110 0 191 127 191 301s-81 300 -191 300s-190 -126 -190 -300s80 -301 190 -301z" />
    <glyph glyph-name="one" unicode="1" horiz-adv-x="376" 
d="M237 0h-32v598l-138 -135l-20 22l160 156h30v-641z" />
    <glyph glyph-name="two" unicode="2" horiz-adv-x="474" 
d="M19 0v28l267 258c65 63 96 116 96 184c0 77 -63 151 -160 151c-82 0 -136 -41 -171 -105l-26 17c38 68 100 118 197 118c113 0 192 -85 192 -181c0 -74 -24 -128 -105 -205l-245 -235h361v-30h-406z" />
    <glyph glyph-name="three" unicode="3" horiz-adv-x="489" 
d="M220 -10c-88 0 -148 29 -201 96l24 23c52 -64 105 -89 177 -89c118 0 178 75 178 164c0 87 -49 162 -210 162h-31v25l220 240h-333v30h373v-30l-217 -235c177 -6 230 -92 230 -192c0 -101 -69 -194 -210 -194z" />
    <glyph glyph-name="four" unicode="4" horiz-adv-x="527" 
d="M29 189l327 452h26v-452h107v-30h-107v-159h-32v159h-321v30zM64 189h286v396z" />
    <glyph glyph-name="five" unicode="5" horiz-adv-x="539" 
d="M260 19c118 0 178 78 178 168s-51 176 -176 176c-75 0 -113 -15 -161 -47l-17 9l55 316h299v-30h-274l-44 -254c33 21 84 35 142 35c144 0 208 -99 208 -205c0 -102 -69 -198 -210 -198c-88 0 -148 29 -201 96l24 23c52 -64 105 -89 177 -89z" />
    <glyph glyph-name="six" unicode="6" horiz-adv-x="561" 
d="M284 -10c-119 0 -215 94 -215 215c0 70 24 118 77 190l182 246h38l-178 -244c37 18 69 21 95 21c129 0 214 -95 214 -213c0 -123 -94 -215 -213 -215zM284 388c-106 0 -183 -77 -183 -183c0 -107 77 -185 183 -185c104 0 181 78 181 185c0 106 -77 183 -181 183z" />
    <glyph glyph-name="seven" unicode="7" horiz-adv-x="432" 
d="M126 0h-34l275 611h-358v30h394v-27z" />
    <glyph glyph-name="eight" unicode="8" horiz-adv-x="530" 
d="M265 -10c-119 0 -206 81 -206 191c0 84 57 151 142 173c-67 20 -111 73 -111 139c0 91 74 158 175 158s175 -67 175 -158c0 -66 -44 -119 -111 -139c85 -22 142 -89 142 -173c0 -110 -87 -191 -206 -191zM266 367c82 0 142 54 142 127s-60 127 -142 127
c-83 0 -144 -54 -144 -127s61 -127 144 -127zM266 20c100 0 173 68 173 160c0 91 -73 157 -173 157c-101 0 -175 -66 -175 -157c0 -92 74 -160 175 -160z" />
    <glyph glyph-name="nine" unicode="9" horiz-adv-x="561" 
d="M277 651c119 0 215 -94 215 -215c0 -70 -24 -118 -77 -190l-182 -246h-38l178 244c-37 -18 -69 -21 -95 -21c-129 0 -214 95 -214 213c0 123 94 215 213 215zM277 253c106 0 183 77 183 183c0 107 -77 185 -183 185c-104 0 -181 -78 -181 -185c0 -106 77 -183 181 -183z
" />
    <glyph glyph-name="colon" unicode=":" horiz-adv-x="145" 
d="M92 385c-17 0 -32 15 -32 32c0 18 15 33 32 33c18 0 33 -15 33 -33c0 -17 -15 -32 -33 -32zM92 -5c-17 0 -32 15 -32 32c0 18 15 33 32 33c18 0 33 -15 33 -33c0 -17 -15 -32 -33 -32z" />
    <glyph glyph-name="semicolon" unicode=";" horiz-adv-x="145" 
d="M92 385c-17 0 -32 15 -32 32c0 18 15 33 32 33c18 0 33 -15 33 -33c0 -17 -15 -32 -33 -32zM92 60c20 0 34 -15 34 -32c0 -13 -5 -22 -11 -33l-63 -119h-25l55 122c-13 5 -22 16 -22 30c0 17 14 32 32 32z" />
    <glyph glyph-name="less" unicode="&#x3c;" horiz-adv-x="529" 
d="M446 148v-34l-362 198v22l362 197v-34l-321 -174z" />
    <glyph glyph-name="equal" unicode="=" horiz-adv-x="499" 
d="M69 378v30h362v-30h-362zM69 238v30h362v-30h-362z" />
    <glyph glyph-name="greater" unicode="&#x3e;" horiz-adv-x="529" 
d="M84 148l321 175l-321 174v34l362 -197v-22l-362 -198v34z" />
    <glyph glyph-name="question" unicode="?" horiz-adv-x="478" 
d="M198 167l-1 114v30h12c118 0 183 81 183 162c0 96 -80 148 -164 148c-55 0 -113 -26 -156 -84l-24 18c47 66 117 96 184 96c96 0 191 -61 191 -178c0 -90 -68 -182 -194 -191l-1 -115h-30zM218 -5c-17 0 -32 15 -32 32c0 18 15 33 32 33c18 0 33 -15 33 -33
c0 -17 -15 -32 -33 -32z" />
    <glyph glyph-name="at" unicode="@" horiz-adv-x="850" 
d="M393 85c-75 0 -138 67 -138 173c0 116 77 206 174 206c58 0 96 -31 114 -88l4 77h32l-12 -209c-5 -95 24 -128 70 -128c80 0 122 86 122 193c0 167 -140 310 -329 310c-188 0 -339 -153 -339 -341c0 -186 151 -341 339 -341c77 0 120 14 166 42l15 -26
c-42 -27 -102 -46 -181 -46c-204 0 -371 167 -371 371s167 371 371 371s361 -157 361 -339c0 -123 -57 -224 -156 -224c-46 0 -88 26 -98 99c-24 -61 -73 -100 -144 -100zM394 115c91 0 143 82 143 176c0 79 -40 143 -106 143c-81 0 -144 -75 -144 -172
c0 -84 47 -147 107 -147z" />
    <glyph glyph-name="A" unicode="A" horiz-adv-x="625" 
d="M569 0l-84 198h-348l-85 -198h-33l275 641h37l275 -641h-37zM149 228h323l-161 378z" />
    <glyph glyph-name="B" unicode="B" horiz-adv-x="611" 
d="M104 0v640h248c98 0 177 -73 177 -163c0 -78 -57 -126 -100 -142c65 -19 128 -72 128 -162c0 -95 -84 -173 -187 -173h-266zM347 610h-211v-264h212c83 0 149 59 149 131c0 73 -67 133 -150 133zM364 316h-228v-286h227c89 0 162 64 162 143s-72 143 -161 143z" />
    <glyph glyph-name="C" unicode="C" horiz-adv-x="632" 
d="M602 582l-20 -25c-54 40 -110 64 -196 64c-160 0 -290 -135 -290 -302c0 -165 130 -299 298 -299c74 0 140 21 190 61l19 -22c-63 -52 -130 -69 -212 -69c-183 0 -327 147 -327 329c0 183 144 332 322 332c91 0 156 -22 216 -69z" />
    <glyph glyph-name="D" unicode="D" horiz-adv-x="695" 
d="M104 0v640h167c217 0 360 -127 360 -320s-137 -320 -343 -320h-184zM277 610h-141v-580h141c194 0 322 115 322 290s-128 290 -322 290z" />
    <glyph glyph-name="E" unicode="E" horiz-adv-x="540" 
d="M104 0v641h392v-30h-360v-276h320v-30h-320v-275h360v-30h-392z" />
    <glyph glyph-name="F" unicode="F" horiz-adv-x="524" 
d="M104 0v640h381v-30h-349v-280h309v-30h-309v-300h-32z" />
    <glyph glyph-name="G" unicode="G" horiz-adv-x="677" 
d="M401 -10c-203 0 -337 147 -337 329c0 183 144 332 322 332c91 0 156 -22 216 -69l-20 -25c-54 40 -110 64 -196 64c-160 0 -290 -135 -290 -302c0 -165 120 -299 308 -299c68 0 132 16 185 48v224h-203v30h235v-271c-63 -42 -138 -61 -220 -61z" />
    <glyph glyph-name="H" unicode="H" horiz-adv-x="715" 
d="M579 0v305h-443v-305h-32v641h32v-306h443v306h32v-641h-32z" />
    <glyph glyph-name="I" unicode="I" horiz-adv-x="240" 
d="M104 0v641h32v-641h-32z" />
    <glyph glyph-name="J" unicode="J" horiz-adv-x="402" 
d="M19 47l23 22c23 -29 61 -49 107 -49c78 0 127 48 127 149v472h32v-478c0 -121 -74 -173 -159 -173c-50 0 -102 20 -130 57z" />
    <glyph glyph-name="K" unicode="K" horiz-adv-x="554" 
d="M136 0h-32v641h32v-320l344 320h44l-347 -325l359 -316h-50l-350 308v-308z" />
    <glyph glyph-name="L" unicode="L" horiz-adv-x="519" 
d="M104 0v641h32v-611h364v-30h-396z" />
    <glyph glyph-name="M" unicode="M" horiz-adv-x="829" 
d="M415 134l-279 450v-584h-32v641h36l277 -450l276 450h32v-641h-32v584z" />
    <glyph glyph-name="N" unicode="N" horiz-adv-x="715" 
d="M580 0l-449 594v-594h-32v641h36l449 -594v594h32v-641h-36z" />
    <glyph glyph-name="O" unicode="O" horiz-adv-x="772" 
d="M386 651c178 0 322 -149 322 -332c0 -182 -144 -329 -322 -329s-322 147 -322 329c0 183 144 332 322 332zM386 20c160 0 290 134 290 299c0 167 -130 302 -290 302s-290 -135 -290 -302c0 -165 130 -299 290 -299z" />
    <glyph glyph-name="P" unicode="P" horiz-adv-x="601" 
d="M104 0v641h218c135 0 225 -74 225 -188c0 -112 -91 -187 -229 -187h-182v-266h-32zM325 611h-189v-315h189c114 0 190 63 190 157c0 96 -76 158 -190 158z" />
    <glyph glyph-name="Q" unicode="Q" horiz-adv-x="772" 
d="M386 -10c-178 0 -322 147 -322 329c0 183 144 332 322 332s322 -149 322 -332c0 -97 -41 -184 -106 -244l107 -107l-22 -22l-109 109c-53 -41 -120 -65 -192 -65zM386 20c64 0 122 21 170 57l-108 108l22 22l110 -110c59 55 96 134 96 222c0 167 -130 302 -290 302
s-290 -135 -290 -302c0 -165 130 -299 290 -299z" />
    <glyph glyph-name="R" unicode="R" horiz-adv-x="598" 
d="M104 0v641h218c123 0 205 -70 205 -178c0 -97 -70 -165 -179 -176l186 -287h-37l-186 286h-175v-286h-32zM325 611h-189v-295h189c102 0 170 59 170 147c0 90 -68 148 -170 148z" />
    <glyph glyph-name="S" unicode="S" horiz-adv-x="543" 
d="M162 1c-27 7 -65 26 -112 55l17 29c63 -42 142 -64 210 -64c104 0 185 50 185 142c0 185 -393 93 -393 321c0 93 82 167 207 167c84 0 141 -18 190 -47l-17 -26c-41 24 -101 43 -173 43c-105 0 -175 -61 -175 -135c0 -197 393 -111 393 -318c0 -121 -98 -178 -217 -178
c-49 0 -88 4 -115 11z" />
    <glyph glyph-name="T" unicode="T" horiz-adv-x="500" 
d="M491 611h-225v-611h-32v611h-225v30h482v-30z" />
    <glyph glyph-name="U" unicode="U" horiz-adv-x="653" 
d="M94 231v410h32v-413c0 -125 80 -208 200 -208c121 0 201 83 201 208v413h32v-410c0 -145 -93 -241 -233 -241s-232 96 -232 241z" />
    <glyph glyph-name="V" unicode="V" horiz-adv-x="585" 
d="M56 641l238 -604l239 604h33l-255 -641h-37l-255 641h37z" />
    <glyph glyph-name="W" unicode="W" horiz-adv-x="941" 
d="M878 641h34l-210 -641h-36l-195 596l-196 -596h-36l-210 641h35l194 -595l193 595h40l194 -595z" />
    <glyph glyph-name="X" unicode="X" horiz-adv-x="536" 
d="M67 641l203 -289l202 289h35l-219 -314l229 -327h-38l-213 303l-212 -303h-35l229 329l-219 312h38z" />
    <glyph glyph-name="Y" unicode="Y" horiz-adv-x="536" 
d="M252 0v221l-243 420h37l222 -386l223 386h36l-243 -420v-221h-32z" />
    <glyph glyph-name="Z" unicode="Z" horiz-adv-x="536" 
d="M39 30l420 581h-420v30h458v-30l-420 -581h420v-30h-458v30z" />
    <glyph glyph-name="bracketleft" unicode="[" horiz-adv-x="305" 
d="M104 -130v818h172v-30h-140v-758h140v-30h-172z" />
    <glyph glyph-name="backslash" unicode="\" horiz-adv-x="371" 
d="M352 0h-33l-300 641h33z" />
    <glyph glyph-name="bracketright" unicode="]" horiz-adv-x="305" 
d="M201 -130h-172v30h140v758h-140v30h172v-818z" />
    <glyph glyph-name="asciicircum" unicode="^" horiz-adv-x="499" 
d="M238 641h28l151 -320h-33l-132 278l-136 -278h-33z" />
    <glyph glyph-name="underscore" unicode="_" horiz-adv-x="393" 
d="M-11 -20h415v-30h-415v30z" />
    <glyph glyph-name="grave" unicode="`" horiz-adv-x="378" 
d="M124 688l98 -156h-31l-110 156h43z" />
    <glyph glyph-name="a" unicode="a" horiz-adv-x="630" 
d="M295 -10c-136 0 -236 112 -236 250s100 249 236 249c91 0 165 -51 204 -126v116h32v-479h-32v117c-39 -76 -113 -127 -204 -127zM296 20c119 0 203 100 203 221s-84 218 -203 218s-205 -97 -205 -218s86 -221 205 -221z" />
    <glyph glyph-name="b" unicode="b" horiz-adv-x="630" 
d="M335 489c136 0 236 -112 236 -250s-100 -249 -236 -249c-91 0 -165 50 -204 124v-114h-32v688h32v-324c39 75 113 125 204 125zM336 459c-119 0 -205 -100 -205 -221s86 -218 205 -218s203 97 203 218s-84 221 -203 221z" />
    <glyph glyph-name="c" unicode="c" horiz-adv-x="485" 
d="M446 406c-36 33 -88 53 -148 53c-121 0 -207 -97 -207 -218s86 -221 205 -221c60 0 115 18 149 52l19 -23c-39 -39 -101 -59 -169 -59c-136 0 -236 112 -236 250s100 249 240 249c69 0 130 -23 167 -59z" />
    <glyph glyph-name="d" unicode="d" horiz-adv-x="630" 
d="M295 -10c-136 0 -236 112 -236 250s100 249 236 249c91 0 165 -51 204 -126v325h32v-688h-32v117c-39 -76 -113 -127 -204 -127zM296 20c119 0 203 100 203 221s-84 218 -203 218s-205 -97 -205 -218s86 -221 205 -221z" />
    <glyph glyph-name="e" unicode="e" horiz-adv-x="558" 
d="M300 -10c-141 0 -241 112 -241 250s96 249 229 249c130 0 226 -110 226 -240c0 -5 -1 -14 -2 -18h-421c5 -117 90 -211 210 -211c62 0 123 22 161 60l19 -23c-43 -43 -111 -67 -181 -67zM288 459c-109 0 -188 -86 -196 -198h389c-15 123 -90 198 -193 198z" />
    <glyph glyph-name="f" unicode="f" horiz-adv-x="283" 
d="M38 449v30h71v100c0 81 47 119 112 119c42 0 73 -15 93 -40l-21 -21c-16 18 -42 31 -72 31c-53 0 -80 -34 -80 -92v-97h131v-30h-131v-449h-32v449h-71z" />
    <glyph glyph-name="g" unicode="g" horiz-adv-x="630" 
d="M118 -122c45 -32 108 -54 179 -54c132 0 202 72 202 207v86c-39 -76 -113 -127 -204 -127c-136 0 -236 112 -236 250s100 249 236 249c91 0 165 -51 204 -126v116h32v-445c0 -156 -81 -240 -234 -240c-86 0 -150 22 -197 57zM296 20c119 0 203 100 203 221
s-84 218 -203 218s-205 -97 -205 -218s86 -221 205 -221z" />
    <glyph glyph-name="h" unicode="h" horiz-adv-x="567" 
d="M99 0v688h32v-292c30 57 86 93 160 93c116 0 192 -76 192 -190v-299h-32v290c0 105 -60 169 -160 169s-160 -64 -160 -169v-290h-32z" />
    <glyph glyph-name="i" unicode="i" horiz-adv-x="230" 
d="M115 594c-15 0 -27 12 -27 27c0 14 12 27 27 27s27 -13 27 -27c0 -15 -12 -27 -27 -27zM131 0h-32v479h32v-479z" />
    <glyph glyph-name="j" unicode="j" horiz-adv-x="230" 
d="M115 594c-15 0 -27 12 -27 27c0 14 12 27 27 27s27 -13 27 -27c0 -15 -12 -27 -27 -27zM27 -206c-37 0 -56 10 -76 25l17 24c15 -12 33 -19 59 -19c47 0 72 31 72 89v566h32v-563c0 -80 -36 -122 -104 -122z" />
    <glyph glyph-name="k" unicode="k" horiz-adv-x="486" 
d="M131 0h-32v688h32v-433l283 224h48l-294 -234l304 -245h-49l-292 235v-235z" />
    <glyph glyph-name="l" unicode="l" horiz-adv-x="244" 
d="M207 28l7 -29c-11 -4 -23 -6 -34 -6c-45 0 -81 31 -81 96v599h32v-597c0 -52 26 -67 52 -67c8 0 16 1 24 4z" />
    <glyph glyph-name="m" unicode="m" horiz-adv-x="879" 
d="M131 0h-32v479h32v-80c29 55 81 90 150 90c83 0 144 -43 169 -113c26 68 84 113 163 113c110 0 182 -76 182 -190v-299h-32v290c0 105 -56 169 -150 169s-150 -64 -150 -169v-290h-32v290c0 105 -56 169 -150 169s-150 -64 -150 -169v-290z" />
    <glyph glyph-name="n" unicode="n" horiz-adv-x="567" 
d="M99 0v479h32v-83c30 57 86 93 160 93c116 0 192 -76 192 -190v-299h-32v290c0 105 -60 169 -160 169s-160 -64 -160 -169v-290h-32z" />
    <glyph glyph-name="o" unicode="o" horiz-adv-x="590" 
d="M295 -10c-136 0 -236 112 -236 250s100 249 236 249s236 -111 236 -249s-100 -250 -236 -250zM296 20c119 0 203 100 203 221s-84 218 -203 218s-205 -97 -205 -218s86 -221 205 -221z" />
    <glyph glyph-name="p" unicode="p" horiz-adv-x="630" 
d="M131 -196h-32v675h32v-115c39 75 113 125 204 125c136 0 236 -112 236 -250s-100 -249 -236 -249c-91 0 -165 50 -204 124v-310zM336 20c119 0 203 97 203 218s-84 221 -203 221s-205 -100 -205 -221s86 -218 205 -218z" />
    <glyph glyph-name="q" unicode="q" horiz-adv-x="630" 
d="M295 -10c-136 0 -236 112 -236 250s100 249 236 249c91 0 165 -51 204 -126v116h32v-675h-32v313c-39 -76 -113 -127 -204 -127zM296 20c119 0 203 100 203 221s-84 218 -203 218s-205 -97 -205 -218s86 -221 205 -221z" />
    <glyph glyph-name="r" unicode="r" horiz-adv-x="338" 
d="M99 0v479h32v-74c25 52 68 84 125 84c28 0 53 -6 68 -17l-14 -29c-16 10 -37 16 -60 16c-73 0 -119 -64 -119 -169v-290h-32z" />
    <glyph glyph-name="s" unicode="s" horiz-adv-x="430" 
d="M214 -10c-60 0 -125 18 -177 50l14 28c51 -31 109 -48 165 -48c89 0 138 41 138 101c0 147 -295 73 -295 248c0 68 62 120 166 120c62 0 114 -19 150 -38l-13 -27c-33 18 -80 35 -137 35c-82 0 -134 -39 -134 -89c0 -145 295 -74 295 -247c0 -81 -65 -133 -172 -133z" />
    <glyph glyph-name="t" unicode="t" horiz-adv-x="335" 
d="M38 449v30h71v110h32v-110h147v-30h-147v-336c0 -61 30 -93 85 -93c27 0 54 9 72 26l18 -25c-16 -15 -47 -31 -89 -31c-77 0 -118 42 -118 120v339h-71z" />
    <glyph glyph-name="u" unicode="u" horiz-adv-x="567" 
d="M121 479v-275c0 -107 64 -178 161 -178c99 0 164 71 164 178v275h32v-279c0 -123 -78 -204 -196 -204c-116 0 -193 81 -193 204v279h32z" />
    <glyph glyph-name="v" unicode="v" horiz-adv-x="467" 
d="M254 0h-41l-194 479h35l180 -447l180 447h34z" />
    <glyph glyph-name="w" unicode="w" horiz-adv-x="777" 
d="M231 0h-38l-164 479h35l148 -440l159 440h37l158 -439l148 439h34l-164 -479h-37l-158 435z" />
    <glyph glyph-name="x" unicode="x" horiz-adv-x="460" 
d="M19 0l190 247l-180 232h40l163 -209l162 209h37l-180 -234l190 -245h-40l-173 223l-172 -223h-37z" />
    <glyph glyph-name="y" unicode="y" horiz-adv-x="467" 
d="M194 -95l35 90l-216 484h33l198 -445l171 445h33l-226 -586c-22 -56 -52 -99 -116 -99c-26 0 -60 9 -87 33l18 25c20 -18 45 -28 73 -28c36 0 60 20 84 81z" />
    <glyph glyph-name="z" unicode="z" horiz-adv-x="469" 
d="M44 30l337 419h-332v30h371v-30l-337 -419h342v-30h-381v30z" />
    <glyph glyph-name="braceleft" unicode="{" horiz-adv-x="330" 
d="M49 264v30c72 0 90 26 90 94v173c0 72 37 127 123 127h39v-30h-36c-62 0 -94 -32 -94 -94v-185c0 -66 -27 -97 -75 -100c48 -3 75 -34 75 -100v-185c0 -62 32 -94 94 -94h36v-30h-39c-86 0 -123 55 -123 127v173c0 68 -18 94 -90 94z" />
    <glyph glyph-name="bar" unicode="|" horiz-adv-x="240" 
d="M136 -196h-32v884h32v-884z" />
    <glyph glyph-name="braceright" unicode="}" horiz-adv-x="330" 
d="M281 264c-72 0 -90 -26 -90 -94v-173c0 -72 -37 -127 -123 -127h-39v30h36c62 0 94 32 94 94v185c0 66 27 97 75 100c-48 3 -75 34 -75 100v185c0 62 -32 94 -94 94h-36v30h39c86 0 123 -55 123 -127v-173c0 -68 18 -94 90 -94v-30z" />
    <glyph glyph-name="asciitilde" unicode="~" horiz-adv-x="499" 
d="M69 292v35c25 17 59 37 99 37c72 0 100 -52 163 -52c36 0 71 14 100 33v-35c-27 -17 -59 -30 -98 -30c-71 0 -102 52 -164 52c-47 0 -76 -20 -100 -40z" />
    <glyph glyph-name="exclamdown" unicode="&#xa1;" horiz-adv-x="263" 
d="M132 424c-18 0 -33 15 -33 33c0 17 15 32 33 32c17 0 32 -15 32 -32c0 -18 -15 -33 -32 -33zM149 -157h-38l4 474h30z" />
    <glyph glyph-name="cent" unicode="&#xa2;" horiz-adv-x="505" 
d="M446 482c-36 33 -88 53 -148 53c-121 0 -207 -97 -207 -218s86 -221 205 -221c60 0 115 18 149 52l19 -23c-37 -37 -94 -57 -158 -59v-76h-32v77c-125 11 -215 118 -215 249c0 130 89 236 216 248v77h32v-76c66 -2 123 -24 159 -59z" />
    <glyph glyph-name="sterling" unicode="&#xa3;" horiz-adv-x="511" 
d="M39 30h31c44 0 60 28 60 72v176h-70v30h70v154c0 116 78 190 187 190c78 0 134 -35 166 -86l-26 -20c-33 48 -84 76 -140 76c-99 0 -155 -72 -155 -163v-151h272v-30h-272v-178c0 -46 -20 -64 -41 -70h376v-30h-458v30z" />
    <glyph glyph-name="currency" unicode="&#xa4;" horiz-adv-x="517" 
d="M258 102c-54 0 -100 21 -135 56l-73 -69l-21 23l74 70c-26 35 -41 78 -41 125s15 90 40 125l-73 69l21 23l73 -69c34 35 81 56 135 56s101 -21 136 -56l73 69l21 -23l-74 -70c24 -34 38 -77 38 -124c0 -46 -14 -90 -39 -124l75 -71l-21 -23l-74 70
c-34 -35 -81 -57 -135 -57zM258 132c94 0 162 78 162 175c0 96 -68 174 -162 174c-95 0 -164 -78 -164 -174c0 -97 69 -175 164 -175z" />
    <glyph glyph-name="yen" unicode="&#xa5;" horiz-adv-x="536" 
d="M284 0h-32v221l-1 2h-191v30h173l-69 120h-104v30h87l-138 238h37l222 -386l223 386h36l-138 -238h87v-30h-104l-69 -120h173v-30h-191l-1 -2v-221z" />
    <glyph glyph-name="brokenbar" unicode="&#xa6;" horiz-adv-x="240" 
d="M136 688v-365h-32v365h32zM136 169v-365h-32v365h32z" />
    <glyph glyph-name="section" unicode="&#xa7;" horiz-adv-x="623" 
d="M506 565l-25 -22c-30 42 -100 78 -175 78c-105 0 -175 -49 -175 -123c0 -176 433 -97 433 -320c0 -51 -34 -95 -77 -118c23 -23 37 -52 37 -91c0 -108 -82 -175 -217 -175c-101 0 -182 40 -229 101l24 22c48 -59 119 -93 204 -93c117 0 186 56 186 140
c0 197 -433 112 -433 323c0 42 26 89 87 115c-29 23 -47 52 -47 94c0 93 82 155 207 155c91 0 168 -41 200 -86zM91 287c0 -140 259 -124 376 -210c37 19 65 57 65 98c0 151 -241 142 -364 212c-48 -16 -77 -55 -77 -100z" />
    <glyph glyph-name="copyright" unicode="&#xa9;" horiz-adv-x="837" 
d="M419 677c195 0 354 -159 354 -354c0 -196 -159 -355 -354 -355c-196 0 -355 159 -355 355c0 195 159 354 355 354zM419 647c-178 0 -323 -145 -323 -324c0 -180 145 -325 323 -325c177 0 322 145 322 325c0 179 -145 324 -322 324zM575 487l-20 -25
c-37 34 -75 51 -134 51c-101 0 -185 -86 -185 -192c0 -104 82 -189 193 -189c51 0 96 17 131 50l19 -22c-47 -43 -93 -58 -153 -58c-126 0 -222 98 -222 219c0 122 96 222 217 222c65 0 111 -16 154 -56z" />
    <glyph glyph-name="guillemotleft" unicode="&#xab;" horiz-adv-x="469" 
d="M44 241l178 177l21 -21l-156 -156l156 -157l-21 -21zM226 241l178 177l21 -21l-156 -156l156 -157l-21 -21z" />
    <glyph glyph-name="registered" unicode="&#xae;" horiz-adv-x="446" 
d="M224 671c110 0 193 -91 193 -201c0 -114 -79 -199 -193 -199c-111 0 -195 89 -195 199s84 201 195 201zM224 643c-94 0 -164 -79 -164 -173s70 -171 164 -171c97 0 163 73 163 171c0 94 -70 173 -163 173zM150 359v223h78c22 0 78 -4 78 -62c0 -48 -39 -59 -65 -61
l82 -100h-37l-80 99h-25v-99h-31zM228 553h-47v-66h47c22 0 46 2 46 33s-24 33 -46 33z" />
    <glyph glyph-name="degree" unicode="&#xb0;" horiz-adv-x="330" 
d="M164 340c-89 0 -155 69 -155 154c0 87 66 156 157 156c97 0 155 -69 155 -156c0 -85 -58 -154 -157 -154zM164 368c73 0 127 51 127 126c0 82 -58 128 -125 128c-64 0 -127 -47 -127 -128c0 -78 63 -126 125 -126z" />
    <glyph glyph-name="plusminus" unicode="&#xb1;" horiz-adv-x="499" 
d="M69 308v30h165v178h32v-178h165v-30h-165v-178h-32v178h-165zM69 0v30h362v-30h-362z" />
    <glyph glyph-name="twosuperior" unicode="&#xb2;" horiz-adv-x="279" 
d="M35 321v24l130 125c29 28 43 52 43 82c0 35 -27 66 -70 66c-37 0 -62 -19 -78 -50l-24 15c18 36 51 64 103 64c60 0 100 -44 100 -94c0 -36 -14 -63 -53 -101l-109 -104h166v-27h-208z" />
    <glyph glyph-name="threesuperior" unicode="&#xb3;" horiz-adv-x="279" 
d="M136 316c-46 0 -78 16 -103 49l22 20c23 -30 48 -42 82 -42c53 0 79 33 79 72c0 40 -24 72 -93 72h-21v19l100 108h-154v27h191v-25l-100 -106c80 -5 107 -45 107 -95c0 -53 -37 -99 -110 -99z" />
    <glyph glyph-name="paragraph" unicode="&#xb6;" horiz-adv-x="518" 
d="M275 641h139v-837h-32v807h-61v-807h-45v431c-142 3 -227 91 -227 208c0 120 85 198 226 198z" />
    <glyph glyph-name="onesuperior" unicode="&#xb9;" horiz-adv-x="279" 
d="M157 321h-30v282l-63 -61l-19 20l82 79h30v-320z" />
    <glyph glyph-name="guillemotright" unicode="&#xbb;" horiz-adv-x="469" 
d="M226 397l21 21l178 -177l-178 -178l-21 21l156 157zM44 397l21 21l178 -177l-178 -178l-21 21l156 157z" />
    <glyph glyph-name="onequarter" unicode="&#xbc;" horiz-adv-x="668" 
d="M157 321h-30v282l-63 -61l-19 20l82 79h30v-320zM98 0l453 641h35l-451 -641h-37zM406 101l161 219h26v-219h51v-28h-51v-73h-30v73h-157v28zM438 101h125v172z" />
    <glyph glyph-name="onehalf" unicode="&#xbd;" horiz-adv-x="668" 
d="M157 321h-30v282l-63 -61l-19 20l82 79h30v-320zM76 0l453 641h35l-451 -641h-37zM424 0v24l130 125c29 28 43 52 43 82c0 35 -27 66 -70 66c-37 0 -62 -19 -78 -50l-24 15c18 36 51 64 103 64c60 0 100 -44 100 -94c0 -36 -14 -63 -53 -101l-109 -104h166v-27h-208z" />
    <glyph glyph-name="threequarters" unicode="&#xbe;" horiz-adv-x="668" 
d="M136 316c-46 0 -78 16 -103 49l22 20c23 -30 48 -42 82 -42c53 0 79 33 79 72c0 40 -24 72 -93 72h-21v19l100 108h-154v27h191v-25l-100 -106c80 -5 107 -45 107 -95c0 -53 -37 -99 -110 -99zM116 0l453 641h35l-451 -641h-37zM406 101l161 219h26v-219h51v-28h-51v-73
h-30v73h-157v28zM438 101h125v172z" />
    <glyph glyph-name="multiply" unicode="&#xd7;" horiz-adv-x="499" 
d="M123 175l-21 21l126 126l-126 126l23 23l126 -126l126 126l21 -21l-126 -126l126 -126l-23 -23l-126 126z" />
    <glyph glyph-name="divide" unicode="&#xf7;" horiz-adv-x="499" 
d="M246 463c-17 0 -32 15 -32 32c0 18 15 33 32 33c18 0 33 -15 33 -33c0 -17 -15 -32 -33 -32zM431 308h-362v30h362v-30zM246 118c-17 0 -32 15 -32 32c0 18 15 33 32 33c18 0 33 -15 33 -33c0 -17 -15 -32 -33 -32z" />
    <glyph glyph-name="pi" unicode="&#x3c0;" horiz-adv-x="582" 
d="M29 449v30h514v-30h-92v-344c0 -52 19 -75 61 -75h31v-30h-34c-56 0 -90 29 -90 101v348h-278v-448h-32v448h-80z" />
    <glyph glyph-name="endash" unicode="&#x2013;" horiz-adv-x="478" 
d="M29 252h420v-30h-420v30z" />
    <glyph glyph-name="emdash" unicode="&#x2014;" horiz-adv-x="978" 
d="M29 252h920v-30h-920v30z" />
    <glyph glyph-name="quoteleft" unicode="&#x2018;" horiz-adv-x="119" 
d="M44 504c-20 0 -34 15 -34 32c0 13 5 22 11 33l63 119h25l-55 -122c13 -5 22 -16 22 -30c0 -17 -14 -32 -32 -32z" />
    <glyph glyph-name="quoteright" unicode="&#x2019;" horiz-adv-x="119" 
d="M75 689c20 0 34 -15 34 -32c0 -13 -5 -22 -11 -33l-63 -119h-25l55 122c-13 5 -22 16 -22 30c0 17 14 32 32 32z" />
    <glyph glyph-name="quotedblleft" unicode="&#x201c;" horiz-adv-x="240" 
d="M165 504c-20 0 -34 15 -34 32c0 13 5 22 11 33l63 119h25l-55 -122c13 -5 22 -16 22 -30c0 -17 -14 -32 -32 -32zM44 504c-20 0 -34 15 -34 32c0 13 5 22 11 33l63 119h25l-55 -122c13 -5 22 -16 22 -30c0 -17 -14 -32 -32 -32z" />
    <glyph glyph-name="quotedblright" unicode="&#x201d;" horiz-adv-x="240" 
d="M86 689c20 0 34 -15 34 -32c0 -13 -5 -22 -11 -33l-63 -119h-25l55 122c-13 5 -22 16 -22 30c0 17 14 32 32 32zM207 689c20 0 34 -15 34 -32c0 -13 -5 -22 -11 -33l-63 -119h-25l55 122c-13 5 -22 16 -22 30c0 17 14 32 32 32z" />
    <glyph glyph-name="dagger" unicode="&#x2020;" horiz-adv-x="410" 
d="M189 -196v639h-160v30h160v215h32v-215h160v-30h-160v-639h-32z" />
    <glyph glyph-name="daggerdbl" unicode="&#x2021;" horiz-adv-x="410" 
d="M29 19v30h160v394h-160v30h160v215h32v-215h160v-30h-160v-394h160v-30h-160v-215h-32v215h-160z" />
    <glyph glyph-name="bullet" unicode="&#x2022;" horiz-adv-x="342" 
d="M171 148c-57 0 -102 45 -102 102s45 102 102 102s102 -45 102 -102s-45 -102 -102 -102z" />
    <glyph glyph-name="ellipsis" unicode="&#x2026;" horiz-adv-x="473" 
d="M416 -5c-17 0 -32 15 -32 32c0 18 15 33 32 33c18 0 33 -15 33 -33c0 -17 -15 -32 -33 -32zM56 -5c-17 0 -32 15 -32 32c0 18 15 33 32 33c18 0 33 -15 33 -33c0 -17 -15 -32 -33 -32zM236 -5c-17 0 -32 15 -32 32c0 18 15 33 32 33c18 0 33 -15 33 -33
c0 -17 -15 -32 -33 -32z" />
    <glyph glyph-name="guilsinglleft" unicode="&#x2039;" horiz-adv-x="287" 
d="M44 241l178 177l21 -21l-156 -156l156 -157l-21 -21z" />
    <glyph glyph-name="guilsinglright" unicode="&#x203a;" horiz-adv-x="287" 
d="M44 397l21 21l178 -177l-178 -178l-21 21l156 157z" />
    <glyph glyph-name="fraction" unicode="&#x2044;" horiz-adv-x="66" 
d="M-211 0l453 641h35l-451 -641h-37z" />
    <glyph glyph-name="Euro" unicode="&#x20ac;" horiz-adv-x="641" 
d="M400 -10c-152 0 -277 101 -315 240h-76l9 30h60c-3 19 -5 39 -5 59c0 22 2 43 6 64h-70l9 30h68c39 137 163 238 309 238c91 0 156 -22 216 -69l-20 -25c-54 40 -110 64 -196 64c-129 0 -238 -87 -276 -208h364l-9 -30h-362c-5 -21 -7 -42 -7 -64c0 -20 2 -40 6 -59h332
l-9 -30h-316c37 -122 149 -210 285 -210c74 0 140 21 190 61l19 -22c-63 -52 -130 -69 -212 -69z" />
    <glyph glyph-name="trademark" unicode="&#x2122;" horiz-adv-x="817" 
d="M149 291v320h-110v30h252v-30h-110v-320h-32zM528 385l-154 208v-302h-32v350h35l152 -208l151 208h33v-350h-32v302z" />
    <glyph glyph-name="minus" unicode="&#x2212;" horiz-adv-x="499" 
d="M69 308v30h362v-30h-362z" />
    <glyph glyph-name="approxequal" unicode="&#x2248;" horiz-adv-x="499" 
d="M69 362v35c25 17 59 37 99 37c72 0 100 -52 163 -52c36 0 71 14 100 33v-35c-27 -17 -59 -30 -98 -30c-71 0 -102 52 -164 52c-47 0 -76 -20 -100 -40zM69 222v35c25 17 59 37 99 37c72 0 100 -52 163 -52c36 0 71 14 100 33v-35c-27 -17 -59 -30 -98 -30
c-71 0 -102 52 -164 52c-47 0 -76 -20 -100 -40z" />
    <glyph glyph-name="notequal" unicode="&#x2260;" horiz-adv-x="499" 
d="M120 133l66 105h-117v30h136l70 110h-206v30h225l66 105h35l-66 -105h102v-30h-121l-70 -110h191v-30h-210l-66 -105h-35z" />
    <glyph glyph-name="lessequal" unicode="&#x2264;" horiz-adv-x="499" 
d="M431 148v-34l-362 198v22l362 197v-34l-321 -174zM69 0v30h362v-30h-362z" />
    <glyph glyph-name="greaterequal" unicode="&#x2265;" horiz-adv-x="499" 
d="M69 148l321 175l-321 174v34l362 -197v-22l-362 -198v34zM431 0h-362v30h362v-30z" />
    <glyph glyph-name="ITF" unicode="&#xf8ff;" horiz-adv-x="1599" 
d="M104 0v641h198v-641h-198zM343 454v187h198v-187h-198zM581 0v641h198v-641h-198zM821 454v187h197v-187h-197zM1059 0v641h197v-641h-197zM1298 454v187h197v-187h-197zM1298 227v186h197v-186h-197z" />
    <glyph glyph-name="G.alt" horiz-adv-x="756" 
d="M386 -10c-178 0 -322 127 -322 329c0 183 157 332 335 332c91 0 161 -22 221 -69l-20 -25c-54 40 -115 64 -201 64c-160 0 -303 -135 -303 -302c0 -185 130 -299 290 -299c161 0 267 105 274 246v56h-266v30h298v-95c-9 -141 -117 -267 -306 -267z" />
    <glyph glyph-name="a.alt" horiz-adv-x="634" 
d="M295 -10c-136 0 -236 112 -236 250s100 249 236 249c91 0 165 -51 204 -126v116h32v-388c0 -52 26 -67 52 -67c8 0 16 1 24 4l7 -29c-11 -4 -23 -6 -34 -6c-45 0 -81 31 -81 96v28c-39 -76 -114 -127 -204 -127zM296 20c119 0 203 100 203 221s-84 218 -203 218
s-205 -97 -205 -218s86 -221 205 -221z" />
    <glyph glyph-name="j.alt" horiz-adv-x="230" 
d="M115 594c-15 0 -27 12 -27 27c0 14 12 27 27 27s27 -13 27 -27c0 -15 -12 -27 -27 -27zM12 -206h-11v30h11c58 0 87 30 87 88v567h32v-564c0 -80 -45 -121 -119 -121z" />
    <glyph glyph-name="l.alt" horiz-adv-x="230" 
d="M99 0v688h32v-688h-32z" />
    <glyph glyph-name="y.alt" horiz-adv-x="467" 
d="M175 -196h-33l82 200l-211 475h33l194 -437l175 437h33z" />
    <glyph glyph-name="zero.superior" unicode="&#x2070;" horiz-adv-x="279" 
d="M139 316c-67 0 -116 69 -116 165c0 95 49 166 116 166s116 -71 116 -166c0 -96 -49 -165 -116 -165zM139 343c50 0 86 58 86 138s-36 137 -86 137s-85 -57 -85 -137s35 -138 85 -138z" />
    <glyph glyph-name="four.superior" unicode="&#x2074;" horiz-adv-x="279" 
d="M174 321v73h-157v28l161 219h26v-219h51v-28h-51v-73h-30zM49 422h125v172z" />
    <glyph glyph-name="nbspace" unicode="&#xa0;" horiz-adv-x="228" 
 />
    <glyph glyph-name="litre" unicode="&#x2113;" horiz-adv-x="348" 
d="M318 78c-33 -57 -71 -88 -125 -88c-66 0 -104 42 -104 123v77c-4 -3 -7 -6 -11 -9l-53 -42v39l44 34c7 5 13 10 20 16v321c0 106 39 149 106 149c72 0 117 -50 117 -145c0 -122 -65 -227 -191 -336v-102c0 -63 24 -95 72 -95c43 0 74 26 101 74zM121 558v-303
c94 86 159 186 159 299c0 78 -36 114 -82 114c-52 0 -77 -30 -77 -110z" />
    <glyph glyph-name="ampersand.alt" horiz-adv-x="606" 
d="M523 319l28 -13l-95 -160c-2 -3 -4 -6 -5 -9l116 -125l-23 -21l-111 119c-48 -67 -113 -120 -203 -120c-102 0 -179 60 -179 163c0 89 75 154 164 191l-7 7c-46 49 -78 93 -78 153c0 96 74 148 160 148c50 0 103 -17 149 -50l-18 -27c-40 29 -87 47 -132 47
c-69 0 -127 -39 -127 -117c0 -49 22 -82 72 -136l195 -209c2 3 4 7 6 10zM83 153c0 -85 64 -133 150 -133c72 0 130 45 178 113l-175 188c-78 -29 -153 -87 -153 -168z" />
    <glyph glyph-name="divisionslash" unicode="&#x2215;" horiz-adv-x="66" 
d="M-211 0l453 641h35l-451 -641h-37z" />
    <glyph glyph-name="Aacute" unicode="&#xc1;" horiz-adv-x="625" 
d="M388 850h43l-110 -156h-31zM569 0l-84 198h-348l-85 -198h-33l275 641h37l275 -641h-37zM149 228h323l-161 378z" />
    <glyph glyph-name="Abreve" unicode="&#x102;" horiz-adv-x="625" 
d="M312 684c-75 0 -130 53 -130 146h32c0 -78 44 -116 98 -116s99 38 99 116h32c0 -93 -55 -146 -131 -146zM569 0l-84 198h-348l-85 -198h-33l275 641h37l275 -641h-37zM149 228h323l-161 378z" />
    <glyph glyph-name="Acircumflex" unicode="&#xc2;" horiz-adv-x="625" 
d="M296 850h34l122 -156h-33l-106 128l-106 -128h-33zM569 0l-84 198h-348l-85 -198h-33l275 641h37l275 -641h-37zM149 228h323l-161 378z" />
    <glyph glyph-name="Adieresis" unicode="&#xc4;" horiz-adv-x="625" 
d="M216 783c0 14 12 27 27 27s27 -13 27 -27c0 -15 -12 -27 -27 -27s-27 12 -27 27zM356 783c0 14 12 27 27 27s27 -13 27 -27c0 -15 -12 -27 -27 -27s-27 12 -27 27zM569 0l-84 198h-348l-85 -198h-33l275 641h37l275 -641h-37zM149 228h323l-161 378z" />
    <glyph glyph-name="Agrave" unicode="&#xc0;" horiz-adv-x="625" 
d="M237 850l98 -156h-31l-110 156h43zM569 0l-84 198h-348l-85 -198h-33l275 641h37l275 -641h-37zM149 228h323l-161 378z" />
    <glyph glyph-name="Amacron" unicode="&#x100;" horiz-adv-x="625" 
d="M185 799h255v-30h-255v30zM569 0l-84 198h-348l-85 -198h-33l275 641h37l275 -641h-37zM149 228h323l-161 378z" />
    <glyph glyph-name="Aogonek" unicode="&#x104;" horiz-adv-x="625" 
d="M647 -153c-20 -21 -52 -40 -95 -40c-47 0 -79 26 -79 68c0 44 30 88 94 131l-82 192h-348l-85 -198h-33l275 641h37l275 -641c-67 -44 -101 -82 -101 -123c0 -24 20 -40 49 -40c26 0 53 9 77 30zM149 228h323l-161 378z" />
    <glyph glyph-name="Aring" unicode="&#xc5;" horiz-adv-x="625" 
d="M313 684c-58 0 -103 45 -103 100s45 100 103 100c59 0 103 -45 103 -100s-44 -100 -103 -100zM314 711c40 0 74 30 74 73s-34 74 -74 74s-76 -31 -76 -74s36 -73 76 -73zM569 0l-84 198h-348l-85 -198h-33l275 641h37l275 -641h-37zM149 228h323l-161 378z" />
    <glyph glyph-name="Atilde" unicode="&#xc3;" horiz-adv-x="625" 
d="M379 724c-59 0 -85 68 -135 68c-28 0 -48 -24 -64 -58l-18 13c21 51 51 75 86 75c59 0 83 -68 133 -68c30 0 50 24 64 58l18 -13c-19 -51 -49 -75 -84 -75zM569 0l-84 198h-348l-85 -198h-33l275 641h37l275 -641h-37zM149 228h323l-161 378z" />
    <glyph glyph-name="AE" unicode="&#xc6;" horiz-adv-x="807" 
d="M401 0v198h-261l-101 -198h-33l325 641h432v-30h-330v-276h290v-30h-290v-275h330v-30h-362zM350 611l-195 -383h246v383h-51z" />
    <glyph glyph-name="Cacute" unicode="&#x106;" horiz-adv-x="632" 
d="M461 850h43l-110 -156h-31zM602 582l-20 -25c-54 40 -110 64 -196 64c-160 0 -290 -135 -290 -302c0 -165 130 -299 298 -299c74 0 140 21 190 61l19 -22c-63 -52 -130 -69 -212 -69c-183 0 -327 147 -327 329c0 183 144 332 322 332c91 0 156 -22 216 -69z" />
    <glyph glyph-name="Ccaron" unicode="&#x10c;" horiz-adv-x="632" 
d="M403 694h-34l-122 156h33l106 -128l106 128h33zM602 582l-20 -25c-54 40 -110 64 -196 64c-160 0 -290 -135 -290 -302c0 -165 130 -299 298 -299c74 0 140 21 190 61l19 -22c-63 -52 -130 -69 -212 -69c-183 0 -327 147 -327 329c0 183 144 332 322 332
c91 0 156 -22 216 -69z" />
    <glyph glyph-name="Ccedilla" unicode="&#xc7;" horiz-adv-x="632" 
d="M602 582l-20 -25c-54 40 -110 64 -196 64c-160 0 -290 -135 -290 -302c0 -165 130 -299 298 -299c74 0 140 21 190 61l19 -22c-61 -51 -127 -68 -206 -69l-65 -159l-32 14l69 146c-173 11 -305 153 -305 328c0 183 144 332 322 332c91 0 156 -22 216 -69z" />
    <glyph glyph-name="Ccircumflex" unicode="&#x108;" horiz-adv-x="632" 
d="M369 850h34l122 -156h-33l-106 128l-106 -128h-33zM602 582l-20 -25c-54 40 -110 64 -196 64c-160 0 -290 -135 -290 -302c0 -165 130 -299 298 -299c74 0 140 21 190 61l19 -22c-63 -52 -130 -69 -212 -69c-183 0 -327 147 -327 329c0 183 144 332 322 332
c91 0 156 -22 216 -69z" />
    <glyph glyph-name="Cdotaccent" unicode="&#x10a;" horiz-adv-x="632" 
d="M359 783c0 14 12 27 27 27s27 -13 27 -27c0 -15 -12 -27 -27 -27s-27 12 -27 27zM602 582l-20 -25c-54 40 -110 64 -196 64c-160 0 -290 -135 -290 -302c0 -165 130 -299 298 -299c74 0 140 21 190 61l19 -22c-63 -52 -130 -69 -212 -69c-183 0 -327 147 -327 329
c0 183 144 332 322 332c91 0 156 -22 216 -69z" />
    <glyph glyph-name="Eth" unicode="&#xd0;" horiz-adv-x="695" 
d="M104 0v305h-90v30h90v305h167c217 0 360 -127 360 -320s-137 -320 -343 -320h-184zM277 610h-141v-275h183v-30h-183v-275h141c194 0 322 115 322 290s-128 290 -322 290z" />
    <glyph glyph-name="Dcaron" unicode="&#x10e;" horiz-adv-x="695" 
d="M365 694h-34l-122 156h33l106 -128l106 128h33zM104 0v640h167c217 0 360 -127 360 -320s-137 -320 -343 -320h-184zM277 610h-141v-580h141c194 0 322 115 322 290s-128 290 -322 290z" />
    <glyph glyph-name="Dcroat" unicode="&#x110;" horiz-adv-x="695" 
d="M104 0v305h-90v30h90v305h167c217 0 360 -127 360 -320s-137 -320 -343 -320h-184zM277 610h-141v-275h183v-30h-183v-275h141c194 0 322 115 322 290s-128 290 -322 290z" />
    <glyph glyph-name="Eacute" unicode="&#xc9;" horiz-adv-x="540" 
d="M375 850h43l-110 -156h-31zM104 0v641h392v-30h-360v-276h320v-30h-320v-275h360v-30h-392z" />
    <glyph glyph-name="Ebreve" unicode="&#x114;" horiz-adv-x="540" 
d="M299 684c-75 0 -130 53 -130 146h32c0 -78 44 -116 98 -116s99 38 99 116h32c0 -93 -55 -146 -131 -146zM104 0v641h392v-30h-360v-276h320v-30h-320v-275h360v-30h-392z" />
    <glyph glyph-name="Ecaron" unicode="&#x11a;" horiz-adv-x="540" 
d="M317 694h-34l-122 156h33l106 -128l106 128h33zM104 0v641h392v-30h-360v-276h320v-30h-320v-275h360v-30h-392z" />
    <glyph glyph-name="Ecircumflex" unicode="&#xca;" horiz-adv-x="540" 
d="M283 850h34l122 -156h-33l-106 128l-106 -128h-33zM104 0v641h392v-30h-360v-276h320v-30h-320v-275h360v-30h-392z" />
    <glyph glyph-name="Edieresis" unicode="&#xcb;" horiz-adv-x="540" 
d="M203 783c0 14 12 27 27 27s27 -13 27 -27c0 -15 -12 -27 -27 -27s-27 12 -27 27zM343 783c0 14 12 27 27 27s27 -13 27 -27c0 -15 -12 -27 -27 -27s-27 12 -27 27zM104 0v641h392v-30h-360v-276h320v-30h-320v-275h360v-30h-392z" />
    <glyph glyph-name="Edotaccent" unicode="&#x116;" horiz-adv-x="540" 
d="M273 783c0 14 12 27 27 27s27 -13 27 -27c0 -15 -12 -27 -27 -27s-27 12 -27 27zM104 0v641h392v-30h-360v-276h320v-30h-320v-275h360v-30h-392z" />
    <glyph glyph-name="Egrave" unicode="&#xc8;" horiz-adv-x="540" 
d="M224 850l98 -156h-31l-110 156h43zM104 0v641h392v-30h-360v-276h320v-30h-320v-275h360v-30h-392z" />
    <glyph glyph-name="Emacron" unicode="&#x112;" horiz-adv-x="540" 
d="M172 799h255v-30h-255v30zM104 0v641h392v-30h-360v-276h320v-30h-320v-275h360v-30h-392z" />
    <glyph glyph-name="Eogonek" unicode="&#x118;" horiz-adv-x="540" 
d="M104 0v641h392v-30h-360v-276h320v-30h-320v-275h360v-30c-67 -44 -101 -82 -101 -123c0 -24 20 -40 49 -40c26 0 53 9 77 30l16 -20c-20 -21 -52 -40 -95 -40c-47 0 -79 26 -79 68s27 84 85 125h-344z" />
    <glyph glyph-name="Gbreve" unicode="&#x11e;" horiz-adv-x="677" 
d="M385 684c-75 0 -130 53 -130 146h32c0 -78 44 -116 98 -116s99 38 99 116h32c0 -93 -55 -146 -131 -146zM401 -10c-203 0 -337 147 -337 329c0 183 144 332 322 332c91 0 156 -22 216 -69l-20 -25c-54 40 -110 64 -196 64c-160 0 -290 -135 -290 -302
c0 -165 120 -299 308 -299c68 0 132 16 185 48v224h-203v30h235v-271c-63 -42 -138 -61 -220 -61z" />
    <glyph glyph-name="Gcircumflex" unicode="&#x11c;" horiz-adv-x="677" 
d="M369 850h34l122 -156h-33l-106 128l-106 -128h-33zM401 -10c-203 0 -337 147 -337 329c0 183 144 332 322 332c91 0 156 -22 216 -69l-20 -25c-54 40 -110 64 -196 64c-160 0 -290 -135 -290 -302c0 -165 120 -299 308 -299c68 0 132 16 185 48v224h-203v30h235v-271
c-63 -42 -138 -61 -220 -61z" />
    <glyph glyph-name="Gcommaaccent" unicode="&#x122;" horiz-adv-x="677" 
d="M401 -10c-203 0 -337 147 -337 329c0 183 144 332 322 332c91 0 156 -22 216 -69l-20 -25c-54 40 -110 64 -196 64c-160 0 -290 -135 -290 -302c0 -165 120 -299 308 -299c68 0 132 16 185 48v224h-203v30h235v-271c-63 -42 -138 -61 -220 -61zM407 -51l-50 -127h-27
l38 127h39z" />
    <glyph glyph-name="Gdotaccent" unicode="&#x120;" horiz-adv-x="677" 
d="M359 783c0 14 12 27 27 27s27 -13 27 -27c0 -15 -12 -27 -27 -27s-27 12 -27 27zM401 -10c-203 0 -337 147 -337 329c0 183 144 332 322 332c91 0 156 -22 216 -69l-20 -25c-54 40 -110 64 -196 64c-160 0 -290 -135 -290 -302c0 -165 120 -299 308 -299
c68 0 132 16 185 48v224h-203v30h235v-271c-63 -42 -138 -61 -220 -61z" />
    <glyph glyph-name="Hbar" unicode="&#x126;" horiz-adv-x="737" 
d="M147 0h-32v489h-64v30h64v122h32v-122h443v122h32v-122h64v-30h-64v-489h-32v305h-443v-305zM147 335h443v154h-443v-154z" />
    <glyph glyph-name="Hcircumflex" unicode="&#x124;" horiz-adv-x="715" 
d="M341 850h34l122 -156h-33l-106 128l-106 -128h-33zM579 0v305h-443v-305h-32v641h32v-306h443v306h32v-641h-32z" />
    <glyph glyph-name="IJ" unicode="&#x132;" horiz-adv-x="642" 
d="M104 0v641h32v-641h-32zM259 47l23 22c23 -29 61 -49 107 -49c78 0 127 48 127 149v472h32v-478c0 -121 -74 -173 -159 -173c-50 0 -102 20 -130 57z" />
    <glyph glyph-name="Iacute" unicode="&#xcd;" horiz-adv-x="240" 
d="M195 850h43l-110 -156h-31zM104 0v641h32v-641h-32z" />
    <glyph glyph-name="Ibreve" unicode="&#x12c;" horiz-adv-x="240" 
d="M119 684c-75 0 -130 53 -130 146h32c0 -78 44 -116 98 -116s99 38 99 116h32c0 -93 -55 -146 -131 -146zM104 0v641h32v-641h-32z" />
    <glyph glyph-name="Icircumflex" unicode="&#xce;" horiz-adv-x="240" 
d="M103 850h34l122 -156h-33l-106 128l-106 -128h-33zM104 0v641h32v-641h-32z" />
    <glyph glyph-name="Idieresis" unicode="&#xcf;" horiz-adv-x="240" 
d="M23 783c0 14 12 27 27 27s27 -13 27 -27c0 -15 -12 -27 -27 -27s-27 12 -27 27zM163 783c0 14 12 27 27 27s27 -13 27 -27c0 -15 -12 -27 -27 -27s-27 12 -27 27zM104 0v641h32v-641h-32z" />
    <glyph glyph-name="Idotaccent" unicode="&#x130;" horiz-adv-x="240" 
d="M93 783c0 14 12 27 27 27s27 -13 27 -27c0 -15 -12 -27 -27 -27s-27 12 -27 27zM104 0v641h32v-641h-32z" />
    <glyph glyph-name="Igrave" unicode="&#xcc;" horiz-adv-x="240" 
d="M44 850l98 -156h-31l-110 156h43zM104 0v641h32v-641h-32z" />
    <glyph glyph-name="Imacron" unicode="&#x12a;" horiz-adv-x="240" 
d="M-8 799h255v-30h-255v30zM104 0v641h32v-641h-32z" />
    <glyph glyph-name="Iogonek" unicode="&#x12e;" horiz-adv-x="240" 
d="M177 -153c-20 -21 -52 -40 -95 -40c-47 0 -79 26 -79 68c0 45 32 92 101 136v630h32v-641c-67 -44 -101 -82 -101 -123c0 -24 20 -40 49 -40c26 0 53 9 77 30z" />
    <glyph glyph-name="Itilde" unicode="&#x128;" horiz-adv-x="240" 
d="M186 724c-59 0 -85 68 -135 68c-28 0 -48 -24 -64 -58l-18 13c21 51 51 75 86 75c59 0 83 -68 133 -68c30 0 50 24 64 58l18 -13c-19 -51 -49 -75 -84 -75zM104 0v641h32v-641h-32z" />
    <glyph glyph-name="Jcircumflex" unicode="&#x134;" horiz-adv-x="402" 
d="M275 849h34l122 -156h-33l-106 128l-106 -128h-33zM19 47l23 22c23 -29 61 -49 107 -49c78 0 127 48 127 149v472h32v-478c0 -121 -74 -173 -159 -173c-50 0 -102 20 -130 57z" />
    <glyph glyph-name="Kcommaaccent" unicode="&#x136;" horiz-adv-x="554" 
d="M136 0h-32v641h32v-320l344 320h44l-347 -325l359 -316h-50l-350 308v-308zM328 -51l-50 -127h-27l38 127h39z" />
    <glyph glyph-name="Lacute" unicode="&#x139;" horiz-adv-x="519" 
d="M195 850h43l-110 -156h-31zM104 0v641h32v-611h364v-30h-396z" />
    <glyph glyph-name="Lcaron" unicode="&#x13d;" horiz-adv-x="519" 
d="M104 0v641h32v-611h364v-30h-396zM338 641l-32 -166h-27l20 166h39z" />
    <glyph glyph-name="Lcommaaccent" unicode="&#x13b;" horiz-adv-x="519" 
d="M104 0v641h32v-611h364v-30h-396zM325 -51l-50 -127h-27l38 127h39z" />
    <glyph glyph-name="Ldot" unicode="&#x13f;" horiz-adv-x="519" 
d="M104 0v641h32v-611h364v-30h-396zM333 316c0 14 12 27 27 27s27 -13 27 -27c0 -15 -12 -27 -27 -27s-27 12 -27 27z" />
    <glyph glyph-name="Lslash" unicode="&#x141;" horiz-adv-x="519" 
d="M104 0v291l-80 -25v31l80 25v319h32v-308l134 42v-31l-134 -42v-272h364v-30h-396z" />
    <glyph glyph-name="Nacute" unicode="&#x143;" horiz-adv-x="715" 
d="M448 850h43l-110 -156h-31zM580 0l-449 594v-594h-32v641h36l449 -594v594h32v-641h-36z" />
    <glyph glyph-name="Ncaron" unicode="&#x147;" horiz-adv-x="715" 
d="M390 694h-34l-122 156h33l106 -128l106 128h33zM580 0l-449 594v-594h-32v641h36l449 -594v594h32v-641h-36z" />
    <glyph glyph-name="Ncommaaccent" unicode="&#x145;" horiz-adv-x="715" 
d="M580 0l-449 594v-594h-32v641h36l449 -594v594h32v-641h-36zM369 -51l-50 -127h-27l38 127h39z" />
    <glyph glyph-name="Ntilde" unicode="&#xd1;" horiz-adv-x="715" 
d="M439 724c-59 0 -85 68 -135 68c-28 0 -48 -24 -64 -58l-18 13c21 51 51 75 86 75c59 0 83 -68 133 -68c30 0 50 24 64 58l18 -13c-19 -51 -49 -75 -84 -75zM580 0l-449 594v-594h-32v641h36l449 -594v594h32v-641h-36z" />
    <glyph glyph-name="Oacute" unicode="&#xd3;" horiz-adv-x="772" 
d="M461 850h43l-110 -156h-31zM386 651c178 0 322 -149 322 -332c0 -182 -144 -329 -322 -329s-322 147 -322 329c0 183 144 332 322 332zM386 20c160 0 290 134 290 299c0 167 -130 302 -290 302s-290 -135 -290 -302c0 -165 130 -299 290 -299z" />
    <glyph glyph-name="Obreve" unicode="&#x14e;" horiz-adv-x="772" 
d="M385 684c-75 0 -130 53 -130 146h32c0 -78 44 -116 98 -116s99 38 99 116h32c0 -93 -55 -146 -131 -146zM386 651c178 0 322 -149 322 -332c0 -182 -144 -329 -322 -329s-322 147 -322 329c0 183 144 332 322 332zM386 20c160 0 290 134 290 299c0 167 -130 302 -290 302
s-290 -135 -290 -302c0 -165 130 -299 290 -299z" />
    <glyph glyph-name="Ocircumflex" unicode="&#xd4;" horiz-adv-x="772" 
d="M369 850h34l122 -156h-33l-106 128l-106 -128h-33zM386 651c178 0 322 -149 322 -332c0 -182 -144 -329 -322 -329s-322 147 -322 329c0 183 144 332 322 332zM386 20c160 0 290 134 290 299c0 167 -130 302 -290 302s-290 -135 -290 -302c0 -165 130 -299 290 -299z" />
    <glyph glyph-name="Odieresis" unicode="&#xd6;" horiz-adv-x="772" 
d="M289 783c0 14 12 27 27 27s27 -13 27 -27c0 -15 -12 -27 -27 -27s-27 12 -27 27zM429 783c0 14 12 27 27 27s27 -13 27 -27c0 -15 -12 -27 -27 -27s-27 12 -27 27zM386 651c178 0 322 -149 322 -332c0 -182 -144 -329 -322 -329s-322 147 -322 329c0 183 144 332 322 332
zM386 20c160 0 290 134 290 299c0 167 -130 302 -290 302s-290 -135 -290 -302c0 -165 130 -299 290 -299z" />
    <glyph glyph-name="Ograve" unicode="&#xd2;" horiz-adv-x="772" 
d="M310 850l98 -156h-31l-110 156h43zM386 651c178 0 322 -149 322 -332c0 -182 -144 -329 -322 -329s-322 147 -322 329c0 183 144 332 322 332zM386 20c160 0 290 134 290 299c0 167 -130 302 -290 302s-290 -135 -290 -302c0 -165 130 -299 290 -299z" />
    <glyph glyph-name="Ohungarumlaut" unicode="&#x150;" horiz-adv-x="772" 
d="M391 850h43l-110 -156h-31zM512 850h43l-110 -156h-31zM386 651c178 0 322 -149 322 -332c0 -182 -144 -329 -322 -329s-322 147 -322 329c0 183 144 332 322 332zM386 20c160 0 290 134 290 299c0 167 -130 302 -290 302s-290 -135 -290 -302c0 -165 130 -299 290 -299z
" />
    <glyph glyph-name="Omacron" unicode="&#x14c;" horiz-adv-x="772" 
d="M258 799h255v-30h-255v30zM386 651c178 0 322 -149 322 -332c0 -182 -144 -329 -322 -329s-322 147 -322 329c0 183 144 332 322 332zM386 20c160 0 290 134 290 299c0 167 -130 302 -290 302s-290 -135 -290 -302c0 -165 130 -299 290 -299z" />
    <glyph glyph-name="Oslash" unicode="&#xd8;" horiz-adv-x="772" 
d="M129 -30l60 88c-76 61 -125 155 -125 261c0 183 144 332 322 332c63 0 122 -19 171 -51l60 88l24 -17l-60 -88c77 -61 127 -156 127 -264c0 -182 -144 -329 -322 -329c-64 0 -123 19 -173 51l-60 -88zM96 319c0 -95 43 -180 111 -235l333 491c-45 29 -97 46 -154 46
c-160 0 -290 -135 -290 -302zM386 20c160 0 290 134 290 299c0 97 -44 183 -112 239l-334 -491c45 -30 99 -47 156 -47z" />
    <glyph glyph-name="Otilde" unicode="&#xd5;" horiz-adv-x="772" 
d="M452 724c-59 0 -85 68 -135 68c-28 0 -48 -24 -64 -58l-18 13c21 51 51 75 86 75c59 0 83 -68 133 -68c30 0 50 24 64 58l18 -13c-19 -51 -49 -75 -84 -75zM386 651c178 0 322 -149 322 -332c0 -182 -144 -329 -322 -329s-322 147 -322 329c0 183 144 332 322 332z
M386 20c160 0 290 134 290 299c0 167 -130 302 -290 302s-290 -135 -290 -302c0 -165 130 -299 290 -299z" />
    <glyph glyph-name="OE" unicode="&#x152;" horiz-adv-x="1112" 
d="M676 0v180c-51 -113 -162 -190 -290 -190c-178 0 -322 147 -322 329c0 183 144 332 322 332c128 0 239 -78 290 -192v182h392v-30h-360v-276h320v-30h-320v-275h360v-30h-392zM386 20c160 0 290 134 290 299c0 167 -130 302 -290 302s-290 -135 -290 -302
c0 -165 130 -299 290 -299z" />
    <glyph glyph-name="Thorn" unicode="&#xde;" horiz-adv-x="601" 
d="M136 0h-32v641h32v-115h186c135 0 225 -74 225 -188c0 -112 -91 -187 -229 -187h-182v-151zM325 496h-189v-315h189c114 0 190 63 190 157c0 96 -76 158 -190 158z" />
    <glyph glyph-name="Racute" unicode="&#x154;" horiz-adv-x="598" 
d="M374 850h43l-110 -156h-31zM104 0v641h218c123 0 205 -70 205 -178c0 -97 -70 -165 -179 -176l186 -287h-37l-186 286h-175v-286h-32zM325 611h-189v-295h189c102 0 170 59 170 147c0 90 -68 148 -170 148z" />
    <glyph glyph-name="Rcaron" unicode="&#x158;" horiz-adv-x="598" 
d="M316 694h-34l-122 156h33l106 -128l106 128h33zM104 0v641h218c123 0 205 -70 205 -178c0 -97 -70 -165 -179 -176l186 -287h-37l-186 286h-175v-286h-32zM325 611h-189v-295h189c102 0 170 59 170 147c0 90 -68 148 -170 148z" />
    <glyph glyph-name="Rcommaaccent" unicode="&#x156;" horiz-adv-x="598" 
d="M104 0v641h218c123 0 205 -70 205 -178c0 -97 -70 -165 -179 -176l186 -287h-37l-186 286h-175v-286h-32zM325 611h-189v-295h189c102 0 170 59 170 147c0 90 -68 148 -170 148zM320 -51l-50 -127h-27l38 127h39z" />
    <glyph glyph-name="Sacute" unicode="&#x15a;" horiz-adv-x="543" 
d="M347 850h43l-110 -156h-31zM162 1c-27 7 -65 26 -112 55l17 29c63 -42 142 -64 210 -64c104 0 185 50 185 142c0 185 -393 93 -393 321c0 93 82 167 207 167c84 0 141 -18 190 -47l-17 -26c-41 24 -101 43 -173 43c-105 0 -175 -61 -175 -135c0 -197 393 -111 393 -318
c0 -121 -98 -178 -217 -178c-49 0 -88 4 -115 11z" />
    <glyph glyph-name="Scaron" unicode="&#x160;" horiz-adv-x="543" 
d="M289 694h-34l-122 156h33l106 -128l106 128h33zM162 1c-27 7 -65 26 -112 55l17 29c63 -42 142 -64 210 -64c104 0 185 50 185 142c0 185 -393 93 -393 321c0 93 82 167 207 167c84 0 141 -18 190 -47l-17 -26c-41 24 -101 43 -173 43c-105 0 -175 -61 -175 -135
c0 -197 393 -111 393 -318c0 -121 -98 -178 -217 -178c-49 0 -88 4 -115 11z" />
    <glyph glyph-name="Scedilla" unicode="&#x15e;" horiz-adv-x="543" 
d="M162 1c-27 7 -65 26 -112 55l17 29c63 -42 142 -64 210 -64c104 0 185 50 185 142c0 185 -393 93 -393 321c0 93 82 167 207 167c84 0 141 -18 190 -47l-17 -26c-41 24 -101 43 -173 43c-105 0 -175 -61 -175 -135c0 -197 393 -111 393 -318c0 -121 -98 -178 -211 -178
l-65 -159l-32 14l68 145c-38 1 -69 5 -92 11z" />
    <glyph glyph-name="Scircumflex" unicode="&#x15c;" horiz-adv-x="543" 
d="M255 850h34l122 -156h-33l-106 128l-106 -128h-33zM162 1c-27 7 -65 26 -112 55l17 29c63 -42 142 -64 210 -64c104 0 185 50 185 142c0 185 -393 93 -393 321c0 93 82 167 207 167c84 0 141 -18 190 -47l-17 -26c-41 24 -101 43 -173 43c-105 0 -175 -61 -175 -135
c0 -197 393 -111 393 -318c0 -121 -98 -178 -217 -178c-49 0 -88 4 -115 11z" />
    <glyph glyph-name="Scommaaccent" unicode="&#x218;" horiz-adv-x="543" 
d="M162 1c-27 7 -65 26 -112 55l17 29c63 -42 142 -64 210 -64c104 0 185 50 185 142c0 185 -393 93 -393 321c0 93 82 167 207 167c84 0 141 -18 190 -47l-17 -26c-41 24 -101 43 -173 43c-105 0 -175 -61 -175 -135c0 -197 393 -111 393 -318c0 -121 -98 -178 -217 -178
c-49 0 -88 4 -115 11zM293 -51l-50 -127h-27l38 127h39z" />
    <glyph glyph-name="Tbar" unicode="&#x166;" horiz-adv-x="500" 
d="M102 336h132v275h-225v30h482v-30h-225v-275h131v-30h-131v-306h-32v306h-132v30z" />
    <glyph glyph-name="Tcaron" unicode="&#x164;" horiz-adv-x="500" 
d="M267 694h-34l-122 156h33l106 -128l106 128h33zM491 611h-225v-611h-32v611h-225v30h482v-30z" />
    <glyph glyph-name="Tcedilla" unicode="&#x162;" horiz-adv-x="500" 
d="M237 0h-3v611h-225v30h482v-30h-225v-611h-1l-69 -169l-32 14z" />
    <glyph glyph-name="Tcommaaccent" unicode="&#x21a;" horiz-adv-x="500" 
d="M491 611h-225v-611h-32v611h-225v30h482v-30zM271 -51l-50 -127h-27l38 127h39z" />
    <glyph glyph-name="Uacute" unicode="&#xda;" horiz-adv-x="653" 
d="M402 850h43l-110 -156h-31zM94 231v410h32v-413c0 -125 80 -208 200 -208c121 0 201 83 201 208v413h32v-410c0 -145 -93 -241 -233 -241s-232 96 -232 241z" />
    <glyph glyph-name="Ubreve" unicode="&#x16c;" horiz-adv-x="653" 
d="M326 684c-75 0 -130 53 -130 146h32c0 -78 44 -116 98 -116s99 38 99 116h32c0 -93 -55 -146 -131 -146zM94 231v410h32v-413c0 -125 80 -208 200 -208c121 0 201 83 201 208v413h32v-410c0 -145 -93 -241 -233 -241s-232 96 -232 241z" />
    <glyph glyph-name="Ucircumflex" unicode="&#xdb;" horiz-adv-x="653" 
d="M310 850h34l122 -156h-33l-106 128l-106 -128h-33zM94 231v410h32v-413c0 -125 80 -208 200 -208c121 0 201 83 201 208v413h32v-410c0 -145 -93 -241 -233 -241s-232 96 -232 241z" />
    <glyph glyph-name="Udieresis" unicode="&#xdc;" horiz-adv-x="653" 
d="M230 783c0 14 12 27 27 27s27 -13 27 -27c0 -15 -12 -27 -27 -27s-27 12 -27 27zM370 783c0 14 12 27 27 27s27 -13 27 -27c0 -15 -12 -27 -27 -27s-27 12 -27 27zM94 231v410h32v-413c0 -125 80 -208 200 -208c121 0 201 83 201 208v413h32v-410
c0 -145 -93 -241 -233 -241s-232 96 -232 241z" />
    <glyph glyph-name="Ugrave" unicode="&#xd9;" horiz-adv-x="653" 
d="M251 850l98 -156h-31l-110 156h43zM94 231v410h32v-413c0 -125 80 -208 200 -208c121 0 201 83 201 208v413h32v-410c0 -145 -93 -241 -233 -241s-232 96 -232 241z" />
    <glyph glyph-name="Uhungarumlaut" unicode="&#x170;" horiz-adv-x="653" 
d="M332 850h43l-110 -156h-31zM453 850h43l-110 -156h-31zM94 231v410h32v-413c0 -125 80 -208 200 -208c121 0 201 83 201 208v413h32v-410c0 -145 -93 -241 -233 -241s-232 96 -232 241z" />
    <glyph glyph-name="Umacron" unicode="&#x16a;" horiz-adv-x="653" 
d="M199 799h255v-30h-255v30zM94 231v410h32v-413c0 -125 80 -208 200 -208c121 0 201 83 201 208v413h32v-410c0 -145 -93 -241 -233 -241s-232 96 -232 241z" />
    <glyph glyph-name="Uogonek" unicode="&#x172;" horiz-adv-x="653" 
d="M94 231v410h32v-413c0 -125 80 -208 200 -208c121 0 201 83 201 208v413h32v-410c0 -118 -61 -203 -159 -231c-67 -44 -101 -82 -101 -123c0 -24 20 -40 49 -40c26 0 53 9 77 30l16 -20c-20 -21 -52 -40 -95 -40c-47 0 -79 26 -79 68c0 38 23 78 72 115h-13
c-140 0 -232 96 -232 241z" />
    <glyph glyph-name="Uring" unicode="&#x16e;" horiz-adv-x="653" 
d="M327 684c-58 0 -103 45 -103 100s45 100 103 100c59 0 103 -45 103 -100s-44 -100 -103 -100zM328 711c40 0 74 30 74 73s-34 74 -74 74s-76 -31 -76 -74s36 -73 76 -73zM94 231v410h32v-413c0 -125 80 -208 200 -208c121 0 201 83 201 208v413h32v-410
c0 -145 -93 -241 -233 -241s-232 96 -232 241z" />
    <glyph glyph-name="Utilde" unicode="&#x168;" horiz-adv-x="653" 
d="M393 724c-59 0 -85 68 -135 68c-28 0 -48 -24 -64 -58l-18 13c21 51 51 75 86 75c59 0 83 -68 133 -68c30 0 50 24 64 58l18 -13c-19 -51 -49 -75 -84 -75zM94 231v410h32v-413c0 -125 80 -208 200 -208c121 0 201 83 201 208v413h32v-410c0 -145 -93 -241 -233 -241
s-232 96 -232 241z" />
    <glyph glyph-name="Wacute" unicode="&#x1e82;" horiz-adv-x="941" 
d="M546 850h43l-110 -156h-31zM878 641h34l-210 -641h-36l-195 596l-196 -596h-36l-210 641h35l194 -595l193 595h40l194 -595z" />
    <glyph glyph-name="Wcircumflex" unicode="&#x174;" horiz-adv-x="941" 
d="M454 850h34l122 -156h-33l-106 128l-106 -128h-33zM878 641h34l-210 -641h-36l-195 596l-196 -596h-36l-210 641h35l194 -595l193 595h40l194 -595z" />
    <glyph glyph-name="Wdieresis" unicode="&#x1e84;" horiz-adv-x="941" 
d="M374 783c0 14 12 27 27 27s27 -13 27 -27c0 -15 -12 -27 -27 -27s-27 12 -27 27zM514 783c0 14 12 27 27 27s27 -13 27 -27c0 -15 -12 -27 -27 -27s-27 12 -27 27zM878 641h34l-210 -641h-36l-195 596l-196 -596h-36l-210 641h35l194 -595l193 595h40l194 -595z" />
    <glyph glyph-name="Wgrave" unicode="&#x1e80;" horiz-adv-x="941" 
d="M395 850l98 -156h-31l-110 156h43zM878 641h34l-210 -641h-36l-195 596l-196 -596h-36l-210 641h35l194 -595l193 595h40l194 -595z" />
    <glyph glyph-name="Yacute" unicode="&#xdd;" horiz-adv-x="536" 
d="M343 850h43l-110 -156h-31zM252 0v221l-243 420h37l222 -386l223 386h36l-243 -420v-221h-32z" />
    <glyph glyph-name="Ycircumflex" unicode="&#x176;" horiz-adv-x="536" 
d="M251 850h34l122 -156h-33l-106 128l-106 -128h-33zM252 0v221l-243 420h37l222 -386l223 386h36l-243 -420v-221h-32z" />
    <glyph glyph-name="Ydieresis" unicode="&#x178;" horiz-adv-x="536" 
d="M171 783c0 14 12 27 27 27s27 -13 27 -27c0 -15 -12 -27 -27 -27s-27 12 -27 27zM311 783c0 14 12 27 27 27s27 -13 27 -27c0 -15 -12 -27 -27 -27s-27 12 -27 27zM252 0v221l-243 420h37l222 -386l223 386h36l-243 -420v-221h-32z" />
    <glyph glyph-name="Ygrave" unicode="&#x1ef2;" horiz-adv-x="536" 
d="M192 850l98 -156h-31l-110 156h43zM252 0v221l-243 420h37l222 -386l223 386h36l-243 -420v-221h-32z" />
    <glyph glyph-name="Zacute" unicode="&#x179;" horiz-adv-x="536" 
d="M343 850h43l-110 -156h-31zM39 30l420 581h-420v30h458v-30l-420 -581h420v-30h-458v30z" />
    <glyph glyph-name="Zcaron" unicode="&#x17d;" horiz-adv-x="536" 
d="M285 694h-34l-122 156h33l106 -128l106 128h33zM39 30l420 581h-420v30h458v-30l-420 -581h420v-30h-458v30z" />
    <glyph glyph-name="Zdotaccent" unicode="&#x17b;" horiz-adv-x="536" 
d="M241 783c0 14 12 27 27 27s27 -13 27 -27c0 -15 -12 -27 -27 -27s-27 12 -27 27zM39 30l420 581h-420v30h458v-30l-420 -581h420v-30h-458v30z" />
    <glyph glyph-name="Gbreve.alt" horiz-adv-x="756" 
d="M377 684c-75 0 -130 53 -130 146h32c0 -78 44 -116 98 -116s99 38 99 116h32c0 -93 -55 -146 -131 -146zM386 -10c-178 0 -322 127 -322 329c0 183 157 332 335 332c91 0 161 -22 221 -69l-20 -25c-54 40 -115 64 -201 64c-160 0 -303 -135 -303 -302
c0 -185 130 -299 290 -299c161 0 267 105 274 246v56h-266v30h298v-95c-9 -141 -117 -267 -306 -267z" />
    <glyph glyph-name="Gcircumflex.alt" horiz-adv-x="756" 
d="M361 850h34l122 -156h-33l-106 128l-106 -128h-33zM386 -10c-178 0 -322 127 -322 329c0 183 157 332 335 332c91 0 161 -22 221 -69l-20 -25c-54 40 -115 64 -201 64c-160 0 -303 -135 -303 -302c0 -185 130 -299 290 -299c161 0 267 105 274 246v56h-266v30h298v-95
c-9 -141 -117 -267 -306 -267z" />
    <glyph glyph-name="Gcommaaccent.alt" horiz-adv-x="756" 
d="M386 -10c-178 0 -322 127 -322 329c0 183 157 332 335 332c91 0 161 -22 221 -69l-20 -25c-54 40 -115 64 -201 64c-160 0 -303 -135 -303 -302c0 -185 130 -299 290 -299c161 0 267 105 274 246v56h-266v30h298v-95c-9 -141 -117 -267 -306 -267zM399 -51l-50 -127h-27
l38 127h39z" />
    <glyph glyph-name="Gdotaccent.alt" horiz-adv-x="756" 
d="M351 783c0 14 12 27 27 27s27 -13 27 -27c0 -15 -12 -27 -27 -27s-27 12 -27 27zM386 -10c-178 0 -322 127 -322 329c0 183 157 332 335 332c91 0 161 -22 221 -69l-20 -25c-54 40 -115 64 -201 64c-160 0 -303 -135 -303 -302c0 -185 130 -299 290 -299
c161 0 267 105 274 246v56h-266v30h298v-95c-9 -141 -117 -267 -306 -267z" />
    <glyph glyph-name="aacute" unicode="&#xe1;" horiz-adv-x="630" 
d="M370 688h43l-110 -156h-31zM295 -10c-136 0 -236 112 -236 250s100 249 236 249c91 0 165 -51 204 -126v116h32v-479h-32v117c-39 -76 -113 -127 -204 -127zM296 20c119 0 203 100 203 221s-84 218 -203 218s-205 -97 -205 -218s86 -221 205 -221z" />
    <glyph glyph-name="abreve" unicode="&#x103;" horiz-adv-x="630" 
d="M294 522c-75 0 -130 53 -130 146h32c0 -78 44 -116 98 -116s99 38 99 116h32c0 -93 -55 -146 -131 -146zM295 -10c-136 0 -236 112 -236 250s100 249 236 249c91 0 165 -51 204 -126v116h32v-479h-32v117c-39 -76 -113 -127 -204 -127zM296 20c119 0 203 100 203 221
s-84 218 -203 218s-205 -97 -205 -218s86 -221 205 -221z" />
    <glyph glyph-name="acircumflex" unicode="&#xe2;" horiz-adv-x="630" 
d="M278 688h34l122 -156h-33l-106 128l-106 -128h-33zM295 -10c-136 0 -236 112 -236 250s100 249 236 249c91 0 165 -51 204 -126v116h32v-479h-32v117c-39 -76 -113 -127 -204 -127zM296 20c119 0 203 100 203 221s-84 218 -203 218s-205 -97 -205 -218s86 -221 205 -221z
" />
    <glyph glyph-name="adieresis" unicode="&#xe4;" horiz-adv-x="630" 
d="M198 621c0 14 12 27 27 27s27 -13 27 -27c0 -15 -12 -27 -27 -27s-27 12 -27 27zM338 621c0 14 12 27 27 27s27 -13 27 -27c0 -15 -12 -27 -27 -27s-27 12 -27 27zM295 -10c-136 0 -236 112 -236 250s100 249 236 249c91 0 165 -51 204 -126v116h32v-479h-32v117
c-39 -76 -113 -127 -204 -127zM296 20c119 0 203 100 203 221s-84 218 -203 218s-205 -97 -205 -218s86 -221 205 -221z" />
    <glyph glyph-name="agrave" unicode="&#xe0;" horiz-adv-x="630" 
d="M219 688l98 -156h-31l-110 156h43zM295 -10c-136 0 -236 112 -236 250s100 249 236 249c91 0 165 -51 204 -126v116h32v-479h-32v117c-39 -76 -113 -127 -204 -127zM296 20c119 0 203 100 203 221s-84 218 -203 218s-205 -97 -205 -218s86 -221 205 -221z" />
    <glyph glyph-name="amacron" unicode="&#x101;" horiz-adv-x="630" 
d="M167 637h255v-30h-255v30zM295 -10c-136 0 -236 112 -236 250s100 249 236 249c91 0 165 -51 204 -126v116h32v-479h-32v117c-39 -76 -113 -127 -204 -127zM296 20c119 0 203 100 203 221s-84 218 -203 218s-205 -97 -205 -218s86 -221 205 -221z" />
    <glyph glyph-name="aogonek" unicode="&#x105;" horiz-adv-x="630" 
d="M295 -10c-136 0 -236 112 -236 250s100 249 236 249c91 0 165 -51 204 -126v116h32v-479c-67 -44 -101 -82 -101 -123c0 -24 20 -40 49 -40c26 0 53 9 77 30l16 -20c-20 -21 -52 -40 -95 -40c-47 0 -79 26 -79 68c0 45 32 92 101 136v106c-39 -76 -113 -127 -204 -127z
M296 20c119 0 203 100 203 221s-84 218 -203 218s-205 -97 -205 -218s86 -221 205 -221z" />
    <glyph glyph-name="aring" unicode="&#xe5;" horiz-adv-x="630" 
d="M295 522c-58 0 -103 45 -103 100s45 100 103 100c59 0 103 -45 103 -100s-44 -100 -103 -100zM296 549c40 0 74 30 74 73s-34 74 -74 74s-76 -31 -76 -74s36 -73 76 -73zM295 -10c-136 0 -236 112 -236 250s100 249 236 249c91 0 165 -51 204 -126v116h32v-479h-32v117
c-39 -76 -113 -127 -204 -127zM296 20c119 0 203 100 203 221s-84 218 -203 218s-205 -97 -205 -218s86 -221 205 -221z" />
    <glyph glyph-name="atilde" unicode="&#xe3;" horiz-adv-x="630" 
d="M361 562c-59 0 -85 68 -135 68c-28 0 -48 -24 -64 -58l-18 13c21 51 51 75 86 75c59 0 83 -68 133 -68c30 0 50 24 64 58l18 -13c-19 -51 -49 -75 -84 -75zM295 -10c-136 0 -236 112 -236 250s100 249 236 249c91 0 165 -51 204 -126v116h32v-479h-32v117
c-39 -76 -113 -127 -204 -127zM296 20c119 0 203 100 203 221s-84 218 -203 218s-205 -97 -205 -218s86 -221 205 -221z" />
    <glyph glyph-name="ae" unicode="&#xe6;" horiz-adv-x="998" 
d="M295 -10c-136 0 -236 112 -236 250s100 249 236 249c91 0 165 -51 204 -126v116h32v-118c37 77 109 128 197 128c130 0 226 -110 226 -240c0 -5 -1 -14 -2 -18h-421c5 -117 90 -211 210 -211c62 0 123 22 161 60l19 -23c-43 -43 -111 -67 -181 -67
c-95 0 -171 53 -209 131v-121h-32v117c-39 -76 -113 -127 -204 -127zM296 20c119 0 203 100 203 221s-84 218 -203 218s-205 -97 -205 -218s86 -221 205 -221zM728 459c-109 0 -189 -87 -196 -200h389c-14 124 -89 200 -193 200z" />
    <glyph glyph-name="cacute" unicode="&#x107;" horiz-adv-x="485" 
d="M374 688h43l-110 -156h-31zM446 406c-36 33 -88 53 -148 53c-121 0 -207 -97 -207 -218s86 -221 205 -221c60 0 115 18 149 52l19 -23c-39 -39 -101 -59 -169 -59c-136 0 -236 112 -236 250s100 249 240 249c69 0 130 -23 167 -59z" />
    <glyph glyph-name="ccaron" unicode="&#x10d;" horiz-adv-x="485" 
d="M316 532h-34l-122 156h33l106 -128l106 128h33zM446 406c-36 33 -88 53 -148 53c-121 0 -207 -97 -207 -218s86 -221 205 -221c60 0 115 18 149 52l19 -23c-39 -39 -101 -59 -169 -59c-136 0 -236 112 -236 250s100 249 240 249c69 0 130 -23 167 -59z" />
    <glyph glyph-name="ccedilla" unicode="&#xe7;" horiz-adv-x="485" 
d="M446 406c-36 33 -88 53 -148 53c-121 0 -207 -97 -207 -218s86 -221 205 -221c60 0 115 18 149 52l19 -23c-32 -32 -80 -52 -134 -57l-66 -161l-32 14l68 145h-5c-136 0 -236 112 -236 250s100 249 240 249c69 0 130 -23 167 -59z" />
    <glyph glyph-name="ccircumflex" unicode="&#x109;" horiz-adv-x="485" 
d="M282 688h34l122 -156h-33l-106 128l-106 -128h-33zM446 406c-36 33 -88 53 -148 53c-121 0 -207 -97 -207 -218s86 -221 205 -221c60 0 115 18 149 52l19 -23c-39 -39 -101 -59 -169 -59c-136 0 -236 112 -236 250s100 249 240 249c69 0 130 -23 167 -59z" />
    <glyph glyph-name="cdotaccent" unicode="&#x10b;" horiz-adv-x="485" 
d="M272 621c0 14 12 27 27 27s27 -13 27 -27c0 -15 -12 -27 -27 -27s-27 12 -27 27zM446 406c-36 33 -88 53 -148 53c-121 0 -207 -97 -207 -218s86 -221 205 -221c60 0 115 18 149 52l19 -23c-39 -39 -101 -59 -169 -59c-136 0 -236 112 -236 250s100 249 240 249
c69 0 130 -23 167 -59z" />
    <glyph glyph-name="eth" unicode="&#xf0;" horiz-adv-x="590" 
d="M295 469c81 0 154 -41 188 -92c-31 93 -92 173 -161 230l-81 -45l-13 24l71 39c-28 21 -56 39 -84 52l21 21c32 -15 63 -34 92 -56l69 38l13 -24l-59 -33c103 -88 180 -220 180 -372c0 -165 -100 -261 -236 -261s-236 108 -236 240c0 133 100 239 236 239zM296 20
c119 0 203 95 203 211s-84 208 -203 208s-205 -92 -205 -208s86 -211 205 -211z" />
    <glyph glyph-name="dcaron" unicode="&#x10f;" horiz-adv-x="630" 
d="M295 -10c-136 0 -236 112 -236 250s100 249 236 249c91 0 165 -51 204 -126v325h32v-688h-32v117c-39 -76 -113 -127 -204 -127zM640 688l-32 -166h-27l20 166h39zM296 20c119 0 203 100 203 221s-84 218 -203 218s-205 -97 -205 -218s86 -221 205 -221z" />
    <glyph glyph-name="dcroat" unicode="&#x111;" horiz-adv-x="630" 
d="M295 -10c-136 0 -236 112 -236 250s100 249 236 249c91 0 165 -51 204 -126v224h-162v30h162v71h32v-71h61v-30h-61v-587h-32v117c-39 -76 -113 -127 -204 -127zM296 20c119 0 203 100 203 221s-84 218 -203 218s-205 -97 -205 -218s86 -221 205 -221z" />
    <glyph glyph-name="eacute" unicode="&#xe9;" horiz-adv-x="558" 
d="M364 688h43l-110 -156h-31zM300 -10c-141 0 -241 112 -241 250s96 249 229 249c130 0 226 -110 226 -240c0 -5 -1 -14 -2 -18h-421c5 -117 90 -211 210 -211c62 0 123 22 161 60l19 -23c-43 -43 -111 -67 -181 -67zM288 459c-109 0 -188 -86 -196 -198h389
c-15 123 -90 198 -193 198z" />
    <glyph glyph-name="ebreve" unicode="&#x115;" horiz-adv-x="558" 
d="M288 522c-75 0 -130 53 -130 146h32c0 -78 44 -116 98 -116s99 38 99 116h32c0 -93 -55 -146 -131 -146zM300 -10c-141 0 -241 112 -241 250s96 249 229 249c130 0 226 -110 226 -240c0 -5 -1 -14 -2 -18h-421c5 -117 90 -211 210 -211c62 0 123 22 161 60l19 -23
c-43 -43 -111 -67 -181 -67zM288 459c-109 0 -188 -86 -196 -198h389c-15 123 -90 198 -193 198z" />
    <glyph glyph-name="ecaron" unicode="&#x11b;" horiz-adv-x="558" 
d="M306 532h-34l-122 156h33l106 -128l106 128h33zM300 -10c-141 0 -241 112 -241 250s96 249 229 249c130 0 226 -110 226 -240c0 -5 -1 -14 -2 -18h-421c5 -117 90 -211 210 -211c62 0 123 22 161 60l19 -23c-43 -43 -111 -67 -181 -67zM288 459
c-109 0 -188 -86 -196 -198h389c-15 123 -90 198 -193 198z" />
    <glyph glyph-name="ecircumflex" unicode="&#xea;" horiz-adv-x="558" 
d="M272 688h34l122 -156h-33l-106 128l-106 -128h-33zM300 -10c-141 0 -241 112 -241 250s96 249 229 249c130 0 226 -110 226 -240c0 -5 -1 -14 -2 -18h-421c5 -117 90 -211 210 -211c62 0 123 22 161 60l19 -23c-43 -43 -111 -67 -181 -67zM288 459
c-109 0 -188 -86 -196 -198h389c-15 123 -90 198 -193 198z" />
    <glyph glyph-name="edieresis" unicode="&#xeb;" horiz-adv-x="558" 
d="M192 621c0 14 12 27 27 27s27 -13 27 -27c0 -15 -12 -27 -27 -27s-27 12 -27 27zM332 621c0 14 12 27 27 27s27 -13 27 -27c0 -15 -12 -27 -27 -27s-27 12 -27 27zM300 -10c-141 0 -241 112 -241 250s96 249 229 249c130 0 226 -110 226 -240c0 -5 -1 -14 -2 -18h-421
c5 -117 90 -211 210 -211c62 0 123 22 161 60l19 -23c-43 -43 -111 -67 -181 -67zM288 459c-109 0 -188 -86 -196 -198h389c-15 123 -90 198 -193 198z" />
    <glyph glyph-name="edotaccent" unicode="&#x117;" horiz-adv-x="558" 
d="M262 621c0 14 12 27 27 27s27 -13 27 -27c0 -15 -12 -27 -27 -27s-27 12 -27 27zM300 -10c-141 0 -241 112 -241 250s96 249 229 249c130 0 226 -110 226 -240c0 -5 -1 -14 -2 -18h-421c5 -117 90 -211 210 -211c62 0 123 22 161 60l19 -23c-43 -43 -111 -67 -181 -67z
M288 459c-109 0 -188 -86 -196 -198h389c-15 123 -90 198 -193 198z" />
    <glyph glyph-name="egrave" unicode="&#xe8;" horiz-adv-x="558" 
d="M213 688l98 -156h-31l-110 156h43zM300 -10c-141 0 -241 112 -241 250s96 249 229 249c130 0 226 -110 226 -240c0 -5 -1 -14 -2 -18h-421c5 -117 90 -211 210 -211c62 0 123 22 161 60l19 -23c-43 -43 -111 -67 -181 -67zM288 459c-109 0 -188 -86 -196 -198h389
c-15 123 -90 198 -193 198z" />
    <glyph glyph-name="emacron" unicode="&#x113;" horiz-adv-x="558" 
d="M161 637h255v-30h-255v30zM300 -10c-141 0 -241 112 -241 250s96 249 229 249c130 0 226 -110 226 -240c0 -5 -1 -14 -2 -18h-421c5 -117 90 -211 210 -211c62 0 123 22 161 60l19 -23c-43 -43 -111 -67 -181 -67zM288 459c-109 0 -188 -86 -196 -198h389
c-15 123 -90 198 -193 198z" />
    <glyph glyph-name="eogonek" unicode="&#x119;" horiz-adv-x="558" 
d="M300 -10c-141 0 -241 112 -241 250s96 249 229 249c130 0 226 -110 226 -240c0 -5 -1 -14 -2 -18h-421c5 -117 90 -211 210 -211c62 0 123 22 161 60l19 -23c-27 -27 -63 -46 -104 -57c-67 -44 -101 -82 -101 -123c0 -24 20 -40 49 -40c26 0 53 9 77 30l16 -20
c-20 -21 -52 -40 -95 -40c-47 0 -79 26 -79 68c0 39 23 78 72 115h-16zM288 459c-109 0 -188 -86 -196 -198h389c-15 123 -90 198 -193 198z" />
    <glyph glyph-name="gbreve" unicode="&#x11f;" horiz-adv-x="630" 
d="M294 522c-75 0 -130 53 -130 146h32c0 -78 44 -116 98 -116s99 38 99 116h32c0 -93 -55 -146 -131 -146zM118 -122c45 -32 108 -54 179 -54c132 0 202 72 202 207v86c-39 -76 -113 -127 -204 -127c-136 0 -236 112 -236 250s100 249 236 249c91 0 165 -51 204 -126v116
h32v-445c0 -156 -81 -240 -234 -240c-86 0 -150 22 -197 57zM296 20c119 0 203 100 203 221s-84 218 -203 218s-205 -97 -205 -218s86 -221 205 -221z" />
    <glyph glyph-name="gcircumflex" unicode="&#x11d;" horiz-adv-x="630" 
d="M278 688h34l122 -156h-33l-106 128l-106 -128h-33zM118 -122c45 -32 108 -54 179 -54c132 0 202 72 202 207v86c-39 -76 -113 -127 -204 -127c-136 0 -236 112 -236 250s100 249 236 249c91 0 165 -51 204 -126v116h32v-445c0 -156 -81 -240 -234 -240
c-86 0 -150 22 -197 57zM296 20c119 0 203 100 203 221s-84 218 -203 218s-205 -97 -205 -218s86 -221 205 -221z" />
    <glyph glyph-name="gcommaaccent" unicode="&#x123;" horiz-adv-x="630" 
d="M272 538l50 127h31l-38 -127h-43zM118 -122c45 -32 108 -54 179 -54c132 0 202 72 202 207v86c-39 -76 -113 -127 -204 -127c-136 0 -236 112 -236 250s100 249 236 249c91 0 165 -51 204 -126v116h32v-445c0 -156 -81 -240 -234 -240c-86 0 -150 22 -197 57zM296 20
c119 0 203 100 203 221s-84 218 -203 218s-205 -97 -205 -218s86 -221 205 -221z" />
    <glyph glyph-name="gdotaccent" unicode="&#x121;" horiz-adv-x="630" 
d="M268 621c0 14 12 27 27 27s27 -13 27 -27c0 -15 -12 -27 -27 -27s-27 12 -27 27zM118 -122c45 -32 108 -54 179 -54c132 0 202 72 202 207v86c-39 -76 -113 -127 -204 -127c-136 0 -236 112 -236 250s100 249 236 249c91 0 165 -51 204 -126v116h32v-445
c0 -156 -81 -240 -234 -240c-86 0 -150 22 -197 57zM296 20c119 0 203 100 203 221s-84 218 -203 218s-205 -97 -205 -218s86 -221 205 -221z" />
    <glyph glyph-name="hbar" unicode="&#x127;" horiz-adv-x="567" 
d="M99 0v587h-61v30h61v71h32v-71h160v-30h-160v-191c30 57 86 93 160 93c116 0 192 -76 192 -190v-299h-32v290c0 105 -60 169 -160 169s-160 -64 -160 -169v-290h-32z" />
    <glyph glyph-name="hcircumflex" unicode="&#x125;" horiz-adv-x="567" 
d="M98 895h34l122 -156h-33l-106 128l-106 -128h-33zM99 0v688h32v-292c30 57 86 93 160 93c116 0 192 -76 192 -190v-299h-32v290c0 105 -60 169 -160 169s-160 -64 -160 -169v-290h-32z" />
    <glyph glyph-name="idotless" unicode="&#x131;" horiz-adv-x="230" 
d="M131 479v-479h-32v479h32z" />
    <glyph glyph-name="iacute" unicode="&#xed;" horiz-adv-x="230" 
d="M190 688h43l-110 -156h-31zM131 479v-479h-32v479h32z" />
    <glyph glyph-name="ibreve" unicode="&#x12d;" horiz-adv-x="230" 
d="M114 522c-75 0 -130 53 -130 146h32c0 -78 44 -116 98 -116s99 38 99 116h32c0 -93 -55 -146 -131 -146zM131 479v-479h-32v479h32z" />
    <glyph glyph-name="icircumflex" unicode="&#xee;" horiz-adv-x="230" 
d="M98 688h34l122 -156h-33l-106 128l-106 -128h-33zM131 479v-479h-32v479h32z" />
    <glyph glyph-name="idieresis" unicode="&#xef;" horiz-adv-x="230" 
d="M18 621c0 14 12 27 27 27s27 -13 27 -27c0 -15 -12 -27 -27 -27s-27 12 -27 27zM158 621c0 14 12 27 27 27s27 -13 27 -27c0 -15 -12 -27 -27 -27s-27 12 -27 27zM131 479v-479h-32v479h32z" />
    <glyph glyph-name="igrave" unicode="&#xec;" horiz-adv-x="230" 
d="M39 688l98 -156h-31l-110 156h43zM131 479v-479h-32v479h32z" />
    <glyph glyph-name="ij" unicode="&#x133;" horiz-adv-x="460" 
d="M115 594c-15 0 -27 12 -27 27c0 14 12 27 27 27s27 -13 27 -27c0 -15 -12 -27 -27 -27zM345 594c-15 0 -27 12 -27 27c0 14 12 27 27 27s27 -13 27 -27c0 -15 -12 -27 -27 -27zM131 0h-32v479h32v-479zM257 -206c-37 0 -56 10 -76 25l17 24c15 -12 33 -19 59 -19
c47 0 72 31 72 89v566h32v-563c0 -80 -36 -122 -104 -122z" />
    <glyph glyph-name="imacron" unicode="&#x12b;" horiz-adv-x="230" 
d="M-13 637h255v-30h-255v30zM131 479v-479h-32v479h32z" />
    <glyph glyph-name="iogonek" unicode="&#x12f;" horiz-adv-x="230" 
d="M88 621c0 14 12 27 27 27s27 -13 27 -27c0 -15 -12 -27 -27 -27s-27 12 -27 27zM131 479v-479c-67 -44 -101 -82 -101 -123c0 -24 20 -40 49 -40c26 0 53 9 77 30l16 -20c-20 -21 -52 -40 -95 -40c-47 0 -79 26 -79 68c0 45 32 92 101 136v468h32z" />
    <glyph glyph-name="itilde" unicode="&#x129;" horiz-adv-x="230" 
d="M181 562c-59 0 -85 68 -135 68c-28 0 -48 -24 -64 -58l-18 13c21 51 51 75 86 75c59 0 83 -68 133 -68c30 0 50 24 64 58l18 -13c-19 -51 -49 -75 -84 -75zM131 479v-479h-32v479h32z" />
    <glyph glyph-name="jdotless" unicode="&#x237;" horiz-adv-x="230" 
d="M131 479v-563c0 -80 -36 -122 -104 -122c-37 0 -56 10 -76 25l17 24c15 -12 33 -19 59 -19c47 0 72 31 72 89v566h32z" />
    <glyph glyph-name="jcircumflex" unicode="&#x135;" horiz-adv-x="230" 
d="M98 688h34l122 -156h-33l-106 128l-106 -128h-33zM131 479v-563c0 -80 -36 -122 -104 -122c-37 0 -56 10 -76 25l17 24c15 -12 33 -19 59 -19c47 0 72 31 72 89v566h32z" />
    <glyph glyph-name="kcommaaccent" unicode="&#x137;" horiz-adv-x="486" 
d="M131 0h-32v688h32v-433l283 224h48l-294 -234l304 -245h-49l-292 235v-235zM294 -51l-50 -127h-27l38 127h39z" />
    <glyph glyph-name="lacute" unicode="&#x13a;" horiz-adv-x="244" 
d="M190 897h43l-110 -156h-31zM207 28l7 -29c-11 -4 -23 -6 -34 -6c-45 0 -81 31 -81 96v599h32v-597c0 -52 26 -67 52 -67c8 0 16 1 24 4z" />
    <glyph glyph-name="lcaron" unicode="&#x13e;" horiz-adv-x="244" 
d="M207 28l7 -29c-11 -4 -23 -6 -34 -6c-45 0 -81 31 -81 96v599h32v-597c0 -52 26 -67 52 -67c8 0 16 1 24 4zM230 688l-32 -166h-27l20 166h39z" />
    <glyph glyph-name="lcommaaccent" unicode="&#x13c;" horiz-adv-x="244" 
d="M207 28l7 -29c-11 -4 -23 -6 -34 -6c-45 0 -81 31 -81 96v599h32v-597c0 -52 26 -67 52 -67c8 0 16 1 24 4zM183 -51l-50 -127h-27l38 127h39z" />
    <glyph glyph-name="ldot" unicode="&#x140;" horiz-adv-x="244" 
d="M207 28l7 -29c-11 -4 -23 -6 -34 -6c-45 0 -81 31 -81 96v599h32v-597c0 -52 26 -67 52 -67c8 0 16 1 24 4zM211 316c0 14 12 27 27 27s27 -13 27 -27c0 -15 -12 -27 -27 -27s-27 12 -27 27z" />
    <glyph glyph-name="lslash" unicode="&#x142;" horiz-adv-x="244" 
d="M207 28l7 -29c-11 -4 -23 -6 -34 -6c-45 0 -81 31 -81 96v274l-64 -27v31l64 27v294h32v-280l86 37v-31l-86 -37v-286c0 -52 26 -67 52 -67c8 0 16 1 24 4z" />
    <glyph glyph-name="nacute" unicode="&#x144;" horiz-adv-x="567" 
d="M369 688h43l-110 -156h-31zM99 0v479h32v-83c30 57 86 93 160 93c116 0 192 -76 192 -190v-299h-32v290c0 105 -60 169 -160 169s-160 -64 -160 -169v-290h-32z" />
    <glyph glyph-name="ncaron" unicode="&#x148;" horiz-adv-x="567" 
d="M311 532h-34l-122 156h33l106 -128l106 128h33zM99 0v479h32v-83c30 57 86 93 160 93c116 0 192 -76 192 -190v-299h-32v290c0 105 -60 169 -160 169s-160 -64 -160 -169v-290h-32z" />
    <glyph glyph-name="ncommaaccent" unicode="&#x146;" horiz-adv-x="567" 
d="M99 0v479h32v-83c30 57 86 93 160 93c116 0 192 -76 192 -190v-299h-32v290c0 105 -60 169 -160 169s-160 -64 -160 -169v-290h-32zM305 -51l-50 -127h-27l38 127h39z" />
    <glyph glyph-name="ntilde" unicode="&#xf1;" horiz-adv-x="567" 
d="M360 562c-59 0 -85 68 -135 68c-28 0 -48 -24 -64 -58l-18 13c21 51 51 75 86 75c59 0 83 -68 133 -68c30 0 50 24 64 58l18 -13c-19 -51 -49 -75 -84 -75zM99 0v479h32v-83c30 57 86 93 160 93c116 0 192 -76 192 -190v-299h-32v290c0 105 -60 169 -160 169
s-160 -64 -160 -169v-290h-32z" />
    <glyph glyph-name="oacute" unicode="&#xf3;" horiz-adv-x="590" 
d="M370 688h43l-110 -156h-31zM295 -10c-136 0 -236 112 -236 250s100 249 236 249s236 -111 236 -249s-100 -250 -236 -250zM296 20c119 0 203 100 203 221s-84 218 -203 218s-205 -97 -205 -218s86 -221 205 -221z" />
    <glyph glyph-name="obreve" unicode="&#x14f;" horiz-adv-x="590" 
d="M294 522c-75 0 -130 53 -130 146h32c0 -78 44 -116 98 -116s99 38 99 116h32c0 -93 -55 -146 -131 -146zM295 -10c-136 0 -236 112 -236 250s100 249 236 249s236 -111 236 -249s-100 -250 -236 -250zM296 20c119 0 203 100 203 221s-84 218 -203 218s-205 -97 -205 -218
s86 -221 205 -221z" />
    <glyph glyph-name="ocircumflex" unicode="&#xf4;" horiz-adv-x="590" 
d="M278 688h34l122 -156h-33l-106 128l-106 -128h-33zM295 -10c-136 0 -236 112 -236 250s100 249 236 249s236 -111 236 -249s-100 -250 -236 -250zM296 20c119 0 203 100 203 221s-84 218 -203 218s-205 -97 -205 -218s86 -221 205 -221z" />
    <glyph glyph-name="odieresis" unicode="&#xf6;" horiz-adv-x="590" 
d="M198 621c0 14 12 27 27 27s27 -13 27 -27c0 -15 -12 -27 -27 -27s-27 12 -27 27zM338 621c0 14 12 27 27 27s27 -13 27 -27c0 -15 -12 -27 -27 -27s-27 12 -27 27zM295 -10c-136 0 -236 112 -236 250s100 249 236 249s236 -111 236 -249s-100 -250 -236 -250zM296 20
c119 0 203 100 203 221s-84 218 -203 218s-205 -97 -205 -218s86 -221 205 -221z" />
    <glyph glyph-name="ograve" unicode="&#xf2;" horiz-adv-x="590" 
d="M219 688l98 -156h-31l-110 156h43zM295 -10c-136 0 -236 112 -236 250s100 249 236 249s236 -111 236 -249s-100 -250 -236 -250zM296 20c119 0 203 100 203 221s-84 218 -203 218s-205 -97 -205 -218s86 -221 205 -221z" />
    <glyph glyph-name="ohungarumlaut" unicode="&#x151;" horiz-adv-x="590" 
d="M300 688h43l-110 -156h-31zM421 688h43l-110 -156h-31zM295 -10c-136 0 -236 112 -236 250s100 249 236 249s236 -111 236 -249s-100 -250 -236 -250zM296 20c119 0 203 100 203 221s-84 218 -203 218s-205 -97 -205 -218s86 -221 205 -221z" />
    <glyph glyph-name="omacron" unicode="&#x14d;" horiz-adv-x="590" 
d="M167 637h255v-30h-255v30zM295 -10c-136 0 -236 112 -236 250s100 249 236 249s236 -111 236 -249s-100 -250 -236 -250zM296 20c119 0 203 100 203 221s-84 218 -203 218s-205 -97 -205 -218s86 -221 205 -221z" />
    <glyph glyph-name="oslash" unicode="&#xf8;" horiz-adv-x="612" 
d="M306 -10c-47 0 -89 13 -124 36l-50 -73l-24 17l50 73c-55 46 -88 117 -88 197c0 138 100 249 236 249c49 0 93 -14 129 -39l52 76l24 -17l-52 -77c51 -45 83 -114 83 -192c0 -138 -100 -250 -236 -250zM102 241c0 -69 28 -131 74 -172l242 356c-31 22 -69 34 -111 34
c-119 0 -205 -97 -205 -218zM510 241c0 67 -26 126 -68 166l-243 -355c31 -20 68 -32 108 -32c119 0 203 100 203 221z" />
    <glyph glyph-name="otilde" unicode="&#xf5;" horiz-adv-x="590" 
d="M361 562c-59 0 -85 68 -135 68c-28 0 -48 -24 -64 -58l-18 13c21 51 51 75 86 75c59 0 83 -68 133 -68c30 0 50 24 64 58l18 -13c-19 -51 -49 -75 -84 -75zM295 -10c-136 0 -236 112 -236 250s100 249 236 249s236 -111 236 -249s-100 -250 -236 -250zM296 20
c119 0 203 100 203 221s-84 218 -203 218s-205 -97 -205 -218s86 -221 205 -221z" />
    <glyph glyph-name="oe" unicode="&#x153;" horiz-adv-x="998" 
d="M295 -10c-136 0 -236 112 -236 250s100 249 236 249c105 0 189 -68 220 -164c30 96 110 164 213 164c130 0 226 -110 226 -240c0 -5 -1 -14 -2 -18h-421c5 -117 90 -211 210 -211c62 0 123 22 161 60l19 -23c-43 -43 -111 -67 -181 -67c-109 0 -194 69 -225 166
c-31 -97 -115 -166 -220 -166zM296 20c119 0 203 100 203 221s-84 218 -203 218s-205 -97 -205 -218s86 -221 205 -221zM728 459c-109 0 -189 -87 -196 -200h389c-14 124 -89 200 -193 200z" />
    <glyph glyph-name="thorn" unicode="&#xfe;" horiz-adv-x="630" 
d="M335 489c136 0 236 -112 236 -250s-100 -249 -236 -249c-91 0 -165 50 -204 124v-310h-32v884h32v-324c39 75 113 125 204 125zM336 459c-119 0 -205 -100 -205 -221s86 -218 205 -218s203 97 203 218s-84 221 -203 221z" />
    <glyph glyph-name="racute" unicode="&#x155;" horiz-adv-x="338" 
d="M284 688h43l-110 -156h-31zM99 0v479h32v-74c25 52 68 84 125 84c28 0 53 -6 68 -17l-14 -29c-16 10 -37 16 -60 16c-73 0 -119 -64 -119 -169v-290h-32z" />
    <glyph glyph-name="rcaron" unicode="&#x159;" horiz-adv-x="338" 
d="M226 532h-34l-122 156h33l106 -128l106 128h33zM99 0v479h32v-74c25 52 68 84 125 84c28 0 53 -6 68 -17l-14 -29c-16 10 -37 16 -60 16c-73 0 -119 -64 -119 -169v-290h-32z" />
    <glyph glyph-name="rcommaaccent" unicode="&#x157;" horiz-adv-x="338" 
d="M99 0v479h32v-74c25 52 68 84 125 84c28 0 53 -6 68 -17l-14 -29c-16 10 -37 16 -60 16c-73 0 -119 -64 -119 -169v-290h-32zM135 -51l-50 -127h-27l38 127h39z" />
    <glyph glyph-name="sacute" unicode="&#x15b;" horiz-adv-x="430" 
d="M290 688h43l-110 -156h-31zM214 -10c-60 0 -125 18 -177 50l14 28c51 -31 109 -48 165 -48c89 0 138 41 138 101c0 147 -295 73 -295 248c0 68 62 120 166 120c62 0 114 -19 150 -38l-13 -27c-33 18 -80 35 -137 35c-82 0 -134 -39 -134 -89c0 -145 295 -74 295 -247
c0 -81 -65 -133 -172 -133z" />
    <glyph glyph-name="scaron" unicode="&#x161;" horiz-adv-x="430" 
d="M232 532h-34l-122 156h33l106 -128l106 128h33zM214 -10c-60 0 -125 18 -177 50l14 28c51 -31 109 -48 165 -48c89 0 138 41 138 101c0 147 -295 73 -295 248c0 68 62 120 166 120c62 0 114 -19 150 -38l-13 -27c-33 18 -80 35 -137 35c-82 0 -134 -39 -134 -89
c0 -145 295 -74 295 -247c0 -81 -65 -133 -172 -133z" />
    <glyph glyph-name="scedilla" unicode="&#x15f;" horiz-adv-x="430" 
d="M386 123c0 -78 -60 -129 -160 -133l-65 -159l-32 14l69 145c-56 3 -114 21 -161 50l14 28c51 -31 109 -48 165 -48c89 0 138 41 138 101c0 147 -295 73 -295 248c0 68 62 120 166 120c62 0 114 -19 150 -38l-13 -27c-33 18 -80 35 -137 35c-82 0 -134 -39 -134 -89
c0 -145 295 -74 295 -247z" />
    <glyph glyph-name="scircumflex" unicode="&#x15d;" horiz-adv-x="430" 
d="M198 688h34l122 -156h-33l-106 128l-106 -128h-33zM214 -10c-60 0 -125 18 -177 50l14 28c51 -31 109 -48 165 -48c89 0 138 41 138 101c0 147 -295 73 -295 248c0 68 62 120 166 120c62 0 114 -19 150 -38l-13 -27c-33 18 -80 35 -137 35c-82 0 -134 -39 -134 -89
c0 -145 295 -74 295 -247c0 -81 -65 -133 -172 -133z" />
    <glyph glyph-name="scommaaccent" unicode="&#x219;" horiz-adv-x="430" 
d="M214 -10c-60 0 -125 18 -177 50l14 28c51 -31 109 -48 165 -48c89 0 138 41 138 101c0 147 -295 73 -295 248c0 68 62 120 166 120c62 0 114 -19 150 -38l-13 -27c-33 18 -80 35 -137 35c-82 0 -134 -39 -134 -89c0 -145 295 -74 295 -247c0 -81 -65 -133 -172 -133z
M236 -51l-50 -127h-27l38 127h39z" />
    <glyph glyph-name="germandbls" unicode="&#xdf;" horiz-adv-x="591" 
d="M292 668c-106 0 -161 -67 -161 -183v-485h-32v488c0 133 73 210 192 210c116 0 190 -70 190 -177c0 -73 -39 -128 -99 -156c81 -19 139 -80 139 -179c0 -121 -89 -196 -207 -196c-56 0 -93 7 -122 22l12 29c37 -18 74 -21 112 -21c102 0 173 66 173 166
c0 94 -59 160 -182 160h-77v30h72c97 0 147 73 147 145c0 85 -57 147 -157 147z" />
    <glyph glyph-name="tbar" unicode="&#x167;" horiz-adv-x="335" 
d="M39 255h70v194h-71v30h71v110h32v-110h147v-30h-147v-194h115v-30h-115v-112c0 -61 30 -93 85 -93c27 0 54 9 72 26l18 -25c-16 -15 -47 -31 -89 -31c-77 0 -118 42 -118 120v115h-70v30z" />
    <glyph glyph-name="tcaron" unicode="&#x165;" horiz-adv-x="335" 
d="M240 688l-32 -166h-27l20 166h39zM38 449v30h71v110h32v-110h147v-30h-147v-336c0 -61 30 -93 85 -93c27 0 54 9 72 26l18 -25c-16 -15 -47 -31 -89 -31c-77 0 -118 42 -118 120v339h-71z" />
    <glyph glyph-name="tcedilla" unicode="&#x163;" horiz-adv-x="335" 
d="M38 449v30h71v110h32v-110h147v-30h-147v-336c0 -61 30 -93 85 -93c27 0 54 9 72 26l18 -25c-14 -14 -41 -28 -77 -31l-65 -159l-32 14l69 146c-67 5 -102 47 -102 119v339h-71z" />
    <glyph glyph-name="tcommaaccent" unicode="&#x21b;" horiz-adv-x="335" 
d="M38 449v30h71v110h32v-110h147v-30h-147v-336c0 -61 30 -93 85 -93c27 0 54 9 72 26l18 -25c-16 -15 -47 -31 -89 -31c-77 0 -118 42 -118 120v339h-71zM249 -51l-50 -127h-27l38 127h39z" />
    <glyph glyph-name="uacute" unicode="&#xfa;" horiz-adv-x="567" 
d="M359 688h43l-110 -156h-31zM121 479v-275c0 -107 64 -178 161 -178c99 0 164 71 164 178v275h32v-279c0 -123 -78 -204 -196 -204c-116 0 -193 81 -193 204v279h32z" />
    <glyph glyph-name="ubreve" unicode="&#x16d;" horiz-adv-x="567" 
d="M283 522c-75 0 -130 53 -130 146h32c0 -78 44 -116 98 -116s99 38 99 116h32c0 -93 -55 -146 -131 -146zM121 479v-275c0 -107 64 -178 161 -178c99 0 164 71 164 178v275h32v-279c0 -123 -78 -204 -196 -204c-116 0 -193 81 -193 204v279h32z" />
    <glyph glyph-name="ucircumflex" unicode="&#xfb;" horiz-adv-x="567" 
d="M267 688h34l122 -156h-33l-106 128l-106 -128h-33zM121 479v-275c0 -107 64 -178 161 -178c99 0 164 71 164 178v275h32v-279c0 -123 -78 -204 -196 -204c-116 0 -193 81 -193 204v279h32z" />
    <glyph glyph-name="udieresis" unicode="&#xfc;" horiz-adv-x="567" 
d="M187 621c0 14 12 27 27 27s27 -13 27 -27c0 -15 -12 -27 -27 -27s-27 12 -27 27zM327 621c0 14 12 27 27 27s27 -13 27 -27c0 -15 -12 -27 -27 -27s-27 12 -27 27zM121 479v-275c0 -107 64 -178 161 -178c99 0 164 71 164 178v275h32v-279c0 -123 -78 -204 -196 -204
c-116 0 -193 81 -193 204v279h32z" />
    <glyph glyph-name="ugrave" unicode="&#xf9;" horiz-adv-x="567" 
d="M208 688l98 -156h-31l-110 156h43zM121 479v-275c0 -107 64 -178 161 -178c99 0 164 71 164 178v275h32v-279c0 -123 -78 -204 -196 -204c-116 0 -193 81 -193 204v279h32z" />
    <glyph glyph-name="uhungarumlaut" unicode="&#x171;" horiz-adv-x="567" 
d="M289 688h43l-110 -156h-31zM410 688h43l-110 -156h-31zM121 479v-275c0 -107 64 -178 161 -178c99 0 164 71 164 178v275h32v-279c0 -123 -78 -204 -196 -204c-116 0 -193 81 -193 204v279h32z" />
    <glyph glyph-name="umacron" unicode="&#x16b;" horiz-adv-x="567" 
d="M156 637h255v-30h-255v30zM121 479v-275c0 -107 64 -178 161 -178c99 0 164 71 164 178v275h32v-279c0 -123 -78 -204 -196 -204c-116 0 -193 81 -193 204v279h32z" />
    <glyph glyph-name="uogonek" unicode="&#x173;" horiz-adv-x="567" 
d="M121 479v-275c0 -107 64 -178 161 -178c99 0 164 71 164 178v275h32v-279c0 -107 -59 -182 -152 -200c-67 -44 -101 -82 -101 -123c0 -24 20 -40 49 -40c26 0 53 9 77 30l16 -20c-20 -21 -52 -40 -95 -40c-47 0 -79 26 -79 68c0 40 26 82 80 121c-111 4 -184 84 -184 204
v279h32z" />
    <glyph glyph-name="uring" unicode="&#x16f;" horiz-adv-x="567" 
d="M284 522c-58 0 -103 45 -103 100s45 100 103 100c59 0 103 -45 103 -100s-44 -100 -103 -100zM285 549c40 0 74 30 74 73s-34 74 -74 74s-76 -31 -76 -74s36 -73 76 -73zM121 479v-275c0 -107 64 -178 161 -178c99 0 164 71 164 178v275h32v-279
c0 -123 -78 -204 -196 -204c-116 0 -193 81 -193 204v279h32z" />
    <glyph glyph-name="utilde" unicode="&#x169;" horiz-adv-x="567" 
d="M350 562c-59 0 -85 68 -135 68c-28 0 -48 -24 -64 -58l-18 13c21 51 51 75 86 75c59 0 83 -68 133 -68c30 0 50 24 64 58l18 -13c-19 -51 -49 -75 -84 -75zM121 479v-275c0 -107 64 -178 161 -178c99 0 164 71 164 178v275h32v-279c0 -123 -78 -204 -196 -204
c-116 0 -193 81 -193 204v279h32z" />
    <glyph glyph-name="wacute" unicode="&#x1e83;" horiz-adv-x="777" 
d="M464 688h43l-110 -156h-31zM231 0h-38l-164 479h35l148 -440l159 440h37l158 -439l148 439h34l-164 -479h-37l-158 435z" />
    <glyph glyph-name="wcircumflex" unicode="&#x175;" horiz-adv-x="777" 
d="M372 688h34l122 -156h-33l-106 128l-106 -128h-33zM231 0h-38l-164 479h35l148 -440l159 440h37l158 -439l148 439h34l-164 -479h-37l-158 435z" />
    <glyph glyph-name="wdieresis" unicode="&#x1e85;" horiz-adv-x="777" 
d="M292 621c0 14 12 27 27 27s27 -13 27 -27c0 -15 -12 -27 -27 -27s-27 12 -27 27zM432 621c0 14 12 27 27 27s27 -13 27 -27c0 -15 -12 -27 -27 -27s-27 12 -27 27zM231 0h-38l-164 479h35l148 -440l159 440h37l158 -439l148 439h34l-164 -479h-37l-158 435z" />
    <glyph glyph-name="wgrave" unicode="&#x1e81;" horiz-adv-x="777" 
d="M313 688l98 -156h-31l-110 156h43zM231 0h-38l-164 479h35l148 -440l159 440h37l158 -439l148 439h34l-164 -479h-37l-158 435z" />
    <glyph glyph-name="yacute" unicode="&#xfd;" horiz-adv-x="467" 
d="M309 688h43l-110 -156h-31zM194 -95l35 90l-216 484h33l198 -445l171 445h33l-226 -586c-22 -56 -52 -99 -116 -99c-26 0 -60 9 -87 33l18 25c20 -18 45 -28 73 -28c36 0 60 20 84 81z" />
    <glyph glyph-name="ycircumflex" unicode="&#x177;" horiz-adv-x="467" 
d="M217 688h34l122 -156h-33l-106 128l-106 -128h-33zM194 -95l35 90l-216 484h33l198 -445l171 445h33l-226 -586c-22 -56 -52 -99 -116 -99c-26 0 -60 9 -87 33l18 25c20 -18 45 -28 73 -28c36 0 60 20 84 81z" />
    <glyph glyph-name="ydieresis" unicode="&#xff;" horiz-adv-x="467" 
d="M137 621c0 14 12 27 27 27s27 -13 27 -27c0 -15 -12 -27 -27 -27s-27 12 -27 27zM277 621c0 14 12 27 27 27s27 -13 27 -27c0 -15 -12 -27 -27 -27s-27 12 -27 27zM194 -95l35 90l-216 484h33l198 -445l171 445h33l-226 -586c-22 -56 -52 -99 -116 -99
c-26 0 -60 9 -87 33l18 25c20 -18 45 -28 73 -28c36 0 60 20 84 81z" />
    <glyph glyph-name="ygrave" unicode="&#x1ef3;" horiz-adv-x="467" 
d="M158 688l98 -156h-31l-110 156h43zM194 -95l35 90l-216 484h33l198 -445l171 445h33l-226 -586c-22 -56 -52 -99 -116 -99c-26 0 -60 9 -87 33l18 25c20 -18 45 -28 73 -28c36 0 60 20 84 81z" />
    <glyph glyph-name="zacute" unicode="&#x17a;" horiz-adv-x="469" 
d="M310 688h43l-110 -156h-31zM44 30l337 419h-332v30h371v-30l-337 -419h342v-30h-381v30z" />
    <glyph glyph-name="zcaron" unicode="&#x17e;" horiz-adv-x="469" 
d="M252 532h-34l-122 156h33l106 -128l106 128h33zM44 30l337 419h-332v30h371v-30l-337 -419h342v-30h-381v30z" />
    <glyph glyph-name="zdotaccent" unicode="&#x17c;" horiz-adv-x="469" 
d="M208 621c0 14 12 27 27 27s27 -13 27 -27c0 -15 -12 -27 -27 -27s-27 12 -27 27zM44 30l337 419h-332v30h371v-30l-337 -419h342v-30h-381v30z" />
    <glyph glyph-name="aacute.alt" horiz-adv-x="634" 
d="M377 688h43l-110 -156h-31zM295 -10c-136 0 -236 112 -236 250s100 249 236 249c91 0 165 -51 204 -126v116h32v-388c0 -52 26 -67 52 -67c8 0 16 1 24 4l7 -29c-11 -4 -23 -6 -34 -6c-45 0 -81 31 -81 96v28c-39 -76 -114 -127 -204 -127zM296 20c119 0 203 100 203 221
s-84 218 -203 218s-205 -97 -205 -218s86 -221 205 -221z" />
    <glyph glyph-name="abreve.alt" horiz-adv-x="634" 
d="M301 522c-75 0 -130 53 -130 146h32c0 -78 44 -116 98 -116s99 38 99 116h32c0 -93 -55 -146 -131 -146zM295 -10c-136 0 -236 112 -236 250s100 249 236 249c91 0 165 -51 204 -126v116h32v-388c0 -52 26 -67 52 -67c8 0 16 1 24 4l7 -29c-11 -4 -23 -6 -34 -6
c-45 0 -81 31 -81 96v28c-39 -76 -114 -127 -204 -127zM296 20c119 0 203 100 203 221s-84 218 -203 218s-205 -97 -205 -218s86 -221 205 -221z" />
    <glyph glyph-name="acircumflex.alt" horiz-adv-x="634" 
d="M285 688h34l122 -156h-33l-106 128l-106 -128h-33zM295 -10c-136 0 -236 112 -236 250s100 249 236 249c91 0 165 -51 204 -126v116h32v-388c0 -52 26 -67 52 -67c8 0 16 1 24 4l7 -29c-11 -4 -23 -6 -34 -6c-45 0 -81 31 -81 96v28c-39 -76 -114 -127 -204 -127zM296 20
c119 0 203 100 203 221s-84 218 -203 218s-205 -97 -205 -218s86 -221 205 -221z" />
    <glyph glyph-name="adieresis.alt" horiz-adv-x="634" 
d="M205 621c0 14 12 27 27 27s27 -13 27 -27c0 -15 -12 -27 -27 -27s-27 12 -27 27zM345 621c0 14 12 27 27 27s27 -13 27 -27c0 -15 -12 -27 -27 -27s-27 12 -27 27zM295 -10c-136 0 -236 112 -236 250s100 249 236 249c91 0 165 -51 204 -126v116h32v-388
c0 -52 26 -67 52 -67c8 0 16 1 24 4l7 -29c-11 -4 -23 -6 -34 -6c-45 0 -81 31 -81 96v28c-39 -76 -114 -127 -204 -127zM296 20c119 0 203 100 203 221s-84 218 -203 218s-205 -97 -205 -218s86 -221 205 -221z" />
    <glyph glyph-name="agrave.alt" horiz-adv-x="634" 
d="M226 688l98 -156h-31l-110 156h43zM295 -10c-136 0 -236 112 -236 250s100 249 236 249c91 0 165 -51 204 -126v116h32v-388c0 -52 26 -67 52 -67c8 0 16 1 24 4l7 -29c-11 -4 -23 -6 -34 -6c-45 0 -81 31 -81 96v28c-39 -76 -114 -127 -204 -127zM296 20
c119 0 203 100 203 221s-84 218 -203 218s-205 -97 -205 -218s86 -221 205 -221z" />
    <glyph glyph-name="amacron.alt" horiz-adv-x="634" 
d="M174 637h255v-30h-255v30zM295 -10c-136 0 -236 112 -236 250s100 249 236 249c91 0 165 -51 204 -126v116h32v-388c0 -52 26 -67 52 -67c8 0 16 1 24 4l7 -29c-11 -4 -23 -6 -34 -6c-45 0 -81 31 -81 96v28c-39 -76 -114 -127 -204 -127zM296 20c119 0 203 100 203 221
s-84 218 -203 218s-205 -97 -205 -218s86 -221 205 -221z" />
    <glyph glyph-name="aogonek.alt" horiz-adv-x="634" 
d="M295 -10c-136 0 -236 112 -236 250s100 249 236 249c91 0 165 -51 204 -126v116h32v-388c0 -52 26 -67 52 -67c8 0 16 1 24 4l7 -29c-67 -44 -101 -82 -101 -123c0 -24 20 -40 49 -40c26 0 53 9 77 30l16 -20c-20 -21 -52 -40 -95 -40c-47 0 -79 26 -79 68
c0 40 26 82 80 121c-36 8 -62 39 -62 94v28c-39 -76 -114 -127 -204 -127zM296 20c119 0 203 100 203 221s-84 218 -203 218s-205 -97 -205 -218s86 -221 205 -221z" />
    <glyph glyph-name="aring.alt" horiz-adv-x="634" 
d="M302 522c-58 0 -103 45 -103 100s45 100 103 100c59 0 103 -45 103 -100s-44 -100 -103 -100zM303 549c40 0 74 30 74 73s-34 74 -74 74s-76 -31 -76 -74s36 -73 76 -73zM295 -10c-136 0 -236 112 -236 250s100 249 236 249c91 0 165 -51 204 -126v116h32v-388
c0 -52 26 -67 52 -67c8 0 16 1 24 4l7 -29c-11 -4 -23 -6 -34 -6c-45 0 -81 31 -81 96v28c-39 -76 -114 -127 -204 -127zM296 20c119 0 203 100 203 221s-84 218 -203 218s-205 -97 -205 -218s86 -221 205 -221z" />
    <glyph glyph-name="atilde.alt" horiz-adv-x="634" 
d="M368 562c-59 0 -85 68 -135 68c-28 0 -48 -24 -64 -58l-18 13c21 51 51 75 86 75c59 0 83 -68 133 -68c30 0 50 24 64 58l18 -13c-19 -51 -49 -75 -84 -75zM295 -10c-136 0 -236 112 -236 250s100 249 236 249c91 0 165 -51 204 -126v116h32v-388c0 -52 26 -67 52 -67
c8 0 16 1 24 4l7 -29c-11 -4 -23 -6 -34 -6c-45 0 -81 31 -81 96v28c-39 -76 -114 -127 -204 -127zM296 20c119 0 203 100 203 221s-84 218 -203 218s-205 -97 -205 -218s86 -221 205 -221z" />
    <glyph glyph-name="jdotless.alt" horiz-adv-x="230" 
d="M12 -206h-11v30h11c58 0 87 30 87 88v567h32v-564c0 -80 -45 -121 -119 -121z" />
    <glyph glyph-name="jcircumflex.alt" horiz-adv-x="230" 
d="M98 688h34l122 -156h-33l-106 128l-106 -128h-33zM12 -206h-11v30h11c58 0 87 30 87 88v567h32v-564c0 -80 -45 -121 -119 -121z" />
    <glyph glyph-name="lacute.alt" horiz-adv-x="230" 
d="M190 897h43l-110 -156h-31zM99 0v688h32v-688h-32z" />
    <glyph glyph-name="lcaron.alt" horiz-adv-x="230" 
d="M99 0v688h32v-688h-32zM230 688l-32 -166h-27l20 166h39z" />
    <glyph glyph-name="lcommaaccent.alt" horiz-adv-x="230" 
d="M99 0v688h32v-688h-32zM136 -51l-50 -127h-27l38 127h39z" />
    <glyph glyph-name="ldot.alt" horiz-adv-x="230" 
d="M99 0v688h32v-688h-32zM205 316c0 14 12 27 27 27s27 -13 27 -27c0 -15 -12 -27 -27 -27s-27 12 -27 27z" />
    <glyph glyph-name="lslash.alt" horiz-adv-x="230" 
d="M99 0v368l-75 -32v31l75 32v289h32v-275l75 32v-31l-75 -32v-382h-32z" />
    <glyph glyph-name="yacute.alt" horiz-adv-x="467" 
d="M309 688h43l-110 -156h-31zM175 -196h-33l82 200l-211 475h33l194 -437l175 437h33z" />
    <glyph glyph-name="ycircumflex.alt" horiz-adv-x="467" 
d="M217 688h34l122 -156h-33l-106 128l-106 -128h-33zM175 -196h-33l82 200l-211 475h33l194 -437l175 437h33z" />
    <glyph glyph-name="ydieresis.alt" horiz-adv-x="467" 
d="M137 621c0 14 12 27 27 27s27 -13 27 -27c0 -15 -12 -27 -27 -27s-27 12 -27 27zM277 621c0 14 12 27 27 27s27 -13 27 -27c0 -15 -12 -27 -27 -27s-27 12 -27 27zM175 -196h-33l82 200l-211 475h33l194 -437l175 437h33z" />
    <glyph glyph-name="ygrave.alt" horiz-adv-x="467" 
d="M158 688l98 -156h-31l-110 156h43zM175 -196h-33l82 200l-211 475h33l194 -437l175 437h33z" />
    <glyph glyph-name="i.loclTRK" horiz-adv-x="230" 
d="M115 594c-15 0 -27 12 -27 27c0 14 12 27 27 27s27 -13 27 -27c0 -15 -12 -27 -27 -27zM131 0h-32v479h32v-479z" />
    <glyph glyph-name="fl.alt" horiz-adv-x="535" 
d="M404 0v640c-30 17 -73 28 -123 28c-93 0 -140 -56 -140 -152v-37h131v-30h-131v-449h-32v449h-71v30h71v40c0 122 72 179 172 179c58 0 99 -11 134 -28h21v-670h-32z" />
    <glyph glyph-name="ordfeminine" unicode="&#xaa;" horiz-adv-x="425" 
d="M198 316c-89 0 -156 74 -156 166s66 165 156 165c56 0 102 -30 128 -75v68h31v-318h-31v70c-26 -45 -72 -76 -128 -76zM200 343c74 0 126 64 126 139c0 76 -52 136 -126 136c-73 0 -127 -60 -127 -136c0 -75 54 -139 127 -139z" />
    <glyph glyph-name="ordmasculine" unicode="&#xba;" 
d="M200 316c-90 0 -158 74 -158 165s68 166 158 166s157 -75 157 -166s-67 -165 -157 -165zM200 343c74 0 126 63 126 138c0 76 -52 137 -126 137c-73 0 -127 -61 -127 -137c0 -75 54 -138 127 -138z" />
    <glyph glyph-name="Delta" unicode="&#x394;" horiz-adv-x="647" 
d="M30 0l275 641h37l275 -641h-587zM76 30h491l-245 576z" />
    <glyph glyph-name="Omega" unicode="&#x3a9;" horiz-adv-x="728" 
d="M364 621c-165 0 -287 -116 -287 -284c0 -159 106 -258 225 -313v-24h-250v30h177c-107 65 -184 167 -184 305c0 174 133 316 319 316s319 -142 319 -316c0 -138 -77 -240 -184 -305h177v-30h-250v24c119 55 225 154 225 313c0 168 -122 284 -287 284z" />
    <glyph glyph-name="mu" unicode="&#x3bc;" horiz-adv-x="599" 
d="M142 479v-275c0 -107 64 -178 161 -178c99 0 164 71 164 178v275h32v-279c0 -123 -78 -204 -196 -204c-71 0 -128 31 -161 83v-275h-32v675h32z" />
    <glyph glyph-name="questiondown" unicode="&#xbf;" horiz-adv-x="478" 
d="M260 487c17 0 32 -15 32 -32c0 -18 -15 -33 -32 -33c-18 0 -33 15 -33 33c0 17 15 32 33 32zM280 315l1 -114v-30h-12c-118 0 -183 -81 -183 -162c0 -96 80 -148 164 -148c55 0 113 26 156 84l24 -18c-47 -66 -117 -96 -184 -96c-96 0 -191 61 -191 178
c0 90 68 182 194 191l1 115h30z" />
    <glyph glyph-name="periodcentered" unicode="&#xb7;" 
d="M173 316c0 14 12 27 27 27s27 -13 27 -27c0 -15 -12 -27 -27 -27s-27 12 -27 27z" />
    <glyph glyph-name="softhyphen" unicode="&#xad;" horiz-adv-x="283" 
d="M29 252h225v-30h-225v30z" />
    <glyph glyph-name="quotesinglbase" unicode="&#x201a;" horiz-adv-x="143" 
d="M52 -124h-25l55 122c-13 5 -22 16 -22 30c0 17 14 32 32 32c20 0 34 -15 34 -32c0 -13 -5 -22 -11 -33z" />
    <glyph glyph-name="quotedblbase" unicode="&#x201e;" horiz-adv-x="267" 
d="M52 -124h-25l55 122c-13 5 -22 16 -22 30c0 17 14 32 32 32c20 0 34 -15 34 -32c0 -13 -5 -22 -11 -33zM176 -124h-25l55 122c-13 5 -22 16 -22 30c0 17 14 32 32 32c20 0 34 -15 34 -32c0 -13 -5 -22 -11 -33z" />
    <glyph glyph-name="florin" unicode="&#x192;" horiz-adv-x="393" 
d="M168 -87v426h-71v30h71v210c0 81 47 119 112 119c42 0 73 -15 93 -40l-21 -21c-16 18 -42 31 -72 31c-53 0 -80 -34 -80 -92v-207h131v-30h-131v-423c0 -80 -36 -122 -104 -122c-37 0 -56 10 -76 25l17 24c15 -12 33 -19 59 -19c47 0 72 31 72 89z" />
    <glyph glyph-name="logicalnot" unicode="&#xac;" horiz-adv-x="521" 
d="M442 169h-32v139h-330v30h362v-169z" />
    <glyph glyph-name="infinity" unicode="&#x221e;" horiz-adv-x="521" 
d="M471 322c0 -69 -42 -121 -107 -121c-58 0 -84 31 -102 68c-24 -48 -64 -68 -102 -68c-68 0 -110 52 -110 119c0 71 42 121 102 121c57 0 84 -30 102 -68c25 50 67 68 107 68c68 0 110 -51 110 -119zM82 320c0 -53 30 -89 79 -89c26 0 61 13 90 64c-21 56 -34 116 -99 116
c-40 0 -70 -36 -70 -91zM361 411c-36 0 -71 -10 -97 -62c22 -56 34 -118 100 -118c39 0 75 40 75 89c0 52 -36 91 -78 91z" />
    <glyph glyph-name="integral" unicode="&#x222b;" horiz-adv-x="393" 
d="M168 -87v666c0 81 47 119 112 119c42 0 73 -15 93 -40l-21 -21c-16 18 -42 31 -72 31c-53 0 -80 -34 -80 -92v-660c0 -80 -36 -122 -104 -122c-37 0 -56 10 -76 25l17 24c15 -12 33 -19 59 -19c47 0 72 31 72 89z" />
    <glyph glyph-name="product" unicode="&#x220f;" horiz-adv-x="570" 
d="M418 611h-266v-807h-32v807h-80v30h490v-30h-80v-807h-32v807z" />
    <glyph glyph-name="summation" unicode="&#x2211;" horiz-adv-x="481" 
d="M309 272v-30l-251 -408h403v-30h-441v30l258 423l-258 401v30h441v-30h-400z" />
    <glyph glyph-name="radical" unicode="&#x221a;" horiz-adv-x="535" 
d="M315 0h-45l-150 449h-100v30h127l146 -445l188 654h34z" />
    <glyph glyph-name="partialdiff" unicode="&#x2202;" horiz-adv-x="612" 
d="M306 489c81 0 151 -50 188 -111c-47 141 -162 248 -268 299l21 21c154 -74 295 -237 295 -437c0 -171 -100 -271 -236 -271s-236 113 -236 250c0 138 100 249 236 249zM307 20c119 0 203 100 203 221s-84 218 -203 218s-205 -97 -205 -218s86 -221 205 -221z" />
    <glyph glyph-name="perthousand" unicode="&#x2030;" horiz-adv-x="1125" 
d="M187 339c-91 0 -157 69 -157 156s66 156 157 156s157 -69 157 -156s-66 -156 -157 -156zM174 0h-35l451 641h37zM187 367c64 0 127 47 127 128s-63 128 -127 128s-127 -47 -127 -128s63 -128 127 -128zM578 -10c-91 0 -157 69 -157 156s66 156 157 156s157 -69 157 -156
s-66 -156 -157 -156zM938 -10c-91 0 -157 69 -157 156s66 156 157 156s157 -69 157 -156s-66 -156 -157 -156zM578 18c64 0 127 47 127 128s-63 128 -127 128s-127 -47 -127 -128s63 -128 127 -128zM938 18c64 0 127 47 127 128s-63 128 -127 128s-127 -47 -127 -128
s63 -128 127 -128z" />
    <glyph glyph-name="lozenge" unicode="&#x25ca;" horiz-adv-x="487" 
d="M437 320l-175 -320h-37l-175 320l175 321h37zM402 320l-158 292l-159 -292l159 -291z" />
    <glyph glyph-name="dieresis" unicode="&#xa8;" 
d="M103 621c0 14 12 27 27 27s27 -13 27 -27c0 -15 -12 -27 -27 -27s-27 12 -27 27zM243 621c0 14 12 27 27 27s27 -13 27 -27c0 -15 -12 -27 -27 -27s-27 12 -27 27z" />
    <glyph glyph-name="dotaccent" unicode="&#x2d9;" 
d="M173 621c0 14 12 27 27 27s27 -13 27 -27c0 -15 -12 -27 -27 -27s-27 12 -27 27z" />
    <glyph glyph-name="acute" unicode="&#xb4;" 
d="M313 688h43l-110 -156h-31z" />
    <glyph glyph-name="hungarumlaut" unicode="&#x2dd;" 
d="M232 688h43l-110 -156h-31zM353 688h43l-110 -156h-31z" />
    <glyph glyph-name="circumflex" unicode="&#x2c6;" 
d="M183 688h34l122 -156h-33l-106 128l-106 -128h-33z" />
    <glyph glyph-name="caron" unicode="&#x2c7;" 
d="M217 532h-34l-122 156h33l106 -128l106 128h33z" />
    <glyph glyph-name="breve" unicode="&#x2d8;" 
d="M200 522c-75 0 -130 53 -130 146h32c0 -78 44 -116 98 -116s99 38 99 116h32c0 -93 -55 -146 -131 -146z" />
    <glyph glyph-name="ring" unicode="&#x2da;" 
d="M200 522c-58 0 -103 45 -103 100s45 100 103 100c59 0 103 -45 103 -100s-44 -100 -103 -100zM201 549c40 0 74 30 74 73s-34 74 -74 74s-76 -31 -76 -74s36 -73 76 -73z" />
    <glyph glyph-name="tilde" unicode="&#x2dc;" 
d="M266 562c-59 0 -85 68 -135 68c-28 0 -48 -24 -64 -58l-18 13c21 51 51 75 86 75c59 0 83 -68 133 -68c30 0 50 24 64 58l18 -13c-19 -51 -49 -75 -84 -75z" />
    <glyph glyph-name="macron" unicode="&#xaf;" 
d="M72 637h255v-30h-255v30z" />
    <glyph glyph-name="cedilla" unicode="&#xb8;" 
d="M197 0h28l-69 -169l-32 14z" />
    <glyph glyph-name="ogonek" unicode="&#x2db;" 
d="M246 18l20 -18c-67 -44 -101 -82 -101 -123c0 -24 20 -40 49 -40c26 0 53 9 77 30l16 -20c-20 -21 -52 -40 -95 -40c-47 0 -79 26 -79 68c0 48 36 97 113 143z" />
    <glyph glyph-name="commaaccent.alt" 
d="M181 538l50 127h31l-38 -127h-43z" />
    <glyph glyph-name="dieresiscomb" unicode="&#x308;" 
d="M103 621c0 14 12 27 27 27s27 -13 27 -27c0 -15 -12 -27 -27 -27s-27 12 -27 27zM243 621c0 14 12 27 27 27s27 -13 27 -27c0 -15 -12 -27 -27 -27s-27 12 -27 27z" />
    <glyph glyph-name="dotaccentcomb" unicode="&#x307;" 
d="M173 621c0 14 12 27 27 27s27 -13 27 -27c0 -15 -12 -27 -27 -27s-27 12 -27 27z" />
    <glyph glyph-name="gravecomb" unicode="&#x300;" horiz-adv-x="378" 
d="M76 688l98 -156h-31l-110 156h43z" />
    <glyph glyph-name="acutecomb" unicode="&#x301;" 
d="M313 688h43l-110 -156h-31z" />
    <glyph glyph-name="hungarumlautcomb" unicode="&#x30b;" 
d="M232 688h43l-110 -156h-31zM353 688h43l-110 -156h-31z" />
    <glyph glyph-name="caroncomb.alt" 
d="M225 688l-32 -166h-27l20 166h39z" />
    <glyph glyph-name="circumflexcomb" unicode="&#x302;" 
d="M183 688h34l122 -156h-33l-106 128l-106 -128h-33z" />
    <glyph glyph-name="caroncomb" unicode="&#x30c;" 
d="M217 532h-34l-122 156h33l106 -128l106 128h33z" />
    <glyph glyph-name="brevecomb" unicode="&#x306;" 
d="M200 522c-75 0 -130 53 -130 146h32c0 -78 44 -116 98 -116s99 38 99 116h32c0 -93 -55 -146 -131 -146z" />
    <glyph glyph-name="ringcomb" unicode="&#x30a;" 
d="M200 522c-58 0 -103 45 -103 100s45 100 103 100c59 0 103 -45 103 -100s-44 -100 -103 -100zM201 549c40 0 74 30 74 73s-34 74 -74 74s-76 -31 -76 -74s36 -73 76 -73z" />
    <glyph glyph-name="tildecomb" unicode="&#x303;" 
d="M266 562c-59 0 -85 68 -135 68c-28 0 -48 -24 -64 -58l-18 13c21 51 51 75 86 75c59 0 83 -68 133 -68c30 0 50 24 64 58l18 -13c-19 -51 -49 -75 -84 -75z" />
    <glyph glyph-name="macroncomb" unicode="&#x304;" 
d="M72 637h255v-30h-255v30z" />
    <glyph glyph-name="commaaccentcomb" unicode="&#x326;" 
d="M220 -51l-50 -127h-27l38 127h39z" />
    <glyph glyph-name="cedillacomb" unicode="&#x327;" 
d="M197 0h28l-69 -169l-32 14z" />
    <glyph glyph-name="ogonekcomb" unicode="&#x328;" 
d="M246 18l20 -18c-67 -44 -101 -82 -101 -123c0 -24 20 -40 49 -40c26 0 53 9 77 30l16 -20c-20 -21 -52 -40 -95 -40c-47 0 -79 26 -79 68c0 48 36 97 113 143z" />
    <glyph glyph-name="strokeshortcomb" unicode="&#x335;" horiz-adv-x="357" 
d="M59 277h217v-30h-217v30z" />
    <glyph glyph-name="commaaccent" 
d="M220 -51l-50 -127h-27l38 127h39z" />
    </font>
</defs>
</svg>
