<?xml version="1.0" standalone="no"?>
<!DOCTYPE svg PUBLIC "-//W3C//DTD SVG 1.1//EN" "http://www.w3.org/Graphics/SVG/1.1/DTD/svg11.dtd" >
<svg xmlns="http://www.w3.org/2000/svg" xmlns:xlink="http://www.w3.org/1999/xlink" version="1.1">
<metadata>
Created by FontForge 20201107 at Mon Apr 18 18:16:46 2022
 By Rahul Gajjar
Copyright 2021-2022 Indian Type Foundry. All rights reserved.
</metadata>
<defs>
<font id="ElevanceSans-SemiboldItalic" horiz-adv-x="578" >
  <font-face 
    font-family="Elevance Sans"
    font-weight="600"
    font-style="italic"
    font-stretch="normal"
    units-per-em="1000"
    panose-1="0 0 0 0 0 0 0 0 0 0"
    ascent="800"
    descent="-200"
    x-height="479"
    cap-height="641"
    bbox="-294 -214 1437 916"
    underline-thickness="50"
    underline-position="-125"
    slope="-10"
    unicode-range="U+0020-FB02"
  />
<missing-glyph horiz-adv-x="490" 
d="M490 0h-444v641h444v-641zM160 533v-425h216v425h-216z" />
    <glyph glyph-name="fi" unicode="fi" horiz-adv-x="605" 
d="M61 371l18 108h78l1 5c23 134 109 217 270 217c92 0 151 -26 190 -64l-76 -93c-30 32 -77 48 -126 48c-75 0 -125 -39 -136 -111v-2h305l-80 -479h-123l62 371h-183l-62 -371h-123l63 371h-78z" />
    <glyph glyph-name="fl" unicode="fl" horiz-adv-x="606" 
d="M61 371l18 108h78l2 10c22 134 107 212 240 212c43 0 79 -6 108 -18h112l-114 -683h-122l95 569c-21 16 -49 25 -86 25c-58 0 -99 -34 -112 -104l-2 -11h105l-18 -108h-105l-61 -371h-123l63 371h-78z" />
    <glyph glyph-name=".notdef" horiz-adv-x="490" 
d="M490 0h-444v641h444v-641zM160 533v-425h216v425h-216z" />
    <glyph glyph-name="space" unicode=" " horiz-adv-x="215" 
 />
    <glyph glyph-name="exclam" unicode="!" horiz-adv-x="295" 
d="M104 230l52 411h130l-85 -411h-97zM113 -12c-39 0 -69 24 -69 66c0 52 43 93 93 93c39 0 68 -29 68 -67c0 -57 -43 -92 -92 -92z" />
    <glyph glyph-name="quotedbl" unicode="&#x22;" horiz-adv-x="365" 
d="M238 688l-51 -219h-89l27 219h113zM397 688l-51 -219h-89l27 219h113z" />
    <glyph glyph-name="numbersign" unicode="#" horiz-adv-x="613" 
d="M89 0l42 170h-98l23 89h97l32 129h-108l22 89h108l40 163h102l-40 -163h125l40 163h103l-40 -163h92l-22 -89h-92l-32 -129h102l-22 -89h-102l-42 -170h-103l42 170h-125l-42 -170h-102zM255 259h125l32 129h-125z" />
    <glyph glyph-name="dollar" unicode="$" horiz-adv-x="562" 
d="M576 543l-97 -83c-22 42 -75 74 -141 74s-100 -28 -100 -66c0 -106 286 -73 286 -268c0 -117 -91 -191 -221 -205l-15 -85h-104l15 87c-85 12 -140 51 -176 107l92 94c32 -54 92 -90 160 -90c79 0 116 34 116 73c0 115 -285 77 -285 269c0 110 88 183 216 196l14 85h103
l-15 -89c73 -14 127 -52 152 -99z" />
    <glyph glyph-name="percent" unicode="%" horiz-adv-x="782" 
d="M248 329c-89 0 -144 61 -144 140c0 107 78 186 190 186c88 0 145 -60 145 -139c0 -117 -85 -187 -191 -187zM226 0h-97l538 641h95zM261 403c54 0 95 39 95 102c0 46 -33 74 -73 74c-56 0 -96 -37 -96 -100c0 -46 31 -76 74 -76zM602 -11c-90 0 -145 61 -145 140
c0 107 78 186 190 186c88 0 146 -60 146 -139c0 -117 -85 -187 -191 -187zM614 63c54 0 95 39 95 102c0 46 -33 74 -73 74c-55 0 -95 -37 -95 -100c0 -46 30 -76 73 -76z" />
    <glyph glyph-name="ampersand" unicode="&#x26;" horiz-adv-x="649" 
d="M248 -13c-121 0 -204 69 -204 169c0 93 68 150 158 186c-25 36 -37 76 -37 113c0 114 96 199 215 199c92 0 165 -55 165 -141c0 -92 -74 -158 -167 -195l89 -103c11 16 20 34 28 53l19 43l102 -28l-13 -35c-17 -43 -39 -82 -64 -115l63 -73l-90 -78l-59 68
c-59 -41 -128 -63 -205 -63zM314 391l3 -3c65 25 109 57 109 101c0 29 -20 55 -56 55c-49 0 -84 -35 -84 -82c0 -21 7 -46 28 -71zM169 165c0 -44 33 -72 94 -72c44 0 85 13 121 36l-121 140c-56 -26 -94 -58 -94 -104z" />
    <glyph glyph-name="quotesingle" unicode="'" horiz-adv-x="206" 
d="M232 688l-51 -219h-89l27 219h113z" />
    <glyph glyph-name="parenleft" unicode="(" horiz-adv-x="342" 
d="M298 -88l-89 -69c-86 95 -136 215 -136 346c0 211 93 392 281 517l66 -70c-152 -114 -225 -264 -225 -451c0 -107 38 -199 103 -273z" />
    <glyph glyph-name="parenright" unicode=")" horiz-adv-x="342" 
d="M11 -157l-65 69c158 125 224 271 224 449c0 108 -34 198 -103 276l89 69c86 -89 137 -209 137 -341c0 -218 -95 -401 -282 -522z" />
    <glyph glyph-name="asterisk" unicode="*" horiz-adv-x="423" 
d="M286 374l-40 91l-72 -91l-66 55l82 81l-99 24l45 89l90 -41l10 106h93l-26 -106l105 41l14 -89l-106 -24l55 -81z" />
    <glyph glyph-name="plus" unicode="+" horiz-adv-x="521" 
d="M62 266l19 110h157l29 172h115l-28 -172h158l-18 -110h-159l-28 -171h-116l29 171h-158z" />
    <glyph glyph-name="comma" unicode="," horiz-adv-x="229" 
d="M110 146c44 0 72 -33 65 -76c-4 -20 -14 -44 -35 -71l-93 -120h-68l80 122c-28 12 -45 35 -39 68c7 44 47 77 90 77z" />
    <glyph glyph-name="hyphen" unicode="-" horiz-adv-x="326" 
d="M65 298h246l-18 -104h-246z" />
    <glyph glyph-name="period" unicode="." horiz-adv-x="229" 
d="M94 -12c-39 0 -69 24 -69 66c0 52 43 93 93 93c40 0 68 -29 68 -67c0 -57 -43 -92 -92 -92z" />
    <glyph glyph-name="slash" unicode="/" horiz-adv-x="429" 
d="M-17 0l379 641h125l-379 -641h-125z" />
    <glyph glyph-name="zero" unicode="0" horiz-adv-x="597" 
d="M284 -13c-135 0 -218 98 -218 265c0 234 116 402 299 402c135 0 218 -98 218 -261c0 -247 -120 -406 -299 -406zM303 101c91 0 156 114 156 279c0 97 -40 160 -112 160c-92 0 -159 -114 -159 -276c0 -103 39 -163 115 -163z" />
    <glyph glyph-name="one" unicode="1" horiz-adv-x="441" 
d="M293 0h-122l83 495l-118 -98l-60 81l199 163h125z" />
    <glyph glyph-name="two" unicode="2" horiz-adv-x="509" 
d="M12 0l16 93l278 231c62 53 90 94 90 142c0 45 -31 74 -86 74c-54 0 -100 -33 -139 -94l-85 64c54 90 135 144 250 144c126 0 187 -71 187 -156c0 -99 -53 -170 -141 -241l-184 -149h268l-18 -108h-436z" />
    <glyph glyph-name="three" unicode="3" horiz-adv-x="512" 
d="M210 -13c-100 0 -172 40 -206 107l102 78c29 -52 71 -71 128 -71c80 0 126 52 126 111c0 60 -40 92 -117 92h-69l12 69l183 160h-253l18 108h403l-16 -94l-186 -165c104 -11 148 -76 148 -154c0 -135 -96 -241 -273 -241z" />
    <glyph glyph-name="four" unicode="4" horiz-adv-x="560" 
d="M40 230l379 411h110l-69 -411h92l-18 -107h-91l-21 -123h-121l21 123h-301zM166 230h173l39 231z" />
    <glyph glyph-name="five" unicode="5" horiz-adv-x="539" 
d="M246 99c87 0 133 55 133 126c0 50 -33 87 -103 87c-53 0 -90 -12 -126 -34l-49 39l105 324h330l-18 -108h-229l-43 -130c20 9 48 13 73 13c119 0 185 -66 185 -170c0 -158 -97 -260 -275 -260c-100 0 -169 40 -203 106l101 79c28 -51 68 -72 119 -72z" />
    <glyph glyph-name="six" unicode="6" horiz-adv-x="562" 
d="M256 -13c-129 0 -206 80 -206 192c0 79 28 138 147 278l160 184h139l-181 -212h10c129 0 205 -81 205 -182c0 -159 -116 -260 -274 -260zM307 329c-70 0 -133 -56 -133 -131c0 -57 40 -97 101 -97c69 0 131 53 131 132c0 56 -37 96 -99 96z" />
    <glyph glyph-name="seven" unicode="7" horiz-adv-x="460" 
d="M169 0h-131l321 533h-277l18 108h415l-16 -97z" />
    <glyph glyph-name="eight" unicode="8" horiz-adv-x="536" 
d="M257 -13c-130 0 -213 65 -213 175c0 89 54 158 136 191c-38 28 -59 69 -59 117c0 104 93 184 222 184c113 0 188 -57 188 -151c0 -74 -40 -130 -102 -161c49 -31 78 -80 78 -141c0 -136 -111 -214 -250 -214zM315 394c52 0 94 34 94 87c0 41 -31 70 -78 70
c-52 0 -93 -34 -93 -84c0 -41 32 -73 77 -73zM268 90c67 0 116 46 116 114c0 53 -39 91 -95 91c-72 0 -120 -54 -120 -113c0 -55 36 -92 99 -92z" />
    <glyph glyph-name="nine" unicode="9" horiz-adv-x="562" 
d="M357 644c126 0 207 -75 207 -194c0 -84 -50 -162 -147 -276l-160 -185h-140l187 221c-13 -2 -24 -3 -33 -3c-113 0 -187 73 -187 180c0 162 123 257 273 257zM307 304c73 0 132 55 132 131c0 56 -38 97 -100 97c-69 0 -131 -52 -131 -132c0 -56 37 -96 99 -96z" />
    <glyph glyph-name="colon" unicode=":" horiz-adv-x="229" 
d="M143 322c-39 0 -68 24 -68 66c0 52 43 93 92 93c40 0 68 -30 68 -67c0 -57 -43 -92 -92 -92zM87 -12c-39 0 -68 24 -68 66c0 52 43 93 92 93c40 0 68 -29 68 -67c0 -57 -43 -92 -92 -92z" />
    <glyph glyph-name="semicolon" unicode=";" horiz-adv-x="229" 
d="M141 322c-38 0 -68 24 -68 66c0 52 43 93 93 93c39 0 67 -30 67 -67c0 -57 -42 -92 -92 -92zM110 146c44 0 71 -33 64 -76c-3 -20 -14 -44 -35 -71l-93 -120h-67l80 122c-28 12 -46 35 -40 68c7 44 48 77 91 77z" />
    <glyph glyph-name="less" unicode="&#x3c;" horiz-adv-x="521" 
d="M478 201l-20 -120l-399 191l18 106l463 190l-20 -121l-319 -123z" />
    <glyph glyph-name="equal" unicode="=" horiz-adv-x="521" 
d="M80 364l18 111h431l-18 -111h-431zM47 168l18 111h431l-18 -111h-431z" />
    <glyph glyph-name="greater" unicode="&#x3e;" horiz-adv-x="521" 
d="M52 202l319 123l-277 124l20 119l399 -190l-17 -106l-464 -191z" />
    <glyph glyph-name="question" unicode="?" horiz-adv-x="484" 
d="M299 266l-76 -45l-42 88l80 50c61 37 84 75 84 114c0 40 -29 67 -74 67c-50 0 -90 -27 -129 -73l-68 73c51 72 121 114 221 114c118 0 175 -72 175 -156c0 -90 -42 -155 -171 -232zM185 -12c-39 0 -68 24 -68 66c0 52 43 93 92 93c40 0 68 -29 68 -67
c0 -57 -43 -92 -92 -92z" />
    <glyph glyph-name="at" unicode="@" horiz-adv-x="854" 
d="M386 85c-79 0 -134 55 -134 144c0 137 91 235 206 235c47 0 81 -20 97 -57l10 46h93l-47 -209c-12 -52 5 -74 35 -74c61 0 105 74 105 172c0 133 -91 242 -260 242c-195 0 -339 -149 -339 -347c0 -172 107 -263 260 -263c67 0 106 13 148 36l23 -79
c-44 -26 -104 -45 -179 -45c-205 0 -348 132 -348 343c0 250 189 441 440 441c218 0 350 -143 350 -323c0 -145 -84 -261 -222 -261c-53 0 -93 22 -107 67c-31 -45 -76 -68 -131 -68zM422 169c50 0 87 38 101 91l4 15c1 10 2 20 2 30c0 43 -23 74 -66 74
c-64 0 -110 -56 -110 -133c0 -45 24 -77 69 -77z" />
    <glyph glyph-name="A" unicode="A" horiz-adv-x="694" 
d="M521 0l-32 144h-283l-79 -144h-136l364 641h147l151 -641h-132zM265 252h201l-58 262z" />
    <glyph glyph-name="B" unicode="B" horiz-adv-x="598" 
d="M46 0l107 640h257c120 0 185 -60 185 -149c0 -98 -67 -145 -123 -161c53 -15 94 -58 94 -122c0 -121 -84 -208 -248 -208h-272zM381 530h-121l-27 -158h121c61 0 108 41 108 92c0 42 -26 66 -81 66zM352 273h-135l-27 -162h134c67 0 113 33 113 95c0 42 -34 67 -85 67z
" />
    <glyph glyph-name="C" unicode="C" horiz-adv-x="632" 
d="M664 567l-97 -96c-33 36 -84 59 -149 59c-128 0 -228 -89 -228 -238c0 -118 75 -181 176 -181c65 0 121 21 166 62l64 -101c-61 -58 -144 -85 -240 -85c-173 0 -301 105 -301 296c0 227 164 371 371 371c105 0 190 -33 238 -87z" />
    <glyph glyph-name="D" unicode="D" horiz-adv-x="695" 
d="M46 0l107 640h206c215 0 320 -108 320 -268c0 -239 -165 -372 -405 -372h-228zM349 523h-87l-68 -405h92c149 0 259 78 259 237c0 103 -57 168 -196 168z" />
    <glyph glyph-name="E" unicode="E" horiz-adv-x="530" 
d="M46 0l107 641h416l-20 -113h-290l-25 -151h251l-19 -112h-251l-25 -155h291l-19 -110h-416z" />
    <glyph glyph-name="F" unicode="F" horiz-adv-x="519" 
d="M46 0l107 640h406l-20 -113h-280l-28 -165h242l-19 -112h-241l-42 -250h-125z" />
    <glyph glyph-name="G" unicode="G" horiz-adv-x="675" 
d="M644 317l-45 -263c-59 -41 -140 -67 -239 -67c-184 0 -305 110 -305 298c0 218 161 369 375 369c113 0 190 -30 239 -87l-98 -96c-33 36 -82 59 -147 59c-133 0 -234 -92 -234 -238c0 -109 63 -184 176 -184c46 0 84 6 119 24l20 111h-127l18 114h254l-7 -40h1z" />
    <glyph glyph-name="H" unicode="H" horiz-adv-x="709" 
d="M477 0l45 269h-306l-45 -269h-125l107 641h125l-44 -262h306l44 262h125l-107 -641h-125z" />
    <glyph glyph-name="I" unicode="I" horiz-adv-x="278" 
d="M46 0l107 641h125l-107 -641h-125z" />
    <glyph glyph-name="J" unicode="J" horiz-adv-x="466" 
d="M3 68l91 92c19 -33 49 -49 86 -49c56 0 88 27 102 104l71 426h125l-73 -437c-28 -164 -108 -217 -226 -217c-71 0 -139 27 -176 81z" />
    <glyph glyph-name="K" unicode="K" horiz-adv-x="605" 
d="M171 0h-125l107 641h125l-49 -296l280 296h160l-304 -317l204 -324h-142l-202 325z" />
    <glyph glyph-name="L" unicode="L" horiz-adv-x="530" 
d="M46 0l107 641h125l-87 -523h313l-20 -118h-438z" />
    <glyph glyph-name="M" unicode="M" horiz-adv-x="832" 
d="M409 121l-163 325l-75 -446h-125l107 641h127l158 -320l260 320h134l-107 -641h-125l74 446z" />
    <glyph glyph-name="N" unicode="N" horiz-adv-x="709" 
d="M484 0l-238 449l-75 -449h-125l107 641h131l229 -442l74 442h125l-107 -641h-121z" />
    <glyph glyph-name="O" unicode="O" horiz-adv-x="751" 
d="M419 654c173 0 310 -113 310 -304c0 -218 -161 -363 -363 -363c-173 0 -311 113 -311 304c0 212 162 363 364 363zM377 111c120 0 217 93 217 232c0 106 -66 187 -186 187s-218 -93 -218 -231c0 -107 67 -188 187 -188z" />
    <glyph glyph-name="P" unicode="P" horiz-adv-x="596" 
d="M46 0l107 641h228c146 0 225 -68 225 -174c0 -171 -115 -252 -291 -252h-108l-36 -215h-125zM373 530h-114l-33 -204h113c79 0 134 41 134 122c0 56 -39 82 -100 82z" />
    <glyph glyph-name="Q" unicode="Q" horiz-adv-x="758" 
d="M606 -72l-78 94c-49 -23 -104 -35 -162 -35c-173 0 -311 113 -311 304c0 212 162 363 364 363c173 0 310 -113 310 -304c0 -105 -38 -194 -99 -257l70 -84zM594 343c0 106 -66 187 -186 187c-121 0 -218 -93 -218 -231c0 -107 66 -188 187 -188c24 0 47 4 68 11l-73 87
l94 80l80 -96c30 39 48 90 48 150z" />
    <glyph glyph-name="R" unicode="R" horiz-adv-x="613" 
d="M46 0l107 641h228c141 0 221 -65 221 -168c0 -116 -65 -193 -170 -224l123 -249h-134l-111 235h-99l-40 -235h-125zM375 530h-116l-31 -190h116c78 0 125 44 125 111c0 48 -32 79 -94 79z" />
    <glyph glyph-name="S" unicode="S" horiz-adv-x="556" 
d="M120 -1c-30 8 -68 27 -111 59l66 104c49 -34 120 -58 183 -58c74 0 131 32 131 87c0 94 -293 59 -293 242c0 133 113 222 267 222c81 0 160 -22 212 -67l-74 -98c-37 27 -92 48 -149 48c-65 0 -119 -33 -119 -82c0 -95 293 -61 293 -240c0 -142 -125 -229 -281 -229
c-53 0 -95 4 -125 12z" />
    <glyph glyph-name="T" unicode="T" horiz-adv-x="532" 
d="M575 524h-190l-87 -524h-125l87 524h-190l20 117h506z" />
    <glyph glyph-name="U" unicode="U" horiz-adv-x="664" 
d="M80 250l66 391h125l-65 -389c-15 -94 24 -142 118 -142c84 0 139 51 155 148l66 383h125l-66 -391c-29 -178 -125 -263 -296 -263c-168 0 -255 95 -228 263z" />
    <glyph glyph-name="V" unicode="V" horiz-adv-x="661" 
d="M214 641l98 -499l254 499h141l-344 -641h-147l-131 641h129z" />
    <glyph glyph-name="W" unicode="W" horiz-adv-x="1017" 
d="M923 641h140l-311 -641h-156l-46 482l-206 -482h-150l-97 641h138l61 -478l198 478h167l44 -479z" />
    <glyph glyph-name="X" unicode="X" horiz-adv-x="636" 
d="M258 641l107 -216l178 216h153l-277 -324l158 -317h-137l-113 227l-186 -227h-154l285 338l-151 303h137z" />
    <glyph glyph-name="Y" unicode="Y" horiz-adv-x="623" 
d="M209 0l35 213l-167 428h130l117 -305l215 305h138l-307 -428l-36 -213h-125z" />
    <glyph glyph-name="Z" unicode="Z" horiz-adv-x="575" 
d="M35 108l384 416h-307l20 117h482l-17 -106l-389 -417h325l-19 -118h-496z" />
    <glyph glyph-name="bracketleft" unicode="[" horiz-adv-x="337" 
d="M37 -130l137 818h228l-18 -108h-105l-101 -602h105l-18 -108h-228z" />
    <glyph glyph-name="backslash" unicode="\" horiz-adv-x="429" 
d="M356 0h-125l-165 641h125z" />
    <glyph glyph-name="bracketright" unicode="]" horiz-adv-x="337" 
d="M196 -130h-228l19 108h105l100 602h-105l18 108h228z" />
    <glyph glyph-name="asciicircum" unicode="^" horiz-adv-x="521" 
d="M286 641h103l104 -320h-109l-64 214l-140 -214h-109z" />
    <glyph glyph-name="underscore" unicode="_" horiz-adv-x="443" 
d="M-28 -20h443l-14 -82h-443z" />
    <glyph glyph-name="grave" unicode="`" horiz-adv-x="400" 
d="M259 688l72 -156h-110l-105 156h143z" />
    <glyph glyph-name="a" unicode="a" horiz-adv-x="613" 
d="M237 -13c-109 0 -193 75 -193 212c0 167 105 293 261 293c74 0 123 -28 148 -76l11 63h122l-80 -479h-122l10 57c-39 -43 -91 -70 -157 -70zM279 98c81 0 146 66 146 168c0 69 -42 115 -111 115c-84 0 -145 -70 -145 -165c0 -70 35 -118 110 -118z" />
    <glyph glyph-name="b" unicode="b" horiz-adv-x="610" 
d="M392 492c118 0 192 -78 192 -201c0 -182 -111 -304 -262 -304c-74 0 -122 35 -147 83l-12 -70h-122l115 688h122l-45 -272c39 47 92 76 159 76zM349 381c-84 0 -147 -67 -147 -168c0 -68 44 -115 110 -115c80 0 148 65 148 168c0 66 -37 115 -111 115z" />
    <glyph glyph-name="c" unicode="c" horiz-adv-x="495" 
d="M428 334c-27 33 -62 46 -111 46c-89 0 -150 -65 -150 -162c0 -75 46 -119 118 -119c49 0 87 17 122 47l61 -91c-50 -44 -112 -68 -196 -68c-138 0 -228 85 -228 221c0 165 112 284 286 284c87 0 144 -25 182 -66z" />
    <glyph glyph-name="d" unicode="d" horiz-adv-x="610" 
d="M234 -13c-107 0 -190 68 -190 209c0 169 106 296 263 296c73 0 121 -28 147 -76l45 272h122l-115 -688h-122l10 62c-39 -46 -93 -75 -160 -75zM275 98c83 0 150 67 150 169c0 68 -41 114 -108 114c-86 0 -148 -70 -148 -165c0 -69 34 -118 106 -118z" />
    <glyph glyph-name="e" unicode="e" horiz-adv-x="556" 
d="M274 -13c-148 0 -230 87 -230 217c0 169 118 288 281 288c126 0 210 -83 211 -197c0 -31 -8 -74 -14 -91h-355c4 -69 48 -110 122 -110c50 0 89 21 121 49l62 -88c-43 -41 -116 -68 -198 -68zM313 389c-65 0 -115 -36 -135 -100h236c-3 66 -40 100 -101 100z" />
    <glyph glyph-name="f" unicode="f" horiz-adv-x="390" 
d="M69 371l17 108h77l7 39c19 111 91 183 206 183c58 0 99 -18 124 -49l-67 -92c-16 19 -39 27 -63 27c-47 0 -73 -34 -81 -86l-4 -22h126l-17 -108h-127l-62 -371h-122l62 371h-76z" />
    <glyph glyph-name="g" unicode="g" horiz-adv-x="603" 
d="M103 -48c23 -21 66 -50 135 -50c87 0 136 40 150 126l8 46c-37 -41 -87 -67 -147 -67c-122 0 -196 78 -196 204c0 159 101 278 253 278c72 0 121 -30 147 -75l11 65h122l-74 -445c-32 -195 -153 -243 -285 -243c-86 0 -160 23 -201 67zM283 117c80 0 142 62 142 156
c0 65 -40 107 -108 107c-85 0 -140 -66 -140 -152c0 -69 39 -111 106 -111z" />
    <glyph glyph-name="h" unicode="h" 
d="M41 0l115 688h122l-47 -279c33 53 88 83 158 83c115 0 162 -77 141 -202l-49 -290h-122l45 272c12 68 -12 106 -75 106c-62 0 -110 -38 -120 -107v3l-46 -274h-122z" />
    <glyph glyph-name="i" unicode="i" horiz-adv-x="265" 
d="M193 543c-36 0 -61 24 -61 60c0 50 38 83 85 83c34 0 60 -25 60 -58c0 -52 -38 -85 -84 -85zM163 0h-122l80 479h122z" />
    <glyph glyph-name="j" unicode="j" horiz-adv-x="265" 
d="M193 543c-36 0 -61 24 -61 60c0 50 38 83 85 83c34 0 60 -25 60 -58c0 -52 -38 -85 -84 -85zM-32 -209c-52 0 -92 17 -120 42l64 90c12 -12 29 -22 55 -22c39 0 62 29 71 83l83 495h122l-82 -495c-25 -146 -94 -193 -193 -193z" />
    <glyph glyph-name="k" unicode="k" horiz-adv-x="571" 
d="M163 0h-122l115 688h122l-68 -407l216 198h157l-245 -225l186 -254h-145l-175 246z" />
    <glyph glyph-name="l" unicode="l" horiz-adv-x="288" 
d="M240 106l-5 -107c-19 -6 -42 -10 -61 -10c-69 0 -132 45 -111 167l6 30l83 502h122l-76 -461l-1 -6l-5 -30l-8 -44c-6 -36 13 -46 34 -46c7 0 15 2 22 5z" />
    <glyph glyph-name="m" unicode="m" horiz-adv-x="883" 
d="M163 0h-122l80 479h122l-12 -71c33 54 88 84 154 84c72 0 119 -33 136 -92c35 58 100 92 175 92c110 0 160 -77 139 -202l-49 -290h-123l46 272c12 68 -15 106 -73 106c-53 0 -97 -32 -112 -89l-50 -289h-122l45 272c12 68 -14 106 -72 106s-106 -38 -116 -107v4z" />
    <glyph glyph-name="n" unicode="n" 
d="M41 0l80 479h122l-12 -70c33 53 87 83 157 83c115 0 162 -77 142 -202l-50 -290h-122l45 272c12 68 -12 106 -75 106c-62 0 -109 -38 -119 -107v4l-46 -275h-122z" />
    <glyph glyph-name="o" unicode="o" 
d="M272 -13c-140 0 -227 91 -227 226c0 166 123 279 279 279c145 0 228 -96 228 -225c0 -176 -122 -280 -280 -280zM284 99c88 0 144 62 144 157c0 72 -45 124 -116 124c-86 0 -144 -67 -144 -156c0 -76 44 -125 116 -125z" />
    <glyph glyph-name="p" unicode="p" horiz-adv-x="610" 
d="M130 -196h-122l113 675h122l-11 -67c40 49 96 80 163 80c116 0 189 -82 189 -211c0 -176 -107 -294 -255 -294c-78 0 -128 35 -154 84zM313 98c82 0 147 59 147 160c0 71 -37 123 -111 123c-84 0 -146 -67 -146 -168c0 -69 44 -115 110 -115z" />
    <glyph glyph-name="q" unicode="q" horiz-adv-x="610" 
d="M237 -13c-108 0 -193 68 -193 212c0 167 105 293 261 293c74 0 123 -28 149 -77l11 68h122l-114 -679h-122l42 253c-38 -43 -90 -70 -156 -70zM279 98c80 0 146 66 146 168c0 69 -42 115 -111 115c-84 0 -145 -70 -145 -165c0 -70 35 -118 110 -118z" />
    <glyph glyph-name="r" unicode="r" horiz-adv-x="406" 
d="M41 0l80 479h122l-12 -74c30 52 74 87 132 87c36 0 64 -7 81 -23l-67 -115c-15 14 -38 20 -64 20c-44 0 -91 -32 -105 -106v1l-45 -269h-122z" />
    <glyph glyph-name="s" unicode="s" horiz-adv-x="460" 
d="M211 -13c-89 0 -160 31 -205 79l79 81c34 -42 82 -63 136 -63c48 0 76 21 76 53c0 78 -226 49 -226 206c0 81 66 149 196 149c87 0 153 -28 188 -78l-83 -74c-27 38 -66 55 -109 55c-46 0 -70 -20 -70 -47c0 -77 227 -48 227 -201c0 -91 -73 -160 -209 -160z" />
    <glyph glyph-name="t" unicode="t" horiz-adv-x="411" 
d="M50 371l17 108h79l21 124h122l-21 -124h136l-18 -108h-134l-33 -197c-9 -55 12 -73 44 -73c22 0 43 12 59 26l39 -95c-36 -28 -82 -45 -136 -45c-99 0 -151 66 -131 184l34 200h-78z" />
    <glyph glyph-name="u" unicode="u" 
d="M237 479l-44 -260c-15 -86 23 -118 85 -118c68 0 106 43 119 122l43 256h122l-45 -266c-23 -142 -97 -225 -247 -225c-146 0 -223 86 -199 230l43 261h123z" />
    <glyph glyph-name="v" unicode="v" horiz-adv-x="537" 
d="M313 0h-158l-95 479h125l67 -370l179 370h134z" />
    <glyph glyph-name="w" unicode="w" horiz-adv-x="815" 
d="M272 0h-135l-71 479h128l35 -350l152 350h125l48 -355l154 355h127l-228 -479h-141l-48 329z" />
    <glyph glyph-name="x" unicode="x" horiz-adv-x="544" 
d="M-12 0l219 246l-144 233h132l96 -155l138 155h143l-225 -245l145 -234h-133l-95 154l-139 -154h-137z" />
    <glyph glyph-name="y" unicode="y" horiz-adv-x="537" 
d="M192 -8l1 1l-139 486h130l83 -334l164 334h135l-269 -511c-68 -131 -130 -177 -221 -177c-53 0 -100 18 -127 47l64 99c20 -23 50 -32 81 -32c37 0 70 31 98 87z" />
    <glyph glyph-name="z" unicode="z" horiz-adv-x="485" 
d="M33 94l285 282h-229l17 103h387l-16 -98l-288 -278h250l-18 -103h-403z" />
    <glyph glyph-name="braceleft" unicode="{" horiz-adv-x="344" 
d="M40 230l18 107c55 0 80 22 89 75l22 135c13 80 69 141 176 141h65l-18 -108h-36c-39 0 -63 -20 -69 -59l-22 -129c-12 -71 -54 -102 -103 -108c47 -6 79 -38 67 -108l-24 -139c-6 -39 11 -59 50 -59h36l-18 -108h-65c-106 0 -142 61 -129 141l24 144c9 53 -7 75 -63 75z
" />
    <glyph glyph-name="bar" unicode="|" horiz-adv-x="285" 
d="M143 -196h-118l148 884h118z" />
    <glyph glyph-name="braceright" unicode="}" horiz-adv-x="344" 
d="M323 226c-56 0 -79 -23 -88 -75l-23 -140c-14 -80 -71 -141 -177 -141h-65l18 108h36c40 0 63 20 69 59l23 134c12 71 54 102 104 108c-48 6 -80 37 -68 108l23 134c6 39 -10 59 -49 59h-36l17 108h65c106 0 142 -61 130 -141l-24 -140c-9 -52 7 -75 63 -75z" />
    <glyph glyph-name="asciitilde" unicode="~" horiz-adv-x="521" 
d="M62 256l18 112c30 19 75 37 120 37c88 0 118 -52 197 -52c41 0 86 10 117 30l-18 -111c-33 -19 -72 -30 -115 -30c-87 0 -120 52 -199 52c-54 0 -95 -17 -120 -38z" />
    <glyph glyph-name="exclamdown" unicode="&#xa1;" horiz-adv-x="295" 
d="M177 334c-39 0 -69 24 -69 65c0 53 43 93 93 93c39 0 68 -29 68 -66c0 -57 -43 -92 -92 -92zM157 -160h-131l85 410h97z" />
    <glyph glyph-name="cent" unicode="&#xa2;" horiz-adv-x="501" 
d="M439 413c-25 31 -60 44 -109 44c-97 0 -156 -72 -156 -161c0 -70 42 -115 115 -115c48 0 88 17 124 46l46 -90c-37 -35 -94 -61 -156 -69l-14 -81h-103l14 87c-95 24 -149 103 -149 204c0 148 96 266 240 290l14 83h103l-14 -83c58 -9 101 -33 129 -68z" />
    <glyph glyph-name="sterling" unicode="&#xa3;" horiz-adv-x="573" 
d="M50 111h24c41 0 63 34 71 86l13 77h-67l14 82h67l13 80c23 142 105 219 242 219c84 0 132 -30 169 -86l-88 -78c-22 32 -46 49 -89 49c-61 0 -100 -39 -113 -112l-12 -72h185l-14 -82h-185l-14 -80c-8 -50 -33 -78 -61 -83h310l-18 -111h-465z" />
    <glyph glyph-name="currency" unicode="&#xa4;" 
d="M278 75c-44 0 -84 13 -115 34l-77 -64l-65 79l77 66c-10 24 -16 52 -16 81c0 60 19 113 49 156l-50 60l90 78l52 -61c38 20 81 31 126 31c44 0 84 -12 116 -34l76 64l66 -79l-78 -66c10 -24 15 -50 15 -79c0 -58 -19 -111 -50 -154l53 -63l-91 -78l-53 62
c-38 -21 -81 -33 -125 -33zM296 182c72 0 139 56 139 140c0 66 -42 108 -104 108c-83 0 -141 -58 -141 -142c0 -60 37 -106 106 -106z" />
    <glyph glyph-name="yen" unicode="&#xa5;" horiz-adv-x="623" 
d="M334 0h-125l27 164h-164l14 82h145l-29 76h-104l15 82h58l-91 237h136l114 -297l208 297h139l-170 -237h68l-13 -82h-114l-54 -76h155l-14 -82h-173z" />
    <glyph glyph-name="brokenbar" unicode="&#xa6;" horiz-adv-x="285" 
d="M290 688l-61 -365h-118l61 365h118zM203 169l-61 -365h-118l61 365h118z" />
    <glyph glyph-name="section" unicode="&#xa7;" horiz-adv-x="715" 
d="M649 547l-100 -85c-22 41 -75 75 -147 75c-60 0 -97 -28 -97 -64c0 -97 321 -64 321 -243c0 -55 -30 -109 -87 -147c16 -20 25 -44 25 -74c0 -128 -106 -218 -277 -218c-132 0 -203 51 -234 114l101 83c32 -54 87 -80 158 -80c78 0 115 33 115 74c0 106 -318 69 -318 249
c0 55 30 107 91 140c-19 20 -30 45 -30 78c0 120 102 205 261 205c107 0 186 -45 218 -107zM245 253c0 -61 110 -74 201 -110c28 15 43 37 43 65c0 60 -107 73 -197 107c-30 -14 -47 -33 -47 -62z" />
    <glyph glyph-name="copyright" unicode="&#xa9;" horiz-adv-x="814" 
d="M466 686c205 0 338 -146 338 -335c0 -244 -181 -396 -399 -396c-204 0 -342 128 -342 335c0 217 172 396 403 396zM461 615c-189 0 -319 -145 -319 -320c0 -168 107 -265 266 -265c175 0 318 129 318 319c0 150 -102 266 -265 266zM614 469l-68 -69c-23 25 -50 37 -93 37
c-73 0 -128 -53 -128 -130c0 -60 38 -100 100 -100c38 0 70 15 100 39l38 -73c-39 -37 -95 -59 -154 -59c-110 0 -184 67 -184 180c0 136 104 236 236 236c72 0 120 -21 153 -61z" />
    <glyph glyph-name="guillemotleft" unicode="&#xab;" horiz-adv-x="532" 
d="M44 248l195 203l69 -69l-133 -135l88 -134l-85 -62zM262 248l195 203l69 -69l-133 -135l88 -134l-85 -62z" />
    <glyph glyph-name="registered" unicode="&#xae;" horiz-adv-x="587" 
d="M361 739c150 0 243 -101 243 -233c0 -178 -131 -295 -289 -295c-143 0 -244 90 -244 232c0 172 129 296 290 296zM356 677c-126 0 -218 -90 -218 -226c0 -110 67 -177 181 -177c129 0 220 91 220 225c0 101 -66 178 -183 178zM212 348l43 260h115c53 0 91 -19 91 -65
c0 -50 -28 -76 -67 -87l46 -108h-81l-38 102h-19l-17 -102h-73zM353 553h-34l-10 -55h34c28 0 43 13 43 33c0 17 -12 22 -33 22z" />
    <glyph glyph-name="degree" unicode="&#xb0;" horiz-adv-x="376" 
d="M208 316c-92 0 -148 62 -148 141c0 112 82 197 205 197c92 0 149 -60 149 -140c0 -123 -92 -198 -206 -198zM222 394c57 0 104 41 104 108c0 48 -34 73 -74 73c-59 0 -105 -40 -105 -107c0 -47 33 -74 75 -74z" />
    <glyph glyph-name="plusminus" unicode="&#xb1;" horiz-adv-x="521" 
d="M74 336l19 110h157l26 158h116l-26 -158h159l-19 -110h-159l-26 -157h-115l26 157h-158zM18 0l18 111h432l-19 -111h-431z" />
    <glyph glyph-name="twosuperior" unicode="&#xb2;" horiz-adv-x="296" 
d="M56 321l10 65l129 90c34 25 47 45 47 67c0 18 -12 32 -38 32c-29 0 -50 -18 -68 -46l-50 39c23 40 66 81 139 81c68 0 103 -37 103 -84c0 -57 -31 -94 -90 -130l-63 -45h125l-11 -69h-233z" />
    <glyph glyph-name="threesuperior" unicode="&#xb3;" horiz-adv-x="296" 
d="M164 314c-56 0 -90 22 -105 53l62 53c12 -20 29 -32 54 -32c34 0 55 20 55 46c0 25 -19 37 -51 37h-35l6 36l77 64h-114l11 70h215l-10 -59l-88 -64c47 -6 73 -36 73 -76c0 -79 -58 -128 -150 -128z" />
    <glyph glyph-name="paragraph" unicode="&#xb6;" horiz-adv-x="580" 
d="M342 641h235l-18 -108l-122 -729h-88l122 729h-55l-122 -729h-119l73 433c-123 14 -182 99 -164 211c20 117 115 193 258 193z" />
    <glyph glyph-name="onesuperior" unicode="&#xb9;" horiz-adv-x="296" 
d="M226 321h-88l37 224l-51 -44l-38 56l102 84h91z" />
    <glyph glyph-name="guillemotright" unicode="&#xbb;" horiz-adv-x="532" 
d="M514 248l-200 -203l-66 75l131 129l-88 134l86 62zM292 248l-199 -203l-66 74l131 130l-88 134l85 62z" />
    <glyph glyph-name="onequarter" unicode="&#xbc;" horiz-adv-x="662" 
d="M239 321h-88l37 224l-51 -44l-38 56l102 84h91zM34 0l539 641h94l-536 -641h-97zM324 118l184 202h79l-33 -202h41l-12 -68h-41l-8 -50h-78l8 50h-153zM393 118h83l18 110z" />
    <glyph glyph-name="onehalf" unicode="&#xbd;" horiz-adv-x="662" 
d="M204 321h-87l37 224l-51 -44l-39 56l103 84h90zM-1 0l538 641h95l-536 -641h-97zM346 0l10 65l129 90c34 25 47 45 47 67c0 18 -12 32 -38 32c-28 0 -50 -18 -68 -46l-49 39c23 40 65 81 138 81c68 0 103 -37 103 -84c0 -57 -30 -94 -89 -130l-64 -45h125l-11 -69h-233z
" />
    <glyph glyph-name="threequarters" unicode="&#xbe;" horiz-adv-x="662" 
d="M156 314c-56 0 -90 22 -105 53l62 53c12 -20 29 -32 54 -32c34 0 55 20 55 46c0 25 -19 37 -51 37h-35l6 36l77 64h-114l11 70h215l-10 -59l-88 -64c47 -6 73 -36 73 -76c0 -79 -58 -128 -150 -128zM36 0l539 641h94l-536 -641h-97zM326 118l184 202h79l-33 -202h41
l-12 -68h-41l-8 -50h-78l8 50h-153zM395 118h83l18 110z" />
    <glyph glyph-name="multiply" unicode="&#xd7;" horiz-adv-x="521" 
d="M134 118l-68 81l142 122l-100 119l94 82l100 -120l142 122l68 -83l-142 -121l98 -118l-94 -81l-98 118z" />
    <glyph glyph-name="divide" unicode="&#xf7;" horiz-adv-x="521" 
d="M306 436c-40 0 -67 29 -67 67c0 48 39 92 93 92c40 0 67 -29 67 -67c0 -56 -44 -92 -93 -92zM494 266h-431l18 110h431zM240 46c-39 0 -66 28 -66 66c0 48 38 93 92 93c40 0 68 -30 68 -67c0 -56 -44 -92 -94 -92z" />
    <glyph glyph-name="pi" unicode="&#x3c0;" horiz-adv-x="620" 
d="M57 371l17 108h554l-18 -108h-79l-34 -206c-7 -42 4 -61 37 -61h31l-17 -104h-52c-106 0 -143 46 -124 161l35 210h-151l-62 -370h-124l62 370h-75z" />
    <glyph glyph-name="endash" unicode="&#x2013;" horiz-adv-x="500" 
d="M63 298h420l-18 -104h-420z" />
    <glyph glyph-name="emdash" unicode="&#x2014;" horiz-adv-x="1000" 
d="M55 298h920l-17 -104h-920z" />
    <glyph glyph-name="quoteleft" unicode="&#x2018;" horiz-adv-x="219" 
d="M168 469c-36 0 -57 24 -57 55c0 24 13 44 28 64l78 100h56l-66 -99c21 -8 34 -26 34 -48c0 -42 -33 -72 -73 -72z" />
    <glyph glyph-name="quoteright" unicode="&#x2019;" horiz-adv-x="218" 
d="M184 690c35 0 57 -24 57 -55c0 -23 -13 -44 -29 -64l-77 -100h-56l66 99c-21 8 -35 27 -35 48c0 43 33 72 74 72z" />
    <glyph glyph-name="quotedblleft" unicode="&#x201c;" horiz-adv-x="383" 
d="M168 469c-36 0 -57 24 -57 55c0 24 13 44 28 64l78 100h56l-66 -99c21 -8 34 -26 34 -48c0 -42 -33 -72 -73 -72zM333 469c-35 0 -57 24 -57 55c0 24 13 44 29 64l77 100h56l-66 -99c21 -8 35 -26 35 -48c0 -42 -33 -72 -74 -72z" />
    <glyph glyph-name="quotedblright" unicode="&#x201d;" horiz-adv-x="383" 
d="M350 690c35 0 56 -24 56 -55c0 -23 -13 -44 -28 -64l-78 -100h-56l66 99c-21 8 -34 27 -34 48c0 43 33 72 74 72zM184 690c35 0 57 -24 57 -55c0 -23 -13 -44 -29 -64l-77 -100h-56l66 99c-21 8 -35 27 -35 48c0 43 33 72 74 72z" />
    <glyph glyph-name="dagger" unicode="&#x2020;" horiz-adv-x="494" 
d="M126 -196l96 575h-153l18 108h153l34 201h121l-34 -201h155l-19 -108h-154l-96 -575h-121z" />
    <glyph glyph-name="daggerdbl" unicode="&#x2021;" horiz-adv-x="494" 
d="M6 5l18 108h154l44 266h-153l18 108h153l34 201h121l-34 -201h155l-19 -108h-154l-44 -266h153l-17 -108h-154l-34 -201h-121l34 201h-154z" />
    <glyph glyph-name="bullet" unicode="&#x2022;" horiz-adv-x="417" 
d="M201 107c-72 0 -122 52 -122 121c0 84 69 165 167 165c72 0 122 -52 122 -120c0 -98 -68 -166 -167 -166z" />
    <glyph glyph-name="ellipsis" unicode="&#x2026;" horiz-adv-x="741" 
d="M607 -12c-39 0 -69 24 -69 66c0 52 43 93 92 93c40 0 68 -29 68 -67c0 -57 -43 -92 -91 -92zM95 -12c-39 0 -69 24 -69 66c0 52 43 93 92 93c40 0 68 -29 68 -67c0 -57 -43 -92 -91 -92zM351 -12c-38 0 -68 24 -68 66c0 52 43 93 92 93c40 0 68 -29 68 -67
c0 -57 -43 -92 -92 -92z" />
    <glyph glyph-name="guilsinglleft" unicode="&#x2039;" horiz-adv-x="324" 
d="M48 248l190 197l69 -69l-133 -135l84 -128l-86 -62z" />
    <glyph glyph-name="guilsinglright" unicode="&#x203a;" horiz-adv-x="324" 
d="M294 248l-190 -197l-68 68l133 135l-84 129l85 62z" />
    <glyph glyph-name="fraction" unicode="&#x2044;" horiz-adv-x="70" 
d="M-294 0l539 641h94l-536 -641h-97z" />
    <glyph glyph-name="Euro" unicode="&#x20ac;" horiz-adv-x="657" 
d="M378 -13c-152 0 -256 77 -283 216h-85l25 82h54c1 23 3 45 7 66h-58l25 81h56c58 139 194 222 349 222c114 0 186 -32 232 -87l-97 -96c-33 36 -84 59 -152 59c-78 0 -147 -36 -187 -98h212l-25 -81h-220c-4 -18 -6 -37 -6 -57v-9h213l-25 -82h-170
c27 -60 84 -92 161 -92c52 0 103 21 148 61l68 -100c-62 -58 -142 -85 -242 -85z" />
    <glyph glyph-name="trademark" unicode="&#x2122;" horiz-adv-x="871" 
d="M152 291l45 272h-99l13 78h294l-13 -78h-107l-45 -272h-88zM621 363l-101 161l-35 -233h-87l58 350h88l96 -158l148 158h88l-58 -350h-86l40 229z" />
    <glyph glyph-name="minus" unicode="&#x2212;" horiz-adv-x="521" 
d="M58 266l18 110h432l-18 -110h-432z" />
    <glyph glyph-name="approxequal" unicode="&#x2248;" horiz-adv-x="521" 
d="M82 354l19 112c29 20 73 37 119 37c91 0 117 -53 196 -53c41 0 88 11 118 32l-19 -113c-32 -18 -71 -30 -115 -30c-89 0 -119 52 -198 52c-54 0 -95 -17 -120 -37zM48 155l19 113c31 20 74 37 119 37c91 0 118 -53 198 -53c41 0 86 11 117 31l-18 -112
c-33 -18 -72 -30 -116 -30c-88 0 -120 52 -199 52c-53 0 -94 -17 -120 -38z" />
    <glyph glyph-name="notequal" unicode="&#x2260;" horiz-adv-x="521" 
d="M76 82l60 86h-92l19 111h150l60 85h-196l18 111h255l60 86h89l-60 -86h87l-18 -111h-147l-59 -85h192l-19 -111h-251l-60 -86h-88z" />
    <glyph glyph-name="lessequal" unicode="&#x2264;" horiz-adv-x="521" 
d="M491 269l-21 -120l-401 177l18 106l460 176l-20 -121l-314 -109zM15 0l18 111h431l-18 -111h-431z" />
    <glyph glyph-name="greaterequal" unicode="&#x2265;" horiz-adv-x="521" 
d="M61 269l314 110l-278 110l20 119l402 -176l-17 -106l-461 -177zM447 0h-431l18 111h431z" />
    <glyph glyph-name="ITF" unicode="&#xf8ff;" horiz-adv-x="1437" 
d="M46 0v641h198v-641h-198zM285 454v187h198v-187h-198zM523 0v641h198v-641h-198zM763 454v187h197v-187h-197zM1001 0v641h197v-641h-197zM1240 454v187h197v-187h-197zM1240 227v186h197v-186h-197z" />
    <glyph glyph-name="G.alt" horiz-adv-x="730" 
d="M339 -13c-163 0 -284 116 -284 277c0 216 179 390 396 390c108 0 185 -36 230 -87l-89 -91c-32 34 -82 58 -145 58c-138 0 -257 -125 -257 -259c0 -103 68 -167 165 -167c119 0 190 67 214 141l2 10h-179l20 115h305l-25 -156c-45 -117 -149 -231 -353 -231z" />
    <glyph glyph-name="a.alt" horiz-adv-x="623" 
d="M44 199c0 167 105 293 261 293c74 0 122 -28 148 -76l11 63h122l-46 -274h-1l-8 -53c-6 -37 11 -51 33 -51c7 0 15 2 22 5l-5 -107c-18 -6 -43 -10 -61 -10c-48 0 -93 22 -109 77c-39 -51 -97 -79 -174 -79c-108 0 -193 75 -193 212zM425 266c0 69 -42 115 -111 115
c-84 0 -145 -70 -145 -165c0 -70 35 -118 110 -118c66 0 122 45 140 117l2 12h1c2 12 3 25 3 39z" />
    <glyph glyph-name="j.alt" horiz-adv-x="259" 
d="M190 543c-39 0 -66 32 -59 72c6 39 44 71 83 71c40 0 66 -32 60 -71c-7 -40 -44 -72 -84 -72zM-64 -209h-32l20 116h23c58 0 81 28 89 79l82 493h122l-83 -499c-19 -119 -95 -189 -221 -189z" />
    <glyph glyph-name="l.alt" horiz-adv-x="265" 
d="M41 0l115 688h122l-115 -688h-122z" />
    <glyph glyph-name="y.alt" horiz-adv-x="531" 
d="M167 -196h-131l116 207l-132 468h127l83 -326l171 326h131z" />
    <glyph glyph-name="zero.superior" unicode="&#x2070;" horiz-adv-x="296" 
d="M168 314c-69 0 -114 47 -114 131c0 119 72 204 163 204c71 0 113 -47 113 -129c0 -126 -73 -206 -162 -206zM178 388c43 0 71 53 71 124c0 38 -13 62 -43 62c-38 0 -71 -51 -70 -119c0 -44 15 -67 42 -67z" />
    <glyph glyph-name="four.superior" unicode="&#x2074;" horiz-adv-x="296" 
d="M191 321l8 50h-153l13 68l184 202h79l-33 -202h41l-12 -68h-41l-8 -50h-78zM128 439h83l18 110z" />
    <glyph glyph-name="nbspace" unicode="&#xa0;" horiz-adv-x="215" 
 />
    <glyph glyph-name="litre" unicode="&#x2113;" horiz-adv-x="486" 
d="M410 51c-32 -39 -82 -64 -146 -64c-95 0 -158 55 -164 164l-64 -29v126l64 26v227c0 126 65 200 166 200c112 0 178 -70 178 -194c0 -115 -82 -217 -220 -297v-35c0 -47 20 -74 60 -74c29 0 54 15 70 39zM224 515v-180c67 50 102 114 102 179c0 49 -20 73 -50 73
c-33 0 -52 -24 -52 -72z" />
    <glyph glyph-name="ampersand.alt" horiz-adv-x="656" 
d="M547 349l79 -70l-114 -127l78 -97l-93 -71l-69 85c-66 -54 -131 -79 -198 -79c-113 0 -187 62 -187 157c0 97 74 164 167 200c-21 34 -34 69 -34 106c0 112 90 199 212 199c74 0 142 -28 181 -61l-66 -89c-32 27 -70 42 -104 42c-56 0 -99 -35 -99 -93
c0 -25 11 -52 35 -81l109 -134zM167 159c0 -38 25 -63 77 -63c40 0 81 24 118 55l-90 113c-58 -20 -105 -56 -105 -105z" />
    <glyph glyph-name="divisionslash" unicode="&#x2215;" horiz-adv-x="70" 
d="M-294 0l539 641h94l-536 -641h-97z" />
    <glyph glyph-name="Aacute" unicode="&#xc1;" horiz-adv-x="694" 
d="M494 850h144l-155 -156h-113zM521 0l-32 144h-283l-79 -144h-136l364 641h147l151 -641h-132zM265 252h201l-58 262z" />
    <glyph glyph-name="Abreve" unicode="&#x102;" horiz-adv-x="694" 
d="M443 684c-88 0 -150 66 -135 160h85c-9 -54 16 -80 53 -80c39 0 69 26 78 80h87c-16 -94 -78 -160 -168 -160zM521 0l-32 144h-283l-79 -144h-136l364 641h147l151 -641h-132zM265 252h201l-58 262z" />
    <glyph glyph-name="Acircumflex" unicode="&#xc2;" horiz-adv-x="694" 
d="M381 694h-119l143 156h110l95 -156h-112l-46 85zM521 0l-32 144h-283l-79 -144h-136l364 641h147l151 -641h-132zM265 252h201l-58 262z" />
    <glyph glyph-name="Adieresis" unicode="&#xc4;" horiz-adv-x="694" 
d="M290 761c0 40 36 76 76 76c31 0 56 -25 56 -56c0 -39 -37 -75 -77 -75c-32 0 -55 24 -55 55zM472 761c0 40 36 76 75 76c33 0 56 -25 56 -56c0 -39 -36 -75 -76 -75c-32 0 -55 24 -55 55zM521 0l-32 144h-283l-79 -144h-136l364 641h147l151 -641h-132zM265 252h201
l-58 262z" />
    <glyph glyph-name="Agrave" unicode="&#xc0;" horiz-adv-x="694" 
d="M427 850l73 -156h-109l-106 156h142zM521 0l-32 144h-283l-79 -144h-136l364 641h147l151 -641h-132zM265 252h201l-58 262z" />
    <glyph glyph-name="Amacron" unicode="&#x100;" horiz-adv-x="694" 
d="M306 821h297l-14 -90h-297zM521 0l-32 144h-283l-79 -144h-136l364 641h147l151 -641h-132zM265 252h201l-58 262z" />
    <glyph glyph-name="Aogonek" unicode="&#x104;" horiz-adv-x="694" 
d="M521 0l-32 144h-283l-79 -144h-136l364 641h147l151 -641c-74 -32 -115 -69 -115 -105c0 -18 12 -28 31 -28c18 0 34 6 54 22l31 -59c-25 -25 -65 -43 -112 -43c-55 0 -100 29 -100 82c0 49 32 95 86 131h-7zM265 252h201l-58 262z" />
    <glyph glyph-name="Aring" unicode="&#xc5;" horiz-adv-x="694" 
d="M435 684c-62 0 -106 42 -106 98c0 74 63 134 137 134c63 0 105 -42 105 -97c0 -74 -61 -135 -136 -135zM443 749c33 0 59 28 59 60c0 24 -17 43 -42 43c-31 0 -60 -27 -60 -61c0 -25 17 -42 43 -42zM521 0l-32 144h-283l-79 -144h-136l364 641h147l151 -641h-132z
M265 252h201l-58 262z" />
    <glyph glyph-name="Atilde" unicode="&#xc3;" horiz-adv-x="694" 
d="M317 698l-53 50c38 69 80 88 117 88c58 0 83 -47 131 -47c27 0 50 24 68 50l53 -50c-38 -68 -80 -87 -116 -87c-58 0 -84 46 -131 46c-28 0 -51 -24 -69 -50zM521 0l-32 144h-283l-79 -144h-136l364 641h147l151 -641h-132zM265 252h201l-58 262z" />
    <glyph glyph-name="AE" unicode="&#xc6;" horiz-adv-x="745" 
d="M347 0l24 144h-203l-88 -144h-136l396 641h509l-19 -117h-271l-24 -142h231l-20 -117h-230l-24 -148h270l-20 -117h-395zM406 532l-170 -277h154l46 277h-30z" />
    <glyph glyph-name="Cacute" unicode="&#x106;" horiz-adv-x="632" 
d="M491 850h144l-155 -156h-113zM664 567l-97 -96c-33 36 -84 59 -149 59c-128 0 -228 -89 -228 -238c0 -118 75 -181 176 -181c65 0 121 21 166 62l64 -101c-61 -58 -144 -85 -240 -85c-173 0 -301 105 -301 296c0 227 164 371 371 371c105 0 190 -33 238 -87z" />
    <glyph glyph-name="Ccaron" unicode="&#x10c;" horiz-adv-x="632" 
d="M488 694h-111l-95 156h113l45 -85l71 85h119zM664 567l-97 -96c-33 36 -84 59 -149 59c-128 0 -228 -89 -228 -238c0 -118 75 -181 176 -181c65 0 121 21 166 62l64 -101c-61 -58 -144 -85 -240 -85c-173 0 -301 105 -301 296c0 227 164 371 371 371
c105 0 190 -33 238 -87z" />
    <glyph glyph-name="Ccedilla" unicode="&#xc7;" horiz-adv-x="632" 
d="M664 567l-97 -96c-33 36 -84 59 -149 59c-128 0 -228 -89 -228 -238c0 -118 75 -181 176 -181c65 0 121 21 166 62l64 -101c-52 -49 -119 -76 -197 -83l-66 -185l-99 40l83 145c-153 15 -262 118 -262 294c0 227 164 371 371 371c105 0 190 -33 238 -87z" />
    <glyph glyph-name="Ccircumflex" unicode="&#x108;" horiz-adv-x="632" 
d="M378 694h-119l143 156h110l95 -156h-112l-46 85zM664 567l-97 -96c-33 36 -84 59 -149 59c-128 0 -228 -89 -228 -238c0 -118 75 -181 176 -181c65 0 121 21 166 62l64 -101c-61 -58 -144 -85 -240 -85c-173 0 -301 105 -301 296c0 227 164 371 371 371
c105 0 190 -33 238 -87z" />
    <glyph glyph-name="Cdotaccent" unicode="&#x10a;" horiz-adv-x="632" 
d="M373 765c0 44 40 83 83 83c36 0 61 -27 61 -61c0 -42 -40 -82 -83 -82c-36 0 -61 27 -61 60zM664 567l-97 -96c-33 36 -84 59 -149 59c-128 0 -228 -89 -228 -238c0 -118 75 -181 176 -181c65 0 121 21 166 62l64 -101c-61 -58 -144 -85 -240 -85
c-173 0 -301 105 -301 296c0 227 164 371 371 371c105 0 190 -33 238 -87z" />
    <glyph glyph-name="Eth" unicode="&#xd0;" horiz-adv-x="695" 
d="M46 0l46 275h-58l14 92h59l46 273h206c215 0 320 -108 320 -268c0 -239 -165 -372 -405 -372h-228zM349 523h-87l-26 -156h97l-14 -92h-99l-26 -157h92c149 0 259 78 259 237c0 103 -57 168 -196 168z" />
    <glyph glyph-name="Dcaron" unicode="&#x10e;" horiz-adv-x="695" 
d="M463 694h-111l-95 156h113l45 -85l71 85h119zM46 0l107 640h206c215 0 320 -108 320 -268c0 -239 -165 -372 -405 -372h-228zM349 523h-87l-68 -405h92c149 0 259 78 259 237c0 103 -57 168 -196 168z" />
    <glyph glyph-name="Dcroat" unicode="&#x110;" horiz-adv-x="695" 
d="M46 0l46 275h-58l14 92h59l46 273h206c215 0 320 -108 320 -268c0 -239 -165 -372 -405 -372h-228zM349 523h-87l-26 -156h97l-14 -92h-99l-26 -157h92c149 0 259 78 259 237c0 103 -57 168 -196 168z" />
    <glyph glyph-name="Eacute" unicode="&#xc9;" horiz-adv-x="530" 
d="M428 850h144l-155 -156h-113zM46 0l107 641h416l-20 -113h-290l-25 -151h251l-19 -112h-251l-25 -155h291l-19 -110h-416z" />
    <glyph glyph-name="Ebreve" unicode="&#x114;" horiz-adv-x="530" 
d="M376 684c-88 0 -150 66 -135 160h85c-9 -54 16 -80 53 -80c39 0 69 26 78 80h87c-16 -94 -78 -160 -168 -160zM46 0l107 641h416l-20 -113h-290l-25 -151h251l-19 -112h-251l-25 -155h291l-19 -110h-416z" />
    <glyph glyph-name="Ecaron" unicode="&#x11a;" horiz-adv-x="530" 
d="M425 694h-111l-95 156h113l45 -85l71 85h119zM46 0l107 641h416l-20 -113h-290l-25 -151h251l-19 -112h-251l-25 -155h291l-19 -110h-416z" />
    <glyph glyph-name="Ecircumflex" unicode="&#xca;" horiz-adv-x="530" 
d="M315 694h-119l143 156h110l95 -156h-112l-46 85zM46 0l107 641h416l-20 -113h-290l-25 -151h251l-19 -112h-251l-25 -155h291l-19 -110h-416z" />
    <glyph glyph-name="Edieresis" unicode="&#xcb;" horiz-adv-x="530" 
d="M224 761c0 40 36 76 76 76c31 0 56 -25 56 -56c0 -39 -37 -75 -77 -75c-32 0 -55 24 -55 55zM406 761c0 40 36 76 75 76c33 0 56 -25 56 -56c0 -39 -36 -75 -76 -75c-32 0 -55 24 -55 55zM46 0l107 641h416l-20 -113h-290l-25 -151h251l-19 -112h-251l-25 -155h291
l-19 -110h-416z" />
    <glyph glyph-name="Edotaccent" unicode="&#x116;" horiz-adv-x="530" 
d="M310 765c0 44 40 83 83 83c36 0 61 -27 61 -61c0 -42 -40 -82 -83 -82c-36 0 -61 27 -61 60zM46 0l107 641h416l-20 -113h-290l-25 -151h251l-19 -112h-251l-25 -155h291l-19 -110h-416z" />
    <glyph glyph-name="Egrave" unicode="&#xc8;" horiz-adv-x="530" 
d="M361 850l73 -156h-109l-106 156h142zM46 0l107 641h416l-20 -113h-290l-25 -151h251l-19 -112h-251l-25 -155h291l-19 -110h-416z" />
    <glyph glyph-name="Emacron" unicode="&#x112;" horiz-adv-x="530" 
d="M240 821h297l-14 -90h-297zM46 0l107 641h416l-20 -113h-290l-25 -151h251l-19 -112h-251l-25 -155h291l-19 -110h-416z" />
    <glyph glyph-name="Eogonek" unicode="&#x118;" horiz-adv-x="530" 
d="M46 0l107 641h416l-20 -113h-290l-25 -151h251l-19 -112h-251l-25 -155h291l-19 -110c-74 -32 -115 -69 -115 -105c0 -18 12 -28 31 -28c18 0 34 6 54 22l31 -59c-25 -25 -65 -43 -112 -43c-55 0 -100 29 -100 82c0 49 32 95 86 131h-291z" />
    <glyph glyph-name="Gbreve" unicode="&#x11e;" horiz-adv-x="675" 
d="M444 684c-88 0 -150 66 -135 160h85c-9 -54 16 -80 53 -80c39 0 69 26 78 80h87c-16 -94 -78 -160 -168 -160zM644 317l-45 -263c-59 -41 -140 -67 -239 -67c-184 0 -305 110 -305 298c0 218 161 369 375 369c113 0 190 -30 239 -87l-98 -96c-33 36 -82 59 -147 59
c-133 0 -234 -92 -234 -238c0 -109 63 -184 176 -184c46 0 84 6 119 24l20 111h-127l18 114h254l-7 -40h1z" />
    <glyph glyph-name="Gcircumflex" unicode="&#x11c;" horiz-adv-x="675" 
d="M383 694h-119l143 156h110l95 -156h-112l-46 85zM644 317l-45 -263c-59 -41 -140 -67 -239 -67c-184 0 -305 110 -305 298c0 218 161 369 375 369c113 0 190 -30 239 -87l-98 -96c-33 36 -82 59 -147 59c-133 0 -234 -92 -234 -238c0 -109 63 -184 176 -184
c46 0 84 6 119 24l20 111h-127l18 114h254l-7 -40h1z" />
    <glyph glyph-name="Gcommaaccent" unicode="&#x122;" horiz-adv-x="675" 
d="M644 317l-45 -263c-59 -41 -140 -67 -239 -67c-184 0 -305 110 -305 298c0 218 161 369 375 369c113 0 190 -30 239 -87l-98 -96c-33 36 -82 59 -147 59c-133 0 -234 -92 -234 -238c0 -109 63 -184 176 -184c46 0 84 6 119 24l20 111h-127l18 114h254l-7 -40h1zM417 -51
l-75 -150h-96l51 150h120z" />
    <glyph glyph-name="Gdotaccent" unicode="&#x120;" horiz-adv-x="675" 
d="M378 765c0 44 40 83 83 83c36 0 61 -27 61 -61c0 -42 -40 -82 -83 -82c-36 0 -61 27 -61 60zM644 317l-45 -263c-59 -41 -140 -67 -239 -67c-184 0 -305 110 -305 298c0 218 161 369 375 369c113 0 190 -30 239 -87l-98 -96c-33 36 -82 59 -147 59
c-133 0 -234 -92 -234 -238c0 -109 63 -184 176 -184c46 0 84 6 119 24l20 111h-127l18 114h254l-7 -40h1z" />
    <glyph glyph-name="Hbar" unicode="&#x126;" horiz-adv-x="709" 
d="M477 0l45 269h-306l-45 -269h-125l79 472h-45l15 91h45l13 78h125l-13 -78h306l13 78h125l-13 -78h44l-15 -91h-44l-79 -472h-125zM234 379h306l16 93h-306z" />
    <glyph glyph-name="Hcircumflex" unicode="&#x124;" horiz-adv-x="709" 
d="M388 694h-119l143 156h110l95 -156h-112l-46 85zM477 0l45 269h-306l-45 -269h-125l107 641h125l-44 -262h306l44 262h125l-107 -641h-125z" />
    <glyph glyph-name="IJ" unicode="&#x132;" horiz-adv-x="744" 
d="M46 0l107 641h125l-107 -641h-125zM281 68l91 92c19 -33 49 -49 86 -49c56 0 88 27 102 104l71 426h125l-73 -437c-28 -164 -108 -217 -226 -217c-71 0 -139 27 -176 81z" />
    <glyph glyph-name="Iacute" unicode="&#xcd;" horiz-adv-x="278" 
d="M282 850h144l-155 -156h-113zM46 0l107 641h125l-107 -641h-125z" />
    <glyph glyph-name="Ibreve" unicode="&#x12c;" horiz-adv-x="278" 
d="M231 684c-88 0 -150 66 -135 160h85c-9 -54 16 -80 53 -80c39 0 69 26 78 80h87c-16 -94 -78 -160 -168 -160zM46 0l107 641h125l-107 -641h-125z" />
    <glyph glyph-name="Icircumflex" unicode="&#xce;" horiz-adv-x="278" 
d="M169 694h-119l143 156h110l95 -156h-112l-46 85zM46 0l107 641h125l-107 -641h-125z" />
    <glyph glyph-name="Idieresis" unicode="&#xcf;" horiz-adv-x="278" 
d="M79 761c0 40 36 76 76 76c31 0 56 -25 56 -56c0 -39 -37 -75 -77 -75c-32 0 -55 24 -55 55zM261 761c0 40 36 76 75 76c33 0 56 -25 56 -56c0 -39 -36 -75 -76 -75c-32 0 -55 24 -55 55zM46 0l107 641h125l-107 -641h-125z" />
    <glyph glyph-name="Idotaccent" unicode="&#x130;" horiz-adv-x="278" 
d="M164 765c0 44 40 83 83 83c36 0 61 -27 61 -61c0 -42 -40 -82 -83 -82c-36 0 -61 27 -61 60zM46 0l107 641h125l-107 -641h-125z" />
    <glyph glyph-name="Igrave" unicode="&#xcc;" horiz-adv-x="278" 
d="M215 850l73 -156h-109l-106 156h142zM46 0l107 641h125l-107 -641h-125z" />
    <glyph glyph-name="Imacron" unicode="&#x12a;" horiz-adv-x="278" 
d="M95 821h297l-14 -90h-297zM46 0l107 641h125l-107 -641h-125z" />
    <glyph glyph-name="Iogonek" unicode="&#x12e;" horiz-adv-x="278" 
d="M46 0l107 641h125l-107 -640l1 -1c-74 -32 -115 -69 -115 -105c0 -18 12 -28 31 -28c18 0 34 6 54 22l31 -59c-25 -25 -65 -43 -112 -43c-55 0 -100 29 -100 82c0 49 32 95 86 131h-1z" />
    <glyph glyph-name="Itilde" unicode="&#x128;" horiz-adv-x="278" 
d="M105 698l-53 50c38 69 80 88 117 88c58 0 83 -47 131 -47c27 0 50 24 68 50l53 -50c-38 -68 -80 -87 -116 -87c-58 0 -84 46 -131 46c-28 0 -51 -24 -69 -50zM46 0l107 641h125l-107 -641h-125z" />
    <glyph glyph-name="Jcircumflex" unicode="&#x134;" horiz-adv-x="466" 
d="M368 694h-119l143 156h110l95 -156h-112l-46 85zM3 68l91 92c19 -33 49 -49 86 -49c56 0 88 27 102 104l71 426h125l-73 -437c-28 -164 -108 -217 -226 -217c-71 0 -139 27 -176 81z" />
    <glyph glyph-name="Kcommaaccent" unicode="&#x136;" horiz-adv-x="605" 
d="M171 0h-125l107 641h125l-49 -296l280 296h160l-304 -317l204 -324h-142l-202 325zM345 -51l-75 -150h-96l51 150h120z" />
    <glyph glyph-name="Lacute" unicode="&#x139;" horiz-adv-x="530" 
d="M285 850h144l-155 -156h-113zM46 0l107 641h125l-87 -523h313l-20 -118h-438z" />
    <glyph glyph-name="Lcaron" unicode="&#x13d;" horiz-adv-x="530" 
d="M46 0l107 641h125l-87 -523h313l-20 -118h-438zM461 641l-68 -166h-89l46 166h111z" />
    <glyph glyph-name="Lcommaaccent" unicode="&#x13b;" horiz-adv-x="530" 
d="M46 0l107 641h125l-87 -523h313l-20 -118h-438zM318 -51l-75 -150h-96l51 150h120z" />
    <glyph glyph-name="Ldot" unicode="&#x13f;" horiz-adv-x="530" 
d="M46 0l107 641h125l-87 -523h313l-20 -118h-438zM371 228c-35 0 -60 25 -60 59c0 49 40 84 84 84c36 0 61 -26 61 -61c0 -51 -41 -82 -85 -82z" />
    <glyph glyph-name="Lslash" unicode="&#x141;" horiz-adv-x="530" 
d="M46 0l45 268l-62 -19l17 104l62 19l45 269h125l-38 -230l116 35l-18 -103l-115 -35l-32 -190h313l-20 -118h-438z" />
    <glyph glyph-name="Nacute" unicode="&#x143;" horiz-adv-x="709" 
d="M505 850h144l-155 -156h-113zM484 0l-238 449l-75 -449h-125l107 641h131l229 -442l74 442h125l-107 -641h-121z" />
    <glyph glyph-name="Ncaron" unicode="&#x147;" horiz-adv-x="709" 
d="M502 694h-111l-95 156h113l45 -85l71 85h119zM484 0l-238 449l-75 -449h-125l107 641h131l229 -442l74 442h125l-107 -641h-121z" />
    <glyph glyph-name="Ncommaaccent" unicode="&#x145;" horiz-adv-x="709" 
d="M484 0l-238 449l-75 -449h-125l107 641h131l229 -442l74 442h125l-107 -641h-121zM375 -51l-75 -150h-96l51 150h120z" />
    <glyph glyph-name="Ntilde" unicode="&#xd1;" horiz-adv-x="709" 
d="M328 698l-53 50c38 69 80 88 117 88c58 0 83 -47 131 -47c27 0 50 24 68 50l53 -50c-38 -68 -80 -87 -116 -87c-58 0 -84 46 -131 46c-28 0 -51 -24 -69 -50zM484 0l-238 449l-75 -449h-125l107 641h131l229 -442l74 442h125l-107 -641h-121z" />
    <glyph glyph-name="Oacute" unicode="&#xd3;" horiz-adv-x="751" 
d="M486 850h144l-155 -156h-113zM419 654c173 0 310 -113 310 -304c0 -218 -161 -363 -363 -363c-173 0 -311 113 -311 304c0 212 162 363 364 363zM377 111c120 0 217 93 217 232c0 106 -66 187 -186 187s-218 -93 -218 -231c0 -107 67 -188 187 -188z" />
    <glyph glyph-name="Obreve" unicode="&#x14e;" horiz-adv-x="751" 
d="M434 684c-88 0 -150 66 -135 160h85c-9 -54 16 -80 53 -80c39 0 69 26 78 80h87c-16 -94 -78 -160 -168 -160zM419 654c173 0 310 -113 310 -304c0 -218 -161 -363 -363 -363c-173 0 -311 113 -311 304c0 212 162 363 364 363zM377 111c120 0 217 93 217 232
c0 106 -66 187 -186 187s-218 -93 -218 -231c0 -107 67 -188 187 -188z" />
    <glyph glyph-name="Ocircumflex" unicode="&#xd4;" horiz-adv-x="751" 
d="M373 694h-119l143 156h110l95 -156h-112l-46 85zM419 654c173 0 310 -113 310 -304c0 -218 -161 -363 -363 -363c-173 0 -311 113 -311 304c0 212 162 363 364 363zM377 111c120 0 217 93 217 232c0 106 -66 187 -186 187s-218 -93 -218 -231c0 -107 67 -188 187 -188z
" />
    <glyph glyph-name="Odieresis" unicode="&#xd6;" horiz-adv-x="751" 
d="M282 761c0 40 36 76 76 76c31 0 56 -25 56 -56c0 -39 -37 -75 -77 -75c-32 0 -55 24 -55 55zM464 761c0 40 36 76 75 76c33 0 56 -25 56 -56c0 -39 -36 -75 -76 -75c-32 0 -55 24 -55 55zM419 654c173 0 310 -113 310 -304c0 -218 -161 -363 -363 -363
c-173 0 -311 113 -311 304c0 212 162 363 364 363zM377 111c120 0 217 93 217 232c0 106 -66 187 -186 187s-218 -93 -218 -231c0 -107 67 -188 187 -188z" />
    <glyph glyph-name="Ograve" unicode="&#xd2;" horiz-adv-x="751" 
d="M419 850l73 -156h-109l-106 156h142zM419 654c173 0 310 -113 310 -304c0 -218 -161 -363 -363 -363c-173 0 -311 113 -311 304c0 212 162 363 364 363zM377 111c120 0 217 93 217 232c0 106 -66 187 -186 187s-218 -93 -218 -231c0 -107 67 -188 187 -188z" />
    <glyph glyph-name="Ohungarumlaut" unicode="&#x150;" horiz-adv-x="751" 
d="M399 850h121l-148 -156h-95zM575 850h128l-154 -156h-95zM419 654c173 0 310 -113 310 -304c0 -218 -161 -363 -363 -363c-173 0 -311 113 -311 304c0 212 162 363 364 363zM377 111c120 0 217 93 217 232c0 106 -66 187 -186 187s-218 -93 -218 -231
c0 -107 67 -188 187 -188z" />
    <glyph glyph-name="Omacron" unicode="&#x14c;" horiz-adv-x="751" 
d="M298 821h297l-14 -90h-297zM419 654c173 0 310 -113 310 -304c0 -218 -161 -363 -363 -363c-173 0 -311 113 -311 304c0 212 162 363 364 363zM377 111c120 0 217 93 217 232c0 106 -66 187 -186 187s-218 -93 -218 -231c0 -107 67 -188 187 -188z" />
    <glyph glyph-name="Oslash" unicode="&#xd8;" horiz-adv-x="753" 
d="M381 -13c-62 0 -120 15 -168 42l-65 -77l-63 54l63 75c-48 51 -77 122 -77 210c0 212 161 363 364 363c60 0 116 -14 163 -39l64 76l63 -53l-61 -73c50 -52 81 -125 81 -215c0 -218 -161 -363 -364 -363zM206 299c0 -43 11 -82 31 -113l274 326c-25 12 -54 18 -88 18
c-120 0 -217 -93 -217 -231zM392 111c120 0 218 93 218 232c0 45 -12 85 -35 117l-276 -329c26 -13 57 -20 93 -20z" />
    <glyph glyph-name="Otilde" unicode="&#xd5;" horiz-adv-x="751" 
d="M308 698l-53 50c38 69 80 88 117 88c58 0 83 -47 131 -47c27 0 50 24 68 50l53 -50c-38 -68 -80 -87 -116 -87c-58 0 -84 46 -131 46c-28 0 -51 -24 -69 -50zM419 654c173 0 310 -113 310 -304c0 -218 -161 -363 -363 -363c-173 0 -311 113 -311 304
c0 212 162 363 364 363zM377 111c120 0 217 93 217 232c0 106 -66 187 -186 187s-218 -93 -218 -231c0 -107 67 -188 187 -188z" />
    <glyph glyph-name="OE" unicode="&#x152;" horiz-adv-x="974" 
d="M381 -13c-173 0 -310 113 -310 304c0 212 161 363 364 363c89 0 166 -32 213 -99l14 86h416l-19 -113h-291l-25 -151h251l-19 -112h-250l-25 -155h290l-19 -110h-416l10 61c-51 -47 -115 -74 -184 -74zM392 111c120 0 216 93 216 232c0 106 -65 187 -185 187
s-217 -93 -217 -231c0 -107 66 -188 186 -188z" />
    <glyph glyph-name="Thorn" unicode="&#xde;" horiz-adv-x="597" 
d="M171 0h-125l107 641h125l-17 -101h115c138 0 214 -68 214 -175c0 -171 -114 -250 -289 -250h-111zM360 433h-117l-35 -214h116c79 0 134 47 134 128c0 51 -37 86 -98 86z" />
    <glyph glyph-name="Racute" unicode="&#x154;" horiz-adv-x="613" 
d="M445 850h144l-155 -156h-113zM46 0l107 641h228c141 0 221 -65 221 -168c0 -116 -65 -193 -170 -224l123 -249h-134l-111 235h-99l-40 -235h-125zM375 530h-116l-31 -190h116c78 0 125 44 125 111c0 48 -32 79 -94 79z" />
    <glyph glyph-name="Rcaron" unicode="&#x158;" horiz-adv-x="613" 
d="M442 694h-111l-95 156h113l45 -85l71 85h119zM46 0l107 641h228c141 0 221 -65 221 -168c0 -116 -65 -193 -170 -224l123 -249h-134l-111 235h-99l-40 -235h-125zM375 530h-116l-31 -190h116c78 0 125 44 125 111c0 48 -32 79 -94 79z" />
    <glyph glyph-name="Rcommaaccent" unicode="&#x156;" horiz-adv-x="613" 
d="M46 0l107 641h228c141 0 221 -65 221 -168c0 -116 -65 -193 -170 -224l123 -249h-134l-111 235h-99l-40 -235h-125zM375 530h-116l-31 -190h116c78 0 125 44 125 111c0 48 -32 79 -94 79zM322 -51l-75 -150h-96l51 150h120z" />
    <glyph glyph-name="Sacute" unicode="&#x15a;" horiz-adv-x="556" 
d="M416 850h144l-155 -156h-113zM120 -1c-30 8 -68 27 -111 59l66 104c49 -34 120 -58 183 -58c74 0 131 32 131 87c0 94 -293 59 -293 242c0 133 113 222 267 222c81 0 160 -22 212 -67l-74 -98c-37 27 -92 48 -149 48c-65 0 -119 -33 -119 -82c0 -95 293 -61 293 -240
c0 -142 -125 -229 -281 -229c-53 0 -95 4 -125 12z" />
    <glyph glyph-name="Scaron" unicode="&#x160;" horiz-adv-x="556" 
d="M413 694h-111l-95 156h113l45 -85l71 85h119zM120 -1c-30 8 -68 27 -111 59l66 104c49 -34 120 -58 183 -58c74 0 131 32 131 87c0 94 -293 59 -293 242c0 133 113 222 267 222c81 0 160 -22 212 -67l-74 -98c-37 27 -92 48 -149 48c-65 0 -119 -33 -119 -82
c0 -95 293 -61 293 -240c0 -142 -125 -229 -281 -229c-53 0 -95 4 -125 12z" />
    <glyph glyph-name="Scedilla" unicode="&#x15e;" horiz-adv-x="556" 
d="M120 -1c-30 8 -68 27 -111 59l66 104c49 -34 120 -58 183 -58c74 0 131 32 131 87c0 94 -293 59 -293 242c0 133 113 222 267 222c81 0 160 -22 212 -67l-74 -98c-37 27 -92 48 -149 48c-65 0 -119 -33 -119 -82c0 -95 293 -61 293 -240c0 -131 -106 -215 -244 -227
l-66 -185l-99 40l82 144c-32 2 -58 5 -79 11z" />
    <glyph glyph-name="Scircumflex" unicode="&#x15c;" horiz-adv-x="556" 
d="M303 694h-119l143 156h110l95 -156h-112l-46 85zM120 -1c-30 8 -68 27 -111 59l66 104c49 -34 120 -58 183 -58c74 0 131 32 131 87c0 94 -293 59 -293 242c0 133 113 222 267 222c81 0 160 -22 212 -67l-74 -98c-37 27 -92 48 -149 48c-65 0 -119 -33 -119 -82
c0 -95 293 -61 293 -240c0 -142 -125 -229 -281 -229c-53 0 -95 4 -125 12z" />
    <glyph glyph-name="Scommaaccent" unicode="&#x218;" horiz-adv-x="556" 
d="M120 -1c-30 8 -68 27 -111 59l66 104c49 -34 120 -58 183 -58c74 0 131 32 131 87c0 94 -293 59 -293 242c0 133 113 222 267 222c81 0 160 -22 212 -67l-74 -98c-37 27 -92 48 -149 48c-65 0 -119 -33 -119 -82c0 -95 293 -61 293 -240c0 -142 -125 -229 -281 -229
c-53 0 -95 4 -125 12zM294 -51l-75 -150h-96l51 150h120z" />
    <glyph glyph-name="Tbar" unicode="&#x166;" horiz-adv-x="532" 
d="M155 367h79l26 157h-190l20 117h506l-21 -117h-190l-26 -157h81l-14 -92h-82l-46 -275h-125l46 275h-78z" />
    <glyph glyph-name="Tcaron" unicode="&#x164;" horiz-adv-x="532" 
d="M409 694h-111l-95 156h113l45 -85l71 85h119zM575 524h-190l-87 -524h-125l87 524h-190l20 117h506z" />
    <glyph glyph-name="Tcedilla" unicode="&#x162;" horiz-adv-x="532" 
d="M198 0h-25l87 524h-190l20 117h506l-21 -117h-190l-87 -524h-20l-70 -196l-99 40z" />
    <glyph glyph-name="Tcommaaccent" unicode="&#x21a;" horiz-adv-x="532" 
d="M575 524h-190l-87 -524h-125l87 524h-190l20 117h506zM286 -51l-75 -150h-96l51 150h120z" />
    <glyph glyph-name="Uacute" unicode="&#xda;" horiz-adv-x="664" 
d="M470 850h144l-155 -156h-113zM80 250l66 391h125l-65 -389c-15 -94 24 -142 118 -142c84 0 139 51 155 148l66 383h125l-66 -391c-29 -178 -125 -263 -296 -263c-168 0 -255 95 -228 263z" />
    <glyph glyph-name="Ubreve" unicode="&#x16c;" horiz-adv-x="664" 
d="M419 684c-88 0 -150 66 -135 160h85c-9 -54 16 -80 53 -80c39 0 69 26 78 80h87c-16 -94 -78 -160 -168 -160zM80 250l66 391h125l-65 -389c-15 -94 24 -142 118 -142c84 0 139 51 155 148l66 383h125l-66 -391c-29 -178 -125 -263 -296 -263c-168 0 -255 95 -228 263z
" />
    <glyph glyph-name="Ucircumflex" unicode="&#xdb;" horiz-adv-x="664" 
d="M357 694h-119l143 156h110l95 -156h-112l-46 85zM80 250l66 391h125l-65 -389c-15 -94 24 -142 118 -142c84 0 139 51 155 148l66 383h125l-66 -391c-29 -178 -125 -263 -296 -263c-168 0 -255 95 -228 263z" />
    <glyph glyph-name="Udieresis" unicode="&#xdc;" horiz-adv-x="664" 
d="M267 761c0 40 36 76 76 76c31 0 56 -25 56 -56c0 -39 -37 -75 -77 -75c-32 0 -55 24 -55 55zM449 761c0 40 36 76 75 76c33 0 56 -25 56 -56c0 -39 -36 -75 -76 -75c-32 0 -55 24 -55 55zM80 250l66 391h125l-65 -389c-15 -94 24 -142 118 -142c84 0 139 51 155 148
l66 383h125l-66 -391c-29 -178 -125 -263 -296 -263c-168 0 -255 95 -228 263z" />
    <glyph glyph-name="Ugrave" unicode="&#xd9;" horiz-adv-x="664" 
d="M403 850l73 -156h-109l-106 156h142zM80 250l66 391h125l-65 -389c-15 -94 24 -142 118 -142c84 0 139 51 155 148l66 383h125l-66 -391c-29 -178 -125 -263 -296 -263c-168 0 -255 95 -228 263z" />
    <glyph glyph-name="Uhungarumlaut" unicode="&#x170;" horiz-adv-x="664" 
d="M383 850h121l-148 -156h-95zM559 850h128l-154 -156h-95zM80 250l66 391h125l-65 -389c-15 -94 24 -142 118 -142c84 0 139 51 155 148l66 383h125l-66 -391c-29 -178 -125 -263 -296 -263c-168 0 -255 95 -228 263z" />
    <glyph glyph-name="Umacron" unicode="&#x16a;" horiz-adv-x="664" 
d="M283 821h297l-14 -90h-297zM80 250l66 391h125l-65 -389c-15 -94 24 -142 118 -142c84 0 139 51 155 148l66 383h125l-66 -391c-29 -178 -125 -263 -296 -263c-168 0 -255 95 -228 263z" />
    <glyph glyph-name="Uogonek" unicode="&#x172;" horiz-adv-x="664" 
d="M80 250l66 391h125l-65 -389c-15 -94 24 -142 118 -142c84 0 139 51 155 148l66 383h125l-66 -391c-23 -139 -86 -222 -195 -251c-73 -32 -113 -68 -113 -104c0 -18 12 -28 31 -28c18 0 34 6 54 22l31 -59c-25 -25 -65 -43 -112 -43c-55 0 -100 29 -100 82
c0 44 26 86 71 120c-144 13 -216 106 -191 261z" />
    <glyph glyph-name="Uring" unicode="&#x16e;" horiz-adv-x="664" 
d="M411 684c-62 0 -106 42 -106 98c0 74 63 134 137 134c63 0 105 -42 105 -97c0 -74 -61 -135 -136 -135zM419 749c33 0 59 28 59 60c0 24 -17 43 -42 43c-31 0 -60 -27 -60 -61c0 -25 17 -42 43 -42zM80 250l66 391h125l-65 -389c-15 -94 24 -142 118 -142
c84 0 139 51 155 148l66 383h125l-66 -391c-29 -178 -125 -263 -296 -263c-168 0 -255 95 -228 263z" />
    <glyph glyph-name="Utilde" unicode="&#x168;" horiz-adv-x="664" 
d="M293 698l-53 50c38 69 80 88 117 88c58 0 83 -47 131 -47c27 0 50 24 68 50l53 -50c-38 -68 -80 -87 -116 -87c-58 0 -84 46 -131 46c-28 0 -51 -24 -69 -50zM80 250l66 391h125l-65 -389c-15 -94 24 -142 118 -142c84 0 139 51 155 148l66 383h125l-66 -391
c-29 -178 -125 -263 -296 -263c-168 0 -255 95 -228 263z" />
    <glyph glyph-name="Wacute" unicode="&#x1e82;" horiz-adv-x="1017" 
d="M645 850h144l-155 -156h-113zM923 641h140l-311 -641h-156l-46 482l-206 -482h-150l-97 641h138l61 -478l198 478h167l44 -479z" />
    <glyph glyph-name="Wcircumflex" unicode="&#x174;" horiz-adv-x="1017" 
d="M532 694h-119l143 156h110l95 -156h-112l-46 85zM923 641h140l-311 -641h-156l-46 482l-206 -482h-150l-97 641h138l61 -478l198 478h167l44 -479z" />
    <glyph glyph-name="Wdieresis" unicode="&#x1e84;" horiz-adv-x="1017" 
d="M442 761c0 40 36 76 76 76c31 0 56 -25 56 -56c0 -39 -37 -75 -77 -75c-32 0 -55 24 -55 55zM624 761c0 40 36 76 75 76c33 0 56 -25 56 -56c0 -39 -36 -75 -76 -75c-32 0 -55 24 -55 55zM923 641h140l-311 -641h-156l-46 482l-206 -482h-150l-97 641h138l61 -478
l198 478h167l44 -479z" />
    <glyph glyph-name="Wgrave" unicode="&#x1e80;" horiz-adv-x="1017" 
d="M578 850l73 -156h-109l-106 156h142zM923 641h140l-311 -641h-156l-46 482l-206 -482h-150l-97 641h138l61 -478l198 478h167l44 -479z" />
    <glyph glyph-name="Yacute" unicode="&#xdd;" horiz-adv-x="623" 
d="M444 850h144l-155 -156h-113zM209 0l35 213l-167 428h130l117 -305l215 305h138l-307 -428l-36 -213h-125z" />
    <glyph glyph-name="Ycircumflex" unicode="&#x176;" horiz-adv-x="623" 
d="M331 694h-119l143 156h110l95 -156h-112l-46 85zM209 0l35 213l-167 428h130l117 -305l215 305h138l-307 -428l-36 -213h-125z" />
    <glyph glyph-name="Ydieresis" unicode="&#x178;" horiz-adv-x="623" 
d="M240 761c0 40 36 76 76 76c31 0 56 -25 56 -56c0 -39 -37 -75 -77 -75c-32 0 -55 24 -55 55zM422 761c0 40 36 76 75 76c33 0 56 -25 56 -56c0 -39 -36 -75 -76 -75c-32 0 -55 24 -55 55zM209 0l35 213l-167 428h130l117 -305l215 305h138l-307 -428l-36 -213h-125z" />
    <glyph glyph-name="Ygrave" unicode="&#x1ef2;" horiz-adv-x="623" 
d="M377 850l73 -156h-109l-106 156h142zM209 0l35 213l-167 428h130l117 -305l215 305h138l-307 -428l-36 -213h-125z" />
    <glyph glyph-name="Zacute" unicode="&#x179;" horiz-adv-x="575" 
d="M428 850h144l-155 -156h-113zM35 108l384 416h-307l20 117h482l-17 -106l-389 -417h325l-19 -118h-496z" />
    <glyph glyph-name="Zcaron" unicode="&#x17d;" horiz-adv-x="575" 
d="M426 694h-111l-95 156h113l45 -85l71 85h119zM35 108l384 416h-307l20 117h482l-17 -106l-389 -417h325l-19 -118h-496z" />
    <glyph glyph-name="Zdotaccent" unicode="&#x17b;" horiz-adv-x="575" 
d="M310 765c0 44 40 83 83 83c36 0 61 -27 61 -61c0 -42 -40 -82 -83 -82c-36 0 -61 27 -61 60zM35 108l384 416h-307l20 117h482l-17 -106l-389 -417h325l-19 -118h-496z" />
    <glyph glyph-name="Gbreve.alt" horiz-adv-x="730" 
d="M461 684c-88 0 -150 66 -135 160h85c-9 -54 16 -80 53 -80c39 0 69 26 78 80h87c-16 -94 -78 -160 -168 -160zM339 -13c-163 0 -284 116 -284 277c0 216 179 390 396 390c108 0 185 -36 230 -87l-89 -91c-32 34 -82 58 -145 58c-138 0 -257 -125 -257 -259
c0 -103 68 -167 165 -167c119 0 190 67 214 141l2 10h-179l20 115h305l-25 -156c-45 -117 -149 -231 -353 -231z" />
    <glyph glyph-name="Gcircumflex.alt" horiz-adv-x="730" 
d="M399 694h-119l143 156h110l95 -156h-112l-46 85zM339 -13c-163 0 -284 116 -284 277c0 216 179 390 396 390c108 0 185 -36 230 -87l-89 -91c-32 34 -82 58 -145 58c-138 0 -257 -125 -257 -259c0 -103 68 -167 165 -167c119 0 190 67 214 141l2 10h-179l20 115h305
l-25 -156c-45 -117 -149 -231 -353 -231z" />
    <glyph glyph-name="Gcommaaccent.alt" horiz-adv-x="730" 
d="M339 -13c-163 0 -284 116 -284 277c0 216 179 390 396 390c108 0 185 -36 230 -87l-89 -91c-32 34 -82 58 -145 58c-138 0 -257 -125 -257 -259c0 -103 68 -167 165 -167c119 0 190 67 214 141l2 10h-179l20 115h305l-25 -156c-45 -117 -149 -231 -353 -231zM381 -51
l-75 -150h-96l51 150h120z" />
    <glyph glyph-name="Gdotaccent.alt" horiz-adv-x="730" 
d="M394 765c0 44 40 83 83 83c36 0 61 -27 61 -61c0 -42 -40 -82 -83 -82c-36 0 -61 27 -61 60zM339 -13c-163 0 -284 116 -284 277c0 216 179 390 396 390c108 0 185 -36 230 -87l-89 -91c-32 34 -82 58 -145 58c-138 0 -257 -125 -257 -259c0 -103 68 -167 165 -167
c119 0 190 67 214 141l2 10h-179l20 115h305l-25 -156c-45 -117 -149 -231 -353 -231z" />
    <glyph glyph-name="aacute" unicode="&#xe1;" horiz-adv-x="613" 
d="M415 688h144l-155 -156h-113zM237 -13c-109 0 -193 75 -193 212c0 167 105 293 261 293c74 0 123 -28 148 -76l11 63h122l-80 -479h-122l10 57c-39 -43 -91 -70 -157 -70zM279 98c81 0 146 66 146 168c0 69 -42 115 -111 115c-84 0 -145 -70 -145 -165
c0 -70 35 -118 110 -118z" />
    <glyph glyph-name="abreve" unicode="&#x103;" horiz-adv-x="613" 
d="M364 522c-88 0 -150 66 -135 160h85c-9 -54 16 -80 53 -80c39 0 69 26 78 80h87c-16 -94 -78 -160 -168 -160zM237 -13c-109 0 -193 75 -193 212c0 167 105 293 261 293c74 0 123 -28 148 -76l11 63h122l-80 -479h-122l10 57c-39 -43 -91 -70 -157 -70zM279 98
c81 0 146 66 146 168c0 69 -42 115 -111 115c-84 0 -145 -70 -145 -165c0 -70 35 -118 110 -118z" />
    <glyph glyph-name="acircumflex" unicode="&#xe2;" horiz-adv-x="613" 
d="M303 532h-119l143 156h110l95 -156h-112l-46 85zM237 -13c-109 0 -193 75 -193 212c0 167 105 293 261 293c74 0 123 -28 148 -76l11 63h122l-80 -479h-122l10 57c-39 -43 -91 -70 -157 -70zM279 98c81 0 146 66 146 168c0 69 -42 115 -111 115c-84 0 -145 -70 -145 -165
c0 -70 35 -118 110 -118z" />
    <glyph glyph-name="adieresis" unicode="&#xe4;" horiz-adv-x="613" 
d="M212 599c0 40 36 76 76 76c31 0 56 -25 56 -56c0 -39 -37 -75 -77 -75c-32 0 -55 24 -55 55zM394 599c0 40 36 76 75 76c33 0 56 -25 56 -56c0 -39 -36 -75 -76 -75c-32 0 -55 24 -55 55zM237 -13c-109 0 -193 75 -193 212c0 167 105 293 261 293c74 0 123 -28 148 -76
l11 63h122l-80 -479h-122l10 57c-39 -43 -91 -70 -157 -70zM279 98c81 0 146 66 146 168c0 69 -42 115 -111 115c-84 0 -145 -70 -145 -165c0 -70 35 -118 110 -118z" />
    <glyph glyph-name="agrave" unicode="&#xe0;" horiz-adv-x="613" 
d="M349 688l73 -156h-109l-106 156h142zM237 -13c-109 0 -193 75 -193 212c0 167 105 293 261 293c74 0 123 -28 148 -76l11 63h122l-80 -479h-122l10 57c-39 -43 -91 -70 -157 -70zM279 98c81 0 146 66 146 168c0 69 -42 115 -111 115c-84 0 -145 -70 -145 -165
c0 -70 35 -118 110 -118z" />
    <glyph glyph-name="amacron" unicode="&#x101;" horiz-adv-x="613" 
d="M228 659h297l-14 -90h-297zM237 -13c-109 0 -193 75 -193 212c0 167 105 293 261 293c74 0 123 -28 148 -76l11 63h122l-80 -479h-122l10 57c-39 -43 -91 -70 -157 -70zM279 98c81 0 146 66 146 168c0 69 -42 115 -111 115c-84 0 -145 -70 -145 -165
c0 -70 35 -118 110 -118z" />
    <glyph glyph-name="aogonek" unicode="&#x105;" horiz-adv-x="613" 
d="M237 -13c-109 0 -193 75 -193 212c0 167 105 293 261 293c74 0 123 -28 148 -76l11 63h122l-80 -478l1 -1c-74 -32 -115 -69 -115 -105c0 -18 12 -28 31 -28c18 0 34 6 54 22l31 -59c-25 -25 -65 -43 -112 -43c-55 0 -100 29 -100 82c0 50 33 96 88 132l10 56
c-39 -43 -91 -70 -157 -70zM279 98c81 0 146 66 146 168c0 69 -42 115 -111 115c-84 0 -145 -70 -145 -165c0 -70 35 -118 110 -118z" />
    <glyph glyph-name="aring" unicode="&#xe5;" horiz-adv-x="613" 
d="M356 522c-62 0 -106 42 -106 98c0 74 63 134 137 134c63 0 105 -42 105 -97c0 -74 -61 -135 -136 -135zM364 587c33 0 59 28 59 60c0 24 -17 43 -42 43c-31 0 -60 -27 -60 -61c0 -25 17 -42 43 -42zM237 -13c-109 0 -193 75 -193 212c0 167 105 293 261 293
c74 0 123 -28 148 -76l11 63h122l-80 -479h-122l10 57c-39 -43 -91 -70 -157 -70zM279 98c81 0 146 66 146 168c0 69 -42 115 -111 115c-84 0 -145 -70 -145 -165c0 -70 35 -118 110 -118z" />
    <glyph glyph-name="atilde" unicode="&#xe3;" horiz-adv-x="613" 
d="M238 536l-53 50c38 69 80 88 117 88c58 0 83 -47 131 -47c27 0 50 24 68 50l53 -50c-38 -68 -80 -87 -116 -87c-58 0 -84 46 -131 46c-28 0 -51 -24 -69 -50zM237 -13c-109 0 -193 75 -193 212c0 167 105 293 261 293c74 0 123 -28 148 -76l11 63h122l-80 -479h-122
l10 57c-39 -43 -91 -70 -157 -70zM279 98c81 0 146 66 146 168c0 69 -42 115 -111 115c-84 0 -145 -70 -145 -165c0 -70 35 -118 110 -118z" />
    <glyph glyph-name="ae" unicode="&#xe6;" horiz-adv-x="921" 
d="M236 -13c-107 0 -193 68 -193 212c0 167 105 293 261 293c75 0 124 -28 149 -77l11 64h115l-8 -51c41 40 94 64 155 64c110 0 180 -82 180 -195c0 -31 -7 -76 -13 -93h-356c4 -69 51 -110 119 -110c52 0 105 20 139 50l50 -89c-42 -43 -105 -68 -175 -68
c-72 0 -128 28 -160 77l-11 -64h-115l10 62c-39 -46 -92 -75 -158 -75zM686 389c-64 0 -115 -36 -137 -99h236c-4 65 -41 99 -99 99zM281 98c80 0 143 68 143 171c0 67 -42 112 -112 112c-83 0 -144 -68 -144 -160c0 -72 36 -123 113 -123z" />
    <glyph glyph-name="cacute" unicode="&#x107;" horiz-adv-x="495" 
d="M394 688h144l-155 -156h-113zM428 334c-27 33 -62 46 -111 46c-89 0 -150 -65 -150 -162c0 -75 46 -119 118 -119c49 0 87 17 122 47l61 -91c-50 -44 -112 -68 -196 -68c-138 0 -228 85 -228 221c0 165 112 284 286 284c87 0 144 -25 182 -66z" />
    <glyph glyph-name="ccaron" unicode="&#x10d;" horiz-adv-x="495" 
d="M391 532h-111l-95 156h113l45 -85l71 85h119zM428 334c-27 33 -62 46 -111 46c-89 0 -150 -65 -150 -162c0 -75 46 -119 118 -119c49 0 87 17 122 47l61 -91c-50 -44 -112 -68 -196 -68c-138 0 -228 85 -228 221c0 165 112 284 286 284c87 0 144 -25 182 -66z" />
    <glyph glyph-name="ccedilla" unicode="&#xe7;" horiz-adv-x="495" 
d="M428 334c-27 33 -62 46 -111 46c-89 0 -150 -65 -150 -162c0 -75 46 -119 118 -119c49 0 87 17 122 47l61 -91c-41 -36 -91 -59 -155 -66l-66 -185l-99 40l83 146c-115 15 -187 96 -187 218c0 165 112 284 286 284c87 0 144 -25 182 -66z" />
    <glyph glyph-name="ccircumflex" unicode="&#x109;" horiz-adv-x="495" 
d="M281 532h-119l143 156h110l95 -156h-112l-46 85zM428 334c-27 33 -62 46 -111 46c-89 0 -150 -65 -150 -162c0 -75 46 -119 118 -119c49 0 87 17 122 47l61 -91c-50 -44 -112 -68 -196 -68c-138 0 -228 85 -228 221c0 165 112 284 286 284c87 0 144 -25 182 -66z" />
    <glyph glyph-name="cdotaccent" unicode="&#x10b;" horiz-adv-x="495" 
d="M276 603c0 44 40 83 83 83c36 0 61 -27 61 -61c0 -42 -40 -82 -83 -82c-36 0 -61 27 -61 60zM428 334c-27 33 -62 46 -111 46c-89 0 -150 -65 -150 -162c0 -75 46 -119 118 -119c49 0 87 17 122 47l61 -91c-50 -44 -112 -68 -196 -68c-138 0 -228 85 -228 221
c0 165 112 284 286 284c87 0 144 -25 182 -66z" />
    <glyph glyph-name="eth" unicode="&#xf0;" horiz-adv-x="573" 
d="M300 469c57 0 98 -15 124 -39c-14 48 -37 85 -63 116l-82 -43l-28 66l53 28c-28 20 -55 34 -77 45l96 76c34 -18 65 -39 93 -64l82 43l28 -66l-59 -31c56 -71 89 -159 89 -256c0 -246 -127 -357 -292 -357c-131 0 -221 81 -221 214c0 168 124 268 257 268zM277 98
c80 0 148 69 148 161c0 64 -41 109 -110 109c-87 0 -149 -66 -149 -160c0 -67 41 -110 111 -110z" />
    <glyph glyph-name="dcaron" unicode="&#x10f;" horiz-adv-x="610" 
d="M234 -13c-107 0 -190 68 -190 209c0 169 106 296 263 296c73 0 121 -28 147 -76l45 272h122l-115 -688h-122l10 62c-39 -46 -93 -75 -160 -75zM785 688l-68 -166h-89l46 166h111zM275 98c83 0 150 67 150 169c0 68 -41 114 -108 114c-86 0 -148 -70 -148 -165
c0 -69 34 -118 106 -118z" />
    <glyph glyph-name="dcroat" unicode="&#x111;" horiz-adv-x="610" 
d="M234 -13c-107 0 -190 68 -190 209c0 169 106 296 263 296c72 0 121 -28 147 -76l21 131h-120l15 89h120l9 52h122l-9 -52h55l-14 -89h-56l-91 -547h-122l10 62c-39 -46 -93 -75 -160 -75zM275 98c83 0 150 67 150 169c0 68 -41 114 -108 114c-86 0 -148 -70 -148 -165
c0 -69 34 -118 106 -118z" />
    <glyph glyph-name="eacute" unicode="&#xe9;" horiz-adv-x="556" 
d="M390 688h144l-155 -156h-113zM274 -13c-148 0 -230 87 -230 217c0 169 118 288 281 288c126 0 210 -83 211 -197c0 -31 -8 -74 -14 -91h-355c4 -69 48 -110 122 -110c50 0 89 21 121 49l62 -88c-43 -41 -116 -68 -198 -68zM313 389c-65 0 -115 -36 -135 -100h236
c-3 66 -40 100 -101 100z" />
    <glyph glyph-name="ebreve" unicode="&#x115;" horiz-adv-x="556" 
d="M339 522c-88 0 -150 66 -135 160h85c-9 -54 16 -80 53 -80c39 0 69 26 78 80h87c-16 -94 -78 -160 -168 -160zM274 -13c-148 0 -230 87 -230 217c0 169 118 288 281 288c126 0 210 -83 211 -197c0 -31 -8 -74 -14 -91h-355c4 -69 48 -110 122 -110c50 0 89 21 121 49
l62 -88c-43 -41 -116 -68 -198 -68zM313 389c-65 0 -115 -36 -135 -100h236c-3 66 -40 100 -101 100z" />
    <glyph glyph-name="ecaron" unicode="&#x11b;" horiz-adv-x="556" 
d="M387 532h-111l-95 156h113l45 -85l71 85h119zM274 -13c-148 0 -230 87 -230 217c0 169 118 288 281 288c126 0 210 -83 211 -197c0 -31 -8 -74 -14 -91h-355c4 -69 48 -110 122 -110c50 0 89 21 121 49l62 -88c-43 -41 -116 -68 -198 -68zM313 389
c-65 0 -115 -36 -135 -100h236c-3 66 -40 100 -101 100z" />
    <glyph glyph-name="ecircumflex" unicode="&#xea;" horiz-adv-x="556" 
d="M277 532h-119l143 156h110l95 -156h-112l-46 85zM274 -13c-148 0 -230 87 -230 217c0 169 118 288 281 288c126 0 210 -83 211 -197c0 -31 -8 -74 -14 -91h-355c4 -69 48 -110 122 -110c50 0 89 21 121 49l62 -88c-43 -41 -116 -68 -198 -68zM313 389
c-65 0 -115 -36 -135 -100h236c-3 66 -40 100 -101 100z" />
    <glyph glyph-name="edieresis" unicode="&#xeb;" horiz-adv-x="556" 
d="M187 599c0 40 36 76 76 76c31 0 56 -25 56 -56c0 -39 -37 -75 -77 -75c-32 0 -55 24 -55 55zM369 599c0 40 36 76 75 76c33 0 56 -25 56 -56c0 -39 -36 -75 -76 -75c-32 0 -55 24 -55 55zM274 -13c-148 0 -230 87 -230 217c0 169 118 288 281 288c126 0 210 -83 211 -197
c0 -31 -8 -74 -14 -91h-355c4 -69 48 -110 122 -110c50 0 89 21 121 49l62 -88c-43 -41 -116 -68 -198 -68zM313 389c-65 0 -115 -36 -135 -100h236c-3 66 -40 100 -101 100z" />
    <glyph glyph-name="edotaccent" unicode="&#x117;" horiz-adv-x="556" 
d="M272 603c0 44 40 83 83 83c36 0 61 -27 61 -61c0 -42 -40 -82 -83 -82c-36 0 -61 27 -61 60zM274 -13c-148 0 -230 87 -230 217c0 169 118 288 281 288c126 0 210 -83 211 -197c0 -31 -8 -74 -14 -91h-355c4 -69 48 -110 122 -110c50 0 89 21 121 49l62 -88
c-43 -41 -116 -68 -198 -68zM313 389c-65 0 -115 -36 -135 -100h236c-3 66 -40 100 -101 100z" />
    <glyph glyph-name="egrave" unicode="&#xe8;" horiz-adv-x="556" 
d="M323 688l73 -156h-109l-106 156h142zM274 -13c-148 0 -230 87 -230 217c0 169 118 288 281 288c126 0 210 -83 211 -197c0 -31 -8 -74 -14 -91h-355c4 -69 48 -110 122 -110c50 0 89 21 121 49l62 -88c-43 -41 -116 -68 -198 -68zM313 389c-65 0 -115 -36 -135 -100h236
c-3 66 -40 100 -101 100z" />
    <glyph glyph-name="emacron" unicode="&#x113;" horiz-adv-x="556" 
d="M203 659h297l-14 -90h-297zM274 -13c-148 0 -230 87 -230 217c0 169 118 288 281 288c126 0 210 -83 211 -197c0 -31 -8 -74 -14 -91h-355c4 -69 48 -110 122 -110c50 0 89 21 121 49l62 -88c-43 -41 -116 -68 -198 -68zM313 389c-65 0 -115 -36 -135 -100h236
c-3 66 -40 100 -101 100z" />
    <glyph glyph-name="eogonek" unicode="&#x119;" horiz-adv-x="556" 
d="M368 -170c-25 -25 -65 -43 -112 -43c-55 0 -100 29 -100 82c0 45 26 87 72 121c-119 16 -184 98 -184 214c0 169 118 288 281 288c126 0 210 -83 211 -197c0 -31 -8 -74 -14 -91h-355c4 -69 48 -110 122 -110c50 0 89 21 121 49l62 -88c-27 -25 -65 -45 -110 -57
c-71 -32 -110 -68 -110 -103c0 -18 12 -28 31 -28c18 0 34 6 54 22zM313 389c-65 0 -115 -36 -135 -100h236c-3 66 -40 100 -101 100z" />
    <glyph glyph-name="gbreve" unicode="&#x11f;" horiz-adv-x="603" 
d="M359 522c-88 0 -150 66 -135 160h85c-9 -54 16 -80 53 -80c39 0 69 26 78 80h87c-16 -94 -78 -160 -168 -160zM103 -48c23 -21 66 -50 135 -50c87 0 136 40 150 126l8 46c-37 -41 -87 -67 -147 -67c-122 0 -196 78 -196 204c0 159 101 278 253 278c72 0 121 -30 147 -75
l11 65h122l-74 -445c-32 -195 -153 -243 -285 -243c-86 0 -160 23 -201 67zM283 117c80 0 142 62 142 156c0 65 -40 107 -108 107c-85 0 -140 -66 -140 -152c0 -69 39 -111 106 -111z" />
    <glyph glyph-name="gcircumflex" unicode="&#x11d;" horiz-adv-x="603" 
d="M298 532h-119l143 156h110l95 -156h-112l-46 85zM103 -48c23 -21 66 -50 135 -50c87 0 136 40 150 126l8 46c-37 -41 -87 -67 -147 -67c-122 0 -196 78 -196 204c0 159 101 278 253 278c72 0 121 -30 147 -75l11 65h122l-74 -445c-32 -195 -153 -243 -285 -243
c-86 0 -160 23 -201 67zM283 117c80 0 142 62 142 156c0 65 -40 107 -108 107c-85 0 -140 -66 -140 -152c0 -69 39 -111 106 -111z" />
    <glyph glyph-name="gcommaaccent" unicode="&#x123;" horiz-adv-x="603" 
d="M278 538l75 150h97l-51 -150h-121zM103 -48c23 -21 66 -50 135 -50c87 0 136 40 150 126l8 46c-37 -41 -87 -67 -147 -67c-122 0 -196 78 -196 204c0 159 101 278 253 278c72 0 121 -30 147 -75l11 65h122l-74 -445c-32 -195 -153 -243 -285 -243c-86 0 -160 23 -201 67z
M283 117c80 0 142 62 142 156c0 65 -40 107 -108 107c-85 0 -140 -66 -140 -152c0 -69 39 -111 106 -111z" />
    <glyph glyph-name="gdotaccent" unicode="&#x121;" horiz-adv-x="603" 
d="M293 603c0 44 40 83 83 83c36 0 61 -27 61 -61c0 -42 -40 -82 -83 -82c-36 0 -61 27 -61 60zM103 -48c23 -21 66 -50 135 -50c87 0 136 40 150 126l8 46c-37 -41 -87 -67 -147 -67c-122 0 -196 78 -196 204c0 159 101 278 253 278c72 0 121 -30 147 -75l11 65h122
l-74 -445c-32 -195 -153 -243 -285 -243c-86 0 -160 23 -201 67zM283 117c80 0 142 62 142 156c0 65 -40 107 -108 107c-85 0 -140 -66 -140 -152c0 -69 39 -111 106 -111z" />
    <glyph glyph-name="hbar" unicode="&#x127;" 
d="M163 0h-122l91 542h-51l15 90h51l9 56h122l-9 -56h123l-15 -90h-123l-23 -133c33 53 88 83 158 83c115 0 162 -77 141 -202l-49 -290h-122l45 272c12 68 -12 106 -75 106c-62 0 -110 -38 -120 -107v3z" />
    <glyph glyph-name="hcircumflex" unicode="&#x125;" 
d="M173 741h-119l143 156h110l95 -156h-112l-46 85zM41 0l115 688h122l-47 -279c33 53 88 83 158 83c115 0 162 -77 141 -202l-49 -290h-122l45 272c12 68 -12 106 -75 106c-62 0 -110 -38 -120 -107v3l-46 -274h-122z" />
    <glyph glyph-name="idotless" unicode="&#x131;" horiz-adv-x="273" 
d="M237 479l-79 -479h-122l79 479h122z" />
    <glyph glyph-name="iacute" unicode="&#xed;" horiz-adv-x="273" 
d="M243 688h144l-155 -156h-113zM237 479l-79 -479h-122l79 479h122z" />
    <glyph glyph-name="ibreve" unicode="&#x12d;" horiz-adv-x="273" 
d="M192 522c-88 0 -150 66 -135 160h85c-9 -54 16 -80 53 -80c39 0 69 26 78 80h87c-16 -94 -78 -160 -168 -160zM237 479l-79 -479h-122l79 479h122z" />
    <glyph glyph-name="icircumflex" unicode="&#xee;" horiz-adv-x="273" 
d="M130 532h-119l143 156h110l95 -156h-112l-46 85zM237 479l-79 -479h-122l79 479h122z" />
    <glyph glyph-name="idieresis" unicode="&#xef;" horiz-adv-x="273" 
d="M40 599c0 40 36 76 76 76c31 0 56 -25 56 -56c0 -39 -37 -75 -77 -75c-32 0 -55 24 -55 55zM222 599c0 40 36 76 75 76c33 0 56 -25 56 -56c0 -39 -36 -75 -76 -75c-32 0 -55 24 -55 55zM237 479l-79 -479h-122l79 479h122z" />
    <glyph glyph-name="idotaccent" horiz-adv-x="273" 
d="M125 603c0 44 40 83 83 83c36 0 61 -27 61 -61c0 -42 -40 -82 -83 -82c-36 0 -61 27 -61 60zM237 479l-79 -479h-122l79 479h122z" />
    <glyph glyph-name="igrave" unicode="&#xec;" horiz-adv-x="273" 
d="M176 688l73 -156h-109l-106 156h142zM237 479l-79 -479h-122l79 479h122z" />
    <glyph glyph-name="ij" unicode="&#x133;" horiz-adv-x="546" 
d="M193 543c-36 0 -61 24 -61 60c0 50 38 83 85 83c34 0 60 -25 60 -58c0 -52 -38 -85 -84 -85zM466 543c-36 0 -61 24 -61 60c0 50 38 83 85 83c34 0 60 -25 60 -58c0 -52 -38 -85 -84 -85zM163 0h-122l80 479h122zM241 -209c-52 0 -92 17 -120 42l64 90
c12 -12 29 -22 55 -22c39 0 62 29 71 83l83 495h122l-82 -495c-25 -146 -94 -193 -193 -193z" />
    <glyph glyph-name="imacron" unicode="&#x12b;" horiz-adv-x="273" 
d="M56 659h297l-14 -90h-297zM237 479l-79 -479h-122l79 479h122z" />
    <glyph glyph-name="iogonek" unicode="&#x12f;" horiz-adv-x="273" 
d="M125 603c0 44 40 83 83 83c36 0 61 -27 61 -61c0 -42 -40 -82 -83 -82c-36 0 -61 27 -61 60zM237 479l-79 -478l1 -1c-74 -32 -115 -69 -115 -105c0 -18 12 -28 31 -28c18 0 34 6 54 22l31 -59c-25 -25 -65 -43 -112 -43c-55 0 -100 29 -100 82c0 50 33 96 88 132l79 478
h122z" />
    <glyph glyph-name="itilde" unicode="&#x129;" horiz-adv-x="273" 
d="M66 536l-53 50c38 69 80 88 117 88c58 0 83 -47 131 -47c27 0 50 24 68 50l53 -50c-38 -68 -80 -87 -116 -87c-58 0 -84 46 -131 46c-28 0 -51 -24 -69 -50zM237 479l-79 -479h-122l79 479h122z" />
    <glyph glyph-name="jdotless" unicode="&#x237;" horiz-adv-x="273" 
d="M234 479l-78 -493c-19 -118 -93 -195 -205 -195c-51 0 -91 17 -114 42l73 91c12 -12 30 -22 53 -22c33 0 61 26 70 78l79 499h122z" />
    <glyph glyph-name="jcircumflex" unicode="&#x135;" horiz-adv-x="273" 
d="M124 532h-119l143 156h110l95 -156h-112l-46 85zM234 479l-78 -493c-19 -118 -93 -195 -205 -195c-51 0 -91 17 -114 42l73 91c12 -12 30 -22 53 -22c33 0 61 26 70 78l79 499h122z" />
    <glyph glyph-name="kcommaaccent" unicode="&#x137;" horiz-adv-x="571" 
d="M163 0h-122l115 688h122l-68 -407l216 198h157l-245 -225l186 -254h-145l-175 246zM319 -51l-75 -150h-96l51 150h120z" />
    <glyph glyph-name="lacute" unicode="&#x13a;" horiz-adv-x="288" 
d="M282 897h144l-155 -156h-113zM240 106l-5 -107c-19 -6 -42 -10 -61 -10c-69 0 -132 45 -111 167l6 30l83 502h122l-76 -461l-1 -6l-5 -30l-8 -44c-6 -36 13 -46 34 -46c7 0 15 2 22 5z" />
    <glyph glyph-name="lcaron" unicode="&#x13e;" horiz-adv-x="288" 
d="M240 106l-5 -107c-19 -6 -42 -10 -61 -10c-69 0 -132 45 -111 167l6 30l83 502h122l-76 -461l-1 -6l-5 -30l-8 -44c-6 -36 13 -46 34 -46c7 0 15 2 22 5zM435 688l-68 -166h-89l46 166h111z" />
    <glyph glyph-name="lcommaaccent" unicode="&#x13c;" horiz-adv-x="288" 
d="M240 106l-5 -107c-19 -6 -42 -10 -61 -10c-69 0 -132 45 -111 167l6 30l83 502h122l-76 -461l-1 -6l-5 -30l-8 -44c-6 -36 13 -46 34 -46c7 0 15 2 22 5zM209 -51l-75 -150h-96l51 150h120z" />
    <glyph glyph-name="ldot" unicode="&#x140;" horiz-adv-x="384" 
d="M240 106l-5 -107c-19 -6 -42 -10 -61 -10c-69 0 -132 45 -111 167l6 30l83 502h122l-76 -461l-1 -6l-5 -30l-8 -44c-6 -36 13 -46 34 -46c7 0 15 2 22 5zM317 228c-35 0 -60 25 -60 59c0 49 40 84 84 84c36 0 61 -26 61 -61c0 -51 -41 -82 -85 -82z" />
    <glyph glyph-name="lslash" unicode="&#x142;" horiz-adv-x="288" 
d="M240 106l-5 -107c-19 -6 -42 -10 -61 -10c-69 0 -132 45 -111 167l6 30l17 106l-61 -22l17 104l61 22l49 292h122l-41 -246l65 23l-17 -104l-65 -23l-18 -111l-1 -6l-5 -30l-8 -44c-6 -36 13 -46 34 -46c7 0 15 2 22 5z" />
    <glyph glyph-name="nacute" unicode="&#x144;" 
d="M398 688h144l-155 -156h-113zM41 0l80 479h122l-12 -70c33 53 87 83 157 83c115 0 162 -77 142 -202l-50 -290h-122l45 272c12 68 -12 106 -75 106c-62 0 -109 -38 -119 -107v4l-46 -275h-122z" />
    <glyph glyph-name="ncaron" unicode="&#x148;" 
d="M395 532h-111l-95 156h113l45 -85l71 85h119zM41 0l80 479h122l-12 -70c33 53 87 83 157 83c115 0 162 -77 142 -202l-50 -290h-122l45 272c12 68 -12 106 -75 106c-62 0 -109 -38 -119 -107v4l-46 -275h-122z" />
    <glyph glyph-name="ncommaaccent" unicode="&#x146;" 
d="M41 0l80 479h122l-12 -70c33 53 87 83 157 83c115 0 162 -77 142 -202l-50 -290h-122l45 272c12 68 -12 106 -75 106c-62 0 -109 -38 -119 -107v4l-46 -275h-122zM306 -51l-75 -150h-96l51 150h120z" />
    <glyph glyph-name="ntilde" unicode="&#xf1;" 
d="M221 536l-53 50c38 69 80 88 117 88c58 0 83 -47 131 -47c27 0 50 24 68 50l53 -50c-38 -68 -80 -87 -116 -87c-58 0 -84 46 -131 46c-28 0 -51 -24 -69 -50zM41 0l80 479h122l-12 -70c33 53 87 83 157 83c115 0 162 -77 142 -202l-50 -290h-122l45 272
c12 68 -12 106 -75 106c-62 0 -109 -38 -119 -107v4l-46 -275h-122z" />
    <glyph glyph-name="oacute" unicode="&#xf3;" 
d="M391 688h144l-155 -156h-113zM272 -13c-140 0 -227 91 -227 226c0 166 123 279 279 279c145 0 228 -96 228 -225c0 -176 -122 -280 -280 -280zM284 99c88 0 144 62 144 157c0 72 -45 124 -116 124c-86 0 -144 -67 -144 -156c0 -76 44 -125 116 -125z" />
    <glyph glyph-name="obreve" unicode="&#x14f;" 
d="M339 522c-88 0 -150 66 -135 160h85c-9 -54 16 -80 53 -80c39 0 69 26 78 80h87c-16 -94 -78 -160 -168 -160zM272 -13c-140 0 -227 91 -227 226c0 166 123 279 279 279c145 0 228 -96 228 -225c0 -176 -122 -280 -280 -280zM284 99c88 0 144 62 144 157
c0 72 -45 124 -116 124c-86 0 -144 -67 -144 -156c0 -76 44 -125 116 -125z" />
    <glyph glyph-name="ocircumflex" unicode="&#xf4;" 
d="M278 532h-119l143 156h110l95 -156h-112l-46 85zM272 -13c-140 0 -227 91 -227 226c0 166 123 279 279 279c145 0 228 -96 228 -225c0 -176 -122 -280 -280 -280zM284 99c88 0 144 62 144 157c0 72 -45 124 -116 124c-86 0 -144 -67 -144 -156c0 -76 44 -125 116 -125z
" />
    <glyph glyph-name="odieresis" unicode="&#xf6;" 
d="M187 599c0 40 36 76 76 76c31 0 56 -25 56 -56c0 -39 -37 -75 -77 -75c-32 0 -55 24 -55 55zM369 599c0 40 36 76 75 76c33 0 56 -25 56 -56c0 -39 -36 -75 -76 -75c-32 0 -55 24 -55 55zM272 -13c-140 0 -227 91 -227 226c0 166 123 279 279 279c145 0 228 -96 228 -225
c0 -176 -122 -280 -280 -280zM284 99c88 0 144 62 144 157c0 72 -45 124 -116 124c-86 0 -144 -67 -144 -156c0 -76 44 -125 116 -125z" />
    <glyph glyph-name="ograve" unicode="&#xf2;" 
d="M324 688l73 -156h-109l-106 156h142zM272 -13c-140 0 -227 91 -227 226c0 166 123 279 279 279c145 0 228 -96 228 -225c0 -176 -122 -280 -280 -280zM284 99c88 0 144 62 144 157c0 72 -45 124 -116 124c-86 0 -144 -67 -144 -156c0 -76 44 -125 116 -125z" />
    <glyph glyph-name="ohungarumlaut" unicode="&#x151;" 
d="M304 688h121l-148 -156h-95zM480 688h128l-154 -156h-95zM272 -13c-140 0 -227 91 -227 226c0 166 123 279 279 279c145 0 228 -96 228 -225c0 -176 -122 -280 -280 -280zM284 99c88 0 144 62 144 157c0 72 -45 124 -116 124c-86 0 -144 -67 -144 -156
c0 -76 44 -125 116 -125z" />
    <glyph glyph-name="omacron" unicode="&#x14d;" 
d="M203 659h297l-14 -90h-297zM272 -13c-140 0 -227 91 -227 226c0 166 123 279 279 279c145 0 228 -96 228 -225c0 -176 -122 -280 -280 -280zM284 99c88 0 144 62 144 157c0 72 -45 124 -116 124c-86 0 -144 -67 -144 -156c0 -76 44 -125 116 -125z" />
    <glyph glyph-name="oslash" unicode="&#xf8;" horiz-adv-x="589" 
d="M268 -13c-46 0 -86 10 -119 28l-49 -58l-59 47l50 58c-32 39 -49 91 -49 151c0 166 122 279 279 279c44 0 82 -9 114 -25l50 59l59 -47l-49 -58c34 -39 53 -93 53 -154c0 -176 -122 -280 -280 -280zM164 224c0 -23 4 -44 12 -61l178 209c-14 5 -29 8 -46 8
c-86 0 -144 -67 -144 -156zM280 99c88 0 144 62 144 157c0 24 -5 46 -14 65l-181 -212c15 -7 32 -10 51 -10z" />
    <glyph glyph-name="otilde" unicode="&#xf5;" 
d="M214 536l-53 50c38 69 80 88 117 88c58 0 83 -47 131 -47c27 0 50 24 68 50l53 -50c-38 -68 -80 -87 -116 -87c-58 0 -84 46 -131 46c-28 0 -51 -24 -69 -50zM272 -13c-140 0 -227 91 -227 226c0 166 123 279 279 279c145 0 228 -96 228 -225c0 -176 -122 -280 -280 -280
zM284 99c88 0 144 62 144 157c0 72 -45 124 -116 124c-86 0 -144 -67 -144 -156c0 -76 44 -125 116 -125z" />
    <glyph glyph-name="oe" unicode="&#x153;" horiz-adv-x="929" 
d="M273 -13c-141 0 -228 91 -228 226c0 166 123 279 279 279c80 0 141 -33 177 -87c48 55 117 87 197 87c126 0 210 -83 211 -197c0 -31 -7 -74 -14 -91h-354c5 -69 48 -110 121 -110c50 0 89 20 121 49l62 -88c-42 -41 -116 -68 -198 -68c-81 0 -140 29 -176 79
c-48 -51 -116 -79 -198 -79zM686 389c-64 0 -114 -36 -134 -100h235c-3 66 -40 100 -101 100zM284 99c87 0 143 62 143 157c0 72 -44 124 -115 124c-86 0 -143 -67 -143 -156c0 -76 43 -125 115 -125z" />
    <glyph glyph-name="thorn" unicode="&#xfe;" horiz-adv-x="613" 
d="M133 -196h-123l148 884h123l-46 -273c40 47 94 77 159 77c118 0 193 -82 193 -211c0 -176 -106 -294 -253 -294c-78 0 -129 35 -156 84zM318 98c79 0 144 59 144 160c0 71 -37 123 -114 123c-82 0 -142 -68 -142 -169c0 -67 45 -114 112 -114z" />
    <glyph glyph-name="racute" unicode="&#x155;" horiz-adv-x="406" 
d="M332 688h144l-155 -156h-113zM41 0l80 479h122l-12 -74c30 52 74 87 132 87c36 0 64 -7 81 -23l-67 -115c-15 14 -38 20 -64 20c-44 0 -91 -32 -105 -106v1l-45 -269h-122z" />
    <glyph glyph-name="rcaron" unicode="&#x159;" horiz-adv-x="406" 
d="M329 532h-111l-95 156h113l45 -85l71 85h119zM41 0l80 479h122l-12 -74c30 52 74 87 132 87c36 0 64 -7 81 -23l-67 -115c-15 14 -38 20 -64 20c-44 0 -91 -32 -105 -106v1l-45 -269h-122z" />
    <glyph glyph-name="rcommaaccent" unicode="&#x157;" horiz-adv-x="406" 
d="M41 0l80 479h122l-12 -74c30 52 74 87 132 87c36 0 64 -7 81 -23l-67 -115c-15 14 -38 20 -64 20c-44 0 -91 -32 -105 -106v1l-45 -269h-122zM155 -51l-75 -150h-96l51 150h120z" />
    <glyph glyph-name="sacute" unicode="&#x15b;" horiz-adv-x="460" 
d="M339 688h144l-155 -156h-113zM211 -13c-89 0 -160 31 -205 79l79 81c34 -42 82 -63 136 -63c48 0 76 21 76 53c0 78 -226 49 -226 206c0 81 66 149 196 149c87 0 153 -28 188 -78l-83 -74c-27 38 -66 55 -109 55c-46 0 -70 -20 -70 -47c0 -77 227 -48 227 -201
c0 -91 -73 -160 -209 -160z" />
    <glyph glyph-name="scaron" unicode="&#x161;" horiz-adv-x="460" 
d="M336 532h-111l-95 156h113l45 -85l71 85h119zM211 -13c-89 0 -160 31 -205 79l79 81c34 -42 82 -63 136 -63c48 0 76 21 76 53c0 78 -226 49 -226 206c0 81 66 149 196 149c87 0 153 -28 188 -78l-83 -74c-27 38 -66 55 -109 55c-46 0 -70 -20 -70 -47
c0 -77 227 -48 227 -201c0 -91 -73 -160 -209 -160z" />
    <glyph glyph-name="scedilla" unicode="&#x15f;" horiz-adv-x="460" 
d="M420 147c0 -80 -57 -143 -164 -157l-66 -186l-99 40l83 145c-72 7 -129 36 -168 77l79 81c34 -42 82 -63 136 -63c48 0 76 21 76 53c0 78 -226 49 -226 206c0 81 66 149 196 149c87 0 153 -28 188 -78l-83 -74c-27 38 -66 55 -109 55c-46 0 -70 -20 -70 -47
c0 -77 227 -48 227 -201z" />
    <glyph glyph-name="scircumflex" unicode="&#x15d;" horiz-adv-x="460" 
d="M226 532h-119l143 156h110l95 -156h-112l-46 85zM211 -13c-89 0 -160 31 -205 79l79 81c34 -42 82 -63 136 -63c48 0 76 21 76 53c0 78 -226 49 -226 206c0 81 66 149 196 149c87 0 153 -28 188 -78l-83 -74c-27 38 -66 55 -109 55c-46 0 -70 -20 -70 -47
c0 -77 227 -48 227 -201c0 -91 -73 -160 -209 -160z" />
    <glyph glyph-name="scommaaccent" unicode="&#x219;" horiz-adv-x="460" 
d="M211 -13c-89 0 -160 31 -205 79l79 81c34 -42 82 -63 136 -63c48 0 76 21 76 53c0 78 -226 49 -226 206c0 81 66 149 196 149c87 0 153 -28 188 -78l-83 -74c-27 38 -66 55 -109 55c-46 0 -70 -20 -70 -47c0 -77 227 -48 227 -201c0 -91 -73 -160 -209 -160zM268 -51
l-75 -150h-96l51 150h120z" />
    <glyph glyph-name="germandbls" unicode="&#xdf;" horiz-adv-x="551" 
d="M273 -13c-47 0 -81 6 -103 16l39 103c22 -11 43 -13 65 -13c69 0 120 41 120 118c0 60 -36 99 -107 99h-44l15 99h37c74 0 110 45 110 99c0 45 -28 79 -86 79c-60 0 -102 -37 -115 -113l-79 -474h-122l79 472c24 141 106 229 251 229c120 0 191 -70 191 -157
c0 -80 -41 -143 -117 -173c71 -25 107 -80 107 -157c0 -158 -108 -227 -241 -227z" />
    <glyph glyph-name="tbar" unicode="&#x167;" horiz-adv-x="411" 
d="M48 286h66l14 85h-78l17 108h79l21 124h122l-21 -124h136l-18 -108h-134l-14 -85h95l-14 -92h-97l-3 -20c-9 -55 12 -73 44 -73c22 0 43 12 59 26l39 -95c-36 -28 -82 -45 -136 -45c-99 0 -151 66 -131 184l4 23h-64z" />
    <glyph glyph-name="tcaron" unicode="&#x165;" horiz-adv-x="411" 
d="M478 688l-68 -166h-89l46 166h111zM50 371l17 108h79l21 124h122l-21 -124h136l-18 -108h-134l-33 -197c-9 -55 12 -73 44 -73c22 0 43 12 59 26l39 -95c-36 -28 -82 -45 -136 -45c-99 0 -151 66 -131 184l34 200h-78z" />
    <glyph glyph-name="tcedilla" unicode="&#x163;" horiz-adv-x="411" 
d="M50 371l17 108h79l21 124h122l-21 -124h136l-18 -108h-134l-33 -197c-9 -55 12 -73 44 -73c22 0 43 12 59 26l39 -95c-25 -19 -54 -33 -87 -40l-67 -188l-99 40l83 146c-77 14 -115 77 -97 181l34 200h-78z" />
    <glyph glyph-name="tcommaaccent" unicode="&#x21b;" horiz-adv-x="411" 
d="M50 371l17 108h79l21 124h122l-21 -124h136l-18 -108h-134l-33 -197c-9 -55 12 -73 44 -73c22 0 43 12 59 26l39 -95c-36 -28 -82 -45 -136 -45c-99 0 -151 66 -131 184l34 200h-78zM285 -51l-75 -150h-96l51 150h120z" />
    <glyph glyph-name="uacute" unicode="&#xfa;" 
d="M398 688h144l-155 -156h-113zM237 479l-44 -260c-15 -86 23 -118 85 -118c68 0 106 43 119 122l43 256h122l-45 -266c-23 -142 -97 -225 -247 -225c-146 0 -223 86 -199 230l43 261h123z" />
    <glyph glyph-name="ubreve" unicode="&#x16d;" 
d="M347 522c-88 0 -150 66 -135 160h85c-9 -54 16 -80 53 -80c39 0 69 26 78 80h87c-16 -94 -78 -160 -168 -160zM237 479l-44 -260c-15 -86 23 -118 85 -118c68 0 106 43 119 122l43 256h122l-45 -266c-23 -142 -97 -225 -247 -225c-146 0 -223 86 -199 230l43 261h123z
" />
    <glyph glyph-name="ucircumflex" unicode="&#xfb;" 
d="M285 532h-119l143 156h110l95 -156h-112l-46 85zM237 479l-44 -260c-15 -86 23 -118 85 -118c68 0 106 43 119 122l43 256h122l-45 -266c-23 -142 -97 -225 -247 -225c-146 0 -223 86 -199 230l43 261h123z" />
    <glyph glyph-name="udieresis" unicode="&#xfc;" 
d="M195 599c0 40 36 76 76 76c31 0 56 -25 56 -56c0 -39 -37 -75 -77 -75c-32 0 -55 24 -55 55zM377 599c0 40 36 76 75 76c33 0 56 -25 56 -56c0 -39 -36 -75 -76 -75c-32 0 -55 24 -55 55zM237 479l-44 -260c-15 -86 23 -118 85 -118c68 0 106 43 119 122l43 256h122
l-45 -266c-23 -142 -97 -225 -247 -225c-146 0 -223 86 -199 230l43 261h123z" />
    <glyph glyph-name="ugrave" unicode="&#xf9;" 
d="M331 688l73 -156h-109l-106 156h142zM237 479l-44 -260c-15 -86 23 -118 85 -118c68 0 106 43 119 122l43 256h122l-45 -266c-23 -142 -97 -225 -247 -225c-146 0 -223 86 -199 230l43 261h123z" />
    <glyph glyph-name="uhungarumlaut" unicode="&#x171;" 
d="M311 688h121l-148 -156h-95zM487 688h128l-154 -156h-95zM237 479l-44 -260c-15 -86 23 -118 85 -118c68 0 106 43 119 122l43 256h122l-45 -266c-23 -142 -97 -225 -247 -225c-146 0 -223 86 -199 230l43 261h123z" />
    <glyph glyph-name="umacron" unicode="&#x16b;" 
d="M211 659h297l-14 -90h-297zM237 479l-44 -260c-15 -86 23 -118 85 -118c68 0 106 43 119 122l43 256h122l-45 -266c-23 -142 -97 -225 -247 -225c-146 0 -223 86 -199 230l43 261h123z" />
    <glyph glyph-name="uogonek" unicode="&#x173;" 
d="M237 479l-44 -260c-15 -86 23 -118 85 -118c68 0 106 43 119 122l43 256h122l-45 -266c-18 -114 -70 -190 -166 -215c-71 -32 -110 -68 -110 -103c0 -18 12 -28 31 -28c18 0 34 6 54 22l31 -59c-25 -25 -65 -43 -112 -43c-55 0 -100 29 -100 82c0 46 27 88 75 123
c-113 18 -170 100 -149 226l43 261h123z" />
    <glyph glyph-name="uring" unicode="&#x16f;" 
d="M339 522c-62 0 -106 42 -106 98c0 74 63 134 137 134c63 0 105 -42 105 -97c0 -74 -61 -135 -136 -135zM347 587c33 0 59 28 59 60c0 24 -17 43 -42 43c-31 0 -60 -27 -60 -61c0 -25 17 -42 43 -42zM237 479l-44 -260c-15 -86 23 -118 85 -118c68 0 106 43 119 122
l43 256h122l-45 -266c-23 -142 -97 -225 -247 -225c-146 0 -223 86 -199 230l43 261h123z" />
    <glyph glyph-name="utilde" unicode="&#x169;" 
d="M221 536l-53 50c38 69 80 88 117 88c58 0 83 -47 131 -47c27 0 50 24 68 50l53 -50c-38 -68 -80 -87 -116 -87c-58 0 -84 46 -131 46c-28 0 -51 -24 -69 -50zM237 479l-44 -260c-15 -86 23 -118 85 -118c68 0 106 43 119 122l43 256h122l-45 -266
c-23 -142 -97 -225 -247 -225c-146 0 -223 86 -199 230l43 261h123z" />
    <glyph glyph-name="wacute" unicode="&#x1e83;" horiz-adv-x="815" 
d="M508 688h144l-155 -156h-113zM272 0h-135l-71 479h128l35 -350l152 350h125l48 -355l154 355h127l-228 -479h-141l-48 329z" />
    <glyph glyph-name="wcircumflex" unicode="&#x175;" horiz-adv-x="815" 
d="M395 532h-119l143 156h110l95 -156h-112l-46 85zM272 0h-135l-71 479h128l35 -350l152 350h125l48 -355l154 355h127l-228 -479h-141l-48 329z" />
    <glyph glyph-name="wdieresis" unicode="&#x1e85;" horiz-adv-x="815" 
d="M304 599c0 40 36 76 76 76c31 0 56 -25 56 -56c0 -39 -37 -75 -77 -75c-32 0 -55 24 -55 55zM486 599c0 40 36 76 75 76c33 0 56 -25 56 -56c0 -39 -36 -75 -76 -75c-32 0 -55 24 -55 55zM272 0h-135l-71 479h128l35 -350l152 350h125l48 -355l154 355h127l-228 -479
h-141l-48 329z" />
    <glyph glyph-name="wgrave" unicode="&#x1e81;" horiz-adv-x="815" 
d="M441 688l73 -156h-109l-106 156h142zM272 0h-135l-71 479h128l35 -350l152 350h125l48 -355l154 355h127l-228 -479h-141l-48 329z" />
    <glyph glyph-name="yacute" unicode="&#xfd;" horiz-adv-x="537" 
d="M378 688h144l-155 -156h-113zM192 -8l1 1l-139 486h130l83 -334l164 334h135l-269 -511c-68 -131 -130 -177 -221 -177c-53 0 -100 18 -127 47l64 99c20 -23 50 -32 81 -32c37 0 70 31 98 87z" />
    <glyph glyph-name="ycircumflex" unicode="&#x177;" horiz-adv-x="537" 
d="M265 532h-119l143 156h110l95 -156h-112l-46 85zM192 -8l1 1l-139 486h130l83 -334l164 334h135l-269 -511c-68 -131 -130 -177 -221 -177c-53 0 -100 18 -127 47l64 99c20 -23 50 -32 81 -32c37 0 70 31 98 87z" />
    <glyph glyph-name="ydieresis" unicode="&#xff;" horiz-adv-x="537" 
d="M174 599c0 40 36 76 76 76c31 0 56 -25 56 -56c0 -39 -37 -75 -77 -75c-32 0 -55 24 -55 55zM356 599c0 40 36 76 75 76c33 0 56 -25 56 -56c0 -39 -36 -75 -76 -75c-32 0 -55 24 -55 55zM192 -8l1 1l-139 486h130l83 -334l164 334h135l-269 -511
c-68 -131 -130 -177 -221 -177c-53 0 -100 18 -127 47l64 99c20 -23 50 -32 81 -32c37 0 70 31 98 87z" />
    <glyph glyph-name="ygrave" unicode="&#x1ef3;" horiz-adv-x="537" 
d="M311 688l73 -156h-109l-106 156h142zM192 -8l1 1l-139 486h130l83 -334l164 334h135l-269 -511c-68 -131 -130 -177 -221 -177c-53 0 -100 18 -127 47l64 99c20 -23 50 -32 81 -32c37 0 70 31 98 87z" />
    <glyph glyph-name="zacute" unicode="&#x17a;" horiz-adv-x="485" 
d="M358 688h144l-155 -156h-113zM33 94l285 282h-229l17 103h387l-16 -98l-288 -278h250l-18 -103h-403z" />
    <glyph glyph-name="zcaron" unicode="&#x17e;" horiz-adv-x="485" 
d="M355 532h-111l-95 156h113l45 -85l71 85h119zM33 94l285 282h-229l17 103h387l-16 -98l-288 -278h250l-18 -103h-403z" />
    <glyph glyph-name="zdotaccent" unicode="&#x17c;" horiz-adv-x="485" 
d="M240 603c0 44 40 83 83 83c36 0 61 -27 61 -61c0 -42 -40 -82 -83 -82c-36 0 -61 27 -61 60zM33 94l285 282h-229l17 103h387l-16 -98l-288 -278h250l-18 -103h-403z" />
    <glyph glyph-name="aacute.alt" horiz-adv-x="623" 
d="M421 688h144l-155 -156h-113zM44 199c0 167 105 293 261 293c74 0 122 -28 148 -76l11 63h122l-46 -274h-1l-8 -53c-6 -37 11 -51 33 -51c7 0 15 2 22 5l-5 -107c-18 -6 -43 -10 -61 -10c-48 0 -93 22 -109 77c-39 -51 -97 -79 -174 -79c-108 0 -193 75 -193 212z
M425 266c0 69 -42 115 -111 115c-84 0 -145 -70 -145 -165c0 -70 35 -118 110 -118c66 0 122 45 140 117l2 12h1c2 12 3 25 3 39z" />
    <glyph glyph-name="abreve.alt" horiz-adv-x="623" 
d="M369 522c-88 0 -150 66 -135 160h85c-9 -54 16 -80 53 -80c39 0 69 26 78 80h87c-16 -94 -78 -160 -168 -160zM44 199c0 167 105 293 261 293c74 0 122 -28 148 -76l11 63h122l-46 -274h-1l-8 -53c-6 -37 11 -51 33 -51c7 0 15 2 22 5l-5 -107c-18 -6 -43 -10 -61 -10
c-48 0 -93 22 -109 77c-39 -51 -97 -79 -174 -79c-108 0 -193 75 -193 212zM425 266c0 69 -42 115 -111 115c-84 0 -145 -70 -145 -165c0 -70 35 -118 110 -118c66 0 122 45 140 117l2 12h1c2 12 3 25 3 39z" />
    <glyph glyph-name="acircumflex.alt" horiz-adv-x="623" 
d="M308 532h-119l143 156h110l95 -156h-112l-46 85zM44 199c0 167 105 293 261 293c74 0 122 -28 148 -76l11 63h122l-46 -274h-1l-8 -53c-6 -37 11 -51 33 -51c7 0 15 2 22 5l-5 -107c-18 -6 -43 -10 -61 -10c-48 0 -93 22 -109 77c-39 -51 -97 -79 -174 -79
c-108 0 -193 75 -193 212zM425 266c0 69 -42 115 -111 115c-84 0 -145 -70 -145 -165c0 -70 35 -118 110 -118c66 0 122 45 140 117l2 12h1c2 12 3 25 3 39z" />
    <glyph glyph-name="adieresis.alt" horiz-adv-x="623" 
d="M217 599c0 40 36 76 76 76c31 0 56 -25 56 -56c0 -39 -37 -75 -77 -75c-32 0 -55 24 -55 55zM399 599c0 40 36 76 75 76c33 0 56 -25 56 -56c0 -39 -36 -75 -76 -75c-32 0 -55 24 -55 55zM44 199c0 167 105 293 261 293c74 0 122 -28 148 -76l11 63h122l-46 -274h-1
l-8 -53c-6 -37 11 -51 33 -51c7 0 15 2 22 5l-5 -107c-18 -6 -43 -10 -61 -10c-48 0 -93 22 -109 77c-39 -51 -97 -79 -174 -79c-108 0 -193 75 -193 212zM425 266c0 69 -42 115 -111 115c-84 0 -145 -70 -145 -165c0 -70 35 -118 110 -118c66 0 122 45 140 117l2 12h1
c2 12 3 25 3 39z" />
    <glyph glyph-name="agrave.alt" horiz-adv-x="623" 
d="M354 688l73 -156h-109l-106 156h142zM44 199c0 167 105 293 261 293c74 0 122 -28 148 -76l11 63h122l-46 -274h-1l-8 -53c-6 -37 11 -51 33 -51c7 0 15 2 22 5l-5 -107c-18 -6 -43 -10 -61 -10c-48 0 -93 22 -109 77c-39 -51 -97 -79 -174 -79c-108 0 -193 75 -193 212z
M425 266c0 69 -42 115 -111 115c-84 0 -145 -70 -145 -165c0 -70 35 -118 110 -118c66 0 122 45 140 117l2 12h1c2 12 3 25 3 39z" />
    <glyph glyph-name="amacron.alt" horiz-adv-x="623" 
d="M233 659h297l-14 -90h-297zM44 199c0 167 105 293 261 293c74 0 122 -28 148 -76l11 63h122l-46 -274h-1l-8 -53c-6 -37 11 -51 33 -51c7 0 15 2 22 5l-5 -107c-18 -6 -43 -10 -61 -10c-48 0 -93 22 -109 77c-39 -51 -97 -79 -174 -79c-108 0 -193 75 -193 212zM425 266
c0 69 -42 115 -111 115c-84 0 -145 -70 -145 -165c0 -70 35 -118 110 -118c66 0 122 45 140 117l2 12h1c2 12 3 25 3 39z" />
    <glyph glyph-name="aogonek.alt" horiz-adv-x="623" 
d="M44 199c0 167 105 293 261 293c74 0 122 -28 148 -76l11 63h122l-46 -274h-1l-8 -53c-6 -37 11 -51 33 -51c7 0 15 2 22 5l-5 -107c-74 -32 -115 -69 -115 -105c0 -18 12 -28 31 -28c18 0 34 6 54 22l31 -59c-25 -25 -65 -43 -112 -43c-55 0 -100 29 -100 82
c0 51 34 98 91 134c-23 12 -41 33 -50 64c-39 -51 -97 -79 -174 -79c-108 0 -193 75 -193 212zM425 266c0 69 -42 115 -111 115c-84 0 -145 -70 -145 -165c0 -70 35 -118 110 -118c66 0 122 45 140 117l2 12h1c2 12 3 25 3 39z" />
    <glyph glyph-name="aring.alt" horiz-adv-x="623" 
d="M362 522c-62 0 -106 42 -106 98c0 74 63 134 137 134c63 0 105 -42 105 -97c0 -74 -61 -135 -136 -135zM370 587c33 0 59 28 59 60c0 24 -17 43 -42 43c-31 0 -60 -27 -60 -61c0 -25 17 -42 43 -42zM44 199c0 167 105 293 261 293c74 0 122 -28 148 -76l11 63h122
l-46 -274h-1l-8 -53c-6 -37 11 -51 33 -51c7 0 15 2 22 5l-5 -107c-18 -6 -43 -10 -61 -10c-48 0 -93 22 -109 77c-39 -51 -97 -79 -174 -79c-108 0 -193 75 -193 212zM425 266c0 69 -42 115 -111 115c-84 0 -145 -70 -145 -165c0 -70 35 -118 110 -118c66 0 122 45 140 117
l2 12h1c2 12 3 25 3 39z" />
    <glyph glyph-name="atilde.alt" horiz-adv-x="623" 
d="M244 536l-53 50c38 69 80 88 117 88c58 0 83 -47 131 -47c27 0 50 24 68 50l53 -50c-38 -68 -80 -87 -116 -87c-58 0 -84 46 -131 46c-28 0 -51 -24 -69 -50zM44 199c0 167 105 293 261 293c74 0 122 -28 148 -76l11 63h122l-46 -274h-1l-8 -53c-6 -37 11 -51 33 -51
c7 0 15 2 22 5l-5 -107c-18 -6 -43 -10 -61 -10c-48 0 -93 22 -109 77c-39 -51 -97 -79 -174 -79c-108 0 -193 75 -193 212zM425 266c0 69 -42 115 -111 115c-84 0 -145 -70 -145 -165c0 -70 35 -118 110 -118c66 0 122 45 140 117l2 12h1c2 12 3 25 3 39z" />
    <glyph glyph-name="jdotless.alt" horiz-adv-x="273" 
d="M-68 -209h-28l18 116h23c58 0 81 36 88 79l78 493h123l-78 -494c-19 -118 -103 -194 -224 -194z" />
    <glyph glyph-name="jcircumflex.alt" horiz-adv-x="273" 
d="M127 532h-119l143 156h110l95 -156h-112l-46 85zM-68 -209h-28l18 116h23c58 0 81 36 88 79l78 493h123l-78 -494c-19 -118 -103 -194 -224 -194z" />
    <glyph glyph-name="lacute.alt" horiz-adv-x="265" 
d="M289 897h144l-155 -156h-113zM41 0l115 688h122l-115 -688h-122z" />
    <glyph glyph-name="lcaron.alt" horiz-adv-x="265" 
d="M41 0l115 688h122l-115 -688h-122zM439 688l-68 -166h-89l46 166h111z" />
    <glyph glyph-name="lcommaaccent.alt" horiz-adv-x="265" 
d="M41 0l115 688h122l-115 -688h-122zM151 -51l-75 -150h-96l51 150h120z" />
    <glyph glyph-name="ldot.alt" horiz-adv-x="386" 
d="M41 0l115 688h122l-115 -688h-122zM317 228c-35 0 -60 25 -60 59c0 49 40 84 84 84c36 0 61 -26 61 -61c0 -51 -41 -82 -85 -82z" />
    <glyph glyph-name="lslash.alt" horiz-adv-x="265" 
d="M41 0l49 291l-62 -23l17 107l63 23l48 290h122l-40 -242l56 21l-17 -107l-57 -21l-57 -339h-122z" />
    <glyph glyph-name="yacute.alt" horiz-adv-x="537" 
d="M371 688h144l-155 -156h-113zM167 -196h-131l116 207l-132 468h127l83 -326l171 326h131z" />
    <glyph glyph-name="ycircumflex.alt" horiz-adv-x="537" 
d="M258 532h-119l143 156h110l95 -156h-112l-46 85zM167 -196h-131l116 207l-132 468h127l83 -326l171 326h131z" />
    <glyph glyph-name="ydieresis.alt" horiz-adv-x="537" 
d="M167 599c0 40 36 76 76 76c31 0 56 -25 56 -56c0 -39 -37 -75 -77 -75c-32 0 -55 24 -55 55zM349 599c0 40 36 76 75 76c33 0 56 -25 56 -56c0 -39 -36 -75 -76 -75c-32 0 -55 24 -55 55zM167 -196h-131l116 207l-132 468h127l83 -326l171 326h131z" />
    <glyph glyph-name="ygrave.alt" horiz-adv-x="537" 
d="M304 688l73 -156h-109l-106 156h142zM167 -196h-131l116 207l-132 468h127l83 -326l171 326h131z" />
    <glyph glyph-name="fl.alt" horiz-adv-x="606" 
d="M61 371l18 108h78l2 10c22 134 107 212 240 212c43 0 79 -6 108 -18h112l-114 -683h-122l95 569c-21 16 -49 25 -86 25c-58 0 -99 -34 -112 -104l-2 -11h105l-18 -108h-105l-61 -371h-123l63 371h-78z" />
    <glyph glyph-name="ordfeminine" unicode="&#xaa;" horiz-adv-x="375" 
d="M179 314c-77 0 -123 53 -123 138c0 114 72 197 167 197c45 0 75 -18 91 -51l7 42h98l-53 -318h-98l6 38c-25 -30 -57 -46 -95 -46zM218 404c44 0 75 39 75 86c0 37 -24 64 -61 64c-44 0 -75 -36 -75 -84c0 -38 23 -66 61 -66z" />
    <glyph glyph-name="ordmasculine" unicode="&#xba;" horiz-adv-x="369" 
d="M215 314c-96 0 -152 65 -152 150c0 106 79 186 185 186c89 0 152 -57 152 -151c0 -114 -83 -185 -185 -185zM225 404c43 0 75 33 75 85c0 43 -25 70 -62 70c-43 0 -76 -37 -76 -86c0 -39 23 -69 63 -69z" />
    <glyph glyph-name="Delta" unicode="&#x394;" horiz-adv-x="694" 
d="M-26 0l364 641h147l151 -641h-662zM174 111h301l-90 381z" />
    <glyph glyph-name="Omega" unicode="&#x3a9;" horiz-adv-x="710" 
d="M392 530c-125 0 -221 -88 -221 -225c0 -93 55 -161 114 -196l-18 -109h-274l18 111l122 -3c-62 54 -94 125 -94 204c0 195 161 342 374 342c191 0 295 -119 295 -268c0 -126 -61 -217 -167 -277l118 2l-18 -111h-278l18 109c120 50 190 120 190 246
c0 105 -67 175 -179 175z" />
    <glyph glyph-name="mu" unicode="&#x3bc;" horiz-adv-x="583" 
d="M256 -12c-40 0 -75 10 -99 31l-31 -187h-123l108 647h123l-44 -264c-11 -76 23 -114 85 -114c68 0 106 43 119 122l43 256h122l-44 -266c-24 -142 -101 -225 -259 -225z" />
    <glyph glyph-name="questiondown" unicode="&#xbf;" horiz-adv-x="447" 
d="M277 494c39 0 68 -24 68 -66c0 -52 -43 -93 -92 -93c-40 0 -68 29 -68 67c0 57 43 92 92 92zM163 216l76 45l42 -88l-80 -50c-61 -37 -84 -75 -84 -114c0 -40 29 -67 74 -67c50 0 90 27 129 73l68 -73c-51 -72 -121 -114 -221 -114c-118 0 -175 72 -175 156
c0 90 42 155 171 232z" />
    <glyph glyph-name="periodcentered" unicode="&#xb7;" horiz-adv-x="398" 
d="M203 228c-35 0 -60 25 -60 59c0 49 40 84 84 84c36 0 61 -26 61 -61c0 -51 -41 -82 -85 -82z" />
    <glyph glyph-name="softhyphen" unicode="&#xad;" horiz-adv-x="326" 
d="M65 298h246l-18 -104h-246z" />
    <glyph glyph-name="quotesinglbase" unicode="&#x201a;" horiz-adv-x="205" 
d="M95 133c35 0 57 -25 56 -56c-1 -24 -13 -44 -29 -63l-77 -100h-56l66 100c-22 7 -35 27 -35 49c2 41 35 70 75 70z" />
    <glyph glyph-name="quotedblbase" unicode="&#x201e;" horiz-adv-x="367" 
d="M95 133c35 0 57 -25 56 -56c-1 -24 -13 -44 -29 -63l-77 -100h-56l66 100c-22 7 -35 27 -35 49c2 41 35 70 75 70zM258 133c35 0 57 -25 56 -56c-1 -24 -13 -44 -29 -63l-77 -100h-56l66 100c-22 7 -35 27 -35 49c2 41 35 70 75 70z" />
    <glyph glyph-name="florin" unicode="&#x192;" horiz-adv-x="479" 
d="M130 15l42 249h-101l15 97h103l25 150c21 125 92 190 207 190c64 0 103 -18 129 -49l-75 -92c-12 15 -36 27 -61 27c-41 0 -71 -30 -80 -85l-24 -141h129l-16 -97h-129l-43 -256c-23 -140 -93 -190 -206 -190c-51 0 -91 18 -113 43l73 90c12 -12 29 -21 54 -21
c33 0 61 27 71 85z" />
    <glyph glyph-name="logicalnot" unicode="&#xac;" horiz-adv-x="505" 
d="M450 127h-117l24 139h-314l18 110h431z" />
    <glyph glyph-name="infinity" unicode="&#x221e;" horiz-adv-x="519" 
d="M508 353c0 -108 -62 -173 -147 -173c-59 0 -85 31 -100 69c-29 -44 -70 -69 -111 -69c-60 0 -97 44 -97 110c0 112 64 172 148 172c57 0 83 -29 98 -65c32 43 72 65 113 65c60 0 96 -44 96 -109zM130 309c0 -29 17 -43 45 -43c20 0 48 11 69 42c-10 38 -20 70 -53 70
s-61 -27 -61 -69zM388 376c-22 0 -50 -8 -73 -37c10 -40 20 -75 55 -75c33 0 63 26 63 67c0 28 -18 45 -45 45z" />
    <glyph glyph-name="integral" unicode="&#x222b;" horiz-adv-x="490" 
d="M138 7l85 510c22 130 97 184 207 184c65 0 104 -18 130 -49l-76 -92c-11 15 -36 27 -61 27c-41 0 -71 -28 -81 -89l-84 -501c-20 -119 -90 -179 -203 -179c-52 0 -91 18 -113 43l73 90c12 -12 29 -21 53 -21c34 0 62 26 70 77z" />
    <glyph glyph-name="product" unicode="&#x220f;" horiz-adv-x="624" 
d="M454 524h-175l-121 -720h-125l121 720h-73l19 117h571l-19 -117h-73l-120 -720h-126z" />
    <glyph glyph-name="summation" unicode="&#x2211;" horiz-adv-x="508" 
d="M395 299l-17 -100l-252 -270h317l-21 -125h-476l24 143l289 311l-186 303l21 127h476l-21 -124h-312z" />
    <glyph glyph-name="radical" unicode="&#x221a;" horiz-adv-x="583" 
d="M344 0h-159l-62 368h-85l19 111h177l51 -362l241 571h132z" />
    <glyph glyph-name="partialdiff" unicode="&#x2202;" horiz-adv-x="573" 
d="M300 469c57 0 98 -15 124 -39c-36 127 -138 183 -197 212l96 76c142 -74 233 -212 233 -374c0 -246 -127 -357 -292 -357c-131 0 -221 81 -221 214c0 168 124 268 257 268zM277 98c80 0 148 69 148 161c0 64 -41 109 -110 109c-87 0 -149 -66 -149 -160
c0 -67 41 -110 111 -110z" />
    <glyph glyph-name="perthousand" unicode="&#x2030;" horiz-adv-x="1199" 
d="M224 329c-90 0 -145 61 -145 140c0 107 78 186 190 186c88 0 145 -60 145 -139c0 -117 -85 -187 -190 -187zM201 0h-97l538 641h96zM236 403c54 0 95 39 95 102c0 46 -32 74 -73 74c-56 0 -96 -37 -96 -100c0 -46 31 -76 74 -76zM577 -11c-90 0 -145 61 -145 140
c0 107 78 186 191 186c87 0 145 -60 145 -139c0 -117 -85 -187 -191 -187zM965 -11c-89 0 -144 61 -144 140c0 107 77 186 189 186c88 0 146 -60 146 -139c0 -117 -86 -187 -191 -187zM589 63c55 0 95 39 95 102c0 46 -32 74 -73 74c-55 0 -95 -37 -95 -100
c0 -46 30 -76 73 -76zM977 63c55 0 95 39 95 102c0 46 -32 74 -73 74c-56 0 -95 -37 -95 -100c0 -46 30 -76 73 -76z" />
    <glyph glyph-name="lozenge" unicode="&#x25ca;" horiz-adv-x="527" 
d="M513 320l-215 -320h-140l-100 320l214 321h139zM381 331l-59 194l-137 -214l59 -193z" />
    <glyph glyph-name="dieresis" unicode="&#xa8;" horiz-adv-x="400" 
d="M109 599c0 40 36 76 76 76c31 0 56 -25 56 -56c0 -39 -37 -75 -77 -75c-32 0 -55 24 -55 55zM291 599c0 40 36 76 75 76c33 0 56 -25 56 -56c0 -39 -36 -75 -76 -75c-32 0 -55 24 -55 55z" />
    <glyph glyph-name="dotaccent" unicode="&#x2d9;" horiz-adv-x="400" 
d="M195 603c0 44 40 83 83 83c36 0 61 -27 61 -61c0 -42 -40 -82 -83 -82c-36 0 -61 27 -61 60z" />
    <glyph glyph-name="acute" unicode="&#xb4;" horiz-adv-x="400" 
d="M258 688h144l-155 -156h-113z" />
    <glyph glyph-name="hungarumlaut" unicode="&#x2dd;" horiz-adv-x="400" 
d="M175 687h121l-148 -156h-95zM351 687h128l-154 -156h-95z" />
    <glyph glyph-name="circumflex" unicode="&#x2c6;" horiz-adv-x="400" 
d="M197 532h-119l143 156h110l95 -156h-112l-46 85z" />
    <glyph glyph-name="caron" unicode="&#x2c7;" horiz-adv-x="400" 
d="M309 532h-111l-95 156h113l45 -85l71 85h119z" />
    <glyph glyph-name="breve" unicode="&#x2d8;" horiz-adv-x="400" 
d="M262 522c-88 0 -150 66 -135 160h85c-9 -54 16 -80 53 -80c39 0 69 26 78 80h87c-16 -94 -78 -160 -168 -160z" />
    <glyph glyph-name="ring" unicode="&#x2da;" horiz-adv-x="400" 
d="M255 522c-62 0 -106 42 -106 98c0 74 63 134 137 134c63 0 105 -42 105 -97c0 -74 -61 -135 -136 -135zM263 587c33 0 59 28 59 60c0 24 -17 43 -42 43c-31 0 -60 -27 -60 -61c0 -25 17 -42 43 -42z" />
    <glyph glyph-name="tilde" unicode="&#x2dc;" horiz-adv-x="400" 
d="M135 536l-53 50c38 69 80 88 117 88c58 0 83 -47 131 -47c27 0 50 24 68 50l53 -50c-38 -68 -80 -87 -116 -87c-58 0 -84 46 -131 46c-28 0 -51 -24 -69 -50z" />
    <glyph glyph-name="macron" unicode="&#xaf;" horiz-adv-x="400" 
d="M125 659h297l-14 -90h-297z" />
    <glyph glyph-name="cedilla" unicode="&#xb8;" horiz-adv-x="400" 
d="M139 0h80l-70 -196l-99 40z" />
    <glyph glyph-name="ogonek" unicode="&#x2db;" horiz-adv-x="400" 
d="M189 35l58 -35c-74 -32 -115 -69 -115 -105c0 -18 12 -28 31 -28c18 0 34 6 54 22l31 -59c-25 -25 -65 -43 -112 -43c-55 0 -100 29 -100 82c0 67 59 127 153 166z" />
    <glyph glyph-name="commaaccent.alt" horiz-adv-x="400" 
d="M158 538l75 150h97l-51 -150h-121z" />
    <glyph glyph-name="dieresiscomb" unicode="&#x308;" horiz-adv-x="400" 
d="M109 599c0 40 36 76 76 76c31 0 56 -25 56 -56c0 -39 -37 -75 -77 -75c-32 0 -55 24 -55 55zM291 599c0 40 36 76 75 76c33 0 56 -25 56 -56c0 -39 -36 -75 -76 -75c-32 0 -55 24 -55 55z" />
    <glyph glyph-name="dotaccentcomb" unicode="&#x307;" horiz-adv-x="401" 
d="M195 603c0 44 40 83 83 83c36 0 61 -27 61 -61c0 -42 -40 -82 -83 -82c-36 0 -61 27 -61 60z" />
    <glyph glyph-name="gravecomb" unicode="&#x300;" horiz-adv-x="394" 
d="M217 688l73 -156h-109l-106 156h142z" />
    <glyph glyph-name="acutecomb" unicode="&#x301;" horiz-adv-x="400" 
d="M258 688h144l-155 -156h-113z" />
    <glyph glyph-name="hungarumlautcomb" unicode="&#x30b;" horiz-adv-x="400" 
d="M175 687h121l-148 -156h-95zM351 687h128l-154 -156h-95z" />
    <glyph glyph-name="caroncomb.alt" horiz-adv-x="400" 
d="M309 688l-68 -166h-89l46 166h111z" />
    <glyph glyph-name="circumflexcomb" unicode="&#x302;" horiz-adv-x="400" 
d="M197 532h-119l143 156h110l95 -156h-112l-46 85z" />
    <glyph glyph-name="caroncomb" unicode="&#x30c;" horiz-adv-x="400" 
d="M309 532h-111l-95 156h113l45 -85l71 85h119z" />
    <glyph glyph-name="brevecomb" unicode="&#x306;" horiz-adv-x="400" 
d="M262 522c-88 0 -150 66 -135 160h85c-9 -54 16 -80 53 -80c39 0 69 26 78 80h87c-16 -94 -78 -160 -168 -160z" />
    <glyph glyph-name="ringcomb" unicode="&#x30a;" horiz-adv-x="400" 
d="M255 522c-62 0 -106 42 -106 98c0 74 63 134 137 134c63 0 105 -42 105 -97c0 -74 -61 -135 -136 -135zM263 587c33 0 59 28 59 60c0 24 -17 43 -42 43c-31 0 -60 -27 -60 -61c0 -25 17 -42 43 -42z" />
    <glyph glyph-name="tildecomb" unicode="&#x303;" horiz-adv-x="404" 
d="M135 536l-53 50c38 69 80 88 117 88c58 0 83 -47 131 -47c27 0 50 24 68 50l53 -50c-38 -68 -80 -87 -116 -87c-58 0 -84 46 -131 46c-28 0 -51 -24 -69 -50z" />
    <glyph glyph-name="macroncomb" unicode="&#x304;" horiz-adv-x="400" 
d="M125 659h297l-14 -90h-297z" />
    <glyph glyph-name="commaaccentcomb" unicode="&#x326;" horiz-adv-x="400" 
d="M232 -51l-75 -150h-96l51 150h120z" />
    <glyph glyph-name="cedillacomb" unicode="&#x327;" horiz-adv-x="400" 
d="M139 0h80l-70 -196l-99 40z" />
    <glyph glyph-name="ogonekcomb" unicode="&#x328;" horiz-adv-x="398" 
d="M189 35l58 -35c-74 -32 -115 -69 -115 -105c0 -18 12 -28 31 -28c18 0 34 6 54 22l31 -59c-25 -25 -65 -43 -112 -43c-55 0 -100 29 -100 82c0 67 59 127 153 166z" />
    <glyph glyph-name="strokeshortcomb" unicode="&#x335;" horiz-adv-x="387" 
d="M59 297h285l-14 -92h-285z" />
    <glyph glyph-name="commaaccentcomb.alt" horiz-adv-x="400" 
d="M117 538l76 150h97l-51 -150h-122z" />
    <glyph glyph-name="commaaccent" horiz-adv-x="400" 
d="M239 -51l-75 -150h-95l50 150h120z" />
    </font>
</defs>
</svg>
