<?xml version="1.0" standalone="no"?>
<!DOCTYPE svg PUBLIC "-//W3C//DTD SVG 1.1//EN" "http://www.w3.org/Graphics/SVG/1.1/DTD/svg11.dtd" >
<svg xmlns="http://www.w3.org/2000/svg" xmlns:xlink="http://www.w3.org/1999/xlink" version="1.1">
<metadata>
Created by FontForge 20201107 at Mon Apr 18 18:16:45 2022
 By Rahul Gajjar
Copyright 2021-2022 Indian Type Foundry. All rights reserved.
</metadata>
<defs>
<font id="ElevanceSans-MediumItalic" horiz-adv-x="400" >
  <font-face 
    font-family="Elevance Sans"
    font-weight="500"
    font-style="italic"
    font-stretch="normal"
    units-per-em="1000"
    panose-1="0 0 0 0 0 0 0 0 0 0"
    ascent="800"
    descent="-200"
    x-height="479"
    cap-height="641"
    bbox="-289 -209 1453 904"
    underline-thickness="50"
    underline-position="-125"
    slope="-10"
    unicode-range="U+0020-FB02"
  />
<missing-glyph horiz-adv-x="505" 
d="M493 0h-431v641h431v-641zM146 561v-481h263v481h-263z" />
    <glyph glyph-name="fi" unicode="fi" horiz-adv-x="587" 
d="M74 400l13 79h76l3 17c22 130 106 204 243 204c83 0 141 -26 176 -63l-56 -67c-30 33 -77 50 -128 50c-82 0 -134 -45 -147 -127l-2 -14h301l-80 -479h-89l67 400h-213l-67 -400h-89l68 400h-76z" />
    <glyph glyph-name="fl" unicode="fl" horiz-adv-x="588" 
d="M384 0l100 596c-25 16 -57 25 -98 25c-71 0 -118 -42 -132 -121l-3 -21h114l-13 -79h-115l-66 -400h-89l67 400h-75l13 79h75l4 21c22 130 106 200 226 200c49 0 87 -8 117 -22h77l-113 -678h-89z" />
    <glyph glyph-name=".notdef" horiz-adv-x="505" 
d="M493 0h-431v641h431v-641zM146 561v-481h263v481h-263z" />
    <glyph glyph-name="space" unicode=" " horiz-adv-x="228" 
 />
    <glyph glyph-name="exclam" unicode="!" horiz-adv-x="291" 
d="M113 207l61 434h95l-84 -434h-72zM113 -9c-30 0 -53 18 -53 51c0 40 33 73 72 73c31 0 53 -23 53 -53c0 -43 -32 -71 -72 -71z" />
    <glyph glyph-name="quotedbl" unicode="&#x22;" horiz-adv-x="329" 
d="M215 688l-47 -206h-64l27 206h84zM356 688l-47 -206h-64l27 206h84z" />
    <glyph glyph-name="numbersign" unicode="#" horiz-adv-x="601" 
d="M99 0l44 182h-103l17 66h102l36 149h-112l16 66h112l43 177h76l-43 -177h152l43 177h76l-43 -177h101l-16 -66h-101l-36 -149h110l-16 -66h-110l-44 -182h-76l44 182h-152l-44 -182h-76zM235 248h152l36 149h-152z" />
    <glyph glyph-name="dollar" unicode="$" horiz-adv-x="563" 
d="M574 551l-70 -60c-25 45 -86 76 -157 76c-82 0 -130 -39 -130 -89c0 -136 307 -88 307 -288c0 -116 -93 -189 -228 -197l-14 -78h-77l14 80c-86 10 -147 48 -182 104l67 67c36 -58 103 -91 179 -91c98 0 145 51 145 100c0 143 -306 92 -306 290c0 102 85 174 215 183
l13 78h77l-13 -81c77 -11 135 -48 160 -94z" />
    <glyph glyph-name="percent" unicode="%" horiz-adv-x="776" 
d="M254 332c-87 0 -143 61 -143 141c0 105 77 181 180 181c86 0 143 -60 143 -140c0 -115 -81 -182 -180 -182zM210 0h-75l546 641h74zM262 389c63 0 108 45 108 117c0 53 -36 89 -87 89c-63 0 -108 -45 -108 -115c0 -54 35 -91 87 -91zM602 -8c-87 0 -143 61 -143 141
c0 105 77 181 181 181c86 0 143 -60 143 -140c0 -115 -81 -182 -181 -182zM611 49c62 0 107 45 107 117c0 53 -36 89 -87 89c-62 0 -107 -45 -107 -115c0 -54 34 -91 87 -91z" />
    <glyph glyph-name="ampersand" unicode="&#x26;" horiz-adv-x="633" 
d="M248 -12c-118 0 -198 64 -198 161c0 94 71 153 174 193c-33 40 -48 83 -48 123c0 106 90 188 203 188c88 0 153 -56 153 -135c0 -94 -82 -160 -181 -196l118 -142c17 24 32 52 44 82l16 39l74 -19l-12 -34c-18 -49 -42 -93 -71 -129l65 -78l-66 -57l-61 74
c-59 -46 -131 -70 -210 -70zM294 390l13 -15c80 28 139 69 139 127c0 37 -26 71 -73 71c-65 0 -111 -44 -111 -104c0 -22 8 -50 32 -79zM140 155c0 -57 44 -90 119 -90c56 0 107 19 151 52l-142 171c-73 -30 -128 -69 -128 -133z" />
    <glyph glyph-name="quotesingle" unicode="'" horiz-adv-x="188" 
d="M211 688l-47 -206h-64l27 206h84z" />
    <glyph glyph-name="parenleft" unicode="(" horiz-adv-x="332" 
d="M278 -100l-64 -51c-85 92 -136 210 -136 342c0 211 92 390 279 512l48 -53c-162 -115 -239 -271 -239 -459c0 -112 41 -213 112 -291z" />
    <glyph glyph-name="parenright" unicode=")" horiz-adv-x="332" 
d="M0 -151l-47 52c165 123 238 276 238 459c0 112 -35 208 -112 292l64 51c85 -87 137 -206 137 -338c0 -216 -93 -396 -280 -516z" />
    <glyph glyph-name="asterisk" unicode="*" horiz-adv-x="409" 
d="M289 397l-43 93l-75 -93l-51 42l83 85l-101 26l34 69l95 -41l11 110h72l-25 -110l109 41l11 -69l-111 -26l56 -85z" />
    <glyph glyph-name="plus" unicode="+" horiz-adv-x="521" 
d="M81 282l14 80h160l29 174h84l-29 -174h161l-13 -80h-161l-29 -174h-85l29 174h-160z" />
    <glyph glyph-name="comma" unicode="," horiz-adv-x="194" 
d="M90 114c36 0 57 -26 52 -60c-4 -20 -13 -37 -28 -58l-92 -124h-52l80 127c-23 9 -36 27 -31 55c5 35 38 60 71 60z" />
    <glyph glyph-name="hyphen" unicode="-" horiz-adv-x="318" 
d="M64 281h238l-13 -77h-238z" />
    <glyph glyph-name="period" unicode="." horiz-adv-x="194" 
d="M82 -9c-30 0 -53 18 -53 51c0 40 32 73 72 73c31 0 53 -23 53 -53c0 -43 -32 -71 -72 -71z" />
    <glyph glyph-name="slash" unicode="/" horiz-adv-x="416" 
d="M-14 0l389 641h91l-390 -641h-90z" />
    <glyph glyph-name="zero" unicode="0" horiz-adv-x="600" 
d="M290 -12c-132 0 -211 101 -211 268c0 229 110 397 286 397c131 0 210 -101 210 -261c0 -246 -115 -404 -285 -404zM303 71c106 0 182 126 182 311c0 113 -48 188 -133 188c-110 0 -184 -129 -184 -305c0 -121 46 -194 135 -194z" />
    <glyph glyph-name="one" unicode="1" horiz-adv-x="425" 
d="M262 0h-89l89 532l-133 -111l-44 60l194 160h90z" />
    <glyph glyph-name="two" unicode="2" horiz-adv-x="504" 
d="M18 0l12 69l290 241c72 61 105 109 105 166c0 55 -40 94 -109 94c-63 0 -112 -32 -154 -98l-62 46c52 86 127 135 234 135c119 0 182 -70 182 -154c0 -96 -52 -166 -141 -239l-220 -181h301l-13 -79h-425z" />
    <glyph glyph-name="three" unicode="3" horiz-adv-x="512" 
d="M218 -12c-94 0 -167 34 -204 101l73 57c36 -59 86 -75 148 -75c92 0 150 59 150 133c0 72 -47 116 -143 116h-55l9 52l210 190h-281l13 79h392l-12 -70l-212 -192c115 -8 168 -78 168 -163c0 -132 -93 -228 -256 -228z" />
    <glyph glyph-name="four" unicode="4" horiz-adv-x="556" 
d="M46 215l388 426h79l-71 -426h97l-13 -79h-97l-23 -136h-88l23 136h-308zM140 215h214l48 290z" />
    <glyph glyph-name="five" unicode="5" horiz-adv-x="547" 
d="M254 69c104 0 159 67 159 154c0 60 -37 108 -125 108c-60 0 -97 -14 -138 -39l-37 28l106 321h318l-13 -79h-245l-59 -176c26 14 61 21 97 21c124 0 187 -70 187 -169c0 -150 -93 -251 -262 -251c-94 0 -161 33 -200 99l72 58c35 -56 80 -75 140 -75z" />
    <glyph glyph-name="six" unicode="6" horiz-adv-x="570" 
d="M268 -12c-123 0 -201 79 -201 191c0 79 32 137 134 255l183 207h102l-193 -222c15 4 27 5 37 5c125 0 200 -79 200 -182c0 -157 -116 -254 -262 -254zM317 351c-86 0 -160 -72 -160 -160c0 -72 49 -120 125 -120c84 0 158 64 158 161c0 70 -46 119 -123 119z" />
    <glyph glyph-name="seven" unicode="7" horiz-adv-x="458" 
d="M153 0h-96l342 562h-306l13 79h407l-11 -71z" />
    <glyph glyph-name="eight" unicode="8" horiz-adv-x="542" 
d="M263 -12c-125 0 -206 64 -206 173c0 91 56 163 147 194c-42 26 -67 69 -67 120c0 103 90 178 211 178c107 0 178 -57 178 -146c0 -78 -44 -135 -110 -162c55 -29 87 -80 87 -144c0 -134 -105 -213 -240 -213zM319 384c65 0 119 42 119 107c0 50 -39 86 -99 86
c-65 0 -117 -41 -117 -103c0 -50 40 -90 97 -90zM272 64c85 0 142 58 142 137c0 64 -48 110 -118 110c-92 0 -148 -67 -148 -136c0 -68 45 -111 124 -111z" />
    <glyph glyph-name="nine" unicode="9" horiz-adv-x="570" 
d="M363 647c120 0 201 -77 201 -192c0 -80 -45 -152 -134 -254l-183 -208h-104l197 227c-19 -5 -37 -7 -50 -7c-113 0 -189 74 -189 181c0 158 120 253 262 253zM314 285c87 0 159 70 159 160c0 70 -48 120 -124 120c-84 0 -158 -64 -158 -161c0 -70 47 -119 123 -119z" />
    <glyph glyph-name="colon" unicode=":" horiz-adv-x="194" 
d="M129 345c-30 0 -53 19 -53 52c0 40 33 72 72 72c31 0 53 -23 53 -52c0 -43 -32 -72 -72 -72zM69 -9c-29 0 -52 18 -52 51c0 40 32 73 71 73c31 0 53 -23 53 -53c0 -43 -32 -71 -72 -71z" />
    <glyph glyph-name="semicolon" unicode=";" horiz-adv-x="194" 
d="M127 345c-30 0 -53 19 -53 52c0 40 33 72 72 72c31 0 53 -23 53 -52c0 -43 -32 -72 -72 -72zM89 114c36 0 57 -26 52 -60c-4 -20 -13 -37 -28 -58l-92 -124h-52l80 127c-23 9 -36 27 -31 55c5 35 38 60 71 60z" />
    <glyph glyph-name="less" unicode="&#x3c;" horiz-adv-x="521" 
d="M463 181l-15 -88l-373 194l13 75l438 192l-15 -90l-328 -141z" />
    <glyph glyph-name="equal" unicode="=" horiz-adv-x="521" 
d="M96 369l13 81h406l-14 -81h-405zM67 194l13 81h405l-13 -81h-405z" />
    <glyph glyph-name="greater" unicode="&#x3e;" horiz-adv-x="521" 
d="M64 183l330 142l-282 142l15 87l373 -192l-12 -75l-438 -194z" />
    <glyph glyph-name="question" unicode="?" horiz-adv-x="490" 
d="M312 270l-83 -51l-32 65l85 53c75 46 103 94 103 145c0 53 -38 88 -98 88s-107 -30 -150 -84l-51 53c51 72 121 114 218 114c116 0 172 -71 172 -154c0 -87 -40 -154 -164 -229zM192 -9c-30 0 -53 18 -53 51c0 40 33 73 72 73c31 0 53 -23 53 -53c0 -43 -32 -71 -72 -71z
" />
    <glyph glyph-name="at" unicode="@" horiz-adv-x="861" 
d="M395 85c-75 0 -130 53 -130 141c0 141 91 238 205 238c50 0 87 -24 102 -68l12 57h70l-47 -209c-15 -68 3 -95 39 -95c71 0 126 85 126 195c0 140 -97 253 -275 253c-201 0 -355 -156 -355 -362c0 -174 108 -275 274 -275c69 0 109 14 153 38l19 -60
c-44 -26 -104 -44 -179 -44c-203 0 -339 130 -339 334c0 249 187 434 432 434c214 0 342 -138 342 -313c0 -146 -84 -263 -213 -263c-51 0 -89 23 -98 74c-32 -48 -79 -75 -138 -75zM420 149c60 0 107 50 123 115l2 10c3 13 4 26 4 39c0 50 -27 86 -77 86
c-75 0 -131 -70 -131 -160c0 -53 28 -90 79 -90z" />
    <glyph glyph-name="A" unicode="A" horiz-adv-x="676" 
d="M538 0l-39 164h-308l-93 -164h-99l371 641h106l157 -641h-95zM236 243h244l-72 304z" />
    <glyph glyph-name="B" unicode="B" horiz-adv-x="611" 
d="M62 0l107 640h254c112 0 173 -60 173 -144c0 -103 -70 -149 -128 -165c55 -14 101 -58 101 -125c0 -126 -88 -206 -237 -206h-270zM401 560h-154l-33 -198h154c72 0 132 47 132 114c0 51 -29 84 -99 84zM371 289h-170l-34 -208h168c82 0 141 42 141 120
c0 55 -43 88 -105 88z" />
    <glyph glyph-name="C" unicode="C" horiz-adv-x="640" 
d="M664 573l-69 -70c-38 39 -97 61 -167 61c-150 0 -264 -105 -264 -275c0 -139 86 -212 208 -212c68 0 128 20 179 63l46 -73c-66 -56 -144 -79 -234 -79c-172 0 -296 105 -296 294c0 225 160 371 368 371c97 0 179 -29 229 -80z" />
    <glyph glyph-name="D" unicode="D" horiz-adv-x="703" 
d="M62 0l107 640h192c214 0 317 -106 317 -265c0 -245 -165 -375 -400 -375h-216zM355 555h-107l-79 -470h114c174 0 299 92 299 277c0 119 -68 193 -227 193z" />
    <glyph glyph-name="E" unicode="E" horiz-adv-x="542" 
d="M62 0l107 641h407l-14 -82h-316l-33 -198h277l-14 -81h-277l-32 -200h316l-14 -80h-407z" />
    <glyph glyph-name="F" unicode="F" horiz-adv-x="529" 
d="M62 0l107 640h397l-14 -82h-306l-35 -208h267l-14 -81h-266l-45 -269h-91z" />
    <glyph glyph-name="G" unicode="G" horiz-adv-x="684" 
d="M635 256h-1l-35 -207c-62 -39 -137 -61 -234 -61c-179 0 -298 107 -298 292c0 225 161 373 374 373c107 0 179 -27 230 -80l-69 -70c-41 39 -92 61 -167 61c-154 0 -271 -108 -271 -277c0 -131 79 -212 208 -212c55 0 102 8 145 32l26 149h-154l13 90h247l-5 -34l-3 -19z
" />
    <glyph glyph-name="H" unicode="H" horiz-adv-x="719" 
d="M510 0l47 283h-357l-47 -283h-91l107 641h91l-47 -278h357l47 278h90l-107 -641h-90z" />
    <glyph glyph-name="I" unicode="I" horiz-adv-x="272" 
d="M62 0l107 641h91l-107 -641h-91z" />
    <glyph glyph-name="J" unicode="J" horiz-adv-x="450" 
d="M11 64l66 65c22 -37 53 -52 95 -52c65 0 102 32 117 121l74 443h90l-75 -452c-26 -151 -97 -201 -208 -201c-65 0 -126 24 -159 76z" />
    <glyph glyph-name="K" unicode="K" horiz-adv-x="583" 
d="M153 0h-91l107 641h91l-51 -304l322 304h119l-342 -320l241 -321h-105l-238 319z" />
    <glyph glyph-name="L" unicode="L" horiz-adv-x="534" 
d="M62 0l107 641h91l-93 -556h332l-14 -85h-423z" />
    <glyph glyph-name="M" unicode="M" horiz-adv-x="839" 
d="M415 126l-179 374l-83 -500h-91l107 641h93l174 -368l293 368h98l-107 -641h-91l84 498z" />
    <glyph glyph-name="N" unicode="N" horiz-adv-x="719" 
d="M516 0l-279 505l-84 -505h-91l107 641h96l273 -501l84 501h91l-107 -641h-90z" />
    <glyph glyph-name="O" unicode="O" horiz-adv-x="767" 
d="M428 653c174 0 306 -114 306 -301c0 -214 -159 -364 -361 -364c-174 0 -306 114 -306 301c0 211 159 364 361 364zM381 77c143 0 256 113 256 269c0 129 -81 218 -217 218c-143 0 -256 -113 -256 -269c0 -129 82 -218 217 -218z" />
    <glyph glyph-name="P" unicode="P" horiz-adv-x="606" 
d="M62 0l107 641h225c136 0 214 -65 214 -167c0 -164 -109 -240 -280 -240h-136l-39 -234h-91zM388 560h-142l-40 -245h140c101 0 166 49 166 145c0 66 -48 100 -124 100z" />
    <glyph glyph-name="Q" unicode="Q" horiz-adv-x="771" 
d="M626 -67l-80 96c-51 -26 -110 -41 -173 -41c-174 0 -306 114 -306 301c0 211 159 364 361 364c174 0 306 -114 306 -301c0 -112 -44 -207 -114 -271l75 -90zM637 346c0 129 -82 218 -217 218c-144 0 -256 -113 -256 -269c0 -129 81 -218 217 -218c38 0 74 8 106 23
l-84 101l68 57l90 -107c47 48 76 116 76 195z" />
    <glyph glyph-name="R" unicode="R" horiz-adv-x="616" 
d="M62 0l107 641h225c129 0 205 -62 205 -159c0 -122 -71 -198 -184 -221l127 -261h-97l-121 254h-128l-43 -254h-91zM389 560h-143l-38 -229h147c92 0 148 53 148 135c0 58 -41 94 -114 94z" />
    <glyph glyph-name="S" unicode="S" horiz-adv-x="551" 
d="M126 -1c-29 8 -66 27 -109 58l50 76c51 -37 123 -60 188 -60c88 0 162 46 162 118c0 110 -312 67 -312 250c0 123 108 213 256 213c82 0 152 -21 201 -60l-55 -71c-37 26 -91 46 -153 46c-87 0 -150 -50 -150 -113c0 -116 311 -74 311 -249c0 -136 -124 -219 -268 -219
c-52 0 -92 4 -121 11z" />
    <glyph glyph-name="T" unicode="T" horiz-adv-x="528" 
d="M575 556h-203l-93 -556h-90l92 556h-203l15 85h497z" />
    <glyph glyph-name="U" unicode="U" horiz-adv-x="668" 
d="M93 243l67 398h90l-66 -398c-18 -108 32 -166 140 -166c101 0 163 61 181 170l66 394h91l-67 -398c-28 -172 -121 -255 -283 -255c-161 0 -245 93 -219 255z" />
    <glyph glyph-name="V" unicode="V" horiz-adv-x="641" 
d="M181 641l113 -537l285 537h103l-351 -641h-106l-137 641h93z" />
    <glyph glyph-name="W" unicode="W" horiz-adv-x="997" 
d="M936 641h101l-313 -641h-112l-64 526l-239 -526h-108l-99 641h99l73 -523l234 523h119l63 -524z" />
    <glyph glyph-name="X" unicode="X" horiz-adv-x="607" 
d="M224 641l125 -244l204 244h111l-275 -322l163 -319h-100l-130 254l-213 -254h-112l284 335l-156 306h99z" />
    <glyph glyph-name="Y" unicode="Y" horiz-adv-x="599" 
d="M214 0l36 216l-169 425h94l133 -335l241 335h101l-309 -425l-36 -216h-91z" />
    <glyph glyph-name="Z" unicode="Z" horiz-adv-x="569" 
d="M38 79l432 477h-348l15 85h473l-13 -78l-435 -478h359l-14 -85h-482z" />
    <glyph glyph-name="bracketleft" unicode="[" horiz-adv-x="333" 
d="M54 -130l137 818h207l-13 -79h-118l-110 -660h118l-14 -79h-207z" />
    <glyph glyph-name="backslash" unicode="\" horiz-adv-x="416" 
d="M340 0h-91l-175 641h90z" />
    <glyph glyph-name="bracketright" unicode="]" horiz-adv-x="333" 
d="M176 -130h-207l14 79h118l110 660h-118l13 79h207z" />
    <glyph glyph-name="asciicircum" unicode="^" horiz-adv-x="521" 
d="M301 641h75l102 -320h-81l-71 238l-156 -238h-81z" />
    <glyph glyph-name="underscore" unicode="_" horiz-adv-x="433" 
d="M-26 -20h433l-11 -63h-432z" />
    <glyph glyph-name="grave" unicode="`" 
d="M237 688l72 -156h-80l-97 156h105z" />
    <glyph glyph-name="a" unicode="a" horiz-adv-x="627" 
d="M255 -12c-116 0 -199 78 -199 212c0 165 105 291 265 291c83 0 139 -36 165 -96l14 84h88l-80 -479h-88l12 73c-42 -52 -101 -85 -177 -85zM283 69c102 0 178 82 178 202c0 85 -51 139 -136 139c-108 0 -178 -87 -178 -196c0 -89 46 -145 136 -145z" />
    <glyph glyph-name="b" unicode="b" horiz-adv-x="626" 
d="M390 491c123 0 198 -80 198 -202c0 -185 -116 -301 -266 -301c-84 0 -138 42 -164 101l-15 -89h-88l115 688h88l-48 -286c42 54 103 89 180 89zM361 410c-105 0 -179 -81 -179 -203c0 -84 54 -138 136 -138c98 0 180 79 180 202c0 81 -46 139 -137 139z" />
    <glyph glyph-name="c" unicode="c" horiz-adv-x="500" 
d="M453 361c-29 34 -71 49 -125 49c-111 0 -183 -82 -183 -195c0 -92 58 -145 146 -145c52 0 94 16 130 47l44 -67c-47 -41 -107 -62 -185 -62c-134 0 -224 84 -224 219c0 163 109 284 282 284c82 0 141 -24 176 -64z" />
    <glyph glyph-name="d" unicode="d" horiz-adv-x="626" 
d="M253 -12c-114 0 -197 73 -197 211c0 166 105 292 266 292c83 0 138 -36 164 -96l49 293h88l-115 -688h-88l13 76c-43 -54 -104 -88 -180 -88zM281 69c103 0 180 83 180 204c0 84 -50 137 -134 137c-109 0 -180 -87 -180 -196c0 -87 46 -145 134 -145z" />
    <glyph glyph-name="e" unicode="e" horiz-adv-x="565" 
d="M281 -12c-142 0 -225 85 -225 216c0 168 112 287 275 287c125 0 206 -83 206 -195c0 -27 -6 -71 -12 -88h-380c2 -92 57 -141 148 -141c57 0 99 21 134 52l45 -64c-44 -42 -111 -67 -191 -67zM321 415c-84 0 -146 -50 -167 -132h294c0 85 -44 132 -127 132z" />
    <glyph glyph-name="f" unicode="f" horiz-adv-x="358" 
d="M79 400l13 79h75l9 53c17 100 75 168 179 168c52 0 88 -17 111 -46l-52 -65c-15 18 -38 28 -64 28c-57 0 -79 -43 -88 -97l-7 -41h128l-13 -79h-128l-67 -400h-89l68 400h-75z" />
    <glyph glyph-name="g" unicode="g" horiz-adv-x="621" 
d="M94 -72c31 -29 81 -55 152 -55c105 0 160 48 178 156l9 54c-41 -50 -99 -82 -171 -82c-123 0 -201 79 -201 207c0 160 103 281 260 281c84 0 139 -37 165 -96l14 86h88l-74 -445c-31 -188 -136 -242 -277 -242c-83 0 -157 23 -200 67zM286 81c101 0 175 79 175 195
c0 82 -50 133 -134 133c-108 0 -175 -84 -175 -188c0 -88 49 -140 134 -140z" />
    <glyph glyph-name="h" unicode="h" horiz-adv-x="582" 
d="M55 0l115 688h88l-48 -285c33 57 89 88 167 88c118 0 167 -77 146 -198l-49 -293h-89l47 279c14 82 -16 130 -95 130c-76 0 -134 -45 -147 -132v3l-47 -280h-88z" />
    <glyph glyph-name="i" unicode="i" horiz-adv-x="260" 
d="M193 562c-28 0 -47 18 -47 46c0 38 29 64 65 64c27 0 47 -19 47 -45c0 -39 -29 -65 -65 -65zM143 0h-88l80 479h88z" />
    <glyph glyph-name="j" unicode="j" horiz-adv-x="260" 
d="M193 562c-28 0 -47 18 -47 46c0 38 29 64 65 64c27 0 47 -19 47 -45c0 -39 -29 -65 -65 -65zM-31 -208c-46 0 -78 15 -102 36l48 65c13 -12 30 -21 56 -21c42 0 68 32 77 92l87 515h88l-85 -514c-22 -129 -81 -173 -169 -173z" />
    <glyph glyph-name="k" unicode="k" horiz-adv-x="550" 
d="M143 0h-88l115 688h88l-70 -417l254 208h118l-278 -228l215 -251h-108l-205 244z" />
    <glyph glyph-name="l" unicode="l" horiz-adv-x="268" 
d="M219 77l-3 -78c-16 -5 -34 -9 -50 -9c-61 0 -112 40 -95 141l6 33l87 524h89l-87 -522l-7 -41c-7 -42 13 -53 36 -53c7 0 16 2 24 5z" />
    <glyph glyph-name="m" unicode="m" horiz-adv-x="890" 
d="M143 0h-88l80 479h88l-13 -77c33 57 89 89 159 89c76 0 125 -37 141 -100c33 62 99 100 178 100c109 0 164 -77 143 -198l-49 -293h-89l47 279c14 82 -22 130 -92 130c-63 0 -119 -40 -136 -117l-50 -292h-89l47 279c14 82 -21 130 -90 130c-68 0 -127 -45 -140 -132v3z
" />
    <glyph glyph-name="n" unicode="n" horiz-adv-x="582" 
d="M55 0l80 479h88l-13 -76c33 57 89 88 165 88c119 0 168 -77 148 -198l-50 -293h-88l46 279c15 82 -16 130 -96 130c-75 0 -132 -45 -145 -132v3l-47 -280h-88z" />
    <glyph glyph-name="o" unicode="o" horiz-adv-x="591" 
d="M279 -12c-136 0 -223 90 -223 224c0 161 116 279 273 279c140 0 224 -95 224 -223c0 -173 -114 -280 -274 -280zM288 69c107 0 175 77 175 192c0 86 -55 149 -143 149c-105 0 -175 -84 -175 -191c0 -91 54 -150 143 -150z" />
    <glyph glyph-name="p" unicode="p" horiz-adv-x="626" 
d="M110 -196h-88l113 675h88l-13 -78c43 55 105 90 182 90c122 0 196 -83 196 -211c0 -179 -111 -292 -260 -292c-87 0 -143 42 -170 102zM319 69c102 0 179 75 179 195c0 85 -46 146 -136 146c-106 0 -179 -81 -179 -203c0 -86 56 -138 136 -138z" />
    <glyph glyph-name="q" unicode="q" horiz-adv-x="626" 
d="M255 -12c-115 0 -199 73 -199 212c0 165 105 291 265 291c83 0 139 -36 165 -96l15 91h89l-115 -682h-88l45 269c-42 -52 -101 -85 -177 -85zM283 69c101 0 178 82 178 202c0 85 -51 139 -136 139c-108 0 -178 -87 -178 -196c0 -88 46 -145 136 -145z" />
    <glyph glyph-name="r" unicode="r" horiz-adv-x="389" 
d="M55 0l80 479h88l-13 -77c31 54 77 89 136 89c33 0 58 -7 75 -21l-49 -83c-16 13 -34 18 -59 18c-52 0 -108 -43 -123 -129l-1 2l-46 -278h-88z" />
    <glyph glyph-name="s" unicode="s" horiz-adv-x="457" 
d="M210 -12c-85 0 -153 30 -193 77l58 60c32 -43 85 -65 144 -65s100 25 100 73c0 99 -236 64 -236 219c0 78 62 139 183 139c79 0 142 -26 174 -73l-61 -55c-28 40 -71 56 -117 56c-60 0 -90 -26 -90 -63c0 -94 236 -63 236 -215c0 -92 -73 -153 -198 -153z" />
    <glyph glyph-name="t" unicode="t" horiz-adv-x="391" 
d="M61 400l12 79h76l21 119h88l-20 -119h140l-13 -79h-139l-40 -240c-12 -70 17 -89 55 -89c24 0 45 11 62 26l31 -70c-30 -23 -69 -39 -119 -39c-88 0 -139 56 -120 169l41 243h-75z" />
    <glyph glyph-name="u" unicode="u" horiz-adv-x="582" 
d="M218 479l-45 -267c-18 -104 34 -139 105 -139c80 0 129 46 145 146l43 260h89l-45 -267c-24 -147 -98 -221 -239 -221c-131 0 -211 77 -187 220l45 268h89z" />
    <glyph glyph-name="v" unicode="v" horiz-adv-x="519" 
d="M282 0h-114l-102 479h91l81 -400l207 400h98z" />
    <glyph glyph-name="w" unicode="w" horiz-adv-x="809" 
d="M251 0h-99l-76 479h93l50 -384l181 384h93l61 -386l179 386h94l-234 -479h-103l-62 368z" />
    <glyph glyph-name="x" unicode="x" horiz-adv-x="521" 
d="M-4 0l224 247l-143 232h97l108 -175l159 175h106l-224 -243l146 -236h-97l-110 178l-163 -178h-103z" />
    <glyph glyph-name="y" unicode="y" horiz-adv-x="519" 
d="M185 -28l12 23l-137 484h94l98 -376l193 376h98l-281 -526c-54 -103 -112 -161 -198 -161c-44 0 -87 15 -112 42l47 72c19 -21 47 -31 78 -31c41 0 78 39 108 97z" />
    <glyph glyph-name="z" unicode="z" horiz-adv-x="487" 
d="M36 70l328 333h-265l13 76h381l-12 -73l-331 -330h283l-13 -76h-395z" />
    <glyph glyph-name="braceleft" unicode="{" horiz-adv-x="347" 
d="M54 249l13 78c61 0 85 24 95 82l24 143c12 77 64 136 164 136h55l-13 -79h-36c-47 0 -77 -24 -84 -72l-25 -144c-11 -69 -49 -100 -98 -105c47 -5 75 -36 64 -105l-28 -162c-7 -48 13 -72 60 -72h36l-13 -79h-55c-99 0 -131 59 -119 136l27 161c10 58 -5 82 -67 82z" />
    <glyph glyph-name="bar" unicode="|" horiz-adv-x="277" 
d="M125 -196h-86l148 884h86z" />
    <glyph glyph-name="braceright" unicode="}" horiz-adv-x="347" 
d="M315 240c-62 0 -85 -24 -95 -82l-25 -152c-13 -77 -66 -136 -165 -136h-55l13 79h36c48 0 77 24 84 72l26 153c12 69 50 100 100 105c-48 5 -76 36 -65 105l26 153c8 48 -12 72 -60 72h-36l13 79h55c99 0 132 -59 120 -136l-26 -152c-10 -58 5 -82 67 -82z" />
    <glyph glyph-name="asciitilde" unicode="~" horiz-adv-x="521" 
d="M83 269l14 84c28 20 71 37 114 37c79 0 108 -52 181 -52c39 0 82 11 113 31l-14 -83c-31 -18 -68 -30 -110 -30c-79 0 -110 52 -183 52c-51 0 -89 -18 -115 -39z" />
    <glyph glyph-name="exclamdown" unicode="&#xa1;" horiz-adv-x="291" 
d="M180 367c-30 0 -53 19 -53 51c0 41 32 73 72 73c30 0 53 -23 53 -52c0 -43 -32 -72 -72 -72zM138 -159h-96l85 434h71z" />
    <glyph glyph-name="cent" unicode="&#xa2;" horiz-adv-x="511" 
d="M464 439c-28 33 -70 47 -124 47c-113 0 -186 -86 -186 -194c0 -89 49 -143 139 -143c51 0 96 18 133 49l35 -67c-40 -36 -99 -59 -161 -64l-14 -79h-76l13 83c-100 20 -159 99 -159 208c0 151 100 270 248 288l13 80h77l-13 -80c61 -7 108 -30 136 -65z" />
    <glyph glyph-name="sterling" unicode="&#xa3;" horiz-adv-x="558" 
d="M39 81h27c42 0 65 41 73 90l17 104h-68l11 63h68l16 96c23 144 105 220 235 220c82 0 131 -32 163 -86l-66 -56c-23 38 -56 59 -104 59c-75 0 -125 -52 -140 -143l-15 -90h217l-11 -63h-217l-18 -107c-9 -52 -34 -82 -60 -87h335l-13 -81h-463z" />
    <glyph glyph-name="currency" unicode="&#xa4;" horiz-adv-x="564" 
d="M277 85c-48 0 -90 15 -122 41l-80 -66l-48 59l81 69c-13 26 -20 56 -20 89c0 61 20 114 52 155l-52 61l66 58l52 -61c39 23 85 36 133 36s90 -15 122 -42l80 67l49 -59l-82 -69c12 -25 18 -54 18 -85c0 -60 -20 -113 -53 -155l55 -64l-66 -57l-54 61
c-39 -24 -84 -38 -131 -38zM290 163c82 0 155 67 155 161c0 74 -47 125 -119 125c-93 0 -158 -68 -158 -161c0 -71 45 -125 122 -125z" />
    <glyph glyph-name="yen" unicode="&#xa5;" horiz-adv-x="599" 
d="M305 0h-91l31 186h-174l11 63h155l-36 92h-104l11 63h68l-93 237h98l131 -331l236 331h102l-172 -237h75l-10 -63h-111l-67 -92h163l-11 -63h-181z" />
    <glyph glyph-name="brokenbar" unicode="&#xa6;" horiz-adv-x="277" 
d="M272 688l-61 -365h-86l61 365h86zM185 169l-61 -365h-86l61 365h86z" />
    <glyph glyph-name="section" unicode="&#xa7;" horiz-adv-x="689" 
d="M629 554l-74 -61c-22 41 -84 75 -159 75c-77 0 -128 -38 -128 -88c0 -119 344 -77 344 -260c0 -58 -34 -113 -93 -148c16 -20 26 -45 26 -76c0 -122 -98 -204 -262 -204c-121 0 -197 47 -230 109l73 60c34 -56 96 -84 174 -84c98 0 147 44 147 99c0 135 -339 88 -339 271
c0 53 27 106 94 138c-19 20 -31 45 -31 78c0 111 94 190 245 190c103 0 183 -44 213 -99zM206 263c0 -83 149 -92 249 -143c35 18 59 47 59 83c0 83 -145 94 -246 139c-40 -16 -62 -44 -62 -79z" />
    <glyph glyph-name="copyright" unicode="&#xa9;" horiz-adv-x="831" 
d="M478 683c199 0 333 -143 333 -329c0 -240 -176 -394 -396 -394c-203 0 -337 130 -337 329c0 219 172 394 400 394zM473 627c-194 0 -333 -150 -333 -333c0 -170 110 -276 279 -276c184 0 331 138 331 333c0 156 -109 276 -277 276zM626 475l-51 -52
c-26 28 -56 42 -105 42c-92 0 -163 -67 -163 -165c0 -74 49 -121 124 -121c43 0 81 16 115 43l30 -55c-45 -39 -98 -58 -158 -58c-111 0 -185 68 -185 181c0 143 107 245 244 245c69 0 115 -20 149 -60z" />
    <glyph glyph-name="guillemotleft" unicode="&#xab;" horiz-adv-x="512" 
d="M50 245l193 201l51 -51l-148 -151l97 -150l-63 -46zM254 245l193 201l51 -51l-148 -151l97 -150l-63 -46z" />
    <glyph glyph-name="registered" unicode="&#xae;" horiz-adv-x="543" 
d="M338 714c134 0 218 -92 218 -212c0 -163 -118 -269 -261 -269c-130 0 -220 81 -220 210c0 159 119 271 263 271zM335 664c-117 0 -207 -85 -207 -214c0 -104 65 -167 170 -167c118 0 206 87 206 213c0 95 -63 168 -169 168zM202 352l41 246h102c41 0 82 -13 82 -59
c0 -51 -31 -73 -67 -82l50 -105h-64l-44 101h-25l-17 -101h-58zM332 553h-39l-10 -59h39c27 0 46 11 46 36c0 19 -15 23 -36 23z" />
    <glyph glyph-name="degree" unicode="&#xb0;" horiz-adv-x="367" 
d="M206 325c-87 0 -142 59 -142 136c0 108 81 192 198 192c89 0 142 -58 142 -135c0 -119 -89 -193 -198 -193zM216 384c66 0 122 49 122 124c0 55 -39 85 -86 85c-67 0 -122 -49 -122 -124c0 -53 37 -85 86 -85z" />
    <glyph glyph-name="plusminus" unicode="&#xb1;" horiz-adv-x="521" 
d="M88 326l14 80h160l27 165h85l-28 -165h162l-14 -80h-161l-28 -165h-84l27 165h-160zM34 0l13 81h406l-14 -81h-405z" />
    <glyph glyph-name="twosuperior" unicode="&#xb2;" horiz-adv-x="298" 
d="M63 321l8 50l137 103c36 28 51 52 51 76c0 23 -15 41 -47 41c-31 0 -55 -18 -74 -48l-39 31c23 38 64 74 129 74c63 0 97 -36 97 -82c0 -51 -28 -88 -83 -125l-86 -67h139l-8 -53h-224z" />
    <glyph glyph-name="threesuperior" unicode="&#xb3;" horiz-adv-x="298" 
d="M169 315c-53 0 -84 20 -101 52l47 40c15 -24 34 -36 62 -36c44 0 69 28 69 61c0 28 -20 45 -62 45h-30l5 30l91 80h-128l9 54h206l-8 -46l-98 -80c51 -4 79 -36 79 -76c0 -73 -53 -124 -141 -124z" />
    <glyph glyph-name="paragraph" unicode="&#xb6;" horiz-adv-x="565" 
d="M350 641h200l-13 -79l-127 -758h-67l127 758h-57l-127 -758h-92l73 432c-129 10 -193 99 -173 216c19 115 111 189 256 189z" />
    <glyph glyph-name="onesuperior" unicode="&#xb9;" horiz-adv-x="298" 
d="M216 321h-66l40 244l-59 -50l-30 43l100 83h68z" />
    <glyph glyph-name="guillemotright" unicode="&#xbb;" horiz-adv-x="512" 
d="M490 245l-196 -200l-49 55l146 148l-96 149l63 45zM284 245l-196 -200l-49 54l146 148l-96 150l63 45z" />
    <glyph glyph-name="onequarter" unicode="&#xbc;" horiz-adv-x="672" 
d="M239 321h-66l40 244l-59 -50l-30 43l100 83h68zM46 0l547 641h73l-544 -641h-76zM329 112l189 208h59l-34 -208h45l-10 -54h-44l-10 -58h-60l10 58h-155zM386 112h97l21 129z" />
    <glyph glyph-name="onehalf" unicode="&#xbd;" horiz-adv-x="672" 
d="M195 321h-66l40 244l-59 -50l-30 43l100 83h68zM2 0l547 641h73l-544 -641h-76zM343 0l8 50l137 103c36 28 51 52 51 76c0 23 -15 41 -47 41c-31 0 -55 -18 -74 -48l-39 31c23 38 64 74 129 74c63 0 97 -36 97 -82c0 -51 -28 -88 -83 -125l-86 -67h139l-8 -53h-224z" />
    <glyph glyph-name="threequarters" unicode="&#xbe;" horiz-adv-x="672" 
d="M164 315c-53 0 -84 20 -101 52l47 40c15 -24 34 -36 62 -36c44 0 69 28 69 61c0 28 -20 45 -62 45h-30l5 30l91 80h-128l9 54h206l-8 -46l-98 -80c51 -4 79 -36 79 -76c0 -73 -53 -124 -141 -124zM47 0l547 641h73l-544 -641h-76zM330 112l189 208h59l-34 -208h45
l-10 -54h-44l-10 -58h-60l10 58h-155zM387 112h97l21 129z" />
    <glyph glyph-name="multiply" unicode="&#xd7;" horiz-adv-x="521" 
d="M139 138l-51 60l144 123l-102 122l69 60l102 -123l144 124l50 -61l-144 -123l99 -120l-68 -59l-100 120z" />
    <glyph glyph-name="divide" unicode="&#xf7;" horiz-adv-x="521" 
d="M308 446c-30 0 -52 22 -52 52c0 38 30 72 72 72c31 0 53 -23 53 -52c0 -43 -33 -72 -73 -72zM486 282h-406l13 80h406zM246 73c-31 0 -52 21 -52 51c0 38 30 73 72 73c31 0 53 -23 53 -53c0 -42 -33 -71 -73 -71z" />
    <glyph glyph-name="pi" unicode="&#x3c0;" horiz-adv-x="614" 
d="M67 400l13 79h542l-13 -79h-83l-43 -257c-8 -46 3 -66 41 -66h31l-13 -77h-45c-88 0 -122 40 -105 139l44 261h-199l-67 -399h-90l67 399h-80z" />
    <glyph glyph-name="endash" unicode="&#x2013;" horiz-adv-x="500" 
d="M59 281h420l-13 -77h-420z" />
    <glyph glyph-name="emdash" unicode="&#x2014;" horiz-adv-x="1000" 
d="M52 281h920l-13 -77h-920z" />
    <glyph glyph-name="quoteleft" unicode="&#x2018;" horiz-adv-x="182" 
d="M148 482c-29 0 -47 19 -47 45c0 19 11 36 24 54l80 107h45l-70 -107c17 -7 28 -22 28 -40c0 -34 -27 -59 -60 -59z" />
    <glyph glyph-name="quoteright" unicode="&#x2019;" horiz-adv-x="181" 
d="M175 690c29 0 47 -19 47 -45c0 -19 -11 -36 -24 -54l-80 -107h-44l70 107c-18 7 -29 22 -29 40c0 34 27 59 60 59z" />
    <glyph glyph-name="quotedblleft" unicode="&#x201c;" horiz-adv-x="330" 
d="M148 482c-29 0 -47 19 -47 45c0 19 11 36 24 54l80 107h45l-70 -107c17 -7 28 -22 28 -40c0 -34 -27 -59 -60 -59zM297 482c-29 0 -47 19 -47 45c0 19 11 36 24 54l80 107h44l-70 -107c18 -7 29 -22 29 -40c0 -34 -27 -59 -60 -59z" />
    <glyph glyph-name="quotedblright" unicode="&#x201d;" horiz-adv-x="330" 
d="M324 690c29 0 47 -19 47 -45c0 -19 -11 -36 -24 -54l-80 -107h-45l70 107c-17 7 -28 22 -28 40c0 34 27 59 60 59zM175 690c29 0 47 -19 47 -45c0 -19 -11 -36 -24 -54l-80 -107h-44l70 107c-18 7 -29 22 -29 40c0 34 27 59 60 59z" />
    <glyph glyph-name="dagger" unicode="&#x2020;" horiz-adv-x="471" 
d="M133 -196l100 599h-156l14 79h156l34 206h88l-34 -206h156l-14 -79h-156l-100 -599h-88z" />
    <glyph glyph-name="daggerdbl" unicode="&#x2021;" horiz-adv-x="471" 
d="M12 10l13 79h156l52 314h-156l14 79h156l34 206h88l-34 -206h156l-14 -79h-156l-52 -314h156l-13 -79h-157l-34 -206h-88l34 206h-155z" />
    <glyph glyph-name="bullet" unicode="&#x2022;" horiz-adv-x="397" 
d="M198 122c-65 0 -111 47 -111 109c0 77 64 147 148 147c65 0 110 -47 110 -109c0 -87 -63 -147 -147 -147z" />
    <glyph glyph-name="ellipsis" unicode="&#x2026;" horiz-adv-x="650" 
d="M538 -9c-30 0 -53 18 -53 51c0 40 32 73 71 73c31 0 53 -23 53 -53c0 -43 -32 -71 -71 -71zM82 -9c-30 0 -53 18 -53 51c0 40 32 73 71 73c31 0 53 -23 53 -53c0 -43 -32 -71 -71 -71zM311 -9c-30 0 -53 18 -53 51c0 40 32 73 71 73c31 0 54 -23 54 -53
c0 -43 -33 -71 -72 -71z" />
    <glyph glyph-name="guilsinglleft" unicode="&#x2039;" horiz-adv-x="314" 
d="M53 245l190 197l50 -51l-148 -151l94 -146l-62 -46z" />
    <glyph glyph-name="guilsinglright" unicode="&#x203a;" horiz-adv-x="314" 
d="M285 245l-190 -197l-50 51l147 151l-93 147l62 45z" />
    <glyph glyph-name="fraction" unicode="&#x2044;" horiz-adv-x="77" 
d="M-289 0l547 641h73l-544 -641h-76z" />
    <glyph glyph-name="Euro" unicode="&#x20ac;" horiz-adv-x="659" 
d="M383 -12c-153 0 -260 80 -283 225h-83l22 63h56c0 30 3 59 9 87h-59l21 62h56c56 141 189 228 348 228c107 0 176 -28 225 -81l-68 -69c-39 39 -93 61 -170 61c-103 0 -190 -53 -234 -139h275l-21 -62h-277c-5 -23 -8 -47 -8 -73v-14h258l-21 -63h-227
c26 -88 98 -136 200 -136c59 0 115 22 164 61l48 -73c-59 -52 -139 -77 -231 -77z" />
    <glyph glyph-name="trademark" unicode="&#x2122;" horiz-adv-x="859" 
d="M167 291l48 290h-103l10 60h278l-10 -60h-108l-48 -290h-67zM609 371l-109 179l-40 -259h-67l58 350h68l104 -177l162 177h68l-58 -350h-66l44 255z" />
    <glyph glyph-name="minus" unicode="&#x2212;" horiz-adv-x="521" 
d="M71 282l13 80h406l-13 -80h-406z" />
    <glyph glyph-name="approxequal" unicode="&#x2248;" horiz-adv-x="521" 
d="M100 357l14 83c29 21 70 37 114 37c84 0 108 -53 181 -53c39 0 82 13 113 33l-14 -84c-31 -17 -69 -30 -111 -30c-82 0 -109 52 -182 52c-51 0 -89 -18 -115 -38zM70 180l14 84c30 21 71 37 114 37c84 0 108 -54 182 -54c39 0 81 13 113 33l-14 -83
c-32 -18 -69 -30 -111 -30c-82 0 -110 52 -183 52c-51 0 -88 -18 -115 -39z" />
    <glyph glyph-name="notequal" unicode="&#x2260;" horiz-adv-x="521" 
d="M94 101l68 93h-100l14 81h145l69 94h-199l14 81h244l68 93h69l-68 -93h92l-13 -81h-138l-69 -94h191l-13 -81h-237l-68 -93h-69z" />
    <glyph glyph-name="lessequal" unicode="&#x2264;" horiz-adv-x="521" 
d="M471 224l-15 -88l-375 185l13 75l436 183l-15 -90l-325 -132zM28 0l13 81h405l-13 -81h-405z" />
    <glyph glyph-name="greaterequal" unicode="&#x2265;" horiz-adv-x="521" 
d="M70 225l326 134l-282 133l15 87l375 -183l-12 -75l-437 -185zM438 0h-406l14 81h405z" />
    <glyph glyph-name="ITF" unicode="&#xf8ff;" horiz-adv-x="1466" 
d="M62 0v641h198v-641h-198zM301 454v187h198v-187h-198zM539 0v641h198v-641h-198zM779 454v187h197v-187h-197zM1017 0v641h197v-641h-197zM1256 454v187h197v-187h-197zM1256 227v186h197v-186h-197z" />
    <glyph glyph-name="G.alt" horiz-adv-x="744" 
d="M347 -12c-161 0 -280 110 -280 272c0 214 181 393 396 393c102 0 175 -31 223 -80l-65 -67c-38 36 -88 60 -160 60c-156 0 -297 -142 -297 -297c0 -120 81 -194 195 -194c137 0 225 81 251 180l5 27h-211l14 84h303l-22 -134c-40 -125 -147 -244 -352 -244z" />
    <glyph glyph-name="a.alt" horiz-adv-x="634" 
d="M56 200c0 165 105 291 265 291c83 0 138 -36 164 -95l14 83h89l-49 -290l-10 -60c-7 -42 12 -57 35 -57c7 0 16 2 23 5l-1 -78c-16 -5 -36 -9 -52 -9c-45 0 -87 25 -95 84c-42 -55 -104 -86 -184 -86c-115 0 -199 78 -199 212zM461 271c0 85 -51 139 -136 139
c-108 0 -178 -87 -178 -196c0 -89 46 -145 136 -145c81 0 147 53 170 136v3c2 5 3 10 4 15l1 10c2 12 3 25 3 38z" />
    <glyph glyph-name="j.alt" horiz-adv-x="248" 
d="M188 562c-30 0 -51 25 -46 55s34 55 64 55c31 0 51 -25 46 -55s-34 -55 -64 -55zM-57 -208h-27l14 84h19c58 0 85 29 94 83l87 520h88l-87 -524c-17 -105 -83 -163 -188 -163z" />
    <glyph glyph-name="l.alt" horiz-adv-x="260" 
d="M55 0l115 688h88l-115 -688h-88z" />
    <glyph glyph-name="y.alt" horiz-adv-x="507" 
d="M128 -196h-95l117 205l-133 470h91l97 -370l201 370h95z" />
    <glyph glyph-name="zero.superior" unicode="&#x2070;" horiz-adv-x="298" 
d="M173 315c-67 0 -109 48 -109 131c0 116 68 202 155 202c69 0 107 -50 107 -129c0 -121 -67 -204 -153 -204zM180 371c51 0 84 64 84 141c0 47 -16 78 -53 78c-47 0 -85 -60 -84 -137c1 -53 18 -82 53 -82z" />
    <glyph glyph-name="four.superior" unicode="&#x2074;" horiz-adv-x="298" 
d="M201 321l10 58h-155l10 54l189 208h59l-34 -208h45l-10 -54h-44l-10 -58h-60zM123 433h97l21 129z" />
    <glyph glyph-name="nbspace" unicode="&#xa0;" horiz-adv-x="228" 
 />
    <glyph glyph-name="litre" unicode="&#x2113;" horiz-adv-x="443" 
d="M380 61c-33 -46 -78 -73 -138 -73c-87 0 -142 53 -142 158v15l-64 -33v94l64 30v267c0 118 55 181 144 181c97 0 155 -63 155 -176c0 -118 -75 -221 -209 -312v-59c0 -53 21 -82 64 -82c34 0 62 19 82 52zM190 531v-225c77 63 123 140 123 223c0 60 -26 88 -62 88
c-40 0 -61 -26 -61 -86z" />
    <glyph glyph-name="ampersand.alt" horiz-adv-x="657" 
d="M559 340l59 -51l-121 -143l86 -108l-68 -51l-77 97c-64 -60 -133 -94 -208 -94c-106 0 -175 59 -175 149c0 101 81 169 178 206c-26 39 -43 76 -43 118c0 105 84 189 203 189c65 0 126 -24 166 -57l-49 -66c-33 28 -73 44 -111 44c-68 0 -119 -45 -119 -112
c0 -29 12 -57 40 -92l127 -160zM146 146c0 -47 33 -77 93 -77c54 0 106 32 151 76l-109 138c-72 -25 -135 -72 -135 -137z" />
    <glyph glyph-name="divisionslash" unicode="&#x2215;" horiz-adv-x="77" 
d="M-289 0l547 641h73l-544 -641h-76z" />
    <glyph glyph-name="Aacute" unicode="&#xc1;" horiz-adv-x="676" 
d="M501 850h109l-147 -156h-84zM538 0l-39 164h-308l-93 -164h-99l371 641h106l157 -641h-95zM236 243h244l-72 304z" />
    <glyph glyph-name="Abreve" unicode="&#x102;" horiz-adv-x="676" 
d="M433 684c-86 0 -141 61 -125 155h65c-12 -63 16 -94 62 -94c48 0 83 31 94 94h66c-16 -94 -74 -155 -162 -155zM538 0l-39 164h-308l-93 -164h-99l371 641h106l157 -641h-95zM236 243h244l-72 304z" />
    <glyph glyph-name="Acircumflex" unicode="&#xc2;" horiz-adv-x="676" 
d="M356 694h-88l144 156h82l96 -156h-82l-61 101zM538 0l-39 164h-308l-93 -164h-99l371 641h106l157 -641h-95zM236 243h244l-72 304z" />
    <glyph glyph-name="Adieresis" unicode="&#xc4;" horiz-adv-x="676" 
d="M306 768c0 31 28 59 59 59c25 0 44 -20 44 -44c0 -31 -29 -58 -60 -58c-25 0 -43 18 -43 43zM472 768c0 31 29 59 59 59c26 0 44 -20 44 -44c0 -31 -28 -58 -60 -58c-25 0 -43 18 -43 43zM538 0l-39 164h-308l-93 -164h-99l371 641h106l157 -641h-95zM236 243h244
l-72 304z" />
    <glyph glyph-name="Agrave" unicode="&#xc0;" horiz-adv-x="676" 
d="M403 850l73 -156h-77l-98 156h102zM538 0l-39 164h-308l-93 -164h-99l371 641h106l157 -641h-95zM236 243h244l-72 304z" />
    <glyph glyph-name="Amacron" unicode="&#x100;" horiz-adv-x="676" 
d="M306 813h281l-10 -68h-281zM538 0l-39 164h-308l-93 -164h-99l371 641h106l157 -641h-95zM236 243h244l-72 304z" />
    <glyph glyph-name="Aogonek" unicode="&#x104;" horiz-adv-x="676" 
d="M623 -168c-27 -25 -64 -40 -105 -40c-56 0 -92 30 -92 77c0 54 37 100 110 140l-37 155h-308l-93 -164h-99l371 641h106l157 -641c-81 -31 -131 -72 -131 -112c0 -18 14 -31 37 -31c21 0 37 7 60 25zM236 243h244l-72 304z" />
    <glyph glyph-name="Aring" unicode="&#xc5;" horiz-adv-x="676" 
d="M425 684c-59 0 -99 39 -99 93c0 72 60 127 131 127c60 0 98 -40 98 -92c0 -73 -59 -128 -130 -128zM432 736c38 0 67 31 67 68c0 28 -19 48 -48 48c-36 0 -68 -28 -68 -68c0 -29 18 -48 49 -48zM538 0l-39 164h-308l-93 -164h-99l371 641h106l157 -641h-95zM236 243h244
l-72 304z" />
    <glyph glyph-name="Atilde" unicode="&#xc3;" horiz-adv-x="676" 
d="M309 711l-41 37c35 63 74 83 110 83c59 0 80 -56 128 -56c28 0 50 24 69 54l40 -36c-33 -63 -71 -83 -107 -83c-58 0 -81 55 -128 55c-28 0 -52 -24 -71 -54zM538 0l-39 164h-308l-93 -164h-99l371 641h106l157 -641h-95zM236 243h244l-72 304z" />
    <glyph glyph-name="AE" unicode="&#xc6;" horiz-adv-x="738" 
d="M348 0l27 164h-222l-106 -164h-99l413 641h477l-14 -84h-293l-32 -193h253l-14 -84h-253l-32 -196h292l-14 -84h-383zM409 562l-204 -317h184l53 317h-33z" />
    <glyph glyph-name="Cacute" unicode="&#x106;" horiz-adv-x="640" 
d="M514 850h109l-147 -156h-84zM664 573l-69 -70c-38 39 -97 61 -167 61c-150 0 -264 -105 -264 -275c0 -139 86 -212 208 -212c68 0 128 20 179 63l46 -73c-66 -56 -144 -79 -234 -79c-172 0 -296 105 -296 294c0 225 160 371 368 371c97 0 179 -29 229 -80z" />
    <glyph glyph-name="Ccaron" unicode="&#x10c;" horiz-adv-x="640" 
d="M482 694h-82l-96 156h82l61 -101l91 101h88zM664 573l-69 -70c-38 39 -97 61 -167 61c-150 0 -264 -105 -264 -275c0 -139 86 -212 208 -212c68 0 128 20 179 63l46 -73c-66 -56 -144 -79 -234 -79c-172 0 -296 105 -296 294c0 225 160 371 368 371c97 0 179 -29 229 -80
z" />
    <glyph glyph-name="Ccedilla" unicode="&#xc7;" horiz-adv-x="640" 
d="M664 573l-69 -70c-38 39 -97 61 -167 61c-150 0 -264 -105 -264 -275c0 -139 86 -212 208 -212c68 0 128 20 179 63l46 -73c-58 -49 -126 -73 -202 -78l-71 -175l-74 30l82 145c-156 12 -265 116 -265 293c0 225 160 371 368 371c97 0 179 -29 229 -80z" />
    <glyph glyph-name="Ccircumflex" unicode="&#x108;" horiz-adv-x="640" 
d="M369 694h-88l144 156h82l96 -156h-82l-61 101zM664 573l-69 -70c-38 39 -97 61 -167 61c-150 0 -264 -105 -264 -275c0 -139 86 -212 208 -212c68 0 128 20 179 63l46 -73c-66 -56 -144 -79 -234 -79c-172 0 -296 105 -296 294c0 225 160 371 368 371
c97 0 179 -29 229 -80z" />
    <glyph glyph-name="Cdotaccent" unicode="&#x10a;" horiz-adv-x="640" 
d="M399 770c0 34 31 64 64 64c28 0 47 -21 47 -47c0 -32 -31 -63 -64 -63c-28 0 -47 21 -47 46zM664 573l-69 -70c-38 39 -97 61 -167 61c-150 0 -264 -105 -264 -275c0 -139 86 -212 208 -212c68 0 128 20 179 63l46 -73c-66 -56 -144 -79 -234 -79
c-172 0 -296 105 -296 294c0 225 160 371 368 371c97 0 179 -29 229 -80z" />
    <glyph glyph-name="Eth" unicode="&#xd0;" horiz-adv-x="703" 
d="M62 0l48 285h-63l10 72h65l47 283h192c214 0 317 -106 317 -265c0 -245 -165 -375 -400 -375h-216zM355 555h-107l-33 -198h102l-10 -72h-104l-34 -200h114c174 0 299 92 299 277c0 119 -68 193 -227 193z" />
    <glyph glyph-name="Dcaron" unicode="&#x10e;" horiz-adv-x="703" 
d="M452 694h-82l-96 156h82l61 -101l91 101h88zM62 0l107 640h192c214 0 317 -106 317 -265c0 -245 -165 -375 -400 -375h-216zM355 555h-107l-79 -470h114c174 0 299 92 299 277c0 119 -68 193 -227 193z" />
    <glyph glyph-name="Dcroat" unicode="&#x110;" horiz-adv-x="703" 
d="M62 0l48 285h-63l10 72h65l47 283h192c214 0 317 -106 317 -265c0 -245 -165 -375 -400 -375h-216zM355 555h-107l-33 -198h102l-10 -72h-104l-34 -200h114c174 0 299 92 299 277c0 119 -68 193 -227 193z" />
    <glyph glyph-name="Eacute" unicode="&#xc9;" horiz-adv-x="542" 
d="M452 850h109l-147 -156h-84zM62 0l107 641h407l-14 -82h-316l-33 -198h277l-14 -81h-277l-32 -200h316l-14 -80h-407z" />
    <glyph glyph-name="Ebreve" unicode="&#x114;" horiz-adv-x="542" 
d="M384 684c-86 0 -141 61 -125 155h65c-12 -63 16 -94 62 -94c48 0 83 31 94 94h66c-16 -94 -74 -155 -162 -155zM62 0l107 641h407l-14 -82h-316l-33 -198h277l-14 -81h-277l-32 -200h316l-14 -80h-407z" />
    <glyph glyph-name="Ecaron" unicode="&#x11a;" horiz-adv-x="542" 
d="M420 694h-82l-96 156h82l61 -101l91 101h88zM62 0l107 641h407l-14 -82h-316l-33 -198h277l-14 -81h-277l-32 -200h316l-14 -80h-407z" />
    <glyph glyph-name="Ecircumflex" unicode="&#xca;" horiz-adv-x="542" 
d="M307 694h-88l144 156h82l96 -156h-82l-61 101zM62 0l107 641h407l-14 -82h-316l-33 -198h277l-14 -81h-277l-32 -200h316l-14 -80h-407z" />
    <glyph glyph-name="Edieresis" unicode="&#xcb;" horiz-adv-x="542" 
d="M257 768c0 31 28 59 59 59c25 0 44 -20 44 -44c0 -31 -29 -58 -60 -58c-25 0 -43 18 -43 43zM423 768c0 31 29 59 59 59c26 0 44 -20 44 -44c0 -31 -28 -58 -60 -58c-25 0 -43 18 -43 43zM62 0l107 641h407l-14 -82h-316l-33 -198h277l-14 -81h-277l-32 -200h316l-14 -80
h-407z" />
    <glyph glyph-name="Edotaccent" unicode="&#x116;" horiz-adv-x="542" 
d="M337 770c0 34 31 64 64 64c28 0 47 -21 47 -47c0 -32 -31 -63 -64 -63c-28 0 -47 21 -47 46zM62 0l107 641h407l-14 -82h-316l-33 -198h277l-14 -81h-277l-32 -200h316l-14 -80h-407z" />
    <glyph glyph-name="Egrave" unicode="&#xc8;" horiz-adv-x="542" 
d="M354 850l73 -156h-77l-98 156h102zM62 0l107 641h407l-14 -82h-316l-33 -198h277l-14 -81h-277l-32 -200h316l-14 -80h-407z" />
    <glyph glyph-name="Emacron" unicode="&#x112;" horiz-adv-x="542" 
d="M257 813h281l-10 -68h-281zM62 0l107 641h407l-14 -82h-316l-33 -198h277l-14 -81h-277l-32 -200h316l-14 -80h-407z" />
    <glyph glyph-name="Eogonek" unicode="&#x118;" horiz-adv-x="542" 
d="M62 0l107 641h407l-14 -82h-316l-33 -198h277l-14 -81h-277l-32 -200h316l-14 -80c-81 -31 -131 -72 -131 -112c0 -18 14 -31 37 -31c21 0 37 7 60 25l24 -50c-27 -25 -64 -40 -105 -40c-56 0 -92 30 -92 77c0 50 32 94 95 131h-295z" />
    <glyph glyph-name="Gbreve" unicode="&#x11e;" horiz-adv-x="684" 
d="M452 684c-86 0 -141 61 -125 155h65c-12 -63 16 -94 62 -94c48 0 83 31 94 94h66c-16 -94 -74 -155 -162 -155zM635 256h-1l-35 -207c-62 -39 -137 -61 -234 -61c-179 0 -298 107 -298 292c0 225 161 373 374 373c107 0 179 -27 230 -80l-69 -70c-41 39 -92 61 -167 61
c-154 0 -271 -108 -271 -277c0 -131 79 -212 208 -212c55 0 102 8 145 32l26 149h-154l13 90h247l-5 -34l-3 -19z" />
    <glyph glyph-name="Gcircumflex" unicode="&#x11c;" horiz-adv-x="684" 
d="M375 694h-88l144 156h82l96 -156h-82l-61 101zM635 256h-1l-35 -207c-62 -39 -137 -61 -234 -61c-179 0 -298 107 -298 292c0 225 161 373 374 373c107 0 179 -27 230 -80l-69 -70c-41 39 -92 61 -167 61c-154 0 -271 -108 -271 -277c0 -131 79 -212 208 -212
c55 0 102 8 145 32l26 149h-154l13 90h247l-5 -34l-3 -19z" />
    <glyph glyph-name="Gcommaaccent" unicode="&#x122;" horiz-adv-x="684" 
d="M635 256h-1l-35 -207c-62 -39 -137 -61 -234 -61c-179 0 -298 107 -298 292c0 225 161 373 374 373c107 0 179 -27 230 -80l-69 -70c-41 39 -92 61 -167 61c-154 0 -271 -108 -271 -277c0 -131 79 -212 208 -212c55 0 102 8 145 32l26 149h-154l13 90h247l-5 -34l-3 -19z
M408 -51l-65 -142h-71l46 142h90z" />
    <glyph glyph-name="Gdotaccent" unicode="&#x120;" horiz-adv-x="684" 
d="M405 770c0 34 31 64 64 64c28 0 47 -21 47 -47c0 -32 -31 -63 -64 -63c-28 0 -47 21 -47 46zM635 256h-1l-35 -207c-62 -39 -137 -61 -234 -61c-179 0 -298 107 -298 292c0 225 161 373 374 373c107 0 179 -27 230 -80l-69 -70c-41 39 -92 61 -167 61
c-154 0 -271 -108 -271 -277c0 -131 79 -212 208 -212c55 0 102 8 145 32l26 149h-154l13 90h247l-5 -34l-3 -19z" />
    <glyph glyph-name="Hbar" unicode="&#x126;" horiz-adv-x="719" 
d="M510 0l47 283h-357l-47 -283h-91l79 476h-47l11 70h48l16 95h91l-16 -95h357l16 95h90l-16 -95h48l-11 -70h-49l-79 -476h-90zM213 363h357l19 113h-357z" />
    <glyph glyph-name="Hcircumflex" unicode="&#x124;" horiz-adv-x="719" 
d="M377 694h-88l144 156h82l96 -156h-82l-61 101zM510 0l47 283h-357l-47 -283h-91l107 641h91l-47 -278h357l47 278h90l-107 -641h-90z" />
    <glyph glyph-name="IJ" unicode="&#x132;" horiz-adv-x="722" 
d="M62 0l107 641h91l-107 -641h-91zM283 64l66 65c22 -37 53 -52 95 -52c65 0 102 32 117 121l74 443h90l-75 -452c-26 -151 -97 -201 -208 -201c-65 0 -126 24 -159 76z" />
    <glyph glyph-name="Iacute" unicode="&#xcd;" horiz-adv-x="272" 
d="M294 850h109l-147 -156h-84zM62 0l107 641h91l-107 -641h-91z" />
    <glyph glyph-name="Ibreve" unicode="&#x12c;" horiz-adv-x="272" 
d="M226 684c-86 0 -141 61 -125 155h65c-12 -63 16 -94 62 -94c48 0 83 31 94 94h66c-16 -94 -74 -155 -162 -155zM62 0l107 641h91l-107 -641h-91z" />
    <glyph glyph-name="Icircumflex" unicode="&#xce;" horiz-adv-x="272" 
d="M149 694h-88l144 156h82l96 -156h-82l-61 101zM62 0l107 641h91l-107 -641h-91z" />
    <glyph glyph-name="Idieresis" unicode="&#xcf;" horiz-adv-x="272" 
d="M99 768c0 31 28 59 59 59c25 0 44 -20 44 -44c0 -31 -29 -58 -60 -58c-25 0 -43 18 -43 43zM265 768c0 31 29 59 59 59c26 0 44 -20 44 -44c0 -31 -28 -58 -60 -58c-25 0 -43 18 -43 43zM62 0l107 641h91l-107 -641h-91z" />
    <glyph glyph-name="Idotaccent" unicode="&#x130;" horiz-adv-x="272" 
d="M179 770c0 34 31 64 64 64c28 0 47 -21 47 -47c0 -32 -31 -63 -64 -63c-28 0 -47 21 -47 46zM62 0l107 641h91l-107 -641h-91z" />
    <glyph glyph-name="Igrave" unicode="&#xcc;" horiz-adv-x="272" 
d="M196 850l73 -156h-77l-98 156h102zM62 0l107 641h91l-107 -641h-91z" />
    <glyph glyph-name="Imacron" unicode="&#x12a;" horiz-adv-x="272" 
d="M99 813h281l-10 -68h-281zM62 0l107 641h91l-107 -641h-91z" />
    <glyph glyph-name="Iogonek" unicode="&#x12e;" horiz-adv-x="272" 
d="M143 -168c-27 -25 -64 -40 -105 -40c-56 0 -92 30 -92 77c0 56 40 104 118 144l105 628h91l-107 -641c-81 -31 -131 -72 -131 -112c0 -18 14 -31 37 -31c21 0 37 7 60 25z" />
    <glyph glyph-name="Itilde" unicode="&#x128;" horiz-adv-x="272" 
d="M102 711l-41 37c35 63 74 83 110 83c59 0 80 -56 128 -56c28 0 50 24 69 54l40 -36c-33 -63 -71 -83 -107 -83c-58 0 -81 55 -128 55c-28 0 -52 -24 -71 -54zM62 0l107 641h91l-107 -641h-91z" />
    <glyph glyph-name="Jcircumflex" unicode="&#x134;" horiz-adv-x="450" 
d="M343 694h-88l144 156h82l96 -156h-82l-61 101zM11 64l66 65c22 -37 53 -52 95 -52c65 0 102 32 117 121l74 443h90l-75 -452c-26 -151 -97 -201 -208 -201c-65 0 -126 24 -159 76z" />
    <glyph glyph-name="Kcommaaccent" unicode="&#x136;" horiz-adv-x="583" 
d="M153 0h-91l107 641h91l-51 -304l322 304h119l-342 -320l241 -321h-105l-238 319zM326 -51l-65 -142h-71l46 142h90z" />
    <glyph glyph-name="Lacute" unicode="&#x139;" horiz-adv-x="534" 
d="M297 850h109l-147 -156h-84zM62 0l107 641h91l-93 -556h332l-14 -85h-423z" />
    <glyph glyph-name="Lcaron" unicode="&#x13d;" horiz-adv-x="534" 
d="M62 0l107 641h91l-93 -556h332l-14 -85h-423zM435 641l-64 -166h-66l46 166h84z" />
    <glyph glyph-name="Lcommaaccent" unicode="&#x13b;" horiz-adv-x="534" 
d="M62 0l107 641h91l-93 -556h332l-14 -85h-423zM309 -51l-65 -142h-71l46 142h90z" />
    <glyph glyph-name="Ldot" unicode="&#x13f;" horiz-adv-x="534" 
d="M62 0l107 641h91l-93 -556h332l-14 -85h-423zM375 251c-27 0 -46 19 -46 45c0 37 30 65 64 65c28 0 47 -21 47 -47c0 -38 -31 -63 -65 -63z" />
    <glyph glyph-name="Lslash" unicode="&#x141;" horiz-adv-x="534" 
d="M62 0l46 275l-67 -20l12 77l68 21l48 288h91l-43 -260l127 39l-13 -77l-127 -39l-37 -219h332l-14 -85h-423z" />
    <glyph glyph-name="Nacute" unicode="&#x143;" horiz-adv-x="719" 
d="M527 850h109l-147 -156h-84zM516 0l-279 505l-84 -505h-91l107 641h96l273 -501l84 501h91l-107 -641h-90z" />
    <glyph glyph-name="Ncaron" unicode="&#x147;" horiz-adv-x="719" 
d="M495 694h-82l-96 156h82l61 -101l91 101h88zM516 0l-279 505l-84 -505h-91l107 641h96l273 -501l84 501h91l-107 -641h-90z" />
    <glyph glyph-name="Ncommaaccent" unicode="&#x145;" horiz-adv-x="719" 
d="M516 0l-279 505l-84 -505h-91l107 641h96l273 -501l84 501h91l-107 -641h-90zM366 -51l-65 -142h-71l46 142h90z" />
    <glyph glyph-name="Ntilde" unicode="&#xd1;" horiz-adv-x="719" 
d="M335 711l-41 37c35 63 74 83 110 83c59 0 80 -56 128 -56c28 0 50 24 69 54l40 -36c-33 -63 -71 -83 -107 -83c-58 0 -81 55 -128 55c-28 0 -52 -24 -71 -54zM516 0l-279 505l-84 -505h-91l107 641h96l273 -501l84 501h91l-107 -641h-90z" />
    <glyph glyph-name="Oacute" unicode="&#xd3;" horiz-adv-x="767" 
d="M509 850h109l-147 -156h-84zM428 653c174 0 306 -114 306 -301c0 -214 -159 -364 -361 -364c-174 0 -306 114 -306 301c0 211 159 364 361 364zM381 77c143 0 256 113 256 269c0 129 -81 218 -217 218c-143 0 -256 -113 -256 -269c0 -129 82 -218 217 -218z" />
    <glyph glyph-name="Obreve" unicode="&#x14e;" horiz-adv-x="767" 
d="M441 684c-86 0 -141 61 -125 155h65c-12 -63 16 -94 62 -94c48 0 83 31 94 94h66c-16 -94 -74 -155 -162 -155zM428 653c174 0 306 -114 306 -301c0 -214 -159 -364 -361 -364c-174 0 -306 114 -306 301c0 211 159 364 361 364zM381 77c143 0 256 113 256 269
c0 129 -81 218 -217 218c-143 0 -256 -113 -256 -269c0 -129 82 -218 217 -218z" />
    <glyph glyph-name="Ocircumflex" unicode="&#xd4;" horiz-adv-x="767" 
d="M364 694h-88l144 156h82l96 -156h-82l-61 101zM428 653c174 0 306 -114 306 -301c0 -214 -159 -364 -361 -364c-174 0 -306 114 -306 301c0 211 159 364 361 364zM381 77c143 0 256 113 256 269c0 129 -81 218 -217 218c-143 0 -256 -113 -256 -269
c0 -129 82 -218 217 -218z" />
    <glyph glyph-name="Odieresis" unicode="&#xd6;" horiz-adv-x="767" 
d="M314 768c0 31 28 59 59 59c25 0 44 -20 44 -44c0 -31 -29 -58 -60 -58c-25 0 -43 18 -43 43zM480 768c0 31 29 59 59 59c26 0 44 -20 44 -44c0 -31 -28 -58 -60 -58c-25 0 -43 18 -43 43zM428 653c174 0 306 -114 306 -301c0 -214 -159 -364 -361 -364
c-174 0 -306 114 -306 301c0 211 159 364 361 364zM381 77c143 0 256 113 256 269c0 129 -81 218 -217 218c-143 0 -256 -113 -256 -269c0 -129 82 -218 217 -218z" />
    <glyph glyph-name="Ograve" unicode="&#xd2;" horiz-adv-x="767" 
d="M411 850l73 -156h-77l-98 156h102zM428 653c174 0 306 -114 306 -301c0 -214 -159 -364 -361 -364c-174 0 -306 114 -306 301c0 211 159 364 361 364zM381 77c143 0 256 113 256 269c0 129 -81 218 -217 218c-143 0 -256 -113 -256 -269c0 -129 82 -218 217 -218z" />
    <glyph glyph-name="Ohungarumlaut" unicode="&#x150;" horiz-adv-x="767" 
d="M430 850h92l-142 -156h-73zM586 850h96l-146 -156h-72zM428 653c174 0 306 -114 306 -301c0 -214 -159 -364 -361 -364c-174 0 -306 114 -306 301c0 211 159 364 361 364zM381 77c143 0 256 113 256 269c0 129 -81 218 -217 218c-143 0 -256 -113 -256 -269
c0 -129 82 -218 217 -218z" />
    <glyph glyph-name="Omacron" unicode="&#x14c;" horiz-adv-x="767" 
d="M314 813h281l-10 -68h-281zM428 653c174 0 306 -114 306 -301c0 -214 -159 -364 -361 -364c-174 0 -306 114 -306 301c0 211 159 364 361 364zM381 77c143 0 256 113 256 269c0 129 -81 218 -217 218c-143 0 -256 -113 -256 -269c0 -129 82 -218 217 -218z" />
    <glyph glyph-name="Oslash" unicode="&#xd8;" horiz-adv-x="768" 
d="M388 -12c-64 0 -123 16 -171 45l-68 -81l-52 46l65 78c-50 51 -80 124 -80 213c0 211 159 364 361 364c63 0 120 -15 167 -42l67 79l52 -46l-63 -76c52 -51 83 -125 83 -216c0 -214 -159 -364 -361 -364zM179 295c0 -58 16 -107 46 -144l324 386c-32 18 -70 27 -114 27
c-144 0 -256 -113 -256 -269zM396 77c143 0 256 113 256 269c0 59 -17 110 -49 148l-325 -388c32 -19 72 -29 118 -29z" />
    <glyph glyph-name="Otilde" unicode="&#xd5;" horiz-adv-x="767" 
d="M317 711l-41 37c35 63 74 83 110 83c59 0 80 -56 128 -56c28 0 50 24 69 54l40 -36c-33 -63 -71 -83 -107 -83c-58 0 -81 55 -128 55c-28 0 -52 -24 -71 -54zM428 653c174 0 306 -114 306 -301c0 -214 -159 -364 -361 -364c-174 0 -306 114 -306 301
c0 211 159 364 361 364zM381 77c143 0 256 113 256 269c0 129 -81 218 -217 218c-143 0 -256 -113 -256 -269c0 -129 82 -218 217 -218z" />
    <glyph glyph-name="OE" unicode="&#x152;" horiz-adv-x="1011" 
d="M388 -12c-174 0 -306 114 -306 301c0 211 159 364 361 364c107 0 195 -46 240 -133l20 121h407l-13 -82h-317l-33 -198h277l-14 -81h-276l-33 -200h316l-14 -80h-407l15 88c-58 -62 -136 -100 -223 -100zM396 77c142 0 253 113 253 269c0 129 -80 218 -214 218
c-144 0 -256 -113 -256 -269c0 -129 81 -218 217 -218z" />
    <glyph glyph-name="Thorn" unicode="&#xde;" horiz-adv-x="608" 
d="M153 0h-91l107 641h91l-18 -106h145c132 0 204 -65 204 -168c0 -164 -107 -239 -277 -239h-140zM376 456h-147l-42 -251h146c100 0 163 53 163 149c0 63 -43 102 -120 102z" />
    <glyph glyph-name="Racute" unicode="&#x154;" horiz-adv-x="616" 
d="M460 850h109l-147 -156h-84zM62 0l107 641h225c129 0 205 -62 205 -159c0 -122 -71 -198 -184 -221l127 -261h-97l-121 254h-128l-43 -254h-91zM389 560h-143l-38 -229h147c92 0 148 53 148 135c0 58 -41 94 -114 94z" />
    <glyph glyph-name="Rcaron" unicode="&#x158;" horiz-adv-x="616" 
d="M428 694h-82l-96 156h82l61 -101l91 101h88zM62 0l107 641h225c129 0 205 -62 205 -159c0 -122 -71 -198 -184 -221l127 -261h-97l-121 254h-128l-43 -254h-91zM389 560h-143l-38 -229h147c92 0 148 53 148 135c0 58 -41 94 -114 94z" />
    <glyph glyph-name="Rcommaaccent" unicode="&#x156;" horiz-adv-x="616" 
d="M62 0l107 641h225c129 0 205 -62 205 -159c0 -122 -71 -198 -184 -221l127 -261h-97l-121 254h-128l-43 -254h-91zM389 560h-143l-38 -229h147c92 0 148 53 148 135c0 58 -41 94 -114 94zM315 -51l-65 -142h-71l46 142h90z" />
    <glyph glyph-name="Sacute" unicode="&#x15a;" horiz-adv-x="551" 
d="M428 850h109l-147 -156h-84zM126 -1c-29 8 -66 27 -109 58l50 76c51 -37 123 -60 188 -60c88 0 162 46 162 118c0 110 -312 67 -312 250c0 123 108 213 256 213c82 0 152 -21 201 -60l-55 -71c-37 26 -91 46 -153 46c-87 0 -150 -50 -150 -113c0 -116 311 -74 311 -249
c0 -136 -124 -219 -268 -219c-52 0 -92 4 -121 11z" />
    <glyph glyph-name="Scaron" unicode="&#x160;" horiz-adv-x="551" 
d="M396 694h-82l-96 156h82l61 -101l91 101h88zM126 -1c-29 8 -66 27 -109 58l50 76c51 -37 123 -60 188 -60c88 0 162 46 162 118c0 110 -312 67 -312 250c0 123 108 213 256 213c82 0 152 -21 201 -60l-55 -71c-37 26 -91 46 -153 46c-87 0 -150 -50 -150 -113
c0 -116 311 -74 311 -249c0 -136 -124 -219 -268 -219c-52 0 -92 4 -121 11z" />
    <glyph glyph-name="Scedilla" unicode="&#x15e;" horiz-adv-x="551" 
d="M126 -1c-29 8 -66 27 -109 58l50 76c51 -37 123 -60 188 -60c88 0 162 46 162 118c0 110 -312 67 -312 250c0 123 108 213 256 213c82 0 152 -21 201 -60l-55 -71c-37 26 -91 46 -153 46c-87 0 -150 -50 -150 -113c0 -116 311 -74 311 -249c0 -128 -109 -208 -241 -218
l-71 -175l-74 30l82 145c-35 1 -63 5 -85 10z" />
    <glyph glyph-name="Scircumflex" unicode="&#x15c;" horiz-adv-x="551" 
d="M283 694h-88l144 156h82l96 -156h-82l-61 101zM126 -1c-29 8 -66 27 -109 58l50 76c51 -37 123 -60 188 -60c88 0 162 46 162 118c0 110 -312 67 -312 250c0 123 108 213 256 213c82 0 152 -21 201 -60l-55 -71c-37 26 -91 46 -153 46c-87 0 -150 -50 -150 -113
c0 -116 311 -74 311 -249c0 -136 -124 -219 -268 -219c-52 0 -92 4 -121 11z" />
    <glyph glyph-name="Scommaaccent" unicode="&#x218;" horiz-adv-x="551" 
d="M126 -1c-29 8 -66 27 -109 58l50 76c51 -37 123 -60 188 -60c88 0 162 46 162 118c0 110 -312 67 -312 250c0 123 108 213 256 213c82 0 152 -21 201 -60l-55 -71c-37 26 -91 46 -153 46c-87 0 -150 -50 -150 -113c0 -116 311 -74 311 -249c0 -136 -124 -219 -268 -219
c-52 0 -92 4 -121 11zM283 -51l-65 -142h-71l46 142h90z" />
    <glyph glyph-name="Tbar" unicode="&#x166;" horiz-adv-x="528" 
d="M164 357h84l33 199h-203l15 85h497l-15 -85h-203l-33 -199h85l-10 -72h-87l-48 -285h-90l47 285h-82z" />
    <glyph glyph-name="Tcaron" unicode="&#x164;" horiz-adv-x="528" 
d="M391 694h-82l-96 156h82l61 -101l91 101h88zM575 556h-203l-93 -556h-90l92 556h-203l15 85h497z" />
    <glyph glyph-name="Tcedilla" unicode="&#x162;" horiz-adv-x="528" 
d="M205 0h-16l92 556h-203l15 85h497l-15 -85h-203l-93 -556h-13l-75 -186l-74 30z" />
    <glyph glyph-name="Tcommaaccent" unicode="&#x21a;" horiz-adv-x="528" 
d="M575 556h-203l-93 -556h-90l92 556h-203l15 85h497zM271 -51l-65 -142h-71l46 142h90z" />
    <glyph glyph-name="Uacute" unicode="&#xda;" horiz-adv-x="668" 
d="M486 850h109l-147 -156h-84zM93 243l67 398h90l-66 -398c-18 -108 32 -166 140 -166c101 0 163 61 181 170l66 394h91l-67 -398c-28 -172 -121 -255 -283 -255c-161 0 -245 93 -219 255z" />
    <glyph glyph-name="Ubreve" unicode="&#x16c;" horiz-adv-x="668" 
d="M418 684c-86 0 -141 61 -125 155h65c-12 -63 16 -94 62 -94c48 0 83 31 94 94h66c-16 -94 -74 -155 -162 -155zM93 243l67 398h90l-66 -398c-18 -108 32 -166 140 -166c101 0 163 61 181 170l66 394h91l-67 -398c-28 -172 -121 -255 -283 -255c-161 0 -245 93 -219 255z
" />
    <glyph glyph-name="Ucircumflex" unicode="&#xdb;" horiz-adv-x="668" 
d="M341 694h-88l144 156h82l96 -156h-82l-61 101zM93 243l67 398h90l-66 -398c-18 -108 32 -166 140 -166c101 0 163 61 181 170l66 394h91l-67 -398c-28 -172 -121 -255 -283 -255c-161 0 -245 93 -219 255z" />
    <glyph glyph-name="Udieresis" unicode="&#xdc;" horiz-adv-x="668" 
d="M291 768c0 31 28 59 59 59c25 0 44 -20 44 -44c0 -31 -29 -58 -60 -58c-25 0 -43 18 -43 43zM457 768c0 31 29 59 59 59c26 0 44 -20 44 -44c0 -31 -28 -58 -60 -58c-25 0 -43 18 -43 43zM93 243l67 398h90l-66 -398c-18 -108 32 -166 140 -166c101 0 163 61 181 170
l66 394h91l-67 -398c-28 -172 -121 -255 -283 -255c-161 0 -245 93 -219 255z" />
    <glyph glyph-name="Ugrave" unicode="&#xd9;" horiz-adv-x="668" 
d="M388 850l73 -156h-77l-98 156h102zM93 243l67 398h90l-66 -398c-18 -108 32 -166 140 -166c101 0 163 61 181 170l66 394h91l-67 -398c-28 -172 -121 -255 -283 -255c-161 0 -245 93 -219 255z" />
    <glyph glyph-name="Uhungarumlaut" unicode="&#x170;" horiz-adv-x="668" 
d="M407 850h92l-142 -156h-73zM563 850h96l-146 -156h-72zM93 243l67 398h90l-66 -398c-18 -108 32 -166 140 -166c101 0 163 61 181 170l66 394h91l-67 -398c-28 -172 -121 -255 -283 -255c-161 0 -245 93 -219 255z" />
    <glyph glyph-name="Umacron" unicode="&#x16a;" horiz-adv-x="668" 
d="M291 813h281l-10 -68h-281zM93 243l67 398h90l-66 -398c-18 -108 32 -166 140 -166c101 0 163 61 181 170l66 394h91l-67 -398c-28 -172 -121 -255 -283 -255c-161 0 -245 93 -219 255z" />
    <glyph glyph-name="Uogonek" unicode="&#x172;" horiz-adv-x="668" 
d="M93 243l67 398h90l-66 -398c-18 -108 32 -166 140 -166c101 0 163 61 181 170l66 394h91l-67 -398c-23 -140 -88 -221 -199 -246c-76 -31 -123 -70 -123 -109c0 -18 14 -31 37 -31c21 0 37 7 60 25l24 -50c-27 -25 -64 -40 -105 -40c-56 0 -92 30 -92 77
c0 46 26 86 78 121c-137 13 -206 104 -182 253z" />
    <glyph glyph-name="Uring" unicode="&#x16e;" horiz-adv-x="668" 
d="M410 684c-59 0 -99 39 -99 93c0 72 60 127 131 127c60 0 98 -40 98 -92c0 -73 -59 -128 -130 -128zM417 736c38 0 67 31 67 68c0 28 -19 48 -48 48c-36 0 -68 -28 -68 -68c0 -29 18 -48 49 -48zM93 243l67 398h90l-66 -398c-18 -108 32 -166 140 -166
c101 0 163 61 181 170l66 394h91l-67 -398c-28 -172 -121 -255 -283 -255c-161 0 -245 93 -219 255z" />
    <glyph glyph-name="Utilde" unicode="&#x168;" horiz-adv-x="668" 
d="M294 711l-41 37c35 63 74 83 110 83c59 0 80 -56 128 -56c28 0 50 24 69 54l40 -36c-33 -63 -71 -83 -107 -83c-58 0 -81 55 -128 55c-28 0 -52 -24 -71 -54zM93 243l67 398h90l-66 -398c-18 -108 32 -166 140 -166c101 0 163 61 181 170l66 394h91l-67 -398
c-28 -172 -121 -255 -283 -255c-161 0 -245 93 -219 255z" />
    <glyph glyph-name="Wacute" unicode="&#x1e82;" horiz-adv-x="997" 
d="M648 850h109l-147 -156h-84zM936 641h101l-313 -641h-112l-64 526l-239 -526h-108l-99 641h99l73 -523l234 523h119l63 -524z" />
    <glyph glyph-name="Wcircumflex" unicode="&#x174;" horiz-adv-x="997" 
d="M503 694h-88l144 156h82l96 -156h-82l-61 101zM936 641h101l-313 -641h-112l-64 526l-239 -526h-108l-99 641h99l73 -523l234 523h119l63 -524z" />
    <glyph glyph-name="Wdieresis" unicode="&#x1e84;" horiz-adv-x="997" 
d="M453 768c0 31 28 59 59 59c25 0 44 -20 44 -44c0 -31 -29 -58 -60 -58c-25 0 -43 18 -43 43zM619 768c0 31 29 59 59 59c26 0 44 -20 44 -44c0 -31 -28 -58 -60 -58c-25 0 -43 18 -43 43zM936 641h101l-313 -641h-112l-64 526l-239 -526h-108l-99 641h99l73 -523l234 523
h119l63 -524z" />
    <glyph glyph-name="Wgrave" unicode="&#x1e80;" horiz-adv-x="997" 
d="M550 850l73 -156h-77l-98 156h102zM936 641h101l-313 -641h-112l-64 526l-239 -526h-108l-99 641h99l73 -523l234 523h119l63 -524z" />
    <glyph glyph-name="Yacute" unicode="&#xdd;" horiz-adv-x="599" 
d="M440 850h109l-147 -156h-84zM214 0l36 216l-169 425h94l133 -335l241 335h101l-309 -425l-36 -216h-91z" />
    <glyph glyph-name="Ycircumflex" unicode="&#x176;" horiz-adv-x="599" 
d="M295 694h-88l144 156h82l96 -156h-82l-61 101zM214 0l36 216l-169 425h94l133 -335l241 335h101l-309 -425l-36 -216h-91z" />
    <glyph glyph-name="Ydieresis" unicode="&#x178;" horiz-adv-x="599" 
d="M245 768c0 31 28 59 59 59c25 0 44 -20 44 -44c0 -31 -29 -58 -60 -58c-25 0 -43 18 -43 43zM411 768c0 31 29 59 59 59c26 0 44 -20 44 -44c0 -31 -28 -58 -60 -58c-25 0 -43 18 -43 43zM214 0l36 216l-169 425h94l133 -335l241 335h101l-309 -425l-36 -216h-91z" />
    <glyph glyph-name="Ygrave" unicode="&#x1ef2;" horiz-adv-x="599" 
d="M342 850l73 -156h-77l-98 156h102zM214 0l36 216l-169 425h94l133 -335l241 335h101l-309 -425l-36 -216h-91z" />
    <glyph glyph-name="Zacute" unicode="&#x179;" horiz-adv-x="569" 
d="M442 850h109l-147 -156h-84zM38 79l432 477h-348l15 85h473l-13 -78l-435 -478h359l-14 -85h-482z" />
    <glyph glyph-name="Zcaron" unicode="&#x17d;" horiz-adv-x="569" 
d="M410 694h-82l-96 156h82l61 -101l91 101h88zM38 79l432 477h-348l15 85h473l-13 -78l-435 -478h359l-14 -85h-482z" />
    <glyph glyph-name="Zdotaccent" unicode="&#x17b;" horiz-adv-x="569" 
d="M327 770c0 34 31 64 64 64c28 0 47 -21 47 -47c0 -32 -31 -63 -64 -63c-28 0 -47 21 -47 46zM38 79l432 477h-348l15 85h473l-13 -78l-435 -478h359l-14 -85h-482z" />
    <glyph glyph-name="Gbreve.alt" horiz-adv-x="744" 
d="M473 684c-86 0 -141 61 -125 155h65c-12 -63 16 -94 62 -94c48 0 83 31 94 94h66c-16 -94 -74 -155 -162 -155zM347 -12c-161 0 -280 110 -280 272c0 214 181 393 396 393c102 0 175 -31 223 -80l-65 -67c-38 36 -88 60 -160 60c-156 0 -297 -142 -297 -297
c0 -120 81 -194 195 -194c137 0 225 81 251 180l5 27h-211l14 84h303l-22 -134c-40 -125 -147 -244 -352 -244z" />
    <glyph glyph-name="Gcircumflex.alt" horiz-adv-x="744" 
d="M396 694h-88l144 156h82l96 -156h-82l-61 101zM347 -12c-161 0 -280 110 -280 272c0 214 181 393 396 393c102 0 175 -31 223 -80l-65 -67c-38 36 -88 60 -160 60c-156 0 -297 -142 -297 -297c0 -120 81 -194 195 -194c137 0 225 81 251 180l5 27h-211l14 84h303
l-22 -134c-40 -125 -147 -244 -352 -244z" />
    <glyph glyph-name="Gcommaaccent.alt" horiz-adv-x="744" 
d="M347 -12c-161 0 -280 110 -280 272c0 214 181 393 396 393c102 0 175 -31 223 -80l-65 -67c-38 36 -88 60 -160 60c-156 0 -297 -142 -297 -297c0 -120 81 -194 195 -194c137 0 225 81 251 180l5 27h-211l14 84h303l-22 -134c-40 -125 -147 -244 -352 -244zM380 -51
l-65 -142h-71l46 142h90z" />
    <glyph glyph-name="Gdotaccent.alt" horiz-adv-x="744" 
d="M426 770c0 34 31 64 64 64c28 0 47 -21 47 -47c0 -32 -31 -63 -64 -63c-28 0 -47 21 -47 46zM347 -12c-161 0 -280 110 -280 272c0 214 181 393 396 393c102 0 175 -31 223 -80l-65 -67c-38 36 -88 60 -160 60c-156 0 -297 -142 -297 -297c0 -120 81 -194 195 -194
c137 0 225 81 251 180l5 27h-211l14 84h303l-22 -134c-40 -125 -147 -244 -352 -244z" />
    <glyph glyph-name="aacute" unicode="&#xe1;" horiz-adv-x="627" 
d="M437 688h109l-147 -156h-84zM255 -12c-116 0 -199 78 -199 212c0 165 105 291 265 291c83 0 139 -36 165 -96l14 84h88l-80 -479h-88l12 73c-42 -52 -101 -85 -177 -85zM283 69c102 0 178 82 178 202c0 85 -51 139 -136 139c-108 0 -178 -87 -178 -196
c0 -89 46 -145 136 -145z" />
    <glyph glyph-name="abreve" unicode="&#x103;" horiz-adv-x="627" 
d="M369 522c-86 0 -141 61 -125 155h65c-12 -63 16 -94 62 -94c48 0 83 31 94 94h66c-16 -94 -74 -155 -162 -155zM255 -12c-116 0 -199 78 -199 212c0 165 105 291 265 291c83 0 139 -36 165 -96l14 84h88l-80 -479h-88l12 73c-42 -52 -101 -85 -177 -85zM283 69
c102 0 178 82 178 202c0 85 -51 139 -136 139c-108 0 -178 -87 -178 -196c0 -89 46 -145 136 -145z" />
    <glyph glyph-name="acircumflex" unicode="&#xe2;" horiz-adv-x="627" 
d="M292 532h-88l144 156h82l96 -156h-82l-61 101zM255 -12c-116 0 -199 78 -199 212c0 165 105 291 265 291c83 0 139 -36 165 -96l14 84h88l-80 -479h-88l12 73c-42 -52 -101 -85 -177 -85zM283 69c102 0 178 82 178 202c0 85 -51 139 -136 139c-108 0 -178 -87 -178 -196
c0 -89 46 -145 136 -145z" />
    <glyph glyph-name="adieresis" unicode="&#xe4;" horiz-adv-x="627" 
d="M242 606c0 31 28 59 59 59c25 0 44 -20 44 -44c0 -31 -29 -58 -60 -58c-25 0 -43 18 -43 43zM408 606c0 31 29 59 59 59c26 0 44 -20 44 -44c0 -31 -28 -58 -60 -58c-25 0 -43 18 -43 43zM255 -12c-116 0 -199 78 -199 212c0 165 105 291 265 291c83 0 139 -36 165 -96
l14 84h88l-80 -479h-88l12 73c-42 -52 -101 -85 -177 -85zM283 69c102 0 178 82 178 202c0 85 -51 139 -136 139c-108 0 -178 -87 -178 -196c0 -89 46 -145 136 -145z" />
    <glyph glyph-name="agrave" unicode="&#xe0;" horiz-adv-x="627" 
d="M339 688l73 -156h-77l-98 156h102zM255 -12c-116 0 -199 78 -199 212c0 165 105 291 265 291c83 0 139 -36 165 -96l14 84h88l-80 -479h-88l12 73c-42 -52 -101 -85 -177 -85zM283 69c102 0 178 82 178 202c0 85 -51 139 -136 139c-108 0 -178 -87 -178 -196
c0 -89 46 -145 136 -145z" />
    <glyph glyph-name="amacron" unicode="&#x101;" horiz-adv-x="627" 
d="M242 651h281l-10 -68h-281zM255 -12c-116 0 -199 78 -199 212c0 165 105 291 265 291c83 0 139 -36 165 -96l14 84h88l-80 -479h-88l12 73c-42 -52 -101 -85 -177 -85zM283 69c102 0 178 82 178 202c0 85 -51 139 -136 139c-108 0 -178 -87 -178 -196
c0 -89 46 -145 136 -145z" />
    <glyph glyph-name="aogonek" unicode="&#x105;" horiz-adv-x="627" 
d="M255 -12c-116 0 -199 78 -199 212c0 165 105 291 265 291c83 0 139 -36 165 -96l14 84h88l-80 -479c-81 -31 -131 -72 -131 -112c0 -18 14 -31 37 -31c21 0 37 7 60 25l24 -50c-27 -25 -64 -40 -105 -40c-56 0 -92 30 -92 77c0 57 41 105 121 146l10 58
c-42 -52 -101 -85 -177 -85zM283 69c102 0 178 82 178 202c0 85 -51 139 -136 139c-108 0 -178 -87 -178 -196c0 -89 46 -145 136 -145z" />
    <glyph glyph-name="aring" unicode="&#xe5;" horiz-adv-x="627" 
d="M361 522c-59 0 -99 39 -99 93c0 72 60 127 131 127c60 0 98 -40 98 -92c0 -73 -59 -128 -130 -128zM368 574c38 0 67 31 67 68c0 28 -19 48 -48 48c-36 0 -68 -28 -68 -68c0 -29 18 -48 49 -48zM255 -12c-116 0 -199 78 -199 212c0 165 105 291 265 291
c83 0 139 -36 165 -96l14 84h88l-80 -479h-88l12 73c-42 -52 -101 -85 -177 -85zM283 69c102 0 178 82 178 202c0 85 -51 139 -136 139c-108 0 -178 -87 -178 -196c0 -89 46 -145 136 -145z" />
    <glyph glyph-name="atilde" unicode="&#xe3;" horiz-adv-x="627" 
d="M245 549l-41 37c35 63 74 83 110 83c59 0 80 -56 128 -56c28 0 50 24 69 54l40 -36c-33 -63 -71 -83 -107 -83c-58 0 -81 55 -128 55c-28 0 -52 -24 -71 -54zM255 -12c-116 0 -199 78 -199 212c0 165 105 291 265 291c83 0 139 -36 165 -96l14 84h88l-80 -479h-88l12 73
c-42 -52 -101 -85 -177 -85zM283 69c102 0 178 82 178 202c0 85 -51 139 -136 139c-108 0 -178 -87 -178 -196c0 -89 46 -145 136 -145z" />
    <glyph glyph-name="ae" unicode="&#xe6;" horiz-adv-x="956" 
d="M254 -12c-115 0 -199 73 -199 212c0 165 104 291 265 291c84 0 139 -35 165 -95l14 83h84l-11 -65c46 48 107 77 179 77c112 0 183 -84 183 -196c0 -27 -6 -71 -11 -87h-381c0 -91 55 -141 140 -141c56 0 113 20 151 54l38 -66c-45 -43 -112 -67 -182 -67
c-79 0 -140 33 -173 88l-13 -76h-84l13 76c-42 -54 -103 -88 -178 -88zM724 415c-85 0 -148 -51 -172 -132h294c-2 85 -45 132 -122 132zM284 69c101 0 176 84 176 207c0 82 -51 134 -136 134c-108 0 -178 -86 -178 -193c0 -91 47 -148 138 -148z" />
    <glyph glyph-name="cacute" unicode="&#x107;" horiz-adv-x="500" 
d="M417 688h109l-147 -156h-84zM453 361c-29 34 -71 49 -125 49c-111 0 -183 -82 -183 -195c0 -92 58 -145 146 -145c52 0 94 16 130 47l44 -67c-47 -41 -107 -62 -185 -62c-134 0 -224 84 -224 219c0 163 109 284 282 284c82 0 141 -24 176 -64z" />
    <glyph glyph-name="ccaron" unicode="&#x10d;" horiz-adv-x="500" 
d="M385 532h-82l-96 156h82l61 -101l91 101h88zM453 361c-29 34 -71 49 -125 49c-111 0 -183 -82 -183 -195c0 -92 58 -145 146 -145c52 0 94 16 130 47l44 -67c-47 -41 -107 -62 -185 -62c-134 0 -224 84 -224 219c0 163 109 284 282 284c82 0 141 -24 176 -64z" />
    <glyph glyph-name="ccedilla" unicode="&#xe7;" horiz-adv-x="500" 
d="M453 361c-29 34 -71 49 -125 49c-111 0 -183 -82 -183 -195c0 -92 58 -145 146 -145c52 0 94 16 130 47l44 -67c-41 -35 -91 -56 -154 -61l-71 -175l-74 30l82 146c-116 12 -192 93 -192 217c0 163 109 284 282 284c82 0 141 -24 176 -64z" />
    <glyph glyph-name="ccircumflex" unicode="&#x109;" horiz-adv-x="500" 
d="M272 532h-88l144 156h82l96 -156h-82l-61 101zM453 361c-29 34 -71 49 -125 49c-111 0 -183 -82 -183 -195c0 -92 58 -145 146 -145c52 0 94 16 130 47l44 -67c-47 -41 -107 -62 -185 -62c-134 0 -224 84 -224 219c0 163 109 284 282 284c82 0 141 -24 176 -64z" />
    <glyph glyph-name="cdotaccent" unicode="&#x10b;" horiz-adv-x="500" 
d="M302 608c0 34 31 64 64 64c28 0 47 -21 47 -47c0 -32 -31 -63 -64 -63c-28 0 -47 21 -47 46zM453 361c-29 34 -71 49 -125 49c-111 0 -183 -82 -183 -195c0 -92 58 -145 146 -145c52 0 94 16 130 47l44 -67c-47 -41 -107 -62 -185 -62c-134 0 -224 84 -224 219
c0 163 109 284 282 284c82 0 141 -24 176 -64z" />
    <glyph glyph-name="eth" unicode="&#xf0;" horiz-adv-x="585" 
d="M315 469c66 0 117 -23 146 -60c-15 66 -44 116 -79 154l-83 -43l-21 52l61 31c-28 23 -57 39 -83 52l70 56c35 -18 67 -40 95 -66l81 42l21 -51l-62 -32c60 -72 95 -164 95 -267c0 -234 -126 -349 -286 -349c-129 0 -217 79 -217 208c0 168 124 273 262 273zM280 69
c98 0 179 90 179 193c0 77 -51 133 -136 133c-102 0 -180 -80 -180 -193c0 -82 51 -133 137 -133z" />
    <glyph glyph-name="dcaron" unicode="&#x10f;" horiz-adv-x="626" 
d="M253 -12c-114 0 -197 73 -197 211c0 166 105 292 266 292c83 0 138 -36 164 -96l49 293h88l-115 -688h-88l13 76c-43 -54 -104 -88 -180 -88zM763 688l-64 -166h-66l46 166h84zM281 69c103 0 180 83 180 204c0 84 -50 137 -134 137c-109 0 -180 -87 -180 -196
c0 -87 46 -145 134 -145z" />
    <glyph glyph-name="dcroat" unicode="&#x111;" horiz-adv-x="626" 
d="M253 -12c-114 0 -197 73 -197 211c0 166 105 292 266 292c83 0 138 -36 164 -96l28 167h-136l11 67h136l10 59h88l-10 -59h57l-10 -67h-58l-94 -562h-88l13 76c-43 -54 -104 -88 -180 -88zM281 69c103 0 180 83 180 204c0 84 -50 137 -134 137c-109 0 -180 -87 -180 -196
c0 -87 46 -145 134 -145z" />
    <glyph glyph-name="eacute" unicode="&#xe9;" horiz-adv-x="565" 
d="M411 688h109l-147 -156h-84zM281 -12c-142 0 -225 85 -225 216c0 168 112 287 275 287c125 0 206 -83 206 -195c0 -27 -6 -71 -12 -88h-380c2 -92 57 -141 148 -141c57 0 99 21 134 52l45 -64c-44 -42 -111 -67 -191 -67zM321 415c-84 0 -146 -50 -167 -132h294
c0 85 -44 132 -127 132z" />
    <glyph glyph-name="ebreve" unicode="&#x115;" horiz-adv-x="565" 
d="M343 522c-86 0 -141 61 -125 155h65c-12 -63 16 -94 62 -94c48 0 83 31 94 94h66c-16 -94 -74 -155 -162 -155zM281 -12c-142 0 -225 85 -225 216c0 168 112 287 275 287c125 0 206 -83 206 -195c0 -27 -6 -71 -12 -88h-380c2 -92 57 -141 148 -141c57 0 99 21 134 52
l45 -64c-44 -42 -111 -67 -191 -67zM321 415c-84 0 -146 -50 -167 -132h294c0 85 -44 132 -127 132z" />
    <glyph glyph-name="ecaron" unicode="&#x11b;" horiz-adv-x="565" 
d="M379 532h-82l-96 156h82l61 -101l91 101h88zM281 -12c-142 0 -225 85 -225 216c0 168 112 287 275 287c125 0 206 -83 206 -195c0 -27 -6 -71 -12 -88h-380c2 -92 57 -141 148 -141c57 0 99 21 134 52l45 -64c-44 -42 -111 -67 -191 -67zM321 415
c-84 0 -146 -50 -167 -132h294c0 85 -44 132 -127 132z" />
    <glyph glyph-name="ecircumflex" unicode="&#xea;" horiz-adv-x="565" 
d="M266 532h-88l144 156h82l96 -156h-82l-61 101zM281 -12c-142 0 -225 85 -225 216c0 168 112 287 275 287c125 0 206 -83 206 -195c0 -27 -6 -71 -12 -88h-380c2 -92 57 -141 148 -141c57 0 99 21 134 52l45 -64c-44 -42 -111 -67 -191 -67zM321 415
c-84 0 -146 -50 -167 -132h294c0 85 -44 132 -127 132z" />
    <glyph glyph-name="edieresis" unicode="&#xeb;" horiz-adv-x="565" 
d="M216 606c0 31 28 59 59 59c25 0 44 -20 44 -44c0 -31 -29 -58 -60 -58c-25 0 -43 18 -43 43zM382 606c0 31 29 59 59 59c26 0 44 -20 44 -44c0 -31 -28 -58 -60 -58c-25 0 -43 18 -43 43zM281 -12c-142 0 -225 85 -225 216c0 168 112 287 275 287c125 0 206 -83 206 -195
c0 -27 -6 -71 -12 -88h-380c2 -92 57 -141 148 -141c57 0 99 21 134 52l45 -64c-44 -42 -111 -67 -191 -67zM321 415c-84 0 -146 -50 -167 -132h294c0 85 -44 132 -127 132z" />
    <glyph glyph-name="edotaccent" unicode="&#x117;" horiz-adv-x="565" 
d="M296 608c0 34 31 64 64 64c28 0 47 -21 47 -47c0 -32 -31 -63 -64 -63c-28 0 -47 21 -47 46zM281 -12c-142 0 -225 85 -225 216c0 168 112 287 275 287c125 0 206 -83 206 -195c0 -27 -6 -71 -12 -88h-380c2 -92 57 -141 148 -141c57 0 99 21 134 52l45 -64
c-44 -42 -111 -67 -191 -67zM321 415c-84 0 -146 -50 -167 -132h294c0 85 -44 132 -127 132z" />
    <glyph glyph-name="egrave" unicode="&#xe8;" horiz-adv-x="565" 
d="M313 688l73 -156h-77l-98 156h102zM281 -12c-142 0 -225 85 -225 216c0 168 112 287 275 287c125 0 206 -83 206 -195c0 -27 -6 -71 -12 -88h-380c2 -92 57 -141 148 -141c57 0 99 21 134 52l45 -64c-44 -42 -111 -67 -191 -67zM321 415c-84 0 -146 -50 -167 -132h294
c0 85 -44 132 -127 132z" />
    <glyph glyph-name="emacron" unicode="&#x113;" horiz-adv-x="565" 
d="M216 651h281l-10 -68h-281zM281 -12c-142 0 -225 85 -225 216c0 168 112 287 275 287c125 0 206 -83 206 -195c0 -27 -6 -71 -12 -88h-380c2 -92 57 -141 148 -141c57 0 99 21 134 52l45 -64c-44 -42 -111 -67 -191 -67zM321 415c-84 0 -146 -50 -167 -132h294
c0 85 -44 132 -127 132z" />
    <glyph glyph-name="eogonek" unicode="&#x119;" horiz-adv-x="565" 
d="M359 -168c-27 -25 -64 -40 -105 -40c-56 0 -92 30 -92 77c0 46 27 86 79 121c-117 15 -185 96 -185 214c0 168 112 287 275 287c125 0 206 -83 206 -195c0 -27 -6 -71 -12 -88h-380c2 -92 57 -141 148 -141c57 0 99 21 134 52l45 -64c-28 -27 -65 -46 -109 -57
c-78 -31 -125 -71 -125 -110c0 -18 14 -31 37 -31c21 0 37 7 60 25zM321 415c-84 0 -146 -50 -167 -132h294c0 85 -44 132 -127 132z" />
    <glyph glyph-name="gbreve" unicode="&#x11f;" horiz-adv-x="621" 
d="M366 522c-86 0 -141 61 -125 155h65c-12 -63 16 -94 62 -94c48 0 83 31 94 94h66c-16 -94 -74 -155 -162 -155zM94 -72c31 -29 81 -55 152 -55c105 0 160 48 178 156l9 54c-41 -50 -99 -82 -171 -82c-123 0 -201 79 -201 207c0 160 103 281 260 281c84 0 139 -37 165 -96
l14 86h88l-74 -445c-31 -188 -136 -242 -277 -242c-83 0 -157 23 -200 67zM286 81c101 0 175 79 175 195c0 82 -50 133 -134 133c-108 0 -175 -84 -175 -188c0 -88 49 -140 134 -140z" />
    <glyph glyph-name="gcircumflex" unicode="&#x11d;" horiz-adv-x="621" 
d="M289 532h-88l144 156h82l96 -156h-82l-61 101zM94 -72c31 -29 81 -55 152 -55c105 0 160 48 178 156l9 54c-41 -50 -99 -82 -171 -82c-123 0 -201 79 -201 207c0 160 103 281 260 281c84 0 139 -37 165 -96l14 86h88l-74 -445c-31 -188 -136 -242 -277 -242
c-83 0 -157 23 -200 67zM286 81c101 0 175 79 175 195c0 82 -50 133 -134 133c-108 0 -175 -84 -175 -188c0 -88 49 -140 134 -140z" />
    <glyph glyph-name="gcommaaccent" unicode="&#x123;" horiz-adv-x="621" 
d="M303 538l66 142h73l-46 -142h-93zM94 -72c31 -29 81 -55 152 -55c105 0 160 48 178 156l9 54c-41 -50 -99 -82 -171 -82c-123 0 -201 79 -201 207c0 160 103 281 260 281c84 0 139 -37 165 -96l14 86h88l-74 -445c-31 -188 -136 -242 -277 -242c-83 0 -157 23 -200 67z
M286 81c101 0 175 79 175 195c0 82 -50 133 -134 133c-108 0 -175 -84 -175 -188c0 -88 49 -140 134 -140z" />
    <glyph glyph-name="gdotaccent" unicode="&#x121;" horiz-adv-x="621" 
d="M319 608c0 34 31 64 64 64c28 0 47 -21 47 -47c0 -32 -31 -63 -64 -63c-28 0 -47 21 -47 46zM94 -72c31 -29 81 -55 152 -55c105 0 160 48 178 156l9 54c-41 -50 -99 -82 -171 -82c-123 0 -201 79 -201 207c0 160 103 281 260 281c84 0 139 -37 165 -96l14 86h88
l-74 -445c-31 -188 -136 -242 -277 -242c-83 0 -157 23 -200 67zM286 81c101 0 175 79 175 195c0 82 -50 133 -134 133c-108 0 -175 -84 -175 -188c0 -88 49 -140 134 -140z" />
    <glyph glyph-name="hbar" unicode="&#x127;" horiz-adv-x="582" 
d="M143 0h-88l93 559h-54l11 67h55l10 62h88l-10 -62h137l-11 -67h-138l-26 -156c33 57 89 88 167 88c118 0 167 -77 146 -198l-49 -293h-89l47 279c14 82 -16 130 -95 130c-76 0 -134 -45 -147 -132v3z" />
    <glyph glyph-name="hcircumflex" unicode="&#x125;" horiz-adv-x="582" 
d="M151 741h-88l144 156h82l96 -156h-82l-61 101zM55 0l115 688h88l-48 -285c33 57 89 88 167 88c118 0 167 -77 146 -198l-49 -293h-89l47 279c14 82 -16 130 -95 130c-76 0 -134 -45 -147 -132v3l-47 -280h-88z" />
    <glyph glyph-name="idotless" unicode="&#x131;" horiz-adv-x="257" 
d="M212 479l-78 -479h-89l78 479h89z" />
    <glyph glyph-name="iacute" unicode="&#xed;" horiz-adv-x="257" 
d="M249 688h109l-147 -156h-84zM212 479l-78 -479h-89l78 479h89z" />
    <glyph glyph-name="ibreve" unicode="&#x12d;" horiz-adv-x="257" 
d="M181 522c-86 0 -141 61 -125 155h65c-12 -63 16 -94 62 -94c48 0 83 31 94 94h66c-16 -94 -74 -155 -162 -155zM212 479l-78 -479h-89l78 479h89z" />
    <glyph glyph-name="icircumflex" unicode="&#xee;" horiz-adv-x="257" 
d="M104 532h-88l144 156h82l96 -156h-82l-61 101zM212 479l-78 -479h-89l78 479h89z" />
    <glyph glyph-name="idieresis" unicode="&#xef;" horiz-adv-x="257" 
d="M54 606c0 31 28 59 59 59c25 0 44 -20 44 -44c0 -31 -29 -58 -60 -58c-25 0 -43 18 -43 43zM220 606c0 31 29 59 59 59c26 0 44 -20 44 -44c0 -31 -28 -58 -60 -58c-25 0 -43 18 -43 43zM212 479l-78 -479h-89l78 479h89z" />
    <glyph glyph-name="idotaccent" horiz-adv-x="257" 
d="M134 608c0 34 31 64 64 64c28 0 47 -21 47 -47c0 -32 -31 -63 -64 -63c-28 0 -47 21 -47 46zM212 479l-78 -479h-89l78 479h89z" />
    <glyph glyph-name="igrave" unicode="&#xec;" horiz-adv-x="257" 
d="M151 688l73 -156h-77l-98 156h102zM212 479l-78 -479h-89l78 479h89z" />
    <glyph glyph-name="ij" unicode="&#x133;" horiz-adv-x="514" 
d="M193 562c-28 0 -47 18 -47 46c0 38 29 64 65 64c27 0 47 -19 47 -45c0 -39 -29 -65 -65 -65zM450 562c-28 0 -47 18 -47 46c0 38 29 64 65 64c27 0 47 -19 47 -45c0 -39 -29 -65 -65 -65zM143 0h-88l80 479h88zM226 -208c-46 0 -78 15 -102 36l48 65
c13 -12 30 -21 56 -21c42 0 68 32 77 92l87 515h88l-85 -514c-22 -129 -81 -173 -169 -173z" />
    <glyph glyph-name="imacron" unicode="&#x12b;" horiz-adv-x="257" 
d="M54 651h281l-10 -68h-281zM212 479l-78 -479h-89l78 479h89z" />
    <glyph glyph-name="iogonek" unicode="&#x12f;" horiz-adv-x="257" 
d="M134 608c0 34 31 64 64 64c28 0 47 -21 47 -47c0 -32 -31 -63 -64 -63c-28 0 -47 21 -47 46zM212 479l-78 -479c-81 -31 -131 -72 -131 -112c0 -18 14 -31 37 -31c21 0 37 7 60 25l24 -50c-27 -25 -64 -40 -105 -40c-56 0 -92 30 -92 77c0 57 41 105 120 145l76 465h89z
" />
    <glyph glyph-name="itilde" unicode="&#x129;" horiz-adv-x="257" 
d="M57 549l-41 37c35 63 74 83 110 83c59 0 80 -56 128 -56c28 0 50 24 69 54l40 -36c-33 -63 -71 -83 -107 -83c-58 0 -81 55 -128 55c-28 0 -52 -24 -71 -54zM212 479l-78 -479h-89l78 479h89z" />
    <glyph glyph-name="jdotless" unicode="&#x237;" horiz-adv-x="257" 
d="M209 479l-82 -519c-17 -104 -79 -168 -175 -168c-45 0 -77 15 -98 36l54 66c12 -12 30 -21 54 -21c38 0 67 28 76 82l83 524h88z" />
    <glyph glyph-name="jcircumflex" unicode="&#x135;" horiz-adv-x="257" 
d="M99 532h-88l144 156h82l96 -156h-82l-61 101zM209 479l-82 -519c-17 -104 -79 -168 -175 -168c-45 0 -77 15 -98 36l54 66c12 -12 30 -21 54 -21c38 0 67 28 76 82l83 524h88z" />
    <glyph glyph-name="kcommaaccent" unicode="&#x137;" horiz-adv-x="550" 
d="M143 0h-88l115 688h88l-70 -417l254 208h118l-278 -228l215 -251h-108l-205 244zM300 -51l-65 -142h-71l46 142h90z" />
    <glyph glyph-name="lacute" unicode="&#x13a;" horiz-adv-x="268" 
d="M291 897h109l-147 -156h-84zM219 77l-3 -78c-16 -5 -34 -9 -50 -9c-61 0 -112 40 -95 141l6 33l87 524h89l-87 -522l-7 -41c-7 -42 13 -53 36 -53c7 0 16 2 24 5z" />
    <glyph glyph-name="lcaron" unicode="&#x13e;" horiz-adv-x="268" 
d="M219 77l-3 -78c-16 -5 -34 -9 -50 -9c-61 0 -112 40 -95 141l6 33l87 524h89l-87 -522l-7 -41c-7 -42 13 -53 36 -53c7 0 16 2 24 5zM387 688l-64 -166h-66l46 166h84z" />
    <glyph glyph-name="lcommaaccent" unicode="&#x13c;" horiz-adv-x="268" 
d="M219 77l-3 -78c-16 -5 -34 -9 -50 -9c-61 0 -112 40 -95 141l6 33l87 524h89l-87 -522l-7 -41c-7 -42 13 -53 36 -53c7 0 16 2 24 5zM189 -51l-65 -142h-71l46 142h90z" />
    <glyph glyph-name="ldot" unicode="&#x140;" horiz-adv-x="332" 
d="M219 77l-3 -78c-16 -5 -34 -9 -50 -9c-61 0 -112 40 -95 141l6 33l87 524h89l-87 -522l-7 -41c-7 -42 13 -53 36 -53c7 0 16 2 24 5zM292 251c-27 0 -46 19 -46 45c0 37 30 65 64 65c28 0 47 -21 47 -47c0 -38 -31 -63 -65 -63z" />
    <glyph glyph-name="lslash" unicode="&#x142;" horiz-adv-x="268" 
d="M219 77l-3 -78c-16 -5 -34 -9 -50 -9c-61 0 -112 40 -95 141l6 33l25 154l-64 -24l13 77l64 24l49 293h89l-43 -259l70 26l-12 -77l-71 -26l-31 -186l-7 -41c-7 -42 13 -53 36 -53c7 0 16 2 24 5z" />
    <glyph glyph-name="nacute" unicode="&#x144;" horiz-adv-x="582" 
d="M414 688h109l-147 -156h-84zM55 0l80 479h88l-13 -76c33 57 89 88 165 88c119 0 168 -77 148 -198l-50 -293h-88l46 279c15 82 -16 130 -96 130c-75 0 -132 -45 -145 -132v3l-47 -280h-88z" />
    <glyph glyph-name="ncaron" unicode="&#x148;" horiz-adv-x="582" 
d="M382 532h-82l-96 156h82l61 -101l91 101h88zM55 0l80 479h88l-13 -76c33 57 89 88 165 88c119 0 168 -77 148 -198l-50 -293h-88l46 279c15 82 -16 130 -96 130c-75 0 -132 -45 -145 -132v3l-47 -280h-88z" />
    <glyph glyph-name="ncommaaccent" unicode="&#x146;" horiz-adv-x="582" 
d="M55 0l80 479h88l-13 -76c33 57 89 88 165 88c119 0 168 -77 148 -198l-50 -293h-88l46 279c15 82 -16 130 -96 130c-75 0 -132 -45 -145 -132v3l-47 -280h-88zM299 -51l-65 -142h-71l46 142h90z" />
    <glyph glyph-name="ntilde" unicode="&#xf1;" horiz-adv-x="582" 
d="M222 549l-41 37c35 63 74 83 110 83c59 0 80 -56 128 -56c28 0 50 24 69 54l40 -36c-33 -63 -71 -83 -107 -83c-58 0 -81 55 -128 55c-28 0 -52 -24 -71 -54zM55 0l80 479h88l-13 -76c33 57 89 88 165 88c119 0 168 -77 148 -198l-50 -293h-88l46 279
c15 82 -16 130 -96 130c-75 0 -132 -45 -145 -132v3l-47 -280h-88z" />
    <glyph glyph-name="oacute" unicode="&#xf3;" horiz-adv-x="591" 
d="M409 688h109l-147 -156h-84zM279 -12c-136 0 -223 90 -223 224c0 161 116 279 273 279c140 0 224 -95 224 -223c0 -173 -114 -280 -274 -280zM288 69c107 0 175 77 175 192c0 86 -55 149 -143 149c-105 0 -175 -84 -175 -191c0 -91 54 -150 143 -150z" />
    <glyph glyph-name="obreve" unicode="&#x14f;" horiz-adv-x="591" 
d="M341 522c-86 0 -141 61 -125 155h65c-12 -63 16 -94 62 -94c48 0 83 31 94 94h66c-16 -94 -74 -155 -162 -155zM279 -12c-136 0 -223 90 -223 224c0 161 116 279 273 279c140 0 224 -95 224 -223c0 -173 -114 -280 -274 -280zM288 69c107 0 175 77 175 192
c0 86 -55 149 -143 149c-105 0 -175 -84 -175 -191c0 -91 54 -150 143 -150z" />
    <glyph glyph-name="ocircumflex" unicode="&#xf4;" horiz-adv-x="591" 
d="M264 532h-88l144 156h82l96 -156h-82l-61 101zM279 -12c-136 0 -223 90 -223 224c0 161 116 279 273 279c140 0 224 -95 224 -223c0 -173 -114 -280 -274 -280zM288 69c107 0 175 77 175 192c0 86 -55 149 -143 149c-105 0 -175 -84 -175 -191c0 -91 54 -150 143 -150z
" />
    <glyph glyph-name="odieresis" unicode="&#xf6;" horiz-adv-x="591" 
d="M214 606c0 31 28 59 59 59c25 0 44 -20 44 -44c0 -31 -29 -58 -60 -58c-25 0 -43 18 -43 43zM380 606c0 31 29 59 59 59c26 0 44 -20 44 -44c0 -31 -28 -58 -60 -58c-25 0 -43 18 -43 43zM279 -12c-136 0 -223 90 -223 224c0 161 116 279 273 279c140 0 224 -95 224 -223
c0 -173 -114 -280 -274 -280zM288 69c107 0 175 77 175 192c0 86 -55 149 -143 149c-105 0 -175 -84 -175 -191c0 -91 54 -150 143 -150z" />
    <glyph glyph-name="ograve" unicode="&#xf2;" horiz-adv-x="591" 
d="M311 688l73 -156h-77l-98 156h102zM279 -12c-136 0 -223 90 -223 224c0 161 116 279 273 279c140 0 224 -95 224 -223c0 -173 -114 -280 -274 -280zM288 69c107 0 175 77 175 192c0 86 -55 149 -143 149c-105 0 -175 -84 -175 -191c0 -91 54 -150 143 -150z" />
    <glyph glyph-name="ohungarumlaut" unicode="&#x151;" horiz-adv-x="591" 
d="M330 688h92l-142 -156h-73zM486 688h96l-146 -156h-72zM279 -12c-136 0 -223 90 -223 224c0 161 116 279 273 279c140 0 224 -95 224 -223c0 -173 -114 -280 -274 -280zM288 69c107 0 175 77 175 192c0 86 -55 149 -143 149c-105 0 -175 -84 -175 -191
c0 -91 54 -150 143 -150z" />
    <glyph glyph-name="omacron" unicode="&#x14d;" horiz-adv-x="591" 
d="M214 651h281l-10 -68h-281zM279 -12c-136 0 -223 90 -223 224c0 161 116 279 273 279c140 0 224 -95 224 -223c0 -173 -114 -280 -274 -280zM288 69c107 0 175 77 175 192c0 86 -55 149 -143 149c-105 0 -175 -84 -175 -191c0 -91 54 -150 143 -150z" />
    <glyph glyph-name="oslash" unicode="&#xf8;" horiz-adv-x="592" 
d="M271 -12c-47 0 -89 11 -123 31l-54 -64l-52 43l55 65c-32 38 -49 89 -49 149c0 161 116 279 273 279c45 0 84 -10 116 -27l53 62l52 -43l-52 -61c36 -39 55 -93 55 -154c0 -173 -114 -280 -274 -280zM137 219c0 -33 7 -62 20 -85l222 261c-19 10 -41 15 -66 15
c-105 0 -176 -84 -176 -191zM280 69c107 0 175 76 175 192c0 35 -9 65 -25 90l-225 -265c21 -11 46 -17 75 -17z" />
    <glyph glyph-name="otilde" unicode="&#xf5;" horiz-adv-x="591" 
d="M217 549l-41 37c35 63 74 83 110 83c59 0 80 -56 128 -56c28 0 50 24 69 54l40 -36c-33 -63 -71 -83 -107 -83c-58 0 -81 55 -128 55c-28 0 -52 -24 -71 -54zM279 -12c-136 0 -223 90 -223 224c0 161 116 279 273 279c140 0 224 -95 224 -223c0 -173 -114 -280 -274 -280
zM288 69c107 0 175 77 175 192c0 86 -55 149 -143 149c-105 0 -175 -84 -175 -191c0 -91 54 -150 143 -150z" />
    <glyph glyph-name="oe" unicode="&#x153;" horiz-adv-x="962" 
d="M280 -12c-137 0 -224 90 -224 224c0 161 116 279 273 279c88 0 153 -41 188 -105c46 65 120 105 211 105c125 0 206 -83 207 -195c0 -27 -6 -71 -12 -88h-379c2 -92 57 -141 146 -141c57 0 99 19 134 52l46 -64c-44 -42 -111 -67 -191 -67c-90 0 -154 36 -188 98
c-47 -63 -120 -98 -211 -98zM719 415c-84 0 -145 -49 -167 -132h294c0 85 -44 132 -127 132zM288 69c105 0 173 76 173 192c0 86 -54 149 -140 149c-105 0 -175 -84 -175 -191c0 -91 53 -150 142 -150z" />
    <glyph glyph-name="thorn" unicode="&#xfe;" horiz-adv-x="629" 
d="M113 -196h-89l148 884h89l-48 -284c42 53 101 87 175 87c126 0 203 -83 203 -211c0 -179 -110 -292 -256 -292c-88 0 -147 42 -174 102zM327 69c97 0 174 75 174 195c0 85 -48 146 -143 146c-102 0 -172 -82 -172 -204c0 -84 58 -137 141 -137z" />
    <glyph glyph-name="racute" unicode="&#x155;" horiz-adv-x="389" 
d="M338 688h109l-147 -156h-84zM55 0l80 479h88l-13 -77c31 54 77 89 136 89c33 0 58 -7 75 -21l-49 -83c-16 13 -34 18 -59 18c-52 0 -108 -43 -123 -129l-1 2l-46 -278h-88z" />
    <glyph glyph-name="rcaron" unicode="&#x159;" horiz-adv-x="389" 
d="M306 532h-82l-96 156h82l61 -101l91 101h88zM55 0l80 479h88l-13 -77c31 54 77 89 136 89c33 0 58 -7 75 -21l-49 -83c-16 13 -34 18 -59 18c-52 0 -108 -43 -123 -129l-1 2l-46 -278h-88z" />
    <glyph glyph-name="rcommaaccent" unicode="&#x157;" horiz-adv-x="389" 
d="M55 0l80 479h88l-13 -77c31 54 77 89 136 89c33 0 58 -7 75 -21l-49 -83c-16 13 -34 18 -59 18c-52 0 -108 -43 -123 -129l-1 2l-46 -278h-88zM136 -51l-65 -142h-71l46 142h90z" />
    <glyph glyph-name="sacute" unicode="&#x15b;" horiz-adv-x="457" 
d="M352 688h109l-147 -156h-84zM210 -12c-85 0 -153 30 -193 77l58 60c32 -43 85 -65 144 -65s100 25 100 73c0 99 -236 64 -236 219c0 78 62 139 183 139c79 0 142 -26 174 -73l-61 -55c-28 40 -71 56 -117 56c-60 0 -90 -26 -90 -63c0 -94 236 -63 236 -215
c0 -92 -73 -153 -198 -153z" />
    <glyph glyph-name="scaron" unicode="&#x161;" horiz-adv-x="457" 
d="M320 532h-82l-96 156h82l61 -101l91 101h88zM210 -12c-85 0 -153 30 -193 77l58 60c32 -43 85 -65 144 -65s100 25 100 73c0 99 -236 64 -236 219c0 78 62 139 183 139c79 0 142 -26 174 -73l-61 -55c-28 40 -71 56 -117 56c-60 0 -90 -26 -90 -63
c0 -94 236 -63 236 -215c0 -92 -73 -153 -198 -153z" />
    <glyph glyph-name="scedilla" unicode="&#x15f;" horiz-adv-x="457" 
d="M408 141c0 -83 -60 -141 -164 -151l-71 -176l-74 30l82 145c-72 6 -129 34 -164 76l58 60c32 -43 85 -65 144 -65s100 25 100 73c0 99 -236 64 -236 219c0 78 62 139 183 139c79 0 142 -26 174 -73l-61 -55c-28 40 -71 56 -117 56c-60 0 -90 -26 -90 -63
c0 -94 236 -63 236 -215z" />
    <glyph glyph-name="scircumflex" unicode="&#x15d;" horiz-adv-x="457" 
d="M207 532h-88l144 156h82l96 -156h-82l-61 101zM210 -12c-85 0 -153 30 -193 77l58 60c32 -43 85 -65 144 -65s100 25 100 73c0 99 -236 64 -236 219c0 78 62 139 183 139c79 0 142 -26 174 -73l-61 -55c-28 40 -71 56 -117 56c-60 0 -90 -26 -90 -63
c0 -94 236 -63 236 -215c0 -92 -73 -153 -198 -153z" />
    <glyph glyph-name="scommaaccent" unicode="&#x219;" horiz-adv-x="457" 
d="M210 -12c-85 0 -153 30 -193 77l58 60c32 -43 85 -65 144 -65s100 25 100 73c0 99 -236 64 -236 219c0 78 62 139 183 139c79 0 142 -26 174 -73l-61 -55c-28 40 -71 56 -117 56c-60 0 -90 -26 -90 -63c0 -94 236 -63 236 -215c0 -92 -73 -153 -198 -153zM253 -51
l-65 -142h-71l46 142h90z" />
    <glyph glyph-name="germandbls" unicode="&#xdf;" horiz-adv-x="558" 
d="M269 -12c-50 0 -84 7 -110 19l29 75c27 -14 54 -16 83 -16c87 0 149 50 149 141c0 70 -41 115 -126 115h-56l11 77h50c88 0 133 55 133 121c0 54 -35 97 -107 97c-75 0 -125 -48 -140 -139l-80 -478h-88l80 478c23 138 103 222 238 222c116 0 184 -70 184 -155
s-45 -149 -122 -177c72 -22 110 -78 110 -158c0 -152 -104 -222 -238 -222z" />
    <glyph glyph-name="tbar" unicode="&#x167;" horiz-adv-x="391" 
d="M47 276h68l21 124h-75l12 79h76l21 119h88l-20 -119h140l-13 -79h-139l-21 -124h102l-10 -72h-104l-7 -44c-12 -70 17 -89 55 -89c24 0 45 11 62 26l31 -70c-30 -23 -69 -39 -119 -39c-88 0 -139 56 -120 169l8 47h-66z" />
    <glyph glyph-name="tcaron" unicode="&#x165;" horiz-adv-x="391" 
d="M425 688l-64 -166h-66l46 166h84zM61 400l12 79h76l21 119h88l-20 -119h140l-13 -79h-139l-40 -240c-12 -70 17 -89 55 -89c24 0 45 11 62 26l31 -70c-30 -23 -69 -39 -119 -39c-88 0 -139 56 -120 169l41 243h-75z" />
    <glyph glyph-name="tcedilla" unicode="&#x163;" horiz-adv-x="391" 
d="M61 400l12 79h76l21 119h88l-20 -119h140l-13 -79h-139l-40 -240c-12 -70 17 -89 55 -89c24 0 45 11 62 26l31 -70c-23 -17 -50 -31 -84 -36l-71 -177l-74 30l82 146c-70 11 -109 66 -92 167l41 243h-75z" />
    <glyph glyph-name="tcommaaccent" unicode="&#x21b;" horiz-adv-x="391" 
d="M61 400l12 79h76l21 119h88l-20 -119h140l-13 -79h-139l-40 -240c-12 -70 17 -89 55 -89c24 0 45 11 62 26l31 -70c-30 -23 -69 -39 -119 -39c-88 0 -139 56 -120 169l41 243h-75zM259 -51l-65 -142h-71l46 142h90z" />
    <glyph glyph-name="uacute" unicode="&#xfa;" horiz-adv-x="582" 
d="M414 688h109l-147 -156h-84zM218 479l-45 -267c-18 -104 34 -139 105 -139c80 0 129 46 145 146l43 260h89l-45 -267c-24 -147 -98 -221 -239 -221c-131 0 -211 77 -187 220l45 268h89z" />
    <glyph glyph-name="ubreve" unicode="&#x16d;" horiz-adv-x="582" 
d="M346 522c-86 0 -141 61 -125 155h65c-12 -63 16 -94 62 -94c48 0 83 31 94 94h66c-16 -94 -74 -155 -162 -155zM218 479l-45 -267c-18 -104 34 -139 105 -139c80 0 129 46 145 146l43 260h89l-45 -267c-24 -147 -98 -221 -239 -221c-131 0 -211 77 -187 220l45 268h89z
" />
    <glyph glyph-name="ucircumflex" unicode="&#xfb;" horiz-adv-x="582" 
d="M269 532h-88l144 156h82l96 -156h-82l-61 101zM218 479l-45 -267c-18 -104 34 -139 105 -139c80 0 129 46 145 146l43 260h89l-45 -267c-24 -147 -98 -221 -239 -221c-131 0 -211 77 -187 220l45 268h89z" />
    <glyph glyph-name="udieresis" unicode="&#xfc;" horiz-adv-x="582" 
d="M219 606c0 31 28 59 59 59c25 0 44 -20 44 -44c0 -31 -29 -58 -60 -58c-25 0 -43 18 -43 43zM385 606c0 31 29 59 59 59c26 0 44 -20 44 -44c0 -31 -28 -58 -60 -58c-25 0 -43 18 -43 43zM218 479l-45 -267c-18 -104 34 -139 105 -139c80 0 129 46 145 146l43 260h89
l-45 -267c-24 -147 -98 -221 -239 -221c-131 0 -211 77 -187 220l45 268h89z" />
    <glyph glyph-name="ugrave" unicode="&#xf9;" horiz-adv-x="582" 
d="M316 688l73 -156h-77l-98 156h102zM218 479l-45 -267c-18 -104 34 -139 105 -139c80 0 129 46 145 146l43 260h89l-45 -267c-24 -147 -98 -221 -239 -221c-131 0 -211 77 -187 220l45 268h89z" />
    <glyph glyph-name="uhungarumlaut" unicode="&#x171;" horiz-adv-x="582" 
d="M335 688h92l-142 -156h-73zM491 688h96l-146 -156h-72zM218 479l-45 -267c-18 -104 34 -139 105 -139c80 0 129 46 145 146l43 260h89l-45 -267c-24 -147 -98 -221 -239 -221c-131 0 -211 77 -187 220l45 268h89z" />
    <glyph glyph-name="umacron" unicode="&#x16b;" horiz-adv-x="582" 
d="M219 651h281l-10 -68h-281zM218 479l-45 -267c-18 -104 34 -139 105 -139c80 0 129 46 145 146l43 260h89l-45 -267c-24 -147 -98 -221 -239 -221c-131 0 -211 77 -187 220l45 268h89z" />
    <glyph glyph-name="uogonek" unicode="&#x173;" horiz-adv-x="582" 
d="M218 479l-45 -267c-18 -104 34 -139 105 -139c80 0 129 46 145 146l43 260h89l-45 -267c-20 -120 -72 -191 -168 -213c-79 -31 -127 -72 -127 -111c0 -18 14 -31 37 -31c21 0 37 7 60 25l24 -50c-27 -25 -64 -40 -105 -40c-56 0 -92 30 -92 77c0 48 29 90 86 126
c-103 16 -162 91 -141 216l45 268h89z" />
    <glyph glyph-name="uring" unicode="&#x16f;" horiz-adv-x="582" 
d="M338 522c-59 0 -99 39 -99 93c0 72 60 127 131 127c60 0 98 -40 98 -92c0 -73 -59 -128 -130 -128zM345 574c38 0 67 31 67 68c0 28 -19 48 -48 48c-36 0 -68 -28 -68 -68c0 -29 18 -48 49 -48zM218 479l-45 -267c-18 -104 34 -139 105 -139c80 0 129 46 145 146l43 260
h89l-45 -267c-24 -147 -98 -221 -239 -221c-131 0 -211 77 -187 220l45 268h89z" />
    <glyph glyph-name="utilde" unicode="&#x169;" horiz-adv-x="582" 
d="M222 549l-41 37c35 63 74 83 110 83c59 0 80 -56 128 -56c28 0 50 24 69 54l40 -36c-33 -63 -71 -83 -107 -83c-58 0 -81 55 -128 55c-28 0 -52 -24 -71 -54zM218 479l-45 -267c-18 -104 34 -139 105 -139c80 0 129 46 145 146l43 260h89l-45 -267
c-24 -147 -98 -221 -239 -221c-131 0 -211 77 -187 220l45 268h89z" />
    <glyph glyph-name="wacute" unicode="&#x1e83;" horiz-adv-x="809" 
d="M524 688h109l-147 -156h-84zM251 0h-99l-76 479h93l50 -384l181 384h93l61 -386l179 386h94l-234 -479h-103l-62 368z" />
    <glyph glyph-name="wcircumflex" unicode="&#x175;" horiz-adv-x="809" 
d="M379 532h-88l144 156h82l96 -156h-82l-61 101zM251 0h-99l-76 479h93l50 -384l181 384h93l61 -386l179 386h94l-234 -479h-103l-62 368z" />
    <glyph glyph-name="wdieresis" unicode="&#x1e85;" horiz-adv-x="809" 
d="M329 606c0 31 28 59 59 59c25 0 44 -20 44 -44c0 -31 -29 -58 -60 -58c-25 0 -43 18 -43 43zM495 606c0 31 29 59 59 59c26 0 44 -20 44 -44c0 -31 -28 -58 -60 -58c-25 0 -43 18 -43 43zM251 0h-99l-76 479h93l50 -384l181 384h93l61 -386l179 386h94l-234 -479h-103
l-62 368z" />
    <glyph glyph-name="wgrave" unicode="&#x1e81;" horiz-adv-x="809" 
d="M426 688l73 -156h-77l-98 156h102zM251 0h-99l-76 479h93l50 -384l181 384h93l61 -386l179 386h94l-234 -479h-103l-62 368z" />
    <glyph glyph-name="yacute" unicode="&#xfd;" horiz-adv-x="519" 
d="M383 688h109l-147 -156h-84zM185 -28l12 23l-137 484h94l98 -376l193 376h98l-281 -526c-54 -103 -112 -161 -198 -161c-44 0 -87 15 -112 42l47 72c19 -21 47 -31 78 -31c41 0 78 39 108 97z" />
    <glyph glyph-name="ycircumflex" unicode="&#x177;" horiz-adv-x="519" 
d="M238 532h-88l144 156h82l96 -156h-82l-61 101zM185 -28l12 23l-137 484h94l98 -376l193 376h98l-281 -526c-54 -103 -112 -161 -198 -161c-44 0 -87 15 -112 42l47 72c19 -21 47 -31 78 -31c41 0 78 39 108 97z" />
    <glyph glyph-name="ydieresis" unicode="&#xff;" horiz-adv-x="519" 
d="M188 606c0 31 28 59 59 59c25 0 44 -20 44 -44c0 -31 -29 -58 -60 -58c-25 0 -43 18 -43 43zM354 606c0 31 29 59 59 59c26 0 44 -20 44 -44c0 -31 -28 -58 -60 -58c-25 0 -43 18 -43 43zM185 -28l12 23l-137 484h94l98 -376l193 376h98l-281 -526
c-54 -103 -112 -161 -198 -161c-44 0 -87 15 -112 42l47 72c19 -21 47 -31 78 -31c41 0 78 39 108 97z" />
    <glyph glyph-name="ygrave" unicode="&#x1ef3;" horiz-adv-x="519" 
d="M285 688l73 -156h-77l-98 156h102zM185 -28l12 23l-137 484h94l98 -376l193 376h98l-281 -526c-54 -103 -112 -161 -198 -161c-44 0 -87 15 -112 42l47 72c19 -21 47 -31 78 -31c41 0 78 39 108 97z" />
    <glyph glyph-name="zacute" unicode="&#x17a;" horiz-adv-x="487" 
d="M378 688h109l-147 -156h-84zM36 70l328 333h-265l13 76h381l-12 -73l-331 -330h283l-13 -76h-395z" />
    <glyph glyph-name="zcaron" unicode="&#x17e;" horiz-adv-x="487" 
d="M346 532h-82l-96 156h82l61 -101l91 101h88zM36 70l328 333h-265l13 76h381l-12 -73l-331 -330h283l-13 -76h-395z" />
    <glyph glyph-name="zdotaccent" unicode="&#x17c;" horiz-adv-x="487" 
d="M263 608c0 34 31 64 64 64c28 0 47 -21 47 -47c0 -32 -31 -63 -64 -63c-28 0 -47 21 -47 46zM36 70l328 333h-265l13 76h381l-12 -73l-331 -330h283l-13 -76h-395z" />
    <glyph glyph-name="aacute.alt" horiz-adv-x="634" 
d="M440 688h109l-147 -156h-84zM56 200c0 165 105 291 265 291c83 0 138 -36 164 -95l14 83h89l-49 -290l-10 -60c-7 -42 12 -57 35 -57c7 0 16 2 23 5l-1 -78c-16 -5 -36 -9 -52 -9c-45 0 -87 25 -95 84c-42 -55 -104 -86 -184 -86c-115 0 -199 78 -199 212zM461 271
c0 85 -51 139 -136 139c-108 0 -178 -87 -178 -196c0 -89 46 -145 136 -145c81 0 147 53 170 136v3c2 5 3 10 4 15l1 10c2 12 3 25 3 38z" />
    <glyph glyph-name="abreve.alt" horiz-adv-x="634" 
d="M372 522c-86 0 -141 61 -125 155h65c-12 -63 16 -94 62 -94c48 0 83 31 94 94h66c-16 -94 -74 -155 -162 -155zM56 200c0 165 105 291 265 291c83 0 138 -36 164 -95l14 83h89l-49 -290l-10 -60c-7 -42 12 -57 35 -57c7 0 16 2 23 5l-1 -78c-16 -5 -36 -9 -52 -9
c-45 0 -87 25 -95 84c-42 -55 -104 -86 -184 -86c-115 0 -199 78 -199 212zM461 271c0 85 -51 139 -136 139c-108 0 -178 -87 -178 -196c0 -89 46 -145 136 -145c81 0 147 53 170 136v3c2 5 3 10 4 15l1 10c2 12 3 25 3 38z" />
    <glyph glyph-name="acircumflex.alt" horiz-adv-x="634" 
d="M295 532h-88l144 156h82l96 -156h-82l-61 101zM56 200c0 165 105 291 265 291c83 0 138 -36 164 -95l14 83h89l-49 -290l-10 -60c-7 -42 12 -57 35 -57c7 0 16 2 23 5l-1 -78c-16 -5 -36 -9 -52 -9c-45 0 -87 25 -95 84c-42 -55 -104 -86 -184 -86
c-115 0 -199 78 -199 212zM461 271c0 85 -51 139 -136 139c-108 0 -178 -87 -178 -196c0 -89 46 -145 136 -145c81 0 147 53 170 136v3c2 5 3 10 4 15l1 10c2 12 3 25 3 38z" />
    <glyph glyph-name="adieresis.alt" horiz-adv-x="634" 
d="M245 606c0 31 28 59 59 59c25 0 44 -20 44 -44c0 -31 -29 -58 -60 -58c-25 0 -43 18 -43 43zM411 606c0 31 29 59 59 59c26 0 44 -20 44 -44c0 -31 -28 -58 -60 -58c-25 0 -43 18 -43 43zM56 200c0 165 105 291 265 291c83 0 138 -36 164 -95l14 83h89l-49 -290l-10 -60
c-7 -42 12 -57 35 -57c7 0 16 2 23 5l-1 -78c-16 -5 -36 -9 -52 -9c-45 0 -87 25 -95 84c-42 -55 -104 -86 -184 -86c-115 0 -199 78 -199 212zM461 271c0 85 -51 139 -136 139c-108 0 -178 -87 -178 -196c0 -89 46 -145 136 -145c81 0 147 53 170 136v3c2 5 3 10 4 15l1 10
c2 12 3 25 3 38z" />
    <glyph glyph-name="agrave.alt" horiz-adv-x="634" 
d="M342 688l73 -156h-77l-98 156h102zM56 200c0 165 105 291 265 291c83 0 138 -36 164 -95l14 83h89l-49 -290l-10 -60c-7 -42 12 -57 35 -57c7 0 16 2 23 5l-1 -78c-16 -5 -36 -9 -52 -9c-45 0 -87 25 -95 84c-42 -55 -104 -86 -184 -86c-115 0 -199 78 -199 212zM461 271
c0 85 -51 139 -136 139c-108 0 -178 -87 -178 -196c0 -89 46 -145 136 -145c81 0 147 53 170 136v3c2 5 3 10 4 15l1 10c2 12 3 25 3 38z" />
    <glyph glyph-name="amacron.alt" horiz-adv-x="634" 
d="M245 651h281l-10 -68h-281zM56 200c0 165 105 291 265 291c83 0 138 -36 164 -95l14 83h89l-49 -290l-10 -60c-7 -42 12 -57 35 -57c7 0 16 2 23 5l-1 -78c-16 -5 -36 -9 -52 -9c-45 0 -87 25 -95 84c-42 -55 -104 -86 -184 -86c-115 0 -199 78 -199 212zM461 271
c0 85 -51 139 -136 139c-108 0 -178 -87 -178 -196c0 -89 46 -145 136 -145c81 0 147 53 170 136v3c2 5 3 10 4 15l1 10c2 12 3 25 3 38z" />
    <glyph glyph-name="aogonek.alt" horiz-adv-x="634" 
d="M56 200c0 165 105 291 265 291c83 0 138 -36 164 -95l14 83h89l-49 -290l-10 -60c-7 -42 12 -57 35 -57c7 0 16 2 23 5l-1 -78c-81 -31 -131 -72 -131 -112c0 -18 14 -31 37 -31c21 0 37 7 60 25l24 -50c-27 -25 -64 -40 -105 -40c-56 0 -92 30 -92 77
c0 52 35 97 103 136c-22 13 -38 35 -43 70c-42 -55 -104 -86 -184 -86c-115 0 -199 78 -199 212zM461 271c0 85 -51 139 -136 139c-108 0 -178 -87 -178 -196c0 -89 46 -145 136 -145c81 0 147 53 170 136v3c2 5 3 10 4 15l1 10c2 12 3 25 3 38z" />
    <glyph glyph-name="aring.alt" horiz-adv-x="634" 
d="M364 522c-59 0 -99 39 -99 93c0 72 60 127 131 127c60 0 98 -40 98 -92c0 -73 -59 -128 -130 -128zM371 574c38 0 67 31 67 68c0 28 -19 48 -48 48c-36 0 -68 -28 -68 -68c0 -29 18 -48 49 -48zM56 200c0 165 105 291 265 291c83 0 138 -36 164 -95l14 83h89l-49 -290
l-10 -60c-7 -42 12 -57 35 -57c7 0 16 2 23 5l-1 -78c-16 -5 -36 -9 -52 -9c-45 0 -87 25 -95 84c-42 -55 -104 -86 -184 -86c-115 0 -199 78 -199 212zM461 271c0 85 -51 139 -136 139c-108 0 -178 -87 -178 -196c0 -89 46 -145 136 -145c81 0 147 53 170 136v3
c2 5 3 10 4 15l1 10c2 12 3 25 3 38z" />
    <glyph glyph-name="atilde.alt" horiz-adv-x="634" 
d="M248 549l-41 37c35 63 74 83 110 83c59 0 80 -56 128 -56c28 0 50 24 69 54l40 -36c-33 -63 -71 -83 -107 -83c-58 0 -81 55 -128 55c-28 0 -52 -24 -71 -54zM56 200c0 165 105 291 265 291c83 0 138 -36 164 -95l14 83h89l-49 -290l-10 -60c-7 -42 12 -57 35 -57
c7 0 16 2 23 5l-1 -78c-16 -5 -36 -9 -52 -9c-45 0 -87 25 -95 84c-42 -55 -104 -86 -184 -86c-115 0 -199 78 -199 212zM461 271c0 85 -51 139 -136 139c-108 0 -178 -87 -178 -196c0 -89 46 -145 136 -145c81 0 147 53 170 136v3c2 5 3 10 4 15l1 10c2 12 3 25 3 38z" />
    <glyph glyph-name="jdotless.alt" horiz-adv-x="257" 
d="M-65 -208h-22l14 84h18c58 0 85 34 93 83l82 520h89l-82 -520c-17 -104 -88 -167 -192 -167z" />
    <glyph glyph-name="jcircumflex.alt" horiz-adv-x="257" 
d="M101 532h-88l144 156h82l96 -156h-82l-61 101zM-65 -208h-22l14 84h18c58 0 85 34 93 83l82 520h89l-82 -520c-17 -104 -88 -167 -192 -167z" />
    <glyph glyph-name="lacute.alt" horiz-adv-x="260" 
d="M299 897h109l-147 -156h-84zM55 0l115 688h88l-115 -688h-88z" />
    <glyph glyph-name="lcaron.alt" horiz-adv-x="260" 
d="M55 0l115 688h88l-115 -688h-88zM392 688l-64 -166h-66l46 166h84z" />
    <glyph glyph-name="lcommaaccent.alt" horiz-adv-x="260" 
d="M55 0l115 688h88l-115 -688h-88zM134 -51l-65 -142h-71l46 142h90z" />
    <glyph glyph-name="ldot.alt" horiz-adv-x="336" 
d="M55 0l115 688h88l-115 -688h-88zM292 251c-27 0 -46 19 -46 45c0 37 30 65 64 65c28 0 47 -21 47 -47c0 -38 -31 -63 -65 -63z" />
    <glyph glyph-name="lslash.alt" horiz-adv-x="260" 
d="M55 0l53 319l-69 -26l12 79l71 26l48 290h88l-43 -255l61 23l-12 -79l-62 -23l-59 -354h-88z" />
    <glyph glyph-name="yacute.alt" horiz-adv-x="519" 
d="M373 688h109l-147 -156h-84zM128 -196h-95l117 205l-133 470h91l97 -370l201 370h95z" />
    <glyph glyph-name="ycircumflex.alt" horiz-adv-x="519" 
d="M228 532h-88l144 156h82l96 -156h-82l-61 101zM128 -196h-95l117 205l-133 470h91l97 -370l201 370h95z" />
    <glyph glyph-name="ydieresis.alt" horiz-adv-x="519" 
d="M178 606c0 31 28 59 59 59c25 0 44 -20 44 -44c0 -31 -29 -58 -60 -58c-25 0 -43 18 -43 43zM344 606c0 31 29 59 59 59c26 0 44 -20 44 -44c0 -31 -28 -58 -60 -58c-25 0 -43 18 -43 43zM128 -196h-95l117 205l-133 470h91l97 -370l201 370h95z" />
    <glyph glyph-name="ygrave.alt" horiz-adv-x="519" 
d="M275 688l73 -156h-77l-98 156h102zM128 -196h-95l117 205l-133 470h91l97 -370l201 370h95z" />
    <glyph glyph-name="fl.alt" horiz-adv-x="588" 
d="M384 0l100 596c-25 16 -57 25 -98 25c-71 0 -118 -42 -132 -121l-3 -21h114l-13 -79h-115l-66 -400h-89l67 400h-75l13 79h75l4 21c22 130 106 200 226 200c49 0 87 -8 117 -22h77l-113 -678h-89z" />
    <glyph glyph-name="ordfeminine" unicode="&#xaa;" horiz-adv-x="384" 
d="M195 315c-82 0 -131 57 -131 142c0 109 71 191 168 191c53 0 89 -23 106 -63l9 55h73l-53 -318h-73l8 46c-27 -34 -63 -53 -107 -53zM222 381c59 0 97 55 97 115c0 47 -31 82 -81 82c-60 0 -99 -48 -99 -109c0 -50 31 -88 83 -88z" />
    <glyph glyph-name="ordmasculine" unicode="&#xba;" horiz-adv-x="381" 
d="M225 315c-93 0 -151 64 -151 150c0 106 80 184 181 184c88 0 150 -59 150 -150c0 -115 -81 -184 -180 -184zM232 381c57 0 99 43 99 111c0 53 -33 89 -83 89c-57 0 -99 -46 -99 -110c0 -51 30 -90 83 -90z" />
    <glyph glyph-name="Delta" unicode="&#x394;" horiz-adv-x="676" 
d="M-21 0l371 641h106l157 -641h-634zM125 81h371l-111 452z" />
    <glyph glyph-name="Omega" unicode="&#x3a9;" horiz-adv-x="716" 
d="M398 564c-144 0 -258 -103 -258 -264c0 -107 64 -183 138 -223l-13 -77h-266l14 81l144 -2c-70 56 -112 132 -112 223c0 205 160 351 369 351c187 0 292 -118 292 -272c0 -137 -71 -240 -192 -302l138 2l-13 -81h-268l13 77c140 56 224 142 224 283
c0 122 -79 204 -210 204z" />
    <glyph glyph-name="mu" unicode="&#x3bc;" horiz-adv-x="589" 
d="M263 -9c-51 0 -95 15 -120 49l-37 -218h-89l110 657h89l-46 -275c-12 -93 36 -131 106 -131c80 0 129 46 145 146l43 260h89l-44 -267c-25 -147 -101 -221 -246 -221z" />
    <glyph glyph-name="questiondown" unicode="&#xbf;" horiz-adv-x="444" 
d="M269 491c30 0 53 -18 53 -51c0 -40 -33 -73 -72 -73c-31 0 -53 23 -53 53c0 43 32 71 72 71zM149 212l83 51l32 -65l-85 -53c-75 -46 -103 -94 -103 -145c0 -53 38 -88 98 -88s107 30 150 84l51 -53c-51 -72 -121 -114 -218 -114c-116 0 -172 71 -172 154
c0 87 40 154 164 229z" />
    <glyph glyph-name="periodcentered" unicode="&#xb7;" horiz-adv-x="398" 
d="M210 251c-27 0 -46 19 -46 45c0 37 30 65 64 65c28 0 47 -21 47 -47c0 -38 -31 -63 -65 -63z" />
    <glyph glyph-name="softhyphen" unicode="&#xad;" horiz-adv-x="318" 
d="M64 281h238l-13 -77h-238z" />
    <glyph glyph-name="quotesinglbase" unicode="&#x201a;" horiz-adv-x="179" 
d="M81 106c29 0 47 -21 45 -47c-1 -20 -11 -36 -24 -52l-79 -107h-44l69 108c-18 6 -29 23 -28 42c2 32 29 56 61 56z" />
    <glyph glyph-name="quotedblbase" unicode="&#x201e;" horiz-adv-x="326" 
d="M81 106c29 0 47 -21 45 -47c-1 -20 -11 -36 -24 -52l-79 -107h-44l69 108c-18 6 -29 23 -28 42c2 32 29 56 61 56zM228 106c29 0 47 -21 45 -47c-1 -20 -11 -36 -24 -52l-79 -107h-44l69 108c-18 6 -29 23 -28 42c2 32 29 56 61 56z" />
    <glyph glyph-name="florin" unicode="&#x192;" horiz-adv-x="447" 
d="M124 -14l51 302h-96l11 76h98l28 165c19 113 84 171 180 171c56 0 91 -17 114 -46l-56 -65c-13 16 -37 28 -64 28c-45 0 -77 -34 -87 -95l-26 -158h129l-12 -76h-130l-51 -305c-21 -125 -81 -174 -177 -174c-46 0 -78 15 -98 36l54 66c12 -12 29 -20 54 -20
c39 0 67 30 78 95z" />
    <glyph glyph-name="logicalnot" unicode="&#xac;" horiz-adv-x="511" 
d="M445 143h-84l24 139h-322l14 80h405z" />
    <glyph glyph-name="infinity" unicode="&#x221e;" horiz-adv-x="520" 
d="M506 351c0 -100 -59 -163 -140 -163c-60 0 -84 32 -98 71c-28 -47 -71 -71 -111 -71c-60 0 -95 42 -95 105c0 102 60 161 139 161c58 0 82 -31 96 -68c33 47 74 68 114 68c60 0 95 -42 95 -103zM122 307c0 -35 18 -54 53 -54c25 0 58 15 80 55c-10 44 -19 83 -62 83
c-38 0 -71 -34 -71 -84zM394 389c-27 0 -57 -10 -85 -50c11 -46 19 -88 64 -88c37 0 74 32 74 82c0 34 -19 56 -53 56z" />
    <glyph glyph-name="integral" unicode="&#x222b;" horiz-adv-x="454" 
d="M140 -28l93 556c20 123 85 172 181 172c56 0 91 -17 114 -46l-57 -65c-12 16 -36 28 -63 28c-46 0 -77 -31 -89 -102l-92 -548c-17 -105 -77 -158 -173 -158c-46 0 -78 15 -98 36l54 66c12 -12 29 -20 54 -20c39 0 67 27 76 81z" />
    <glyph glyph-name="product" unicode="&#x220f;" horiz-adv-x="604" 
d="M469 556h-209l-126 -752h-90l126 752h-76l14 85h541l-14 -85h-75l-126 -752h-91z" />
    <glyph glyph-name="summation" unicode="&#x2211;" horiz-adv-x="498" 
d="M370 289l-13 -74l-277 -321h348l-15 -90h-463l17 101l305 354l-189 338l15 91h463l-15 -89h-346z" />
    <glyph glyph-name="radical" unicode="&#x221a;" horiz-adv-x="565" 
d="M322 0h-117l-66 398h-91l14 81h158l59 -393l261 602h97z" />
    <glyph glyph-name="partialdiff" unicode="&#x2202;" horiz-adv-x="585" 
d="M315 469c66 0 117 -23 146 -60c-33 142 -130 209 -205 246l69 56c140 -71 231 -209 231 -374c0 -234 -126 -349 -286 -349c-129 0 -217 79 -217 208c0 168 124 273 262 273zM280 69c98 0 179 90 179 193c0 77 -51 133 -136 133c-102 0 -180 -80 -180 -193
c0 -82 51 -133 137 -133z" />
    <glyph glyph-name="perthousand" unicode="&#x2030;" horiz-adv-x="1171" 
d="M225 332c-87 0 -143 61 -143 141c0 105 77 181 180 181c87 0 143 -60 143 -140c0 -115 -81 -182 -180 -182zM181 0h-75l546 641h74zM233 389c63 0 108 45 108 117c0 53 -36 89 -87 89c-63 0 -108 -45 -108 -115c0 -54 35 -91 87 -91zM573 -8c-87 0 -143 61 -143 141
c0 105 77 181 181 181c86 0 143 -60 143 -140c0 -115 -81 -182 -181 -182zM951 -8c-87 0 -143 61 -143 141c0 105 77 181 180 181c86 0 143 -60 143 -140c0 -115 -81 -182 -180 -182zM582 49c62 0 107 45 107 117c0 53 -36 89 -86 89c-63 0 -108 -45 -108 -115
c0 -54 34 -91 87 -91zM959 49c63 0 108 45 108 117c0 53 -36 89 -87 89c-63 0 -108 -45 -108 -115c0 -54 35 -91 87 -91z" />
    <glyph glyph-name="lozenge" unicode="&#x25ca;" horiz-adv-x="512" 
d="M494 320l-220 -320h-102l-107 320l219 321h101zM398 328l-77 228l-163 -243l77 -227z" />
    <glyph glyph-name="dieresis" unicode="&#xa8;" 
d="M132 606c0 31 28 59 59 59c25 0 44 -20 44 -44c0 -31 -29 -58 -60 -58c-25 0 -43 18 -43 43zM298 606c0 31 29 59 59 59c26 0 44 -20 44 -44c0 -31 -28 -58 -60 -58c-25 0 -43 18 -43 43z" />
    <glyph glyph-name="dotaccent" unicode="&#x2d9;" 
d="M212 608c0 34 31 64 64 64c28 0 47 -21 47 -47c0 -32 -31 -63 -64 -63c-28 0 -47 21 -47 46z" />
    <glyph glyph-name="acute" unicode="&#xb4;" 
d="M267 688h109l-147 -156h-84z" />
    <glyph glyph-name="hungarumlaut" unicode="&#x2dd;" 
d="M201 687h92l-142 -156h-73zM357 687h96l-146 -156h-72z" />
    <glyph glyph-name="circumflex" unicode="&#x2c6;" 
d="M179 532h-88l144 156h82l96 -156h-82l-61 101z" />
    <glyph glyph-name="caron" unicode="&#x2c7;" 
d="M293 532h-82l-96 156h82l61 -101l91 101h88z" />
    <glyph glyph-name="breve" unicode="&#x2d8;" 
d="M259 522c-86 0 -141 61 -125 155h65c-12 -63 16 -94 62 -94c48 0 83 31 94 94h66c-16 -94 -74 -155 -162 -155z" />
    <glyph glyph-name="ring" unicode="&#x2da;" 
d="M254 522c-59 0 -99 39 -99 93c0 72 60 127 131 127c60 0 98 -40 98 -92c0 -73 -59 -128 -130 -128zM261 574c38 0 67 31 67 68c0 28 -19 48 -48 48c-36 0 -68 -28 -68 -68c0 -29 18 -48 49 -48z" />
    <glyph glyph-name="tilde" unicode="&#x2dc;" 
d="M132 549l-41 37c35 63 74 83 110 83c59 0 80 -56 128 -56c28 0 50 24 69 54l40 -36c-33 -63 -71 -83 -107 -83c-58 0 -81 55 -128 55c-28 0 -52 -24 -71 -54z" />
    <glyph glyph-name="macron" unicode="&#xaf;" 
d="M132 651h281l-10 -68h-281z" />
    <glyph glyph-name="cedilla" unicode="&#xb8;" 
d="M160 0h61l-75 -186l-74 30z" />
    <glyph glyph-name="ogonek" unicode="&#x2db;" 
d="M215 33l45 -33c-81 -31 -131 -72 -131 -112c0 -18 14 -31 37 -31c21 0 37 7 60 25l24 -50c-27 -25 -64 -40 -105 -40c-56 0 -92 30 -92 77c0 66 55 120 162 164z" />
    <glyph glyph-name="commaaccent.alt" 
d="M166 538l66 142h73l-46 -142h-93z" />
    <glyph glyph-name="dieresiscomb" unicode="&#x308;" 
d="M132 606c0 31 28 59 59 59c25 0 44 -20 44 -44c0 -31 -29 -58 -60 -58c-25 0 -43 18 -43 43zM298 606c0 31 29 59 59 59c26 0 44 -20 44 -44c0 -31 -28 -58 -60 -58c-25 0 -43 18 -43 43z" />
    <glyph glyph-name="dotaccentcomb" unicode="&#x307;" horiz-adv-x="401" 
d="M212 608c0 34 31 64 64 64c28 0 47 -21 47 -47c0 -32 -31 -63 -64 -63c-28 0 -47 21 -47 46z" />
    <glyph glyph-name="gravecomb" unicode="&#x300;" horiz-adv-x="388" 
d="M205 688l73 -156h-77l-98 156h102z" />
    <glyph glyph-name="acutecomb" unicode="&#x301;" 
d="M267 688h109l-147 -156h-84z" />
    <glyph glyph-name="hungarumlautcomb" unicode="&#x30b;" 
d="M201 687h92l-142 -156h-73zM357 687h96l-146 -156h-72z" />
    <glyph glyph-name="caroncomb.alt" 
d="M308 688l-64 -166h-66l46 166h84z" />
    <glyph glyph-name="circumflexcomb" unicode="&#x302;" 
d="M179 532h-88l144 156h82l96 -156h-82l-61 101z" />
    <glyph glyph-name="caroncomb" unicode="&#x30c;" 
d="M293 532h-82l-96 156h82l61 -101l91 101h88z" />
    <glyph glyph-name="brevecomb" unicode="&#x306;" 
d="M259 522c-86 0 -141 61 -125 155h65c-12 -63 16 -94 62 -94c48 0 83 31 94 94h66c-16 -94 -74 -155 -162 -155z" />
    <glyph glyph-name="ringcomb" unicode="&#x30a;" 
d="M254 522c-59 0 -99 39 -99 93c0 72 60 127 131 127c60 0 98 -40 98 -92c0 -73 -59 -128 -130 -128zM261 574c38 0 67 31 67 68c0 28 -19 48 -48 48c-36 0 -68 -28 -68 -68c0 -29 18 -48 49 -48z" />
    <glyph glyph-name="tildecomb" unicode="&#x303;" horiz-adv-x="403" 
d="M132 549l-41 37c35 63 74 83 110 83c59 0 80 -56 128 -56c28 0 50 24 69 54l40 -36c-33 -63 -71 -83 -107 -83c-58 0 -81 55 -128 55c-28 0 -52 -24 -71 -54z" />
    <glyph glyph-name="macroncomb" unicode="&#x304;" 
d="M132 651h281l-10 -68h-281z" />
    <glyph glyph-name="commaaccentcomb" unicode="&#x326;" 
d="M225 -51l-65 -142h-71l46 142h90z" />
    <glyph glyph-name="cedillacomb" unicode="&#x327;" 
d="M160 0h61l-75 -186l-74 30z" />
    <glyph glyph-name="ogonekcomb" unicode="&#x328;" 
d="M215 33l45 -33c-81 -31 -131 -72 -131 -112c0 -18 14 -31 37 -31c21 0 37 7 60 25l24 -50c-27 -25 -64 -40 -105 -40c-56 0 -92 30 -92 77c0 66 55 120 162 164z" />
    <glyph glyph-name="strokeshortcomb" unicode="&#x335;" horiz-adv-x="376" 
d="M65 291h260l-10 -72h-260z" />
    <glyph glyph-name="commaaccentcomb.alt" 
d="M134 538l66 142h73l-46 -142h-93z" />
    <glyph glyph-name="commaaccent" 
d="M232 -51l-66 -142h-70l46 142h90z" />
    </font>
</defs>
</svg>
